<svg width="478" height="25" viewBox="0 0 478 25" fill="none" xmlns="http://www.w3.org/2000/svg">
<rect width="421.623" height="25" fill="#555555"/>
<path d="M22.1512 8.004C22.9819 8.004 23.6772 8.08333 24.2372 8.242C24.8066 8.40067 25.2312 8.662 25.5112 9.026C25.8006 9.39 25.9452 9.87533 25.9452 10.482C25.9452 10.874 25.8706 11.224 25.7212 11.532C25.5812 11.8307 25.3666 12.0827 25.0772 12.288C24.7972 12.484 24.4519 12.6193 24.0412 12.694V12.764C24.4612 12.8293 24.8392 12.9507 25.1752 13.128C25.5206 13.3053 25.7912 13.5573 25.9872 13.884C26.1832 14.2107 26.2812 14.6353 26.2812 15.158C26.2812 15.7647 26.1412 16.2827 25.8612 16.712C25.5812 17.132 25.1799 17.454 24.6572 17.678C24.1439 17.8927 23.5279 18 22.8092 18H19.2952V8.004H22.1512ZM22.4032 12.26C23.2619 12.26 23.8499 12.1247 24.1672 11.854C24.4846 11.574 24.6432 11.1633 24.6432 10.622C24.6432 10.0713 24.4472 9.67933 24.0552 9.446C23.6726 9.20333 23.0566 9.082 22.2072 9.082H20.5552V12.26H22.4032ZM20.5552 13.31V16.936H22.5712C23.4579 16.936 24.0739 16.7633 24.4192 16.418C24.7646 16.0727 24.9372 15.62 24.9372 15.06C24.9372 14.7053 24.8579 14.3973 24.6992 14.136C24.5499 13.8747 24.2932 13.674 23.9292 13.534C23.5746 13.3847 23.0892 13.31 22.4732 13.31H20.5552ZM29.4647 10.496V18H28.2327V10.496H29.4647ZM28.8627 7.682C29.0494 7.682 29.2127 7.74733 29.3527 7.878C29.502 7.99933 29.5767 8.19533 29.5767 8.466C29.5767 8.72733 29.502 8.92333 29.3527 9.054C29.2127 9.18467 29.0494 9.25 28.8627 9.25C28.6574 9.25 28.4847 9.18467 28.3447 9.054C28.2047 8.92333 28.1347 8.72733 28.1347 8.466C28.1347 8.19533 28.2047 7.99933 28.3447 7.878C28.4847 7.74733 28.6574 7.682 28.8627 7.682ZM34.3481 17.132C34.5347 17.132 34.7261 17.118 34.9221 17.09C35.1181 17.0527 35.2767 17.0153 35.3981 16.978V17.916C35.2674 17.9813 35.0807 18.0327 34.8381 18.07C34.5954 18.1167 34.3621 18.14 34.1381 18.14C33.7461 18.14 33.3821 18.0747 33.0461 17.944C32.7194 17.804 32.4534 17.566 32.2481 17.23C32.0427 16.894 31.9401 16.4227 31.9401 15.816V11.448H30.8761V10.86L31.9541 10.37L32.4441 8.774H33.1721V10.496H35.3421V11.448H33.1721V15.788C33.1721 16.2453 33.2794 16.586 33.4941 16.81C33.7181 17.0247 34.0027 17.132 34.3481 17.132ZM39.9107 18.14C39.248 18.14 38.6553 18.0047 38.1327 17.734C37.6193 17.4633 37.2133 17.0433 36.9147 16.474C36.6253 15.9047 36.4807 15.1767 36.4807 14.29C36.4807 13.366 36.6347 12.6147 36.9427 12.036C37.2507 11.4573 37.666 11.0327 38.1887 10.762C38.7207 10.4913 39.3227 10.356 39.9947 10.356C40.3773 10.356 40.746 10.398 41.1007 10.482C41.4553 10.5567 41.7447 10.65 41.9687 10.762L41.5907 11.784C41.3667 11.7 41.1053 11.6207 40.8067 11.546C40.508 11.4713 40.228 11.434 39.9667 11.434C39.4627 11.434 39.0473 11.5413 38.7207 11.756C38.394 11.9707 38.1513 12.288 37.9927 12.708C37.834 13.128 37.7547 13.6507 37.7547 14.276C37.7547 14.8733 37.834 15.382 37.9927 15.802C38.1513 16.222 38.3893 16.5393 38.7067 16.754C39.024 16.9687 39.4207 17.076 39.8967 17.076C40.3073 17.076 40.6667 17.034 40.9747 16.95C41.292 16.866 41.5813 16.7633 41.8427 16.642V17.734C41.5907 17.8647 41.3107 17.9627 41.0027 18.028C40.704 18.1027 40.34 18.14 39.9107 18.14ZM50.1512 14.234C50.1512 14.8593 50.0672 15.4147 49.8992 15.9C49.7406 16.376 49.5072 16.782 49.1992 17.118C48.9006 17.454 48.5319 17.7107 48.0932 17.888C47.6639 18.056 47.1832 18.14 46.6512 18.14C46.1566 18.14 45.6992 18.056 45.2792 17.888C44.8592 17.7107 44.4952 17.454 44.1872 17.118C43.8792 16.782 43.6366 16.376 43.4592 15.9C43.2912 15.4147 43.2072 14.8593 43.2072 14.234C43.2072 13.4033 43.3472 12.7033 43.6272 12.134C43.9072 11.5553 44.3086 11.1167 44.8312 10.818C45.3539 10.51 45.9746 10.356 46.6932 10.356C47.3746 10.356 47.9719 10.51 48.4852 10.818C49.0079 11.1167 49.4139 11.5553 49.7032 12.134C50.0019 12.7033 50.1512 13.4033 50.1512 14.234ZM44.4812 14.234C44.4812 14.822 44.5559 15.3353 44.7052 15.774C44.8639 16.2033 45.1066 16.5347 45.4332 16.768C45.7599 17.0013 46.1752 17.118 46.6792 17.118C47.1832 17.118 47.5986 17.0013 47.9252 16.768C48.2519 16.5347 48.4899 16.2033 48.6392 15.774C48.7979 15.3353 48.8772 14.822 48.8772 14.234C48.8772 13.6367 48.7979 13.128 48.6392 12.708C48.4806 12.288 48.2379 11.966 47.9112 11.742C47.5939 11.5087 47.1786 11.392 46.6652 11.392C45.8999 11.392 45.3446 11.644 44.9992 12.148C44.6539 12.652 44.4812 13.3473 44.4812 14.234ZM53.3358 10.496V18H52.1038V10.496H53.3358ZM52.7338 7.682C52.9204 7.682 53.0838 7.74733 53.2238 7.878C53.3731 7.99933 53.4478 8.19533 53.4478 8.466C53.4478 8.72733 53.3731 8.92333 53.2238 9.054C53.0838 9.18467 52.9204 9.25 52.7338 9.25C52.5284 9.25 52.3558 9.18467 52.2158 9.054C52.0758 8.92333 52.0058 8.72733 52.0058 8.466C52.0058 8.19533 52.0758 7.99933 52.2158 7.878C52.3558 7.74733 52.5284 7.682 52.7338 7.682ZM59.3252 10.356C60.2212 10.356 60.8978 10.5753 61.3552 11.014C61.8125 11.4433 62.0412 12.1433 62.0412 13.114V18H60.8232V13.198C60.8232 12.5913 60.6878 12.1387 60.4172 11.84C60.1465 11.5413 59.7218 11.392 59.1432 11.392C58.3125 11.392 57.7385 11.6253 57.4212 12.092C57.1038 12.5587 56.9452 13.2307 56.9452 14.108V18H55.7132V10.496H56.7072L56.8892 11.518H56.9592C57.1272 11.2567 57.3325 11.042 57.5752 10.874C57.8272 10.6967 58.1025 10.566 58.4012 10.482C58.6998 10.398 59.0078 10.356 59.3252 10.356ZM71.0282 8.004C71.8588 8.004 72.5542 8.08333 73.1142 8.242C73.6835 8.40067 74.1082 8.662 74.3882 9.026C74.6775 9.39 74.8222 9.87533 74.8222 10.482C74.8222 10.874 74.7475 11.224 74.5982 11.532C74.4582 11.8307 74.2435 12.0827 73.9542 12.288C73.6742 12.484 73.3288 12.6193 72.9182 12.694V12.764C73.3382 12.8293 73.7162 12.9507 74.0522 13.128C74.3975 13.3053 74.6682 13.5573 74.8642 13.884C75.0602 14.2107 75.1582 14.6353 75.1582 15.158C75.1582 15.7647 75.0182 16.2827 74.7382 16.712C74.4582 17.132 74.0568 17.454 73.5342 17.678C73.0208 17.8927 72.4048 18 71.6862 18H68.1722V8.004H71.0282ZM71.2802 12.26C72.1388 12.26 72.7268 12.1247 73.0442 11.854C73.3615 11.574 73.5202 11.1633 73.5202 10.622C73.5202 10.0713 73.3242 9.67933 72.9322 9.446C72.5495 9.20333 71.9335 9.082 71.0842 9.082H69.4322V12.26H71.2802ZM69.4322 13.31V16.936H71.4482C72.3348 16.936 72.9508 16.7633 73.2962 16.418C73.6415 16.0727 73.8142 15.62 73.8142 15.06C73.8142 14.7053 73.7348 14.3973 73.5762 14.136C73.4268 13.8747 73.1702 13.674 72.8062 13.534C72.4515 13.3847 71.9662 13.31 71.3502 13.31H69.4322ZM80.4416 18H79.1816V9.11H76.0596V8.004H83.5496V9.11H80.4416V18ZM89.0675 8.97C88.5355 8.97 88.0548 9.06333 87.6255 9.25C87.1962 9.42733 86.8322 9.69333 86.5335 10.048C86.2348 10.3933 86.0062 10.818 85.8475 11.322C85.6888 11.8167 85.6095 12.3767 85.6095 13.002C85.6095 13.8233 85.7355 14.5373 85.9875 15.144C86.2488 15.7507 86.6315 16.2173 87.1355 16.544C87.6488 16.8707 88.2882 17.034 89.0535 17.034C89.4922 17.034 89.9075 16.9967 90.2995 16.922C90.6915 16.8473 91.0742 16.754 91.4475 16.642V17.734C91.0742 17.874 90.6868 17.9767 90.2855 18.042C89.8935 18.1073 89.4222 18.14 88.8715 18.14C87.8542 18.14 87.0048 17.93 86.3235 17.51C85.6422 17.09 85.1288 16.4927 84.7835 15.718C84.4475 14.9433 84.2795 14.0333 84.2795 12.988C84.2795 12.232 84.3822 11.5413 84.5875 10.916C84.8022 10.2907 85.1102 9.74933 85.5115 9.292C85.9222 8.83467 86.4262 8.48467 87.0235 8.242C87.6208 7.99 88.3068 7.864 89.0815 7.864C89.5948 7.864 90.0895 7.91533 90.5655 8.018C91.0415 8.12067 91.4662 8.26533 91.8395 8.452L91.3355 9.516C91.0275 9.376 90.6822 9.25 90.2995 9.138C89.9262 9.026 89.5155 8.97 89.0675 8.97Z" fill="white"/>
<rect x="110.208" width="367.024" height="25" fill="#DB4794"/>
<path d="M123.467 9.95C123.467 10.2673 123.457 10.566 123.439 10.846C123.429 11.1167 123.415 11.3313 123.397 11.49H123.467C123.681 11.1727 123.975 10.9067 124.349 10.692C124.722 10.4773 125.203 10.37 125.791 10.37C126.724 10.37 127.471 10.6967 128.031 11.35C128.6 11.994 128.885 12.96 128.885 14.248C128.885 15.1067 128.754 15.8253 128.493 16.404C128.241 16.9827 127.881 17.4167 127.415 17.706C126.948 17.9953 126.407 18.14 125.791 18.14C125.203 18.14 124.722 18.0327 124.349 17.818C123.975 17.6033 123.681 17.3467 123.467 17.048H123.369L123.117 18H122.235V7.36H123.467V9.95ZM125.581 11.392C125.049 11.392 124.629 11.4947 124.321 11.7C124.013 11.896 123.793 12.204 123.663 12.624C123.532 13.0347 123.467 13.562 123.467 14.206V14.262C123.467 15.186 123.616 15.8953 123.915 16.39C124.223 16.8753 124.787 17.118 125.609 17.118C126.281 17.118 126.78 16.8707 127.107 16.376C127.443 15.8813 127.611 15.1673 127.611 14.234C127.611 13.2913 127.443 12.582 127.107 12.106C126.78 11.63 126.271 11.392 125.581 11.392ZM133.858 18.14C133.195 18.14 132.603 18.0047 132.08 17.734C131.567 17.4633 131.161 17.0433 130.862 16.474C130.573 15.9047 130.428 15.1767 130.428 14.29C130.428 13.366 130.582 12.6147 130.89 12.036C131.198 11.4573 131.613 11.0327 132.136 10.762C132.668 10.4913 133.27 10.356 133.942 10.356C134.325 10.356 134.693 10.398 135.048 10.482C135.403 10.5567 135.692 10.65 135.916 10.762L135.538 11.784C135.314 11.7 135.053 11.6207 134.754 11.546C134.455 11.4713 134.175 11.434 133.914 11.434C133.41 11.434 132.995 11.5413 132.668 11.756C132.341 11.9707 132.099 12.288 131.94 12.708C131.781 13.128 131.702 13.6507 131.702 14.276C131.702 14.8733 131.781 15.382 131.94 15.802C132.099 16.222 132.337 16.5393 132.654 16.754C132.971 16.9687 133.368 17.076 133.844 17.076C134.255 17.076 134.614 17.034 134.922 16.95C135.239 16.866 135.529 16.7633 135.79 16.642V17.734C135.538 17.8647 135.258 17.9627 134.95 18.028C134.651 18.1027 134.287 18.14 133.858 18.14ZM141.355 18H140.151V11.014C140.151 10.7433 140.151 10.5147 140.151 10.328C140.16 10.1413 140.169 9.96867 140.179 9.81C140.188 9.642 140.197 9.46933 140.207 9.292C140.057 9.44133 139.922 9.56733 139.801 9.67C139.679 9.77267 139.525 9.90333 139.339 10.062L138.275 10.93L137.631 10.104L140.333 8.004H141.355V18ZM150.584 18.154C150.584 17.986 150.589 17.79 150.598 17.566C150.608 17.342 150.626 17.1507 150.654 16.992H150.57C150.356 17.3093 150.057 17.58 149.674 17.804C149.301 18.028 148.816 18.14 148.218 18.14C147.313 18.14 146.576 17.818 146.006 17.174C145.446 16.5207 145.166 15.55 145.166 14.262C145.166 13.4033 145.297 12.6847 145.558 12.106C145.82 11.5273 146.184 11.0933 146.65 10.804C147.117 10.5053 147.654 10.356 148.26 10.356C148.848 10.356 149.329 10.468 149.702 10.692C150.076 10.916 150.374 11.1913 150.598 11.518H150.654L150.836 10.496H151.816V21.36H150.584V18.154ZM148.456 17.118C148.97 17.118 149.38 17.0247 149.688 16.838C150.006 16.6513 150.234 16.3667 150.374 15.984C150.514 15.592 150.589 15.1067 150.598 14.528V14.276C150.598 13.324 150.44 12.6053 150.122 12.12C149.805 11.6253 149.24 11.378 148.428 11.378C147.756 11.378 147.257 11.644 146.93 12.176C146.604 12.6987 146.44 13.4033 146.44 14.29C146.44 15.1767 146.604 15.872 146.93 16.376C147.266 16.8707 147.775 17.118 148.456 17.118ZM159.044 13.758C158.988 13.562 158.932 13.3707 158.876 13.184C158.82 12.988 158.768 12.806 158.722 12.638C158.684 12.4607 158.647 12.2973 158.61 12.148C158.572 11.9987 158.544 11.8727 158.526 11.77H158.47C158.451 11.8727 158.423 11.9987 158.386 12.148C158.358 12.2973 158.32 12.4607 158.274 12.638C158.236 12.8153 158.19 13.002 158.134 13.198C158.087 13.3847 158.031 13.576 157.966 13.772L156.622 17.986H155.222L153.164 10.482H154.438L155.474 14.486C155.548 14.7567 155.618 15.032 155.684 15.312C155.749 15.5827 155.805 15.844 155.852 16.096C155.908 16.3387 155.945 16.5487 155.964 16.726H156.02C156.048 16.614 156.08 16.474 156.118 16.306C156.155 16.138 156.192 15.9607 156.23 15.774C156.276 15.5873 156.323 15.4007 156.37 15.214C156.426 15.0273 156.477 14.8593 156.524 14.71L157.854 10.482H159.198L160.486 14.71C160.551 14.9247 160.616 15.1533 160.682 15.396C160.756 15.6387 160.822 15.8767 160.878 16.11C160.934 16.334 160.971 16.5347 160.99 16.712H161.046C161.064 16.5533 161.097 16.3573 161.144 16.124C161.2 15.8813 161.26 15.62 161.326 15.34C161.4 15.0507 161.475 14.766 161.55 14.486L162.6 10.482H163.86L161.774 17.986H160.332L159.044 13.758ZM166.984 14.164L164.394 10.496H165.794L167.726 13.324L169.644 10.496H171.03L168.44 14.164L171.17 18H169.77L167.726 15.004L165.654 18H164.268L166.984 14.164ZM176.074 11.448H174.184V18H172.952V11.448H171.636V10.874L172.952 10.454V10.02C172.952 9.376 173.045 8.85333 173.232 8.452C173.428 8.05067 173.708 7.75667 174.072 7.57C174.436 7.38333 174.874 7.29 175.388 7.29C175.686 7.29 175.957 7.318 176.2 7.374C176.452 7.42067 176.666 7.47667 176.844 7.542L176.522 8.508C176.372 8.46133 176.2 8.41467 176.004 8.368C175.808 8.32133 175.607 8.298 175.402 8.298C174.991 8.298 174.683 8.438 174.478 8.718C174.282 8.98867 174.184 9.418 174.184 10.006V10.496H176.074V11.448ZM180.998 10.356C181.922 10.356 182.664 10.678 183.224 11.322C183.794 11.966 184.078 12.9367 184.078 14.234C184.078 15.0833 183.948 15.802 183.686 16.39C183.434 16.9687 183.075 17.4073 182.608 17.706C182.151 17.9953 181.61 18.14 180.984 18.14C180.602 18.14 180.261 18.0887 179.962 17.986C179.664 17.8833 179.407 17.7527 179.192 17.594C178.987 17.426 178.81 17.244 178.66 17.048H178.576C178.595 17.2067 178.614 17.4073 178.632 17.65C178.651 17.8927 178.66 18.1027 178.66 18.28V21.36H177.428V10.496H178.436L178.604 11.518H178.66C178.81 11.3033 178.987 11.1073 179.192 10.93C179.407 10.7527 179.659 10.6127 179.948 10.51C180.247 10.4073 180.597 10.356 180.998 10.356ZM180.774 11.392C180.27 11.392 179.864 11.49 179.556 11.686C179.248 11.8727 179.024 12.1573 178.884 12.54C178.744 12.9227 178.67 13.408 178.66 13.996V14.234C178.66 14.85 178.726 15.3727 178.856 15.802C178.987 16.2313 179.206 16.558 179.514 16.782C179.832 17.006 180.261 17.118 180.802 17.118C181.26 17.118 181.633 16.992 181.922 16.74C182.221 16.488 182.44 16.1473 182.58 15.718C182.73 15.2793 182.804 14.78 182.804 14.22C182.804 13.3613 182.636 12.6753 182.3 12.162C181.974 11.6487 181.465 11.392 180.774 11.392ZM185.621 13.73C185.621 13.1513 185.659 12.582 185.733 12.022C185.817 11.462 185.957 10.9347 186.153 10.44C186.349 9.936 186.62 9.49267 186.965 9.11C187.311 8.718 187.745 8.41467 188.267 8.2C188.799 7.976 189.443 7.864 190.199 7.864C190.395 7.864 190.61 7.87333 190.843 7.892C191.086 7.91067 191.282 7.94333 191.431 7.99V9.04C191.263 8.984 191.072 8.942 190.857 8.914C190.652 8.886 190.442 8.872 190.227 8.872C189.583 8.872 189.047 8.97933 188.617 9.194C188.188 9.40867 187.847 9.70267 187.595 10.076C187.353 10.4493 187.175 10.8787 187.063 11.364C186.951 11.8493 186.881 12.3673 186.853 12.918H186.937C187.077 12.694 187.255 12.4933 187.469 12.316C187.684 12.1387 187.941 11.9987 188.239 11.896C188.547 11.7933 188.902 11.742 189.303 11.742C189.882 11.742 190.386 11.8633 190.815 12.106C191.254 12.3393 191.595 12.6847 191.837 13.142C192.08 13.59 192.201 14.136 192.201 14.78C192.201 15.4707 192.071 16.068 191.809 16.572C191.548 17.076 191.179 17.4633 190.703 17.734C190.237 18.0047 189.677 18.14 189.023 18.14C188.547 18.14 188.104 18.0513 187.693 17.874C187.283 17.6967 186.919 17.426 186.601 17.062C186.293 16.698 186.051 16.2407 185.873 15.69C185.705 15.13 185.621 14.4767 185.621 13.73ZM189.009 17.104C189.597 17.104 190.073 16.9173 190.437 16.544C190.801 16.1613 190.983 15.5733 190.983 14.78C190.983 14.1453 190.82 13.6413 190.493 13.268C190.176 12.8947 189.695 12.708 189.051 12.708C188.613 12.708 188.23 12.8013 187.903 12.988C187.577 13.1653 187.32 13.394 187.133 13.674C186.956 13.954 186.867 14.2433 186.867 14.542C186.867 14.85 186.909 15.1533 186.993 15.452C187.087 15.7507 187.222 16.026 187.399 16.278C187.586 16.53 187.81 16.7307 188.071 16.88C188.342 17.0293 188.655 17.104 189.009 17.104ZM197.511 11.448H195.621V18H194.389V11.448H193.073V10.874L194.389 10.454V10.02C194.389 9.376 194.483 8.85333 194.669 8.452C194.865 8.05067 195.145 7.75667 195.509 7.57C195.873 7.38333 196.312 7.29 196.825 7.29C197.124 7.29 197.395 7.318 197.637 7.374C197.889 7.42067 198.104 7.47667 198.281 7.542L197.959 8.508C197.81 8.46133 197.637 8.41467 197.441 8.368C197.245 8.32133 197.045 8.298 196.839 8.298C196.429 8.298 196.121 8.438 195.915 8.718C195.719 8.98867 195.621 9.418 195.621 10.006V10.496H197.511V11.448ZM202.478 10.356C203.374 10.356 204.05 10.5753 204.508 11.014C204.965 11.4433 205.194 12.1433 205.194 13.114V18H203.976V13.198C203.976 12.5913 203.84 12.1387 203.57 11.84C203.299 11.5413 202.874 11.392 202.296 11.392C201.465 11.392 200.891 11.6253 200.574 12.092C200.256 12.5587 200.098 13.2307 200.098 14.108V18H198.866V10.496H199.86L200.042 11.518H200.112C200.28 11.2567 200.485 11.042 200.728 10.874C200.98 10.6967 201.255 10.566 201.554 10.482C201.852 10.398 202.16 10.356 202.478 10.356ZM210.18 11.868C210.861 11.868 211.454 11.9847 211.958 12.218C212.462 12.4513 212.849 12.7873 213.12 13.226C213.4 13.6553 213.54 14.1827 213.54 14.808C213.54 15.4987 213.391 16.096 213.092 16.6C212.793 17.0947 212.364 17.4773 211.804 17.748C211.253 18.0093 210.586 18.14 209.802 18.14C209.289 18.14 208.803 18.0933 208.346 18C207.898 17.9067 207.52 17.7713 207.212 17.594V16.432C207.548 16.6373 207.954 16.8007 208.43 16.922C208.915 17.034 209.377 17.09 209.816 17.09C210.311 17.09 210.74 17.0153 211.104 16.866C211.477 16.7073 211.767 16.4693 211.972 16.152C212.177 15.8253 212.28 15.4193 212.28 14.934C212.28 14.2807 212.079 13.7813 211.678 13.436C211.277 13.0813 210.642 12.904 209.774 12.904C209.513 12.904 209.214 12.9273 208.878 12.974C208.542 13.0207 208.271 13.0673 208.066 13.114L207.45 12.722L207.828 8.004H212.84V9.124H208.878L208.64 12.022C208.799 11.994 209.013 11.9613 209.284 11.924C209.555 11.8867 209.853 11.868 210.18 11.868ZM221.622 12.274C221.622 12.8433 221.58 13.4127 221.496 13.982C221.421 14.542 221.286 15.074 221.09 15.578C220.894 16.0727 220.623 16.516 220.278 16.908C219.932 17.2907 219.494 17.594 218.962 17.818C218.43 18.0327 217.786 18.14 217.03 18.14C216.843 18.14 216.624 18.126 216.372 18.098C216.129 18.0793 215.928 18.0467 215.77 18V16.95C215.938 17.006 216.134 17.0527 216.358 17.09C216.582 17.118 216.796 17.132 217.002 17.132C217.655 17.132 218.192 17.0247 218.612 16.81C219.041 16.5953 219.382 16.306 219.634 15.942C219.886 15.5687 220.068 15.1393 220.18 14.654C220.292 14.1593 220.357 13.6413 220.376 13.1H220.292C220.152 13.3147 219.974 13.5107 219.76 13.688C219.545 13.8653 219.284 14.0053 218.976 14.108C218.677 14.2107 218.322 14.262 217.912 14.262C217.342 14.262 216.838 14.1453 216.4 13.912C215.97 13.6693 215.634 13.324 215.392 12.876C215.158 12.428 215.042 11.882 215.042 11.238C215.042 10.538 215.172 9.936 215.434 9.432C215.704 8.928 216.078 8.54067 216.554 8.27C217.03 7.99933 217.59 7.864 218.234 7.864C218.71 7.864 219.153 7.95733 219.564 8.144C219.974 8.32133 220.334 8.592 220.642 8.956C220.95 9.32 221.188 9.77733 221.356 10.328C221.533 10.8787 221.622 11.5273 221.622 12.274ZM218.234 8.9C217.655 8.9 217.179 9.09133 216.806 9.474C216.442 9.85667 216.26 10.44 216.26 11.224C216.26 11.868 216.414 12.3767 216.722 12.75C217.039 13.114 217.524 13.296 218.178 13.296C218.626 13.296 219.013 13.2073 219.34 13.03C219.666 12.8433 219.918 12.61 220.096 12.33C220.282 12.05 220.376 11.7607 220.376 11.462C220.376 11.1633 220.329 10.8647 220.236 10.566C220.152 10.258 220.021 9.978 219.844 9.726C219.666 9.474 219.442 9.27333 219.172 9.124C218.901 8.97467 218.588 8.9 218.234 8.9ZM227.155 10.356C228.051 10.356 228.728 10.5753 229.185 11.014C229.643 11.4433 229.871 12.1433 229.871 13.114V18H228.653V13.198C228.653 12.5913 228.518 12.1387 228.247 11.84C227.977 11.5413 227.552 11.392 226.973 11.392C226.143 11.392 225.569 11.6253 225.251 12.092C224.934 12.5587 224.775 13.2307 224.775 14.108V18H223.543V10.496H224.537L224.719 11.518H224.789C224.957 11.2567 225.163 11.042 225.405 10.874C225.657 10.6967 225.933 10.566 226.231 10.482C226.53 10.398 226.838 10.356 227.155 10.356ZM235.04 10.37C235.954 10.37 236.631 10.5707 237.07 10.972C237.508 11.3733 237.728 12.0127 237.728 12.89V18H236.832L236.594 16.936H236.538C236.323 17.2067 236.099 17.4353 235.866 17.622C235.642 17.7993 235.38 17.93 235.082 18.014C234.792 18.098 234.438 18.14 234.018 18.14C233.57 18.14 233.164 18.0607 232.8 17.902C232.445 17.7433 232.165 17.5007 231.96 17.174C231.754 16.838 231.652 16.418 231.652 15.914C231.652 15.1673 231.946 14.5933 232.534 14.192C233.122 13.7813 234.027 13.5573 235.25 13.52L236.524 13.478V13.03C236.524 12.4047 236.388 11.9707 236.118 11.728C235.847 11.4853 235.464 11.364 234.97 11.364C234.578 11.364 234.204 11.4247 233.85 11.546C233.495 11.658 233.164 11.7887 232.856 11.938L232.478 11.014C232.804 10.8367 233.192 10.6873 233.64 10.566C234.088 10.4353 234.554 10.37 235.04 10.37ZM235.404 14.374C234.47 14.4113 233.822 14.5607 233.458 14.822C233.103 15.0833 232.926 15.452 232.926 15.928C232.926 16.348 233.052 16.656 233.304 16.852C233.565 17.048 233.896 17.146 234.298 17.146C234.932 17.146 235.46 16.9733 235.88 16.628C236.3 16.2733 236.51 15.732 236.51 15.004V14.332L235.404 14.374ZM240.759 18L244.861 9.124H239.471V8.004H246.177V8.956L242.117 18H240.759ZM252.901 13.758C252.845 13.562 252.789 13.3707 252.733 13.184C252.677 12.988 252.626 12.806 252.579 12.638C252.542 12.4607 252.504 12.2973 252.467 12.148C252.43 11.9987 252.402 11.8727 252.383 11.77H252.327C252.308 11.8727 252.28 11.9987 252.243 12.148C252.215 12.2973 252.178 12.4607 252.131 12.638C252.094 12.8153 252.047 13.002 251.991 13.198C251.944 13.3847 251.888 13.576 251.823 13.772L250.479 17.986H249.079L247.021 10.482H248.295L249.331 14.486C249.406 14.7567 249.476 15.032 249.541 15.312C249.606 15.5827 249.662 15.844 249.709 16.096C249.765 16.3387 249.802 16.5487 249.821 16.726H249.877C249.905 16.614 249.938 16.474 249.975 16.306C250.012 16.138 250.05 15.9607 250.087 15.774C250.134 15.5873 250.18 15.4007 250.227 15.214C250.283 15.0273 250.334 14.8593 250.381 14.71L251.711 10.482H253.055L254.343 14.71C254.408 14.9247 254.474 15.1533 254.539 15.396C254.614 15.6387 254.679 15.8767 254.735 16.11C254.791 16.334 254.828 16.5347 254.847 16.712H254.903C254.922 16.5533 254.954 16.3573 255.001 16.124C255.057 15.8813 255.118 15.62 255.183 15.34C255.258 15.0507 255.332 14.766 255.407 14.486L256.457 10.482H257.717L255.631 17.986H254.189L252.901 13.758ZM265.335 10.496V18H264.327L264.145 17.006H264.089C263.93 17.2673 263.725 17.482 263.473 17.65C263.221 17.818 262.946 17.9393 262.647 18.014C262.348 18.098 262.036 18.14 261.709 18.14C261.112 18.14 260.608 18.0467 260.197 17.86C259.796 17.664 259.492 17.3653 259.287 16.964C259.082 16.5627 258.979 16.0447 258.979 15.41V10.496H260.225V15.326C260.225 15.9233 260.36 16.3713 260.631 16.67C260.902 16.9687 261.322 17.118 261.891 17.118C262.451 17.118 262.89 17.0153 263.207 16.81C263.534 16.5953 263.762 16.2873 263.893 15.886C264.033 15.4753 264.103 14.9807 264.103 14.402V10.496H265.335ZM273.807 18H267.199V16.978L269.817 14.332C270.321 13.828 270.746 13.38 271.091 12.988C271.437 12.596 271.698 12.2133 271.875 11.84C272.053 11.4573 272.141 11.042 272.141 10.594C272.141 10.0433 271.978 9.628 271.651 9.348C271.325 9.05867 270.9 8.914 270.377 8.914C269.892 8.914 269.463 8.998 269.089 9.166C268.725 9.334 268.352 9.56733 267.969 9.866L267.311 9.04C267.573 8.816 267.857 8.61533 268.165 8.438C268.483 8.26067 268.823 8.12067 269.187 8.018C269.561 7.91533 269.957 7.864 270.377 7.864C271.003 7.864 271.539 7.97133 271.987 8.186C272.435 8.40067 272.781 8.70867 273.023 9.11C273.275 9.502 273.401 9.97333 273.401 10.524C273.401 10.916 273.341 11.2893 273.219 11.644C273.098 11.9893 272.925 12.33 272.701 12.666C272.477 13.002 272.207 13.3427 271.889 13.688C271.572 14.0333 271.222 14.3927 270.839 14.766L268.753 16.824V16.88H273.807V18ZM280.727 18.154C280.727 17.986 280.732 17.79 280.741 17.566C280.75 17.342 280.769 17.1507 280.797 16.992H280.713C280.498 17.3093 280.2 17.58 279.817 17.804C279.444 18.028 278.958 18.14 278.361 18.14C277.456 18.14 276.718 17.818 276.149 17.174C275.589 16.5207 275.309 15.55 275.309 14.262C275.309 13.4033 275.44 12.6847 275.701 12.106C275.962 11.5273 276.326 11.0933 276.793 10.804C277.26 10.5053 277.796 10.356 278.403 10.356C278.991 10.356 279.472 10.468 279.845 10.692C280.218 10.916 280.517 11.1913 280.741 11.518H280.797L280.979 10.496H281.959V21.36H280.727V18.154ZM278.599 17.118C279.112 17.118 279.523 17.0247 279.831 16.838C280.148 16.6513 280.377 16.3667 280.517 15.984C280.657 15.592 280.732 15.1067 280.741 14.528V14.276C280.741 13.324 280.582 12.6053 280.265 12.12C279.948 11.6253 279.383 11.378 278.571 11.378C277.899 11.378 277.4 11.644 277.073 12.176C276.746 12.6987 276.583 13.4033 276.583 14.29C276.583 15.1767 276.746 15.872 277.073 16.376C277.409 16.8707 277.918 17.118 278.599 17.118ZM289.34 18.154C289.34 17.986 289.345 17.79 289.354 17.566C289.364 17.342 289.382 17.1507 289.41 16.992H289.326C289.112 17.3093 288.813 17.58 288.43 17.804C288.057 18.028 287.572 18.14 286.974 18.14C286.069 18.14 285.332 17.818 284.762 17.174C284.202 16.5207 283.922 15.55 283.922 14.262C283.922 13.4033 284.053 12.6847 284.314 12.106C284.576 11.5273 284.94 11.0933 285.406 10.804C285.873 10.5053 286.41 10.356 287.016 10.356C287.604 10.356 288.085 10.468 288.458 10.692C288.832 10.916 289.13 11.1913 289.354 11.518H289.41L289.592 10.496H290.572V21.36H289.34V18.154ZM287.212 17.118C287.726 17.118 288.136 17.0247 288.444 16.838C288.762 16.6513 288.99 16.3667 289.13 15.984C289.27 15.592 289.345 15.1067 289.354 14.528V14.276C289.354 13.324 289.196 12.6053 288.878 12.12C288.561 11.6253 287.996 11.378 287.184 11.378C286.512 11.378 286.013 11.644 285.686 12.176C285.36 12.6987 285.196 13.4033 285.196 14.29C285.196 15.1767 285.36 15.872 285.686 16.376C286.022 16.8707 286.531 17.118 287.212 17.118ZM294.188 10.482C294.188 10.6593 294.178 10.8413 294.16 11.028C294.15 11.2147 294.136 11.3827 294.118 11.532H294.202C294.36 11.2707 294.561 11.056 294.804 10.888C295.046 10.72 295.317 10.594 295.616 10.51C295.914 10.4167 296.222 10.37 296.54 10.37C297.146 10.37 297.65 10.468 298.052 10.664C298.462 10.8507 298.77 11.1447 298.976 11.546C299.181 11.9473 299.284 12.47 299.284 13.114V18H298.066V13.198C298.066 12.5913 297.93 12.1387 297.66 11.84C297.389 11.5413 296.964 11.392 296.386 11.392C295.826 11.392 295.387 11.4993 295.07 11.714C294.752 11.9193 294.524 12.2273 294.384 12.638C294.253 13.0393 294.188 13.534 294.188 14.122V18H292.956V7.36H294.188V10.482ZM306.454 13.758C306.398 13.562 306.342 13.3707 306.286 13.184C306.23 12.988 306.178 12.806 306.132 12.638C306.094 12.4607 306.057 12.2973 306.02 12.148C305.982 11.9987 305.954 11.8727 305.936 11.77H305.88C305.861 11.8727 305.833 11.9987 305.796 12.148C305.768 12.2973 305.73 12.4607 305.684 12.638C305.646 12.8153 305.6 13.002 305.544 13.198C305.497 13.3847 305.441 13.576 305.376 13.772L304.032 17.986H302.632L300.574 10.482H301.848L302.884 14.486C302.958 14.7567 303.028 15.032 303.094 15.312C303.159 15.5827 303.215 15.844 303.262 16.096C303.318 16.3387 303.355 16.5487 303.374 16.726H303.43C303.458 16.614 303.49 16.474 303.528 16.306C303.565 16.138 303.602 15.9607 303.64 15.774C303.686 15.5873 303.733 15.4007 303.78 15.214C303.836 15.0273 303.887 14.8593 303.934 14.71L305.264 10.482H306.608L307.896 14.71C307.961 14.9247 308.026 15.1533 308.092 15.396C308.166 15.6387 308.232 15.8767 308.288 16.11C308.344 16.334 308.381 16.5347 308.4 16.712H308.456C308.474 16.5533 308.507 16.3573 308.554 16.124C308.61 15.8813 308.67 15.62 308.736 15.34C308.81 15.0507 308.885 14.766 308.96 14.486L310.01 10.482H311.27L309.184 17.986H307.742L306.454 13.758ZM315.416 7.864C316.004 7.864 316.522 7.95733 316.97 8.144C317.418 8.32133 317.768 8.58733 318.02 8.942C318.281 9.29667 318.412 9.73533 318.412 10.258C318.412 10.6593 318.323 11.0093 318.146 11.308C317.978 11.6067 317.749 11.8727 317.46 12.106C317.17 12.33 316.853 12.5307 316.508 12.708C316.918 12.904 317.292 13.128 317.628 13.38C317.964 13.6227 318.23 13.9073 318.426 14.234C318.631 14.5607 318.734 14.9527 318.734 15.41C318.734 15.97 318.598 16.4553 318.328 16.866C318.057 17.2673 317.674 17.58 317.18 17.804C316.694 18.028 316.12 18.14 315.458 18.14C314.739 18.14 314.128 18.0327 313.624 17.818C313.129 17.6033 312.751 17.3 312.49 16.908C312.238 16.5067 312.112 16.0213 312.112 15.452C312.112 14.9947 312.205 14.598 312.392 14.262C312.588 13.926 312.844 13.6367 313.162 13.394C313.479 13.1513 313.82 12.946 314.184 12.778C313.857 12.5913 313.558 12.3813 313.288 12.148C313.026 11.9053 312.816 11.63 312.658 11.322C312.508 11.014 312.434 10.6547 312.434 10.244C312.434 9.73067 312.564 9.30133 312.826 8.956C313.087 8.60133 313.442 8.33067 313.89 8.144C314.338 7.95733 314.846 7.864 315.416 7.864ZM313.316 15.466C313.316 15.9513 313.488 16.3573 313.834 16.684C314.179 17.0013 314.711 17.16 315.43 17.16C315.887 17.16 316.27 17.0853 316.578 16.936C316.886 16.7867 317.119 16.5813 317.278 16.32C317.446 16.0587 317.53 15.76 317.53 15.424C317.53 15.0973 317.441 14.8127 317.264 14.57C317.096 14.318 316.853 14.094 316.536 13.898C316.228 13.702 315.859 13.5247 315.43 13.366L315.206 13.282C314.795 13.4593 314.45 13.6507 314.17 13.856C313.89 14.0613 313.675 14.2947 313.526 14.556C313.386 14.8173 313.316 15.1207 313.316 15.466ZM315.402 8.858C314.888 8.858 314.464 8.984 314.128 9.236C313.801 9.47867 313.638 9.83333 313.638 10.3C313.638 10.6453 313.717 10.9347 313.876 11.168C314.044 11.4013 314.268 11.602 314.548 11.77C314.828 11.9287 315.136 12.0827 315.472 12.232C315.798 12.092 316.088 11.938 316.34 11.77C316.601 11.602 316.806 11.4013 316.956 11.168C317.114 10.9253 317.194 10.636 317.194 10.3C317.194 9.83333 317.03 9.47867 316.704 9.236C316.377 8.984 315.943 8.858 315.402 8.858ZM326.717 18H320.109V16.978L322.727 14.332C323.231 13.828 323.656 13.38 324.001 12.988C324.347 12.596 324.608 12.2133 324.785 11.84C324.963 11.4573 325.051 11.042 325.051 10.594C325.051 10.0433 324.888 9.628 324.561 9.348C324.235 9.05867 323.81 8.914 323.287 8.914C322.802 8.914 322.373 8.998 321.999 9.166C321.635 9.334 321.262 9.56733 320.879 9.866L320.221 9.04C320.483 8.816 320.767 8.61533 321.075 8.438C321.393 8.26067 321.733 8.12067 322.097 8.018C322.471 7.91533 322.867 7.864 323.287 7.864C323.913 7.864 324.449 7.97133 324.897 8.186C325.345 8.40067 325.691 8.70867 325.933 9.11C326.185 9.502 326.311 9.97333 326.311 10.524C326.311 10.916 326.251 11.2893 326.129 11.644C326.008 11.9893 325.835 12.33 325.611 12.666C325.387 13.002 325.117 13.3427 324.799 13.688C324.482 14.0333 324.132 14.3927 323.749 14.766L321.663 16.824V16.88H326.717V18ZM327.463 10.496H328.779L330.403 14.766C330.496 15.018 330.58 15.2607 330.655 15.494C330.739 15.7273 330.814 15.956 330.879 16.18C330.944 16.3947 330.996 16.6047 331.033 16.81H331.089C331.145 16.5767 331.234 16.2733 331.355 15.9C331.476 15.5173 331.602 15.1347 331.733 14.752L333.259 10.496H334.589L331.355 19.036C331.178 19.5027 330.968 19.9087 330.725 20.254C330.492 20.6087 330.202 20.8793 329.857 21.066C329.521 21.262 329.11 21.36 328.625 21.36C328.401 21.36 328.205 21.346 328.037 21.318C327.869 21.2993 327.724 21.276 327.603 21.248V20.268C327.706 20.2867 327.827 20.3053 327.967 20.324C328.116 20.3427 328.27 20.352 328.429 20.352C328.718 20.352 328.966 20.296 329.171 20.184C329.386 20.0813 329.568 19.9273 329.717 19.722C329.866 19.526 329.992 19.2927 330.095 19.022L330.487 18.028L327.463 10.496ZM338.436 10.356C338.93 10.356 339.374 10.4493 339.766 10.636C340.167 10.8227 340.508 11.1073 340.788 11.49H340.858L341.026 10.496H342.006V18.126C342.006 18.8353 341.884 19.428 341.642 19.904C341.399 20.3893 341.03 20.7533 340.536 20.996C340.041 21.2387 339.411 21.36 338.646 21.36C338.104 21.36 337.605 21.318 337.148 21.234C336.7 21.1593 336.298 21.0427 335.944 20.884V19.75C336.186 19.8713 336.452 19.974 336.742 20.058C337.031 20.1513 337.344 20.2213 337.68 20.268C338.016 20.3147 338.361 20.338 338.716 20.338C339.36 20.338 339.864 20.1467 340.228 19.764C340.601 19.3907 340.788 18.8773 340.788 18.224V17.93C340.788 17.818 340.792 17.6593 340.802 17.454C340.811 17.2393 340.82 17.09 340.83 17.006H340.774C340.512 17.3887 340.186 17.6733 339.794 17.86C339.411 18.0467 338.963 18.14 338.45 18.14C337.479 18.14 336.718 17.7993 336.168 17.118C335.626 16.4367 335.356 15.4847 335.356 14.262C335.356 13.4593 335.477 12.7687 335.72 12.19C335.972 11.602 336.326 11.1493 336.784 10.832C337.241 10.5147 337.792 10.356 338.436 10.356ZM338.604 11.392C338.184 11.392 337.824 11.504 337.526 11.728C337.236 11.952 337.012 12.2787 336.854 12.708C336.704 13.1373 336.63 13.66 336.63 14.276C336.63 15.2 336.798 15.9093 337.134 16.404C337.479 16.8893 337.978 17.132 338.632 17.132C339.014 17.132 339.341 17.0853 339.612 16.992C339.882 16.8893 340.106 16.7353 340.284 16.53C340.461 16.3153 340.592 16.0447 340.676 15.718C340.76 15.3913 340.802 15.004 340.802 14.556V14.262C340.802 13.5807 340.722 13.03 340.564 12.61C340.414 12.19 340.176 11.882 339.85 11.686C339.523 11.49 339.108 11.392 338.604 11.392ZM349.387 18.154C349.387 17.986 349.392 17.79 349.401 17.566C349.41 17.342 349.429 17.1507 349.457 16.992H349.373C349.158 17.3093 348.86 17.58 348.477 17.804C348.104 18.028 347.618 18.14 347.021 18.14C346.116 18.14 345.378 17.818 344.809 17.174C344.249 16.5207 343.969 15.55 343.969 14.262C343.969 13.4033 344.1 12.6847 344.361 12.106C344.622 11.5273 344.986 11.0933 345.453 10.804C345.92 10.5053 346.456 10.356 347.063 10.356C347.651 10.356 348.132 10.468 348.505 10.692C348.878 10.916 349.177 11.1913 349.401 11.518H349.457L349.639 10.496H350.619V21.36H349.387V18.154ZM347.259 17.118C347.772 17.118 348.183 17.0247 348.491 16.838C348.808 16.6513 349.037 16.3667 349.177 15.984C349.317 15.592 349.392 15.1067 349.401 14.528V14.276C349.401 13.324 349.242 12.6053 348.925 12.12C348.608 11.6253 348.043 11.378 347.231 11.378C346.559 11.378 346.06 11.644 345.733 12.176C345.406 12.6987 345.243 13.4033 345.243 14.29C345.243 15.1767 345.406 15.872 345.733 16.376C346.069 16.8707 346.578 17.118 347.259 17.118ZM354.22 12.918C354.22 13.0673 354.211 13.2633 354.192 13.506C354.183 13.7487 354.174 13.9587 354.164 14.136H354.22C354.276 14.0613 354.36 13.954 354.472 13.814C354.584 13.674 354.696 13.534 354.808 13.394C354.93 13.2447 355.032 13.1233 355.116 13.03L357.51 10.496H358.952L355.914 13.702L359.162 18H357.678L355.074 14.5L354.22 15.242V18H353.002V7.36H354.22V12.918ZM366.193 10.342C366.193 10.79 366.109 11.1773 365.941 11.504C365.773 11.8307 365.53 12.0967 365.213 12.302C364.905 12.5073 364.541 12.652 364.121 12.736V12.792C364.924 12.8853 365.521 13.1373 365.913 13.548C366.305 13.9587 366.501 14.4953 366.501 15.158C366.501 15.7367 366.366 16.2547 366.095 16.712C365.824 17.16 365.404 17.51 364.835 17.762C364.275 18.014 363.552 18.14 362.665 18.14C362.142 18.14 361.657 18.098 361.209 18.014C360.761 17.9393 360.332 17.7993 359.921 17.594V16.446C360.341 16.6513 360.794 16.8147 361.279 16.936C361.764 17.048 362.231 17.104 362.679 17.104C363.575 17.104 364.219 16.9313 364.611 16.586C365.012 16.2313 365.213 15.746 365.213 15.13C365.213 14.71 365.101 14.374 364.877 14.122C364.662 13.8607 364.345 13.6693 363.925 13.548C363.505 13.4267 363.001 13.366 362.413 13.366H361.447V12.316H362.427C362.978 12.316 363.435 12.2367 363.799 12.078C364.172 11.9193 364.452 11.7 364.639 11.42C364.835 11.1307 364.933 10.7993 364.933 10.426C364.933 9.94067 364.77 9.56733 364.443 9.306C364.116 9.03533 363.673 8.9 363.113 8.9C362.758 8.9 362.436 8.93733 362.147 9.012C361.858 9.07733 361.587 9.17533 361.335 9.306C361.092 9.42733 360.845 9.572 360.593 9.74L359.977 8.9C360.22 8.71333 360.495 8.54067 360.803 8.382C361.12 8.22333 361.47 8.09733 361.853 8.004C362.236 7.91067 362.651 7.864 363.099 7.864C364.144 7.864 364.919 8.09733 365.423 8.564C365.936 9.03067 366.193 9.62333 366.193 10.342ZM369.725 10.482C369.725 10.6593 369.715 10.8413 369.697 11.028C369.687 11.2147 369.673 11.3827 369.655 11.532H369.739C369.897 11.2707 370.098 11.056 370.341 10.888C370.583 10.72 370.854 10.594 371.153 10.51C371.451 10.4167 371.759 10.37 372.077 10.37C372.683 10.37 373.187 10.468 373.589 10.664C373.999 10.8507 374.307 11.1447 374.513 11.546C374.718 11.9473 374.821 12.47 374.821 13.114V18H373.603V13.198C373.603 12.5913 373.467 12.1387 373.197 11.84C372.926 11.5413 372.501 11.392 371.923 11.392C371.363 11.392 370.924 11.4993 370.607 11.714C370.289 11.9193 370.061 12.2273 369.921 12.638C369.79 13.0393 369.725 13.534 369.725 14.122V18H368.493V7.36H369.725V10.482ZM381.991 13.758C381.935 13.562 381.879 13.3707 381.823 13.184C381.767 12.988 381.716 12.806 381.669 12.638C381.632 12.4607 381.594 12.2973 381.557 12.148C381.52 11.9987 381.492 11.8727 381.473 11.77H381.417C381.398 11.8727 381.37 11.9987 381.333 12.148C381.305 12.2973 381.268 12.4607 381.221 12.638C381.184 12.8153 381.137 13.002 381.081 13.198C381.034 13.3847 380.978 13.576 380.913 13.772L379.569 17.986H378.169L376.111 10.482H377.385L378.421 14.486C378.496 14.7567 378.566 15.032 378.631 15.312C378.696 15.5827 378.752 15.844 378.799 16.096C378.855 16.3387 378.892 16.5487 378.911 16.726H378.967C378.995 16.614 379.028 16.474 379.065 16.306C379.102 16.138 379.14 15.9607 379.177 15.774C379.224 15.5873 379.27 15.4007 379.317 15.214C379.373 15.0273 379.424 14.8593 379.471 14.71L380.801 10.482H382.145L383.433 14.71C383.498 14.9247 383.564 15.1533 383.629 15.396C383.704 15.6387 383.769 15.8767 383.825 16.11C383.881 16.334 383.918 16.5347 383.937 16.712H383.993C384.012 16.5533 384.044 16.3573 384.091 16.124C384.147 15.8813 384.208 15.62 384.273 15.34C384.348 15.0507 384.422 14.766 384.497 14.486L385.547 10.482H386.807L384.721 17.986H383.279L381.991 13.758ZM390.813 10.356C391.307 10.356 391.751 10.4493 392.143 10.636C392.544 10.8227 392.885 11.1073 393.165 11.49H393.235L393.403 10.496H394.383V18.126C394.383 18.8353 394.261 19.428 394.019 19.904C393.776 20.3893 393.407 20.7533 392.913 20.996C392.418 21.2387 391.788 21.36 391.023 21.36C390.481 21.36 389.982 21.318 389.525 21.234C389.077 21.1593 388.675 21.0427 388.321 20.884V19.75C388.563 19.8713 388.829 19.974 389.119 20.058C389.408 20.1513 389.721 20.2213 390.057 20.268C390.393 20.3147 390.738 20.338 391.093 20.338C391.737 20.338 392.241 20.1467 392.605 19.764C392.978 19.3907 393.165 18.8773 393.165 18.224V17.93C393.165 17.818 393.169 17.6593 393.179 17.454C393.188 17.2393 393.197 17.09 393.207 17.006H393.151C392.889 17.3887 392.563 17.6733 392.171 17.86C391.788 18.0467 391.34 18.14 390.827 18.14C389.856 18.14 389.095 17.7993 388.545 17.118C388.003 16.4367 387.733 15.4847 387.733 14.262C387.733 13.4593 387.854 12.7687 388.097 12.19C388.349 11.602 388.703 11.1493 389.161 10.832C389.618 10.5147 390.169 10.356 390.813 10.356ZM390.981 11.392C390.561 11.392 390.201 11.504 389.903 11.728C389.613 11.952 389.389 12.2787 389.231 12.708C389.081 13.1373 389.007 13.66 389.007 14.276C389.007 15.2 389.175 15.9093 389.511 16.404C389.856 16.8893 390.355 17.132 391.009 17.132C391.391 17.132 391.718 17.0853 391.989 16.992C392.259 16.8893 392.483 16.7353 392.661 16.53C392.838 16.3153 392.969 16.0447 393.053 15.718C393.137 15.3913 393.179 15.004 393.179 14.556V14.262C393.179 13.5807 393.099 13.03 392.941 12.61C392.791 12.19 392.553 11.882 392.227 11.686C391.9 11.49 391.485 11.392 390.981 11.392ZM400.224 11.448H398.334V18H397.102V11.448H395.786V10.874L397.102 10.454V10.02C397.102 9.376 397.195 8.85333 397.382 8.452C397.578 8.05067 397.858 7.75667 398.222 7.57C398.586 7.38333 399.025 7.29 399.538 7.29C399.837 7.29 400.107 7.318 400.35 7.374C400.602 7.42067 400.817 7.47667 400.994 7.542L400.672 8.508C400.523 8.46133 400.35 8.41467 400.154 8.368C399.958 8.32133 399.757 8.298 399.552 8.298C399.141 8.298 398.833 8.438 398.628 8.718C398.432 8.98867 398.334 9.418 398.334 10.006V10.496H400.224V11.448ZM406.423 13.758C406.367 13.562 406.311 13.3707 406.255 13.184C406.199 12.988 406.147 12.806 406.101 12.638C406.063 12.4607 406.026 12.2973 405.989 12.148C405.951 11.9987 405.923 11.8727 405.905 11.77H405.849C405.83 11.8727 405.802 11.9987 405.765 12.148C405.737 12.2973 405.699 12.4607 405.653 12.638C405.615 12.8153 405.569 13.002 405.513 13.198C405.466 13.3847 405.41 13.576 405.345 13.772L404.001 17.986H402.601L400.543 10.482H401.817L402.853 14.486C402.927 14.7567 402.997 15.032 403.063 15.312C403.128 15.5827 403.184 15.844 403.231 16.096C403.287 16.3387 403.324 16.5487 403.343 16.726H403.399C403.427 16.614 403.459 16.474 403.497 16.306C403.534 16.138 403.571 15.9607 403.609 15.774C403.655 15.5873 403.702 15.4007 403.749 15.214C403.805 15.0273 403.856 14.8593 403.903 14.71L405.233 10.482H406.577L407.865 14.71C407.93 14.9247 407.995 15.1533 408.061 15.396C408.135 15.6387 408.201 15.8767 408.257 16.11C408.313 16.334 408.35 16.5347 408.369 16.712H408.425C408.443 16.5533 408.476 16.3573 408.523 16.124C408.579 15.8813 408.639 15.62 408.705 15.34C408.779 15.0507 408.854 14.766 408.929 14.486L409.979 10.482H411.239L409.153 17.986H407.711L406.423 13.758ZM418.296 10.342C418.296 10.79 418.212 11.1773 418.044 11.504C417.876 11.8307 417.634 12.0967 417.316 12.302C417.008 12.5073 416.644 12.652 416.224 12.736V12.792C417.027 12.8853 417.624 13.1373 418.016 13.548C418.408 13.9587 418.604 14.4953 418.604 15.158C418.604 15.7367 418.469 16.2547 418.198 16.712C417.928 17.16 417.508 17.51 416.938 17.762C416.378 18.014 415.655 18.14 414.768 18.14C414.246 18.14 413.76 18.098 413.312 18.014C412.864 17.9393 412.435 17.7993 412.024 17.594V16.446C412.444 16.6513 412.897 16.8147 413.382 16.936C413.868 17.048 414.334 17.104 414.782 17.104C415.678 17.104 416.322 16.9313 416.714 16.586C417.116 16.2313 417.316 15.746 417.316 15.13C417.316 14.71 417.204 14.374 416.98 14.122C416.766 13.8607 416.448 13.6693 416.028 13.548C415.608 13.4267 415.104 13.366 414.516 13.366H413.55V12.316H414.53C415.081 12.316 415.538 12.2367 415.902 12.078C416.276 11.9193 416.556 11.7 416.742 11.42C416.938 11.1307 417.036 10.7993 417.036 10.426C417.036 9.94067 416.873 9.56733 416.546 9.306C416.22 9.03533 415.776 8.9 415.216 8.9C414.862 8.9 414.54 8.93733 414.25 9.012C413.961 9.07733 413.69 9.17533 413.438 9.306C413.196 9.42733 412.948 9.572 412.696 9.74L412.08 8.9C412.323 8.71333 412.598 8.54067 412.906 8.382C413.224 8.22333 413.574 8.09733 413.956 8.004C414.339 7.91067 414.754 7.864 415.202 7.864C416.248 7.864 417.022 8.09733 417.526 8.564C418.04 9.03067 418.296 9.62333 418.296 10.342ZM419.42 10.496H420.736L422.36 14.766C422.453 15.018 422.537 15.2607 422.612 15.494C422.696 15.7273 422.771 15.956 422.836 16.18C422.901 16.3947 422.953 16.6047 422.99 16.81H423.046C423.102 16.5767 423.191 16.2733 423.312 15.9C423.433 15.5173 423.559 15.1347 423.69 14.752L425.216 10.496H426.546L423.312 19.036C423.135 19.5027 422.925 19.9087 422.682 20.254C422.449 20.6087 422.159 20.8793 421.814 21.066C421.478 21.262 421.067 21.36 420.582 21.36C420.358 21.36 420.162 21.346 419.994 21.318C419.826 21.2993 419.681 21.276 419.56 21.248V20.268C419.663 20.2867 419.784 20.3053 419.924 20.324C420.073 20.3427 420.227 20.352 420.386 20.352C420.675 20.352 420.923 20.296 421.128 20.184C421.343 20.0813 421.525 19.9273 421.674 19.722C421.823 19.526 421.949 19.2927 422.052 19.022L422.444 18.028L419.42 10.496ZM430.743 18.14C430.08 18.14 429.488 18.0047 428.965 17.734C428.452 17.4633 428.046 17.0433 427.747 16.474C427.458 15.9047 427.313 15.1767 427.313 14.29C427.313 13.366 427.467 12.6147 427.775 12.036C428.083 11.4573 428.498 11.0327 429.021 10.762C429.553 10.4913 430.155 10.356 430.827 10.356C431.21 10.356 431.578 10.398 431.933 10.482C432.288 10.5567 432.577 10.65 432.801 10.762L432.423 11.784C432.199 11.7 431.938 11.6207 431.639 11.546C431.34 11.4713 431.06 11.434 430.799 11.434C430.295 11.434 429.88 11.5413 429.553 11.756C429.226 11.9707 428.984 12.288 428.825 12.708C428.666 13.128 428.587 13.6507 428.587 14.276C428.587 14.8733 428.666 15.382 428.825 15.802C428.984 16.222 429.222 16.5393 429.539 16.754C429.856 16.9687 430.253 17.076 430.729 17.076C431.14 17.076 431.499 17.034 431.807 16.95C432.124 16.866 432.414 16.7633 432.675 16.642V17.734C432.423 17.8647 432.143 17.9627 431.835 18.028C431.536 18.1027 431.172 18.14 430.743 18.14ZM437.301 10.37C438.216 10.37 438.893 10.5707 439.331 10.972C439.77 11.3733 439.989 12.0127 439.989 12.89V18H439.093L438.855 16.936H438.799C438.585 17.2067 438.361 17.4353 438.127 17.622C437.903 17.7993 437.642 17.93 437.343 18.014C437.054 18.098 436.699 18.14 436.279 18.14C435.831 18.14 435.425 18.0607 435.061 17.902C434.707 17.7433 434.427 17.5007 434.221 17.174C434.016 16.838 433.913 16.418 433.913 15.914C433.913 15.1673 434.207 14.5933 434.795 14.192C435.383 13.7813 436.289 13.5573 437.511 13.52L438.785 13.478V13.03C438.785 12.4047 438.65 11.9707 438.379 11.728C438.109 11.4853 437.726 11.364 437.231 11.364C436.839 11.364 436.466 11.4247 436.111 11.546C435.757 11.658 435.425 11.7887 435.117 11.938L434.739 11.014C435.066 10.8367 435.453 10.6873 435.901 10.566C436.349 10.4353 436.816 10.37 437.301 10.37ZM437.665 14.374C436.732 14.4113 436.083 14.5607 435.719 14.822C435.365 15.0833 435.187 15.452 435.187 15.928C435.187 16.348 435.313 16.656 435.565 16.852C435.827 17.048 436.158 17.146 436.559 17.146C437.194 17.146 437.721 16.9733 438.141 16.628C438.561 16.2733 438.771 15.732 438.771 15.004V14.332L437.665 14.374ZM448.579 10.496V18H447.571L447.389 17.006H447.333C447.174 17.2673 446.969 17.482 446.717 17.65C446.465 17.818 446.19 17.9393 445.891 18.014C445.592 18.098 445.28 18.14 444.953 18.14C444.356 18.14 443.852 18.0467 443.441 17.86C443.04 17.664 442.736 17.3653 442.531 16.964C442.326 16.5627 442.223 16.0447 442.223 15.41V10.496H443.469V15.326C443.469 15.9233 443.604 16.3713 443.875 16.67C444.146 16.9687 444.566 17.118 445.135 17.118C445.695 17.118 446.134 17.0153 446.451 16.81C446.778 16.5953 447.006 16.2873 447.137 15.886C447.277 15.4753 447.347 14.9807 447.347 14.402V10.496H448.579ZM450.541 13.73C450.541 13.1513 450.579 12.582 450.653 12.022C450.737 11.462 450.877 10.9347 451.073 10.44C451.269 9.936 451.54 9.49267 451.885 9.11C452.231 8.718 452.665 8.41467 453.187 8.2C453.719 7.976 454.363 7.864 455.119 7.864C455.315 7.864 455.53 7.87333 455.763 7.892C456.006 7.91067 456.202 7.94333 456.351 7.99V9.04C456.183 8.984 455.992 8.942 455.777 8.914C455.572 8.886 455.362 8.872 455.147 8.872C454.503 8.872 453.967 8.97933 453.537 9.194C453.108 9.40867 452.767 9.70267 452.515 10.076C452.273 10.4493 452.095 10.8787 451.983 11.364C451.871 11.8493 451.801 12.3673 451.773 12.918H451.857C451.997 12.694 452.175 12.4933 452.389 12.316C452.604 12.1387 452.861 11.9987 453.159 11.896C453.467 11.7933 453.822 11.742 454.223 11.742C454.802 11.742 455.306 11.8633 455.735 12.106C456.174 12.3393 456.515 12.6847 456.757 13.142C457 13.59 457.121 14.136 457.121 14.78C457.121 15.4707 456.991 16.068 456.729 16.572C456.468 17.076 456.099 17.4633 455.623 17.734C455.157 18.0047 454.597 18.14 453.943 18.14C453.467 18.14 453.024 18.0513 452.613 17.874C452.203 17.6967 451.839 17.426 451.521 17.062C451.213 16.698 450.971 16.2407 450.793 15.69C450.625 15.13 450.541 14.4767 450.541 13.73ZM453.929 17.104C454.517 17.104 454.993 16.9173 455.357 16.544C455.721 16.1613 455.903 15.5733 455.903 14.78C455.903 14.1453 455.74 13.6413 455.413 13.268C455.096 12.8947 454.615 12.708 453.971 12.708C453.533 12.708 453.15 12.8013 452.823 12.988C452.497 13.1653 452.24 13.394 452.053 13.674C451.876 13.954 451.787 14.2433 451.787 14.542C451.787 14.85 451.829 15.1533 451.913 15.452C452.007 15.7507 452.142 16.026 452.319 16.278C452.506 16.53 452.73 16.7307 452.991 16.88C453.262 17.0293 453.575 17.104 453.929 17.104ZM463.971 18.154C463.971 17.986 463.976 17.79 463.985 17.566C463.994 17.342 464.013 17.1507 464.041 16.992H463.957C463.742 17.3093 463.444 17.58 463.061 17.804C462.688 18.028 462.202 18.14 461.605 18.14C460.7 18.14 459.962 17.818 459.393 17.174C458.833 16.5207 458.553 15.55 458.553 14.262C458.553 13.4033 458.684 12.6847 458.945 12.106C459.206 11.5273 459.57 11.0933 460.037 10.804C460.504 10.5053 461.04 10.356 461.647 10.356C462.235 10.356 462.716 10.468 463.089 10.692C463.462 10.916 463.761 11.1913 463.985 11.518H464.041L464.223 10.496H465.203V21.36H463.971V18.154ZM461.843 17.118C462.356 17.118 462.767 17.0247 463.075 16.838C463.392 16.6513 463.621 16.3667 463.761 15.984C463.901 15.592 463.976 15.1067 463.985 14.528V14.276C463.985 13.324 463.826 12.6053 463.509 12.12C463.192 11.6253 462.627 11.378 461.815 11.378C461.143 11.378 460.644 11.644 460.317 12.176C459.99 12.6987 459.827 13.4033 459.827 14.29C459.827 15.1767 459.99 15.872 460.317 16.376C460.653 16.8707 461.162 17.118 461.843 17.118Z" fill="white"/>
</svg>
