<svg width="585" height="25" viewBox="0 0 585 25" fill="none" xmlns="http://www.w3.org/2000/svg">
<rect width="585" height="25" fill="#555555"/>
<rect x="230" width="355" height="25" fill="#7DA6FF"/>
<path d="M26.2702 15.326C26.2702 15.9233 26.1255 16.432 25.8362 16.852C25.5469 17.2627 25.1315 17.58 24.5902 17.804C24.0582 18.028 23.4282 18.14 22.7002 18.14C22.3269 18.14 21.9675 18.1213 21.6222 18.084C21.2862 18.0467 20.9782 17.9953 20.6982 17.93C20.4182 17.8553 20.1709 17.7667 19.9562 17.664V16.46C20.2922 16.6093 20.7075 16.7447 21.2022 16.866C21.7062 16.9873 22.2242 17.048 22.7562 17.048C23.2509 17.048 23.6662 16.9827 24.0022 16.852C24.3382 16.7213 24.5902 16.5347 24.7582 16.292C24.9262 16.0493 25.0102 15.7647 25.0102 15.438C25.0102 15.1113 24.9402 14.836 24.8002 14.612C24.6602 14.388 24.4175 14.1827 24.0722 13.996C23.7362 13.8 23.2649 13.5947 22.6582 13.38C22.2289 13.2213 21.8509 13.0533 21.5242 12.876C21.2069 12.6893 20.9409 12.4793 20.7262 12.246C20.5115 12.0127 20.3482 11.7467 20.2362 11.448C20.1335 11.1493 20.0822 10.804 20.0822 10.412C20.0822 9.88 20.2175 9.42733 20.4882 9.054C20.7589 8.67133 21.1322 8.37733 21.6082 8.172C22.0935 7.96667 22.6489 7.864 23.2742 7.864C23.8249 7.864 24.3289 7.91533 24.7862 8.018C25.2435 8.12067 25.6589 8.256 26.0322 8.424L25.6402 9.502C25.2949 9.35267 24.9169 9.22667 24.5062 9.124C24.1049 9.02133 23.6849 8.97 23.2462 8.97C22.8262 8.97 22.4762 9.03067 22.1962 9.152C21.9162 9.27333 21.7062 9.446 21.5662 9.67C21.4262 9.88467 21.3562 10.1367 21.3562 10.426C21.3562 10.762 21.4262 11.042 21.5662 11.266C21.7062 11.49 21.9349 11.6907 22.2522 11.868C22.5695 12.0453 22.9989 12.2367 23.5402 12.442C24.1282 12.6567 24.6229 12.89 25.0242 13.142C25.4349 13.3847 25.7429 13.6787 25.9482 14.024C26.1629 14.3693 26.2702 14.8033 26.2702 15.326ZM29.3478 10.482C29.3478 10.6593 29.3384 10.8413 29.3198 11.028C29.3104 11.2147 29.2964 11.3827 29.2778 11.532H29.3618C29.5204 11.2707 29.7211 11.056 29.9638 10.888C30.2064 10.72 30.4771 10.594 30.7758 10.51C31.0744 10.4167 31.3824 10.37 31.6998 10.37C32.3064 10.37 32.8104 10.468 33.2118 10.664C33.6224 10.8507 33.9304 11.1447 34.1358 11.546C34.3411 11.9473 34.4438 12.47 34.4438 13.114V18H33.2258V13.198C33.2258 12.5913 33.0904 12.1387 32.8198 11.84C32.5491 11.5413 32.1244 11.392 31.5458 11.392C30.9858 11.392 30.5471 11.4993 30.2298 11.714C29.9124 11.9193 29.6838 12.2273 29.5438 12.638C29.4131 13.0393 29.3478 13.534 29.3478 14.122V18H28.1158V7.36H29.3478V10.482ZM38.0021 10.496V18H36.7701V10.496H38.0021ZM37.4001 7.682C37.5867 7.682 37.7501 7.74733 37.8901 7.878C38.0394 7.99933 38.1141 8.19533 38.1141 8.466C38.1141 8.72733 38.0394 8.92333 37.8901 9.054C37.7501 9.18467 37.5867 9.25 37.4001 9.25C37.1947 9.25 37.0221 9.18467 36.8821 9.054C36.7421 8.92333 36.6721 8.72733 36.6721 8.466C36.6721 8.19533 36.7421 7.99933 36.8821 7.878C37.0221 7.74733 37.1947 7.682 37.4001 7.682ZM41.6115 9.95C41.6115 10.2673 41.6021 10.566 41.5835 10.846C41.5741 11.1167 41.5601 11.3313 41.5415 11.49H41.6115C41.8261 11.1727 42.1201 10.9067 42.4935 10.692C42.8668 10.4773 43.3475 10.37 43.9355 10.37C44.8688 10.37 45.6155 10.6967 46.1755 11.35C46.7448 11.994 47.0295 12.96 47.0295 14.248C47.0295 15.1067 46.8988 15.8253 46.6375 16.404C46.3855 16.9827 46.0261 17.4167 45.5595 17.706C45.0928 17.9953 44.5515 18.14 43.9355 18.14C43.3475 18.14 42.8668 18.0327 42.4935 17.818C42.1201 17.6033 41.8261 17.3467 41.6115 17.048H41.5135L41.2615 18H40.3795V7.36H41.6115V9.95ZM43.7255 11.392C43.1935 11.392 42.7735 11.4947 42.4655 11.7C42.1575 11.896 41.9381 12.204 41.8075 12.624C41.6768 13.0347 41.6115 13.562 41.6115 14.206V14.262C41.6115 15.186 41.7608 15.8953 42.0595 16.39C42.3675 16.8753 42.9321 17.118 43.7535 17.118C44.4255 17.118 44.9248 16.8707 45.2515 16.376C45.5875 15.8813 45.7555 15.1673 45.7555 14.234C45.7555 13.2913 45.5875 12.582 45.2515 12.106C44.9248 11.63 44.4161 11.392 43.7255 11.392ZM51.8347 10.37C52.7494 10.37 53.4261 10.5707 53.8647 10.972C54.3034 11.3733 54.5227 12.0127 54.5227 12.89V18H53.6267L53.3887 16.936H53.3327C53.1181 17.2067 52.8941 17.4353 52.6607 17.622C52.4367 17.7993 52.1754 17.93 51.8767 18.014C51.5874 18.098 51.2327 18.14 50.8127 18.14C50.3647 18.14 49.9587 18.0607 49.5947 17.902C49.2401 17.7433 48.9601 17.5007 48.7547 17.174C48.5494 16.838 48.4467 16.418 48.4467 15.914C48.4467 15.1673 48.7407 14.5933 49.3287 14.192C49.9167 13.7813 50.8221 13.5573 52.0447 13.52L53.3187 13.478V13.03C53.3187 12.4047 53.1834 11.9707 52.9127 11.728C52.6421 11.4853 52.2594 11.364 51.7647 11.364C51.3727 11.364 50.9994 11.4247 50.6447 11.546C50.2901 11.658 49.9587 11.7887 49.6507 11.938L49.2727 11.014C49.5994 10.8367 49.9867 10.6873 50.4347 10.566C50.8827 10.4353 51.3494 10.37 51.8347 10.37ZM52.1987 14.374C51.2654 14.4113 50.6167 14.5607 50.2527 14.822C49.8981 15.0833 49.7207 15.452 49.7207 15.928C49.7207 16.348 49.8467 16.656 50.0987 16.852C50.3601 17.048 50.6914 17.146 51.0927 17.146C51.7274 17.146 52.2547 16.9733 52.6747 16.628C53.0947 16.2733 53.3047 15.732 53.3047 15.004V14.332L52.1987 14.374ZM63.4591 18H59.8471V17.272L61.0231 17.006V9.012L59.8471 8.732V8.004H63.4591V8.732L62.2831 9.012V17.006L63.4591 17.272V18ZM68.8333 10.356C69.7293 10.356 70.4059 10.5753 70.8633 11.014C71.3206 11.4433 71.5493 12.1433 71.5493 13.114V18H70.3313V13.198C70.3313 12.5913 70.1959 12.1387 69.9253 11.84C69.6546 11.5413 69.2299 11.392 68.6513 11.392C67.8206 11.392 67.2466 11.6253 66.9293 12.092C66.6119 12.5587 66.4533 13.2307 66.4533 14.108V18H65.2213V10.496H66.2153L66.3973 11.518H66.4673C66.6353 11.2567 66.8406 11.042 67.0833 10.874C67.3353 10.6967 67.6106 10.566 67.9093 10.482C68.2079 10.398 68.5159 10.356 68.8333 10.356ZM80.1475 10.496V18H79.1395L78.9575 17.006H78.9015C78.7429 17.2673 78.5375 17.482 78.2855 17.65C78.0335 17.818 77.7582 17.9393 77.4595 18.014C77.1609 18.098 76.8482 18.14 76.5215 18.14C75.9242 18.14 75.4202 18.0467 75.0095 17.86C74.6082 17.664 74.3049 17.3653 74.0995 16.964C73.8942 16.5627 73.7915 16.0447 73.7915 15.41V10.496H75.0375V15.326C75.0375 15.9233 75.1729 16.3713 75.4435 16.67C75.7142 16.9687 76.1342 17.118 76.7035 17.118C77.2635 17.118 77.7022 17.0153 78.0195 16.81C78.3462 16.5953 78.5749 16.2873 78.7055 15.886C78.8455 15.4753 78.9155 14.9807 78.9155 14.402V10.496H80.1475ZM92.0046 15.326C92.0046 15.9233 91.8599 16.432 91.5706 16.852C91.2812 17.2627 90.8659 17.58 90.3246 17.804C89.7926 18.028 89.1626 18.14 88.4346 18.14C88.0612 18.14 87.7019 18.1213 87.3566 18.084C87.0206 18.0467 86.7126 17.9953 86.4326 17.93C86.1526 17.8553 85.9052 17.7667 85.6906 17.664V16.46C86.0266 16.6093 86.4419 16.7447 86.9366 16.866C87.4406 16.9873 87.9586 17.048 88.4906 17.048C88.9852 17.048 89.4006 16.9827 89.7366 16.852C90.0726 16.7213 90.3246 16.5347 90.4926 16.292C90.6606 16.0493 90.7446 15.7647 90.7446 15.438C90.7446 15.1113 90.6746 14.836 90.5346 14.612C90.3946 14.388 90.1519 14.1827 89.8066 13.996C89.4706 13.8 88.9992 13.5947 88.3926 13.38C87.9632 13.2213 87.5852 13.0533 87.2586 12.876C86.9412 12.6893 86.6752 12.4793 86.4606 12.246C86.2459 12.0127 86.0826 11.7467 85.9706 11.448C85.8679 11.1493 85.8166 10.804 85.8166 10.412C85.8166 9.88 85.9519 9.42733 86.2226 9.054C86.4932 8.67133 86.8666 8.37733 87.3426 8.172C87.8279 7.96667 88.3832 7.864 89.0086 7.864C89.5592 7.864 90.0632 7.91533 90.5206 8.018C90.9779 8.12067 91.3932 8.256 91.7666 8.424L91.3746 9.502C91.0292 9.35267 90.6512 9.22667 90.2406 9.124C89.8392 9.02133 89.4192 8.97 88.9806 8.97C88.5606 8.97 88.2106 9.03067 87.9306 9.152C87.6506 9.27333 87.4406 9.446 87.3006 9.67C87.1606 9.88467 87.0906 10.1367 87.0906 10.426C87.0906 10.762 87.1606 11.042 87.3006 11.266C87.4406 11.49 87.6692 11.6907 87.9866 11.868C88.3039 12.0453 88.7332 12.2367 89.2746 12.442C89.8626 12.6567 90.3572 12.89 90.7586 13.142C91.1692 13.3847 91.4772 13.6787 91.6826 14.024C91.8972 14.3693 92.0046 14.8033 92.0046 15.326ZM101.662 18H100.402V13.338H95.2782V18H94.0182V8.004H95.2782V12.232H100.402V8.004H101.662V18ZM107.209 18H103.597V17.272L104.773 17.006V9.012L103.597 8.732V8.004H107.209V8.732L106.033 9.012V17.006L107.209 17.272V18ZM111.995 8.004C112.826 8.004 113.521 8.08333 114.081 8.242C114.651 8.40067 115.075 8.662 115.355 9.026C115.645 9.39 115.789 9.87533 115.789 10.482C115.789 10.874 115.715 11.224 115.565 11.532C115.425 11.8307 115.211 12.0827 114.921 12.288C114.641 12.484 114.296 12.6193 113.885 12.694V12.764C114.305 12.8293 114.683 12.9507 115.019 13.128C115.365 13.3053 115.635 13.5573 115.831 13.884C116.027 14.2107 116.125 14.6353 116.125 15.158C116.125 15.7647 115.985 16.2827 115.705 16.712C115.425 17.132 115.024 17.454 114.501 17.678C113.988 17.8927 113.372 18 112.653 18H109.139V8.004H111.995ZM112.247 12.26C113.106 12.26 113.694 12.1247 114.011 11.854C114.329 11.574 114.487 11.1633 114.487 10.622C114.487 10.0713 114.291 9.67933 113.899 9.446C113.517 9.20333 112.901 9.082 112.051 9.082H110.399V12.26H112.247ZM110.399 13.31V16.936H112.415C113.302 16.936 113.918 16.7633 114.263 16.418C114.609 16.0727 114.781 15.62 114.781 15.06C114.781 14.7053 114.702 14.3973 114.543 14.136C114.394 13.8747 114.137 13.674 113.773 13.534C113.419 13.3847 112.933 13.31 112.317 13.31H110.399ZM121.083 14.164C121.083 13.3987 121.153 12.652 121.293 11.924C121.443 11.196 121.671 10.5007 121.979 9.838C122.287 9.17533 122.675 8.564 123.141 8.004H124.303C123.874 8.58267 123.51 9.208 123.211 9.88C122.922 10.552 122.703 11.2473 122.553 11.966C122.404 12.6847 122.329 13.4127 122.329 14.15C122.329 14.8687 122.404 15.5827 122.553 16.292C122.703 17.0013 122.922 17.6827 123.211 18.336C123.501 18.9987 123.86 19.624 124.289 20.212H123.141C122.675 19.6613 122.287 19.0593 121.979 18.406C121.671 17.762 121.443 17.0807 121.293 16.362C121.153 15.6433 121.083 14.9107 121.083 14.164ZM135.301 18H129.715V8.004H135.301V9.11H130.975V12.232H135.049V13.324H130.975V16.894H135.301V18ZM140.659 18H139.399V9.11H136.277V8.004H143.767V9.11H140.659V18ZM152.918 18H151.658V13.338H146.534V18H145.274V8.004H146.534V12.232H151.658V8.004H152.918V18ZM164.874 18H159.288V8.004H164.874V9.11H160.548V12.232H164.622V13.324H160.548V16.894H164.874V18ZM169.825 8.004C170.656 8.004 171.337 8.11133 171.869 8.326C172.41 8.53133 172.812 8.844 173.073 9.264C173.334 9.684 173.465 10.2113 173.465 10.846C173.465 11.378 173.367 11.8213 173.171 12.176C172.975 12.5307 172.723 12.8153 172.415 13.03C172.116 13.2353 171.799 13.3987 171.463 13.52L174.207 18H172.737L170.315 13.87H168.327V18H167.067V8.004H169.825ZM169.755 9.096H168.327V12.806H169.825C170.366 12.806 170.81 12.736 171.155 12.596C171.5 12.4467 171.752 12.232 171.911 11.952C172.079 11.672 172.163 11.322 172.163 10.902C172.163 10.4633 172.074 10.1133 171.897 9.852C171.729 9.59067 171.468 9.39933 171.113 9.278C170.758 9.15667 170.306 9.096 169.755 9.096ZM180.06 8.97C179.528 8.97 179.047 9.06333 178.618 9.25C178.189 9.42733 177.825 9.69333 177.526 10.048C177.227 10.3933 176.999 10.818 176.84 11.322C176.681 11.8167 176.602 12.3767 176.602 13.002C176.602 13.8233 176.728 14.5373 176.98 15.144C177.241 15.7507 177.624 16.2173 178.128 16.544C178.641 16.8707 179.281 17.034 180.046 17.034C180.485 17.034 180.9 16.9967 181.292 16.922C181.684 16.8473 182.067 16.754 182.44 16.642V17.734C182.067 17.874 181.679 17.9767 181.278 18.042C180.886 18.1073 180.415 18.14 179.864 18.14C178.847 18.14 177.997 17.93 177.316 17.51C176.635 17.09 176.121 16.4927 175.776 15.718C175.44 14.9433 175.272 14.0333 175.272 12.988C175.272 12.232 175.375 11.5413 175.58 10.916C175.795 10.2907 176.103 9.74933 176.504 9.292C176.915 8.83467 177.419 8.48467 178.016 8.242C178.613 7.99 179.299 7.864 180.074 7.864C180.587 7.864 181.082 7.91533 181.558 8.018C182.034 8.12067 182.459 8.26533 182.832 8.452L182.328 9.516C182.02 9.376 181.675 9.25 181.292 9.138C180.919 9.026 180.508 8.97 180.06 8.97ZM194.18 18H187.572V16.978L190.19 14.332C190.694 13.828 191.119 13.38 191.464 12.988C191.81 12.596 192.071 12.2133 192.248 11.84C192.426 11.4573 192.514 11.042 192.514 10.594C192.514 10.0433 192.351 9.628 192.024 9.348C191.698 9.05867 191.273 8.914 190.75 8.914C190.265 8.914 189.836 8.998 189.462 9.166C189.098 9.334 188.725 9.56733 188.342 9.866L187.684 9.04C187.946 8.816 188.23 8.61533 188.538 8.438C188.856 8.26067 189.196 8.12067 189.56 8.018C189.934 7.91533 190.33 7.864 190.75 7.864C191.376 7.864 191.912 7.97133 192.36 8.186C192.808 8.40067 193.154 8.70867 193.396 9.11C193.648 9.502 193.774 9.97333 193.774 10.524C193.774 10.916 193.714 11.2893 193.592 11.644C193.471 11.9893 193.298 12.33 193.074 12.666C192.85 13.002 192.58 13.3427 192.262 13.688C191.945 14.0333 191.595 14.3927 191.212 14.766L189.126 16.824V16.88H194.18V18ZM202.234 12.988C202.234 13.8 202.173 14.5233 202.052 15.158C201.931 15.7927 201.735 16.334 201.464 16.782C201.203 17.2207 200.857 17.5567 200.428 17.79C200.008 18.0233 199.499 18.14 198.902 18.14C198.155 18.14 197.535 17.9347 197.04 17.524C196.555 17.1133 196.191 16.5253 195.948 15.76C195.715 14.9853 195.598 14.0613 195.598 12.988C195.598 11.9053 195.705 10.9813 195.92 10.216C196.144 9.45067 196.499 8.86733 196.984 8.466C197.469 8.05533 198.109 7.85 198.902 7.85C199.649 7.85 200.269 8.05533 200.764 8.466C201.259 8.86733 201.627 9.45067 201.87 10.216C202.113 10.9813 202.234 11.9053 202.234 12.988ZM196.83 12.988C196.83 13.9027 196.895 14.6633 197.026 15.27C197.166 15.8767 197.385 16.334 197.684 16.642C197.992 16.9407 198.398 17.09 198.902 17.09C199.406 17.09 199.807 16.9407 200.106 16.642C200.414 16.3433 200.638 15.8907 200.778 15.284C200.918 14.668 200.988 13.9027 200.988 12.988C200.988 12.0733 200.918 11.3173 200.778 10.72C200.638 10.1133 200.414 9.66067 200.106 9.362C199.807 9.054 199.406 8.9 198.902 8.9C198.398 8.9 197.992 9.054 197.684 9.362C197.385 9.66067 197.166 10.1133 197.026 10.72C196.895 11.3173 196.83 12.0733 196.83 12.988ZM210.201 14.164C210.201 14.9107 210.126 15.6433 209.977 16.362C209.837 17.0807 209.613 17.762 209.305 18.406C209.006 19.0593 208.619 19.6613 208.143 20.212H206.995C207.424 19.624 207.783 18.9987 208.073 18.336C208.362 17.6827 208.581 17.0013 208.731 16.292C208.88 15.5827 208.955 14.8687 208.955 14.15C208.955 13.4127 208.88 12.6847 208.731 11.966C208.581 11.2473 208.362 10.552 208.073 9.88C207.783 9.208 207.419 8.58267 206.981 8.004H208.143C208.619 8.564 209.006 9.17533 209.305 9.838C209.613 10.5007 209.837 11.196 209.977 11.924C210.126 12.652 210.201 13.3987 210.201 14.164Z" fill="white"/>
<path d="M246.925 12.988C246.925 13.8 246.864 14.5233 246.743 15.158C246.621 15.7927 246.425 16.334 246.155 16.782C245.893 17.2207 245.548 17.5567 245.119 17.79C244.699 18.0233 244.19 18.14 243.593 18.14C242.846 18.14 242.225 17.9347 241.731 17.524C241.245 17.1133 240.881 16.5253 240.639 15.76C240.405 14.9853 240.289 14.0613 240.289 12.988C240.289 11.9053 240.396 10.9813 240.611 10.216C240.835 9.45067 241.189 8.86733 241.675 8.466C242.16 8.05533 242.799 7.85 243.593 7.85C244.339 7.85 244.96 8.05533 245.455 8.466C245.949 8.86733 246.318 9.45067 246.561 10.216C246.803 10.9813 246.925 11.9053 246.925 12.988ZM241.521 12.988C241.521 13.9027 241.586 14.6633 241.717 15.27C241.857 15.8767 242.076 16.334 242.375 16.642C242.683 16.9407 243.089 17.09 243.593 17.09C244.097 17.09 244.498 16.9407 244.797 16.642C245.105 16.3433 245.329 15.8907 245.469 15.284C245.609 14.668 245.679 13.9027 245.679 12.988C245.679 12.0733 245.609 11.3173 245.469 10.72C245.329 10.1133 245.105 9.66067 244.797 9.362C244.498 9.054 244.097 8.9 243.593 8.9C243.089 8.9 242.683 9.054 242.375 9.362C242.076 9.66067 241.857 10.1133 241.717 10.72C241.586 11.3173 241.521 12.0733 241.521 12.988ZM250.582 14.164L247.992 10.496H249.392L251.324 13.324L253.242 10.496H254.628L252.038 14.164L254.768 18H253.368L251.324 15.004L249.252 18H247.866L250.582 14.164ZM262.654 18L261.45 14.906H257.488L256.298 18H255.024L258.93 7.962H260.064L263.956 18H262.654ZM259.952 10.762C259.924 10.6873 259.878 10.552 259.812 10.356C259.747 10.16 259.682 9.95933 259.616 9.754C259.56 9.53933 259.514 9.376 259.476 9.264C259.43 9.45067 259.378 9.642 259.322 9.838C259.276 10.0247 259.224 10.1973 259.168 10.356C259.122 10.5147 259.08 10.65 259.042 10.762L257.908 13.786H261.072L259.952 10.762ZM264.736 13.73C264.736 13.1513 264.773 12.582 264.848 12.022C264.932 11.462 265.072 10.9347 265.268 10.44C265.464 9.936 265.734 9.49267 266.08 9.11C266.425 8.718 266.859 8.41467 267.382 8.2C267.914 7.976 268.558 7.864 269.314 7.864C269.51 7.864 269.724 7.87333 269.958 7.892C270.2 7.91067 270.396 7.94333 270.546 7.99V9.04C270.378 8.984 270.186 8.942 269.972 8.914C269.766 8.886 269.556 8.872 269.342 8.872C268.698 8.872 268.161 8.97933 267.732 9.194C267.302 9.40867 266.962 9.70267 266.71 10.076C266.467 10.4493 266.29 10.8787 266.178 11.364C266.066 11.8493 265.996 12.3673 265.968 12.918H266.052C266.192 12.694 266.369 12.4933 266.584 12.316C266.798 12.1387 267.055 11.9987 267.354 11.896C267.662 11.7933 268.016 11.742 268.418 11.742C268.996 11.742 269.5 11.8633 269.93 12.106C270.368 12.3393 270.709 12.6847 270.952 13.142C271.194 13.59 271.316 14.136 271.316 14.78C271.316 15.4707 271.185 16.068 270.924 16.572C270.662 17.076 270.294 17.4633 269.818 17.734C269.351 18.0047 268.791 18.14 268.138 18.14C267.662 18.14 267.218 18.0513 266.808 17.874C266.397 17.6967 266.033 17.426 265.716 17.062C265.408 16.698 265.165 16.2407 264.988 15.69C264.82 15.13 264.736 14.4767 264.736 13.73ZM268.124 17.104C268.712 17.104 269.188 16.9173 269.552 16.544C269.916 16.1613 270.098 15.5733 270.098 14.78C270.098 14.1453 269.934 13.6413 269.608 13.268C269.29 12.8947 268.81 12.708 268.166 12.708C267.727 12.708 267.344 12.8013 267.018 12.988C266.691 13.1653 266.434 13.394 266.248 13.674C266.07 13.954 265.982 14.2433 265.982 14.542C265.982 14.85 266.024 15.1533 266.108 15.452C266.201 15.7507 266.336 16.026 266.514 16.278C266.7 16.53 266.924 16.7307 267.186 16.88C267.456 17.0293 267.769 17.104 268.124 17.104ZM275.828 11.868C276.509 11.868 277.102 11.9847 277.606 12.218C278.11 12.4513 278.497 12.7873 278.768 13.226C279.048 13.6553 279.188 14.1827 279.188 14.808C279.188 15.4987 279.038 16.096 278.74 16.6C278.441 17.0947 278.012 17.4773 277.452 17.748C276.901 18.0093 276.234 18.14 275.45 18.14C274.936 18.14 274.451 18.0933 273.994 18C273.546 17.9067 273.168 17.7713 272.86 17.594V16.432C273.196 16.6373 273.602 16.8007 274.078 16.922C274.563 17.034 275.025 17.09 275.464 17.09C275.958 17.09 276.388 17.0153 276.752 16.866C277.125 16.7073 277.414 16.4693 277.62 16.152C277.825 15.8253 277.928 15.4193 277.928 14.934C277.928 14.2807 277.727 13.7813 277.326 13.436C276.924 13.0813 276.29 12.904 275.422 12.904C275.16 12.904 274.862 12.9273 274.526 12.974C274.19 13.0207 273.919 13.0673 273.714 13.114L273.098 12.722L273.476 8.004H278.488V9.124H274.526L274.288 12.022C274.446 11.994 274.661 11.9613 274.932 11.924C275.202 11.8867 275.501 11.868 275.828 11.868ZM284.959 18H283.755V11.014C283.755 10.7433 283.755 10.5147 283.755 10.328C283.765 10.1413 283.774 9.96867 283.783 9.81C283.793 9.642 283.802 9.46933 283.811 9.292C283.662 9.44133 283.527 9.56733 283.405 9.67C283.284 9.77267 283.13 9.90333 282.943 10.062L281.879 10.93L281.235 10.104L283.937 8.004H284.959V18ZM291.851 11.868C292.532 11.868 293.125 11.9847 293.629 12.218C294.133 12.4513 294.52 12.7873 294.791 13.226C295.071 13.6553 295.211 14.1827 295.211 14.808C295.211 15.4987 295.062 16.096 294.763 16.6C294.464 17.0947 294.035 17.4773 293.475 17.748C292.924 18.0093 292.257 18.14 291.473 18.14C290.96 18.14 290.474 18.0933 290.017 18C289.569 17.9067 289.191 17.7713 288.883 17.594V16.432C289.219 16.6373 289.625 16.8007 290.101 16.922C290.586 17.034 291.048 17.09 291.487 17.09C291.982 17.09 292.411 17.0153 292.775 16.866C293.148 16.7073 293.438 16.4693 293.643 16.152C293.848 15.8253 293.951 15.4193 293.951 14.934C293.951 14.2807 293.75 13.7813 293.349 13.436C292.948 13.0813 292.313 12.904 291.445 12.904C291.184 12.904 290.885 12.9273 290.549 12.974C290.213 13.0207 289.942 13.0673 289.737 13.114L289.121 12.722L289.499 8.004H294.511V9.124H290.549L290.311 12.022C290.47 11.994 290.684 11.9613 290.955 11.924C291.226 11.8867 291.524 11.868 291.851 11.868ZM303.335 12.988C303.335 13.8 303.274 14.5233 303.153 15.158C303.031 15.7927 302.835 16.334 302.565 16.782C302.303 17.2207 301.958 17.5567 301.529 17.79C301.109 18.0233 300.6 18.14 300.003 18.14C299.256 18.14 298.635 17.9347 298.141 17.524C297.655 17.1133 297.291 16.5253 297.049 15.76C296.815 14.9853 296.699 14.0613 296.699 12.988C296.699 11.9053 296.806 10.9813 297.021 10.216C297.245 9.45067 297.599 8.86733 298.085 8.466C298.57 8.05533 299.209 7.85 300.003 7.85C300.749 7.85 301.37 8.05533 301.865 8.466C302.359 8.86733 302.728 9.45067 302.971 10.216C303.213 10.9813 303.335 11.9053 303.335 12.988ZM297.931 12.988C297.931 13.9027 297.996 14.6633 298.127 15.27C298.267 15.8767 298.486 16.334 298.785 16.642C299.093 16.9407 299.499 17.09 300.003 17.09C300.507 17.09 300.908 16.9407 301.207 16.642C301.515 16.3433 301.739 15.8907 301.879 15.284C302.019 14.668 302.089 13.9027 302.089 12.988C302.089 12.0733 302.019 11.3173 301.879 10.72C301.739 10.1133 301.515 9.66067 301.207 9.362C300.908 9.054 300.507 8.9 300.003 8.9C299.499 8.9 299.093 9.054 298.785 9.362C298.486 9.66067 298.267 10.1133 298.127 10.72C297.996 11.3173 297.931 12.0733 297.931 12.988ZM304.794 13.73C304.794 13.1513 304.832 12.582 304.906 12.022C304.99 11.462 305.13 10.9347 305.326 10.44C305.522 9.936 305.793 9.49267 306.138 9.11C306.484 8.718 306.918 8.41467 307.44 8.2C307.972 7.976 308.616 7.864 309.372 7.864C309.568 7.864 309.783 7.87333 310.016 7.892C310.259 7.91067 310.455 7.94333 310.604 7.99V9.04C310.436 8.984 310.245 8.942 310.03 8.914C309.825 8.886 309.615 8.872 309.4 8.872C308.756 8.872 308.22 8.97933 307.79 9.194C307.361 9.40867 307.02 9.70267 306.768 10.076C306.526 10.4493 306.348 10.8787 306.236 11.364C306.124 11.8493 306.054 12.3673 306.026 12.918H306.11C306.25 12.694 306.428 12.4933 306.642 12.316C306.857 12.1387 307.114 11.9987 307.412 11.896C307.72 11.7933 308.075 11.742 308.476 11.742C309.055 11.742 309.559 11.8633 309.988 12.106C310.427 12.3393 310.768 12.6847 311.01 13.142C311.253 13.59 311.374 14.136 311.374 14.78C311.374 15.4707 311.244 16.068 310.982 16.572C310.721 17.076 310.352 17.4633 309.876 17.734C309.41 18.0047 308.85 18.14 308.196 18.14C307.72 18.14 307.277 18.0513 306.866 17.874C306.456 17.6967 306.092 17.426 305.774 17.062C305.466 16.698 305.224 16.2407 305.046 15.69C304.878 15.13 304.794 14.4767 304.794 13.73ZM308.182 17.104C308.77 17.104 309.246 16.9173 309.61 16.544C309.974 16.1613 310.156 15.5733 310.156 14.78C310.156 14.1453 309.993 13.6413 309.666 13.268C309.349 12.8947 308.868 12.708 308.224 12.708C307.786 12.708 307.403 12.8013 307.076 12.988C306.75 13.1653 306.493 13.394 306.306 13.674C306.129 13.954 306.04 14.2433 306.04 14.542C306.04 14.85 306.082 15.1533 306.166 15.452C306.26 15.7507 306.395 16.026 306.572 16.278C306.759 16.53 306.983 16.7307 307.244 16.88C307.515 17.0293 307.828 17.104 308.182 17.104ZM315.886 11.868C316.567 11.868 317.16 11.9847 317.664 12.218C318.168 12.4513 318.555 12.7873 318.826 13.226C319.106 13.6553 319.246 14.1827 319.246 14.808C319.246 15.4987 319.097 16.096 318.798 16.6C318.499 17.0947 318.07 17.4773 317.51 17.748C316.959 18.0093 316.292 18.14 315.508 18.14C314.995 18.14 314.509 18.0933 314.052 18C313.604 17.9067 313.226 17.7713 312.918 17.594V16.432C313.254 16.6373 313.66 16.8007 314.136 16.922C314.621 17.034 315.083 17.09 315.522 17.09C316.017 17.09 316.446 17.0153 316.81 16.866C317.183 16.7073 317.473 16.4693 317.678 16.152C317.883 15.8253 317.986 15.4193 317.986 14.934C317.986 14.2807 317.785 13.7813 317.384 13.436C316.983 13.0813 316.348 12.904 315.48 12.904C315.219 12.904 314.92 12.9273 314.584 12.974C314.248 13.0207 313.977 13.0673 313.772 13.114L313.156 12.722L313.534 8.004H318.546V9.124H314.584L314.346 12.022C314.505 11.994 314.719 11.9613 314.99 11.924C315.261 11.8867 315.559 11.868 315.886 11.868ZM324.038 7.864C324.626 7.864 325.144 7.95733 325.592 8.144C326.04 8.32133 326.39 8.58733 326.642 8.942C326.903 9.29667 327.034 9.73533 327.034 10.258C327.034 10.6593 326.945 11.0093 326.768 11.308C326.6 11.6067 326.371 11.8727 326.082 12.106C325.793 12.33 325.475 12.5307 325.13 12.708C325.541 12.904 325.914 13.128 326.25 13.38C326.586 13.6227 326.852 13.9073 327.048 14.234C327.253 14.5607 327.356 14.9527 327.356 15.41C327.356 15.97 327.221 16.4553 326.95 16.866C326.679 17.2673 326.297 17.58 325.802 17.804C325.317 18.028 324.743 18.14 324.08 18.14C323.361 18.14 322.75 18.0327 322.246 17.818C321.751 17.6033 321.373 17.3 321.112 16.908C320.86 16.5067 320.734 16.0213 320.734 15.452C320.734 14.9947 320.827 14.598 321.014 14.262C321.21 13.926 321.467 13.6367 321.784 13.394C322.101 13.1513 322.442 12.946 322.806 12.778C322.479 12.5913 322.181 12.3813 321.91 12.148C321.649 11.9053 321.439 11.63 321.28 11.322C321.131 11.014 321.056 10.6547 321.056 10.244C321.056 9.73067 321.187 9.30133 321.448 8.956C321.709 8.60133 322.064 8.33067 322.512 8.144C322.96 7.95733 323.469 7.864 324.038 7.864ZM321.938 15.466C321.938 15.9513 322.111 16.3573 322.456 16.684C322.801 17.0013 323.333 17.16 324.052 17.16C324.509 17.16 324.892 17.0853 325.2 16.936C325.508 16.7867 325.741 16.5813 325.9 16.32C326.068 16.0587 326.152 15.76 326.152 15.424C326.152 15.0973 326.063 14.8127 325.886 14.57C325.718 14.318 325.475 14.094 325.158 13.898C324.85 13.702 324.481 13.5247 324.052 13.366L323.828 13.282C323.417 13.4593 323.072 13.6507 322.792 13.856C322.512 14.0613 322.297 14.2947 322.148 14.556C322.008 14.8173 321.938 15.1207 321.938 15.466ZM324.024 8.858C323.511 8.858 323.086 8.984 322.75 9.236C322.423 9.47867 322.26 9.83333 322.26 10.3C322.26 10.6453 322.339 10.9347 322.498 11.168C322.666 11.4013 322.89 11.602 323.17 11.77C323.45 11.9287 323.758 12.0827 324.094 12.232C324.421 12.092 324.71 11.938 324.962 11.77C325.223 11.602 325.429 11.4013 325.578 11.168C325.737 10.9253 325.816 10.636 325.816 10.3C325.816 9.83333 325.653 9.47867 325.326 9.236C324.999 8.984 324.565 8.858 324.024 8.858ZM332.26 18.14C331.597 18.14 331.004 18.0047 330.482 17.734C329.968 17.4633 329.562 17.0433 329.264 16.474C328.974 15.9047 328.83 15.1767 328.83 14.29C328.83 13.366 328.984 12.6147 329.292 12.036C329.6 11.4573 330.015 11.0327 330.538 10.762C331.07 10.4913 331.672 10.356 332.344 10.356C332.726 10.356 333.095 10.398 333.45 10.482C333.804 10.5567 334.094 10.65 334.318 10.762L333.94 11.784C333.716 11.7 333.454 11.6207 333.156 11.546C332.857 11.4713 332.577 11.434 332.316 11.434C331.812 11.434 331.396 11.5413 331.07 11.756C330.743 11.9707 330.5 12.288 330.342 12.708C330.183 13.128 330.104 13.6507 330.104 14.276C330.104 14.8733 330.183 15.382 330.342 15.802C330.5 16.222 330.738 16.5393 331.056 16.754C331.373 16.9687 331.77 17.076 332.246 17.076C332.656 17.076 333.016 17.034 333.324 16.95C333.641 16.866 333.93 16.7633 334.192 16.642V17.734C333.94 17.8647 333.66 17.9627 333.352 18.028C333.053 18.1027 332.689 18.14 332.26 18.14ZM338.874 10.356C339.518 10.356 340.069 10.496 340.526 10.776C340.993 11.056 341.347 11.4527 341.59 11.966C341.842 12.47 341.968 13.0627 341.968 13.744V14.486H336.83C336.849 15.3353 337.063 15.984 337.474 16.432C337.894 16.8707 338.477 17.09 339.224 17.09C339.7 17.09 340.12 17.048 340.484 16.964C340.857 16.8707 341.24 16.74 341.632 16.572V17.65C341.249 17.818 340.871 17.9393 340.498 18.014C340.125 18.098 339.681 18.14 339.168 18.14C338.459 18.14 337.829 17.9953 337.278 17.706C336.737 17.4167 336.312 16.9873 336.004 16.418C335.705 15.8393 335.556 15.1347 335.556 14.304C335.556 13.4827 335.691 12.778 335.962 12.19C336.242 11.602 336.629 11.1493 337.124 10.832C337.628 10.5147 338.211 10.356 338.874 10.356ZM338.86 11.364C338.272 11.364 337.805 11.5553 337.46 11.938C337.124 12.3113 336.923 12.834 336.858 13.506H340.68C340.68 13.0767 340.615 12.7033 340.484 12.386C340.353 12.0687 340.153 11.8213 339.882 11.644C339.621 11.4573 339.28 11.364 338.86 11.364ZM349.632 18H344.046V8.004H349.632V9.11H345.306V12.232H349.38V13.324H345.306V16.894H349.632V18ZM351.238 13.73C351.238 13.1513 351.275 12.582 351.35 12.022C351.434 11.462 351.574 10.9347 351.77 10.44C351.966 9.936 352.236 9.49267 352.582 9.11C352.927 8.718 353.361 8.41467 353.884 8.2C354.416 7.976 355.06 7.864 355.816 7.864C356.012 7.864 356.226 7.87333 356.46 7.892C356.702 7.91067 356.898 7.94333 357.048 7.99V9.04C356.88 8.984 356.688 8.942 356.474 8.914C356.268 8.886 356.058 8.872 355.844 8.872C355.2 8.872 354.663 8.97933 354.234 9.194C353.804 9.40867 353.464 9.70267 353.212 10.076C352.969 10.4493 352.792 10.8787 352.68 11.364C352.568 11.8493 352.498 12.3673 352.47 12.918H352.554C352.694 12.694 352.871 12.4933 353.086 12.316C353.3 12.1387 353.557 11.9987 353.856 11.896C354.164 11.7933 354.518 11.742 354.92 11.742C355.498 11.742 356.002 11.8633 356.432 12.106C356.87 12.3393 357.211 12.6847 357.454 13.142C357.696 13.59 357.818 14.136 357.818 14.78C357.818 15.4707 357.687 16.068 357.426 16.572C357.164 17.076 356.796 17.4633 356.32 17.734C355.853 18.0047 355.293 18.14 354.64 18.14C354.164 18.14 353.72 18.0513 353.31 17.874C352.899 17.6967 352.535 17.426 352.218 17.062C351.91 16.698 351.667 16.2407 351.49 15.69C351.322 15.13 351.238 14.4767 351.238 13.73ZM354.626 17.104C355.214 17.104 355.69 16.9173 356.054 16.544C356.418 16.1613 356.6 15.5733 356.6 14.78C356.6 14.1453 356.436 13.6413 356.11 13.268C355.792 12.8947 355.312 12.708 354.668 12.708C354.229 12.708 353.846 12.8013 353.52 12.988C353.193 13.1653 352.936 13.394 352.75 13.674C352.572 13.954 352.484 14.2433 352.484 14.542C352.484 14.85 352.526 15.1533 352.61 15.452C352.703 15.7507 352.838 16.026 353.016 16.278C353.202 16.53 353.426 16.7307 353.688 16.88C353.958 17.0293 354.271 17.104 354.626 17.104ZM365.759 12.274C365.759 12.8433 365.717 13.4127 365.633 13.982C365.559 14.542 365.423 15.074 365.227 15.578C365.031 16.0727 364.761 16.516 364.415 16.908C364.07 17.2907 363.631 17.594 363.099 17.818C362.567 18.0327 361.923 18.14 361.167 18.14C360.981 18.14 360.761 18.126 360.509 18.098C360.267 18.0793 360.066 18.0467 359.907 18V16.95C360.075 17.006 360.271 17.0527 360.495 17.09C360.719 17.118 360.934 17.132 361.139 17.132C361.793 17.132 362.329 17.0247 362.749 16.81C363.179 16.5953 363.519 16.306 363.771 15.942C364.023 15.5687 364.205 15.1393 364.317 14.654C364.429 14.1593 364.495 13.6413 364.513 13.1H364.429C364.289 13.3147 364.112 13.5107 363.897 13.688C363.683 13.8653 363.421 14.0053 363.113 14.108C362.815 14.2107 362.46 14.262 362.049 14.262C361.48 14.262 360.976 14.1453 360.537 13.912C360.108 13.6693 359.772 13.324 359.529 12.876C359.296 12.428 359.179 11.882 359.179 11.238C359.179 10.538 359.31 9.936 359.571 9.432C359.842 8.928 360.215 8.54067 360.691 8.27C361.167 7.99933 361.727 7.864 362.371 7.864C362.847 7.864 363.291 7.95733 363.701 8.144C364.112 8.32133 364.471 8.592 364.779 8.956C365.087 9.32 365.325 9.77733 365.493 10.328C365.671 10.8787 365.759 11.5273 365.759 12.274ZM362.371 8.9C361.793 8.9 361.317 9.09133 360.943 9.474C360.579 9.85667 360.397 10.44 360.397 11.224C360.397 11.868 360.551 12.3767 360.859 12.75C361.177 13.114 361.662 13.296 362.315 13.296C362.763 13.296 363.151 13.2073 363.477 13.03C363.804 12.8433 364.056 12.61 364.233 12.33C364.42 12.05 364.513 11.7607 364.513 11.462C364.513 11.1633 364.467 10.8647 364.373 10.566C364.289 10.258 364.159 9.978 363.981 9.726C363.804 9.474 363.58 9.27333 363.309 9.124C363.039 8.97467 362.726 8.9 362.371 8.9ZM375.857 12.904C375.857 14.024 375.647 14.962 375.227 15.718C374.817 16.474 374.224 17.0433 373.449 17.426C372.675 17.8087 371.737 18 370.635 18H367.849V8.004H370.929C371.937 8.004 372.81 8.19067 373.547 8.564C374.285 8.93733 374.854 9.488 375.255 10.216C375.657 10.9347 375.857 11.8307 375.857 12.904ZM374.527 12.946C374.527 12.0593 374.378 11.3313 374.079 10.762C373.79 10.1927 373.361 9.77267 372.791 9.502C372.231 9.222 371.55 9.082 370.747 9.082H369.109V16.922H370.467C371.821 16.922 372.833 16.5907 373.505 15.928C374.187 15.256 374.527 14.262 374.527 12.946ZM380.806 10.356C381.45 10.356 382 10.496 382.458 10.776C382.924 11.056 383.279 11.4527 383.522 11.966C383.774 12.47 383.9 13.0627 383.9 13.744V14.486H378.762C378.78 15.3353 378.995 15.984 379.406 16.432C379.826 16.8707 380.409 17.09 381.156 17.09C381.632 17.09 382.052 17.048 382.416 16.964C382.789 16.8707 383.172 16.74 383.564 16.572V17.65C383.181 17.818 382.803 17.9393 382.43 18.014C382.056 18.098 381.613 18.14 381.1 18.14C380.39 18.14 379.76 17.9953 379.21 17.706C378.668 17.4167 378.244 16.9873 377.936 16.418C377.637 15.8393 377.488 15.1347 377.488 14.304C377.488 13.4827 377.623 12.778 377.894 12.19C378.174 11.602 378.561 11.1493 379.056 10.832C379.56 10.5147 380.143 10.356 380.806 10.356ZM380.792 11.364C380.204 11.364 379.737 11.5553 379.392 11.938C379.056 12.3113 378.855 12.834 378.79 13.506H382.612C382.612 13.0767 382.546 12.7033 382.416 12.386C382.285 12.0687 382.084 11.8213 381.814 11.644C381.552 11.4573 381.212 11.364 380.792 11.364ZM391.9 18H385.292V16.978L387.91 14.332C388.414 13.828 388.839 13.38 389.184 12.988C389.529 12.596 389.791 12.2133 389.968 11.84C390.145 11.4573 390.234 11.042 390.234 10.594C390.234 10.0433 390.071 9.628 389.744 9.348C389.417 9.05867 388.993 8.914 388.47 8.914C387.985 8.914 387.555 8.998 387.182 9.166C386.818 9.334 386.445 9.56733 386.062 9.866L385.404 9.04C385.665 8.816 385.95 8.61533 386.258 8.438C386.575 8.26067 386.916 8.12067 387.28 8.018C387.653 7.91533 388.05 7.864 388.47 7.864C389.095 7.864 389.632 7.97133 390.08 8.186C390.528 8.40067 390.873 8.70867 391.116 9.11C391.368 9.502 391.494 9.97333 391.494 10.524C391.494 10.916 391.433 11.2893 391.312 11.644C391.191 11.9893 391.018 12.33 390.794 12.666C390.57 13.002 390.299 13.3427 389.982 13.688C389.665 14.0333 389.315 14.3927 388.932 14.766L386.846 16.824V16.88H391.9V18ZM400.36 15.732H398.904V18H397.714V15.732H392.926V14.682L397.63 7.948H398.904V14.626H400.36V15.732ZM397.714 11.476C397.714 11.2333 397.714 11.014 397.714 10.818C397.723 10.6127 397.733 10.4213 397.742 10.244C397.751 10.0667 397.756 9.89867 397.756 9.74C397.765 9.572 397.775 9.41333 397.784 9.264H397.728C397.653 9.44133 397.56 9.63267 397.448 9.838C397.336 10.0433 397.229 10.216 397.126 10.356L394.13 14.626H397.714V11.476ZM404.844 18.14C404.181 18.14 403.588 18.0047 403.066 17.734C402.552 17.4633 402.146 17.0433 401.848 16.474C401.558 15.9047 401.414 15.1767 401.414 14.29C401.414 13.366 401.568 12.6147 401.876 12.036C402.184 11.4573 402.599 11.0327 403.122 10.762C403.654 10.4913 404.256 10.356 404.928 10.356C405.31 10.356 405.679 10.398 406.034 10.482C406.388 10.5567 406.678 10.65 406.902 10.762L406.524 11.784C406.3 11.7 406.038 11.6207 405.74 11.546C405.441 11.4713 405.161 11.434 404.9 11.434C404.396 11.434 403.98 11.5413 403.654 11.756C403.327 11.9707 403.084 12.288 402.926 12.708C402.767 13.128 402.688 13.6507 402.688 14.276C402.688 14.8733 402.767 15.382 402.926 15.802C403.084 16.222 403.322 16.5393 403.64 16.754C403.957 16.9687 404.354 17.076 404.83 17.076C405.24 17.076 405.6 17.034 405.908 16.95C406.225 16.866 406.514 16.7633 406.776 16.642V17.734C406.524 17.8647 406.244 17.9627 405.936 18.028C405.637 18.1027 405.273 18.14 404.844 18.14ZM414.272 10.342C414.272 10.79 414.188 11.1773 414.02 11.504C413.852 11.8307 413.609 12.0967 413.292 12.302C412.984 12.5073 412.62 12.652 412.2 12.736V12.792C413.003 12.8853 413.6 13.1373 413.992 13.548C414.384 13.9587 414.58 14.4953 414.58 15.158C414.58 15.7367 414.445 16.2547 414.174 16.712C413.903 17.16 413.483 17.51 412.914 17.762C412.354 18.014 411.631 18.14 410.744 18.14C410.221 18.14 409.736 18.098 409.288 18.014C408.84 17.9393 408.411 17.7993 408 17.594V16.446C408.42 16.6513 408.873 16.8147 409.358 16.936C409.843 17.048 410.31 17.104 410.758 17.104C411.654 17.104 412.298 16.9313 412.69 16.586C413.091 16.2313 413.292 15.746 413.292 15.13C413.292 14.71 413.18 14.374 412.956 14.122C412.741 13.8607 412.424 13.6693 412.004 13.548C411.584 13.4267 411.08 13.366 410.492 13.366H409.526V12.316H410.506C411.057 12.316 411.514 12.2367 411.878 12.078C412.251 11.9193 412.531 11.7 412.718 11.42C412.914 11.1307 413.012 10.7993 413.012 10.426C413.012 9.94067 412.849 9.56733 412.522 9.306C412.195 9.03533 411.752 8.9 411.192 8.9C410.837 8.9 410.515 8.93733 410.226 9.012C409.937 9.07733 409.666 9.17533 409.414 9.306C409.171 9.42733 408.924 9.572 408.672 9.74L408.056 8.9C408.299 8.71333 408.574 8.54067 408.882 8.382C409.199 8.22333 409.549 8.09733 409.932 8.004C410.315 7.91067 410.73 7.864 411.178 7.864C412.223 7.864 412.998 8.09733 413.502 8.564C414.015 9.03067 414.272 9.62333 414.272 10.342ZM419.232 11.868C419.913 11.868 420.506 11.9847 421.01 12.218C421.514 12.4513 421.901 12.7873 422.172 13.226C422.452 13.6553 422.592 14.1827 422.592 14.808C422.592 15.4987 422.443 16.096 422.144 16.6C421.845 17.0947 421.416 17.4773 420.856 17.748C420.305 18.0093 419.638 18.14 418.854 18.14C418.341 18.14 417.855 18.0933 417.398 18C416.95 17.9067 416.572 17.7713 416.264 17.594V16.432C416.6 16.6373 417.006 16.8007 417.482 16.922C417.967 17.034 418.429 17.09 418.868 17.09C419.363 17.09 419.792 17.0153 420.156 16.866C420.529 16.7073 420.819 16.4693 421.024 16.152C421.229 15.8253 421.332 15.4193 421.332 14.934C421.332 14.2807 421.131 13.7813 420.73 13.436C420.329 13.0813 419.694 12.904 418.826 12.904C418.565 12.904 418.266 12.9273 417.93 12.974C417.594 13.0207 417.323 13.0673 417.118 13.114L416.502 12.722L416.88 8.004H421.892V9.124H417.93L417.692 12.022C417.851 11.994 418.065 11.9613 418.336 11.924C418.607 11.8867 418.905 11.868 419.232 11.868ZM427.244 11.868C427.925 11.868 428.518 11.9847 429.022 12.218C429.526 12.4513 429.913 12.7873 430.184 13.226C430.464 13.6553 430.604 14.1827 430.604 14.808C430.604 15.4987 430.454 16.096 430.156 16.6C429.857 17.0947 429.428 17.4773 428.868 17.748C428.317 18.0093 427.65 18.14 426.866 18.14C426.352 18.14 425.867 18.0933 425.41 18C424.962 17.9067 424.584 17.7713 424.276 17.594V16.432C424.612 16.6373 425.018 16.8007 425.494 16.922C425.979 17.034 426.441 17.09 426.88 17.09C427.374 17.09 427.804 17.0153 428.168 16.866C428.541 16.7073 428.83 16.4693 429.036 16.152C429.241 15.8253 429.344 15.4193 429.344 14.934C429.344 14.2807 429.143 13.7813 428.742 13.436C428.34 13.0813 427.706 12.904 426.838 12.904C426.576 12.904 426.278 12.9273 425.942 12.974C425.606 13.0207 425.335 13.0673 425.13 13.114L424.514 12.722L424.892 8.004H429.904V9.124H425.942L425.704 12.022C425.862 11.994 426.077 11.9613 426.348 11.924C426.618 11.8867 426.917 11.868 427.244 11.868ZM439.133 15.732H437.677V18H436.487V15.732H431.699V14.682L436.403 7.948H437.677V14.626H439.133V15.732ZM436.487 11.476C436.487 11.2333 436.487 11.014 436.487 10.818C436.497 10.6127 436.506 10.4213 436.515 10.244C436.525 10.0667 436.529 9.89867 436.529 9.74C436.539 9.572 436.548 9.41333 436.557 9.264H436.501C436.427 9.44133 436.333 9.63267 436.221 9.838C436.109 10.0433 436.002 10.216 435.899 10.356L432.903 14.626H436.487V11.476ZM440.187 13.73C440.187 13.1513 440.224 12.582 440.299 12.022C440.383 11.462 440.523 10.9347 440.719 10.44C440.915 9.936 441.186 9.49267 441.531 9.11C441.876 8.718 442.31 8.41467 442.833 8.2C443.365 7.976 444.009 7.864 444.765 7.864C444.961 7.864 445.176 7.87333 445.409 7.892C445.652 7.91067 445.848 7.94333 445.997 7.99V9.04C445.829 8.984 445.638 8.942 445.423 8.914C445.218 8.886 445.008 8.872 444.793 8.872C444.149 8.872 443.612 8.97933 443.183 9.194C442.754 9.40867 442.413 9.70267 442.161 10.076C441.918 10.4493 441.741 10.8787 441.629 11.364C441.517 11.8493 441.447 12.3673 441.419 12.918H441.503C441.643 12.694 441.82 12.4933 442.035 12.316C442.25 12.1387 442.506 11.9987 442.805 11.896C443.113 11.7933 443.468 11.742 443.869 11.742C444.448 11.742 444.952 11.8633 445.381 12.106C445.82 12.3393 446.16 12.6847 446.403 13.142C446.646 13.59 446.767 14.136 446.767 14.78C446.767 15.4707 446.636 16.068 446.375 16.572C446.114 17.076 445.745 17.4633 445.269 17.734C444.802 18.0047 444.242 18.14 443.589 18.14C443.113 18.14 442.67 18.0513 442.259 17.874C441.848 17.6967 441.484 17.426 441.167 17.062C440.859 16.698 440.616 16.2407 440.439 15.69C440.271 15.13 440.187 14.4767 440.187 13.73ZM443.575 17.104C444.163 17.104 444.639 16.9173 445.003 16.544C445.367 16.1613 445.549 15.5733 445.549 14.78C445.549 14.1453 445.386 13.6413 445.059 13.268C444.742 12.8947 444.261 12.708 443.617 12.708C443.178 12.708 442.796 12.8013 442.469 12.988C442.142 13.1653 441.886 13.394 441.699 13.674C441.522 13.954 441.433 14.2433 441.433 14.542C441.433 14.85 441.475 15.1533 441.559 15.452C441.652 15.7507 441.788 16.026 441.965 16.278C442.152 16.53 442.376 16.7307 442.637 16.88C442.908 17.0293 443.22 17.104 443.575 17.104ZM454.709 18H448.101V16.978L450.719 14.332C451.223 13.828 451.647 13.38 451.993 12.988C452.338 12.596 452.599 12.2133 452.777 11.84C452.954 11.4573 453.043 11.042 453.043 10.594C453.043 10.0433 452.879 9.628 452.553 9.348C452.226 9.05867 451.801 8.914 451.279 8.914C450.793 8.914 450.364 8.998 449.991 9.166C449.627 9.334 449.253 9.56733 448.871 9.866L448.213 9.04C448.474 8.816 448.759 8.61533 449.067 8.438C449.384 8.26067 449.725 8.12067 450.089 8.018C450.462 7.91533 450.859 7.864 451.279 7.864C451.904 7.864 452.441 7.97133 452.889 8.186C453.337 8.40067 453.682 8.70867 453.925 9.11C454.177 9.502 454.303 9.97333 454.303 10.524C454.303 10.916 454.242 11.2893 454.121 11.644C453.999 11.9893 453.827 12.33 453.603 12.666C453.379 13.002 453.108 13.3427 452.791 13.688C452.473 14.0333 452.123 14.3927 451.741 14.766L449.655 16.824V16.88H454.709V18ZM456.21 13.73C456.21 13.1513 456.248 12.582 456.322 12.022C456.406 11.462 456.546 10.9347 456.742 10.44C456.938 9.936 457.209 9.49267 457.554 9.11C457.9 8.718 458.334 8.41467 458.856 8.2C459.388 7.976 460.032 7.864 460.788 7.864C460.984 7.864 461.199 7.87333 461.432 7.892C461.675 7.91067 461.871 7.94333 462.02 7.99V9.04C461.852 8.984 461.661 8.942 461.446 8.914C461.241 8.886 461.031 8.872 460.816 8.872C460.172 8.872 459.636 8.97933 459.206 9.194C458.777 9.40867 458.436 9.70267 458.184 10.076C457.942 10.4493 457.764 10.8787 457.652 11.364C457.54 11.8493 457.47 12.3673 457.442 12.918H457.526C457.666 12.694 457.844 12.4933 458.058 12.316C458.273 12.1387 458.53 11.9987 458.828 11.896C459.136 11.7933 459.491 11.742 459.892 11.742C460.471 11.742 460.975 11.8633 461.404 12.106C461.843 12.3393 462.184 12.6847 462.426 13.142C462.669 13.59 462.79 14.136 462.79 14.78C462.79 15.4707 462.66 16.068 462.398 16.572C462.137 17.076 461.768 17.4633 461.292 17.734C460.826 18.0047 460.266 18.14 459.612 18.14C459.136 18.14 458.693 18.0513 458.282 17.874C457.872 17.6967 457.508 17.426 457.19 17.062C456.882 16.698 456.64 16.2407 456.462 15.69C456.294 15.13 456.21 14.4767 456.21 13.73ZM459.598 17.104C460.186 17.104 460.662 16.9173 461.026 16.544C461.39 16.1613 461.572 15.5733 461.572 14.78C461.572 14.1453 461.409 13.6413 461.082 13.268C460.765 12.8947 460.284 12.708 459.64 12.708C459.202 12.708 458.819 12.8013 458.492 12.988C458.166 13.1653 457.909 13.394 457.722 13.674C457.545 13.954 457.456 14.2433 457.456 14.542C457.456 14.85 457.498 15.1533 457.582 15.452C457.676 15.7507 457.811 16.026 457.988 16.278C458.175 16.53 458.399 16.7307 458.66 16.88C458.931 17.0293 459.244 17.104 459.598 17.104ZM470.354 10.342C470.354 10.79 470.27 11.1773 470.102 11.504C469.934 11.8307 469.691 12.0967 469.374 12.302C469.066 12.5073 468.702 12.652 468.282 12.736V12.792C469.085 12.8853 469.682 13.1373 470.074 13.548C470.466 13.9587 470.662 14.4953 470.662 15.158C470.662 15.7367 470.527 16.2547 470.256 16.712C469.985 17.16 469.565 17.51 468.996 17.762C468.436 18.014 467.713 18.14 466.826 18.14C466.303 18.14 465.818 18.098 465.37 18.014C464.922 17.9393 464.493 17.7993 464.082 17.594V16.446C464.502 16.6513 464.955 16.8147 465.44 16.936C465.925 17.048 466.392 17.104 466.84 17.104C467.736 17.104 468.38 16.9313 468.772 16.586C469.173 16.2313 469.374 15.746 469.374 15.13C469.374 14.71 469.262 14.374 469.038 14.122C468.823 13.8607 468.506 13.6693 468.086 13.548C467.666 13.4267 467.162 13.366 466.574 13.366H465.608V12.316H466.588C467.139 12.316 467.596 12.2367 467.96 12.078C468.333 11.9193 468.613 11.7 468.8 11.42C468.996 11.1307 469.094 10.7993 469.094 10.426C469.094 9.94067 468.931 9.56733 468.604 9.306C468.277 9.03533 467.834 8.9 467.274 8.9C466.919 8.9 466.597 8.93733 466.308 9.012C466.019 9.07733 465.748 9.17533 465.496 9.306C465.253 9.42733 465.006 9.572 464.754 9.74L464.138 8.9C464.381 8.71333 464.656 8.54067 464.964 8.382C465.281 8.22333 465.631 8.09733 466.014 8.004C466.397 7.91067 466.812 7.864 467.26 7.864C468.305 7.864 469.08 8.09733 469.584 8.564C470.097 9.03067 470.354 9.62333 470.354 10.342ZM476.112 11.448H474.222V18H472.99V11.448H471.674V10.874L472.99 10.454V10.02C472.99 9.376 473.083 8.85333 473.27 8.452C473.466 8.05067 473.746 7.75667 474.11 7.57C474.474 7.38333 474.913 7.29 475.426 7.29C475.725 7.29 475.995 7.318 476.238 7.374C476.49 7.42067 476.705 7.47667 476.882 7.542L476.56 8.508C476.411 8.46133 476.238 8.41467 476.042 8.368C475.846 8.32133 475.645 8.298 475.44 8.298C475.029 8.298 474.721 8.438 474.516 8.718C474.32 8.98867 474.222 9.418 474.222 10.006V10.496H476.112V11.448ZM483.598 12.988C483.598 13.8 483.538 14.5233 483.416 15.158C483.295 15.7927 483.099 16.334 482.828 16.782C482.567 17.2207 482.222 17.5567 481.792 17.79C481.372 18.0233 480.864 18.14 480.266 18.14C479.52 18.14 478.899 17.9347 478.404 17.524C477.919 17.1133 477.555 16.5253 477.312 15.76C477.079 14.9853 476.962 14.0613 476.962 12.988C476.962 11.9053 477.07 10.9813 477.284 10.216C477.508 9.45067 477.863 8.86733 478.348 8.466C478.834 8.05533 479.473 7.85 480.266 7.85C481.013 7.85 481.634 8.05533 482.128 8.466C482.623 8.86733 482.992 9.45067 483.234 10.216C483.477 10.9813 483.598 11.9053 483.598 12.988ZM478.194 12.988C478.194 13.9027 478.26 14.6633 478.39 15.27C478.53 15.8767 478.75 16.334 479.048 16.642C479.356 16.9407 479.762 17.09 480.266 17.09C480.77 17.09 481.172 16.9407 481.47 16.642C481.778 16.3433 482.002 15.8907 482.142 15.284C482.282 14.668 482.352 13.9027 482.352 12.988C482.352 12.0733 482.282 11.3173 482.142 10.72C482.002 10.1133 481.778 9.66067 481.47 9.362C481.172 9.054 480.77 8.9 480.266 8.9C479.762 8.9 479.356 9.054 479.048 9.362C478.75 9.66067 478.53 10.1133 478.39 10.72C478.26 11.3173 478.194 12.0733 478.194 12.988ZM485.058 13.73C485.058 13.1513 485.095 12.582 485.17 12.022C485.254 11.462 485.394 10.9347 485.59 10.44C485.786 9.936 486.057 9.49267 486.402 9.11C486.747 8.718 487.181 8.41467 487.704 8.2C488.236 7.976 488.88 7.864 489.636 7.864C489.832 7.864 490.047 7.87333 490.28 7.892C490.523 7.91067 490.719 7.94333 490.868 7.99V9.04C490.7 8.984 490.509 8.942 490.294 8.914C490.089 8.886 489.879 8.872 489.664 8.872C489.02 8.872 488.483 8.97933 488.054 9.194C487.625 9.40867 487.284 9.70267 487.032 10.076C486.789 10.4493 486.612 10.8787 486.5 11.364C486.388 11.8493 486.318 12.3673 486.29 12.918H486.374C486.514 12.694 486.691 12.4933 486.906 12.316C487.121 12.1387 487.377 11.9987 487.676 11.896C487.984 11.7933 488.339 11.742 488.74 11.742C489.319 11.742 489.823 11.8633 490.252 12.106C490.691 12.3393 491.031 12.6847 491.274 13.142C491.517 13.59 491.638 14.136 491.638 14.78C491.638 15.4707 491.507 16.068 491.246 16.572C490.985 17.076 490.616 17.4633 490.14 17.734C489.673 18.0047 489.113 18.14 488.46 18.14C487.984 18.14 487.541 18.0513 487.13 17.874C486.719 17.6967 486.355 17.426 486.038 17.062C485.73 16.698 485.487 16.2407 485.31 15.69C485.142 15.13 485.058 14.4767 485.058 13.73ZM488.446 17.104C489.034 17.104 489.51 16.9173 489.874 16.544C490.238 16.1613 490.42 15.5733 490.42 14.78C490.42 14.1453 490.257 13.6413 489.93 13.268C489.613 12.8947 489.132 12.708 488.488 12.708C488.049 12.708 487.667 12.8013 487.34 12.988C487.013 13.1653 486.757 13.394 486.57 13.674C486.393 13.954 486.304 14.2433 486.304 14.542C486.304 14.85 486.346 15.1533 486.43 15.452C486.523 15.7507 486.659 16.026 486.836 16.278C487.023 16.53 487.247 16.7307 487.508 16.88C487.779 17.0293 488.091 17.104 488.446 17.104ZM499.93 18L498.726 14.906H494.764L493.574 18H492.3L496.206 7.962H497.34L501.232 18H499.93ZM497.228 10.762C497.2 10.6873 497.153 10.552 497.088 10.356C497.022 10.16 496.957 9.95933 496.892 9.754C496.836 9.53933 496.789 9.376 496.752 9.264C496.705 9.45067 496.654 9.642 496.598 9.838C496.551 10.0247 496.5 10.1973 496.444 10.356C496.397 10.5147 496.355 10.65 496.318 10.762L495.184 13.786H498.348L497.228 10.762ZM508.521 18H501.913V16.978L504.531 14.332C505.035 13.828 505.46 13.38 505.805 12.988C506.151 12.596 506.412 12.2133 506.589 11.84C506.767 11.4573 506.855 11.042 506.855 10.594C506.855 10.0433 506.692 9.628 506.365 9.348C506.039 9.05867 505.614 8.914 505.091 8.914C504.606 8.914 504.177 8.998 503.803 9.166C503.439 9.334 503.066 9.56733 502.683 9.866L502.025 9.04C502.287 8.816 502.571 8.61533 502.879 8.438C503.197 8.26067 503.537 8.12067 503.901 8.018C504.275 7.91533 504.671 7.864 505.091 7.864C505.717 7.864 506.253 7.97133 506.701 8.186C507.149 8.40067 507.495 8.70867 507.737 9.11C507.989 9.502 508.115 9.97333 508.115 10.524C508.115 10.916 508.055 11.2893 507.933 11.644C507.812 11.9893 507.639 12.33 507.415 12.666C507.191 13.002 506.921 13.3427 506.603 13.688C506.286 14.0333 505.936 14.3927 505.553 14.766L503.467 16.824V16.88H508.521V18ZM514.223 18H513.019V11.014C513.019 10.7433 513.019 10.5147 513.019 10.328C513.028 10.1413 513.038 9.96867 513.047 9.81C513.056 9.642 513.066 9.46933 513.075 9.292C512.926 9.44133 512.79 9.56733 512.669 9.67C512.548 9.77267 512.394 9.90333 512.207 10.062L511.143 10.93L510.499 10.104L513.201 8.004H514.223V18ZM524.587 12.988C524.587 13.8 524.526 14.5233 524.405 15.158C524.283 15.7927 524.087 16.334 523.817 16.782C523.555 17.2207 523.21 17.5567 522.781 17.79C522.361 18.0233 521.852 18.14 521.255 18.14C520.508 18.14 519.887 17.9347 519.393 17.524C518.907 17.1133 518.543 16.5253 518.301 15.76C518.067 14.9853 517.951 14.0613 517.951 12.988C517.951 11.9053 518.058 10.9813 518.273 10.216C518.497 9.45067 518.851 8.86733 519.337 8.466C519.822 8.05533 520.461 7.85 521.255 7.85C522.001 7.85 522.622 8.05533 523.117 8.466C523.611 8.86733 523.98 9.45067 524.223 10.216C524.465 10.9813 524.587 11.9053 524.587 12.988ZM519.183 12.988C519.183 13.9027 519.248 14.6633 519.379 15.27C519.519 15.8767 519.738 16.334 520.037 16.642C520.345 16.9407 520.751 17.09 521.255 17.09C521.759 17.09 522.16 16.9407 522.459 16.642C522.767 16.3433 522.991 15.8907 523.131 15.284C523.271 14.668 523.341 13.9027 523.341 12.988C523.341 12.0733 523.271 11.3173 523.131 10.72C522.991 10.1133 522.767 9.66067 522.459 9.362C522.16 9.054 521.759 8.9 521.255 8.9C520.751 8.9 520.345 9.054 520.037 9.362C519.738 9.66067 519.519 10.1133 519.379 10.72C519.248 11.3173 519.183 12.0733 519.183 12.988ZM529.308 10.37C530.223 10.37 530.9 10.5707 531.338 10.972C531.777 11.3733 531.996 12.0127 531.996 12.89V18H531.1L530.862 16.936H530.806C530.592 17.2067 530.368 17.4353 530.134 17.622C529.91 17.7993 529.649 17.93 529.35 18.014C529.061 18.098 528.706 18.14 528.286 18.14C527.838 18.14 527.432 18.0607 527.068 17.902C526.714 17.7433 526.434 17.5007 526.228 17.174C526.023 16.838 525.92 16.418 525.92 15.914C525.92 15.1673 526.214 14.5933 526.802 14.192C527.39 13.7813 528.296 13.5573 529.518 13.52L530.792 13.478V13.03C530.792 12.4047 530.657 11.9707 530.386 11.728C530.116 11.4853 529.733 11.364 529.238 11.364C528.846 11.364 528.473 11.4247 528.118 11.546C527.764 11.658 527.432 11.7887 527.124 11.938L526.746 11.014C527.073 10.8367 527.46 10.6873 527.908 10.566C528.356 10.4353 528.823 10.37 529.308 10.37ZM529.672 14.374C528.739 14.4113 528.09 14.5607 527.726 14.822C527.372 15.0833 527.194 15.452 527.194 15.928C527.194 16.348 527.32 16.656 527.572 16.852C527.834 17.048 528.165 17.146 528.566 17.146C529.201 17.146 529.728 16.9733 530.148 16.628C530.568 16.2733 530.778 15.732 530.778 15.004V14.332L529.672 14.374ZM542.49 12.904C542.49 14.024 542.28 14.962 541.86 15.718C541.449 16.474 540.857 17.0433 540.082 17.426C539.307 17.8087 538.369 18 537.268 18H534.482V8.004H537.562C538.57 8.004 539.443 8.19067 540.18 8.564C540.917 8.93733 541.487 9.488 541.888 10.216C542.289 10.9347 542.49 11.8307 542.49 12.904ZM541.16 12.946C541.16 12.0593 541.011 11.3313 540.712 10.762C540.423 10.1927 539.993 9.77267 539.424 9.502C538.864 9.222 538.183 9.082 537.38 9.082H535.742V16.922H537.1C538.453 16.922 539.466 16.5907 540.138 15.928C540.819 15.256 541.16 14.262 541.16 12.946ZM551.079 15.732H549.623V18H548.433V15.732H543.645V14.682L548.349 7.948H549.623V14.626H551.079V15.732ZM548.433 11.476C548.433 11.2333 548.433 11.014 548.433 10.818C548.442 10.6127 548.451 10.4213 548.461 10.244C548.47 10.0667 548.475 9.89867 548.475 9.74C548.484 9.572 548.493 9.41333 548.503 9.264H548.447C548.372 9.44133 548.279 9.63267 548.167 9.838C548.055 10.0433 547.947 10.216 547.845 10.356L544.849 14.626H548.433V11.476ZM558.642 18H552.034V16.978L554.652 14.332C555.156 13.828 555.581 13.38 555.926 12.988C556.272 12.596 556.533 12.2133 556.71 11.84C556.888 11.4573 556.976 11.042 556.976 10.594C556.976 10.0433 556.813 9.628 556.486 9.348C556.16 9.05867 555.735 8.914 555.212 8.914C554.727 8.914 554.298 8.998 553.924 9.166C553.56 9.334 553.187 9.56733 552.804 9.866L552.146 9.04C552.408 8.816 552.692 8.61533 553 8.438C553.318 8.26067 553.658 8.12067 554.022 8.018C554.396 7.91533 554.792 7.864 555.212 7.864C555.838 7.864 556.374 7.97133 556.822 8.186C557.27 8.40067 557.616 8.70867 557.858 9.11C558.11 9.502 558.236 9.97333 558.236 10.524C558.236 10.916 558.176 11.2893 558.054 11.644C557.933 11.9893 557.76 12.33 557.536 12.666C557.312 13.002 557.042 13.3427 556.724 13.688C556.407 14.0333 556.057 14.3927 555.674 14.766L553.588 16.824V16.88H558.642V18ZM566.276 10.342C566.276 10.79 566.192 11.1773 566.024 11.504C565.856 11.8307 565.613 12.0967 565.296 12.302C564.988 12.5073 564.624 12.652 564.204 12.736V12.792C565.007 12.8853 565.604 13.1373 565.996 13.548C566.388 13.9587 566.584 14.4953 566.584 15.158C566.584 15.7367 566.449 16.2547 566.178 16.712C565.907 17.16 565.487 17.51 564.918 17.762C564.358 18.014 563.635 18.14 562.748 18.14C562.225 18.14 561.74 18.098 561.292 18.014C560.844 17.9393 560.415 17.7993 560.004 17.594V16.446C560.424 16.6513 560.877 16.8147 561.362 16.936C561.847 17.048 562.314 17.104 562.762 17.104C563.658 17.104 564.302 16.9313 564.694 16.586C565.095 16.2313 565.296 15.746 565.296 15.13C565.296 14.71 565.184 14.374 564.96 14.122C564.745 13.8607 564.428 13.6693 564.008 13.548C563.588 13.4267 563.084 13.366 562.496 13.366H561.53V12.316H562.51C563.061 12.316 563.518 12.2367 563.882 12.078C564.255 11.9193 564.535 11.7 564.722 11.42C564.918 11.1307 565.016 10.7993 565.016 10.426C565.016 9.94067 564.853 9.56733 564.526 9.306C564.199 9.03533 563.756 8.9 563.196 8.9C562.841 8.9 562.519 8.93733 562.23 9.012C561.941 9.07733 561.67 9.17533 561.418 9.306C561.175 9.42733 560.928 9.572 560.676 9.74L560.06 8.9C560.303 8.71333 560.578 8.54067 560.886 8.382C561.203 8.22333 561.553 8.09733 561.936 8.004C562.319 7.91067 562.734 7.864 563.182 7.864C564.227 7.864 565.002 8.09733 565.506 8.564C566.019 9.03067 566.276 9.62333 566.276 10.342ZM568.156 13.73C568.156 13.1513 568.193 12.582 568.268 12.022C568.352 11.462 568.492 10.9347 568.688 10.44C568.884 9.936 569.154 9.49267 569.5 9.11C569.845 8.718 570.279 8.41467 570.802 8.2C571.334 7.976 571.978 7.864 572.734 7.864C572.93 7.864 573.144 7.87333 573.378 7.892C573.62 7.91067 573.816 7.94333 573.966 7.99V9.04C573.798 8.984 573.606 8.942 573.392 8.914C573.186 8.886 572.976 8.872 572.762 8.872C572.118 8.872 571.581 8.97933 571.152 9.194C570.722 9.40867 570.382 9.70267 570.13 10.076C569.887 10.4493 569.71 10.8787 569.598 11.364C569.486 11.8493 569.416 12.3673 569.388 12.918H569.472C569.612 12.694 569.789 12.4933 570.004 12.316C570.218 12.1387 570.475 11.9987 570.774 11.896C571.082 11.7933 571.436 11.742 571.838 11.742C572.416 11.742 572.92 11.8633 573.35 12.106C573.788 12.3393 574.129 12.6847 574.372 13.142C574.614 13.59 574.736 14.136 574.736 14.78C574.736 15.4707 574.605 16.068 574.344 16.572C574.082 17.076 573.714 17.4633 573.238 17.734C572.771 18.0047 572.211 18.14 571.558 18.14C571.082 18.14 570.638 18.0513 570.228 17.874C569.817 17.6967 569.453 17.426 569.136 17.062C568.828 16.698 568.585 16.2407 568.408 15.69C568.24 15.13 568.156 14.4767 568.156 13.73ZM571.544 17.104C572.132 17.104 572.608 16.9173 572.972 16.544C573.336 16.1613 573.518 15.5733 573.518 14.78C573.518 14.1453 573.354 13.6413 573.028 13.268C572.71 12.8947 572.23 12.708 571.586 12.708C571.147 12.708 570.764 12.8013 570.438 12.988C570.111 13.1653 569.854 13.394 569.668 13.674C569.49 13.954 569.402 14.2433 569.402 14.542C569.402 14.85 569.444 15.1533 569.528 15.452C569.621 15.7507 569.756 16.026 569.934 16.278C570.12 16.53 570.344 16.7307 570.606 16.88C570.876 17.0293 571.189 17.104 571.544 17.104Z" fill="#555555"/>
</svg>
