<svg width="570" height="25" viewBox="0 0 570 25" fill="none" xmlns="http://www.w3.org/2000/svg">
<rect width="570" height="25" fill="#555555"/>
<rect x="215" width="355" height="25" fill="#7DA6FF"/>
<path d="M26.5606 14.472C26.5606 15.1627 26.4206 15.788 26.1406 16.348C25.8606 16.8987 25.4313 17.3373 24.8526 17.664C24.2833 17.9813 23.5553 18.14 22.6686 18.14C21.4273 18.14 20.4799 17.804 19.8266 17.132C19.1826 16.4507 18.8606 15.5547 18.8606 14.444V8.004H20.1206V14.486C20.1206 15.298 20.3353 15.928 20.7646 16.376C21.2033 16.824 21.8613 17.048 22.7386 17.048C23.3453 17.048 23.8353 16.9407 24.2086 16.726C24.5913 16.502 24.8713 16.1987 25.0486 15.816C25.2259 15.424 25.3146 14.976 25.3146 14.472V8.004H26.5606V14.472ZM32.6428 10.356C33.5388 10.356 34.2155 10.5753 34.6728 11.014C35.1302 11.4433 35.3588 12.1433 35.3588 13.114V18H34.1408V13.198C34.1408 12.5913 34.0055 12.1387 33.7348 11.84C33.4642 11.5413 33.0395 11.392 32.4608 11.392C31.6302 11.392 31.0562 11.6253 30.7388 12.092C30.4215 12.5587 30.2628 13.2307 30.2628 14.108V18H29.0308V10.496H30.0248L30.2068 11.518H30.2768C30.4448 11.2567 30.6502 11.042 30.8928 10.874C31.1448 10.6967 31.4202 10.566 31.7188 10.482C32.0175 10.398 32.3255 10.356 32.6428 10.356ZM38.9171 10.496V18H37.6851V10.496H38.9171ZM38.3151 7.682C38.5018 7.682 38.6651 7.74733 38.8051 7.878C38.9545 7.99933 39.0291 8.19533 39.0291 8.466C39.0291 8.72733 38.9545 8.92333 38.8051 9.054C38.6651 9.18467 38.5018 9.25 38.3151 9.25C38.1098 9.25 37.9371 9.18467 37.7971 9.054C37.6571 8.92333 37.5871 8.72733 37.5871 8.466C37.5871 8.19533 37.6571 7.99933 37.7971 7.878C37.9371 7.74733 38.1098 7.682 38.3151 7.682ZM46.1805 15.928C46.1805 16.4133 46.0592 16.8193 45.8165 17.146C45.5738 17.4727 45.2285 17.72 44.7805 17.888C44.3325 18.056 43.8005 18.14 43.1845 18.14C42.6618 18.14 42.2092 18.098 41.8265 18.014C41.4532 17.93 41.1218 17.8133 40.8325 17.664V16.544C41.1312 16.6933 41.4905 16.8333 41.9105 16.964C42.3398 17.0853 42.7738 17.146 43.2125 17.146C43.8378 17.146 44.2905 17.048 44.5705 16.852C44.8505 16.6467 44.9905 16.376 44.9905 16.04C44.9905 15.8533 44.9392 15.6853 44.8365 15.536C44.7338 15.3867 44.5472 15.2373 44.2765 15.088C44.0152 14.9387 43.6372 14.7707 43.1425 14.584C42.6572 14.3973 42.2418 14.2107 41.8965 14.024C41.5512 13.8373 41.2852 13.6133 41.0985 13.352C40.9118 13.0907 40.8185 12.7547 40.8185 12.344C40.8185 11.7093 41.0752 11.2193 41.5885 10.874C42.1112 10.5287 42.7925 10.356 43.6325 10.356C44.0898 10.356 44.5145 10.4027 44.9065 10.496C45.3078 10.58 45.6812 10.7013 46.0265 10.86L45.6065 11.84C45.4012 11.7467 45.1818 11.6673 44.9485 11.602C44.7245 11.5273 44.4958 11.4713 44.2625 11.434C44.0292 11.3873 43.7912 11.364 43.5485 11.364C43.0445 11.364 42.6572 11.448 42.3865 11.616C42.1252 11.7747 41.9945 11.994 41.9945 12.274C41.9945 12.4793 42.0552 12.6567 42.1765 12.806C42.2978 12.946 42.4985 13.086 42.7785 13.226C43.0678 13.3567 43.4505 13.5153 43.9265 13.702C44.4025 13.8793 44.8085 14.0613 45.1445 14.248C45.4805 14.4347 45.7372 14.6633 45.9145 14.934C46.0918 15.1953 46.1805 15.5267 46.1805 15.928ZM52.8377 13.758C52.7817 13.562 52.7257 13.3707 52.6697 13.184C52.6137 12.988 52.5624 12.806 52.5157 12.638C52.4784 12.4607 52.441 12.2973 52.4037 12.148C52.3664 11.9987 52.3384 11.8727 52.3197 11.77H52.2637C52.245 11.8727 52.217 11.9987 52.1797 12.148C52.1517 12.2973 52.1144 12.4607 52.0677 12.638C52.0304 12.8153 51.9837 13.002 51.9277 13.198C51.881 13.3847 51.825 13.576 51.7597 13.772L50.4157 17.986H49.0157L46.9577 10.482H48.2317L49.2677 14.486C49.3424 14.7567 49.4124 15.032 49.4777 15.312C49.543 15.5827 49.599 15.844 49.6457 16.096C49.7017 16.3387 49.739 16.5487 49.7577 16.726H49.8137C49.8417 16.614 49.8744 16.474 49.9117 16.306C49.949 16.138 49.9864 15.9607 50.0237 15.774C50.0704 15.5873 50.117 15.4007 50.1637 15.214C50.2197 15.0273 50.271 14.8593 50.3177 14.71L51.6477 10.482H52.9917L54.2797 14.71C54.345 14.9247 54.4104 15.1533 54.4757 15.396C54.5504 15.6387 54.6157 15.8767 54.6717 16.11C54.7277 16.334 54.765 16.5347 54.7837 16.712H54.8397C54.8584 16.5533 54.891 16.3573 54.9377 16.124C54.9937 15.8813 55.0544 15.62 55.1197 15.34C55.1944 15.0507 55.269 14.766 55.3437 14.486L56.3937 10.482H57.6537L55.5677 17.986H54.1257L52.8377 13.758ZM61.8416 10.37C62.7562 10.37 63.4329 10.5707 63.8716 10.972C64.3102 11.3733 64.5296 12.0127 64.5296 12.89V18H63.6336L63.3956 16.936H63.3396C63.1249 17.2067 62.9009 17.4353 62.6676 17.622C62.4436 17.7993 62.1822 17.93 61.8836 18.014C61.5942 18.098 61.2396 18.14 60.8196 18.14C60.3716 18.14 59.9656 18.0607 59.6016 17.902C59.2469 17.7433 58.9669 17.5007 58.7616 17.174C58.5562 16.838 58.4536 16.418 58.4536 15.914C58.4536 15.1673 58.7476 14.5933 59.3356 14.192C59.9236 13.7813 60.8289 13.5573 62.0516 13.52L63.3256 13.478V13.03C63.3256 12.4047 63.1902 11.9707 62.9196 11.728C62.6489 11.4853 62.2662 11.364 61.7716 11.364C61.3796 11.364 61.0062 11.4247 60.6516 11.546C60.2969 11.658 59.9656 11.7887 59.6576 11.938L59.2796 11.014C59.6062 10.8367 59.9936 10.6873 60.4416 10.566C60.8896 10.4353 61.3562 10.37 61.8416 10.37ZM62.2056 14.374C61.2722 14.4113 60.6236 14.5607 60.2596 14.822C59.9049 15.0833 59.7276 15.452 59.7276 15.928C59.7276 16.348 59.8536 16.656 60.1056 16.852C60.3669 17.048 60.6982 17.146 61.0996 17.146C61.7342 17.146 62.2616 16.9733 62.6816 16.628C63.1016 16.2733 63.3116 15.732 63.3116 15.004V14.332L62.2056 14.374ZM70.4172 10.356C71.3412 10.356 72.0832 10.678 72.6432 11.322C73.2126 11.966 73.4972 12.9367 73.4972 14.234C73.4972 15.0833 73.3666 15.802 73.1052 16.39C72.8532 16.9687 72.4939 17.4073 72.0272 17.706C71.5699 17.9953 71.0286 18.14 70.4032 18.14C70.0206 18.14 69.6799 18.0887 69.3812 17.986C69.0826 17.8833 68.8259 17.7527 68.6112 17.594C68.4059 17.426 68.2286 17.244 68.0792 17.048H67.9952C68.0139 17.2067 68.0326 17.4073 68.0512 17.65C68.0699 17.8927 68.0792 18.1027 68.0792 18.28V21.36H66.8472V10.496H67.8552L68.0232 11.518H68.0792C68.2286 11.3033 68.4059 11.1073 68.6112 10.93C68.8259 10.7527 69.0779 10.6127 69.3672 10.51C69.6659 10.4073 70.0159 10.356 70.4172 10.356ZM70.1932 11.392C69.6892 11.392 69.2832 11.49 68.9752 11.686C68.6672 11.8727 68.4432 12.1573 68.3032 12.54C68.1632 12.9227 68.0886 13.408 68.0792 13.996V14.234C68.0792 14.85 68.1446 15.3727 68.2752 15.802C68.4059 16.2313 68.6252 16.558 68.9332 16.782C69.2506 17.006 69.6799 17.118 70.2212 17.118C70.6786 17.118 71.0519 16.992 71.3412 16.74C71.6399 16.488 71.8592 16.1473 71.9992 15.718C72.1486 15.2793 72.2232 14.78 72.2232 14.22C72.2232 13.3613 72.0552 12.6753 71.7192 12.162C71.3926 11.6487 70.8839 11.392 70.1932 11.392ZM86.8672 14.472C86.8672 15.1627 86.7272 15.788 86.4472 16.348C86.1672 16.8987 85.7379 17.3373 85.1592 17.664C84.5899 17.9813 83.8619 18.14 82.9752 18.14C81.7339 18.14 80.7866 17.804 80.1332 17.132C79.4892 16.4507 79.1672 15.5547 79.1672 14.444V8.004H80.4272V14.486C80.4272 15.298 80.6419 15.928 81.0712 16.376C81.5099 16.824 82.1679 17.048 83.0452 17.048C83.6519 17.048 84.1419 16.9407 84.5152 16.726C84.8979 16.502 85.1779 16.1987 85.3552 15.816C85.5326 15.424 85.6212 14.976 85.6212 14.472V8.004H86.8672V14.472ZM97.4295 18H95.9595L90.6115 9.698H90.5555C90.5648 9.866 90.5741 10.0527 90.5835 10.258C90.6021 10.4633 90.6161 10.6873 90.6255 10.93C90.6348 11.1633 90.6441 11.406 90.6535 11.658C90.6628 11.91 90.6675 12.162 90.6675 12.414V18H89.5055V8.004H90.9615L96.2955 16.278H96.3515C96.3421 16.166 96.3328 16.012 96.3235 15.816C96.3141 15.6107 96.3048 15.3867 96.2955 15.144C96.2861 14.892 96.2768 14.6353 96.2675 14.374C96.2581 14.1127 96.2535 13.87 96.2535 13.646V8.004H97.4295V18ZM102.956 18H99.3442V17.272L100.52 17.006V9.012L99.3442 8.732V8.004H102.956V8.732L101.78 9.012V17.006L102.956 17.272V18ZM107.725 14.164C107.725 13.3987 107.795 12.652 107.935 11.924C108.084 11.196 108.313 10.5007 108.621 9.838C108.929 9.17533 109.316 8.564 109.783 8.004H110.945C110.516 8.58267 110.152 9.208 109.853 9.88C109.564 10.552 109.344 11.2473 109.195 11.966C109.046 12.6847 108.971 13.4127 108.971 14.15C108.971 14.8687 109.046 15.5827 109.195 16.292C109.344 17.0013 109.564 17.6827 109.853 18.336C110.142 18.9987 110.502 19.624 110.931 20.212H109.783C109.316 19.6613 108.929 19.0593 108.621 18.406C108.313 17.762 108.084 17.0807 107.935 16.362C107.795 15.6433 107.725 14.9107 107.725 14.164ZM121.943 18H116.357V8.004H121.943V9.11H117.617V12.232H121.691V13.324H117.617V16.894H121.943V18ZM127.3 18H126.04V9.11H122.918V8.004H130.408V9.11H127.3V18ZM139.56 18H138.3V13.338H133.176V18H131.916V8.004H133.176V12.232H138.3V8.004H139.56V18ZM151.515 18H145.929V8.004H151.515V9.11H147.189V12.232H151.263V13.324H147.189V16.894H151.515V18ZM156.467 8.004C157.297 8.004 157.979 8.11133 158.511 8.326C159.052 8.53133 159.453 8.844 159.715 9.264C159.976 9.684 160.107 10.2113 160.107 10.846C160.107 11.378 160.009 11.8213 159.813 12.176C159.617 12.5307 159.365 12.8153 159.057 13.03C158.758 13.2353 158.441 13.3987 158.105 13.52L160.849 18H159.379L156.957 13.87H154.969V18H153.709V8.004H156.467ZM156.397 9.096H154.969V12.806H156.467C157.008 12.806 157.451 12.736 157.797 12.596C158.142 12.4467 158.394 12.232 158.553 11.952C158.721 11.672 158.805 11.322 158.805 10.902C158.805 10.4633 158.716 10.1133 158.539 9.852C158.371 9.59067 158.109 9.39933 157.755 9.278C157.4 9.15667 156.947 9.096 156.397 9.096ZM166.702 8.97C166.17 8.97 165.689 9.06333 165.26 9.25C164.83 9.42733 164.466 9.69333 164.168 10.048C163.869 10.3933 163.64 10.818 163.482 11.322C163.323 11.8167 163.244 12.3767 163.244 13.002C163.244 13.8233 163.37 14.5373 163.622 15.144C163.883 15.7507 164.266 16.2173 164.77 16.544C165.283 16.8707 165.922 17.034 166.688 17.034C167.126 17.034 167.542 16.9967 167.934 16.922C168.326 16.8473 168.708 16.754 169.082 16.642V17.734C168.708 17.874 168.321 17.9767 167.92 18.042C167.528 18.1073 167.056 18.14 166.506 18.14C165.488 18.14 164.639 17.93 163.958 17.51C163.276 17.09 162.763 16.4927 162.418 15.718C162.082 14.9433 161.914 14.0333 161.914 12.988C161.914 12.232 162.016 11.5413 162.222 10.916C162.436 10.2907 162.744 9.74933 163.146 9.292C163.556 8.83467 164.06 8.48467 164.658 8.242C165.255 7.99 165.941 7.864 166.716 7.864C167.229 7.864 167.724 7.91533 168.2 8.018C168.676 8.12067 169.1 8.26533 169.474 8.452L168.97 9.516C168.662 9.376 168.316 9.25 167.934 9.138C167.56 9.026 167.15 8.97 166.702 8.97ZM180.822 18H174.214V16.978L176.832 14.332C177.336 13.828 177.761 13.38 178.106 12.988C178.451 12.596 178.713 12.2133 178.89 11.84C179.067 11.4573 179.156 11.042 179.156 10.594C179.156 10.0433 178.993 9.628 178.666 9.348C178.339 9.05867 177.915 8.914 177.392 8.914C176.907 8.914 176.477 8.998 176.104 9.166C175.74 9.334 175.367 9.56733 174.984 9.866L174.326 9.04C174.587 8.816 174.872 8.61533 175.18 8.438C175.497 8.26067 175.838 8.12067 176.202 8.018C176.575 7.91533 176.972 7.864 177.392 7.864C178.017 7.864 178.554 7.97133 179.002 8.186C179.45 8.40067 179.795 8.70867 180.038 9.11C180.29 9.502 180.416 9.97333 180.416 10.524C180.416 10.916 180.355 11.2893 180.234 11.644C180.113 11.9893 179.94 12.33 179.716 12.666C179.492 13.002 179.221 13.3427 178.904 13.688C178.587 14.0333 178.237 14.3927 177.854 14.766L175.768 16.824V16.88H180.822V18ZM188.876 12.988C188.876 13.8 188.815 14.5233 188.694 15.158C188.572 15.7927 188.376 16.334 188.106 16.782C187.844 17.2207 187.499 17.5567 187.07 17.79C186.65 18.0233 186.141 18.14 185.544 18.14C184.797 18.14 184.176 17.9347 183.682 17.524C183.196 17.1133 182.832 16.5253 182.59 15.76C182.356 14.9853 182.24 14.0613 182.24 12.988C182.24 11.9053 182.347 10.9813 182.562 10.216C182.786 9.45067 183.14 8.86733 183.626 8.466C184.111 8.05533 184.75 7.85 185.544 7.85C186.29 7.85 186.911 8.05533 187.406 8.466C187.9 8.86733 188.269 9.45067 188.512 10.216C188.754 10.9813 188.876 11.9053 188.876 12.988ZM183.472 12.988C183.472 13.9027 183.537 14.6633 183.668 15.27C183.808 15.8767 184.027 16.334 184.326 16.642C184.634 16.9407 185.04 17.09 185.544 17.09C186.048 17.09 186.449 16.9407 186.748 16.642C187.056 16.3433 187.28 15.8907 187.42 15.284C187.56 14.668 187.63 13.9027 187.63 12.988C187.63 12.0733 187.56 11.3173 187.42 10.72C187.28 10.1133 187.056 9.66067 186.748 9.362C186.449 9.054 186.048 8.9 185.544 8.9C185.04 8.9 184.634 9.054 184.326 9.362C184.027 9.66067 183.808 10.1133 183.668 10.72C183.537 11.3173 183.472 12.0733 183.472 12.988ZM196.842 14.164C196.842 14.9107 196.767 15.6433 196.618 16.362C196.478 17.0807 196.254 17.762 195.946 18.406C195.647 19.0593 195.26 19.6613 194.784 20.212H193.636C194.065 19.624 194.425 18.9987 194.714 18.336C195.003 17.6827 195.223 17.0013 195.372 16.292C195.521 15.5827 195.596 14.8687 195.596 14.15C195.596 13.4127 195.521 12.6847 195.372 11.966C195.223 11.2473 195.003 10.552 194.714 9.88C194.425 9.208 194.061 8.58267 193.622 8.004H194.784C195.26 8.564 195.647 9.17533 195.946 9.838C196.254 10.5007 196.478 11.196 196.618 11.924C196.767 12.652 196.842 13.3987 196.842 14.164Z" fill="white"/>
<path d="M231.925 12.988C231.925 13.8 231.864 14.5233 231.743 15.158C231.621 15.7927 231.425 16.334 231.155 16.782C230.893 17.2207 230.548 17.5567 230.119 17.79C229.699 18.0233 229.19 18.14 228.593 18.14C227.846 18.14 227.225 17.9347 226.731 17.524C226.245 17.1133 225.881 16.5253 225.639 15.76C225.405 14.9853 225.289 14.0613 225.289 12.988C225.289 11.9053 225.396 10.9813 225.611 10.216C225.835 9.45067 226.189 8.86733 226.675 8.466C227.16 8.05533 227.799 7.85 228.593 7.85C229.339 7.85 229.96 8.05533 230.455 8.466C230.949 8.86733 231.318 9.45067 231.561 10.216C231.803 10.9813 231.925 11.9053 231.925 12.988ZM226.521 12.988C226.521 13.9027 226.586 14.6633 226.717 15.27C226.857 15.8767 227.076 16.334 227.375 16.642C227.683 16.9407 228.089 17.09 228.593 17.09C229.097 17.09 229.498 16.9407 229.797 16.642C230.105 16.3433 230.329 15.8907 230.469 15.284C230.609 14.668 230.679 13.9027 230.679 12.988C230.679 12.0733 230.609 11.3173 230.469 10.72C230.329 10.1133 230.105 9.66067 229.797 9.362C229.498 9.054 229.097 8.9 228.593 8.9C228.089 8.9 227.683 9.054 227.375 9.362C227.076 9.66067 226.857 10.1133 226.717 10.72C226.586 11.3173 226.521 12.0733 226.521 12.988ZM235.582 14.164L232.992 10.496H234.392L236.324 13.324L238.242 10.496H239.628L237.038 14.164L239.768 18H238.368L236.324 15.004L234.252 18H232.866L235.582 14.164ZM247.654 18L246.45 14.906H242.488L241.298 18H240.024L243.93 7.962H245.064L248.956 18H247.654ZM244.952 10.762C244.924 10.6873 244.878 10.552 244.812 10.356C244.747 10.16 244.682 9.95933 244.616 9.754C244.56 9.53933 244.514 9.376 244.476 9.264C244.43 9.45067 244.378 9.642 244.322 9.838C244.276 10.0247 244.224 10.1973 244.168 10.356C244.122 10.5147 244.08 10.65 244.042 10.762L242.908 13.786H246.072L244.952 10.762ZM249.736 13.73C249.736 13.1513 249.773 12.582 249.848 12.022C249.932 11.462 250.072 10.9347 250.268 10.44C250.464 9.936 250.734 9.49267 251.08 9.11C251.425 8.718 251.859 8.41467 252.382 8.2C252.914 7.976 253.558 7.864 254.314 7.864C254.51 7.864 254.724 7.87333 254.958 7.892C255.2 7.91067 255.396 7.94333 255.546 7.99V9.04C255.378 8.984 255.186 8.942 254.972 8.914C254.766 8.886 254.556 8.872 254.342 8.872C253.698 8.872 253.161 8.97933 252.732 9.194C252.302 9.40867 251.962 9.70267 251.71 10.076C251.467 10.4493 251.29 10.8787 251.178 11.364C251.066 11.8493 250.996 12.3673 250.968 12.918H251.052C251.192 12.694 251.369 12.4933 251.584 12.316C251.798 12.1387 252.055 11.9987 252.354 11.896C252.662 11.7933 253.016 11.742 253.418 11.742C253.996 11.742 254.5 11.8633 254.93 12.106C255.368 12.3393 255.709 12.6847 255.952 13.142C256.194 13.59 256.316 14.136 256.316 14.78C256.316 15.4707 256.185 16.068 255.924 16.572C255.662 17.076 255.294 17.4633 254.818 17.734C254.351 18.0047 253.791 18.14 253.138 18.14C252.662 18.14 252.218 18.0513 251.808 17.874C251.397 17.6967 251.033 17.426 250.716 17.062C250.408 16.698 250.165 16.2407 249.988 15.69C249.82 15.13 249.736 14.4767 249.736 13.73ZM253.124 17.104C253.712 17.104 254.188 16.9173 254.552 16.544C254.916 16.1613 255.098 15.5733 255.098 14.78C255.098 14.1453 254.934 13.6413 254.608 13.268C254.29 12.8947 253.81 12.708 253.166 12.708C252.727 12.708 252.344 12.8013 252.018 12.988C251.691 13.1653 251.434 13.394 251.248 13.674C251.07 13.954 250.982 14.2433 250.982 14.542C250.982 14.85 251.024 15.1533 251.108 15.452C251.201 15.7507 251.336 16.026 251.514 16.278C251.7 16.53 251.924 16.7307 252.186 16.88C252.456 17.0293 252.769 17.104 253.124 17.104ZM260.828 11.868C261.509 11.868 262.102 11.9847 262.606 12.218C263.11 12.4513 263.497 12.7873 263.768 13.226C264.048 13.6553 264.188 14.1827 264.188 14.808C264.188 15.4987 264.038 16.096 263.74 16.6C263.441 17.0947 263.012 17.4773 262.452 17.748C261.901 18.0093 261.234 18.14 260.45 18.14C259.936 18.14 259.451 18.0933 258.994 18C258.546 17.9067 258.168 17.7713 257.86 17.594V16.432C258.196 16.6373 258.602 16.8007 259.078 16.922C259.563 17.034 260.025 17.09 260.464 17.09C260.958 17.09 261.388 17.0153 261.752 16.866C262.125 16.7073 262.414 16.4693 262.62 16.152C262.825 15.8253 262.928 15.4193 262.928 14.934C262.928 14.2807 262.727 13.7813 262.326 13.436C261.924 13.0813 261.29 12.904 260.422 12.904C260.16 12.904 259.862 12.9273 259.526 12.974C259.19 13.0207 258.919 13.0673 258.714 13.114L258.098 12.722L258.476 8.004H263.488V9.124H259.526L259.288 12.022C259.446 11.994 259.661 11.9613 259.932 11.924C260.202 11.8867 260.501 11.868 260.828 11.868ZM269.959 18H268.755V11.014C268.755 10.7433 268.755 10.5147 268.755 10.328C268.765 10.1413 268.774 9.96867 268.783 9.81C268.793 9.642 268.802 9.46933 268.811 9.292C268.662 9.44133 268.527 9.56733 268.405 9.67C268.284 9.77267 268.13 9.90333 267.943 10.062L266.879 10.93L266.235 10.104L268.937 8.004H269.959V18ZM276.851 11.868C277.532 11.868 278.125 11.9847 278.629 12.218C279.133 12.4513 279.52 12.7873 279.791 13.226C280.071 13.6553 280.211 14.1827 280.211 14.808C280.211 15.4987 280.062 16.096 279.763 16.6C279.464 17.0947 279.035 17.4773 278.475 17.748C277.924 18.0093 277.257 18.14 276.473 18.14C275.96 18.14 275.474 18.0933 275.017 18C274.569 17.9067 274.191 17.7713 273.883 17.594V16.432C274.219 16.6373 274.625 16.8007 275.101 16.922C275.586 17.034 276.048 17.09 276.487 17.09C276.982 17.09 277.411 17.0153 277.775 16.866C278.148 16.7073 278.438 16.4693 278.643 16.152C278.848 15.8253 278.951 15.4193 278.951 14.934C278.951 14.2807 278.75 13.7813 278.349 13.436C277.948 13.0813 277.313 12.904 276.445 12.904C276.184 12.904 275.885 12.9273 275.549 12.974C275.213 13.0207 274.942 13.0673 274.737 13.114L274.121 12.722L274.499 8.004H279.511V9.124H275.549L275.311 12.022C275.47 11.994 275.684 11.9613 275.955 11.924C276.226 11.8867 276.524 11.868 276.851 11.868ZM288.335 12.988C288.335 13.8 288.274 14.5233 288.153 15.158C288.031 15.7927 287.835 16.334 287.565 16.782C287.303 17.2207 286.958 17.5567 286.529 17.79C286.109 18.0233 285.6 18.14 285.003 18.14C284.256 18.14 283.635 17.9347 283.141 17.524C282.655 17.1133 282.291 16.5253 282.049 15.76C281.815 14.9853 281.699 14.0613 281.699 12.988C281.699 11.9053 281.806 10.9813 282.021 10.216C282.245 9.45067 282.599 8.86733 283.085 8.466C283.57 8.05533 284.209 7.85 285.003 7.85C285.749 7.85 286.37 8.05533 286.865 8.466C287.359 8.86733 287.728 9.45067 287.971 10.216C288.213 10.9813 288.335 11.9053 288.335 12.988ZM282.931 12.988C282.931 13.9027 282.996 14.6633 283.127 15.27C283.267 15.8767 283.486 16.334 283.785 16.642C284.093 16.9407 284.499 17.09 285.003 17.09C285.507 17.09 285.908 16.9407 286.207 16.642C286.515 16.3433 286.739 15.8907 286.879 15.284C287.019 14.668 287.089 13.9027 287.089 12.988C287.089 12.0733 287.019 11.3173 286.879 10.72C286.739 10.1133 286.515 9.66067 286.207 9.362C285.908 9.054 285.507 8.9 285.003 8.9C284.499 8.9 284.093 9.054 283.785 9.362C283.486 9.66067 283.267 10.1133 283.127 10.72C282.996 11.3173 282.931 12.0733 282.931 12.988ZM289.794 13.73C289.794 13.1513 289.832 12.582 289.906 12.022C289.99 11.462 290.13 10.9347 290.326 10.44C290.522 9.936 290.793 9.49267 291.138 9.11C291.484 8.718 291.918 8.41467 292.44 8.2C292.972 7.976 293.616 7.864 294.372 7.864C294.568 7.864 294.783 7.87333 295.016 7.892C295.259 7.91067 295.455 7.94333 295.604 7.99V9.04C295.436 8.984 295.245 8.942 295.03 8.914C294.825 8.886 294.615 8.872 294.4 8.872C293.756 8.872 293.22 8.97933 292.79 9.194C292.361 9.40867 292.02 9.70267 291.768 10.076C291.526 10.4493 291.348 10.8787 291.236 11.364C291.124 11.8493 291.054 12.3673 291.026 12.918H291.11C291.25 12.694 291.428 12.4933 291.642 12.316C291.857 12.1387 292.114 11.9987 292.412 11.896C292.72 11.7933 293.075 11.742 293.476 11.742C294.055 11.742 294.559 11.8633 294.988 12.106C295.427 12.3393 295.768 12.6847 296.01 13.142C296.253 13.59 296.374 14.136 296.374 14.78C296.374 15.4707 296.244 16.068 295.982 16.572C295.721 17.076 295.352 17.4633 294.876 17.734C294.41 18.0047 293.85 18.14 293.196 18.14C292.72 18.14 292.277 18.0513 291.866 17.874C291.456 17.6967 291.092 17.426 290.774 17.062C290.466 16.698 290.224 16.2407 290.046 15.69C289.878 15.13 289.794 14.4767 289.794 13.73ZM293.182 17.104C293.77 17.104 294.246 16.9173 294.61 16.544C294.974 16.1613 295.156 15.5733 295.156 14.78C295.156 14.1453 294.993 13.6413 294.666 13.268C294.349 12.8947 293.868 12.708 293.224 12.708C292.786 12.708 292.403 12.8013 292.076 12.988C291.75 13.1653 291.493 13.394 291.306 13.674C291.129 13.954 291.04 14.2433 291.04 14.542C291.04 14.85 291.082 15.1533 291.166 15.452C291.26 15.7507 291.395 16.026 291.572 16.278C291.759 16.53 291.983 16.7307 292.244 16.88C292.515 17.0293 292.828 17.104 293.182 17.104ZM300.886 11.868C301.567 11.868 302.16 11.9847 302.664 12.218C303.168 12.4513 303.555 12.7873 303.826 13.226C304.106 13.6553 304.246 14.1827 304.246 14.808C304.246 15.4987 304.097 16.096 303.798 16.6C303.499 17.0947 303.07 17.4773 302.51 17.748C301.959 18.0093 301.292 18.14 300.508 18.14C299.995 18.14 299.509 18.0933 299.052 18C298.604 17.9067 298.226 17.7713 297.918 17.594V16.432C298.254 16.6373 298.66 16.8007 299.136 16.922C299.621 17.034 300.083 17.09 300.522 17.09C301.017 17.09 301.446 17.0153 301.81 16.866C302.183 16.7073 302.473 16.4693 302.678 16.152C302.883 15.8253 302.986 15.4193 302.986 14.934C302.986 14.2807 302.785 13.7813 302.384 13.436C301.983 13.0813 301.348 12.904 300.48 12.904C300.219 12.904 299.92 12.9273 299.584 12.974C299.248 13.0207 298.977 13.0673 298.772 13.114L298.156 12.722L298.534 8.004H303.546V9.124H299.584L299.346 12.022C299.505 11.994 299.719 11.9613 299.99 11.924C300.261 11.8867 300.559 11.868 300.886 11.868ZM309.038 7.864C309.626 7.864 310.144 7.95733 310.592 8.144C311.04 8.32133 311.39 8.58733 311.642 8.942C311.903 9.29667 312.034 9.73533 312.034 10.258C312.034 10.6593 311.945 11.0093 311.768 11.308C311.6 11.6067 311.371 11.8727 311.082 12.106C310.793 12.33 310.475 12.5307 310.13 12.708C310.541 12.904 310.914 13.128 311.25 13.38C311.586 13.6227 311.852 13.9073 312.048 14.234C312.253 14.5607 312.356 14.9527 312.356 15.41C312.356 15.97 312.221 16.4553 311.95 16.866C311.679 17.2673 311.297 17.58 310.802 17.804C310.317 18.028 309.743 18.14 309.08 18.14C308.361 18.14 307.75 18.0327 307.246 17.818C306.751 17.6033 306.373 17.3 306.112 16.908C305.86 16.5067 305.734 16.0213 305.734 15.452C305.734 14.9947 305.827 14.598 306.014 14.262C306.21 13.926 306.467 13.6367 306.784 13.394C307.101 13.1513 307.442 12.946 307.806 12.778C307.479 12.5913 307.181 12.3813 306.91 12.148C306.649 11.9053 306.439 11.63 306.28 11.322C306.131 11.014 306.056 10.6547 306.056 10.244C306.056 9.73067 306.187 9.30133 306.448 8.956C306.709 8.60133 307.064 8.33067 307.512 8.144C307.96 7.95733 308.469 7.864 309.038 7.864ZM306.938 15.466C306.938 15.9513 307.111 16.3573 307.456 16.684C307.801 17.0013 308.333 17.16 309.052 17.16C309.509 17.16 309.892 17.0853 310.2 16.936C310.508 16.7867 310.741 16.5813 310.9 16.32C311.068 16.0587 311.152 15.76 311.152 15.424C311.152 15.0973 311.063 14.8127 310.886 14.57C310.718 14.318 310.475 14.094 310.158 13.898C309.85 13.702 309.481 13.5247 309.052 13.366L308.828 13.282C308.417 13.4593 308.072 13.6507 307.792 13.856C307.512 14.0613 307.297 14.2947 307.148 14.556C307.008 14.8173 306.938 15.1207 306.938 15.466ZM309.024 8.858C308.511 8.858 308.086 8.984 307.75 9.236C307.423 9.47867 307.26 9.83333 307.26 10.3C307.26 10.6453 307.339 10.9347 307.498 11.168C307.666 11.4013 307.89 11.602 308.17 11.77C308.45 11.9287 308.758 12.0827 309.094 12.232C309.421 12.092 309.71 11.938 309.962 11.77C310.223 11.602 310.429 11.4013 310.578 11.168C310.737 10.9253 310.816 10.636 310.816 10.3C310.816 9.83333 310.653 9.47867 310.326 9.236C309.999 8.984 309.565 8.858 309.024 8.858ZM317.26 18.14C316.597 18.14 316.004 18.0047 315.482 17.734C314.968 17.4633 314.562 17.0433 314.264 16.474C313.974 15.9047 313.83 15.1767 313.83 14.29C313.83 13.366 313.984 12.6147 314.292 12.036C314.6 11.4573 315.015 11.0327 315.538 10.762C316.07 10.4913 316.672 10.356 317.344 10.356C317.726 10.356 318.095 10.398 318.45 10.482C318.804 10.5567 319.094 10.65 319.318 10.762L318.94 11.784C318.716 11.7 318.454 11.6207 318.156 11.546C317.857 11.4713 317.577 11.434 317.316 11.434C316.812 11.434 316.396 11.5413 316.07 11.756C315.743 11.9707 315.5 12.288 315.342 12.708C315.183 13.128 315.104 13.6507 315.104 14.276C315.104 14.8733 315.183 15.382 315.342 15.802C315.5 16.222 315.738 16.5393 316.056 16.754C316.373 16.9687 316.77 17.076 317.246 17.076C317.656 17.076 318.016 17.034 318.324 16.95C318.641 16.866 318.93 16.7633 319.192 16.642V17.734C318.94 17.8647 318.66 17.9627 318.352 18.028C318.053 18.1027 317.689 18.14 317.26 18.14ZM323.874 10.356C324.518 10.356 325.069 10.496 325.526 10.776C325.993 11.056 326.347 11.4527 326.59 11.966C326.842 12.47 326.968 13.0627 326.968 13.744V14.486H321.83C321.849 15.3353 322.063 15.984 322.474 16.432C322.894 16.8707 323.477 17.09 324.224 17.09C324.7 17.09 325.12 17.048 325.484 16.964C325.857 16.8707 326.24 16.74 326.632 16.572V17.65C326.249 17.818 325.871 17.9393 325.498 18.014C325.125 18.098 324.681 18.14 324.168 18.14C323.459 18.14 322.829 17.9953 322.278 17.706C321.737 17.4167 321.312 16.9873 321.004 16.418C320.705 15.8393 320.556 15.1347 320.556 14.304C320.556 13.4827 320.691 12.778 320.962 12.19C321.242 11.602 321.629 11.1493 322.124 10.832C322.628 10.5147 323.211 10.356 323.874 10.356ZM323.86 11.364C323.272 11.364 322.805 11.5553 322.46 11.938C322.124 12.3113 321.923 12.834 321.858 13.506H325.68C325.68 13.0767 325.615 12.7033 325.484 12.386C325.353 12.0687 325.153 11.8213 324.882 11.644C324.621 11.4573 324.28 11.364 323.86 11.364ZM334.632 18H329.046V8.004H334.632V9.11H330.306V12.232H334.38V13.324H330.306V16.894H334.632V18ZM336.238 13.73C336.238 13.1513 336.275 12.582 336.35 12.022C336.434 11.462 336.574 10.9347 336.77 10.44C336.966 9.936 337.236 9.49267 337.582 9.11C337.927 8.718 338.361 8.41467 338.884 8.2C339.416 7.976 340.06 7.864 340.816 7.864C341.012 7.864 341.226 7.87333 341.46 7.892C341.702 7.91067 341.898 7.94333 342.048 7.99V9.04C341.88 8.984 341.688 8.942 341.474 8.914C341.268 8.886 341.058 8.872 340.844 8.872C340.2 8.872 339.663 8.97933 339.234 9.194C338.804 9.40867 338.464 9.70267 338.212 10.076C337.969 10.4493 337.792 10.8787 337.68 11.364C337.568 11.8493 337.498 12.3673 337.47 12.918H337.554C337.694 12.694 337.871 12.4933 338.086 12.316C338.3 12.1387 338.557 11.9987 338.856 11.896C339.164 11.7933 339.518 11.742 339.92 11.742C340.498 11.742 341.002 11.8633 341.432 12.106C341.87 12.3393 342.211 12.6847 342.454 13.142C342.696 13.59 342.818 14.136 342.818 14.78C342.818 15.4707 342.687 16.068 342.426 16.572C342.164 17.076 341.796 17.4633 341.32 17.734C340.853 18.0047 340.293 18.14 339.64 18.14C339.164 18.14 338.72 18.0513 338.31 17.874C337.899 17.6967 337.535 17.426 337.218 17.062C336.91 16.698 336.667 16.2407 336.49 15.69C336.322 15.13 336.238 14.4767 336.238 13.73ZM339.626 17.104C340.214 17.104 340.69 16.9173 341.054 16.544C341.418 16.1613 341.6 15.5733 341.6 14.78C341.6 14.1453 341.436 13.6413 341.11 13.268C340.792 12.8947 340.312 12.708 339.668 12.708C339.229 12.708 338.846 12.8013 338.52 12.988C338.193 13.1653 337.936 13.394 337.75 13.674C337.572 13.954 337.484 14.2433 337.484 14.542C337.484 14.85 337.526 15.1533 337.61 15.452C337.703 15.7507 337.838 16.026 338.016 16.278C338.202 16.53 338.426 16.7307 338.688 16.88C338.958 17.0293 339.271 17.104 339.626 17.104ZM350.759 12.274C350.759 12.8433 350.717 13.4127 350.633 13.982C350.559 14.542 350.423 15.074 350.227 15.578C350.031 16.0727 349.761 16.516 349.415 16.908C349.07 17.2907 348.631 17.594 348.099 17.818C347.567 18.0327 346.923 18.14 346.167 18.14C345.981 18.14 345.761 18.126 345.509 18.098C345.267 18.0793 345.066 18.0467 344.907 18V16.95C345.075 17.006 345.271 17.0527 345.495 17.09C345.719 17.118 345.934 17.132 346.139 17.132C346.793 17.132 347.329 17.0247 347.749 16.81C348.179 16.5953 348.519 16.306 348.771 15.942C349.023 15.5687 349.205 15.1393 349.317 14.654C349.429 14.1593 349.495 13.6413 349.513 13.1H349.429C349.289 13.3147 349.112 13.5107 348.897 13.688C348.683 13.8653 348.421 14.0053 348.113 14.108C347.815 14.2107 347.46 14.262 347.049 14.262C346.48 14.262 345.976 14.1453 345.537 13.912C345.108 13.6693 344.772 13.324 344.529 12.876C344.296 12.428 344.179 11.882 344.179 11.238C344.179 10.538 344.31 9.936 344.571 9.432C344.842 8.928 345.215 8.54067 345.691 8.27C346.167 7.99933 346.727 7.864 347.371 7.864C347.847 7.864 348.291 7.95733 348.701 8.144C349.112 8.32133 349.471 8.592 349.779 8.956C350.087 9.32 350.325 9.77733 350.493 10.328C350.671 10.8787 350.759 11.5273 350.759 12.274ZM347.371 8.9C346.793 8.9 346.317 9.09133 345.943 9.474C345.579 9.85667 345.397 10.44 345.397 11.224C345.397 11.868 345.551 12.3767 345.859 12.75C346.177 13.114 346.662 13.296 347.315 13.296C347.763 13.296 348.151 13.2073 348.477 13.03C348.804 12.8433 349.056 12.61 349.233 12.33C349.42 12.05 349.513 11.7607 349.513 11.462C349.513 11.1633 349.467 10.8647 349.373 10.566C349.289 10.258 349.159 9.978 348.981 9.726C348.804 9.474 348.58 9.27333 348.309 9.124C348.039 8.97467 347.726 8.9 347.371 8.9ZM360.857 12.904C360.857 14.024 360.647 14.962 360.227 15.718C359.817 16.474 359.224 17.0433 358.449 17.426C357.675 17.8087 356.737 18 355.635 18H352.849V8.004H355.929C356.937 8.004 357.81 8.19067 358.547 8.564C359.285 8.93733 359.854 9.488 360.255 10.216C360.657 10.9347 360.857 11.8307 360.857 12.904ZM359.527 12.946C359.527 12.0593 359.378 11.3313 359.079 10.762C358.79 10.1927 358.361 9.77267 357.791 9.502C357.231 9.222 356.55 9.082 355.747 9.082H354.109V16.922H355.467C356.821 16.922 357.833 16.5907 358.505 15.928C359.187 15.256 359.527 14.262 359.527 12.946ZM365.806 10.356C366.45 10.356 367 10.496 367.458 10.776C367.924 11.056 368.279 11.4527 368.522 11.966C368.774 12.47 368.9 13.0627 368.9 13.744V14.486H363.762C363.78 15.3353 363.995 15.984 364.406 16.432C364.826 16.8707 365.409 17.09 366.156 17.09C366.632 17.09 367.052 17.048 367.416 16.964C367.789 16.8707 368.172 16.74 368.564 16.572V17.65C368.181 17.818 367.803 17.9393 367.43 18.014C367.056 18.098 366.613 18.14 366.1 18.14C365.39 18.14 364.76 17.9953 364.21 17.706C363.668 17.4167 363.244 16.9873 362.936 16.418C362.637 15.8393 362.488 15.1347 362.488 14.304C362.488 13.4827 362.623 12.778 362.894 12.19C363.174 11.602 363.561 11.1493 364.056 10.832C364.56 10.5147 365.143 10.356 365.806 10.356ZM365.792 11.364C365.204 11.364 364.737 11.5553 364.392 11.938C364.056 12.3113 363.855 12.834 363.79 13.506H367.612C367.612 13.0767 367.546 12.7033 367.416 12.386C367.285 12.0687 367.084 11.8213 366.814 11.644C366.552 11.4573 366.212 11.364 365.792 11.364ZM376.9 18H370.292V16.978L372.91 14.332C373.414 13.828 373.839 13.38 374.184 12.988C374.529 12.596 374.791 12.2133 374.968 11.84C375.145 11.4573 375.234 11.042 375.234 10.594C375.234 10.0433 375.071 9.628 374.744 9.348C374.417 9.05867 373.993 8.914 373.47 8.914C372.985 8.914 372.555 8.998 372.182 9.166C371.818 9.334 371.445 9.56733 371.062 9.866L370.404 9.04C370.665 8.816 370.95 8.61533 371.258 8.438C371.575 8.26067 371.916 8.12067 372.28 8.018C372.653 7.91533 373.05 7.864 373.47 7.864C374.095 7.864 374.632 7.97133 375.08 8.186C375.528 8.40067 375.873 8.70867 376.116 9.11C376.368 9.502 376.494 9.97333 376.494 10.524C376.494 10.916 376.433 11.2893 376.312 11.644C376.191 11.9893 376.018 12.33 375.794 12.666C375.57 13.002 375.299 13.3427 374.982 13.688C374.665 14.0333 374.315 14.3927 373.932 14.766L371.846 16.824V16.88H376.9V18ZM385.36 15.732H383.904V18H382.714V15.732H377.926V14.682L382.63 7.948H383.904V14.626H385.36V15.732ZM382.714 11.476C382.714 11.2333 382.714 11.014 382.714 10.818C382.723 10.6127 382.733 10.4213 382.742 10.244C382.751 10.0667 382.756 9.89867 382.756 9.74C382.765 9.572 382.775 9.41333 382.784 9.264H382.728C382.653 9.44133 382.56 9.63267 382.448 9.838C382.336 10.0433 382.229 10.216 382.126 10.356L379.13 14.626H382.714V11.476ZM389.844 18.14C389.181 18.14 388.588 18.0047 388.066 17.734C387.552 17.4633 387.146 17.0433 386.848 16.474C386.558 15.9047 386.414 15.1767 386.414 14.29C386.414 13.366 386.568 12.6147 386.876 12.036C387.184 11.4573 387.599 11.0327 388.122 10.762C388.654 10.4913 389.256 10.356 389.928 10.356C390.31 10.356 390.679 10.398 391.034 10.482C391.388 10.5567 391.678 10.65 391.902 10.762L391.524 11.784C391.3 11.7 391.038 11.6207 390.74 11.546C390.441 11.4713 390.161 11.434 389.9 11.434C389.396 11.434 388.98 11.5413 388.654 11.756C388.327 11.9707 388.084 12.288 387.926 12.708C387.767 13.128 387.688 13.6507 387.688 14.276C387.688 14.8733 387.767 15.382 387.926 15.802C388.084 16.222 388.322 16.5393 388.64 16.754C388.957 16.9687 389.354 17.076 389.83 17.076C390.24 17.076 390.6 17.034 390.908 16.95C391.225 16.866 391.514 16.7633 391.776 16.642V17.734C391.524 17.8647 391.244 17.9627 390.936 18.028C390.637 18.1027 390.273 18.14 389.844 18.14ZM399.272 10.342C399.272 10.79 399.188 11.1773 399.02 11.504C398.852 11.8307 398.609 12.0967 398.292 12.302C397.984 12.5073 397.62 12.652 397.2 12.736V12.792C398.003 12.8853 398.6 13.1373 398.992 13.548C399.384 13.9587 399.58 14.4953 399.58 15.158C399.58 15.7367 399.445 16.2547 399.174 16.712C398.903 17.16 398.483 17.51 397.914 17.762C397.354 18.014 396.631 18.14 395.744 18.14C395.221 18.14 394.736 18.098 394.288 18.014C393.84 17.9393 393.411 17.7993 393 17.594V16.446C393.42 16.6513 393.873 16.8147 394.358 16.936C394.843 17.048 395.31 17.104 395.758 17.104C396.654 17.104 397.298 16.9313 397.69 16.586C398.091 16.2313 398.292 15.746 398.292 15.13C398.292 14.71 398.18 14.374 397.956 14.122C397.741 13.8607 397.424 13.6693 397.004 13.548C396.584 13.4267 396.08 13.366 395.492 13.366H394.526V12.316H395.506C396.057 12.316 396.514 12.2367 396.878 12.078C397.251 11.9193 397.531 11.7 397.718 11.42C397.914 11.1307 398.012 10.7993 398.012 10.426C398.012 9.94067 397.849 9.56733 397.522 9.306C397.195 9.03533 396.752 8.9 396.192 8.9C395.837 8.9 395.515 8.93733 395.226 9.012C394.937 9.07733 394.666 9.17533 394.414 9.306C394.171 9.42733 393.924 9.572 393.672 9.74L393.056 8.9C393.299 8.71333 393.574 8.54067 393.882 8.382C394.199 8.22333 394.549 8.09733 394.932 8.004C395.315 7.91067 395.73 7.864 396.178 7.864C397.223 7.864 397.998 8.09733 398.502 8.564C399.015 9.03067 399.272 9.62333 399.272 10.342ZM404.232 11.868C404.913 11.868 405.506 11.9847 406.01 12.218C406.514 12.4513 406.901 12.7873 407.172 13.226C407.452 13.6553 407.592 14.1827 407.592 14.808C407.592 15.4987 407.443 16.096 407.144 16.6C406.845 17.0947 406.416 17.4773 405.856 17.748C405.305 18.0093 404.638 18.14 403.854 18.14C403.341 18.14 402.855 18.0933 402.398 18C401.95 17.9067 401.572 17.7713 401.264 17.594V16.432C401.6 16.6373 402.006 16.8007 402.482 16.922C402.967 17.034 403.429 17.09 403.868 17.09C404.363 17.09 404.792 17.0153 405.156 16.866C405.529 16.7073 405.819 16.4693 406.024 16.152C406.229 15.8253 406.332 15.4193 406.332 14.934C406.332 14.2807 406.131 13.7813 405.73 13.436C405.329 13.0813 404.694 12.904 403.826 12.904C403.565 12.904 403.266 12.9273 402.93 12.974C402.594 13.0207 402.323 13.0673 402.118 13.114L401.502 12.722L401.88 8.004H406.892V9.124H402.93L402.692 12.022C402.851 11.994 403.065 11.9613 403.336 11.924C403.607 11.8867 403.905 11.868 404.232 11.868ZM412.244 11.868C412.925 11.868 413.518 11.9847 414.022 12.218C414.526 12.4513 414.913 12.7873 415.184 13.226C415.464 13.6553 415.604 14.1827 415.604 14.808C415.604 15.4987 415.454 16.096 415.156 16.6C414.857 17.0947 414.428 17.4773 413.868 17.748C413.317 18.0093 412.65 18.14 411.866 18.14C411.352 18.14 410.867 18.0933 410.41 18C409.962 17.9067 409.584 17.7713 409.276 17.594V16.432C409.612 16.6373 410.018 16.8007 410.494 16.922C410.979 17.034 411.441 17.09 411.88 17.09C412.374 17.09 412.804 17.0153 413.168 16.866C413.541 16.7073 413.83 16.4693 414.036 16.152C414.241 15.8253 414.344 15.4193 414.344 14.934C414.344 14.2807 414.143 13.7813 413.742 13.436C413.34 13.0813 412.706 12.904 411.838 12.904C411.576 12.904 411.278 12.9273 410.942 12.974C410.606 13.0207 410.335 13.0673 410.13 13.114L409.514 12.722L409.892 8.004H414.904V9.124H410.942L410.704 12.022C410.862 11.994 411.077 11.9613 411.348 11.924C411.618 11.8867 411.917 11.868 412.244 11.868ZM424.133 15.732H422.677V18H421.487V15.732H416.699V14.682L421.403 7.948H422.677V14.626H424.133V15.732ZM421.487 11.476C421.487 11.2333 421.487 11.014 421.487 10.818C421.497 10.6127 421.506 10.4213 421.515 10.244C421.525 10.0667 421.529 9.89867 421.529 9.74C421.539 9.572 421.548 9.41333 421.557 9.264H421.501C421.427 9.44133 421.333 9.63267 421.221 9.838C421.109 10.0433 421.002 10.216 420.899 10.356L417.903 14.626H421.487V11.476ZM425.187 13.73C425.187 13.1513 425.224 12.582 425.299 12.022C425.383 11.462 425.523 10.9347 425.719 10.44C425.915 9.936 426.186 9.49267 426.531 9.11C426.876 8.718 427.31 8.41467 427.833 8.2C428.365 7.976 429.009 7.864 429.765 7.864C429.961 7.864 430.176 7.87333 430.409 7.892C430.652 7.91067 430.848 7.94333 430.997 7.99V9.04C430.829 8.984 430.638 8.942 430.423 8.914C430.218 8.886 430.008 8.872 429.793 8.872C429.149 8.872 428.612 8.97933 428.183 9.194C427.754 9.40867 427.413 9.70267 427.161 10.076C426.918 10.4493 426.741 10.8787 426.629 11.364C426.517 11.8493 426.447 12.3673 426.419 12.918H426.503C426.643 12.694 426.82 12.4933 427.035 12.316C427.25 12.1387 427.506 11.9987 427.805 11.896C428.113 11.7933 428.468 11.742 428.869 11.742C429.448 11.742 429.952 11.8633 430.381 12.106C430.82 12.3393 431.16 12.6847 431.403 13.142C431.646 13.59 431.767 14.136 431.767 14.78C431.767 15.4707 431.636 16.068 431.375 16.572C431.114 17.076 430.745 17.4633 430.269 17.734C429.802 18.0047 429.242 18.14 428.589 18.14C428.113 18.14 427.67 18.0513 427.259 17.874C426.848 17.6967 426.484 17.426 426.167 17.062C425.859 16.698 425.616 16.2407 425.439 15.69C425.271 15.13 425.187 14.4767 425.187 13.73ZM428.575 17.104C429.163 17.104 429.639 16.9173 430.003 16.544C430.367 16.1613 430.549 15.5733 430.549 14.78C430.549 14.1453 430.386 13.6413 430.059 13.268C429.742 12.8947 429.261 12.708 428.617 12.708C428.178 12.708 427.796 12.8013 427.469 12.988C427.142 13.1653 426.886 13.394 426.699 13.674C426.522 13.954 426.433 14.2433 426.433 14.542C426.433 14.85 426.475 15.1533 426.559 15.452C426.652 15.7507 426.788 16.026 426.965 16.278C427.152 16.53 427.376 16.7307 427.637 16.88C427.908 17.0293 428.22 17.104 428.575 17.104ZM439.709 18H433.101V16.978L435.719 14.332C436.223 13.828 436.647 13.38 436.993 12.988C437.338 12.596 437.599 12.2133 437.777 11.84C437.954 11.4573 438.043 11.042 438.043 10.594C438.043 10.0433 437.879 9.628 437.553 9.348C437.226 9.05867 436.801 8.914 436.279 8.914C435.793 8.914 435.364 8.998 434.991 9.166C434.627 9.334 434.253 9.56733 433.871 9.866L433.213 9.04C433.474 8.816 433.759 8.61533 434.067 8.438C434.384 8.26067 434.725 8.12067 435.089 8.018C435.462 7.91533 435.859 7.864 436.279 7.864C436.904 7.864 437.441 7.97133 437.889 8.186C438.337 8.40067 438.682 8.70867 438.925 9.11C439.177 9.502 439.303 9.97333 439.303 10.524C439.303 10.916 439.242 11.2893 439.121 11.644C438.999 11.9893 438.827 12.33 438.603 12.666C438.379 13.002 438.108 13.3427 437.791 13.688C437.473 14.0333 437.123 14.3927 436.741 14.766L434.655 16.824V16.88H439.709V18ZM441.21 13.73C441.21 13.1513 441.248 12.582 441.322 12.022C441.406 11.462 441.546 10.9347 441.742 10.44C441.938 9.936 442.209 9.49267 442.554 9.11C442.9 8.718 443.334 8.41467 443.856 8.2C444.388 7.976 445.032 7.864 445.788 7.864C445.984 7.864 446.199 7.87333 446.432 7.892C446.675 7.91067 446.871 7.94333 447.02 7.99V9.04C446.852 8.984 446.661 8.942 446.446 8.914C446.241 8.886 446.031 8.872 445.816 8.872C445.172 8.872 444.636 8.97933 444.206 9.194C443.777 9.40867 443.436 9.70267 443.184 10.076C442.942 10.4493 442.764 10.8787 442.652 11.364C442.54 11.8493 442.47 12.3673 442.442 12.918H442.526C442.666 12.694 442.844 12.4933 443.058 12.316C443.273 12.1387 443.53 11.9987 443.828 11.896C444.136 11.7933 444.491 11.742 444.892 11.742C445.471 11.742 445.975 11.8633 446.404 12.106C446.843 12.3393 447.184 12.6847 447.426 13.142C447.669 13.59 447.79 14.136 447.79 14.78C447.79 15.4707 447.66 16.068 447.398 16.572C447.137 17.076 446.768 17.4633 446.292 17.734C445.826 18.0047 445.266 18.14 444.612 18.14C444.136 18.14 443.693 18.0513 443.282 17.874C442.872 17.6967 442.508 17.426 442.19 17.062C441.882 16.698 441.64 16.2407 441.462 15.69C441.294 15.13 441.21 14.4767 441.21 13.73ZM444.598 17.104C445.186 17.104 445.662 16.9173 446.026 16.544C446.39 16.1613 446.572 15.5733 446.572 14.78C446.572 14.1453 446.409 13.6413 446.082 13.268C445.765 12.8947 445.284 12.708 444.64 12.708C444.202 12.708 443.819 12.8013 443.492 12.988C443.166 13.1653 442.909 13.394 442.722 13.674C442.545 13.954 442.456 14.2433 442.456 14.542C442.456 14.85 442.498 15.1533 442.582 15.452C442.676 15.7507 442.811 16.026 442.988 16.278C443.175 16.53 443.399 16.7307 443.66 16.88C443.931 17.0293 444.244 17.104 444.598 17.104ZM455.354 10.342C455.354 10.79 455.27 11.1773 455.102 11.504C454.934 11.8307 454.691 12.0967 454.374 12.302C454.066 12.5073 453.702 12.652 453.282 12.736V12.792C454.085 12.8853 454.682 13.1373 455.074 13.548C455.466 13.9587 455.662 14.4953 455.662 15.158C455.662 15.7367 455.527 16.2547 455.256 16.712C454.985 17.16 454.565 17.51 453.996 17.762C453.436 18.014 452.713 18.14 451.826 18.14C451.303 18.14 450.818 18.098 450.37 18.014C449.922 17.9393 449.493 17.7993 449.082 17.594V16.446C449.502 16.6513 449.955 16.8147 450.44 16.936C450.925 17.048 451.392 17.104 451.84 17.104C452.736 17.104 453.38 16.9313 453.772 16.586C454.173 16.2313 454.374 15.746 454.374 15.13C454.374 14.71 454.262 14.374 454.038 14.122C453.823 13.8607 453.506 13.6693 453.086 13.548C452.666 13.4267 452.162 13.366 451.574 13.366H450.608V12.316H451.588C452.139 12.316 452.596 12.2367 452.96 12.078C453.333 11.9193 453.613 11.7 453.8 11.42C453.996 11.1307 454.094 10.7993 454.094 10.426C454.094 9.94067 453.931 9.56733 453.604 9.306C453.277 9.03533 452.834 8.9 452.274 8.9C451.919 8.9 451.597 8.93733 451.308 9.012C451.019 9.07733 450.748 9.17533 450.496 9.306C450.253 9.42733 450.006 9.572 449.754 9.74L449.138 8.9C449.381 8.71333 449.656 8.54067 449.964 8.382C450.281 8.22333 450.631 8.09733 451.014 8.004C451.397 7.91067 451.812 7.864 452.26 7.864C453.305 7.864 454.08 8.09733 454.584 8.564C455.097 9.03067 455.354 9.62333 455.354 10.342ZM461.112 11.448H459.222V18H457.99V11.448H456.674V10.874L457.99 10.454V10.02C457.99 9.376 458.083 8.85333 458.27 8.452C458.466 8.05067 458.746 7.75667 459.11 7.57C459.474 7.38333 459.913 7.29 460.426 7.29C460.725 7.29 460.995 7.318 461.238 7.374C461.49 7.42067 461.705 7.47667 461.882 7.542L461.56 8.508C461.411 8.46133 461.238 8.41467 461.042 8.368C460.846 8.32133 460.645 8.298 460.44 8.298C460.029 8.298 459.721 8.438 459.516 8.718C459.32 8.98867 459.222 9.418 459.222 10.006V10.496H461.112V11.448ZM468.598 12.988C468.598 13.8 468.538 14.5233 468.416 15.158C468.295 15.7927 468.099 16.334 467.828 16.782C467.567 17.2207 467.222 17.5567 466.792 17.79C466.372 18.0233 465.864 18.14 465.266 18.14C464.52 18.14 463.899 17.9347 463.404 17.524C462.919 17.1133 462.555 16.5253 462.312 15.76C462.079 14.9853 461.962 14.0613 461.962 12.988C461.962 11.9053 462.07 10.9813 462.284 10.216C462.508 9.45067 462.863 8.86733 463.348 8.466C463.834 8.05533 464.473 7.85 465.266 7.85C466.013 7.85 466.634 8.05533 467.128 8.466C467.623 8.86733 467.992 9.45067 468.234 10.216C468.477 10.9813 468.598 11.9053 468.598 12.988ZM463.194 12.988C463.194 13.9027 463.26 14.6633 463.39 15.27C463.53 15.8767 463.75 16.334 464.048 16.642C464.356 16.9407 464.762 17.09 465.266 17.09C465.77 17.09 466.172 16.9407 466.47 16.642C466.778 16.3433 467.002 15.8907 467.142 15.284C467.282 14.668 467.352 13.9027 467.352 12.988C467.352 12.0733 467.282 11.3173 467.142 10.72C467.002 10.1133 466.778 9.66067 466.47 9.362C466.172 9.054 465.77 8.9 465.266 8.9C464.762 8.9 464.356 9.054 464.048 9.362C463.75 9.66067 463.53 10.1133 463.39 10.72C463.26 11.3173 463.194 12.0733 463.194 12.988ZM470.058 13.73C470.058 13.1513 470.095 12.582 470.17 12.022C470.254 11.462 470.394 10.9347 470.59 10.44C470.786 9.936 471.057 9.49267 471.402 9.11C471.747 8.718 472.181 8.41467 472.704 8.2C473.236 7.976 473.88 7.864 474.636 7.864C474.832 7.864 475.047 7.87333 475.28 7.892C475.523 7.91067 475.719 7.94333 475.868 7.99V9.04C475.7 8.984 475.509 8.942 475.294 8.914C475.089 8.886 474.879 8.872 474.664 8.872C474.02 8.872 473.483 8.97933 473.054 9.194C472.625 9.40867 472.284 9.70267 472.032 10.076C471.789 10.4493 471.612 10.8787 471.5 11.364C471.388 11.8493 471.318 12.3673 471.29 12.918H471.374C471.514 12.694 471.691 12.4933 471.906 12.316C472.121 12.1387 472.377 11.9987 472.676 11.896C472.984 11.7933 473.339 11.742 473.74 11.742C474.319 11.742 474.823 11.8633 475.252 12.106C475.691 12.3393 476.031 12.6847 476.274 13.142C476.517 13.59 476.638 14.136 476.638 14.78C476.638 15.4707 476.507 16.068 476.246 16.572C475.985 17.076 475.616 17.4633 475.14 17.734C474.673 18.0047 474.113 18.14 473.46 18.14C472.984 18.14 472.541 18.0513 472.13 17.874C471.719 17.6967 471.355 17.426 471.038 17.062C470.73 16.698 470.487 16.2407 470.31 15.69C470.142 15.13 470.058 14.4767 470.058 13.73ZM473.446 17.104C474.034 17.104 474.51 16.9173 474.874 16.544C475.238 16.1613 475.42 15.5733 475.42 14.78C475.42 14.1453 475.257 13.6413 474.93 13.268C474.613 12.8947 474.132 12.708 473.488 12.708C473.049 12.708 472.667 12.8013 472.34 12.988C472.013 13.1653 471.757 13.394 471.57 13.674C471.393 13.954 471.304 14.2433 471.304 14.542C471.304 14.85 471.346 15.1533 471.43 15.452C471.523 15.7507 471.659 16.026 471.836 16.278C472.023 16.53 472.247 16.7307 472.508 16.88C472.779 17.0293 473.091 17.104 473.446 17.104ZM484.93 18L483.726 14.906H479.764L478.574 18H477.3L481.206 7.962H482.34L486.232 18H484.93ZM482.228 10.762C482.2 10.6873 482.153 10.552 482.088 10.356C482.022 10.16 481.957 9.95933 481.892 9.754C481.836 9.53933 481.789 9.376 481.752 9.264C481.705 9.45067 481.654 9.642 481.598 9.838C481.551 10.0247 481.5 10.1973 481.444 10.356C481.397 10.5147 481.355 10.65 481.318 10.762L480.184 13.786H483.348L482.228 10.762ZM493.521 18H486.913V16.978L489.531 14.332C490.035 13.828 490.46 13.38 490.805 12.988C491.151 12.596 491.412 12.2133 491.589 11.84C491.767 11.4573 491.855 11.042 491.855 10.594C491.855 10.0433 491.692 9.628 491.365 9.348C491.039 9.05867 490.614 8.914 490.091 8.914C489.606 8.914 489.177 8.998 488.803 9.166C488.439 9.334 488.066 9.56733 487.683 9.866L487.025 9.04C487.287 8.816 487.571 8.61533 487.879 8.438C488.197 8.26067 488.537 8.12067 488.901 8.018C489.275 7.91533 489.671 7.864 490.091 7.864C490.717 7.864 491.253 7.97133 491.701 8.186C492.149 8.40067 492.495 8.70867 492.737 9.11C492.989 9.502 493.115 9.97333 493.115 10.524C493.115 10.916 493.055 11.2893 492.933 11.644C492.812 11.9893 492.639 12.33 492.415 12.666C492.191 13.002 491.921 13.3427 491.603 13.688C491.286 14.0333 490.936 14.3927 490.553 14.766L488.467 16.824V16.88H493.521V18ZM499.223 18H498.019V11.014C498.019 10.7433 498.019 10.5147 498.019 10.328C498.028 10.1413 498.038 9.96867 498.047 9.81C498.056 9.642 498.066 9.46933 498.075 9.292C497.926 9.44133 497.79 9.56733 497.669 9.67C497.548 9.77267 497.394 9.90333 497.207 10.062L496.143 10.93L495.499 10.104L498.201 8.004H499.223V18ZM509.587 12.988C509.587 13.8 509.526 14.5233 509.405 15.158C509.283 15.7927 509.087 16.334 508.817 16.782C508.555 17.2207 508.21 17.5567 507.781 17.79C507.361 18.0233 506.852 18.14 506.255 18.14C505.508 18.14 504.887 17.9347 504.393 17.524C503.907 17.1133 503.543 16.5253 503.301 15.76C503.067 14.9853 502.951 14.0613 502.951 12.988C502.951 11.9053 503.058 10.9813 503.273 10.216C503.497 9.45067 503.851 8.86733 504.337 8.466C504.822 8.05533 505.461 7.85 506.255 7.85C507.001 7.85 507.622 8.05533 508.117 8.466C508.611 8.86733 508.98 9.45067 509.223 10.216C509.465 10.9813 509.587 11.9053 509.587 12.988ZM504.183 12.988C504.183 13.9027 504.248 14.6633 504.379 15.27C504.519 15.8767 504.738 16.334 505.037 16.642C505.345 16.9407 505.751 17.09 506.255 17.09C506.759 17.09 507.16 16.9407 507.459 16.642C507.767 16.3433 507.991 15.8907 508.131 15.284C508.271 14.668 508.341 13.9027 508.341 12.988C508.341 12.0733 508.271 11.3173 508.131 10.72C507.991 10.1133 507.767 9.66067 507.459 9.362C507.16 9.054 506.759 8.9 506.255 8.9C505.751 8.9 505.345 9.054 505.037 9.362C504.738 9.66067 504.519 10.1133 504.379 10.72C504.248 11.3173 504.183 12.0733 504.183 12.988ZM514.308 10.37C515.223 10.37 515.9 10.5707 516.338 10.972C516.777 11.3733 516.996 12.0127 516.996 12.89V18H516.1L515.862 16.936H515.806C515.592 17.2067 515.368 17.4353 515.134 17.622C514.91 17.7993 514.649 17.93 514.35 18.014C514.061 18.098 513.706 18.14 513.286 18.14C512.838 18.14 512.432 18.0607 512.068 17.902C511.714 17.7433 511.434 17.5007 511.228 17.174C511.023 16.838 510.92 16.418 510.92 15.914C510.92 15.1673 511.214 14.5933 511.802 14.192C512.39 13.7813 513.296 13.5573 514.518 13.52L515.792 13.478V13.03C515.792 12.4047 515.657 11.9707 515.386 11.728C515.116 11.4853 514.733 11.364 514.238 11.364C513.846 11.364 513.473 11.4247 513.118 11.546C512.764 11.658 512.432 11.7887 512.124 11.938L511.746 11.014C512.073 10.8367 512.46 10.6873 512.908 10.566C513.356 10.4353 513.823 10.37 514.308 10.37ZM514.672 14.374C513.739 14.4113 513.09 14.5607 512.726 14.822C512.372 15.0833 512.194 15.452 512.194 15.928C512.194 16.348 512.32 16.656 512.572 16.852C512.834 17.048 513.165 17.146 513.566 17.146C514.201 17.146 514.728 16.9733 515.148 16.628C515.568 16.2733 515.778 15.732 515.778 15.004V14.332L514.672 14.374ZM527.49 12.904C527.49 14.024 527.28 14.962 526.86 15.718C526.449 16.474 525.857 17.0433 525.082 17.426C524.307 17.8087 523.369 18 522.268 18H519.482V8.004H522.562C523.57 8.004 524.443 8.19067 525.18 8.564C525.917 8.93733 526.487 9.488 526.888 10.216C527.289 10.9347 527.49 11.8307 527.49 12.904ZM526.16 12.946C526.16 12.0593 526.011 11.3313 525.712 10.762C525.423 10.1927 524.993 9.77267 524.424 9.502C523.864 9.222 523.183 9.082 522.38 9.082H520.742V16.922H522.1C523.453 16.922 524.466 16.5907 525.138 15.928C525.819 15.256 526.16 14.262 526.16 12.946ZM536.079 15.732H534.623V18H533.433V15.732H528.645V14.682L533.349 7.948H534.623V14.626H536.079V15.732ZM533.433 11.476C533.433 11.2333 533.433 11.014 533.433 10.818C533.442 10.6127 533.451 10.4213 533.461 10.244C533.47 10.0667 533.475 9.89867 533.475 9.74C533.484 9.572 533.493 9.41333 533.503 9.264H533.447C533.372 9.44133 533.279 9.63267 533.167 9.838C533.055 10.0433 532.947 10.216 532.845 10.356L529.849 14.626H533.433V11.476ZM543.642 18H537.034V16.978L539.652 14.332C540.156 13.828 540.581 13.38 540.926 12.988C541.272 12.596 541.533 12.2133 541.71 11.84C541.888 11.4573 541.976 11.042 541.976 10.594C541.976 10.0433 541.813 9.628 541.486 9.348C541.16 9.05867 540.735 8.914 540.212 8.914C539.727 8.914 539.298 8.998 538.924 9.166C538.56 9.334 538.187 9.56733 537.804 9.866L537.146 9.04C537.408 8.816 537.692 8.61533 538 8.438C538.318 8.26067 538.658 8.12067 539.022 8.018C539.396 7.91533 539.792 7.864 540.212 7.864C540.838 7.864 541.374 7.97133 541.822 8.186C542.27 8.40067 542.616 8.70867 542.858 9.11C543.11 9.502 543.236 9.97333 543.236 10.524C543.236 10.916 543.176 11.2893 543.054 11.644C542.933 11.9893 542.76 12.33 542.536 12.666C542.312 13.002 542.042 13.3427 541.724 13.688C541.407 14.0333 541.057 14.3927 540.674 14.766L538.588 16.824V16.88H543.642V18ZM551.276 10.342C551.276 10.79 551.192 11.1773 551.024 11.504C550.856 11.8307 550.613 12.0967 550.296 12.302C549.988 12.5073 549.624 12.652 549.204 12.736V12.792C550.007 12.8853 550.604 13.1373 550.996 13.548C551.388 13.9587 551.584 14.4953 551.584 15.158C551.584 15.7367 551.449 16.2547 551.178 16.712C550.907 17.16 550.487 17.51 549.918 17.762C549.358 18.014 548.635 18.14 547.748 18.14C547.225 18.14 546.74 18.098 546.292 18.014C545.844 17.9393 545.415 17.7993 545.004 17.594V16.446C545.424 16.6513 545.877 16.8147 546.362 16.936C546.847 17.048 547.314 17.104 547.762 17.104C548.658 17.104 549.302 16.9313 549.694 16.586C550.095 16.2313 550.296 15.746 550.296 15.13C550.296 14.71 550.184 14.374 549.96 14.122C549.745 13.8607 549.428 13.6693 549.008 13.548C548.588 13.4267 548.084 13.366 547.496 13.366H546.53V12.316H547.51C548.061 12.316 548.518 12.2367 548.882 12.078C549.255 11.9193 549.535 11.7 549.722 11.42C549.918 11.1307 550.016 10.7993 550.016 10.426C550.016 9.94067 549.853 9.56733 549.526 9.306C549.199 9.03533 548.756 8.9 548.196 8.9C547.841 8.9 547.519 8.93733 547.23 9.012C546.941 9.07733 546.67 9.17533 546.418 9.306C546.175 9.42733 545.928 9.572 545.676 9.74L545.06 8.9C545.303 8.71333 545.578 8.54067 545.886 8.382C546.203 8.22333 546.553 8.09733 546.936 8.004C547.319 7.91067 547.734 7.864 548.182 7.864C549.227 7.864 550.002 8.09733 550.506 8.564C551.019 9.03067 551.276 9.62333 551.276 10.342ZM553.156 13.73C553.156 13.1513 553.193 12.582 553.268 12.022C553.352 11.462 553.492 10.9347 553.688 10.44C553.884 9.936 554.154 9.49267 554.5 9.11C554.845 8.718 555.279 8.41467 555.802 8.2C556.334 7.976 556.978 7.864 557.734 7.864C557.93 7.864 558.144 7.87333 558.378 7.892C558.62 7.91067 558.816 7.94333 558.966 7.99V9.04C558.798 8.984 558.606 8.942 558.392 8.914C558.186 8.886 557.976 8.872 557.762 8.872C557.118 8.872 556.581 8.97933 556.152 9.194C555.722 9.40867 555.382 9.70267 555.13 10.076C554.887 10.4493 554.71 10.8787 554.598 11.364C554.486 11.8493 554.416 12.3673 554.388 12.918H554.472C554.612 12.694 554.789 12.4933 555.004 12.316C555.218 12.1387 555.475 11.9987 555.774 11.896C556.082 11.7933 556.436 11.742 556.838 11.742C557.416 11.742 557.92 11.8633 558.35 12.106C558.788 12.3393 559.129 12.6847 559.372 13.142C559.614 13.59 559.736 14.136 559.736 14.78C559.736 15.4707 559.605 16.068 559.344 16.572C559.082 17.076 558.714 17.4633 558.238 17.734C557.771 18.0047 557.211 18.14 556.558 18.14C556.082 18.14 555.638 18.0513 555.228 17.874C554.817 17.6967 554.453 17.426 554.136 17.062C553.828 16.698 553.585 16.2407 553.408 15.69C553.24 15.13 553.156 14.4767 553.156 13.73ZM556.544 17.104C557.132 17.104 557.608 16.9173 557.972 16.544C558.336 16.1613 558.518 15.5733 558.518 14.78C558.518 14.1453 558.354 13.6413 558.028 13.268C557.71 12.8947 557.23 12.708 556.586 12.708C556.147 12.708 555.764 12.8013 555.438 12.988C555.111 13.1653 554.854 13.394 554.668 13.674C554.49 13.954 554.402 14.2433 554.402 14.542C554.402 14.85 554.444 15.1533 554.528 15.452C554.621 15.7507 554.756 16.026 554.934 16.278C555.12 16.53 555.344 16.7307 555.606 16.88C555.876 17.0293 556.189 17.104 556.544 17.104Z" fill="#555555"/>
</svg>
