<svg width="560" height="25" viewBox="0 0 560 25" fill="none" xmlns="http://www.w3.org/2000/svg">
<rect width="560" height="25" fill="#555555"/>
<rect x="205" width="355" height="25" fill="#7DA6FF"/>
<path d="M19.4673 18H18.2073V9.11H15.0853V8.004H22.5753V9.11H19.4673V18ZM25.8282 10.356C26.4722 10.356 27.0229 10.496 27.4802 10.776C27.9469 11.056 28.3016 11.4527 28.5442 11.966C28.7962 12.47 28.9222 13.0627 28.9222 13.744V14.486H23.7842C23.8029 15.3353 24.0176 15.984 24.4282 16.432C24.8482 16.8707 25.4316 17.09 26.1782 17.09C26.6542 17.09 27.0742 17.048 27.4382 16.964C27.8116 16.8707 28.1942 16.74 28.5862 16.572V17.65C28.2036 17.818 27.8256 17.9393 27.4522 18.014C27.0789 18.098 26.6356 18.14 26.1222 18.14C25.4129 18.14 24.7829 17.9953 24.2322 17.706C23.6909 17.4167 23.2662 16.9873 22.9582 16.418C22.6596 15.8393 22.5102 15.1347 22.5102 14.304C22.5102 13.4827 22.6456 12.778 22.9162 12.19C23.1962 11.602 23.5836 11.1493 24.0782 10.832C24.5822 10.5147 25.1656 10.356 25.8282 10.356ZM25.8142 11.364C25.2262 11.364 24.7596 11.5553 24.4142 11.938C24.0782 12.3113 23.8776 12.834 23.8122 13.506H27.6342C27.6342 13.0767 27.5689 12.7033 27.4382 12.386C27.3076 12.0687 27.1069 11.8213 26.8362 11.644C26.5749 11.4573 26.2342 11.364 25.8142 11.364ZM33.3386 17.132C33.5252 17.132 33.7166 17.118 33.9126 17.09C34.1086 17.0527 34.2672 17.0153 34.3886 16.978V17.916C34.2579 17.9813 34.0712 18.0327 33.8286 18.07C33.5859 18.1167 33.3526 18.14 33.1286 18.14C32.7366 18.14 32.3726 18.0747 32.0366 17.944C31.7099 17.804 31.4439 17.566 31.2386 17.23C31.0332 16.894 30.9306 16.4227 30.9306 15.816V11.448H29.8666V10.86L30.9446 10.37L31.4346 8.774H32.1626V10.496H34.3326V11.448H32.1626V15.788C32.1626 16.2453 32.2699 16.586 32.4846 16.81C32.7086 17.0247 32.9932 17.132 33.3386 17.132ZM37.1232 10.482C37.1232 10.6593 37.1138 10.8413 37.0952 11.028C37.0858 11.2147 37.0718 11.3827 37.0532 11.532H37.1372C37.2958 11.2707 37.4965 11.056 37.7392 10.888C37.9818 10.72 38.2525 10.594 38.5512 10.51C38.8498 10.4167 39.1578 10.37 39.4752 10.37C40.0818 10.37 40.5858 10.468 40.9872 10.664C41.3978 10.8507 41.7058 11.1447 41.9112 11.546C42.1165 11.9473 42.2192 12.47 42.2192 13.114V18H41.0012V13.198C41.0012 12.5913 40.8658 12.1387 40.5952 11.84C40.3245 11.5413 39.8998 11.392 39.3212 11.392C38.7612 11.392 38.3225 11.4993 38.0052 11.714C37.6878 11.9193 37.4592 12.2273 37.3192 12.638C37.1885 13.0393 37.1232 13.534 37.1232 14.122V18H35.8912V7.36H37.1232V10.482ZM47.4435 10.356C48.0875 10.356 48.6381 10.496 49.0955 10.776C49.5621 11.056 49.9168 11.4527 50.1595 11.966C50.4115 12.47 50.5375 13.0627 50.5375 13.744V14.486H45.3995C45.4181 15.3353 45.6328 15.984 46.0435 16.432C46.4635 16.8707 47.0468 17.09 47.7935 17.09C48.2695 17.09 48.6895 17.048 49.0535 16.964C49.4268 16.8707 49.8095 16.74 50.2015 16.572V17.65C49.8188 17.818 49.4408 17.9393 49.0675 18.014C48.6941 18.098 48.2508 18.14 47.7375 18.14C47.0281 18.14 46.3981 17.9953 45.8475 17.706C45.3061 17.4167 44.8815 16.9873 44.5735 16.418C44.2748 15.8393 44.1255 15.1347 44.1255 14.304C44.1255 13.4827 44.2608 12.778 44.5315 12.19C44.8115 11.602 45.1988 11.1493 45.6935 10.832C46.1975 10.5147 46.7808 10.356 47.4435 10.356ZM47.4295 11.364C46.8415 11.364 46.3748 11.5553 46.0295 11.938C45.6935 12.3113 45.4928 12.834 45.4275 13.506H49.2495C49.2495 13.0767 49.1841 12.7033 49.0535 12.386C48.9228 12.0687 48.7221 11.8213 48.4515 11.644C48.1901 11.4573 47.8495 11.364 47.4295 11.364ZM55.9478 10.356C56.0878 10.356 56.2371 10.3653 56.3958 10.384C56.5638 10.3933 56.7085 10.412 56.8298 10.44L56.6758 11.574C56.5545 11.546 56.4191 11.5227 56.2698 11.504C56.1298 11.4853 55.9945 11.476 55.8638 11.476C55.5745 11.476 55.2991 11.5367 55.0378 11.658C54.7765 11.7793 54.5431 11.952 54.3378 12.176C54.1325 12.3907 53.9691 12.652 53.8478 12.96C53.7358 13.268 53.6798 13.6133 53.6798 13.996V18H52.4478V10.496H53.4558L53.5958 11.868H53.6518C53.8105 11.588 54.0018 11.336 54.2258 11.112C54.4498 10.8787 54.7065 10.6967 54.9958 10.566C55.2851 10.426 55.6025 10.356 55.9478 10.356ZM69.6377 14.472C69.6377 15.1627 69.4977 15.788 69.2177 16.348C68.9377 16.8987 68.5084 17.3373 67.9297 17.664C67.3604 17.9813 66.6324 18.14 65.7457 18.14C64.5044 18.14 63.5571 17.804 62.9037 17.132C62.2597 16.4507 61.9377 15.5547 61.9377 14.444V8.004H63.1977V14.486C63.1977 15.298 63.4124 15.928 63.8417 16.376C64.2804 16.824 64.9384 17.048 65.8157 17.048C66.4224 17.048 66.9124 16.9407 67.2857 16.726C67.6684 16.502 67.9484 16.1987 68.1257 15.816C68.3031 15.424 68.3917 14.976 68.3917 14.472V8.004H69.6377V14.472ZM77.946 15.326C77.946 15.9233 77.8013 16.432 77.512 16.852C77.2226 17.2627 76.8073 17.58 76.266 17.804C75.734 18.028 75.104 18.14 74.376 18.14C74.0026 18.14 73.6433 18.1213 73.298 18.084C72.962 18.0467 72.654 17.9953 72.374 17.93C72.094 17.8553 71.8466 17.7667 71.632 17.664V16.46C71.968 16.6093 72.3833 16.7447 72.878 16.866C73.382 16.9873 73.9 17.048 74.432 17.048C74.9266 17.048 75.342 16.9827 75.678 16.852C76.014 16.7213 76.266 16.5347 76.434 16.292C76.602 16.0493 76.686 15.7647 76.686 15.438C76.686 15.1113 76.616 14.836 76.476 14.612C76.336 14.388 76.0933 14.1827 75.748 13.996C75.412 13.8 74.9406 13.5947 74.334 13.38C73.9046 13.2213 73.5266 13.0533 73.2 12.876C72.8826 12.6893 72.6166 12.4793 72.402 12.246C72.1873 12.0127 72.024 11.7467 71.912 11.448C71.8093 11.1493 71.758 10.804 71.758 10.412C71.758 9.88 71.8933 9.42733 72.164 9.054C72.4346 8.67133 72.808 8.37733 73.284 8.172C73.7693 7.96667 74.3246 7.864 74.95 7.864C75.5006 7.864 76.0046 7.91533 76.462 8.018C76.9193 8.12067 77.3346 8.256 77.708 8.424L77.316 9.502C76.9706 9.35267 76.5926 9.22667 76.182 9.124C75.7806 9.02133 75.3606 8.97 74.922 8.97C74.502 8.97 74.152 9.03067 73.872 9.152C73.592 9.27333 73.382 9.446 73.242 9.67C73.102 9.88467 73.032 10.1367 73.032 10.426C73.032 10.762 73.102 11.042 73.242 11.266C73.382 11.49 73.6106 11.6907 73.928 11.868C74.2453 12.0453 74.6746 12.2367 75.216 12.442C75.804 12.6567 76.2986 12.89 76.7 13.142C77.1106 13.3847 77.4186 13.6787 77.624 14.024C77.8386 14.3693 77.946 14.8033 77.946 15.326ZM87.9676 12.904C87.9676 14.024 87.7576 14.962 87.3376 15.718C86.9269 16.474 86.3342 17.0433 85.5596 17.426C84.7849 17.8087 83.8469 18 82.7456 18H79.9596V8.004H83.0396C84.0476 8.004 84.9202 8.19067 85.6576 8.564C86.3949 8.93733 86.9642 9.488 87.3656 10.216C87.7669 10.9347 87.9676 11.8307 87.9676 12.904ZM86.6376 12.946C86.6376 12.0593 86.4882 11.3313 86.1896 10.762C85.9002 10.1927 85.4709 9.77267 84.9016 9.502C84.3416 9.222 83.6602 9.082 82.8576 9.082H81.2196V16.922H82.5776C83.9309 16.922 84.9436 16.5907 85.6156 15.928C86.2969 15.256 86.6376 14.262 86.6376 12.946ZM92.9263 18H91.6663V9.11H88.5443V8.004H96.0343V9.11H92.9263V18ZM100.38 14.164C100.38 13.3987 100.45 12.652 100.59 11.924C100.74 11.196 100.968 10.5007 101.276 9.838C101.584 9.17533 101.972 8.564 102.438 8.004H103.6C103.171 8.58267 102.807 9.208 102.508 9.88C102.219 10.552 102 11.2473 101.85 11.966C101.701 12.6847 101.626 13.4127 101.626 14.15C101.626 14.8687 101.701 15.5827 101.85 16.292C102 17.0013 102.219 17.6827 102.508 18.336C102.798 18.9987 103.157 19.624 103.586 20.212H102.438C101.972 19.6613 101.584 19.0593 101.276 18.406C100.968 17.762 100.74 17.0807 100.59 16.362C100.45 15.6433 100.38 14.9107 100.38 14.164ZM114.598 18H109.012V8.004H114.598V9.11H110.272V12.232H114.346V13.324H110.272V16.894H114.598V18ZM119.956 18H118.696V9.11H115.574V8.004H123.064V9.11H119.956V18ZM132.215 18H130.955V13.338H125.831V18H124.571V8.004H125.831V12.232H130.955V8.004H132.215V18ZM144.171 18H138.585V8.004H144.171V9.11H139.845V12.232H143.919V13.324H139.845V16.894H144.171V18ZM149.122 8.004C149.953 8.004 150.634 8.11133 151.166 8.326C151.707 8.53133 152.109 8.844 152.37 9.264C152.631 9.684 152.762 10.2113 152.762 10.846C152.762 11.378 152.664 11.8213 152.468 12.176C152.272 12.5307 152.02 12.8153 151.712 13.03C151.413 13.2353 151.096 13.3987 150.76 13.52L153.504 18H152.034L149.612 13.87H147.624V18H146.364V8.004H149.122ZM149.052 9.096H147.624V12.806H149.122C149.663 12.806 150.107 12.736 150.452 12.596C150.797 12.4467 151.049 12.232 151.208 11.952C151.376 11.672 151.46 11.322 151.46 10.902C151.46 10.4633 151.371 10.1133 151.194 9.852C151.026 9.59067 150.765 9.39933 150.41 9.278C150.055 9.15667 149.603 9.096 149.052 9.096ZM159.357 8.97C158.825 8.97 158.344 9.06333 157.915 9.25C157.486 9.42733 157.122 9.69333 156.823 10.048C156.524 10.3933 156.296 10.818 156.137 11.322C155.978 11.8167 155.899 12.3767 155.899 13.002C155.899 13.8233 156.025 14.5373 156.277 15.144C156.538 15.7507 156.921 16.2173 157.425 16.544C157.938 16.8707 158.578 17.034 159.343 17.034C159.782 17.034 160.197 16.9967 160.589 16.922C160.981 16.8473 161.364 16.754 161.737 16.642V17.734C161.364 17.874 160.976 17.9767 160.575 18.042C160.183 18.1073 159.712 18.14 159.161 18.14C158.144 18.14 157.294 17.93 156.613 17.51C155.932 17.09 155.418 16.4927 155.073 15.718C154.737 14.9433 154.569 14.0333 154.569 12.988C154.569 12.232 154.672 11.5413 154.877 10.916C155.092 10.2907 155.4 9.74933 155.801 9.292C156.212 8.83467 156.716 8.48467 157.313 8.242C157.91 7.99 158.596 7.864 159.371 7.864C159.884 7.864 160.379 7.91533 160.855 8.018C161.331 8.12067 161.756 8.26533 162.129 8.452L161.625 9.516C161.317 9.376 160.972 9.25 160.589 9.138C160.216 9.026 159.805 8.97 159.357 8.97ZM173.477 18H166.869V16.978L169.487 14.332C169.991 13.828 170.416 13.38 170.761 12.988C171.107 12.596 171.368 12.2133 171.545 11.84C171.723 11.4573 171.811 11.042 171.811 10.594C171.811 10.0433 171.648 9.628 171.321 9.348C170.995 9.05867 170.57 8.914 170.047 8.914C169.562 8.914 169.133 8.998 168.759 9.166C168.395 9.334 168.022 9.56733 167.639 9.866L166.981 9.04C167.243 8.816 167.527 8.61533 167.835 8.438C168.153 8.26067 168.493 8.12067 168.857 8.018C169.231 7.91533 169.627 7.864 170.047 7.864C170.673 7.864 171.209 7.97133 171.657 8.186C172.105 8.40067 172.451 8.70867 172.693 9.11C172.945 9.502 173.071 9.97333 173.071 10.524C173.071 10.916 173.011 11.2893 172.889 11.644C172.768 11.9893 172.595 12.33 172.371 12.666C172.147 13.002 171.877 13.3427 171.559 13.688C171.242 14.0333 170.892 14.3927 170.509 14.766L168.423 16.824V16.88H173.477V18ZM181.531 12.988C181.531 13.8 181.47 14.5233 181.349 15.158C181.228 15.7927 181.032 16.334 180.761 16.782C180.5 17.2207 180.154 17.5567 179.725 17.79C179.305 18.0233 178.796 18.14 178.199 18.14C177.452 18.14 176.832 17.9347 176.337 17.524C175.852 17.1133 175.488 16.5253 175.245 15.76C175.012 14.9853 174.895 14.0613 174.895 12.988C174.895 11.9053 175.002 10.9813 175.217 10.216C175.441 9.45067 175.796 8.86733 176.281 8.466C176.766 8.05533 177.406 7.85 178.199 7.85C178.946 7.85 179.566 8.05533 180.061 8.466C180.556 8.86733 180.924 9.45067 181.167 10.216C181.41 10.9813 181.531 11.9053 181.531 12.988ZM176.127 12.988C176.127 13.9027 176.192 14.6633 176.323 15.27C176.463 15.8767 176.682 16.334 176.981 16.642C177.289 16.9407 177.695 17.09 178.199 17.09C178.703 17.09 179.104 16.9407 179.403 16.642C179.711 16.3433 179.935 15.8907 180.075 15.284C180.215 14.668 180.285 13.9027 180.285 12.988C180.285 12.0733 180.215 11.3173 180.075 10.72C179.935 10.1133 179.711 9.66067 179.403 9.362C179.104 9.054 178.703 8.9 178.199 8.9C177.695 8.9 177.289 9.054 176.981 9.362C176.682 9.66067 176.463 10.1133 176.323 10.72C176.192 11.3173 176.127 12.0733 176.127 12.988ZM189.497 14.164C189.497 14.9107 189.423 15.6433 189.273 16.362C189.133 17.0807 188.909 17.762 188.601 18.406C188.303 19.0593 187.915 19.6613 187.439 20.212H186.291C186.721 19.624 187.08 18.9987 187.369 18.336C187.659 17.6827 187.878 17.0013 188.027 16.292C188.177 15.5827 188.251 14.8687 188.251 14.15C188.251 13.4127 188.177 12.6847 188.027 11.966C187.878 11.2473 187.659 10.552 187.369 9.88C187.08 9.208 186.716 8.58267 186.277 8.004H187.439C187.915 8.564 188.303 9.17533 188.601 9.838C188.909 10.5007 189.133 11.196 189.273 11.924C189.423 12.652 189.497 13.3987 189.497 14.164Z" fill="white"/>
<path d="M221.925 12.988C221.925 13.8 221.864 14.5233 221.743 15.158C221.621 15.7927 221.425 16.334 221.155 16.782C220.893 17.2207 220.548 17.5567 220.119 17.79C219.699 18.0233 219.19 18.14 218.593 18.14C217.846 18.14 217.225 17.9347 216.731 17.524C216.245 17.1133 215.881 16.5253 215.639 15.76C215.405 14.9853 215.289 14.0613 215.289 12.988C215.289 11.9053 215.396 10.9813 215.611 10.216C215.835 9.45067 216.189 8.86733 216.675 8.466C217.16 8.05533 217.799 7.85 218.593 7.85C219.339 7.85 219.96 8.05533 220.455 8.466C220.949 8.86733 221.318 9.45067 221.561 10.216C221.803 10.9813 221.925 11.9053 221.925 12.988ZM216.521 12.988C216.521 13.9027 216.586 14.6633 216.717 15.27C216.857 15.8767 217.076 16.334 217.375 16.642C217.683 16.9407 218.089 17.09 218.593 17.09C219.097 17.09 219.498 16.9407 219.797 16.642C220.105 16.3433 220.329 15.8907 220.469 15.284C220.609 14.668 220.679 13.9027 220.679 12.988C220.679 12.0733 220.609 11.3173 220.469 10.72C220.329 10.1133 220.105 9.66067 219.797 9.362C219.498 9.054 219.097 8.9 218.593 8.9C218.089 8.9 217.683 9.054 217.375 9.362C217.076 9.66067 216.857 10.1133 216.717 10.72C216.586 11.3173 216.521 12.0733 216.521 12.988ZM225.582 14.164L222.992 10.496H224.392L226.324 13.324L228.242 10.496H229.628L227.038 14.164L229.768 18H228.368L226.324 15.004L224.252 18H222.866L225.582 14.164ZM237.654 18L236.45 14.906H232.488L231.298 18H230.024L233.93 7.962H235.064L238.956 18H237.654ZM234.952 10.762C234.924 10.6873 234.878 10.552 234.812 10.356C234.747 10.16 234.682 9.95933 234.616 9.754C234.56 9.53933 234.514 9.376 234.476 9.264C234.43 9.45067 234.378 9.642 234.322 9.838C234.276 10.0247 234.224 10.1973 234.168 10.356C234.122 10.5147 234.08 10.65 234.042 10.762L232.908 13.786H236.072L234.952 10.762ZM239.736 13.73C239.736 13.1513 239.773 12.582 239.848 12.022C239.932 11.462 240.072 10.9347 240.268 10.44C240.464 9.936 240.734 9.49267 241.08 9.11C241.425 8.718 241.859 8.41467 242.382 8.2C242.914 7.976 243.558 7.864 244.314 7.864C244.51 7.864 244.724 7.87333 244.958 7.892C245.2 7.91067 245.396 7.94333 245.546 7.99V9.04C245.378 8.984 245.186 8.942 244.972 8.914C244.766 8.886 244.556 8.872 244.342 8.872C243.698 8.872 243.161 8.97933 242.732 9.194C242.302 9.40867 241.962 9.70267 241.71 10.076C241.467 10.4493 241.29 10.8787 241.178 11.364C241.066 11.8493 240.996 12.3673 240.968 12.918H241.052C241.192 12.694 241.369 12.4933 241.584 12.316C241.798 12.1387 242.055 11.9987 242.354 11.896C242.662 11.7933 243.016 11.742 243.418 11.742C243.996 11.742 244.5 11.8633 244.93 12.106C245.368 12.3393 245.709 12.6847 245.952 13.142C246.194 13.59 246.316 14.136 246.316 14.78C246.316 15.4707 246.185 16.068 245.924 16.572C245.662 17.076 245.294 17.4633 244.818 17.734C244.351 18.0047 243.791 18.14 243.138 18.14C242.662 18.14 242.218 18.0513 241.808 17.874C241.397 17.6967 241.033 17.426 240.716 17.062C240.408 16.698 240.165 16.2407 239.988 15.69C239.82 15.13 239.736 14.4767 239.736 13.73ZM243.124 17.104C243.712 17.104 244.188 16.9173 244.552 16.544C244.916 16.1613 245.098 15.5733 245.098 14.78C245.098 14.1453 244.934 13.6413 244.608 13.268C244.29 12.8947 243.81 12.708 243.166 12.708C242.727 12.708 242.344 12.8013 242.018 12.988C241.691 13.1653 241.434 13.394 241.248 13.674C241.07 13.954 240.982 14.2433 240.982 14.542C240.982 14.85 241.024 15.1533 241.108 15.452C241.201 15.7507 241.336 16.026 241.514 16.278C241.7 16.53 241.924 16.7307 242.186 16.88C242.456 17.0293 242.769 17.104 243.124 17.104ZM250.828 11.868C251.509 11.868 252.102 11.9847 252.606 12.218C253.11 12.4513 253.497 12.7873 253.768 13.226C254.048 13.6553 254.188 14.1827 254.188 14.808C254.188 15.4987 254.038 16.096 253.74 16.6C253.441 17.0947 253.012 17.4773 252.452 17.748C251.901 18.0093 251.234 18.14 250.45 18.14C249.936 18.14 249.451 18.0933 248.994 18C248.546 17.9067 248.168 17.7713 247.86 17.594V16.432C248.196 16.6373 248.602 16.8007 249.078 16.922C249.563 17.034 250.025 17.09 250.464 17.09C250.958 17.09 251.388 17.0153 251.752 16.866C252.125 16.7073 252.414 16.4693 252.62 16.152C252.825 15.8253 252.928 15.4193 252.928 14.934C252.928 14.2807 252.727 13.7813 252.326 13.436C251.924 13.0813 251.29 12.904 250.422 12.904C250.16 12.904 249.862 12.9273 249.526 12.974C249.19 13.0207 248.919 13.0673 248.714 13.114L248.098 12.722L248.476 8.004H253.488V9.124H249.526L249.288 12.022C249.446 11.994 249.661 11.9613 249.932 11.924C250.202 11.8867 250.501 11.868 250.828 11.868ZM259.959 18H258.755V11.014C258.755 10.7433 258.755 10.5147 258.755 10.328C258.765 10.1413 258.774 9.96867 258.783 9.81C258.793 9.642 258.802 9.46933 258.811 9.292C258.662 9.44133 258.527 9.56733 258.405 9.67C258.284 9.77267 258.13 9.90333 257.943 10.062L256.879 10.93L256.235 10.104L258.937 8.004H259.959V18ZM266.851 11.868C267.532 11.868 268.125 11.9847 268.629 12.218C269.133 12.4513 269.52 12.7873 269.791 13.226C270.071 13.6553 270.211 14.1827 270.211 14.808C270.211 15.4987 270.062 16.096 269.763 16.6C269.464 17.0947 269.035 17.4773 268.475 17.748C267.924 18.0093 267.257 18.14 266.473 18.14C265.96 18.14 265.474 18.0933 265.017 18C264.569 17.9067 264.191 17.7713 263.883 17.594V16.432C264.219 16.6373 264.625 16.8007 265.101 16.922C265.586 17.034 266.048 17.09 266.487 17.09C266.982 17.09 267.411 17.0153 267.775 16.866C268.148 16.7073 268.438 16.4693 268.643 16.152C268.848 15.8253 268.951 15.4193 268.951 14.934C268.951 14.2807 268.75 13.7813 268.349 13.436C267.948 13.0813 267.313 12.904 266.445 12.904C266.184 12.904 265.885 12.9273 265.549 12.974C265.213 13.0207 264.942 13.0673 264.737 13.114L264.121 12.722L264.499 8.004H269.511V9.124H265.549L265.311 12.022C265.47 11.994 265.684 11.9613 265.955 11.924C266.226 11.8867 266.524 11.868 266.851 11.868ZM278.335 12.988C278.335 13.8 278.274 14.5233 278.153 15.158C278.031 15.7927 277.835 16.334 277.565 16.782C277.303 17.2207 276.958 17.5567 276.529 17.79C276.109 18.0233 275.6 18.14 275.003 18.14C274.256 18.14 273.635 17.9347 273.141 17.524C272.655 17.1133 272.291 16.5253 272.049 15.76C271.815 14.9853 271.699 14.0613 271.699 12.988C271.699 11.9053 271.806 10.9813 272.021 10.216C272.245 9.45067 272.599 8.86733 273.085 8.466C273.57 8.05533 274.209 7.85 275.003 7.85C275.749 7.85 276.37 8.05533 276.865 8.466C277.359 8.86733 277.728 9.45067 277.971 10.216C278.213 10.9813 278.335 11.9053 278.335 12.988ZM272.931 12.988C272.931 13.9027 272.996 14.6633 273.127 15.27C273.267 15.8767 273.486 16.334 273.785 16.642C274.093 16.9407 274.499 17.09 275.003 17.09C275.507 17.09 275.908 16.9407 276.207 16.642C276.515 16.3433 276.739 15.8907 276.879 15.284C277.019 14.668 277.089 13.9027 277.089 12.988C277.089 12.0733 277.019 11.3173 276.879 10.72C276.739 10.1133 276.515 9.66067 276.207 9.362C275.908 9.054 275.507 8.9 275.003 8.9C274.499 8.9 274.093 9.054 273.785 9.362C273.486 9.66067 273.267 10.1133 273.127 10.72C272.996 11.3173 272.931 12.0733 272.931 12.988ZM279.794 13.73C279.794 13.1513 279.832 12.582 279.906 12.022C279.99 11.462 280.13 10.9347 280.326 10.44C280.522 9.936 280.793 9.49267 281.138 9.11C281.484 8.718 281.918 8.41467 282.44 8.2C282.972 7.976 283.616 7.864 284.372 7.864C284.568 7.864 284.783 7.87333 285.016 7.892C285.259 7.91067 285.455 7.94333 285.604 7.99V9.04C285.436 8.984 285.245 8.942 285.03 8.914C284.825 8.886 284.615 8.872 284.4 8.872C283.756 8.872 283.22 8.97933 282.79 9.194C282.361 9.40867 282.02 9.70267 281.768 10.076C281.526 10.4493 281.348 10.8787 281.236 11.364C281.124 11.8493 281.054 12.3673 281.026 12.918H281.11C281.25 12.694 281.428 12.4933 281.642 12.316C281.857 12.1387 282.114 11.9987 282.412 11.896C282.72 11.7933 283.075 11.742 283.476 11.742C284.055 11.742 284.559 11.8633 284.988 12.106C285.427 12.3393 285.768 12.6847 286.01 13.142C286.253 13.59 286.374 14.136 286.374 14.78C286.374 15.4707 286.244 16.068 285.982 16.572C285.721 17.076 285.352 17.4633 284.876 17.734C284.41 18.0047 283.85 18.14 283.196 18.14C282.72 18.14 282.277 18.0513 281.866 17.874C281.456 17.6967 281.092 17.426 280.774 17.062C280.466 16.698 280.224 16.2407 280.046 15.69C279.878 15.13 279.794 14.4767 279.794 13.73ZM283.182 17.104C283.77 17.104 284.246 16.9173 284.61 16.544C284.974 16.1613 285.156 15.5733 285.156 14.78C285.156 14.1453 284.993 13.6413 284.666 13.268C284.349 12.8947 283.868 12.708 283.224 12.708C282.786 12.708 282.403 12.8013 282.076 12.988C281.75 13.1653 281.493 13.394 281.306 13.674C281.129 13.954 281.04 14.2433 281.04 14.542C281.04 14.85 281.082 15.1533 281.166 15.452C281.26 15.7507 281.395 16.026 281.572 16.278C281.759 16.53 281.983 16.7307 282.244 16.88C282.515 17.0293 282.828 17.104 283.182 17.104ZM290.886 11.868C291.567 11.868 292.16 11.9847 292.664 12.218C293.168 12.4513 293.555 12.7873 293.826 13.226C294.106 13.6553 294.246 14.1827 294.246 14.808C294.246 15.4987 294.097 16.096 293.798 16.6C293.499 17.0947 293.07 17.4773 292.51 17.748C291.959 18.0093 291.292 18.14 290.508 18.14C289.995 18.14 289.509 18.0933 289.052 18C288.604 17.9067 288.226 17.7713 287.918 17.594V16.432C288.254 16.6373 288.66 16.8007 289.136 16.922C289.621 17.034 290.083 17.09 290.522 17.09C291.017 17.09 291.446 17.0153 291.81 16.866C292.183 16.7073 292.473 16.4693 292.678 16.152C292.883 15.8253 292.986 15.4193 292.986 14.934C292.986 14.2807 292.785 13.7813 292.384 13.436C291.983 13.0813 291.348 12.904 290.48 12.904C290.219 12.904 289.92 12.9273 289.584 12.974C289.248 13.0207 288.977 13.0673 288.772 13.114L288.156 12.722L288.534 8.004H293.546V9.124H289.584L289.346 12.022C289.505 11.994 289.719 11.9613 289.99 11.924C290.261 11.8867 290.559 11.868 290.886 11.868ZM299.038 7.864C299.626 7.864 300.144 7.95733 300.592 8.144C301.04 8.32133 301.39 8.58733 301.642 8.942C301.903 9.29667 302.034 9.73533 302.034 10.258C302.034 10.6593 301.945 11.0093 301.768 11.308C301.6 11.6067 301.371 11.8727 301.082 12.106C300.793 12.33 300.475 12.5307 300.13 12.708C300.541 12.904 300.914 13.128 301.25 13.38C301.586 13.6227 301.852 13.9073 302.048 14.234C302.253 14.5607 302.356 14.9527 302.356 15.41C302.356 15.97 302.221 16.4553 301.95 16.866C301.679 17.2673 301.297 17.58 300.802 17.804C300.317 18.028 299.743 18.14 299.08 18.14C298.361 18.14 297.75 18.0327 297.246 17.818C296.751 17.6033 296.373 17.3 296.112 16.908C295.86 16.5067 295.734 16.0213 295.734 15.452C295.734 14.9947 295.827 14.598 296.014 14.262C296.21 13.926 296.467 13.6367 296.784 13.394C297.101 13.1513 297.442 12.946 297.806 12.778C297.479 12.5913 297.181 12.3813 296.91 12.148C296.649 11.9053 296.439 11.63 296.28 11.322C296.131 11.014 296.056 10.6547 296.056 10.244C296.056 9.73067 296.187 9.30133 296.448 8.956C296.709 8.60133 297.064 8.33067 297.512 8.144C297.96 7.95733 298.469 7.864 299.038 7.864ZM296.938 15.466C296.938 15.9513 297.111 16.3573 297.456 16.684C297.801 17.0013 298.333 17.16 299.052 17.16C299.509 17.16 299.892 17.0853 300.2 16.936C300.508 16.7867 300.741 16.5813 300.9 16.32C301.068 16.0587 301.152 15.76 301.152 15.424C301.152 15.0973 301.063 14.8127 300.886 14.57C300.718 14.318 300.475 14.094 300.158 13.898C299.85 13.702 299.481 13.5247 299.052 13.366L298.828 13.282C298.417 13.4593 298.072 13.6507 297.792 13.856C297.512 14.0613 297.297 14.2947 297.148 14.556C297.008 14.8173 296.938 15.1207 296.938 15.466ZM299.024 8.858C298.511 8.858 298.086 8.984 297.75 9.236C297.423 9.47867 297.26 9.83333 297.26 10.3C297.26 10.6453 297.339 10.9347 297.498 11.168C297.666 11.4013 297.89 11.602 298.17 11.77C298.45 11.9287 298.758 12.0827 299.094 12.232C299.421 12.092 299.71 11.938 299.962 11.77C300.223 11.602 300.429 11.4013 300.578 11.168C300.737 10.9253 300.816 10.636 300.816 10.3C300.816 9.83333 300.653 9.47867 300.326 9.236C299.999 8.984 299.565 8.858 299.024 8.858ZM307.26 18.14C306.597 18.14 306.004 18.0047 305.482 17.734C304.968 17.4633 304.562 17.0433 304.264 16.474C303.974 15.9047 303.83 15.1767 303.83 14.29C303.83 13.366 303.984 12.6147 304.292 12.036C304.6 11.4573 305.015 11.0327 305.538 10.762C306.07 10.4913 306.672 10.356 307.344 10.356C307.726 10.356 308.095 10.398 308.45 10.482C308.804 10.5567 309.094 10.65 309.318 10.762L308.94 11.784C308.716 11.7 308.454 11.6207 308.156 11.546C307.857 11.4713 307.577 11.434 307.316 11.434C306.812 11.434 306.396 11.5413 306.07 11.756C305.743 11.9707 305.5 12.288 305.342 12.708C305.183 13.128 305.104 13.6507 305.104 14.276C305.104 14.8733 305.183 15.382 305.342 15.802C305.5 16.222 305.738 16.5393 306.056 16.754C306.373 16.9687 306.77 17.076 307.246 17.076C307.656 17.076 308.016 17.034 308.324 16.95C308.641 16.866 308.93 16.7633 309.192 16.642V17.734C308.94 17.8647 308.66 17.9627 308.352 18.028C308.053 18.1027 307.689 18.14 307.26 18.14ZM313.874 10.356C314.518 10.356 315.069 10.496 315.526 10.776C315.993 11.056 316.347 11.4527 316.59 11.966C316.842 12.47 316.968 13.0627 316.968 13.744V14.486H311.83C311.849 15.3353 312.063 15.984 312.474 16.432C312.894 16.8707 313.477 17.09 314.224 17.09C314.7 17.09 315.12 17.048 315.484 16.964C315.857 16.8707 316.24 16.74 316.632 16.572V17.65C316.249 17.818 315.871 17.9393 315.498 18.014C315.125 18.098 314.681 18.14 314.168 18.14C313.459 18.14 312.829 17.9953 312.278 17.706C311.737 17.4167 311.312 16.9873 311.004 16.418C310.705 15.8393 310.556 15.1347 310.556 14.304C310.556 13.4827 310.691 12.778 310.962 12.19C311.242 11.602 311.629 11.1493 312.124 10.832C312.628 10.5147 313.211 10.356 313.874 10.356ZM313.86 11.364C313.272 11.364 312.805 11.5553 312.46 11.938C312.124 12.3113 311.923 12.834 311.858 13.506H315.68C315.68 13.0767 315.615 12.7033 315.484 12.386C315.353 12.0687 315.153 11.8213 314.882 11.644C314.621 11.4573 314.28 11.364 313.86 11.364ZM324.632 18H319.046V8.004H324.632V9.11H320.306V12.232H324.38V13.324H320.306V16.894H324.632V18ZM326.238 13.73C326.238 13.1513 326.275 12.582 326.35 12.022C326.434 11.462 326.574 10.9347 326.77 10.44C326.966 9.936 327.236 9.49267 327.582 9.11C327.927 8.718 328.361 8.41467 328.884 8.2C329.416 7.976 330.06 7.864 330.816 7.864C331.012 7.864 331.226 7.87333 331.46 7.892C331.702 7.91067 331.898 7.94333 332.048 7.99V9.04C331.88 8.984 331.688 8.942 331.474 8.914C331.268 8.886 331.058 8.872 330.844 8.872C330.2 8.872 329.663 8.97933 329.234 9.194C328.804 9.40867 328.464 9.70267 328.212 10.076C327.969 10.4493 327.792 10.8787 327.68 11.364C327.568 11.8493 327.498 12.3673 327.47 12.918H327.554C327.694 12.694 327.871 12.4933 328.086 12.316C328.3 12.1387 328.557 11.9987 328.856 11.896C329.164 11.7933 329.518 11.742 329.92 11.742C330.498 11.742 331.002 11.8633 331.432 12.106C331.87 12.3393 332.211 12.6847 332.454 13.142C332.696 13.59 332.818 14.136 332.818 14.78C332.818 15.4707 332.687 16.068 332.426 16.572C332.164 17.076 331.796 17.4633 331.32 17.734C330.853 18.0047 330.293 18.14 329.64 18.14C329.164 18.14 328.72 18.0513 328.31 17.874C327.899 17.6967 327.535 17.426 327.218 17.062C326.91 16.698 326.667 16.2407 326.49 15.69C326.322 15.13 326.238 14.4767 326.238 13.73ZM329.626 17.104C330.214 17.104 330.69 16.9173 331.054 16.544C331.418 16.1613 331.6 15.5733 331.6 14.78C331.6 14.1453 331.436 13.6413 331.11 13.268C330.792 12.8947 330.312 12.708 329.668 12.708C329.229 12.708 328.846 12.8013 328.52 12.988C328.193 13.1653 327.936 13.394 327.75 13.674C327.572 13.954 327.484 14.2433 327.484 14.542C327.484 14.85 327.526 15.1533 327.61 15.452C327.703 15.7507 327.838 16.026 328.016 16.278C328.202 16.53 328.426 16.7307 328.688 16.88C328.958 17.0293 329.271 17.104 329.626 17.104ZM340.759 12.274C340.759 12.8433 340.717 13.4127 340.633 13.982C340.559 14.542 340.423 15.074 340.227 15.578C340.031 16.0727 339.761 16.516 339.415 16.908C339.07 17.2907 338.631 17.594 338.099 17.818C337.567 18.0327 336.923 18.14 336.167 18.14C335.981 18.14 335.761 18.126 335.509 18.098C335.267 18.0793 335.066 18.0467 334.907 18V16.95C335.075 17.006 335.271 17.0527 335.495 17.09C335.719 17.118 335.934 17.132 336.139 17.132C336.793 17.132 337.329 17.0247 337.749 16.81C338.179 16.5953 338.519 16.306 338.771 15.942C339.023 15.5687 339.205 15.1393 339.317 14.654C339.429 14.1593 339.495 13.6413 339.513 13.1H339.429C339.289 13.3147 339.112 13.5107 338.897 13.688C338.683 13.8653 338.421 14.0053 338.113 14.108C337.815 14.2107 337.46 14.262 337.049 14.262C336.48 14.262 335.976 14.1453 335.537 13.912C335.108 13.6693 334.772 13.324 334.529 12.876C334.296 12.428 334.179 11.882 334.179 11.238C334.179 10.538 334.31 9.936 334.571 9.432C334.842 8.928 335.215 8.54067 335.691 8.27C336.167 7.99933 336.727 7.864 337.371 7.864C337.847 7.864 338.291 7.95733 338.701 8.144C339.112 8.32133 339.471 8.592 339.779 8.956C340.087 9.32 340.325 9.77733 340.493 10.328C340.671 10.8787 340.759 11.5273 340.759 12.274ZM337.371 8.9C336.793 8.9 336.317 9.09133 335.943 9.474C335.579 9.85667 335.397 10.44 335.397 11.224C335.397 11.868 335.551 12.3767 335.859 12.75C336.177 13.114 336.662 13.296 337.315 13.296C337.763 13.296 338.151 13.2073 338.477 13.03C338.804 12.8433 339.056 12.61 339.233 12.33C339.42 12.05 339.513 11.7607 339.513 11.462C339.513 11.1633 339.467 10.8647 339.373 10.566C339.289 10.258 339.159 9.978 338.981 9.726C338.804 9.474 338.58 9.27333 338.309 9.124C338.039 8.97467 337.726 8.9 337.371 8.9ZM350.857 12.904C350.857 14.024 350.647 14.962 350.227 15.718C349.817 16.474 349.224 17.0433 348.449 17.426C347.675 17.8087 346.737 18 345.635 18H342.849V8.004H345.929C346.937 8.004 347.81 8.19067 348.547 8.564C349.285 8.93733 349.854 9.488 350.255 10.216C350.657 10.9347 350.857 11.8307 350.857 12.904ZM349.527 12.946C349.527 12.0593 349.378 11.3313 349.079 10.762C348.79 10.1927 348.361 9.77267 347.791 9.502C347.231 9.222 346.55 9.082 345.747 9.082H344.109V16.922H345.467C346.821 16.922 347.833 16.5907 348.505 15.928C349.187 15.256 349.527 14.262 349.527 12.946ZM355.806 10.356C356.45 10.356 357 10.496 357.458 10.776C357.924 11.056 358.279 11.4527 358.522 11.966C358.774 12.47 358.9 13.0627 358.9 13.744V14.486H353.762C353.78 15.3353 353.995 15.984 354.406 16.432C354.826 16.8707 355.409 17.09 356.156 17.09C356.632 17.09 357.052 17.048 357.416 16.964C357.789 16.8707 358.172 16.74 358.564 16.572V17.65C358.181 17.818 357.803 17.9393 357.43 18.014C357.056 18.098 356.613 18.14 356.1 18.14C355.39 18.14 354.76 17.9953 354.21 17.706C353.668 17.4167 353.244 16.9873 352.936 16.418C352.637 15.8393 352.488 15.1347 352.488 14.304C352.488 13.4827 352.623 12.778 352.894 12.19C353.174 11.602 353.561 11.1493 354.056 10.832C354.56 10.5147 355.143 10.356 355.806 10.356ZM355.792 11.364C355.204 11.364 354.737 11.5553 354.392 11.938C354.056 12.3113 353.855 12.834 353.79 13.506H357.612C357.612 13.0767 357.546 12.7033 357.416 12.386C357.285 12.0687 357.084 11.8213 356.814 11.644C356.552 11.4573 356.212 11.364 355.792 11.364ZM366.9 18H360.292V16.978L362.91 14.332C363.414 13.828 363.839 13.38 364.184 12.988C364.529 12.596 364.791 12.2133 364.968 11.84C365.145 11.4573 365.234 11.042 365.234 10.594C365.234 10.0433 365.071 9.628 364.744 9.348C364.417 9.05867 363.993 8.914 363.47 8.914C362.985 8.914 362.555 8.998 362.182 9.166C361.818 9.334 361.445 9.56733 361.062 9.866L360.404 9.04C360.665 8.816 360.95 8.61533 361.258 8.438C361.575 8.26067 361.916 8.12067 362.28 8.018C362.653 7.91533 363.05 7.864 363.47 7.864C364.095 7.864 364.632 7.97133 365.08 8.186C365.528 8.40067 365.873 8.70867 366.116 9.11C366.368 9.502 366.494 9.97333 366.494 10.524C366.494 10.916 366.433 11.2893 366.312 11.644C366.191 11.9893 366.018 12.33 365.794 12.666C365.57 13.002 365.299 13.3427 364.982 13.688C364.665 14.0333 364.315 14.3927 363.932 14.766L361.846 16.824V16.88H366.9V18ZM375.36 15.732H373.904V18H372.714V15.732H367.926V14.682L372.63 7.948H373.904V14.626H375.36V15.732ZM372.714 11.476C372.714 11.2333 372.714 11.014 372.714 10.818C372.723 10.6127 372.733 10.4213 372.742 10.244C372.751 10.0667 372.756 9.89867 372.756 9.74C372.765 9.572 372.775 9.41333 372.784 9.264H372.728C372.653 9.44133 372.56 9.63267 372.448 9.838C372.336 10.0433 372.229 10.216 372.126 10.356L369.13 14.626H372.714V11.476ZM379.844 18.14C379.181 18.14 378.588 18.0047 378.066 17.734C377.552 17.4633 377.146 17.0433 376.848 16.474C376.558 15.9047 376.414 15.1767 376.414 14.29C376.414 13.366 376.568 12.6147 376.876 12.036C377.184 11.4573 377.599 11.0327 378.122 10.762C378.654 10.4913 379.256 10.356 379.928 10.356C380.31 10.356 380.679 10.398 381.034 10.482C381.388 10.5567 381.678 10.65 381.902 10.762L381.524 11.784C381.3 11.7 381.038 11.6207 380.74 11.546C380.441 11.4713 380.161 11.434 379.9 11.434C379.396 11.434 378.98 11.5413 378.654 11.756C378.327 11.9707 378.084 12.288 377.926 12.708C377.767 13.128 377.688 13.6507 377.688 14.276C377.688 14.8733 377.767 15.382 377.926 15.802C378.084 16.222 378.322 16.5393 378.64 16.754C378.957 16.9687 379.354 17.076 379.83 17.076C380.24 17.076 380.6 17.034 380.908 16.95C381.225 16.866 381.514 16.7633 381.776 16.642V17.734C381.524 17.8647 381.244 17.9627 380.936 18.028C380.637 18.1027 380.273 18.14 379.844 18.14ZM389.272 10.342C389.272 10.79 389.188 11.1773 389.02 11.504C388.852 11.8307 388.609 12.0967 388.292 12.302C387.984 12.5073 387.62 12.652 387.2 12.736V12.792C388.003 12.8853 388.6 13.1373 388.992 13.548C389.384 13.9587 389.58 14.4953 389.58 15.158C389.58 15.7367 389.445 16.2547 389.174 16.712C388.903 17.16 388.483 17.51 387.914 17.762C387.354 18.014 386.631 18.14 385.744 18.14C385.221 18.14 384.736 18.098 384.288 18.014C383.84 17.9393 383.411 17.7993 383 17.594V16.446C383.42 16.6513 383.873 16.8147 384.358 16.936C384.843 17.048 385.31 17.104 385.758 17.104C386.654 17.104 387.298 16.9313 387.69 16.586C388.091 16.2313 388.292 15.746 388.292 15.13C388.292 14.71 388.18 14.374 387.956 14.122C387.741 13.8607 387.424 13.6693 387.004 13.548C386.584 13.4267 386.08 13.366 385.492 13.366H384.526V12.316H385.506C386.057 12.316 386.514 12.2367 386.878 12.078C387.251 11.9193 387.531 11.7 387.718 11.42C387.914 11.1307 388.012 10.7993 388.012 10.426C388.012 9.94067 387.849 9.56733 387.522 9.306C387.195 9.03533 386.752 8.9 386.192 8.9C385.837 8.9 385.515 8.93733 385.226 9.012C384.937 9.07733 384.666 9.17533 384.414 9.306C384.171 9.42733 383.924 9.572 383.672 9.74L383.056 8.9C383.299 8.71333 383.574 8.54067 383.882 8.382C384.199 8.22333 384.549 8.09733 384.932 8.004C385.315 7.91067 385.73 7.864 386.178 7.864C387.223 7.864 387.998 8.09733 388.502 8.564C389.015 9.03067 389.272 9.62333 389.272 10.342ZM394.232 11.868C394.913 11.868 395.506 11.9847 396.01 12.218C396.514 12.4513 396.901 12.7873 397.172 13.226C397.452 13.6553 397.592 14.1827 397.592 14.808C397.592 15.4987 397.443 16.096 397.144 16.6C396.845 17.0947 396.416 17.4773 395.856 17.748C395.305 18.0093 394.638 18.14 393.854 18.14C393.341 18.14 392.855 18.0933 392.398 18C391.95 17.9067 391.572 17.7713 391.264 17.594V16.432C391.6 16.6373 392.006 16.8007 392.482 16.922C392.967 17.034 393.429 17.09 393.868 17.09C394.363 17.09 394.792 17.0153 395.156 16.866C395.529 16.7073 395.819 16.4693 396.024 16.152C396.229 15.8253 396.332 15.4193 396.332 14.934C396.332 14.2807 396.131 13.7813 395.73 13.436C395.329 13.0813 394.694 12.904 393.826 12.904C393.565 12.904 393.266 12.9273 392.93 12.974C392.594 13.0207 392.323 13.0673 392.118 13.114L391.502 12.722L391.88 8.004H396.892V9.124H392.93L392.692 12.022C392.851 11.994 393.065 11.9613 393.336 11.924C393.607 11.8867 393.905 11.868 394.232 11.868ZM402.244 11.868C402.925 11.868 403.518 11.9847 404.022 12.218C404.526 12.4513 404.913 12.7873 405.184 13.226C405.464 13.6553 405.604 14.1827 405.604 14.808C405.604 15.4987 405.454 16.096 405.156 16.6C404.857 17.0947 404.428 17.4773 403.868 17.748C403.317 18.0093 402.65 18.14 401.866 18.14C401.352 18.14 400.867 18.0933 400.41 18C399.962 17.9067 399.584 17.7713 399.276 17.594V16.432C399.612 16.6373 400.018 16.8007 400.494 16.922C400.979 17.034 401.441 17.09 401.88 17.09C402.374 17.09 402.804 17.0153 403.168 16.866C403.541 16.7073 403.83 16.4693 404.036 16.152C404.241 15.8253 404.344 15.4193 404.344 14.934C404.344 14.2807 404.143 13.7813 403.742 13.436C403.34 13.0813 402.706 12.904 401.838 12.904C401.576 12.904 401.278 12.9273 400.942 12.974C400.606 13.0207 400.335 13.0673 400.13 13.114L399.514 12.722L399.892 8.004H404.904V9.124H400.942L400.704 12.022C400.862 11.994 401.077 11.9613 401.348 11.924C401.618 11.8867 401.917 11.868 402.244 11.868ZM414.133 15.732H412.677V18H411.487V15.732H406.699V14.682L411.403 7.948H412.677V14.626H414.133V15.732ZM411.487 11.476C411.487 11.2333 411.487 11.014 411.487 10.818C411.497 10.6127 411.506 10.4213 411.515 10.244C411.525 10.0667 411.529 9.89867 411.529 9.74C411.539 9.572 411.548 9.41333 411.557 9.264H411.501C411.427 9.44133 411.333 9.63267 411.221 9.838C411.109 10.0433 411.002 10.216 410.899 10.356L407.903 14.626H411.487V11.476ZM415.187 13.73C415.187 13.1513 415.224 12.582 415.299 12.022C415.383 11.462 415.523 10.9347 415.719 10.44C415.915 9.936 416.186 9.49267 416.531 9.11C416.876 8.718 417.31 8.41467 417.833 8.2C418.365 7.976 419.009 7.864 419.765 7.864C419.961 7.864 420.176 7.87333 420.409 7.892C420.652 7.91067 420.848 7.94333 420.997 7.99V9.04C420.829 8.984 420.638 8.942 420.423 8.914C420.218 8.886 420.008 8.872 419.793 8.872C419.149 8.872 418.612 8.97933 418.183 9.194C417.754 9.40867 417.413 9.70267 417.161 10.076C416.918 10.4493 416.741 10.8787 416.629 11.364C416.517 11.8493 416.447 12.3673 416.419 12.918H416.503C416.643 12.694 416.82 12.4933 417.035 12.316C417.25 12.1387 417.506 11.9987 417.805 11.896C418.113 11.7933 418.468 11.742 418.869 11.742C419.448 11.742 419.952 11.8633 420.381 12.106C420.82 12.3393 421.16 12.6847 421.403 13.142C421.646 13.59 421.767 14.136 421.767 14.78C421.767 15.4707 421.636 16.068 421.375 16.572C421.114 17.076 420.745 17.4633 420.269 17.734C419.802 18.0047 419.242 18.14 418.589 18.14C418.113 18.14 417.67 18.0513 417.259 17.874C416.848 17.6967 416.484 17.426 416.167 17.062C415.859 16.698 415.616 16.2407 415.439 15.69C415.271 15.13 415.187 14.4767 415.187 13.73ZM418.575 17.104C419.163 17.104 419.639 16.9173 420.003 16.544C420.367 16.1613 420.549 15.5733 420.549 14.78C420.549 14.1453 420.386 13.6413 420.059 13.268C419.742 12.8947 419.261 12.708 418.617 12.708C418.178 12.708 417.796 12.8013 417.469 12.988C417.142 13.1653 416.886 13.394 416.699 13.674C416.522 13.954 416.433 14.2433 416.433 14.542C416.433 14.85 416.475 15.1533 416.559 15.452C416.652 15.7507 416.788 16.026 416.965 16.278C417.152 16.53 417.376 16.7307 417.637 16.88C417.908 17.0293 418.22 17.104 418.575 17.104ZM429.709 18H423.101V16.978L425.719 14.332C426.223 13.828 426.647 13.38 426.993 12.988C427.338 12.596 427.599 12.2133 427.777 11.84C427.954 11.4573 428.043 11.042 428.043 10.594C428.043 10.0433 427.879 9.628 427.553 9.348C427.226 9.05867 426.801 8.914 426.279 8.914C425.793 8.914 425.364 8.998 424.991 9.166C424.627 9.334 424.253 9.56733 423.871 9.866L423.213 9.04C423.474 8.816 423.759 8.61533 424.067 8.438C424.384 8.26067 424.725 8.12067 425.089 8.018C425.462 7.91533 425.859 7.864 426.279 7.864C426.904 7.864 427.441 7.97133 427.889 8.186C428.337 8.40067 428.682 8.70867 428.925 9.11C429.177 9.502 429.303 9.97333 429.303 10.524C429.303 10.916 429.242 11.2893 429.121 11.644C428.999 11.9893 428.827 12.33 428.603 12.666C428.379 13.002 428.108 13.3427 427.791 13.688C427.473 14.0333 427.123 14.3927 426.741 14.766L424.655 16.824V16.88H429.709V18ZM431.21 13.73C431.21 13.1513 431.248 12.582 431.322 12.022C431.406 11.462 431.546 10.9347 431.742 10.44C431.938 9.936 432.209 9.49267 432.554 9.11C432.9 8.718 433.334 8.41467 433.856 8.2C434.388 7.976 435.032 7.864 435.788 7.864C435.984 7.864 436.199 7.87333 436.432 7.892C436.675 7.91067 436.871 7.94333 437.02 7.99V9.04C436.852 8.984 436.661 8.942 436.446 8.914C436.241 8.886 436.031 8.872 435.816 8.872C435.172 8.872 434.636 8.97933 434.206 9.194C433.777 9.40867 433.436 9.70267 433.184 10.076C432.942 10.4493 432.764 10.8787 432.652 11.364C432.54 11.8493 432.47 12.3673 432.442 12.918H432.526C432.666 12.694 432.844 12.4933 433.058 12.316C433.273 12.1387 433.53 11.9987 433.828 11.896C434.136 11.7933 434.491 11.742 434.892 11.742C435.471 11.742 435.975 11.8633 436.404 12.106C436.843 12.3393 437.184 12.6847 437.426 13.142C437.669 13.59 437.79 14.136 437.79 14.78C437.79 15.4707 437.66 16.068 437.398 16.572C437.137 17.076 436.768 17.4633 436.292 17.734C435.826 18.0047 435.266 18.14 434.612 18.14C434.136 18.14 433.693 18.0513 433.282 17.874C432.872 17.6967 432.508 17.426 432.19 17.062C431.882 16.698 431.64 16.2407 431.462 15.69C431.294 15.13 431.21 14.4767 431.21 13.73ZM434.598 17.104C435.186 17.104 435.662 16.9173 436.026 16.544C436.39 16.1613 436.572 15.5733 436.572 14.78C436.572 14.1453 436.409 13.6413 436.082 13.268C435.765 12.8947 435.284 12.708 434.64 12.708C434.202 12.708 433.819 12.8013 433.492 12.988C433.166 13.1653 432.909 13.394 432.722 13.674C432.545 13.954 432.456 14.2433 432.456 14.542C432.456 14.85 432.498 15.1533 432.582 15.452C432.676 15.7507 432.811 16.026 432.988 16.278C433.175 16.53 433.399 16.7307 433.66 16.88C433.931 17.0293 434.244 17.104 434.598 17.104ZM445.354 10.342C445.354 10.79 445.27 11.1773 445.102 11.504C444.934 11.8307 444.691 12.0967 444.374 12.302C444.066 12.5073 443.702 12.652 443.282 12.736V12.792C444.085 12.8853 444.682 13.1373 445.074 13.548C445.466 13.9587 445.662 14.4953 445.662 15.158C445.662 15.7367 445.527 16.2547 445.256 16.712C444.985 17.16 444.565 17.51 443.996 17.762C443.436 18.014 442.713 18.14 441.826 18.14C441.303 18.14 440.818 18.098 440.37 18.014C439.922 17.9393 439.493 17.7993 439.082 17.594V16.446C439.502 16.6513 439.955 16.8147 440.44 16.936C440.925 17.048 441.392 17.104 441.84 17.104C442.736 17.104 443.38 16.9313 443.772 16.586C444.173 16.2313 444.374 15.746 444.374 15.13C444.374 14.71 444.262 14.374 444.038 14.122C443.823 13.8607 443.506 13.6693 443.086 13.548C442.666 13.4267 442.162 13.366 441.574 13.366H440.608V12.316H441.588C442.139 12.316 442.596 12.2367 442.96 12.078C443.333 11.9193 443.613 11.7 443.8 11.42C443.996 11.1307 444.094 10.7993 444.094 10.426C444.094 9.94067 443.931 9.56733 443.604 9.306C443.277 9.03533 442.834 8.9 442.274 8.9C441.919 8.9 441.597 8.93733 441.308 9.012C441.019 9.07733 440.748 9.17533 440.496 9.306C440.253 9.42733 440.006 9.572 439.754 9.74L439.138 8.9C439.381 8.71333 439.656 8.54067 439.964 8.382C440.281 8.22333 440.631 8.09733 441.014 8.004C441.397 7.91067 441.812 7.864 442.26 7.864C443.305 7.864 444.08 8.09733 444.584 8.564C445.097 9.03067 445.354 9.62333 445.354 10.342ZM451.112 11.448H449.222V18H447.99V11.448H446.674V10.874L447.99 10.454V10.02C447.99 9.376 448.083 8.85333 448.27 8.452C448.466 8.05067 448.746 7.75667 449.11 7.57C449.474 7.38333 449.913 7.29 450.426 7.29C450.725 7.29 450.995 7.318 451.238 7.374C451.49 7.42067 451.705 7.47667 451.882 7.542L451.56 8.508C451.411 8.46133 451.238 8.41467 451.042 8.368C450.846 8.32133 450.645 8.298 450.44 8.298C450.029 8.298 449.721 8.438 449.516 8.718C449.32 8.98867 449.222 9.418 449.222 10.006V10.496H451.112V11.448ZM458.598 12.988C458.598 13.8 458.538 14.5233 458.416 15.158C458.295 15.7927 458.099 16.334 457.828 16.782C457.567 17.2207 457.222 17.5567 456.792 17.79C456.372 18.0233 455.864 18.14 455.266 18.14C454.52 18.14 453.899 17.9347 453.404 17.524C452.919 17.1133 452.555 16.5253 452.312 15.76C452.079 14.9853 451.962 14.0613 451.962 12.988C451.962 11.9053 452.07 10.9813 452.284 10.216C452.508 9.45067 452.863 8.86733 453.348 8.466C453.834 8.05533 454.473 7.85 455.266 7.85C456.013 7.85 456.634 8.05533 457.128 8.466C457.623 8.86733 457.992 9.45067 458.234 10.216C458.477 10.9813 458.598 11.9053 458.598 12.988ZM453.194 12.988C453.194 13.9027 453.26 14.6633 453.39 15.27C453.53 15.8767 453.75 16.334 454.048 16.642C454.356 16.9407 454.762 17.09 455.266 17.09C455.77 17.09 456.172 16.9407 456.47 16.642C456.778 16.3433 457.002 15.8907 457.142 15.284C457.282 14.668 457.352 13.9027 457.352 12.988C457.352 12.0733 457.282 11.3173 457.142 10.72C457.002 10.1133 456.778 9.66067 456.47 9.362C456.172 9.054 455.77 8.9 455.266 8.9C454.762 8.9 454.356 9.054 454.048 9.362C453.75 9.66067 453.53 10.1133 453.39 10.72C453.26 11.3173 453.194 12.0733 453.194 12.988ZM460.058 13.73C460.058 13.1513 460.095 12.582 460.17 12.022C460.254 11.462 460.394 10.9347 460.59 10.44C460.786 9.936 461.057 9.49267 461.402 9.11C461.747 8.718 462.181 8.41467 462.704 8.2C463.236 7.976 463.88 7.864 464.636 7.864C464.832 7.864 465.047 7.87333 465.28 7.892C465.523 7.91067 465.719 7.94333 465.868 7.99V9.04C465.7 8.984 465.509 8.942 465.294 8.914C465.089 8.886 464.879 8.872 464.664 8.872C464.02 8.872 463.483 8.97933 463.054 9.194C462.625 9.40867 462.284 9.70267 462.032 10.076C461.789 10.4493 461.612 10.8787 461.5 11.364C461.388 11.8493 461.318 12.3673 461.29 12.918H461.374C461.514 12.694 461.691 12.4933 461.906 12.316C462.121 12.1387 462.377 11.9987 462.676 11.896C462.984 11.7933 463.339 11.742 463.74 11.742C464.319 11.742 464.823 11.8633 465.252 12.106C465.691 12.3393 466.031 12.6847 466.274 13.142C466.517 13.59 466.638 14.136 466.638 14.78C466.638 15.4707 466.507 16.068 466.246 16.572C465.985 17.076 465.616 17.4633 465.14 17.734C464.673 18.0047 464.113 18.14 463.46 18.14C462.984 18.14 462.541 18.0513 462.13 17.874C461.719 17.6967 461.355 17.426 461.038 17.062C460.73 16.698 460.487 16.2407 460.31 15.69C460.142 15.13 460.058 14.4767 460.058 13.73ZM463.446 17.104C464.034 17.104 464.51 16.9173 464.874 16.544C465.238 16.1613 465.42 15.5733 465.42 14.78C465.42 14.1453 465.257 13.6413 464.93 13.268C464.613 12.8947 464.132 12.708 463.488 12.708C463.049 12.708 462.667 12.8013 462.34 12.988C462.013 13.1653 461.757 13.394 461.57 13.674C461.393 13.954 461.304 14.2433 461.304 14.542C461.304 14.85 461.346 15.1533 461.43 15.452C461.523 15.7507 461.659 16.026 461.836 16.278C462.023 16.53 462.247 16.7307 462.508 16.88C462.779 17.0293 463.091 17.104 463.446 17.104ZM474.93 18L473.726 14.906H469.764L468.574 18H467.3L471.206 7.962H472.34L476.232 18H474.93ZM472.228 10.762C472.2 10.6873 472.153 10.552 472.088 10.356C472.022 10.16 471.957 9.95933 471.892 9.754C471.836 9.53933 471.789 9.376 471.752 9.264C471.705 9.45067 471.654 9.642 471.598 9.838C471.551 10.0247 471.5 10.1973 471.444 10.356C471.397 10.5147 471.355 10.65 471.318 10.762L470.184 13.786H473.348L472.228 10.762ZM483.521 18H476.913V16.978L479.531 14.332C480.035 13.828 480.46 13.38 480.805 12.988C481.151 12.596 481.412 12.2133 481.589 11.84C481.767 11.4573 481.855 11.042 481.855 10.594C481.855 10.0433 481.692 9.628 481.365 9.348C481.039 9.05867 480.614 8.914 480.091 8.914C479.606 8.914 479.177 8.998 478.803 9.166C478.439 9.334 478.066 9.56733 477.683 9.866L477.025 9.04C477.287 8.816 477.571 8.61533 477.879 8.438C478.197 8.26067 478.537 8.12067 478.901 8.018C479.275 7.91533 479.671 7.864 480.091 7.864C480.717 7.864 481.253 7.97133 481.701 8.186C482.149 8.40067 482.495 8.70867 482.737 9.11C482.989 9.502 483.115 9.97333 483.115 10.524C483.115 10.916 483.055 11.2893 482.933 11.644C482.812 11.9893 482.639 12.33 482.415 12.666C482.191 13.002 481.921 13.3427 481.603 13.688C481.286 14.0333 480.936 14.3927 480.553 14.766L478.467 16.824V16.88H483.521V18ZM489.223 18H488.019V11.014C488.019 10.7433 488.019 10.5147 488.019 10.328C488.028 10.1413 488.038 9.96867 488.047 9.81C488.056 9.642 488.066 9.46933 488.075 9.292C487.926 9.44133 487.79 9.56733 487.669 9.67C487.548 9.77267 487.394 9.90333 487.207 10.062L486.143 10.93L485.499 10.104L488.201 8.004H489.223V18ZM499.587 12.988C499.587 13.8 499.526 14.5233 499.405 15.158C499.283 15.7927 499.087 16.334 498.817 16.782C498.555 17.2207 498.21 17.5567 497.781 17.79C497.361 18.0233 496.852 18.14 496.255 18.14C495.508 18.14 494.887 17.9347 494.393 17.524C493.907 17.1133 493.543 16.5253 493.301 15.76C493.067 14.9853 492.951 14.0613 492.951 12.988C492.951 11.9053 493.058 10.9813 493.273 10.216C493.497 9.45067 493.851 8.86733 494.337 8.466C494.822 8.05533 495.461 7.85 496.255 7.85C497.001 7.85 497.622 8.05533 498.117 8.466C498.611 8.86733 498.98 9.45067 499.223 10.216C499.465 10.9813 499.587 11.9053 499.587 12.988ZM494.183 12.988C494.183 13.9027 494.248 14.6633 494.379 15.27C494.519 15.8767 494.738 16.334 495.037 16.642C495.345 16.9407 495.751 17.09 496.255 17.09C496.759 17.09 497.16 16.9407 497.459 16.642C497.767 16.3433 497.991 15.8907 498.131 15.284C498.271 14.668 498.341 13.9027 498.341 12.988C498.341 12.0733 498.271 11.3173 498.131 10.72C497.991 10.1133 497.767 9.66067 497.459 9.362C497.16 9.054 496.759 8.9 496.255 8.9C495.751 8.9 495.345 9.054 495.037 9.362C494.738 9.66067 494.519 10.1133 494.379 10.72C494.248 11.3173 494.183 12.0733 494.183 12.988ZM504.308 10.37C505.223 10.37 505.9 10.5707 506.338 10.972C506.777 11.3733 506.996 12.0127 506.996 12.89V18H506.1L505.862 16.936H505.806C505.592 17.2067 505.368 17.4353 505.134 17.622C504.91 17.7993 504.649 17.93 504.35 18.014C504.061 18.098 503.706 18.14 503.286 18.14C502.838 18.14 502.432 18.0607 502.068 17.902C501.714 17.7433 501.434 17.5007 501.228 17.174C501.023 16.838 500.92 16.418 500.92 15.914C500.92 15.1673 501.214 14.5933 501.802 14.192C502.39 13.7813 503.296 13.5573 504.518 13.52L505.792 13.478V13.03C505.792 12.4047 505.657 11.9707 505.386 11.728C505.116 11.4853 504.733 11.364 504.238 11.364C503.846 11.364 503.473 11.4247 503.118 11.546C502.764 11.658 502.432 11.7887 502.124 11.938L501.746 11.014C502.073 10.8367 502.46 10.6873 502.908 10.566C503.356 10.4353 503.823 10.37 504.308 10.37ZM504.672 14.374C503.739 14.4113 503.09 14.5607 502.726 14.822C502.372 15.0833 502.194 15.452 502.194 15.928C502.194 16.348 502.32 16.656 502.572 16.852C502.834 17.048 503.165 17.146 503.566 17.146C504.201 17.146 504.728 16.9733 505.148 16.628C505.568 16.2733 505.778 15.732 505.778 15.004V14.332L504.672 14.374ZM517.49 12.904C517.49 14.024 517.28 14.962 516.86 15.718C516.449 16.474 515.857 17.0433 515.082 17.426C514.307 17.8087 513.369 18 512.268 18H509.482V8.004H512.562C513.57 8.004 514.443 8.19067 515.18 8.564C515.917 8.93733 516.487 9.488 516.888 10.216C517.289 10.9347 517.49 11.8307 517.49 12.904ZM516.16 12.946C516.16 12.0593 516.011 11.3313 515.712 10.762C515.423 10.1927 514.993 9.77267 514.424 9.502C513.864 9.222 513.183 9.082 512.38 9.082H510.742V16.922H512.1C513.453 16.922 514.466 16.5907 515.138 15.928C515.819 15.256 516.16 14.262 516.16 12.946ZM526.079 15.732H524.623V18H523.433V15.732H518.645V14.682L523.349 7.948H524.623V14.626H526.079V15.732ZM523.433 11.476C523.433 11.2333 523.433 11.014 523.433 10.818C523.442 10.6127 523.451 10.4213 523.461 10.244C523.47 10.0667 523.475 9.89867 523.475 9.74C523.484 9.572 523.493 9.41333 523.503 9.264H523.447C523.372 9.44133 523.279 9.63267 523.167 9.838C523.055 10.0433 522.947 10.216 522.845 10.356L519.849 14.626H523.433V11.476ZM533.642 18H527.034V16.978L529.652 14.332C530.156 13.828 530.581 13.38 530.926 12.988C531.272 12.596 531.533 12.2133 531.71 11.84C531.888 11.4573 531.976 11.042 531.976 10.594C531.976 10.0433 531.813 9.628 531.486 9.348C531.16 9.05867 530.735 8.914 530.212 8.914C529.727 8.914 529.298 8.998 528.924 9.166C528.56 9.334 528.187 9.56733 527.804 9.866L527.146 9.04C527.408 8.816 527.692 8.61533 528 8.438C528.318 8.26067 528.658 8.12067 529.022 8.018C529.396 7.91533 529.792 7.864 530.212 7.864C530.838 7.864 531.374 7.97133 531.822 8.186C532.27 8.40067 532.616 8.70867 532.858 9.11C533.11 9.502 533.236 9.97333 533.236 10.524C533.236 10.916 533.176 11.2893 533.054 11.644C532.933 11.9893 532.76 12.33 532.536 12.666C532.312 13.002 532.042 13.3427 531.724 13.688C531.407 14.0333 531.057 14.3927 530.674 14.766L528.588 16.824V16.88H533.642V18ZM541.276 10.342C541.276 10.79 541.192 11.1773 541.024 11.504C540.856 11.8307 540.613 12.0967 540.296 12.302C539.988 12.5073 539.624 12.652 539.204 12.736V12.792C540.007 12.8853 540.604 13.1373 540.996 13.548C541.388 13.9587 541.584 14.4953 541.584 15.158C541.584 15.7367 541.449 16.2547 541.178 16.712C540.907 17.16 540.487 17.51 539.918 17.762C539.358 18.014 538.635 18.14 537.748 18.14C537.225 18.14 536.74 18.098 536.292 18.014C535.844 17.9393 535.415 17.7993 535.004 17.594V16.446C535.424 16.6513 535.877 16.8147 536.362 16.936C536.847 17.048 537.314 17.104 537.762 17.104C538.658 17.104 539.302 16.9313 539.694 16.586C540.095 16.2313 540.296 15.746 540.296 15.13C540.296 14.71 540.184 14.374 539.96 14.122C539.745 13.8607 539.428 13.6693 539.008 13.548C538.588 13.4267 538.084 13.366 537.496 13.366H536.53V12.316H537.51C538.061 12.316 538.518 12.2367 538.882 12.078C539.255 11.9193 539.535 11.7 539.722 11.42C539.918 11.1307 540.016 10.7993 540.016 10.426C540.016 9.94067 539.853 9.56733 539.526 9.306C539.199 9.03533 538.756 8.9 538.196 8.9C537.841 8.9 537.519 8.93733 537.23 9.012C536.941 9.07733 536.67 9.17533 536.418 9.306C536.175 9.42733 535.928 9.572 535.676 9.74L535.06 8.9C535.303 8.71333 535.578 8.54067 535.886 8.382C536.203 8.22333 536.553 8.09733 536.936 8.004C537.319 7.91067 537.734 7.864 538.182 7.864C539.227 7.864 540.002 8.09733 540.506 8.564C541.019 9.03067 541.276 9.62333 541.276 10.342ZM543.156 13.73C543.156 13.1513 543.193 12.582 543.268 12.022C543.352 11.462 543.492 10.9347 543.688 10.44C543.884 9.936 544.154 9.49267 544.5 9.11C544.845 8.718 545.279 8.41467 545.802 8.2C546.334 7.976 546.978 7.864 547.734 7.864C547.93 7.864 548.144 7.87333 548.378 7.892C548.62 7.91067 548.816 7.94333 548.966 7.99V9.04C548.798 8.984 548.606 8.942 548.392 8.914C548.186 8.886 547.976 8.872 547.762 8.872C547.118 8.872 546.581 8.97933 546.152 9.194C545.722 9.40867 545.382 9.70267 545.13 10.076C544.887 10.4493 544.71 10.8787 544.598 11.364C544.486 11.8493 544.416 12.3673 544.388 12.918H544.472C544.612 12.694 544.789 12.4933 545.004 12.316C545.218 12.1387 545.475 11.9987 545.774 11.896C546.082 11.7933 546.436 11.742 546.838 11.742C547.416 11.742 547.92 11.8633 548.35 12.106C548.788 12.3393 549.129 12.6847 549.372 13.142C549.614 13.59 549.736 14.136 549.736 14.78C549.736 15.4707 549.605 16.068 549.344 16.572C549.082 17.076 548.714 17.4633 548.238 17.734C547.771 18.0047 547.211 18.14 546.558 18.14C546.082 18.14 545.638 18.0513 545.228 17.874C544.817 17.6967 544.453 17.426 544.136 17.062C543.828 16.698 543.585 16.2407 543.408 15.69C543.24 15.13 543.156 14.4767 543.156 13.73ZM546.544 17.104C547.132 17.104 547.608 16.9173 547.972 16.544C548.336 16.1613 548.518 15.5733 548.518 14.78C548.518 14.1453 548.354 13.6413 548.028 13.268C547.71 12.8947 547.23 12.708 546.586 12.708C546.147 12.708 545.764 12.8013 545.438 12.988C545.111 13.1653 544.854 13.394 544.668 13.674C544.49 13.954 544.402 14.2433 544.402 14.542C544.402 14.85 544.444 15.1533 544.528 15.452C544.621 15.7507 544.756 16.026 544.934 16.278C545.12 16.53 545.344 16.7307 545.606 16.88C545.876 17.0293 546.189 17.104 546.544 17.104Z" fill="#555555"/>
</svg>
