<svg width="535" height="25" viewBox="0 0 535 25" fill="none" xmlns="http://www.w3.org/2000/svg">
<rect width="535" height="25" fill="#555555"/>
<rect x="180" width="355" height="25" fill="#7DA6FF"/>
<path d="M27.951 12.904C27.951 14.024 27.741 14.962 27.321 15.718C26.9103 16.474 26.3176 17.0433 25.543 17.426C24.7683 17.8087 23.8303 18 22.729 18H19.943V8.004H23.023C24.031 8.004 24.9036 8.19067 25.641 8.564C26.3783 8.93733 26.9476 9.488 27.349 10.216C27.7503 10.9347 27.951 11.8307 27.951 12.904ZM26.621 12.946C26.621 12.0593 26.4716 11.3313 26.173 10.762C25.8836 10.1927 25.4543 9.77267 24.885 9.502C24.325 9.222 23.6436 9.082 22.841 9.082H21.203V16.922H22.561C23.9143 16.922 24.927 16.5907 25.599 15.928C26.2803 15.256 26.621 14.262 26.621 12.946ZM32.8435 10.37C33.7582 10.37 34.4349 10.5707 34.8735 10.972C35.3122 11.3733 35.5315 12.0127 35.5315 12.89V18H34.6355L34.3975 16.936H34.3415C34.1269 17.2067 33.9029 17.4353 33.6695 17.622C33.4455 17.7993 33.1842 17.93 32.8855 18.014C32.5962 18.098 32.2415 18.14 31.8215 18.14C31.3735 18.14 30.9675 18.0607 30.6035 17.902C30.2489 17.7433 29.9689 17.5007 29.7635 17.174C29.5582 16.838 29.4555 16.418 29.4555 15.914C29.4555 15.1673 29.7495 14.5933 30.3375 14.192C30.9255 13.7813 31.8309 13.5573 33.0535 13.52L34.3275 13.478V13.03C34.3275 12.4047 34.1922 11.9707 33.9215 11.728C33.6509 11.4853 33.2682 11.364 32.7735 11.364C32.3815 11.364 32.0082 11.4247 31.6535 11.546C31.2989 11.658 30.9675 11.7887 30.6595 11.938L30.2815 11.014C30.6082 10.8367 30.9955 10.6873 31.4435 10.566C31.8915 10.4353 32.3582 10.37 32.8435 10.37ZM33.2075 14.374C32.2742 14.4113 31.6255 14.5607 31.2615 14.822C30.9069 15.0833 30.7295 15.452 30.7295 15.928C30.7295 16.348 30.8555 16.656 31.1075 16.852C31.3689 17.048 31.7002 17.146 32.1015 17.146C32.7362 17.146 33.2635 16.9733 33.6835 16.628C34.1035 16.2733 34.3135 15.732 34.3135 15.004V14.332L33.2075 14.374ZM39.0812 10.496V18H37.8492V10.496H39.0812ZM38.4792 7.682C38.6658 7.682 38.8292 7.74733 38.9692 7.878C39.1185 7.99933 39.1932 8.19533 39.1932 8.466C39.1932 8.72733 39.1185 8.92333 38.9692 9.054C38.8292 9.18467 38.6658 9.25 38.4792 9.25C38.2738 9.25 38.1012 9.18467 37.9612 9.054C37.8212 8.92333 37.7512 8.72733 37.7512 8.466C37.7512 8.19533 37.8212 7.99933 37.9612 7.878C38.1012 7.74733 38.2738 7.682 38.4792 7.682ZM53.2713 12.904C53.2713 14.024 53.0613 14.962 52.6413 15.718C52.2306 16.474 51.6379 17.0433 50.8633 17.426C50.0886 17.8087 49.1506 18 48.0493 18H45.2633V8.004H48.3433C49.3513 8.004 50.2239 8.19067 50.9613 8.564C51.6986 8.93733 52.2679 9.488 52.6693 10.216C53.0706 10.9347 53.2713 11.8307 53.2713 12.904ZM51.9413 12.946C51.9413 12.0593 51.7919 11.3313 51.4933 10.762C51.2039 10.1927 50.7746 9.77267 50.2053 9.502C49.6453 9.222 48.9639 9.082 48.1613 9.082H46.5233V16.922H47.8813C49.2346 16.922 50.2473 16.5907 50.9193 15.928C51.6006 15.256 51.9413 14.262 51.9413 12.946ZM61.4884 18L60.2844 14.906H56.3224L55.1324 18H53.8584L57.7644 7.962H58.8984L62.7904 18H61.4884ZM58.7864 10.762C58.7584 10.6873 58.7117 10.552 58.6464 10.356C58.5811 10.16 58.5157 9.95933 58.4504 9.754C58.3944 9.53933 58.3477 9.376 58.3104 9.264C58.2637 9.45067 58.2124 9.642 58.1564 9.838C58.1097 10.0247 58.0584 10.1973 58.0024 10.356C57.9557 10.5147 57.9137 10.65 57.8764 10.762L56.7424 13.786H59.9064L58.7864 10.762ZM66.9718 18H63.3598V17.272L64.5358 17.006V9.012L63.3598 8.732V8.004H66.9718V8.732L65.7958 9.012V17.006L66.9718 17.272V18ZM71.7407 14.164C71.7407 13.3987 71.8107 12.652 71.9507 11.924C72.1 11.196 72.3287 10.5007 72.6367 9.838C72.9447 9.17533 73.332 8.564 73.7987 8.004H74.9607C74.5313 8.58267 74.1673 9.208 73.8687 9.88C73.5793 10.552 73.36 11.2473 73.2107 11.966C73.0613 12.6847 72.9867 13.4127 72.9867 14.15C72.9867 14.8687 73.0613 15.5827 73.2107 16.292C73.36 17.0013 73.5793 17.6827 73.8687 18.336C74.158 18.9987 74.5173 19.624 74.9467 20.212H73.7987C73.332 19.6613 72.9447 19.0593 72.6367 18.406C72.3287 17.762 72.1 17.0807 71.9507 16.362C71.8107 15.6433 71.7407 14.9107 71.7407 14.164ZM85.9586 18H80.3726V8.004H85.9586V9.11H81.6326V12.232H85.7066V13.324H81.6326V16.894H85.9586V18ZM91.3159 18H90.0559V9.11H86.9339V8.004H94.4239V9.11H91.3159V18ZM103.575 18H102.315V13.338H97.1912V18H95.9312V8.004H97.1912V12.232H102.315V8.004H103.575V18ZM115.531 18H109.945V8.004H115.531V9.11H111.205V12.232H115.279V13.324H111.205V16.894H115.531V18ZM120.482 8.004C121.313 8.004 121.994 8.11133 122.526 8.326C123.068 8.53133 123.469 8.844 123.73 9.264C123.992 9.684 124.122 10.2113 124.122 10.846C124.122 11.378 124.024 11.8213 123.828 12.176C123.632 12.5307 123.38 12.8153 123.072 13.03C122.774 13.2353 122.456 13.3987 122.12 13.52L124.864 18H123.394L120.972 13.87H118.984V18H117.724V8.004H120.482ZM120.412 9.096H118.984V12.806H120.482C121.024 12.806 121.467 12.736 121.812 12.596C122.158 12.4467 122.41 12.232 122.568 11.952C122.736 11.672 122.82 11.322 122.82 10.902C122.82 10.4633 122.732 10.1133 122.554 9.852C122.386 9.59067 122.125 9.39933 121.77 9.278C121.416 9.15667 120.963 9.096 120.412 9.096ZM130.717 8.97C130.185 8.97 129.705 9.06333 129.275 9.25C128.846 9.42733 128.482 9.69333 128.183 10.048C127.885 10.3933 127.656 10.818 127.497 11.322C127.339 11.8167 127.259 12.3767 127.259 13.002C127.259 13.8233 127.385 14.5373 127.637 15.144C127.899 15.7507 128.281 16.2173 128.785 16.544C129.299 16.8707 129.938 17.034 130.703 17.034C131.142 17.034 131.557 16.9967 131.949 16.922C132.341 16.8473 132.724 16.754 133.097 16.642V17.734C132.724 17.874 132.337 17.9767 131.935 18.042C131.543 18.1073 131.072 18.14 130.521 18.14C129.504 18.14 128.655 17.93 127.973 17.51C127.292 17.09 126.779 16.4927 126.433 15.718C126.097 14.9433 125.929 14.0333 125.929 12.988C125.929 12.232 126.032 11.5413 126.237 10.916C126.452 10.2907 126.76 9.74933 127.161 9.292C127.572 8.83467 128.076 8.48467 128.673 8.242C129.271 7.99 129.957 7.864 130.731 7.864C131.245 7.864 131.739 7.91533 132.215 8.018C132.691 8.12067 133.116 8.26533 133.489 8.452L132.985 9.516C132.677 9.376 132.332 9.25 131.949 9.138C131.576 9.026 131.165 8.97 130.717 8.97ZM144.838 18H138.23V16.978L140.848 14.332C141.352 13.828 141.776 13.38 142.122 12.988C142.467 12.596 142.728 12.2133 142.906 11.84C143.083 11.4573 143.172 11.042 143.172 10.594C143.172 10.0433 143.008 9.628 142.682 9.348C142.355 9.05867 141.93 8.914 141.408 8.914C140.922 8.914 140.493 8.998 140.12 9.166C139.756 9.334 139.382 9.56733 139 9.866L138.342 9.04C138.603 8.816 138.888 8.61533 139.196 8.438C139.513 8.26067 139.854 8.12067 140.218 8.018C140.591 7.91533 140.988 7.864 141.408 7.864C142.033 7.864 142.57 7.97133 143.018 8.186C143.466 8.40067 143.811 8.70867 144.054 9.11C144.306 9.502 144.432 9.97333 144.432 10.524C144.432 10.916 144.371 11.2893 144.25 11.644C144.128 11.9893 143.956 12.33 143.732 12.666C143.508 13.002 143.237 13.3427 142.92 13.688C142.602 14.0333 142.252 14.3927 141.87 14.766L139.784 16.824V16.88H144.838V18ZM152.891 12.988C152.891 13.8 152.831 14.5233 152.709 15.158C152.588 15.7927 152.392 16.334 152.121 16.782C151.86 17.2207 151.515 17.5567 151.085 17.79C150.665 18.0233 150.157 18.14 149.559 18.14C148.813 18.14 148.192 17.9347 147.697 17.524C147.212 17.1133 146.848 16.5253 146.605 15.76C146.372 14.9853 146.255 14.0613 146.255 12.988C146.255 11.9053 146.363 10.9813 146.577 10.216C146.801 9.45067 147.156 8.86733 147.641 8.466C148.127 8.05533 148.766 7.85 149.559 7.85C150.306 7.85 150.927 8.05533 151.421 8.466C151.916 8.86733 152.285 9.45067 152.527 10.216C152.77 10.9813 152.891 11.9053 152.891 12.988ZM147.487 12.988C147.487 13.9027 147.553 14.6633 147.683 15.27C147.823 15.8767 148.043 16.334 148.341 16.642C148.649 16.9407 149.055 17.09 149.559 17.09C150.063 17.09 150.465 16.9407 150.763 16.642C151.071 16.3433 151.295 15.8907 151.435 15.284C151.575 14.668 151.645 13.9027 151.645 12.988C151.645 12.0733 151.575 11.3173 151.435 10.72C151.295 10.1133 151.071 9.66067 150.763 9.362C150.465 9.054 150.063 8.9 149.559 8.9C149.055 8.9 148.649 9.054 148.341 9.362C148.043 9.66067 147.823 10.1133 147.683 10.72C147.553 11.3173 147.487 12.0733 147.487 12.988ZM160.858 14.164C160.858 14.9107 160.783 15.6433 160.634 16.362C160.494 17.0807 160.27 17.762 159.962 18.406C159.663 19.0593 159.276 19.6613 158.8 20.212H157.652C158.081 19.624 158.44 18.9987 158.73 18.336C159.019 17.6827 159.238 17.0013 159.388 16.292C159.537 15.5827 159.612 14.8687 159.612 14.15C159.612 13.4127 159.537 12.6847 159.388 11.966C159.238 11.2473 159.019 10.552 158.73 9.88C158.44 9.208 158.076 8.58267 157.638 8.004H158.8C159.276 8.564 159.663 9.17533 159.962 9.838C160.27 10.5007 160.494 11.196 160.634 11.924C160.783 12.652 160.858 13.3987 160.858 14.164Z" fill="white"/>
<path d="M196.925 12.988C196.925 13.8 196.864 14.5233 196.743 15.158C196.621 15.7927 196.425 16.334 196.155 16.782C195.893 17.2207 195.548 17.5567 195.119 17.79C194.699 18.0233 194.19 18.14 193.593 18.14C192.846 18.14 192.225 17.9347 191.731 17.524C191.245 17.1133 190.881 16.5253 190.639 15.76C190.405 14.9853 190.289 14.0613 190.289 12.988C190.289 11.9053 190.396 10.9813 190.611 10.216C190.835 9.45067 191.189 8.86733 191.675 8.466C192.16 8.05533 192.799 7.85 193.593 7.85C194.339 7.85 194.96 8.05533 195.455 8.466C195.949 8.86733 196.318 9.45067 196.561 10.216C196.803 10.9813 196.925 11.9053 196.925 12.988ZM191.521 12.988C191.521 13.9027 191.586 14.6633 191.717 15.27C191.857 15.8767 192.076 16.334 192.375 16.642C192.683 16.9407 193.089 17.09 193.593 17.09C194.097 17.09 194.498 16.9407 194.797 16.642C195.105 16.3433 195.329 15.8907 195.469 15.284C195.609 14.668 195.679 13.9027 195.679 12.988C195.679 12.0733 195.609 11.3173 195.469 10.72C195.329 10.1133 195.105 9.66067 194.797 9.362C194.498 9.054 194.097 8.9 193.593 8.9C193.089 8.9 192.683 9.054 192.375 9.362C192.076 9.66067 191.857 10.1133 191.717 10.72C191.586 11.3173 191.521 12.0733 191.521 12.988ZM200.582 14.164L197.992 10.496H199.392L201.324 13.324L203.242 10.496H204.628L202.038 14.164L204.768 18H203.368L201.324 15.004L199.252 18H197.866L200.582 14.164ZM212.654 18L211.45 14.906H207.488L206.298 18H205.024L208.93 7.962H210.064L213.956 18H212.654ZM209.952 10.762C209.924 10.6873 209.878 10.552 209.812 10.356C209.747 10.16 209.682 9.95933 209.616 9.754C209.56 9.53933 209.514 9.376 209.476 9.264C209.43 9.45067 209.378 9.642 209.322 9.838C209.276 10.0247 209.224 10.1973 209.168 10.356C209.122 10.5147 209.08 10.65 209.042 10.762L207.908 13.786H211.072L209.952 10.762ZM214.736 13.73C214.736 13.1513 214.773 12.582 214.848 12.022C214.932 11.462 215.072 10.9347 215.268 10.44C215.464 9.936 215.734 9.49267 216.08 9.11C216.425 8.718 216.859 8.41467 217.382 8.2C217.914 7.976 218.558 7.864 219.314 7.864C219.51 7.864 219.724 7.87333 219.958 7.892C220.2 7.91067 220.396 7.94333 220.546 7.99V9.04C220.378 8.984 220.186 8.942 219.972 8.914C219.766 8.886 219.556 8.872 219.342 8.872C218.698 8.872 218.161 8.97933 217.732 9.194C217.302 9.40867 216.962 9.70267 216.71 10.076C216.467 10.4493 216.29 10.8787 216.178 11.364C216.066 11.8493 215.996 12.3673 215.968 12.918H216.052C216.192 12.694 216.369 12.4933 216.584 12.316C216.798 12.1387 217.055 11.9987 217.354 11.896C217.662 11.7933 218.016 11.742 218.418 11.742C218.996 11.742 219.5 11.8633 219.93 12.106C220.368 12.3393 220.709 12.6847 220.952 13.142C221.194 13.59 221.316 14.136 221.316 14.78C221.316 15.4707 221.185 16.068 220.924 16.572C220.662 17.076 220.294 17.4633 219.818 17.734C219.351 18.0047 218.791 18.14 218.138 18.14C217.662 18.14 217.218 18.0513 216.808 17.874C216.397 17.6967 216.033 17.426 215.716 17.062C215.408 16.698 215.165 16.2407 214.988 15.69C214.82 15.13 214.736 14.4767 214.736 13.73ZM218.124 17.104C218.712 17.104 219.188 16.9173 219.552 16.544C219.916 16.1613 220.098 15.5733 220.098 14.78C220.098 14.1453 219.934 13.6413 219.608 13.268C219.29 12.8947 218.81 12.708 218.166 12.708C217.727 12.708 217.344 12.8013 217.018 12.988C216.691 13.1653 216.434 13.394 216.248 13.674C216.07 13.954 215.982 14.2433 215.982 14.542C215.982 14.85 216.024 15.1533 216.108 15.452C216.201 15.7507 216.336 16.026 216.514 16.278C216.7 16.53 216.924 16.7307 217.186 16.88C217.456 17.0293 217.769 17.104 218.124 17.104ZM225.828 11.868C226.509 11.868 227.102 11.9847 227.606 12.218C228.11 12.4513 228.497 12.7873 228.768 13.226C229.048 13.6553 229.188 14.1827 229.188 14.808C229.188 15.4987 229.038 16.096 228.74 16.6C228.441 17.0947 228.012 17.4773 227.452 17.748C226.901 18.0093 226.234 18.14 225.45 18.14C224.936 18.14 224.451 18.0933 223.994 18C223.546 17.9067 223.168 17.7713 222.86 17.594V16.432C223.196 16.6373 223.602 16.8007 224.078 16.922C224.563 17.034 225.025 17.09 225.464 17.09C225.958 17.09 226.388 17.0153 226.752 16.866C227.125 16.7073 227.414 16.4693 227.62 16.152C227.825 15.8253 227.928 15.4193 227.928 14.934C227.928 14.2807 227.727 13.7813 227.326 13.436C226.924 13.0813 226.29 12.904 225.422 12.904C225.16 12.904 224.862 12.9273 224.526 12.974C224.19 13.0207 223.919 13.0673 223.714 13.114L223.098 12.722L223.476 8.004H228.488V9.124H224.526L224.288 12.022C224.446 11.994 224.661 11.9613 224.932 11.924C225.202 11.8867 225.501 11.868 225.828 11.868ZM234.959 18H233.755V11.014C233.755 10.7433 233.755 10.5147 233.755 10.328C233.765 10.1413 233.774 9.96867 233.783 9.81C233.793 9.642 233.802 9.46933 233.811 9.292C233.662 9.44133 233.527 9.56733 233.405 9.67C233.284 9.77267 233.13 9.90333 232.943 10.062L231.879 10.93L231.235 10.104L233.937 8.004H234.959V18ZM241.851 11.868C242.532 11.868 243.125 11.9847 243.629 12.218C244.133 12.4513 244.52 12.7873 244.791 13.226C245.071 13.6553 245.211 14.1827 245.211 14.808C245.211 15.4987 245.062 16.096 244.763 16.6C244.464 17.0947 244.035 17.4773 243.475 17.748C242.924 18.0093 242.257 18.14 241.473 18.14C240.96 18.14 240.474 18.0933 240.017 18C239.569 17.9067 239.191 17.7713 238.883 17.594V16.432C239.219 16.6373 239.625 16.8007 240.101 16.922C240.586 17.034 241.048 17.09 241.487 17.09C241.982 17.09 242.411 17.0153 242.775 16.866C243.148 16.7073 243.438 16.4693 243.643 16.152C243.848 15.8253 243.951 15.4193 243.951 14.934C243.951 14.2807 243.75 13.7813 243.349 13.436C242.948 13.0813 242.313 12.904 241.445 12.904C241.184 12.904 240.885 12.9273 240.549 12.974C240.213 13.0207 239.942 13.0673 239.737 13.114L239.121 12.722L239.499 8.004H244.511V9.124H240.549L240.311 12.022C240.47 11.994 240.684 11.9613 240.955 11.924C241.226 11.8867 241.524 11.868 241.851 11.868ZM253.335 12.988C253.335 13.8 253.274 14.5233 253.153 15.158C253.031 15.7927 252.835 16.334 252.565 16.782C252.303 17.2207 251.958 17.5567 251.529 17.79C251.109 18.0233 250.6 18.14 250.003 18.14C249.256 18.14 248.635 17.9347 248.141 17.524C247.655 17.1133 247.291 16.5253 247.049 15.76C246.815 14.9853 246.699 14.0613 246.699 12.988C246.699 11.9053 246.806 10.9813 247.021 10.216C247.245 9.45067 247.599 8.86733 248.085 8.466C248.57 8.05533 249.209 7.85 250.003 7.85C250.749 7.85 251.37 8.05533 251.865 8.466C252.359 8.86733 252.728 9.45067 252.971 10.216C253.213 10.9813 253.335 11.9053 253.335 12.988ZM247.931 12.988C247.931 13.9027 247.996 14.6633 248.127 15.27C248.267 15.8767 248.486 16.334 248.785 16.642C249.093 16.9407 249.499 17.09 250.003 17.09C250.507 17.09 250.908 16.9407 251.207 16.642C251.515 16.3433 251.739 15.8907 251.879 15.284C252.019 14.668 252.089 13.9027 252.089 12.988C252.089 12.0733 252.019 11.3173 251.879 10.72C251.739 10.1133 251.515 9.66067 251.207 9.362C250.908 9.054 250.507 8.9 250.003 8.9C249.499 8.9 249.093 9.054 248.785 9.362C248.486 9.66067 248.267 10.1133 248.127 10.72C247.996 11.3173 247.931 12.0733 247.931 12.988ZM254.794 13.73C254.794 13.1513 254.832 12.582 254.906 12.022C254.99 11.462 255.13 10.9347 255.326 10.44C255.522 9.936 255.793 9.49267 256.138 9.11C256.484 8.718 256.918 8.41467 257.44 8.2C257.972 7.976 258.616 7.864 259.372 7.864C259.568 7.864 259.783 7.87333 260.016 7.892C260.259 7.91067 260.455 7.94333 260.604 7.99V9.04C260.436 8.984 260.245 8.942 260.03 8.914C259.825 8.886 259.615 8.872 259.4 8.872C258.756 8.872 258.22 8.97933 257.79 9.194C257.361 9.40867 257.02 9.70267 256.768 10.076C256.526 10.4493 256.348 10.8787 256.236 11.364C256.124 11.8493 256.054 12.3673 256.026 12.918H256.11C256.25 12.694 256.428 12.4933 256.642 12.316C256.857 12.1387 257.114 11.9987 257.412 11.896C257.72 11.7933 258.075 11.742 258.476 11.742C259.055 11.742 259.559 11.8633 259.988 12.106C260.427 12.3393 260.768 12.6847 261.01 13.142C261.253 13.59 261.374 14.136 261.374 14.78C261.374 15.4707 261.244 16.068 260.982 16.572C260.721 17.076 260.352 17.4633 259.876 17.734C259.41 18.0047 258.85 18.14 258.196 18.14C257.72 18.14 257.277 18.0513 256.866 17.874C256.456 17.6967 256.092 17.426 255.774 17.062C255.466 16.698 255.224 16.2407 255.046 15.69C254.878 15.13 254.794 14.4767 254.794 13.73ZM258.182 17.104C258.77 17.104 259.246 16.9173 259.61 16.544C259.974 16.1613 260.156 15.5733 260.156 14.78C260.156 14.1453 259.993 13.6413 259.666 13.268C259.349 12.8947 258.868 12.708 258.224 12.708C257.786 12.708 257.403 12.8013 257.076 12.988C256.75 13.1653 256.493 13.394 256.306 13.674C256.129 13.954 256.04 14.2433 256.04 14.542C256.04 14.85 256.082 15.1533 256.166 15.452C256.26 15.7507 256.395 16.026 256.572 16.278C256.759 16.53 256.983 16.7307 257.244 16.88C257.515 17.0293 257.828 17.104 258.182 17.104ZM265.886 11.868C266.567 11.868 267.16 11.9847 267.664 12.218C268.168 12.4513 268.555 12.7873 268.826 13.226C269.106 13.6553 269.246 14.1827 269.246 14.808C269.246 15.4987 269.097 16.096 268.798 16.6C268.499 17.0947 268.07 17.4773 267.51 17.748C266.959 18.0093 266.292 18.14 265.508 18.14C264.995 18.14 264.509 18.0933 264.052 18C263.604 17.9067 263.226 17.7713 262.918 17.594V16.432C263.254 16.6373 263.66 16.8007 264.136 16.922C264.621 17.034 265.083 17.09 265.522 17.09C266.017 17.09 266.446 17.0153 266.81 16.866C267.183 16.7073 267.473 16.4693 267.678 16.152C267.883 15.8253 267.986 15.4193 267.986 14.934C267.986 14.2807 267.785 13.7813 267.384 13.436C266.983 13.0813 266.348 12.904 265.48 12.904C265.219 12.904 264.92 12.9273 264.584 12.974C264.248 13.0207 263.977 13.0673 263.772 13.114L263.156 12.722L263.534 8.004H268.546V9.124H264.584L264.346 12.022C264.505 11.994 264.719 11.9613 264.99 11.924C265.261 11.8867 265.559 11.868 265.886 11.868ZM274.038 7.864C274.626 7.864 275.144 7.95733 275.592 8.144C276.04 8.32133 276.39 8.58733 276.642 8.942C276.903 9.29667 277.034 9.73533 277.034 10.258C277.034 10.6593 276.945 11.0093 276.768 11.308C276.6 11.6067 276.371 11.8727 276.082 12.106C275.793 12.33 275.475 12.5307 275.13 12.708C275.541 12.904 275.914 13.128 276.25 13.38C276.586 13.6227 276.852 13.9073 277.048 14.234C277.253 14.5607 277.356 14.9527 277.356 15.41C277.356 15.97 277.221 16.4553 276.95 16.866C276.679 17.2673 276.297 17.58 275.802 17.804C275.317 18.028 274.743 18.14 274.08 18.14C273.361 18.14 272.75 18.0327 272.246 17.818C271.751 17.6033 271.373 17.3 271.112 16.908C270.86 16.5067 270.734 16.0213 270.734 15.452C270.734 14.9947 270.827 14.598 271.014 14.262C271.21 13.926 271.467 13.6367 271.784 13.394C272.101 13.1513 272.442 12.946 272.806 12.778C272.479 12.5913 272.181 12.3813 271.91 12.148C271.649 11.9053 271.439 11.63 271.28 11.322C271.131 11.014 271.056 10.6547 271.056 10.244C271.056 9.73067 271.187 9.30133 271.448 8.956C271.709 8.60133 272.064 8.33067 272.512 8.144C272.96 7.95733 273.469 7.864 274.038 7.864ZM271.938 15.466C271.938 15.9513 272.111 16.3573 272.456 16.684C272.801 17.0013 273.333 17.16 274.052 17.16C274.509 17.16 274.892 17.0853 275.2 16.936C275.508 16.7867 275.741 16.5813 275.9 16.32C276.068 16.0587 276.152 15.76 276.152 15.424C276.152 15.0973 276.063 14.8127 275.886 14.57C275.718 14.318 275.475 14.094 275.158 13.898C274.85 13.702 274.481 13.5247 274.052 13.366L273.828 13.282C273.417 13.4593 273.072 13.6507 272.792 13.856C272.512 14.0613 272.297 14.2947 272.148 14.556C272.008 14.8173 271.938 15.1207 271.938 15.466ZM274.024 8.858C273.511 8.858 273.086 8.984 272.75 9.236C272.423 9.47867 272.26 9.83333 272.26 10.3C272.26 10.6453 272.339 10.9347 272.498 11.168C272.666 11.4013 272.89 11.602 273.17 11.77C273.45 11.9287 273.758 12.0827 274.094 12.232C274.421 12.092 274.71 11.938 274.962 11.77C275.223 11.602 275.429 11.4013 275.578 11.168C275.737 10.9253 275.816 10.636 275.816 10.3C275.816 9.83333 275.653 9.47867 275.326 9.236C274.999 8.984 274.565 8.858 274.024 8.858ZM282.26 18.14C281.597 18.14 281.004 18.0047 280.482 17.734C279.968 17.4633 279.562 17.0433 279.264 16.474C278.974 15.9047 278.83 15.1767 278.83 14.29C278.83 13.366 278.984 12.6147 279.292 12.036C279.6 11.4573 280.015 11.0327 280.538 10.762C281.07 10.4913 281.672 10.356 282.344 10.356C282.726 10.356 283.095 10.398 283.45 10.482C283.804 10.5567 284.094 10.65 284.318 10.762L283.94 11.784C283.716 11.7 283.454 11.6207 283.156 11.546C282.857 11.4713 282.577 11.434 282.316 11.434C281.812 11.434 281.396 11.5413 281.07 11.756C280.743 11.9707 280.5 12.288 280.342 12.708C280.183 13.128 280.104 13.6507 280.104 14.276C280.104 14.8733 280.183 15.382 280.342 15.802C280.5 16.222 280.738 16.5393 281.056 16.754C281.373 16.9687 281.77 17.076 282.246 17.076C282.656 17.076 283.016 17.034 283.324 16.95C283.641 16.866 283.93 16.7633 284.192 16.642V17.734C283.94 17.8647 283.66 17.9627 283.352 18.028C283.053 18.1027 282.689 18.14 282.26 18.14ZM288.874 10.356C289.518 10.356 290.069 10.496 290.526 10.776C290.993 11.056 291.347 11.4527 291.59 11.966C291.842 12.47 291.968 13.0627 291.968 13.744V14.486H286.83C286.849 15.3353 287.063 15.984 287.474 16.432C287.894 16.8707 288.477 17.09 289.224 17.09C289.7 17.09 290.12 17.048 290.484 16.964C290.857 16.8707 291.24 16.74 291.632 16.572V17.65C291.249 17.818 290.871 17.9393 290.498 18.014C290.125 18.098 289.681 18.14 289.168 18.14C288.459 18.14 287.829 17.9953 287.278 17.706C286.737 17.4167 286.312 16.9873 286.004 16.418C285.705 15.8393 285.556 15.1347 285.556 14.304C285.556 13.4827 285.691 12.778 285.962 12.19C286.242 11.602 286.629 11.1493 287.124 10.832C287.628 10.5147 288.211 10.356 288.874 10.356ZM288.86 11.364C288.272 11.364 287.805 11.5553 287.46 11.938C287.124 12.3113 286.923 12.834 286.858 13.506H290.68C290.68 13.0767 290.615 12.7033 290.484 12.386C290.353 12.0687 290.153 11.8213 289.882 11.644C289.621 11.4573 289.28 11.364 288.86 11.364ZM299.632 18H294.046V8.004H299.632V9.11H295.306V12.232H299.38V13.324H295.306V16.894H299.632V18ZM301.238 13.73C301.238 13.1513 301.275 12.582 301.35 12.022C301.434 11.462 301.574 10.9347 301.77 10.44C301.966 9.936 302.236 9.49267 302.582 9.11C302.927 8.718 303.361 8.41467 303.884 8.2C304.416 7.976 305.06 7.864 305.816 7.864C306.012 7.864 306.226 7.87333 306.46 7.892C306.702 7.91067 306.898 7.94333 307.048 7.99V9.04C306.88 8.984 306.688 8.942 306.474 8.914C306.268 8.886 306.058 8.872 305.844 8.872C305.2 8.872 304.663 8.97933 304.234 9.194C303.804 9.40867 303.464 9.70267 303.212 10.076C302.969 10.4493 302.792 10.8787 302.68 11.364C302.568 11.8493 302.498 12.3673 302.47 12.918H302.554C302.694 12.694 302.871 12.4933 303.086 12.316C303.3 12.1387 303.557 11.9987 303.856 11.896C304.164 11.7933 304.518 11.742 304.92 11.742C305.498 11.742 306.002 11.8633 306.432 12.106C306.87 12.3393 307.211 12.6847 307.454 13.142C307.696 13.59 307.818 14.136 307.818 14.78C307.818 15.4707 307.687 16.068 307.426 16.572C307.164 17.076 306.796 17.4633 306.32 17.734C305.853 18.0047 305.293 18.14 304.64 18.14C304.164 18.14 303.72 18.0513 303.31 17.874C302.899 17.6967 302.535 17.426 302.218 17.062C301.91 16.698 301.667 16.2407 301.49 15.69C301.322 15.13 301.238 14.4767 301.238 13.73ZM304.626 17.104C305.214 17.104 305.69 16.9173 306.054 16.544C306.418 16.1613 306.6 15.5733 306.6 14.78C306.6 14.1453 306.436 13.6413 306.11 13.268C305.792 12.8947 305.312 12.708 304.668 12.708C304.229 12.708 303.846 12.8013 303.52 12.988C303.193 13.1653 302.936 13.394 302.75 13.674C302.572 13.954 302.484 14.2433 302.484 14.542C302.484 14.85 302.526 15.1533 302.61 15.452C302.703 15.7507 302.838 16.026 303.016 16.278C303.202 16.53 303.426 16.7307 303.688 16.88C303.958 17.0293 304.271 17.104 304.626 17.104ZM315.759 12.274C315.759 12.8433 315.717 13.4127 315.633 13.982C315.559 14.542 315.423 15.074 315.227 15.578C315.031 16.0727 314.761 16.516 314.415 16.908C314.07 17.2907 313.631 17.594 313.099 17.818C312.567 18.0327 311.923 18.14 311.167 18.14C310.981 18.14 310.761 18.126 310.509 18.098C310.267 18.0793 310.066 18.0467 309.907 18V16.95C310.075 17.006 310.271 17.0527 310.495 17.09C310.719 17.118 310.934 17.132 311.139 17.132C311.793 17.132 312.329 17.0247 312.749 16.81C313.179 16.5953 313.519 16.306 313.771 15.942C314.023 15.5687 314.205 15.1393 314.317 14.654C314.429 14.1593 314.495 13.6413 314.513 13.1H314.429C314.289 13.3147 314.112 13.5107 313.897 13.688C313.683 13.8653 313.421 14.0053 313.113 14.108C312.815 14.2107 312.46 14.262 312.049 14.262C311.48 14.262 310.976 14.1453 310.537 13.912C310.108 13.6693 309.772 13.324 309.529 12.876C309.296 12.428 309.179 11.882 309.179 11.238C309.179 10.538 309.31 9.936 309.571 9.432C309.842 8.928 310.215 8.54067 310.691 8.27C311.167 7.99933 311.727 7.864 312.371 7.864C312.847 7.864 313.291 7.95733 313.701 8.144C314.112 8.32133 314.471 8.592 314.779 8.956C315.087 9.32 315.325 9.77733 315.493 10.328C315.671 10.8787 315.759 11.5273 315.759 12.274ZM312.371 8.9C311.793 8.9 311.317 9.09133 310.943 9.474C310.579 9.85667 310.397 10.44 310.397 11.224C310.397 11.868 310.551 12.3767 310.859 12.75C311.177 13.114 311.662 13.296 312.315 13.296C312.763 13.296 313.151 13.2073 313.477 13.03C313.804 12.8433 314.056 12.61 314.233 12.33C314.42 12.05 314.513 11.7607 314.513 11.462C314.513 11.1633 314.467 10.8647 314.373 10.566C314.289 10.258 314.159 9.978 313.981 9.726C313.804 9.474 313.58 9.27333 313.309 9.124C313.039 8.97467 312.726 8.9 312.371 8.9ZM325.857 12.904C325.857 14.024 325.647 14.962 325.227 15.718C324.817 16.474 324.224 17.0433 323.449 17.426C322.675 17.8087 321.737 18 320.635 18H317.849V8.004H320.929C321.937 8.004 322.81 8.19067 323.547 8.564C324.285 8.93733 324.854 9.488 325.255 10.216C325.657 10.9347 325.857 11.8307 325.857 12.904ZM324.527 12.946C324.527 12.0593 324.378 11.3313 324.079 10.762C323.79 10.1927 323.361 9.77267 322.791 9.502C322.231 9.222 321.55 9.082 320.747 9.082H319.109V16.922H320.467C321.821 16.922 322.833 16.5907 323.505 15.928C324.187 15.256 324.527 14.262 324.527 12.946ZM330.806 10.356C331.45 10.356 332 10.496 332.458 10.776C332.924 11.056 333.279 11.4527 333.522 11.966C333.774 12.47 333.9 13.0627 333.9 13.744V14.486H328.762C328.78 15.3353 328.995 15.984 329.406 16.432C329.826 16.8707 330.409 17.09 331.156 17.09C331.632 17.09 332.052 17.048 332.416 16.964C332.789 16.8707 333.172 16.74 333.564 16.572V17.65C333.181 17.818 332.803 17.9393 332.43 18.014C332.056 18.098 331.613 18.14 331.1 18.14C330.39 18.14 329.76 17.9953 329.21 17.706C328.668 17.4167 328.244 16.9873 327.936 16.418C327.637 15.8393 327.488 15.1347 327.488 14.304C327.488 13.4827 327.623 12.778 327.894 12.19C328.174 11.602 328.561 11.1493 329.056 10.832C329.56 10.5147 330.143 10.356 330.806 10.356ZM330.792 11.364C330.204 11.364 329.737 11.5553 329.392 11.938C329.056 12.3113 328.855 12.834 328.79 13.506H332.612C332.612 13.0767 332.546 12.7033 332.416 12.386C332.285 12.0687 332.084 11.8213 331.814 11.644C331.552 11.4573 331.212 11.364 330.792 11.364ZM341.9 18H335.292V16.978L337.91 14.332C338.414 13.828 338.839 13.38 339.184 12.988C339.529 12.596 339.791 12.2133 339.968 11.84C340.145 11.4573 340.234 11.042 340.234 10.594C340.234 10.0433 340.071 9.628 339.744 9.348C339.417 9.05867 338.993 8.914 338.47 8.914C337.985 8.914 337.555 8.998 337.182 9.166C336.818 9.334 336.445 9.56733 336.062 9.866L335.404 9.04C335.665 8.816 335.95 8.61533 336.258 8.438C336.575 8.26067 336.916 8.12067 337.28 8.018C337.653 7.91533 338.05 7.864 338.47 7.864C339.095 7.864 339.632 7.97133 340.08 8.186C340.528 8.40067 340.873 8.70867 341.116 9.11C341.368 9.502 341.494 9.97333 341.494 10.524C341.494 10.916 341.433 11.2893 341.312 11.644C341.191 11.9893 341.018 12.33 340.794 12.666C340.57 13.002 340.299 13.3427 339.982 13.688C339.665 14.0333 339.315 14.3927 338.932 14.766L336.846 16.824V16.88H341.9V18ZM350.36 15.732H348.904V18H347.714V15.732H342.926V14.682L347.63 7.948H348.904V14.626H350.36V15.732ZM347.714 11.476C347.714 11.2333 347.714 11.014 347.714 10.818C347.723 10.6127 347.733 10.4213 347.742 10.244C347.751 10.0667 347.756 9.89867 347.756 9.74C347.765 9.572 347.775 9.41333 347.784 9.264H347.728C347.653 9.44133 347.56 9.63267 347.448 9.838C347.336 10.0433 347.229 10.216 347.126 10.356L344.13 14.626H347.714V11.476ZM354.844 18.14C354.181 18.14 353.588 18.0047 353.066 17.734C352.552 17.4633 352.146 17.0433 351.848 16.474C351.558 15.9047 351.414 15.1767 351.414 14.29C351.414 13.366 351.568 12.6147 351.876 12.036C352.184 11.4573 352.599 11.0327 353.122 10.762C353.654 10.4913 354.256 10.356 354.928 10.356C355.31 10.356 355.679 10.398 356.034 10.482C356.388 10.5567 356.678 10.65 356.902 10.762L356.524 11.784C356.3 11.7 356.038 11.6207 355.74 11.546C355.441 11.4713 355.161 11.434 354.9 11.434C354.396 11.434 353.98 11.5413 353.654 11.756C353.327 11.9707 353.084 12.288 352.926 12.708C352.767 13.128 352.688 13.6507 352.688 14.276C352.688 14.8733 352.767 15.382 352.926 15.802C353.084 16.222 353.322 16.5393 353.64 16.754C353.957 16.9687 354.354 17.076 354.83 17.076C355.24 17.076 355.6 17.034 355.908 16.95C356.225 16.866 356.514 16.7633 356.776 16.642V17.734C356.524 17.8647 356.244 17.9627 355.936 18.028C355.637 18.1027 355.273 18.14 354.844 18.14ZM364.272 10.342C364.272 10.79 364.188 11.1773 364.02 11.504C363.852 11.8307 363.609 12.0967 363.292 12.302C362.984 12.5073 362.62 12.652 362.2 12.736V12.792C363.003 12.8853 363.6 13.1373 363.992 13.548C364.384 13.9587 364.58 14.4953 364.58 15.158C364.58 15.7367 364.445 16.2547 364.174 16.712C363.903 17.16 363.483 17.51 362.914 17.762C362.354 18.014 361.631 18.14 360.744 18.14C360.221 18.14 359.736 18.098 359.288 18.014C358.84 17.9393 358.411 17.7993 358 17.594V16.446C358.42 16.6513 358.873 16.8147 359.358 16.936C359.843 17.048 360.31 17.104 360.758 17.104C361.654 17.104 362.298 16.9313 362.69 16.586C363.091 16.2313 363.292 15.746 363.292 15.13C363.292 14.71 363.18 14.374 362.956 14.122C362.741 13.8607 362.424 13.6693 362.004 13.548C361.584 13.4267 361.08 13.366 360.492 13.366H359.526V12.316H360.506C361.057 12.316 361.514 12.2367 361.878 12.078C362.251 11.9193 362.531 11.7 362.718 11.42C362.914 11.1307 363.012 10.7993 363.012 10.426C363.012 9.94067 362.849 9.56733 362.522 9.306C362.195 9.03533 361.752 8.9 361.192 8.9C360.837 8.9 360.515 8.93733 360.226 9.012C359.937 9.07733 359.666 9.17533 359.414 9.306C359.171 9.42733 358.924 9.572 358.672 9.74L358.056 8.9C358.299 8.71333 358.574 8.54067 358.882 8.382C359.199 8.22333 359.549 8.09733 359.932 8.004C360.315 7.91067 360.73 7.864 361.178 7.864C362.223 7.864 362.998 8.09733 363.502 8.564C364.015 9.03067 364.272 9.62333 364.272 10.342ZM369.232 11.868C369.913 11.868 370.506 11.9847 371.01 12.218C371.514 12.4513 371.901 12.7873 372.172 13.226C372.452 13.6553 372.592 14.1827 372.592 14.808C372.592 15.4987 372.443 16.096 372.144 16.6C371.845 17.0947 371.416 17.4773 370.856 17.748C370.305 18.0093 369.638 18.14 368.854 18.14C368.341 18.14 367.855 18.0933 367.398 18C366.95 17.9067 366.572 17.7713 366.264 17.594V16.432C366.6 16.6373 367.006 16.8007 367.482 16.922C367.967 17.034 368.429 17.09 368.868 17.09C369.363 17.09 369.792 17.0153 370.156 16.866C370.529 16.7073 370.819 16.4693 371.024 16.152C371.229 15.8253 371.332 15.4193 371.332 14.934C371.332 14.2807 371.131 13.7813 370.73 13.436C370.329 13.0813 369.694 12.904 368.826 12.904C368.565 12.904 368.266 12.9273 367.93 12.974C367.594 13.0207 367.323 13.0673 367.118 13.114L366.502 12.722L366.88 8.004H371.892V9.124H367.93L367.692 12.022C367.851 11.994 368.065 11.9613 368.336 11.924C368.607 11.8867 368.905 11.868 369.232 11.868ZM377.244 11.868C377.925 11.868 378.518 11.9847 379.022 12.218C379.526 12.4513 379.913 12.7873 380.184 13.226C380.464 13.6553 380.604 14.1827 380.604 14.808C380.604 15.4987 380.454 16.096 380.156 16.6C379.857 17.0947 379.428 17.4773 378.868 17.748C378.317 18.0093 377.65 18.14 376.866 18.14C376.352 18.14 375.867 18.0933 375.41 18C374.962 17.9067 374.584 17.7713 374.276 17.594V16.432C374.612 16.6373 375.018 16.8007 375.494 16.922C375.979 17.034 376.441 17.09 376.88 17.09C377.374 17.09 377.804 17.0153 378.168 16.866C378.541 16.7073 378.83 16.4693 379.036 16.152C379.241 15.8253 379.344 15.4193 379.344 14.934C379.344 14.2807 379.143 13.7813 378.742 13.436C378.34 13.0813 377.706 12.904 376.838 12.904C376.576 12.904 376.278 12.9273 375.942 12.974C375.606 13.0207 375.335 13.0673 375.13 13.114L374.514 12.722L374.892 8.004H379.904V9.124H375.942L375.704 12.022C375.862 11.994 376.077 11.9613 376.348 11.924C376.618 11.8867 376.917 11.868 377.244 11.868ZM389.133 15.732H387.677V18H386.487V15.732H381.699V14.682L386.403 7.948H387.677V14.626H389.133V15.732ZM386.487 11.476C386.487 11.2333 386.487 11.014 386.487 10.818C386.497 10.6127 386.506 10.4213 386.515 10.244C386.525 10.0667 386.529 9.89867 386.529 9.74C386.539 9.572 386.548 9.41333 386.557 9.264H386.501C386.427 9.44133 386.333 9.63267 386.221 9.838C386.109 10.0433 386.002 10.216 385.899 10.356L382.903 14.626H386.487V11.476ZM390.187 13.73C390.187 13.1513 390.224 12.582 390.299 12.022C390.383 11.462 390.523 10.9347 390.719 10.44C390.915 9.936 391.186 9.49267 391.531 9.11C391.876 8.718 392.31 8.41467 392.833 8.2C393.365 7.976 394.009 7.864 394.765 7.864C394.961 7.864 395.176 7.87333 395.409 7.892C395.652 7.91067 395.848 7.94333 395.997 7.99V9.04C395.829 8.984 395.638 8.942 395.423 8.914C395.218 8.886 395.008 8.872 394.793 8.872C394.149 8.872 393.612 8.97933 393.183 9.194C392.754 9.40867 392.413 9.70267 392.161 10.076C391.918 10.4493 391.741 10.8787 391.629 11.364C391.517 11.8493 391.447 12.3673 391.419 12.918H391.503C391.643 12.694 391.82 12.4933 392.035 12.316C392.25 12.1387 392.506 11.9987 392.805 11.896C393.113 11.7933 393.468 11.742 393.869 11.742C394.448 11.742 394.952 11.8633 395.381 12.106C395.82 12.3393 396.16 12.6847 396.403 13.142C396.646 13.59 396.767 14.136 396.767 14.78C396.767 15.4707 396.636 16.068 396.375 16.572C396.114 17.076 395.745 17.4633 395.269 17.734C394.802 18.0047 394.242 18.14 393.589 18.14C393.113 18.14 392.67 18.0513 392.259 17.874C391.848 17.6967 391.484 17.426 391.167 17.062C390.859 16.698 390.616 16.2407 390.439 15.69C390.271 15.13 390.187 14.4767 390.187 13.73ZM393.575 17.104C394.163 17.104 394.639 16.9173 395.003 16.544C395.367 16.1613 395.549 15.5733 395.549 14.78C395.549 14.1453 395.386 13.6413 395.059 13.268C394.742 12.8947 394.261 12.708 393.617 12.708C393.178 12.708 392.796 12.8013 392.469 12.988C392.142 13.1653 391.886 13.394 391.699 13.674C391.522 13.954 391.433 14.2433 391.433 14.542C391.433 14.85 391.475 15.1533 391.559 15.452C391.652 15.7507 391.788 16.026 391.965 16.278C392.152 16.53 392.376 16.7307 392.637 16.88C392.908 17.0293 393.22 17.104 393.575 17.104ZM404.709 18H398.101V16.978L400.719 14.332C401.223 13.828 401.647 13.38 401.993 12.988C402.338 12.596 402.599 12.2133 402.777 11.84C402.954 11.4573 403.043 11.042 403.043 10.594C403.043 10.0433 402.879 9.628 402.553 9.348C402.226 9.05867 401.801 8.914 401.279 8.914C400.793 8.914 400.364 8.998 399.991 9.166C399.627 9.334 399.253 9.56733 398.871 9.866L398.213 9.04C398.474 8.816 398.759 8.61533 399.067 8.438C399.384 8.26067 399.725 8.12067 400.089 8.018C400.462 7.91533 400.859 7.864 401.279 7.864C401.904 7.864 402.441 7.97133 402.889 8.186C403.337 8.40067 403.682 8.70867 403.925 9.11C404.177 9.502 404.303 9.97333 404.303 10.524C404.303 10.916 404.242 11.2893 404.121 11.644C403.999 11.9893 403.827 12.33 403.603 12.666C403.379 13.002 403.108 13.3427 402.791 13.688C402.473 14.0333 402.123 14.3927 401.741 14.766L399.655 16.824V16.88H404.709V18ZM406.21 13.73C406.21 13.1513 406.248 12.582 406.322 12.022C406.406 11.462 406.546 10.9347 406.742 10.44C406.938 9.936 407.209 9.49267 407.554 9.11C407.9 8.718 408.334 8.41467 408.856 8.2C409.388 7.976 410.032 7.864 410.788 7.864C410.984 7.864 411.199 7.87333 411.432 7.892C411.675 7.91067 411.871 7.94333 412.02 7.99V9.04C411.852 8.984 411.661 8.942 411.446 8.914C411.241 8.886 411.031 8.872 410.816 8.872C410.172 8.872 409.636 8.97933 409.206 9.194C408.777 9.40867 408.436 9.70267 408.184 10.076C407.942 10.4493 407.764 10.8787 407.652 11.364C407.54 11.8493 407.47 12.3673 407.442 12.918H407.526C407.666 12.694 407.844 12.4933 408.058 12.316C408.273 12.1387 408.53 11.9987 408.828 11.896C409.136 11.7933 409.491 11.742 409.892 11.742C410.471 11.742 410.975 11.8633 411.404 12.106C411.843 12.3393 412.184 12.6847 412.426 13.142C412.669 13.59 412.79 14.136 412.79 14.78C412.79 15.4707 412.66 16.068 412.398 16.572C412.137 17.076 411.768 17.4633 411.292 17.734C410.826 18.0047 410.266 18.14 409.612 18.14C409.136 18.14 408.693 18.0513 408.282 17.874C407.872 17.6967 407.508 17.426 407.19 17.062C406.882 16.698 406.64 16.2407 406.462 15.69C406.294 15.13 406.21 14.4767 406.21 13.73ZM409.598 17.104C410.186 17.104 410.662 16.9173 411.026 16.544C411.39 16.1613 411.572 15.5733 411.572 14.78C411.572 14.1453 411.409 13.6413 411.082 13.268C410.765 12.8947 410.284 12.708 409.64 12.708C409.202 12.708 408.819 12.8013 408.492 12.988C408.166 13.1653 407.909 13.394 407.722 13.674C407.545 13.954 407.456 14.2433 407.456 14.542C407.456 14.85 407.498 15.1533 407.582 15.452C407.676 15.7507 407.811 16.026 407.988 16.278C408.175 16.53 408.399 16.7307 408.66 16.88C408.931 17.0293 409.244 17.104 409.598 17.104ZM420.354 10.342C420.354 10.79 420.27 11.1773 420.102 11.504C419.934 11.8307 419.691 12.0967 419.374 12.302C419.066 12.5073 418.702 12.652 418.282 12.736V12.792C419.085 12.8853 419.682 13.1373 420.074 13.548C420.466 13.9587 420.662 14.4953 420.662 15.158C420.662 15.7367 420.527 16.2547 420.256 16.712C419.985 17.16 419.565 17.51 418.996 17.762C418.436 18.014 417.713 18.14 416.826 18.14C416.303 18.14 415.818 18.098 415.37 18.014C414.922 17.9393 414.493 17.7993 414.082 17.594V16.446C414.502 16.6513 414.955 16.8147 415.44 16.936C415.925 17.048 416.392 17.104 416.84 17.104C417.736 17.104 418.38 16.9313 418.772 16.586C419.173 16.2313 419.374 15.746 419.374 15.13C419.374 14.71 419.262 14.374 419.038 14.122C418.823 13.8607 418.506 13.6693 418.086 13.548C417.666 13.4267 417.162 13.366 416.574 13.366H415.608V12.316H416.588C417.139 12.316 417.596 12.2367 417.96 12.078C418.333 11.9193 418.613 11.7 418.8 11.42C418.996 11.1307 419.094 10.7993 419.094 10.426C419.094 9.94067 418.931 9.56733 418.604 9.306C418.277 9.03533 417.834 8.9 417.274 8.9C416.919 8.9 416.597 8.93733 416.308 9.012C416.019 9.07733 415.748 9.17533 415.496 9.306C415.253 9.42733 415.006 9.572 414.754 9.74L414.138 8.9C414.381 8.71333 414.656 8.54067 414.964 8.382C415.281 8.22333 415.631 8.09733 416.014 8.004C416.397 7.91067 416.812 7.864 417.26 7.864C418.305 7.864 419.08 8.09733 419.584 8.564C420.097 9.03067 420.354 9.62333 420.354 10.342ZM426.112 11.448H424.222V18H422.99V11.448H421.674V10.874L422.99 10.454V10.02C422.99 9.376 423.083 8.85333 423.27 8.452C423.466 8.05067 423.746 7.75667 424.11 7.57C424.474 7.38333 424.913 7.29 425.426 7.29C425.725 7.29 425.995 7.318 426.238 7.374C426.49 7.42067 426.705 7.47667 426.882 7.542L426.56 8.508C426.411 8.46133 426.238 8.41467 426.042 8.368C425.846 8.32133 425.645 8.298 425.44 8.298C425.029 8.298 424.721 8.438 424.516 8.718C424.32 8.98867 424.222 9.418 424.222 10.006V10.496H426.112V11.448ZM433.598 12.988C433.598 13.8 433.538 14.5233 433.416 15.158C433.295 15.7927 433.099 16.334 432.828 16.782C432.567 17.2207 432.222 17.5567 431.792 17.79C431.372 18.0233 430.864 18.14 430.266 18.14C429.52 18.14 428.899 17.9347 428.404 17.524C427.919 17.1133 427.555 16.5253 427.312 15.76C427.079 14.9853 426.962 14.0613 426.962 12.988C426.962 11.9053 427.07 10.9813 427.284 10.216C427.508 9.45067 427.863 8.86733 428.348 8.466C428.834 8.05533 429.473 7.85 430.266 7.85C431.013 7.85 431.634 8.05533 432.128 8.466C432.623 8.86733 432.992 9.45067 433.234 10.216C433.477 10.9813 433.598 11.9053 433.598 12.988ZM428.194 12.988C428.194 13.9027 428.26 14.6633 428.39 15.27C428.53 15.8767 428.75 16.334 429.048 16.642C429.356 16.9407 429.762 17.09 430.266 17.09C430.77 17.09 431.172 16.9407 431.47 16.642C431.778 16.3433 432.002 15.8907 432.142 15.284C432.282 14.668 432.352 13.9027 432.352 12.988C432.352 12.0733 432.282 11.3173 432.142 10.72C432.002 10.1133 431.778 9.66067 431.47 9.362C431.172 9.054 430.77 8.9 430.266 8.9C429.762 8.9 429.356 9.054 429.048 9.362C428.75 9.66067 428.53 10.1133 428.39 10.72C428.26 11.3173 428.194 12.0733 428.194 12.988ZM435.058 13.73C435.058 13.1513 435.095 12.582 435.17 12.022C435.254 11.462 435.394 10.9347 435.59 10.44C435.786 9.936 436.057 9.49267 436.402 9.11C436.747 8.718 437.181 8.41467 437.704 8.2C438.236 7.976 438.88 7.864 439.636 7.864C439.832 7.864 440.047 7.87333 440.28 7.892C440.523 7.91067 440.719 7.94333 440.868 7.99V9.04C440.7 8.984 440.509 8.942 440.294 8.914C440.089 8.886 439.879 8.872 439.664 8.872C439.02 8.872 438.483 8.97933 438.054 9.194C437.625 9.40867 437.284 9.70267 437.032 10.076C436.789 10.4493 436.612 10.8787 436.5 11.364C436.388 11.8493 436.318 12.3673 436.29 12.918H436.374C436.514 12.694 436.691 12.4933 436.906 12.316C437.121 12.1387 437.377 11.9987 437.676 11.896C437.984 11.7933 438.339 11.742 438.74 11.742C439.319 11.742 439.823 11.8633 440.252 12.106C440.691 12.3393 441.031 12.6847 441.274 13.142C441.517 13.59 441.638 14.136 441.638 14.78C441.638 15.4707 441.507 16.068 441.246 16.572C440.985 17.076 440.616 17.4633 440.14 17.734C439.673 18.0047 439.113 18.14 438.46 18.14C437.984 18.14 437.541 18.0513 437.13 17.874C436.719 17.6967 436.355 17.426 436.038 17.062C435.73 16.698 435.487 16.2407 435.31 15.69C435.142 15.13 435.058 14.4767 435.058 13.73ZM438.446 17.104C439.034 17.104 439.51 16.9173 439.874 16.544C440.238 16.1613 440.42 15.5733 440.42 14.78C440.42 14.1453 440.257 13.6413 439.93 13.268C439.613 12.8947 439.132 12.708 438.488 12.708C438.049 12.708 437.667 12.8013 437.34 12.988C437.013 13.1653 436.757 13.394 436.57 13.674C436.393 13.954 436.304 14.2433 436.304 14.542C436.304 14.85 436.346 15.1533 436.43 15.452C436.523 15.7507 436.659 16.026 436.836 16.278C437.023 16.53 437.247 16.7307 437.508 16.88C437.779 17.0293 438.091 17.104 438.446 17.104ZM449.93 18L448.726 14.906H444.764L443.574 18H442.3L446.206 7.962H447.34L451.232 18H449.93ZM447.228 10.762C447.2 10.6873 447.153 10.552 447.088 10.356C447.022 10.16 446.957 9.95933 446.892 9.754C446.836 9.53933 446.789 9.376 446.752 9.264C446.705 9.45067 446.654 9.642 446.598 9.838C446.551 10.0247 446.5 10.1973 446.444 10.356C446.397 10.5147 446.355 10.65 446.318 10.762L445.184 13.786H448.348L447.228 10.762ZM458.521 18H451.913V16.978L454.531 14.332C455.035 13.828 455.46 13.38 455.805 12.988C456.151 12.596 456.412 12.2133 456.589 11.84C456.767 11.4573 456.855 11.042 456.855 10.594C456.855 10.0433 456.692 9.628 456.365 9.348C456.039 9.05867 455.614 8.914 455.091 8.914C454.606 8.914 454.177 8.998 453.803 9.166C453.439 9.334 453.066 9.56733 452.683 9.866L452.025 9.04C452.287 8.816 452.571 8.61533 452.879 8.438C453.197 8.26067 453.537 8.12067 453.901 8.018C454.275 7.91533 454.671 7.864 455.091 7.864C455.717 7.864 456.253 7.97133 456.701 8.186C457.149 8.40067 457.495 8.70867 457.737 9.11C457.989 9.502 458.115 9.97333 458.115 10.524C458.115 10.916 458.055 11.2893 457.933 11.644C457.812 11.9893 457.639 12.33 457.415 12.666C457.191 13.002 456.921 13.3427 456.603 13.688C456.286 14.0333 455.936 14.3927 455.553 14.766L453.467 16.824V16.88H458.521V18ZM464.223 18H463.019V11.014C463.019 10.7433 463.019 10.5147 463.019 10.328C463.028 10.1413 463.038 9.96867 463.047 9.81C463.056 9.642 463.066 9.46933 463.075 9.292C462.926 9.44133 462.79 9.56733 462.669 9.67C462.548 9.77267 462.394 9.90333 462.207 10.062L461.143 10.93L460.499 10.104L463.201 8.004H464.223V18ZM474.587 12.988C474.587 13.8 474.526 14.5233 474.405 15.158C474.283 15.7927 474.087 16.334 473.817 16.782C473.555 17.2207 473.21 17.5567 472.781 17.79C472.361 18.0233 471.852 18.14 471.255 18.14C470.508 18.14 469.887 17.9347 469.393 17.524C468.907 17.1133 468.543 16.5253 468.301 15.76C468.067 14.9853 467.951 14.0613 467.951 12.988C467.951 11.9053 468.058 10.9813 468.273 10.216C468.497 9.45067 468.851 8.86733 469.337 8.466C469.822 8.05533 470.461 7.85 471.255 7.85C472.001 7.85 472.622 8.05533 473.117 8.466C473.611 8.86733 473.98 9.45067 474.223 10.216C474.465 10.9813 474.587 11.9053 474.587 12.988ZM469.183 12.988C469.183 13.9027 469.248 14.6633 469.379 15.27C469.519 15.8767 469.738 16.334 470.037 16.642C470.345 16.9407 470.751 17.09 471.255 17.09C471.759 17.09 472.16 16.9407 472.459 16.642C472.767 16.3433 472.991 15.8907 473.131 15.284C473.271 14.668 473.341 13.9027 473.341 12.988C473.341 12.0733 473.271 11.3173 473.131 10.72C472.991 10.1133 472.767 9.66067 472.459 9.362C472.16 9.054 471.759 8.9 471.255 8.9C470.751 8.9 470.345 9.054 470.037 9.362C469.738 9.66067 469.519 10.1133 469.379 10.72C469.248 11.3173 469.183 12.0733 469.183 12.988ZM479.308 10.37C480.223 10.37 480.9 10.5707 481.338 10.972C481.777 11.3733 481.996 12.0127 481.996 12.89V18H481.1L480.862 16.936H480.806C480.592 17.2067 480.368 17.4353 480.134 17.622C479.91 17.7993 479.649 17.93 479.35 18.014C479.061 18.098 478.706 18.14 478.286 18.14C477.838 18.14 477.432 18.0607 477.068 17.902C476.714 17.7433 476.434 17.5007 476.228 17.174C476.023 16.838 475.92 16.418 475.92 15.914C475.92 15.1673 476.214 14.5933 476.802 14.192C477.39 13.7813 478.296 13.5573 479.518 13.52L480.792 13.478V13.03C480.792 12.4047 480.657 11.9707 480.386 11.728C480.116 11.4853 479.733 11.364 479.238 11.364C478.846 11.364 478.473 11.4247 478.118 11.546C477.764 11.658 477.432 11.7887 477.124 11.938L476.746 11.014C477.073 10.8367 477.46 10.6873 477.908 10.566C478.356 10.4353 478.823 10.37 479.308 10.37ZM479.672 14.374C478.739 14.4113 478.09 14.5607 477.726 14.822C477.372 15.0833 477.194 15.452 477.194 15.928C477.194 16.348 477.32 16.656 477.572 16.852C477.834 17.048 478.165 17.146 478.566 17.146C479.201 17.146 479.728 16.9733 480.148 16.628C480.568 16.2733 480.778 15.732 480.778 15.004V14.332L479.672 14.374ZM492.49 12.904C492.49 14.024 492.28 14.962 491.86 15.718C491.449 16.474 490.857 17.0433 490.082 17.426C489.307 17.8087 488.369 18 487.268 18H484.482V8.004H487.562C488.57 8.004 489.443 8.19067 490.18 8.564C490.917 8.93733 491.487 9.488 491.888 10.216C492.289 10.9347 492.49 11.8307 492.49 12.904ZM491.16 12.946C491.16 12.0593 491.011 11.3313 490.712 10.762C490.423 10.1927 489.993 9.77267 489.424 9.502C488.864 9.222 488.183 9.082 487.38 9.082H485.742V16.922H487.1C488.453 16.922 489.466 16.5907 490.138 15.928C490.819 15.256 491.16 14.262 491.16 12.946ZM501.079 15.732H499.623V18H498.433V15.732H493.645V14.682L498.349 7.948H499.623V14.626H501.079V15.732ZM498.433 11.476C498.433 11.2333 498.433 11.014 498.433 10.818C498.442 10.6127 498.451 10.4213 498.461 10.244C498.47 10.0667 498.475 9.89867 498.475 9.74C498.484 9.572 498.493 9.41333 498.503 9.264H498.447C498.372 9.44133 498.279 9.63267 498.167 9.838C498.055 10.0433 497.947 10.216 497.845 10.356L494.849 14.626H498.433V11.476ZM508.642 18H502.034V16.978L504.652 14.332C505.156 13.828 505.581 13.38 505.926 12.988C506.272 12.596 506.533 12.2133 506.71 11.84C506.888 11.4573 506.976 11.042 506.976 10.594C506.976 10.0433 506.813 9.628 506.486 9.348C506.16 9.05867 505.735 8.914 505.212 8.914C504.727 8.914 504.298 8.998 503.924 9.166C503.56 9.334 503.187 9.56733 502.804 9.866L502.146 9.04C502.408 8.816 502.692 8.61533 503 8.438C503.318 8.26067 503.658 8.12067 504.022 8.018C504.396 7.91533 504.792 7.864 505.212 7.864C505.838 7.864 506.374 7.97133 506.822 8.186C507.27 8.40067 507.616 8.70867 507.858 9.11C508.11 9.502 508.236 9.97333 508.236 10.524C508.236 10.916 508.176 11.2893 508.054 11.644C507.933 11.9893 507.76 12.33 507.536 12.666C507.312 13.002 507.042 13.3427 506.724 13.688C506.407 14.0333 506.057 14.3927 505.674 14.766L503.588 16.824V16.88H508.642V18ZM516.276 10.342C516.276 10.79 516.192 11.1773 516.024 11.504C515.856 11.8307 515.613 12.0967 515.296 12.302C514.988 12.5073 514.624 12.652 514.204 12.736V12.792C515.007 12.8853 515.604 13.1373 515.996 13.548C516.388 13.9587 516.584 14.4953 516.584 15.158C516.584 15.7367 516.449 16.2547 516.178 16.712C515.907 17.16 515.487 17.51 514.918 17.762C514.358 18.014 513.635 18.14 512.748 18.14C512.225 18.14 511.74 18.098 511.292 18.014C510.844 17.9393 510.415 17.7993 510.004 17.594V16.446C510.424 16.6513 510.877 16.8147 511.362 16.936C511.847 17.048 512.314 17.104 512.762 17.104C513.658 17.104 514.302 16.9313 514.694 16.586C515.095 16.2313 515.296 15.746 515.296 15.13C515.296 14.71 515.184 14.374 514.96 14.122C514.745 13.8607 514.428 13.6693 514.008 13.548C513.588 13.4267 513.084 13.366 512.496 13.366H511.53V12.316H512.51C513.061 12.316 513.518 12.2367 513.882 12.078C514.255 11.9193 514.535 11.7 514.722 11.42C514.918 11.1307 515.016 10.7993 515.016 10.426C515.016 9.94067 514.853 9.56733 514.526 9.306C514.199 9.03533 513.756 8.9 513.196 8.9C512.841 8.9 512.519 8.93733 512.23 9.012C511.941 9.07733 511.67 9.17533 511.418 9.306C511.175 9.42733 510.928 9.572 510.676 9.74L510.06 8.9C510.303 8.71333 510.578 8.54067 510.886 8.382C511.203 8.22333 511.553 8.09733 511.936 8.004C512.319 7.91067 512.734 7.864 513.182 7.864C514.227 7.864 515.002 8.09733 515.506 8.564C516.019 9.03067 516.276 9.62333 516.276 10.342ZM518.156 13.73C518.156 13.1513 518.193 12.582 518.268 12.022C518.352 11.462 518.492 10.9347 518.688 10.44C518.884 9.936 519.154 9.49267 519.5 9.11C519.845 8.718 520.279 8.41467 520.802 8.2C521.334 7.976 521.978 7.864 522.734 7.864C522.93 7.864 523.144 7.87333 523.378 7.892C523.62 7.91067 523.816 7.94333 523.966 7.99V9.04C523.798 8.984 523.606 8.942 523.392 8.914C523.186 8.886 522.976 8.872 522.762 8.872C522.118 8.872 521.581 8.97933 521.152 9.194C520.722 9.40867 520.382 9.70267 520.13 10.076C519.887 10.4493 519.71 10.8787 519.598 11.364C519.486 11.8493 519.416 12.3673 519.388 12.918H519.472C519.612 12.694 519.789 12.4933 520.004 12.316C520.218 12.1387 520.475 11.9987 520.774 11.896C521.082 11.7933 521.436 11.742 521.838 11.742C522.416 11.742 522.92 11.8633 523.35 12.106C523.788 12.3393 524.129 12.6847 524.372 13.142C524.614 13.59 524.736 14.136 524.736 14.78C524.736 15.4707 524.605 16.068 524.344 16.572C524.082 17.076 523.714 17.4633 523.238 17.734C522.771 18.0047 522.211 18.14 521.558 18.14C521.082 18.14 520.638 18.0513 520.228 17.874C519.817 17.6967 519.453 17.426 519.136 17.062C518.828 16.698 518.585 16.2407 518.408 15.69C518.24 15.13 518.156 14.4767 518.156 13.73ZM521.544 17.104C522.132 17.104 522.608 16.9173 522.972 16.544C523.336 16.1613 523.518 15.5733 523.518 14.78C523.518 14.1453 523.354 13.6413 523.028 13.268C522.71 12.8947 522.23 12.708 521.586 12.708C521.147 12.708 520.764 12.8013 520.438 12.988C520.111 13.1653 519.854 13.394 519.668 13.674C519.49 13.954 519.402 14.2433 519.402 14.542C519.402 14.85 519.444 15.1533 519.528 15.452C519.621 15.7507 519.756 16.026 519.934 16.278C520.12 16.53 520.344 16.7307 520.606 16.88C520.876 17.0293 521.189 17.104 521.544 17.104Z" fill="#555555"/>
</svg>
