<svg width="515" height="25" viewBox="0 0 515 25" fill="none" xmlns="http://www.w3.org/2000/svg">
<rect width="515" height="25" fill="#555555"/>
<rect x="125" width="390" height="25" fill="#5FF180"/>
<path d="M21.4073 8.004C22.714 8.004 23.666 8.26067 24.2633 8.774C24.8607 9.28733 25.1593 10.0107 25.1593 10.944C25.1593 11.3547 25.0893 11.7513 24.9493 12.134C24.8187 12.5073 24.5993 12.8433 24.2913 13.142C23.9833 13.4407 23.5727 13.6787 23.0593 13.856C22.546 14.024 21.916 14.108 21.1693 14.108H20.0213V18H18.7613V8.004H21.4073ZM21.2953 9.082H20.0213V13.03H21.0293C21.664 13.03 22.1913 12.9647 22.6113 12.834C23.0313 12.694 23.344 12.4747 23.5493 12.176C23.7547 11.8773 23.8573 11.4853 23.8573 11C23.8573 10.356 23.652 9.87533 23.2413 9.558C22.8307 9.24067 22.182 9.082 21.2953 9.082ZM33.5939 14.234C33.5939 14.8593 33.5099 15.4147 33.3419 15.9C33.1832 16.376 32.9499 16.782 32.6419 17.118C32.3432 17.454 31.9745 17.7107 31.5359 17.888C31.1065 18.056 30.6259 18.14 30.0939 18.14C29.5992 18.14 29.1419 18.056 28.7219 17.888C28.3019 17.7107 27.9379 17.454 27.6299 17.118C27.3219 16.782 27.0792 16.376 26.9019 15.9C26.7339 15.4147 26.6499 14.8593 26.6499 14.234C26.6499 13.4033 26.7899 12.7033 27.0699 12.134C27.3499 11.5553 27.7512 11.1167 28.2739 10.818C28.7965 10.51 29.4172 10.356 30.1359 10.356C30.8172 10.356 31.4145 10.51 31.9279 10.818C32.4505 11.1167 32.8566 11.5553 33.1459 12.134C33.4445 12.7033 33.5939 13.4033 33.5939 14.234ZM27.9239 14.234C27.9239 14.822 27.9985 15.3353 28.1479 15.774C28.3065 16.2033 28.5492 16.5347 28.8759 16.768C29.2025 17.0013 29.6179 17.118 30.1219 17.118C30.6259 17.118 31.0412 17.0013 31.3679 16.768C31.6945 16.5347 31.9325 16.2033 32.0819 15.774C32.2405 15.3353 32.3199 14.822 32.3199 14.234C32.3199 13.6367 32.2405 13.128 32.0819 12.708C31.9232 12.288 31.6805 11.966 31.3539 11.742C31.0365 11.5087 30.6212 11.392 30.1079 11.392C29.3425 11.392 28.7872 11.644 28.4419 12.148C28.0965 12.652 27.9239 13.3473 27.9239 14.234ZM36.7784 18H35.5464V7.36H36.7784V18ZM40.3738 12.918C40.3738 13.0673 40.3645 13.2633 40.3458 13.506C40.3365 13.7487 40.3272 13.9587 40.3178 14.136H40.3738C40.4298 14.0613 40.5138 13.954 40.6258 13.814C40.7378 13.674 40.8498 13.534 40.9618 13.394C41.0832 13.2447 41.1858 13.1233 41.2698 13.03L43.6638 10.496H45.1058L42.0678 13.702L45.3158 18H43.8318L41.2278 14.5L40.3738 15.242V18H39.1558V7.36H40.3738V12.918ZM49.4763 10.37C50.391 10.37 51.0677 10.5707 51.5063 10.972C51.945 11.3733 52.1643 12.0127 52.1643 12.89V18H51.2683L51.0303 16.936H50.9743C50.7597 17.2067 50.5357 17.4353 50.3023 17.622C50.0783 17.7993 49.817 17.93 49.5183 18.014C49.229 18.098 48.8743 18.14 48.4543 18.14C48.0063 18.14 47.6003 18.0607 47.2363 17.902C46.8817 17.7433 46.6017 17.5007 46.3963 17.174C46.191 16.838 46.0883 16.418 46.0883 15.914C46.0883 15.1673 46.3823 14.5933 46.9703 14.192C47.5583 13.7813 48.4637 13.5573 49.6863 13.52L50.9603 13.478V13.03C50.9603 12.4047 50.825 11.9707 50.5543 11.728C50.2837 11.4853 49.901 11.364 49.4063 11.364C49.0143 11.364 48.641 11.4247 48.2863 11.546C47.9317 11.658 47.6003 11.7887 47.2923 11.938L46.9143 11.014C47.241 10.8367 47.6283 10.6873 48.0763 10.566C48.5243 10.4353 48.991 10.37 49.4763 10.37ZM49.8403 14.374C48.907 14.4113 48.2583 14.5607 47.8943 14.822C47.5397 15.0833 47.3623 15.452 47.3623 15.928C47.3623 16.348 47.4883 16.656 47.7403 16.852C48.0017 17.048 48.333 17.146 48.7343 17.146C49.369 17.146 49.8963 16.9733 50.3163 16.628C50.7363 16.2733 50.9463 15.732 50.9463 15.004V14.332L49.8403 14.374ZM57.142 18.14C56.2087 18.14 55.462 17.818 54.902 17.174C54.342 16.5207 54.062 15.55 54.062 14.262C54.062 12.974 54.342 12.0033 54.902 11.35C55.4713 10.6873 56.2227 10.356 57.156 10.356C57.548 10.356 57.8887 10.4073 58.178 10.51C58.4673 10.6033 58.7193 10.734 58.934 10.902C59.1487 11.07 59.3307 11.2567 59.48 11.462H59.564C59.5547 11.3407 59.536 11.1633 59.508 10.93C59.4893 10.6873 59.48 10.496 59.48 10.356V7.36H60.712V18H59.718L59.536 16.992H59.48C59.3307 17.2067 59.1487 17.4027 58.934 17.58C58.7193 17.748 58.4627 17.8833 58.164 17.986C57.8747 18.0887 57.534 18.14 57.142 18.14ZM57.338 17.118C58.1313 17.118 58.6867 16.9033 59.004 16.474C59.3307 16.0353 59.494 15.3773 59.494 14.5V14.276C59.494 13.3427 59.34 12.6287 59.032 12.134C58.724 11.63 58.1547 11.378 57.324 11.378C56.6613 11.378 56.162 11.644 55.826 12.176C55.4993 12.6987 55.336 13.4033 55.336 14.29C55.336 15.186 55.4993 15.8813 55.826 16.376C56.162 16.8707 56.666 17.118 57.338 17.118ZM69.6193 14.234C69.6193 14.8593 69.5353 15.4147 69.3673 15.9C69.2086 16.376 68.9753 16.782 68.6673 17.118C68.3686 17.454 67.9999 17.7107 67.5613 17.888C67.1319 18.056 66.6513 18.14 66.1193 18.14C65.6246 18.14 65.1673 18.056 64.7473 17.888C64.3273 17.7107 63.9633 17.454 63.6553 17.118C63.3473 16.782 63.1046 16.376 62.9273 15.9C62.7593 15.4147 62.6753 14.8593 62.6753 14.234C62.6753 13.4033 62.8153 12.7033 63.0953 12.134C63.3753 11.5553 63.7766 11.1167 64.2993 10.818C64.8219 10.51 65.4426 10.356 66.1613 10.356C66.8426 10.356 67.4399 10.51 67.9533 10.818C68.4759 11.1167 68.8819 11.5553 69.1713 12.134C69.4699 12.7033 69.6193 13.4033 69.6193 14.234ZM63.9493 14.234C63.9493 14.822 64.0239 15.3353 64.1733 15.774C64.3319 16.2033 64.5746 16.5347 64.9013 16.768C65.2279 17.0013 65.6433 17.118 66.1473 17.118C66.6513 17.118 67.0666 17.0013 67.3933 16.768C67.7199 16.5347 67.9579 16.2033 68.1073 15.774C68.2659 15.3353 68.3453 14.822 68.3453 14.234C68.3453 13.6367 68.2659 13.128 68.1073 12.708C67.9486 12.288 67.7059 11.966 67.3793 11.742C67.0619 11.5087 66.6466 11.392 66.1333 11.392C65.3679 11.392 64.8126 11.644 64.4673 12.148C64.1219 12.652 63.9493 13.3473 63.9493 14.234ZM74.0778 17.132C74.2645 17.132 74.4558 17.118 74.6518 17.09C74.8478 17.0527 75.0065 17.0153 75.1278 16.978V17.916C74.9972 17.9813 74.8105 18.0327 74.5678 18.07C74.3252 18.1167 74.0918 18.14 73.8678 18.14C73.4758 18.14 73.1118 18.0747 72.7758 17.944C72.4492 17.804 72.1832 17.566 71.9778 17.23C71.7725 16.894 71.6698 16.4227 71.6698 15.816V11.448H70.6058V10.86L71.6838 10.37L72.1738 8.774H72.9018V10.496H75.0718V11.448H72.9018V15.788C72.9018 16.2453 73.0092 16.586 73.2238 16.81C73.4478 17.0247 73.7325 17.132 74.0778 17.132ZM88.4431 12.904C88.4431 14.024 88.2331 14.962 87.8131 15.718C87.4025 16.474 86.8098 17.0433 86.0351 17.426C85.2605 17.8087 84.3225 18 83.2211 18H80.4351V8.004H83.5151C84.5231 8.004 85.3958 8.19067 86.1331 8.564C86.8705 8.93733 87.4398 9.488 87.8411 10.216C88.2425 10.9347 88.4431 11.8307 88.4431 12.904ZM87.1131 12.946C87.1131 12.0593 86.9638 11.3313 86.6651 10.762C86.3758 10.1927 85.9465 9.77267 85.3771 9.502C84.8171 9.222 84.1358 9.082 83.3331 9.082H81.6951V16.922H83.0531C84.4065 16.922 85.4191 16.5907 86.0911 15.928C86.7725 15.256 87.1131 14.262 87.1131 12.946ZM99.3837 12.988C99.3837 13.7627 99.2857 14.4673 99.0897 15.102C98.8937 15.7273 98.5997 16.2687 98.2077 16.726C97.825 17.1833 97.3444 17.5333 96.7657 17.776C96.1964 18.0187 95.5337 18.14 94.7777 18.14C93.9937 18.14 93.3124 18.0187 92.7337 17.776C92.155 17.524 91.6744 17.174 91.2917 16.726C90.909 16.2687 90.6244 15.7227 90.4377 15.088C90.251 14.4533 90.1577 13.7487 90.1577 12.974C90.1577 11.9473 90.3257 11.0513 90.6617 10.286C90.9977 9.52067 91.5064 8.92333 92.1877 8.494C92.8784 8.06467 93.7464 7.85 94.7917 7.85C95.7904 7.85 96.6304 8.06467 97.3117 8.494C97.993 8.914 98.5064 9.51133 98.8517 10.286C99.2064 11.0513 99.3837 11.952 99.3837 12.988ZM91.4877 12.988C91.4877 13.828 91.6044 14.5513 91.8377 15.158C92.071 15.7647 92.4304 16.2313 92.9157 16.558C93.4104 16.8847 94.031 17.048 94.7777 17.048C95.5337 17.048 96.1497 16.8847 96.6257 16.558C97.111 16.2313 97.4704 15.7647 97.7037 15.158C97.937 14.5513 98.0537 13.828 98.0537 12.988C98.0537 11.728 97.7924 10.7433 97.2697 10.034C96.747 9.31533 95.921 8.956 94.7917 8.956C94.0357 8.956 93.4104 9.11933 92.9157 9.446C92.4304 9.76333 92.071 10.2253 91.8377 10.832C91.6044 11.4293 91.4877 12.148 91.4877 12.988ZM104.339 18H103.079V9.11H99.9574V8.004H107.447V9.11H104.339V18Z" fill="white"/>
<path d="M134.719 18H133.515V11.014C133.515 10.7433 133.515 10.5147 133.515 10.328C133.524 10.1413 133.534 9.96867 133.543 9.81C133.552 9.642 133.562 9.46933 133.571 9.292C133.422 9.44133 133.286 9.56733 133.165 9.67C133.044 9.77267 132.89 9.90333 132.703 10.062L131.639 10.93L130.995 10.104L133.697 8.004H134.719V18ZM145.489 15.732H144.033V18H142.843V15.732H138.055V14.682L142.759 7.948H144.033V14.626H145.489V15.732ZM142.843 11.476C142.843 11.2333 142.843 11.014 142.843 10.818C142.852 10.6127 142.861 10.4213 142.871 10.244C142.88 10.0667 142.885 9.89867 142.885 9.74C142.894 9.572 142.903 9.41333 142.913 9.264H142.857C142.782 9.44133 142.689 9.63267 142.577 9.838C142.465 10.0433 142.357 10.216 142.255 10.356L139.259 14.626H142.843V11.476ZM153.052 12.274C153.052 12.8433 153.01 13.4127 152.926 13.982C152.852 14.542 152.716 15.074 152.52 15.578C152.324 16.0727 152.054 16.516 151.708 16.908C151.363 17.2907 150.924 17.594 150.392 17.818C149.86 18.0327 149.216 18.14 148.46 18.14C148.274 18.14 148.054 18.126 147.802 18.098C147.56 18.0793 147.359 18.0467 147.2 18V16.95C147.368 17.006 147.564 17.0527 147.788 17.09C148.012 17.118 148.227 17.132 148.432 17.132C149.086 17.132 149.622 17.0247 150.042 16.81C150.472 16.5953 150.812 16.306 151.064 15.942C151.316 15.5687 151.498 15.1393 151.61 14.654C151.722 14.1593 151.788 13.6413 151.806 13.1H151.722C151.582 13.3147 151.405 13.5107 151.19 13.688C150.976 13.8653 150.714 14.0053 150.406 14.108C150.108 14.2107 149.753 14.262 149.342 14.262C148.773 14.262 148.269 14.1453 147.83 13.912C147.401 13.6693 147.065 13.324 146.822 12.876C146.589 12.428 146.472 11.882 146.472 11.238C146.472 10.538 146.603 9.936 146.864 9.432C147.135 8.928 147.508 8.54067 147.984 8.27C148.46 7.99933 149.02 7.864 149.664 7.864C150.14 7.864 150.584 7.95733 150.994 8.144C151.405 8.32133 151.764 8.592 152.072 8.956C152.38 9.32 152.618 9.77733 152.786 10.328C152.964 10.8787 153.052 11.5273 153.052 12.274ZM149.664 8.9C149.086 8.9 148.61 9.09133 148.236 9.474C147.872 9.85667 147.69 10.44 147.69 11.224C147.69 11.868 147.844 12.3767 148.152 12.75C148.47 13.114 148.955 13.296 149.608 13.296C150.056 13.296 150.444 13.2073 150.77 13.03C151.097 12.8433 151.349 12.61 151.526 12.33C151.713 12.05 151.806 11.7607 151.806 11.462C151.806 11.1633 151.76 10.8647 151.666 10.566C151.582 10.258 151.452 9.978 151.274 9.726C151.097 9.474 150.873 9.27333 150.602 9.124C150.332 8.97467 150.019 8.9 149.664 8.9ZM159.552 18L156.262 9.236H156.206C156.225 9.42267 156.239 9.66067 156.248 9.95C156.267 10.2393 156.281 10.5567 156.29 10.902C156.3 11.238 156.304 11.5833 156.304 11.938V18H155.142V8.004H157.004L160.084 16.194H160.14L163.276 8.004H165.124V18H163.878V11.854C163.878 11.5273 163.883 11.2053 163.892 10.888C163.902 10.5613 163.916 10.258 163.934 9.978C163.953 9.68867 163.967 9.446 163.976 9.25H163.92L160.588 18H159.552ZM170.685 18.14C170.023 18.14 169.43 18.0047 168.907 17.734C168.394 17.4633 167.988 17.0433 167.689 16.474C167.4 15.9047 167.255 15.1767 167.255 14.29C167.255 13.366 167.409 12.6147 167.717 12.036C168.025 11.4573 168.441 11.0327 168.963 10.762C169.495 10.4913 170.097 10.356 170.769 10.356C171.152 10.356 171.521 10.398 171.875 10.482C172.23 10.5567 172.519 10.65 172.743 10.762L172.365 11.784C172.141 11.7 171.88 11.6207 171.581 11.546C171.283 11.4713 171.003 11.434 170.741 11.434C170.237 11.434 169.822 11.5413 169.495 11.756C169.169 11.9707 168.926 12.288 168.767 12.708C168.609 13.128 168.529 13.6507 168.529 14.276C168.529 14.8733 168.609 15.382 168.767 15.802C168.926 16.222 169.164 16.5393 169.481 16.754C169.799 16.9687 170.195 17.076 170.671 17.076C171.082 17.076 171.441 17.034 171.749 16.95C172.067 16.866 172.356 16.7633 172.617 16.642V17.734C172.365 17.8647 172.085 17.9627 171.777 18.028C171.479 18.1027 171.115 18.14 170.685 18.14ZM177.174 12.918L179.778 8.004H181.136L177.804 14.122V18H176.544V14.178L173.212 8.004H174.584L177.174 12.918ZM185.356 8.004C186.186 8.004 186.882 8.08333 187.442 8.242C188.011 8.40067 188.436 8.662 188.716 9.026C189.005 9.39 189.15 9.87533 189.15 10.482C189.15 10.874 189.075 11.224 188.926 11.532C188.786 11.8307 188.571 12.0827 188.282 12.288C188.002 12.484 187.656 12.6193 187.246 12.694V12.764C187.666 12.8293 188.044 12.9507 188.38 13.128C188.725 13.3053 188.996 13.5573 189.192 13.884C189.388 14.2107 189.486 14.6353 189.486 15.158C189.486 15.7647 189.346 16.2827 189.066 16.712C188.786 17.132 188.384 17.454 187.862 17.678C187.348 17.8927 186.732 18 186.014 18H182.5V8.004H185.356ZM185.608 12.26C186.466 12.26 187.054 12.1247 187.372 11.854C187.689 11.574 187.848 11.1633 187.848 10.622C187.848 10.0713 187.652 9.67933 187.26 9.446C186.877 9.20333 186.261 9.082 185.412 9.082H183.76V12.26H185.608ZM183.76 13.31V16.936H185.776C186.662 16.936 187.278 16.7633 187.624 16.418C187.969 16.0727 188.142 15.62 188.142 15.06C188.142 14.7053 188.062 14.3973 187.904 14.136C187.754 13.8747 187.498 13.674 187.134 13.534C186.779 13.3847 186.294 13.31 185.678 13.31H183.76ZM194.209 12.918L196.813 8.004H198.171L194.839 14.122V18H193.579V14.178L190.247 8.004H191.619L194.209 12.918ZM205.457 12.274C205.457 12.8433 205.415 13.4127 205.331 13.982C205.256 14.542 205.121 15.074 204.925 15.578C204.729 16.0727 204.458 16.516 204.113 16.908C203.767 17.2907 203.329 17.594 202.797 17.818C202.265 18.0327 201.621 18.14 200.865 18.14C200.678 18.14 200.459 18.126 200.207 18.098C199.964 18.0793 199.763 18.0467 199.605 18V16.95C199.773 17.006 199.969 17.0527 200.193 17.09C200.417 17.118 200.631 17.132 200.837 17.132C201.49 17.132 202.027 17.0247 202.447 16.81C202.876 16.5953 203.217 16.306 203.469 15.942C203.721 15.5687 203.903 15.1393 204.015 14.654C204.127 14.1593 204.192 13.6413 204.211 13.1H204.127C203.987 13.3147 203.809 13.5107 203.595 13.688C203.38 13.8653 203.119 14.0053 202.811 14.108C202.512 14.2107 202.157 14.262 201.747 14.262C201.177 14.262 200.673 14.1453 200.235 13.912C199.805 13.6693 199.469 13.324 199.227 12.876C198.993 12.428 198.877 11.882 198.877 11.238C198.877 10.538 199.007 9.936 199.269 9.432C199.539 8.928 199.913 8.54067 200.389 8.27C200.865 7.99933 201.425 7.864 202.069 7.864C202.545 7.864 202.988 7.95733 203.399 8.144C203.809 8.32133 204.169 8.592 204.477 8.956C204.785 9.32 205.023 9.77733 205.191 10.328C205.368 10.8787 205.457 11.5273 205.457 12.274ZM202.069 8.9C201.49 8.9 201.014 9.09133 200.641 9.474C200.277 9.85667 200.095 10.44 200.095 11.224C200.095 11.868 200.249 12.3767 200.557 12.75C200.874 13.114 201.359 13.296 202.013 13.296C202.461 13.296 202.848 13.2073 203.175 13.03C203.501 12.8433 203.753 12.61 203.931 12.33C204.117 12.05 204.211 11.7607 204.211 11.462C204.211 11.1633 204.164 10.8647 204.071 10.566C203.987 10.258 203.856 9.978 203.679 9.726C203.501 9.474 203.277 9.27333 203.007 9.124C202.736 8.97467 202.423 8.9 202.069 8.9ZM208.092 18L212.194 9.124H206.804V8.004H213.51V8.956L209.45 18H208.092ZM222.866 18H221.382L217.84 13.226L216.818 14.122V18H215.558V8.004H216.818V12.932C217.098 12.6147 217.383 12.2973 217.672 11.98C217.962 11.6627 218.251 11.3453 218.54 11.028L221.242 8.004H222.712L218.75 12.358L222.866 18ZM225.29 10.496V18H224.058V10.496H225.29ZM224.688 7.682C224.875 7.682 225.038 7.74733 225.178 7.878C225.327 7.99933 225.402 8.19533 225.402 8.466C225.402 8.72733 225.327 8.92333 225.178 9.054C225.038 9.18467 224.875 9.25 224.688 9.25C224.483 9.25 224.31 9.18467 224.17 9.054C224.03 8.92333 223.96 8.72733 223.96 8.466C223.96 8.19533 224.03 7.99933 224.17 7.878C224.31 7.74733 224.483 7.682 224.688 7.682ZM232.512 18H227.024V17.188L231.056 11.448H227.262V10.496H232.414V11.42L228.438 17.048H232.512V18ZM238.752 12.722H242.21V17.622C241.668 17.7993 241.122 17.93 240.572 18.014C240.021 18.098 239.396 18.14 238.696 18.14C237.66 18.14 236.787 17.9347 236.078 17.524C235.368 17.104 234.827 16.5113 234.454 15.746C234.09 14.9713 233.908 14.0567 233.908 13.002C233.908 11.9567 234.113 11.0513 234.524 10.286C234.934 9.52067 235.522 8.928 236.288 8.508C237.062 8.07867 237.996 7.864 239.088 7.864C239.648 7.864 240.175 7.91533 240.67 8.018C241.174 8.12067 241.64 8.26533 242.07 8.452L241.594 9.544C241.239 9.38533 240.838 9.25 240.39 9.138C239.951 9.026 239.494 8.97 239.018 8.97C238.224 8.97 237.543 9.13333 236.974 9.46C236.404 9.78667 235.97 10.2533 235.672 10.86C235.373 11.4573 235.224 12.1713 235.224 13.002C235.224 13.7953 235.35 14.5 235.602 15.116C235.863 15.7227 236.269 16.1987 236.82 16.544C237.37 16.88 238.094 17.048 238.99 17.048C239.288 17.048 239.55 17.0387 239.774 17.02C240.007 16.992 240.217 16.9593 240.404 16.922C240.6 16.8847 240.782 16.8473 240.95 16.81V13.842H238.752V12.722ZM253.319 12.988C253.319 13.8 253.207 14.5373 252.983 15.2C252.769 15.8627 252.447 16.4227 252.017 16.88C251.588 17.3373 251.051 17.6733 250.407 17.888L252.801 20.38H250.995L249.063 18.126C249.007 18.126 248.947 18.126 248.881 18.126C248.825 18.1353 248.769 18.14 248.713 18.14C247.929 18.14 247.248 18.0187 246.669 17.776C246.091 17.524 245.61 17.174 245.227 16.726C244.845 16.2687 244.56 15.7227 244.373 15.088C244.187 14.4533 244.093 13.7487 244.093 12.974C244.093 11.9473 244.261 11.0513 244.597 10.286C244.933 9.52067 245.442 8.92333 246.123 8.494C246.814 8.06467 247.682 7.85 248.727 7.85C249.726 7.85 250.566 8.06467 251.247 8.494C251.929 8.914 252.442 9.51133 252.787 10.286C253.142 11.0513 253.319 11.952 253.319 12.988ZM245.423 12.988C245.423 13.828 245.54 14.5513 245.773 15.158C246.007 15.7647 246.366 16.2313 246.851 16.558C247.346 16.8847 247.967 17.048 248.713 17.048C249.469 17.048 250.085 16.8847 250.561 16.558C251.047 16.2313 251.406 15.7647 251.639 15.158C251.873 14.5513 251.989 13.828 251.989 12.988C251.989 11.728 251.728 10.7433 251.205 10.034C250.683 9.31533 249.857 8.956 248.727 8.956C247.971 8.956 247.346 9.11933 246.851 9.446C246.366 9.76333 246.007 10.2253 245.773 10.832C245.54 11.4293 245.423 12.148 245.423 12.988ZM254.121 20.66C253.897 20.66 253.701 20.6413 253.533 20.604C253.365 20.576 253.215 20.534 253.085 20.478V19.414C253.234 19.4513 253.393 19.484 253.561 19.512C253.729 19.54 253.906 19.554 254.093 19.554C254.326 19.554 254.545 19.5073 254.751 19.414C254.965 19.3207 255.138 19.1573 255.269 18.924C255.399 18.6907 255.465 18.364 255.465 17.944V8.004H256.725V17.846C256.725 18.49 256.617 19.0173 256.403 19.428C256.188 19.848 255.885 20.156 255.493 20.352C255.101 20.5573 254.643 20.66 254.121 20.66ZM260.427 10.482C260.427 10.6593 260.418 10.8413 260.399 11.028C260.39 11.2147 260.376 11.3827 260.357 11.532H260.441C260.6 11.2707 260.8 11.056 261.043 10.888C261.286 10.72 261.556 10.594 261.855 10.51C262.154 10.4167 262.462 10.37 262.779 10.37C263.386 10.37 263.89 10.468 264.291 10.664C264.702 10.8507 265.01 11.1447 265.215 11.546C265.42 11.9473 265.523 12.47 265.523 13.114V18H264.305V13.198C264.305 12.5913 264.17 12.1387 263.899 11.84C263.628 11.5413 263.204 11.392 262.625 11.392C262.065 11.392 261.626 11.4993 261.309 11.714C260.992 11.9193 260.763 12.2273 260.623 12.638C260.492 13.0393 260.427 13.534 260.427 14.122V18H259.195V7.36H260.427V10.482ZM272.427 18L269.137 9.236H269.081C269.1 9.42267 269.114 9.66067 269.123 9.95C269.142 10.2393 269.156 10.5567 269.165 10.902C269.175 11.238 269.179 11.5833 269.179 11.938V18H268.017V8.004H269.879L272.959 16.194H273.015L276.151 8.004H277.999V18H276.753V11.854C276.753 11.5273 276.758 11.2053 276.767 10.888C276.777 10.5613 276.791 10.258 276.809 9.978C276.828 9.68867 276.842 9.446 276.851 9.25H276.795L273.463 18H272.427ZM279.668 21.36C279.435 21.36 279.23 21.3413 279.052 21.304C278.875 21.276 278.721 21.2387 278.59 21.192V20.198C278.73 20.2353 278.875 20.268 279.024 20.296C279.174 20.324 279.337 20.338 279.514 20.338C279.813 20.338 280.06 20.254 280.256 20.086C280.452 19.9273 280.55 19.6193 280.55 19.162V10.496H281.782V19.12C281.782 19.5867 281.708 19.988 281.558 20.324C281.409 20.66 281.18 20.9167 280.872 21.094C280.564 21.2713 280.163 21.36 279.668 21.36ZM280.452 8.466C280.452 8.19533 280.522 7.99933 280.662 7.878C280.802 7.74733 280.975 7.682 281.18 7.682C281.367 7.682 281.53 7.74733 281.67 7.878C281.82 7.99933 281.894 8.19533 281.894 8.466C281.894 8.72733 281.82 8.92333 281.67 9.054C281.53 9.18467 281.367 9.25 281.18 9.25C280.975 9.25 280.802 9.18467 280.662 9.054C280.522 8.92333 280.452 8.72733 280.452 8.466ZM287.618 11.448H285.728V18H284.496V11.448H283.18V10.874L284.496 10.454V10.02C284.496 9.376 284.589 8.85333 284.776 8.452C284.972 8.05067 285.252 7.75667 285.616 7.57C285.98 7.38333 286.418 7.29 286.932 7.29C287.23 7.29 287.501 7.318 287.744 7.374C287.996 7.42067 288.21 7.47667 288.388 7.542L288.066 8.508C287.916 8.46133 287.744 8.41467 287.548 8.368C287.352 8.32133 287.151 8.298 286.946 8.298C286.535 8.298 286.227 8.438 286.022 8.718C285.826 8.98867 285.728 9.418 285.728 10.006V10.496H287.618V11.448ZM290.204 10.482C290.204 10.6593 290.195 10.8413 290.176 11.028C290.167 11.2147 290.153 11.3827 290.134 11.532H290.218C290.377 11.2707 290.578 11.056 290.82 10.888C291.063 10.72 291.334 10.594 291.632 10.51C291.931 10.4167 292.239 10.37 292.556 10.37C293.163 10.37 293.667 10.468 294.068 10.664C294.479 10.8507 294.787 11.1447 294.992 11.546C295.198 11.9473 295.3 12.47 295.3 13.114V18H294.082V13.198C294.082 12.5913 293.947 12.1387 293.676 11.84C293.406 11.5413 292.981 11.392 292.402 11.392C291.842 11.392 291.404 11.4993 291.086 11.714C290.769 11.9193 290.54 12.2273 290.4 12.638C290.27 13.0393 290.204 13.534 290.204 14.122V18H288.972V7.36H290.204V10.482ZM304.165 15.732H302.709V18H301.519V15.732H296.731V14.682L301.435 7.948H302.709V14.626H304.165V15.732ZM301.519 11.476C301.519 11.2333 301.519 11.014 301.519 10.818C301.528 10.6127 301.537 10.4213 301.547 10.244C301.556 10.0667 301.561 9.89867 301.561 9.74C301.57 9.572 301.579 9.41333 301.589 9.264H301.533C301.458 9.44133 301.365 9.63267 301.253 9.838C301.141 10.0433 301.033 10.216 300.931 10.356L297.935 14.626H301.519V11.476ZM308.144 17.132C308.331 17.132 308.522 17.118 308.718 17.09C308.914 17.0527 309.073 17.0153 309.194 16.978V17.916C309.064 17.9813 308.877 18.0327 308.634 18.07C308.392 18.1167 308.158 18.14 307.934 18.14C307.542 18.14 307.178 18.0747 306.842 17.944C306.516 17.804 306.25 17.566 306.044 17.23C305.839 16.894 305.736 16.4227 305.736 15.816V11.448H304.672V10.86L305.75 10.37L306.24 8.774H306.968V10.496H309.138V11.448H306.968V15.788C306.968 16.2453 307.076 16.586 307.29 16.81C307.514 17.0247 307.799 17.132 308.144 17.132ZM314.029 18H312.769V9.11H309.647V8.004H317.137V9.11H314.029V18ZM319.855 18L317.013 10.496H318.329L319.925 14.92C319.999 15.1253 320.079 15.354 320.163 15.606C320.247 15.858 320.321 16.1007 320.387 16.334C320.452 16.558 320.499 16.7493 320.527 16.908H320.583C320.62 16.7493 320.671 16.5533 320.737 16.32C320.811 16.0867 320.891 15.844 320.975 15.592C321.068 15.34 321.147 15.116 321.213 14.92L322.809 10.496H324.125L321.269 18H319.855ZM331.15 15.326C331.15 15.9233 331.005 16.432 330.716 16.852C330.427 17.2627 330.011 17.58 329.47 17.804C328.938 18.028 328.308 18.14 327.58 18.14C327.207 18.14 326.847 18.1213 326.502 18.084C326.166 18.0467 325.858 17.9953 325.578 17.93C325.298 17.8553 325.051 17.7667 324.836 17.664V16.46C325.172 16.6093 325.587 16.7447 326.082 16.866C326.586 16.9873 327.104 17.048 327.636 17.048C328.131 17.048 328.546 16.9827 328.882 16.852C329.218 16.7213 329.47 16.5347 329.638 16.292C329.806 16.0493 329.89 15.7647 329.89 15.438C329.89 15.1113 329.82 14.836 329.68 14.612C329.54 14.388 329.297 14.1827 328.952 13.996C328.616 13.8 328.145 13.5947 327.538 13.38C327.109 13.2213 326.731 13.0533 326.404 12.876C326.087 12.6893 325.821 12.4793 325.606 12.246C325.391 12.0127 325.228 11.7467 325.116 11.448C325.013 11.1493 324.962 10.804 324.962 10.412C324.962 9.88 325.097 9.42733 325.368 9.054C325.639 8.67133 326.012 8.37733 326.488 8.172C326.973 7.96667 327.529 7.864 328.154 7.864C328.705 7.864 329.209 7.91533 329.666 8.018C330.123 8.12067 330.539 8.256 330.912 8.424L330.52 9.502C330.175 9.35267 329.797 9.22667 329.386 9.124C328.985 9.02133 328.565 8.97 328.126 8.97C327.706 8.97 327.356 9.03067 327.076 9.152C326.796 9.27333 326.586 9.446 326.446 9.67C326.306 9.88467 326.236 10.1367 326.236 10.426C326.236 10.762 326.306 11.042 326.446 11.266C326.586 11.49 326.815 11.6907 327.132 11.868C327.449 12.0453 327.879 12.2367 328.42 12.442C329.008 12.6567 329.503 12.89 329.904 13.142C330.315 13.3847 330.623 13.6787 330.828 14.024C331.043 14.3693 331.15 14.8033 331.15 15.326ZM337.84 13.758C337.784 13.562 337.728 13.3707 337.672 13.184C337.616 12.988 337.564 12.806 337.518 12.638C337.48 12.4607 337.443 12.2973 337.406 12.148C337.368 11.9987 337.34 11.8727 337.322 11.77H337.266C337.247 11.8727 337.219 11.9987 337.182 12.148C337.154 12.2973 337.116 12.4607 337.07 12.638C337.032 12.8153 336.986 13.002 336.93 13.198C336.883 13.3847 336.827 13.576 336.762 13.772L335.418 17.986H334.018L331.96 10.482H333.234L334.27 14.486C334.344 14.7567 334.414 15.032 334.48 15.312C334.545 15.5827 334.601 15.844 334.648 16.096C334.704 16.3387 334.741 16.5487 334.76 16.726H334.816C334.844 16.614 334.876 16.474 334.914 16.306C334.951 16.138 334.988 15.9607 335.026 15.774C335.072 15.5873 335.119 15.4007 335.166 15.214C335.222 15.0273 335.273 14.8593 335.32 14.71L336.65 10.482H337.994L339.282 14.71C339.347 14.9247 339.412 15.1533 339.478 15.396C339.552 15.6387 339.618 15.8767 339.674 16.11C339.73 16.334 339.767 16.5347 339.786 16.712H339.842C339.86 16.5533 339.893 16.3573 339.94 16.124C339.996 15.8813 340.056 15.62 340.122 15.34C340.196 15.0507 340.271 14.766 340.346 14.486L341.396 10.482H342.656L340.57 17.986H339.128L337.84 13.758ZM351.212 8.004L347.642 18H346.382L342.812 8.004H344.128L346.382 14.416C346.484 14.6867 346.573 14.948 346.648 15.2C346.722 15.452 346.788 15.6947 346.844 15.928C346.909 16.152 346.965 16.376 347.012 16.6C347.058 16.376 347.11 16.1473 347.166 15.914C347.231 15.6807 347.301 15.438 347.376 15.186C347.46 14.934 347.548 14.668 347.642 14.388L349.882 8.004H351.212ZM358.276 18L357.072 14.906H353.11L351.92 18H350.646L354.552 7.962H355.686L359.578 18H358.276ZM355.574 10.762C355.546 10.6873 355.499 10.552 355.434 10.356C355.368 10.16 355.303 9.95933 355.238 9.754C355.182 9.53933 355.135 9.376 355.098 9.264C355.051 9.45067 355 9.642 354.944 9.838C354.897 10.0247 354.846 10.1973 354.79 10.356C354.743 10.5147 354.701 10.65 354.664 10.762L353.53 13.786H356.694L355.574 10.762ZM362.009 10.496V18H360.777V10.496H362.009ZM361.407 7.682C361.594 7.682 361.757 7.74733 361.897 7.878C362.046 7.99933 362.121 8.19533 362.121 8.466C362.121 8.72733 362.046 8.92333 361.897 9.054C361.757 9.18467 361.594 9.25 361.407 9.25C361.202 9.25 361.029 9.18467 360.889 9.054C360.749 8.92333 360.679 8.72733 360.679 8.466C360.679 8.19533 360.749 7.99933 360.889 7.878C361.029 7.74733 361.202 7.682 361.407 7.682ZM370.476 18H363.868V16.978L366.486 14.332C366.99 13.828 367.415 13.38 367.76 12.988C368.106 12.596 368.367 12.2133 368.544 11.84C368.722 11.4573 368.81 11.042 368.81 10.594C368.81 10.0433 368.647 9.628 368.32 9.348C367.994 9.05867 367.569 8.914 367.046 8.914C366.561 8.914 366.132 8.998 365.758 9.166C365.394 9.334 365.021 9.56733 364.638 9.866L363.98 9.04C364.242 8.816 364.526 8.61533 364.834 8.438C365.152 8.26067 365.492 8.12067 365.856 8.018C366.23 7.91533 366.626 7.864 367.046 7.864C367.672 7.864 368.208 7.97133 368.656 8.186C369.104 8.40067 369.45 8.70867 369.692 9.11C369.944 9.502 370.07 9.97333 370.07 10.524C370.07 10.916 370.01 11.2893 369.888 11.644C369.767 11.9893 369.594 12.33 369.37 12.666C369.146 13.002 368.876 13.3427 368.558 13.688C368.241 14.0333 367.891 14.3927 367.508 14.766L365.422 16.824V16.88H370.476V18ZM373.112 18L377.214 9.124H371.824V8.004H378.53V8.956L374.47 18H373.112ZM389.3 12.988C389.3 13.8 389.188 14.5373 388.964 15.2C388.749 15.8627 388.427 16.4227 387.998 16.88C387.568 17.3373 387.032 17.6733 386.388 17.888L388.782 20.38H386.976L385.044 18.126C384.988 18.126 384.927 18.126 384.862 18.126C384.806 18.1353 384.75 18.14 384.694 18.14C383.91 18.14 383.228 18.0187 382.65 17.776C382.071 17.524 381.59 17.174 381.208 16.726C380.825 16.2687 380.54 15.7227 380.354 15.088C380.167 14.4533 380.074 13.7487 380.074 12.974C380.074 11.9473 380.242 11.0513 380.578 10.286C380.914 9.52067 381.422 8.92333 382.104 8.494C382.794 8.06467 383.662 7.85 384.708 7.85C385.706 7.85 386.546 8.06467 387.228 8.494C387.909 8.914 388.422 9.51133 388.768 10.286C389.122 11.0513 389.3 11.952 389.3 12.988ZM381.404 12.988C381.404 13.828 381.52 14.5513 381.754 15.158C381.987 15.7647 382.346 16.2313 382.832 16.558C383.326 16.8847 383.947 17.048 384.694 17.048C385.45 17.048 386.066 16.8847 386.542 16.558C387.027 16.2313 387.386 15.7647 387.62 15.158C387.853 14.5513 387.97 13.828 387.97 12.988C387.97 11.728 387.708 10.7433 387.186 10.034C386.663 9.31533 385.837 8.956 384.708 8.956C383.952 8.956 383.326 9.11933 382.832 9.446C382.346 9.76333 381.987 10.2253 381.754 10.832C381.52 11.4293 381.404 12.148 381.404 12.988ZM392.579 10.496V18H391.347V10.496H392.579ZM391.977 7.682C392.164 7.682 392.327 7.74733 392.467 7.878C392.617 7.99933 392.691 8.19533 392.691 8.466C392.691 8.72733 392.617 8.92333 392.467 9.054C392.327 9.18467 392.164 9.25 391.977 9.25C391.772 9.25 391.599 9.18467 391.459 9.054C391.319 8.92333 391.249 8.72733 391.249 8.466C391.249 8.19533 391.319 7.99933 391.459 7.878C391.599 7.74733 391.772 7.682 391.977 7.682ZM397.463 17.132C397.649 17.132 397.841 17.118 398.037 17.09C398.233 17.0527 398.391 17.0153 398.513 16.978V17.916C398.382 17.9813 398.195 18.0327 397.953 18.07C397.71 18.1167 397.477 18.14 397.253 18.14C396.861 18.14 396.497 18.0747 396.161 17.944C395.834 17.804 395.568 17.566 395.363 17.23C395.157 16.894 395.055 16.4227 395.055 15.816V11.448H393.991V10.86L395.069 10.37L395.559 8.774H396.287V10.496H398.457V11.448H396.287V15.788C396.287 16.2453 396.394 16.586 396.609 16.81C396.833 17.0247 397.117 17.132 397.463 17.132ZM401.247 10.496V18H400.015V10.496H401.247ZM400.645 7.682C400.832 7.682 400.995 7.74733 401.135 7.878C401.285 7.99933 401.359 8.19533 401.359 8.466C401.359 8.72733 401.285 8.92333 401.135 9.054C400.995 9.18467 400.832 9.25 400.645 9.25C400.44 9.25 400.267 9.18467 400.127 9.054C399.987 8.92333 399.917 8.72733 399.917 8.466C399.917 8.19533 399.987 7.99933 400.127 7.878C400.267 7.74733 400.44 7.682 400.645 7.682ZM411.801 12.904C411.801 14.024 411.591 14.962 411.171 15.718C410.76 16.474 410.167 17.0433 409.393 17.426C408.618 17.8087 407.68 18 406.579 18H403.793V8.004H406.873C407.881 8.004 408.753 8.19067 409.491 8.564C410.228 8.93733 410.797 9.488 411.199 10.216C411.6 10.9347 411.801 11.8307 411.801 12.904ZM410.471 12.946C410.471 12.0593 410.321 11.3313 410.023 10.762C409.733 10.1927 409.304 9.77267 408.735 9.502C408.175 9.222 407.493 9.082 406.691 9.082H405.053V16.922H406.411C407.764 16.922 408.777 16.5907 409.449 15.928C410.13 15.256 410.471 14.262 410.471 12.946ZM418.303 8.97C417.771 8.97 417.29 9.06333 416.861 9.25C416.432 9.42733 416.068 9.69333 415.769 10.048C415.47 10.3933 415.242 10.818 415.083 11.322C414.924 11.8167 414.845 12.3767 414.845 13.002C414.845 13.8233 414.971 14.5373 415.223 15.144C415.484 15.7507 415.867 16.2173 416.371 16.544C416.884 16.8707 417.524 17.034 418.289 17.034C418.728 17.034 419.143 16.9967 419.535 16.922C419.927 16.8473 420.31 16.754 420.683 16.642V17.734C420.31 17.874 419.922 17.9767 419.521 18.042C419.129 18.1073 418.658 18.14 418.107 18.14C417.09 18.14 416.24 17.93 415.559 17.51C414.878 17.09 414.364 16.4927 414.019 15.718C413.683 14.9433 413.515 14.0333 413.515 12.988C413.515 12.232 413.618 11.5413 413.823 10.916C414.038 10.2907 414.346 9.74933 414.747 9.292C415.158 8.83467 415.662 8.48467 416.259 8.242C416.856 7.99 417.542 7.864 418.317 7.864C418.83 7.864 419.325 7.91533 419.801 8.018C420.277 8.12067 420.702 8.26533 421.075 8.452L420.571 9.516C420.263 9.376 419.918 9.25 419.535 9.138C419.162 9.026 418.751 8.97 418.303 8.97ZM430.929 10.356C431.778 10.356 432.413 10.5753 432.833 11.014C433.253 11.4433 433.463 12.1433 433.463 13.114V18H432.245V13.17C432.245 12.582 432.119 12.1387 431.867 11.84C431.624 11.5413 431.242 11.392 430.719 11.392C429.991 11.392 429.468 11.602 429.151 12.022C428.843 12.442 428.689 13.0533 428.689 13.856V18H427.471V13.17C427.471 12.778 427.415 12.4513 427.303 12.19C427.191 11.9193 427.023 11.7187 426.799 11.588C426.575 11.4573 426.286 11.392 425.931 11.392C425.427 11.392 425.03 11.4993 424.741 11.714C424.452 11.9193 424.242 12.2227 424.111 12.624C423.99 13.0253 423.929 13.52 423.929 14.108V18H422.697V10.496H423.691L423.873 11.518H423.943C424.102 11.2567 424.293 11.042 424.517 10.874C424.75 10.6967 425.007 10.566 425.287 10.482C425.567 10.398 425.856 10.356 426.155 10.356C426.734 10.356 427.214 10.4587 427.597 10.664C427.989 10.8693 428.274 11.1867 428.451 11.616H428.521C428.773 11.1867 429.114 10.8693 429.543 10.664C429.982 10.4587 430.444 10.356 430.929 10.356ZM440.667 15.928C440.667 16.4133 440.545 16.8193 440.303 17.146C440.06 17.4727 439.715 17.72 439.267 17.888C438.819 18.056 438.287 18.14 437.671 18.14C437.148 18.14 436.695 18.098 436.313 18.014C435.939 17.93 435.608 17.8133 435.319 17.664V16.544C435.617 16.6933 435.977 16.8333 436.397 16.964C436.826 17.0853 437.26 17.146 437.699 17.146C438.324 17.146 438.777 17.048 439.057 16.852C439.337 16.6467 439.477 16.376 439.477 16.04C439.477 15.8533 439.425 15.6853 439.323 15.536C439.22 15.3867 439.033 15.2373 438.763 15.088C438.501 14.9387 438.123 14.7707 437.629 14.584C437.143 14.3973 436.728 14.2107 436.383 14.024C436.037 13.8373 435.771 13.6133 435.585 13.352C435.398 13.0907 435.305 12.7547 435.305 12.344C435.305 11.7093 435.561 11.2193 436.075 10.874C436.597 10.5287 437.279 10.356 438.119 10.356C438.576 10.356 439.001 10.4027 439.393 10.496C439.794 10.58 440.167 10.7013 440.513 10.86L440.093 11.84C439.887 11.7467 439.668 11.6673 439.435 11.602C439.211 11.5273 438.982 11.4713 438.749 11.434C438.515 11.3873 438.277 11.364 438.035 11.364C437.531 11.364 437.143 11.448 436.873 11.616C436.611 11.7747 436.481 11.994 436.481 12.274C436.481 12.4793 436.541 12.6567 436.663 12.806C436.784 12.946 436.985 13.086 437.265 13.226C437.554 13.3567 437.937 13.5153 438.413 13.702C438.889 13.8793 439.295 14.0613 439.631 14.248C439.967 14.4347 440.223 14.6633 440.401 14.934C440.578 15.1953 440.667 15.5267 440.667 15.928ZM450.572 18H449.102L443.754 9.698H443.698C443.707 9.866 443.717 10.0527 443.726 10.258C443.745 10.4633 443.759 10.6873 443.768 10.93C443.777 11.1633 443.787 11.406 443.796 11.658C443.805 11.91 443.81 12.162 443.81 12.414V18H442.648V8.004H444.104L449.438 16.278H449.494C449.485 16.166 449.475 16.012 449.466 15.816C449.457 15.6107 449.447 15.3867 449.438 15.144C449.429 14.892 449.419 14.6353 449.41 14.374C449.401 14.1127 449.396 13.87 449.396 13.646V8.004H450.572V18ZM456.127 18.14C455.464 18.14 454.871 18.0047 454.349 17.734C453.835 17.4633 453.429 17.0433 453.131 16.474C452.841 15.9047 452.697 15.1767 452.697 14.29C452.697 13.366 452.851 12.6147 453.159 12.036C453.467 11.4573 453.882 11.0327 454.405 10.762C454.937 10.4913 455.539 10.356 456.211 10.356C456.593 10.356 456.962 10.398 457.317 10.482C457.671 10.5567 457.961 10.65 458.185 10.762L457.807 11.784C457.583 11.7 457.321 11.6207 457.023 11.546C456.724 11.4713 456.444 11.434 456.183 11.434C455.679 11.434 455.263 11.5413 454.937 11.756C454.61 11.9707 454.367 12.288 454.209 12.708C454.05 13.128 453.971 13.6507 453.971 14.276C453.971 14.8733 454.05 15.382 454.209 15.802C454.367 16.222 454.605 16.5393 454.923 16.754C455.24 16.9687 455.637 17.076 456.113 17.076C456.523 17.076 456.883 17.034 457.191 16.95C457.508 16.866 457.797 16.7633 458.059 16.642V17.734C457.807 17.8647 457.527 17.9627 457.219 18.028C456.92 18.1027 456.556 18.14 456.127 18.14ZM461.495 18L458.653 10.496H459.969L461.565 14.92C461.64 15.1253 461.719 15.354 461.803 15.606C461.887 15.858 461.962 16.1007 462.027 16.334C462.093 16.558 462.139 16.7493 462.167 16.908H462.223C462.261 16.7493 462.312 16.5533 462.377 16.32C462.452 16.0867 462.531 15.844 462.615 15.592C462.709 15.34 462.788 15.116 462.853 14.92L464.449 10.496H465.765L462.909 18H461.495ZM471.531 18L468.241 9.236H468.185C468.203 9.42267 468.217 9.66067 468.227 9.95C468.245 10.2393 468.259 10.5567 468.269 10.902C468.278 11.238 468.283 11.5833 468.283 11.938V18H467.121V8.004H468.983L472.063 16.194H472.119L475.255 8.004H477.103V18H475.857V11.854C475.857 11.5273 475.861 11.2053 475.871 10.888C475.88 10.5613 475.894 10.258 475.913 9.978C475.931 9.68867 475.945 9.446 475.955 9.25H475.899L472.567 18H471.531ZM482.16 17.132C482.347 17.132 482.538 17.118 482.734 17.09C482.93 17.0527 483.089 17.0153 483.21 16.978V17.916C483.079 17.9813 482.893 18.0327 482.65 18.07C482.407 18.1167 482.174 18.14 481.95 18.14C481.558 18.14 481.194 18.0747 480.858 17.944C480.531 17.804 480.265 17.566 480.06 17.23C479.855 16.894 479.752 16.4227 479.752 15.816V11.448H478.688V10.86L479.766 10.37L480.256 8.774H480.984V10.496H483.154V11.448H480.984V15.788C480.984 16.2453 481.091 16.586 481.306 16.81C481.53 17.0247 481.815 17.132 482.16 17.132ZM487.526 8.004C488.833 8.004 489.785 8.26067 490.382 8.774C490.98 9.28733 491.278 10.0107 491.278 10.944C491.278 11.3547 491.208 11.7513 491.068 12.134C490.938 12.5073 490.718 12.8433 490.41 13.142C490.102 13.4407 489.692 13.6787 489.178 13.856C488.665 14.024 488.035 14.108 487.288 14.108H486.14V18H484.88V8.004H487.526ZM487.414 9.082H486.14V13.03H487.148C487.783 13.03 488.31 12.9647 488.73 12.834C489.15 12.694 489.463 12.4747 489.668 12.176C489.874 11.8773 489.976 11.4853 489.976 11C489.976 10.356 489.771 9.87533 489.36 9.558C488.95 9.24067 488.301 9.082 487.414 9.082ZM500.959 14.472C500.959 15.1627 500.819 15.788 500.539 16.348C500.259 16.8987 499.83 17.3373 499.251 17.664C498.682 17.9813 497.954 18.14 497.067 18.14C495.826 18.14 494.878 17.804 494.225 17.132C493.581 16.4507 493.259 15.5547 493.259 14.444V8.004H494.519V14.486C494.519 15.298 494.734 15.928 495.163 16.376C495.602 16.824 496.26 17.048 497.137 17.048C497.744 17.048 498.234 16.9407 498.607 16.726C498.99 16.502 499.27 16.1987 499.447 15.816C499.624 15.424 499.713 14.976 499.713 14.472V8.004H500.959V14.472ZM509.519 12.274C509.519 12.8433 509.477 13.4127 509.393 13.982C509.319 14.542 509.183 15.074 508.987 15.578C508.791 16.0727 508.521 16.516 508.175 16.908C507.83 17.2907 507.391 17.594 506.859 17.818C506.327 18.0327 505.683 18.14 504.927 18.14C504.741 18.14 504.521 18.126 504.269 18.098C504.027 18.0793 503.826 18.0467 503.667 18V16.95C503.835 17.006 504.031 17.0527 504.255 17.09C504.479 17.118 504.694 17.132 504.899 17.132C505.553 17.132 506.089 17.0247 506.509 16.81C506.939 16.5953 507.279 16.306 507.531 15.942C507.783 15.5687 507.965 15.1393 508.077 14.654C508.189 14.1593 508.255 13.6413 508.273 13.1H508.189C508.049 13.3147 507.872 13.5107 507.657 13.688C507.443 13.8653 507.181 14.0053 506.873 14.108C506.575 14.2107 506.22 14.262 505.809 14.262C505.24 14.262 504.736 14.1453 504.297 13.912C503.868 13.6693 503.532 13.324 503.289 12.876C503.056 12.428 502.939 11.882 502.939 11.238C502.939 10.538 503.07 9.936 503.331 9.432C503.602 8.928 503.975 8.54067 504.451 8.27C504.927 7.99933 505.487 7.864 506.131 7.864C506.607 7.864 507.051 7.95733 507.461 8.144C507.872 8.32133 508.231 8.592 508.539 8.956C508.847 9.32 509.085 9.77733 509.253 10.328C509.431 10.8787 509.519 11.5273 509.519 12.274ZM506.131 8.9C505.553 8.9 505.077 9.09133 504.703 9.474C504.339 9.85667 504.157 10.44 504.157 11.224C504.157 11.868 504.311 12.3767 504.619 12.75C504.937 13.114 505.422 13.296 506.075 13.296C506.523 13.296 506.911 13.2073 507.237 13.03C507.564 12.8433 507.816 12.61 507.993 12.33C508.18 12.05 508.273 11.7607 508.273 11.462C508.273 11.1633 508.227 10.8647 508.133 10.566C508.049 10.258 507.919 9.978 507.741 9.726C507.564 9.474 507.34 9.27333 507.069 9.124C506.799 8.97467 506.486 8.9 506.131 8.9Z" fill="#555555"/>
</svg>
