<svg width="422" height="25" viewBox="0 0 422 25" fill="none" xmlns="http://www.w3.org/2000/svg">
<rect width="422" height="25" fill="#555555"/>
<rect x="117" width="305" height="25" fill="#F9C980"/>
<path d="M19.6402 18V8.004H20.9002V16.88H25.2682V18H19.6402ZM28.046 10.496V18H26.814V10.496H28.046ZM27.444 7.682C27.6307 7.682 27.794 7.74733 27.934 7.878C28.0834 7.99933 28.158 8.19533 28.158 8.466C28.158 8.72733 28.0834 8.92333 27.934 9.054C27.794 9.18467 27.6307 9.25 27.444 9.25C27.2387 9.25 27.066 9.18467 26.926 9.054C26.786 8.92333 26.716 8.72733 26.716 8.466C26.716 8.19533 26.786 7.99933 26.926 7.878C27.066 7.74733 27.2387 7.682 27.444 7.682ZM32.9294 17.132C33.1161 17.132 33.3074 17.118 33.5034 17.09C33.6994 17.0527 33.8581 17.0153 33.9794 16.978V17.916C33.8487 17.9813 33.6621 18.0327 33.4194 18.07C33.1767 18.1167 32.9434 18.14 32.7194 18.14C32.3274 18.14 31.9634 18.0747 31.6274 17.944C31.3007 17.804 31.0347 17.566 30.8294 17.23C30.6241 16.894 30.5214 16.4227 30.5214 15.816V11.448H29.4574V10.86L30.5354 10.37L31.0254 8.774H31.7534V10.496H33.9234V11.448H31.7534V15.788C31.7534 16.2453 31.8607 16.586 32.0754 16.81C32.2994 17.0247 32.5841 17.132 32.9294 17.132ZM38.38 10.356C39.024 10.356 39.5747 10.496 40.032 10.776C40.4987 11.056 40.8533 11.4527 41.096 11.966C41.348 12.47 41.474 13.0627 41.474 13.744V14.486H36.336C36.3547 15.3353 36.5693 15.984 36.98 16.432C37.4 16.8707 37.9833 17.09 38.73 17.09C39.206 17.09 39.626 17.048 39.99 16.964C40.3633 16.8707 40.746 16.74 41.138 16.572V17.65C40.7553 17.818 40.3773 17.9393 40.004 18.014C39.6307 18.098 39.1873 18.14 38.674 18.14C37.9647 18.14 37.3347 17.9953 36.784 17.706C36.2427 17.4167 35.818 16.9873 35.51 16.418C35.2113 15.8393 35.062 15.1347 35.062 14.304C35.062 13.4827 35.1973 12.778 35.468 12.19C35.748 11.602 36.1353 11.1493 36.63 10.832C37.134 10.5147 37.7173 10.356 38.38 10.356ZM38.366 11.364C37.778 11.364 37.3113 11.5553 36.966 11.938C36.63 12.3113 36.4293 12.834 36.364 13.506H40.186C40.186 13.0767 40.1207 12.7033 39.99 12.386C39.8593 12.0687 39.6587 11.8213 39.388 11.644C39.1267 11.4573 38.786 11.364 38.366 11.364ZM46.3943 18.14C45.7317 18.14 45.139 18.0047 44.6163 17.734C44.103 17.4633 43.697 17.0433 43.3983 16.474C43.109 15.9047 42.9643 15.1767 42.9643 14.29C42.9643 13.366 43.1183 12.6147 43.4263 12.036C43.7343 11.4573 44.1497 11.0327 44.6723 10.762C45.2043 10.4913 45.8063 10.356 46.4783 10.356C46.861 10.356 47.2297 10.398 47.5843 10.482C47.939 10.5567 48.2283 10.65 48.4523 10.762L48.0743 11.784C47.8503 11.7 47.589 11.6207 47.2903 11.546C46.9917 11.4713 46.7117 11.434 46.4503 11.434C45.9463 11.434 45.531 11.5413 45.2043 11.756C44.8777 11.9707 44.635 12.288 44.4763 12.708C44.3177 13.128 44.2383 13.6507 44.2383 14.276C44.2383 14.8733 44.3177 15.382 44.4763 15.802C44.635 16.222 44.873 16.5393 45.1903 16.754C45.5077 16.9687 45.9043 17.076 46.3803 17.076C46.791 17.076 47.1503 17.034 47.4583 16.95C47.7757 16.866 48.065 16.7633 48.3263 16.642V17.734C48.0743 17.8647 47.7943 17.9627 47.4863 18.028C47.1877 18.1027 46.8237 18.14 46.3943 18.14ZM56.6349 14.234C56.6349 14.8593 56.5509 15.4147 56.3829 15.9C56.2242 16.376 55.9909 16.782 55.6829 17.118C55.3842 17.454 55.0156 17.7107 54.5769 17.888C54.1476 18.056 53.6669 18.14 53.1349 18.14C52.6402 18.14 52.1829 18.056 51.7629 17.888C51.3429 17.7107 50.9789 17.454 50.6709 17.118C50.3629 16.782 50.1202 16.376 49.9429 15.9C49.7749 15.4147 49.6909 14.8593 49.6909 14.234C49.6909 13.4033 49.8309 12.7033 50.1109 12.134C50.3909 11.5553 50.7922 11.1167 51.3149 10.818C51.8376 10.51 52.4582 10.356 53.1769 10.356C53.8582 10.356 54.4556 10.51 54.9689 10.818C55.4916 11.1167 55.8976 11.5553 56.1869 12.134C56.4856 12.7033 56.6349 13.4033 56.6349 14.234ZM50.9649 14.234C50.9649 14.822 51.0396 15.3353 51.1889 15.774C51.3476 16.2033 51.5902 16.5347 51.9169 16.768C52.2436 17.0013 52.6589 17.118 53.1629 17.118C53.6669 17.118 54.0822 17.0013 54.4089 16.768C54.7356 16.5347 54.9736 16.2033 55.1229 15.774C55.2816 15.3353 55.3609 14.822 55.3609 14.234C55.3609 13.6367 55.2816 13.128 55.1229 12.708C54.9642 12.288 54.7216 11.966 54.3949 11.742C54.0776 11.5087 53.6622 11.392 53.1489 11.392C52.3836 11.392 51.8282 11.644 51.4829 12.148C51.1376 12.652 50.9649 13.3473 50.9649 14.234ZM59.8195 10.496V18H58.5875V10.496H59.8195ZM59.2175 7.682C59.4041 7.682 59.5675 7.74733 59.7075 7.878C59.8568 7.99933 59.9315 8.19533 59.9315 8.466C59.9315 8.72733 59.8568 8.92333 59.7075 9.054C59.5675 9.18467 59.4041 9.25 59.2175 9.25C59.0121 9.25 58.8395 9.18467 58.6995 9.054C58.5595 8.92333 58.4895 8.72733 58.4895 8.466C58.4895 8.19533 58.5595 7.99933 58.6995 7.878C58.8395 7.74733 59.0121 7.682 59.2175 7.682ZM65.8088 10.356C66.7048 10.356 67.3815 10.5753 67.8388 11.014C68.2962 11.4433 68.5248 12.1433 68.5248 13.114V18H67.3068V13.198C67.3068 12.5913 67.1715 12.1387 66.9008 11.84C66.6302 11.5413 66.2055 11.392 65.6268 11.392C64.7962 11.392 64.2222 11.6253 63.9048 12.092C63.5875 12.5587 63.4288 13.2307 63.4288 14.108V18H62.1968V10.496H63.1908L63.3728 11.518H63.4428C63.6108 11.2567 63.8162 11.042 64.0588 10.874C64.3108 10.6967 64.5862 10.566 64.8848 10.482C65.1835 10.398 65.4915 10.356 65.8088 10.356ZM74.6559 18V8.004H75.9159V16.88H80.2839V18H74.6559ZM84.8882 18H83.6282V9.11H80.5062V8.004H87.9962V9.11H84.8882V18ZM93.5141 8.97C92.9821 8.97 92.5014 9.06333 92.0721 9.25C91.6427 9.42733 91.2787 9.69333 90.9801 10.048C90.6814 10.3933 90.4527 10.818 90.2941 11.322C90.1354 11.8167 90.0561 12.3767 90.0561 13.002C90.0561 13.8233 90.1821 14.5373 90.4341 15.144C90.6954 15.7507 91.0781 16.2173 91.5821 16.544C92.0954 16.8707 92.7347 17.034 93.5001 17.034C93.9387 17.034 94.3541 16.9967 94.7461 16.922C95.1381 16.8473 95.5207 16.754 95.8941 16.642V17.734C95.5207 17.874 95.1334 17.9767 94.7321 18.042C94.3401 18.1073 93.8687 18.14 93.3181 18.14C92.3007 18.14 91.4514 17.93 90.7701 17.51C90.0887 17.09 89.5754 16.4927 89.2301 15.718C88.8941 14.9433 88.7261 14.0333 88.7261 12.988C88.7261 12.232 88.8287 11.5413 89.0341 10.916C89.2487 10.2907 89.5567 9.74933 89.9581 9.292C90.3687 8.83467 90.8727 8.48467 91.4701 8.242C92.0674 7.99 92.7534 7.864 93.5281 7.864C94.0414 7.864 94.5361 7.91533 95.0121 8.018C95.4881 8.12067 95.9127 8.26533 96.2861 8.452L95.7821 9.516C95.4741 9.376 95.1287 9.25 94.7461 9.138C94.3727 9.026 93.9621 8.97 93.5141 8.97Z" fill="white"/>
<path d="M126.38 18V8.004H127.64V16.88H132.008V18H126.38ZM139.392 15.326C139.392 15.9233 139.248 16.432 138.958 16.852C138.669 17.2627 138.254 17.58 137.712 17.804C137.18 18.028 136.55 18.14 135.822 18.14C135.449 18.14 135.09 18.1213 134.744 18.084C134.408 18.0467 134.1 17.9953 133.82 17.93C133.54 17.8553 133.293 17.7667 133.078 17.664V16.46C133.414 16.6093 133.83 16.7447 134.324 16.866C134.828 16.9873 135.346 17.048 135.878 17.048C136.373 17.048 136.788 16.9827 137.124 16.852C137.46 16.7213 137.712 16.5347 137.88 16.292C138.048 16.0493 138.132 15.7647 138.132 15.438C138.132 15.1113 138.062 14.836 137.922 14.612C137.782 14.388 137.54 14.1827 137.194 13.996C136.858 13.8 136.387 13.5947 135.78 13.38C135.351 13.2213 134.973 13.0533 134.646 12.876C134.329 12.6893 134.063 12.4793 133.848 12.246C133.634 12.0127 133.47 11.7467 133.358 11.448C133.256 11.1493 133.204 10.804 133.204 10.412C133.204 9.88 133.34 9.42733 133.61 9.054C133.881 8.67133 134.254 8.37733 134.73 8.172C135.216 7.96667 135.771 7.864 136.396 7.864C136.947 7.864 137.451 7.91533 137.908 8.018C138.366 8.12067 138.781 8.256 139.154 8.424L138.762 9.502C138.417 9.35267 138.039 9.22667 137.628 9.124C137.227 9.02133 136.807 8.97 136.368 8.97C135.948 8.97 135.598 9.03067 135.318 9.152C135.038 9.27333 134.828 9.446 134.688 9.67C134.548 9.88467 134.478 10.1367 134.478 10.426C134.478 10.762 134.548 11.042 134.688 11.266C134.828 11.49 135.057 11.6907 135.374 11.868C135.692 12.0453 136.121 12.2367 136.662 12.442C137.25 12.6567 137.745 12.89 138.146 13.142C138.557 13.3847 138.865 13.6787 139.07 14.024C139.285 14.3693 139.392 14.8033 139.392 15.326ZM140.818 13.73C140.818 13.1513 140.855 12.582 140.93 12.022C141.014 11.462 141.154 10.9347 141.35 10.44C141.546 9.936 141.817 9.49267 142.162 9.11C142.507 8.718 142.941 8.41467 143.464 8.2C143.996 7.976 144.64 7.864 145.396 7.864C145.592 7.864 145.807 7.87333 146.04 7.892C146.283 7.91067 146.479 7.94333 146.628 7.99V9.04C146.46 8.984 146.269 8.942 146.054 8.914C145.849 8.886 145.639 8.872 145.424 8.872C144.78 8.872 144.243 8.97933 143.814 9.194C143.385 9.40867 143.044 9.70267 142.792 10.076C142.549 10.4493 142.372 10.8787 142.26 11.364C142.148 11.8493 142.078 12.3673 142.05 12.918H142.134C142.274 12.694 142.451 12.4933 142.666 12.316C142.881 12.1387 143.137 11.9987 143.436 11.896C143.744 11.7933 144.099 11.742 144.5 11.742C145.079 11.742 145.583 11.8633 146.012 12.106C146.451 12.3393 146.791 12.6847 147.034 13.142C147.277 13.59 147.398 14.136 147.398 14.78C147.398 15.4707 147.267 16.068 147.006 16.572C146.745 17.076 146.376 17.4633 145.9 17.734C145.433 18.0047 144.873 18.14 144.22 18.14C143.744 18.14 143.301 18.0513 142.89 17.874C142.479 17.6967 142.115 17.426 141.798 17.062C141.49 16.698 141.247 16.2407 141.07 15.69C140.902 15.13 140.818 14.4767 140.818 13.73ZM144.206 17.104C144.794 17.104 145.27 16.9173 145.634 16.544C145.998 16.1613 146.18 15.5733 146.18 14.78C146.18 14.1453 146.017 13.6413 145.69 13.268C145.373 12.8947 144.892 12.708 144.248 12.708C143.809 12.708 143.427 12.8013 143.1 12.988C142.773 13.1653 142.517 13.394 142.33 13.674C142.153 13.954 142.064 14.2433 142.064 14.542C142.064 14.85 142.106 15.1533 142.19 15.452C142.283 15.7507 142.419 16.026 142.596 16.278C142.783 16.53 143.007 16.7307 143.268 16.88C143.539 17.0293 143.851 17.104 144.206 17.104ZM153.03 18H151.826V11.014C151.826 10.7433 151.826 10.5147 151.826 10.328C151.835 10.1413 151.844 9.96867 151.854 9.81C151.863 9.642 151.872 9.46933 151.882 9.292C151.732 9.44133 151.597 9.56733 151.476 9.67C151.354 9.77267 151.2 9.90333 151.014 10.062L149.95 10.93L149.306 10.104L152.008 8.004H153.03V18ZM165.493 10.356C166.343 10.356 166.977 10.5753 167.397 11.014C167.817 11.4433 168.027 12.1433 168.027 13.114V18H166.809V13.17C166.809 12.582 166.683 12.1387 166.431 11.84C166.189 11.5413 165.806 11.392 165.283 11.392C164.555 11.392 164.033 11.602 163.715 12.022C163.407 12.442 163.253 13.0533 163.253 13.856V18H162.035V13.17C162.035 12.778 161.979 12.4513 161.867 12.19C161.755 11.9193 161.587 11.7187 161.363 11.588C161.139 11.4573 160.85 11.392 160.495 11.392C159.991 11.392 159.595 11.4993 159.305 11.714C159.016 11.9193 158.806 12.2227 158.675 12.624C158.554 13.0253 158.493 13.52 158.493 14.108V18H157.261V10.496H158.255L158.437 11.518H158.507C158.666 11.2567 158.857 11.042 159.081 10.874C159.315 10.6967 159.571 10.566 159.851 10.482C160.131 10.398 160.421 10.356 160.719 10.356C161.298 10.356 161.779 10.4587 162.161 10.664C162.553 10.8693 162.838 11.1867 163.015 11.616H163.085C163.337 11.1867 163.678 10.8693 164.107 10.664C164.546 10.4587 165.008 10.356 165.493 10.356ZM172.123 14.164L169.533 10.496H170.933L172.865 13.324L174.783 10.496H176.169L173.579 14.164L176.309 18H174.909L172.865 15.004L170.793 18H169.407L172.123 14.164ZM180.142 18.14C179.209 18.14 178.462 17.818 177.902 17.174C177.342 16.5207 177.062 15.55 177.062 14.262C177.062 12.974 177.342 12.0033 177.902 11.35C178.471 10.6873 179.223 10.356 180.156 10.356C180.548 10.356 180.889 10.4073 181.178 10.51C181.467 10.6033 181.719 10.734 181.934 10.902C182.149 11.07 182.331 11.2567 182.48 11.462H182.564C182.555 11.3407 182.536 11.1633 182.508 10.93C182.489 10.6873 182.48 10.496 182.48 10.356V7.36H183.712V18H182.718L182.536 16.992H182.48C182.331 17.2067 182.149 17.4027 181.934 17.58C181.719 17.748 181.463 17.8833 181.164 17.986C180.875 18.0887 180.534 18.14 180.142 18.14ZM180.338 17.118C181.131 17.118 181.687 16.9033 182.004 16.474C182.331 16.0353 182.494 15.3773 182.494 14.5V14.276C182.494 13.3427 182.34 12.6287 182.032 12.134C181.724 11.63 181.155 11.378 180.324 11.378C179.661 11.378 179.162 11.644 178.826 12.176C178.499 12.6987 178.336 13.4033 178.336 14.29C178.336 15.186 178.499 15.8813 178.826 16.376C179.162 16.8707 179.666 17.118 180.338 17.118ZM189.021 8.004C189.852 8.004 190.533 8.11133 191.065 8.326C191.607 8.53133 192.008 8.844 192.269 9.264C192.531 9.684 192.661 10.2113 192.661 10.846C192.661 11.378 192.563 11.8213 192.367 12.176C192.171 12.5307 191.919 12.8153 191.611 13.03C191.313 13.2353 190.995 13.3987 190.659 13.52L193.403 18H191.933L189.511 13.87H187.523V18H186.263V8.004H189.021ZM188.951 9.096H187.523V12.806H189.021C189.563 12.806 190.006 12.736 190.351 12.596C190.697 12.4467 190.949 12.232 191.107 11.952C191.275 11.672 191.359 11.322 191.359 10.902C191.359 10.4633 191.271 10.1133 191.093 9.852C190.925 9.59067 190.664 9.39933 190.309 9.278C189.955 9.15667 189.502 9.096 188.951 9.096ZM197.646 10.37C198.561 10.37 199.238 10.5707 199.676 10.972C200.115 11.3733 200.334 12.0127 200.334 12.89V18H199.438L199.2 16.936H199.144C198.93 17.2067 198.706 17.4353 198.472 17.622C198.248 17.7993 197.987 17.93 197.688 18.014C197.399 18.098 197.044 18.14 196.624 18.14C196.176 18.14 195.77 18.0607 195.406 17.902C195.052 17.7433 194.772 17.5007 194.566 17.174C194.361 16.838 194.258 16.418 194.258 15.914C194.258 15.1673 194.552 14.5933 195.14 14.192C195.728 13.7813 196.634 13.5573 197.856 13.52L199.13 13.478V13.03C199.13 12.4047 198.995 11.9707 198.724 11.728C198.454 11.4853 198.071 11.364 197.576 11.364C197.184 11.364 196.811 11.4247 196.456 11.546C196.102 11.658 195.77 11.7887 195.462 11.938L195.084 11.014C195.411 10.8367 195.798 10.6873 196.246 10.566C196.694 10.4353 197.161 10.37 197.646 10.37ZM198.01 14.374C197.077 14.4113 196.428 14.5607 196.064 14.822C195.71 15.0833 195.532 15.452 195.532 15.928C195.532 16.348 195.658 16.656 195.91 16.852C196.172 17.048 196.503 17.146 196.904 17.146C197.539 17.146 198.066 16.9733 198.486 16.628C198.906 16.2733 199.116 15.732 199.116 15.004V14.332L198.01 14.374ZM205.312 10.356C205.807 10.356 206.25 10.4493 206.642 10.636C207.043 10.8227 207.384 11.1073 207.664 11.49H207.734L207.902 10.496H208.882V18.126C208.882 18.8353 208.761 19.428 208.518 19.904C208.275 20.3893 207.907 20.7533 207.412 20.996C206.917 21.2387 206.287 21.36 205.522 21.36C204.981 21.36 204.481 21.318 204.024 21.234C203.576 21.1593 203.175 21.0427 202.82 20.884V19.75C203.063 19.8713 203.329 19.974 203.618 20.058C203.907 20.1513 204.22 20.2213 204.556 20.268C204.892 20.3147 205.237 20.338 205.592 20.338C206.236 20.338 206.74 20.1467 207.104 19.764C207.477 19.3907 207.664 18.8773 207.664 18.224V17.93C207.664 17.818 207.669 17.6593 207.678 17.454C207.687 17.2393 207.697 17.09 207.706 17.006H207.65C207.389 17.3887 207.062 17.6733 206.67 17.86C206.287 18.0467 205.839 18.14 205.326 18.14C204.355 18.14 203.595 17.7993 203.044 17.118C202.503 16.4367 202.232 15.4847 202.232 14.262C202.232 13.4593 202.353 12.7687 202.596 12.19C202.848 11.602 203.203 11.1493 203.66 10.832C204.117 10.5147 204.668 10.356 205.312 10.356ZM205.48 11.392C205.06 11.392 204.701 11.504 204.402 11.728C204.113 11.952 203.889 12.2787 203.73 12.708C203.581 13.1373 203.506 13.66 203.506 14.276C203.506 15.2 203.674 15.9093 204.01 16.404C204.355 16.8893 204.855 17.132 205.508 17.132C205.891 17.132 206.217 17.0853 206.488 16.992C206.759 16.8893 206.983 16.7353 207.16 16.53C207.337 16.3153 207.468 16.0447 207.552 15.718C207.636 15.3913 207.678 15.004 207.678 14.556V14.262C207.678 13.5807 207.599 13.03 207.44 12.61C207.291 12.19 207.053 11.882 206.726 11.686C206.399 11.49 205.984 11.392 205.48 11.392ZM222.913 8.004L220.253 18H218.979L217.033 11.448C216.977 11.252 216.921 11.0513 216.865 10.846C216.809 10.6407 216.758 10.4447 216.711 10.258C216.665 10.0713 216.623 9.91267 216.585 9.782C216.557 9.642 216.539 9.53933 216.529 9.474C216.52 9.53933 216.501 9.642 216.473 9.782C216.455 9.91267 216.422 10.0713 216.375 10.258C216.329 10.4447 216.277 10.6453 216.221 10.86C216.175 11.0653 216.119 11.2753 216.053 11.49L214.163 18H212.889L210.243 8.004H211.559L213.113 14.108C213.169 14.3227 213.221 14.5373 213.267 14.752C213.314 14.9573 213.356 15.1627 213.393 15.368C213.44 15.564 213.477 15.7553 213.505 15.942C213.533 16.1287 213.561 16.3107 213.589 16.488C213.617 16.3013 213.645 16.11 213.673 15.914C213.711 15.718 213.753 15.5173 213.799 15.312C213.846 15.0973 213.897 14.8827 213.953 14.668C214.009 14.4533 214.065 14.2433 214.121 14.038L215.885 8.004H217.187L219.021 14.08C219.087 14.2947 219.147 14.514 219.203 14.738C219.259 14.9527 219.311 15.1627 219.357 15.368C219.404 15.5733 219.441 15.774 219.469 15.97C219.507 16.1567 219.539 16.3293 219.567 16.488C219.595 16.2547 219.633 16.012 219.679 15.76C219.726 15.4987 219.782 15.228 219.847 14.948C219.913 14.668 219.983 14.3833 220.057 14.094L221.597 8.004H222.913ZM227.053 12.918L229.657 8.004H231.015L227.683 14.122V18H226.423V14.178L223.091 8.004H224.463L227.053 12.918ZM238.049 15.326C238.049 15.9233 237.904 16.432 237.615 16.852C237.325 17.2627 236.91 17.58 236.369 17.804C235.837 18.028 235.207 18.14 234.479 18.14C234.105 18.14 233.746 18.1213 233.401 18.084C233.065 18.0467 232.757 17.9953 232.477 17.93C232.197 17.8553 231.949 17.7667 231.735 17.664V16.46C232.071 16.6093 232.486 16.7447 232.981 16.866C233.485 16.9873 234.003 17.048 234.535 17.048C235.029 17.048 235.445 16.9827 235.781 16.852C236.117 16.7213 236.369 16.5347 236.537 16.292C236.705 16.0493 236.789 15.7647 236.789 15.438C236.789 15.1113 236.719 14.836 236.579 14.612C236.439 14.388 236.196 14.1827 235.851 13.996C235.515 13.8 235.043 13.5947 234.437 13.38C234.007 13.2213 233.629 13.0533 233.303 12.876C232.985 12.6893 232.719 12.4793 232.505 12.246C232.29 12.0127 232.127 11.7467 232.015 11.448C231.912 11.1493 231.861 10.804 231.861 10.412C231.861 9.88 231.996 9.42733 232.267 9.054C232.537 8.67133 232.911 8.37733 233.387 8.172C233.872 7.96667 234.427 7.864 235.053 7.864C235.603 7.864 236.107 7.91533 236.565 8.018C237.022 8.12067 237.437 8.256 237.811 8.424L237.419 9.502C237.073 9.35267 236.695 9.22667 236.285 9.124C235.883 9.02133 235.463 8.97 235.025 8.97C234.605 8.97 234.255 9.03067 233.975 9.152C233.695 9.27333 233.485 9.446 233.345 9.67C233.205 9.88467 233.135 10.1367 233.135 10.426C233.135 10.762 233.205 11.042 233.345 11.266C233.485 11.49 233.713 11.6907 234.031 11.868C234.348 12.0453 234.777 12.2367 235.319 12.442C235.907 12.6567 236.401 12.89 236.803 13.142C237.213 13.3847 237.521 13.6787 237.727 14.024C237.941 14.3693 238.049 14.8033 238.049 15.326ZM242.554 10.356C243.049 10.356 243.492 10.4493 243.884 10.636C244.285 10.8227 244.626 11.1073 244.906 11.49H244.976L245.144 10.496H246.124V18.126C246.124 18.8353 246.003 19.428 245.76 19.904C245.517 20.3893 245.149 20.7533 244.654 20.996C244.159 21.2387 243.529 21.36 242.764 21.36C242.223 21.36 241.723 21.318 241.266 21.234C240.818 21.1593 240.417 21.0427 240.062 20.884V19.75C240.305 19.8713 240.571 19.974 240.86 20.058C241.149 20.1513 241.462 20.2213 241.798 20.268C242.134 20.3147 242.479 20.338 242.834 20.338C243.478 20.338 243.982 20.1467 244.346 19.764C244.719 19.3907 244.906 18.8773 244.906 18.224V17.93C244.906 17.818 244.911 17.6593 244.92 17.454C244.929 17.2393 244.939 17.09 244.948 17.006H244.892C244.631 17.3887 244.304 17.6733 243.912 17.86C243.529 18.0467 243.081 18.14 242.568 18.14C241.597 18.14 240.837 17.7993 240.286 17.118C239.745 16.4367 239.474 15.4847 239.474 14.262C239.474 13.4593 239.595 12.7687 239.838 12.19C240.09 11.602 240.445 11.1493 240.902 10.832C241.359 10.5147 241.91 10.356 242.554 10.356ZM242.722 11.392C242.302 11.392 241.943 11.504 241.644 11.728C241.355 11.952 241.131 12.2787 240.972 12.708C240.823 13.1373 240.748 13.66 240.748 14.276C240.748 15.2 240.916 15.9093 241.252 16.404C241.597 16.8893 242.097 17.132 242.75 17.132C243.133 17.132 243.459 17.0853 243.73 16.992C244.001 16.8893 244.225 16.7353 244.402 16.53C244.579 16.3153 244.71 16.0447 244.794 15.718C244.878 15.3913 244.92 15.004 244.92 14.556V14.262C244.92 13.5807 244.841 13.03 244.682 12.61C244.533 12.19 244.295 11.882 243.968 11.686C243.641 11.49 243.226 11.392 242.722 11.392ZM254.779 18H247.849V17.048L253.113 9.124H248.017V8.004H254.639V8.956L249.375 16.88H254.779V18ZM263.477 18H262.049L259.403 13.66L256.715 18H255.385L258.703 12.792L255.595 8.004H256.995L259.445 11.924L261.909 8.004H263.239L260.145 12.764L263.477 18ZM272.534 18H271.274V13.338H266.15V18H264.89V8.004H266.15V12.232H271.274V8.004H272.534V18ZM282.869 14.472C282.869 15.1627 282.729 15.788 282.449 16.348C282.169 16.8987 281.74 17.3373 281.161 17.664C280.592 17.9813 279.864 18.14 278.977 18.14C277.736 18.14 276.789 17.804 276.135 17.132C275.491 16.4507 275.169 15.5547 275.169 14.444V8.004H276.429V14.486C276.429 15.298 276.644 15.928 277.073 16.376C277.512 16.824 278.17 17.048 279.047 17.048C279.654 17.048 280.144 16.9407 280.517 16.726C280.9 16.502 281.18 16.1987 281.357 15.816C281.535 15.424 281.623 14.976 281.623 14.472V8.004H282.869V14.472ZM286.571 9.95C286.571 10.2673 286.562 10.566 286.543 10.846C286.534 11.1167 286.52 11.3313 286.501 11.49H286.571C286.786 11.1727 287.08 10.9067 287.453 10.692C287.827 10.4773 288.307 10.37 288.895 10.37C289.829 10.37 290.575 10.6967 291.135 11.35C291.705 11.994 291.989 12.96 291.989 14.248C291.989 15.1067 291.859 15.8253 291.597 16.404C291.345 16.9827 290.986 17.4167 290.519 17.706C290.053 17.9953 289.511 18.14 288.895 18.14C288.307 18.14 287.827 18.0327 287.453 17.818C287.08 17.6033 286.786 17.3467 286.571 17.048H286.473L286.221 18H285.339V7.36H286.571V9.95ZM288.685 11.392C288.153 11.392 287.733 11.4947 287.425 11.7C287.117 11.896 286.898 12.204 286.767 12.624C286.637 13.0347 286.571 13.562 286.571 14.206V14.262C286.571 15.186 286.721 15.8953 287.019 16.39C287.327 16.8753 287.892 17.118 288.713 17.118C289.385 17.118 289.885 16.8707 290.211 16.376C290.547 15.8813 290.715 15.1673 290.715 14.234C290.715 13.2913 290.547 12.582 290.211 12.106C289.885 11.63 289.376 11.392 288.685 11.392ZM297.411 11.448H295.521V18H294.289V11.448H292.973V10.874L294.289 10.454V10.02C294.289 9.376 294.382 8.85333 294.569 8.452C294.765 8.05067 295.045 7.75667 295.409 7.57C295.773 7.38333 296.211 7.29 296.725 7.29C297.023 7.29 297.294 7.318 297.537 7.374C297.789 7.42067 298.003 7.47667 298.181 7.542L297.859 8.508C297.709 8.46133 297.537 8.41467 297.341 8.368C297.145 8.32133 296.944 8.298 296.739 8.298C296.328 8.298 296.02 8.438 295.815 8.718C295.619 8.98867 295.521 9.418 295.521 10.006V10.496H297.411V11.448ZM302.335 10.356C303.259 10.356 304.001 10.678 304.561 11.322C305.131 11.966 305.415 12.9367 305.415 14.234C305.415 15.0833 305.285 15.802 305.023 16.39C304.771 16.9687 304.412 17.4073 303.945 17.706C303.488 17.9953 302.947 18.14 302.321 18.14C301.939 18.14 301.598 18.0887 301.299 17.986C301.001 17.8833 300.744 17.7527 300.529 17.594C300.324 17.426 300.147 17.244 299.997 17.048H299.913C299.932 17.2067 299.951 17.4073 299.969 17.65C299.988 17.8927 299.997 18.1027 299.997 18.28V21.36H298.765V10.496H299.773L299.941 11.518H299.997C300.147 11.3033 300.324 11.1073 300.529 10.93C300.744 10.7527 300.996 10.6127 301.285 10.51C301.584 10.4073 301.934 10.356 302.335 10.356ZM302.111 11.392C301.607 11.392 301.201 11.49 300.893 11.686C300.585 11.8727 300.361 12.1573 300.221 12.54C300.081 12.9227 300.007 13.408 299.997 13.996V14.234C299.997 14.85 300.063 15.3727 300.193 15.802C300.324 16.2313 300.543 16.558 300.851 16.782C301.169 17.006 301.598 17.118 302.139 17.118C302.597 17.118 302.97 16.992 303.259 16.74C303.558 16.488 303.777 16.1473 303.917 15.718C304.067 15.2793 304.141 14.78 304.141 14.22C304.141 13.3613 303.973 12.6753 303.637 12.162C303.311 11.6487 302.802 11.392 302.111 11.392ZM312.376 18.154C312.376 17.986 312.381 17.79 312.39 17.566C312.4 17.342 312.418 17.1507 312.446 16.992H312.362C312.148 17.3093 311.849 17.58 311.466 17.804C311.093 18.028 310.608 18.14 310.01 18.14C309.105 18.14 308.368 17.818 307.798 17.174C307.238 16.5207 306.958 15.55 306.958 14.262C306.958 13.4033 307.089 12.6847 307.35 12.106C307.612 11.5273 307.976 11.0933 308.442 10.804C308.909 10.5053 309.446 10.356 310.052 10.356C310.64 10.356 311.121 10.468 311.494 10.692C311.868 10.916 312.166 11.1913 312.39 11.518H312.446L312.628 10.496H313.608V21.36H312.376V18.154ZM310.248 17.118C310.762 17.118 311.172 17.0247 311.48 16.838C311.798 16.6513 312.026 16.3667 312.166 15.984C312.306 15.592 312.381 15.1067 312.39 14.528V14.276C312.39 13.324 312.232 12.6053 311.914 12.12C311.597 11.6253 311.032 11.378 310.22 11.378C309.548 11.378 309.049 11.644 308.722 12.176C308.396 12.6987 308.232 13.4033 308.232 14.29C308.232 15.1767 308.396 15.872 308.722 16.376C309.058 16.8707 309.567 17.118 310.248 17.118ZM317.224 10.496V18H315.992V10.496H317.224ZM316.622 7.682C316.808 7.682 316.972 7.74733 317.112 7.878C317.261 7.99933 317.336 8.19533 317.336 8.466C317.336 8.72733 317.261 8.92333 317.112 9.054C316.972 9.18467 316.808 9.25 316.622 9.25C316.416 9.25 316.244 9.18467 316.104 9.054C315.964 8.92333 315.894 8.72733 315.894 8.466C315.894 8.19533 315.964 7.99933 316.104 7.878C316.244 7.74733 316.416 7.682 316.622 7.682ZM322.625 8.004C323.456 8.004 324.151 8.08333 324.711 8.242C325.28 8.40067 325.705 8.662 325.985 9.026C326.274 9.39 326.419 9.87533 326.419 10.482C326.419 10.874 326.344 11.224 326.195 11.532C326.055 11.8307 325.84 12.0827 325.551 12.288C325.271 12.484 324.926 12.6193 324.515 12.694V12.764C324.935 12.8293 325.313 12.9507 325.649 13.128C325.994 13.3053 326.265 13.5573 326.461 13.884C326.657 14.2107 326.755 14.6353 326.755 15.158C326.755 15.7647 326.615 16.2827 326.335 16.712C326.055 17.132 325.654 17.454 325.131 17.678C324.618 17.8927 324.002 18 323.283 18H319.769V8.004H322.625ZM322.877 12.26C323.736 12.26 324.324 12.1247 324.641 11.854C324.958 11.574 325.117 11.1633 325.117 10.622C325.117 10.0713 324.921 9.67933 324.529 9.446C324.146 9.20333 323.53 9.082 322.681 9.082H321.029V12.26H322.877ZM321.029 13.31V16.936H323.045C323.932 16.936 324.548 16.7633 324.893 16.418C325.238 16.0727 325.411 15.62 325.411 15.06C325.411 14.7053 325.332 14.3973 325.173 14.136C325.024 13.8747 324.767 13.674 324.403 13.534C324.048 13.3847 323.563 13.31 322.947 13.31H321.029ZM332.207 10.356C332.347 10.356 332.496 10.3653 332.655 10.384C332.823 10.3933 332.967 10.412 333.089 10.44L332.935 11.574C332.813 11.546 332.678 11.5227 332.529 11.504C332.389 11.4853 332.253 11.476 332.123 11.476C331.833 11.476 331.558 11.5367 331.297 11.658C331.035 11.7793 330.802 11.952 330.597 12.176C330.391 12.3907 330.228 12.652 330.107 12.96C329.995 13.268 329.939 13.6133 329.939 13.996V18H328.707V10.496H329.715L329.855 11.868H329.911C330.069 11.588 330.261 11.336 330.485 11.112C330.709 10.8787 330.965 10.6967 331.255 10.566C331.544 10.426 331.861 10.356 332.207 10.356ZM341.7 8.004L338.13 18H336.87L333.3 8.004H334.616L336.87 14.416C336.972 14.6867 337.061 14.948 337.136 15.2C337.21 15.452 337.276 15.6947 337.332 15.928C337.397 16.152 337.453 16.376 337.5 16.6C337.546 16.376 337.598 16.1473 337.654 15.914C337.719 15.6807 337.789 15.438 337.864 15.186C337.948 14.934 338.036 14.668 338.13 14.388L340.37 8.004H341.7ZM342.464 13.73C342.464 13.1513 342.502 12.582 342.576 12.022C342.66 11.462 342.8 10.9347 342.996 10.44C343.192 9.936 343.463 9.49267 343.808 9.11C344.154 8.718 344.588 8.41467 345.11 8.2C345.642 7.976 346.286 7.864 347.042 7.864C347.238 7.864 347.453 7.87333 347.686 7.892C347.929 7.91067 348.125 7.94333 348.274 7.99V9.04C348.106 8.984 347.915 8.942 347.7 8.914C347.495 8.886 347.285 8.872 347.07 8.872C346.426 8.872 345.89 8.97933 345.46 9.194C345.031 9.40867 344.69 9.70267 344.438 10.076C344.196 10.4493 344.018 10.8787 343.906 11.364C343.794 11.8493 343.724 12.3673 343.696 12.918H343.78C343.92 12.694 344.098 12.4933 344.312 12.316C344.527 12.1387 344.784 11.9987 345.082 11.896C345.39 11.7933 345.745 11.742 346.146 11.742C346.725 11.742 347.229 11.8633 347.658 12.106C348.097 12.3393 348.438 12.6847 348.68 13.142C348.923 13.59 349.044 14.136 349.044 14.78C349.044 15.4707 348.914 16.068 348.652 16.572C348.391 17.076 348.022 17.4633 347.546 17.734C347.08 18.0047 346.52 18.14 345.866 18.14C345.39 18.14 344.947 18.0513 344.536 17.874C344.126 17.6967 343.762 17.426 343.444 17.062C343.136 16.698 342.894 16.2407 342.716 15.69C342.548 15.13 342.464 14.4767 342.464 13.73ZM345.852 17.104C346.44 17.104 346.916 16.9173 347.28 16.544C347.644 16.1613 347.826 15.5733 347.826 14.78C347.826 14.1453 347.663 13.6413 347.336 13.268C347.019 12.8947 346.538 12.708 345.894 12.708C345.456 12.708 345.073 12.8013 344.746 12.988C344.42 13.1653 344.163 13.394 343.976 13.674C343.799 13.954 343.71 14.2433 343.71 14.542C343.71 14.85 343.752 15.1533 343.836 15.452C343.93 15.7507 344.065 16.026 344.242 16.278C344.429 16.53 344.653 16.7307 344.914 16.88C345.185 17.0293 345.498 17.104 345.852 17.104ZM354.466 10.356C355.39 10.356 356.132 10.678 356.692 11.322C357.261 11.966 357.546 12.9367 357.546 14.234C357.546 15.0833 357.415 15.802 357.154 16.39C356.902 16.9687 356.543 17.4073 356.076 17.706C355.619 17.9953 355.077 18.14 354.452 18.14C354.069 18.14 353.729 18.0887 353.43 17.986C353.131 17.8833 352.875 17.7527 352.66 17.594C352.455 17.426 352.277 17.244 352.128 17.048H352.044C352.063 17.2067 352.081 17.4073 352.1 17.65C352.119 17.8927 352.128 18.1027 352.128 18.28V21.36H350.896V10.496H351.904L352.072 11.518H352.128C352.277 11.3033 352.455 11.1073 352.66 10.93C352.875 10.7527 353.127 10.6127 353.416 10.51C353.715 10.4073 354.065 10.356 354.466 10.356ZM354.242 11.392C353.738 11.392 353.332 11.49 353.024 11.686C352.716 11.8727 352.492 12.1573 352.352 12.54C352.212 12.9227 352.137 13.408 352.128 13.996V14.234C352.128 14.85 352.193 15.3727 352.324 15.802C352.455 16.2313 352.674 16.558 352.982 16.782C353.299 17.006 353.729 17.118 354.27 17.118C354.727 17.118 355.101 16.992 355.39 16.74C355.689 16.488 355.908 16.1473 356.048 15.718C356.197 15.2793 356.272 14.78 356.272 14.22C356.272 13.3613 356.104 12.6753 355.768 12.162C355.441 11.6487 354.933 11.392 354.242 11.392ZM371.157 8.004L368.497 18H367.223L365.277 11.448C365.221 11.252 365.165 11.0513 365.109 10.846C365.053 10.6407 365.002 10.4447 364.955 10.258C364.909 10.0713 364.867 9.91267 364.829 9.782C364.801 9.642 364.783 9.53933 364.773 9.474C364.764 9.53933 364.745 9.642 364.717 9.782C364.699 9.91267 364.666 10.0713 364.619 10.258C364.573 10.4447 364.521 10.6453 364.465 10.86C364.419 11.0653 364.363 11.2753 364.297 11.49L362.407 18H361.133L358.487 8.004H359.803L361.357 14.108C361.413 14.3227 361.465 14.5373 361.511 14.752C361.558 14.9573 361.6 15.1627 361.637 15.368C361.684 15.564 361.721 15.7553 361.749 15.942C361.777 16.1287 361.805 16.3107 361.833 16.488C361.861 16.3013 361.889 16.11 361.917 15.914C361.955 15.718 361.997 15.5173 362.043 15.312C362.09 15.0973 362.141 14.8827 362.197 14.668C362.253 14.4533 362.309 14.2433 362.365 14.038L364.129 8.004H365.431L367.265 14.08C367.331 14.2947 367.391 14.514 367.447 14.738C367.503 14.9527 367.555 15.1627 367.601 15.368C367.648 15.5733 367.685 15.774 367.713 15.97C367.751 16.1567 367.783 16.3293 367.811 16.488C367.839 16.2547 367.877 16.012 367.923 15.76C367.97 15.4987 368.026 15.228 368.091 14.948C368.157 14.668 368.227 14.3833 368.301 14.094L369.841 8.004H371.157ZM380.701 12.904C380.701 14.024 380.491 14.962 380.071 15.718C379.66 16.474 379.068 17.0433 378.293 17.426C377.518 17.8087 376.58 18 375.479 18H372.693V8.004H375.773C376.781 8.004 377.654 8.19067 378.391 8.564C379.128 8.93733 379.698 9.488 380.099 10.216C380.5 10.9347 380.701 11.8307 380.701 12.904ZM379.371 12.946C379.371 12.0593 379.222 11.3313 378.923 10.762C378.634 10.1927 378.204 9.77267 377.635 9.502C377.075 9.222 376.394 9.082 375.591 9.082H373.953V16.922H375.311C376.664 16.922 377.677 16.5907 378.349 15.928C379.03 15.256 379.371 14.262 379.371 12.946ZM381.576 10.496H382.892L384.516 14.766C384.609 15.018 384.693 15.2607 384.768 15.494C384.852 15.7273 384.926 15.956 384.992 16.18C385.057 16.3947 385.108 16.6047 385.146 16.81H385.202C385.258 16.5767 385.346 16.2733 385.468 15.9C385.589 15.5173 385.715 15.1347 385.846 14.752L387.372 10.496H388.702L385.468 19.036C385.29 19.5027 385.08 19.9087 384.838 20.254C384.604 20.6087 384.315 20.8793 383.97 21.066C383.634 21.262 383.223 21.36 382.738 21.36C382.514 21.36 382.318 21.346 382.15 21.318C381.982 21.2993 381.837 21.276 381.716 21.248V20.268C381.818 20.2867 381.94 20.3053 382.08 20.324C382.229 20.3427 382.383 20.352 382.542 20.352C382.831 20.352 383.078 20.296 383.284 20.184C383.498 20.0813 383.68 19.9273 383.83 19.722C383.979 19.526 384.105 19.2927 384.208 19.022L384.6 18.028L381.576 10.496ZM391.316 18H390.056V8.004H395.642V9.11H391.316V12.652H395.376V13.758H391.316V18ZM404.918 14.472C404.918 15.1627 404.778 15.788 404.498 16.348C404.218 16.8987 403.789 17.3373 403.21 17.664C402.641 17.9813 401.913 18.14 401.026 18.14C399.785 18.14 398.837 17.804 398.184 17.132C397.54 16.4507 397.218 15.5547 397.218 14.444V8.004H398.478V14.486C398.478 15.298 398.693 15.928 399.122 16.376C399.561 16.824 400.219 17.048 401.096 17.048C401.703 17.048 402.193 16.9407 402.566 16.726C402.949 16.502 403.229 16.1987 403.406 15.816C403.583 15.424 403.672 14.976 403.672 14.472V8.004H404.918V14.472ZM410.72 18H409.46V9.11H406.338V8.004H413.828V9.11H410.72V18Z" fill="#555555"/>
</svg>
