<svg width="415" height="25" viewBox="0 0 415 25" fill="none" xmlns="http://www.w3.org/2000/svg">
<rect width="415" height="25" fill="#555555"/>
<rect x="105" width="310" height="25" fill="#3FF3BD"/>
<path d="M26.8556 18H19.9256V17.048L25.1896 9.124H20.0936V8.004H26.7156V8.956L21.4516 16.88H26.8556V18ZM31.6053 18.14C30.9426 18.14 30.3499 18.0047 29.8273 17.734C29.3139 17.4633 28.9079 17.0433 28.6093 16.474C28.3199 15.9047 28.1753 15.1767 28.1753 14.29C28.1753 13.366 28.3293 12.6147 28.6373 12.036C28.9453 11.4573 29.3606 11.0327 29.8833 10.762C30.4153 10.4913 31.0173 10.356 31.6893 10.356C32.0719 10.356 32.4406 10.398 32.7953 10.482C33.1499 10.5567 33.4393 10.65 33.6633 10.762L33.2853 11.784C33.0613 11.7 32.7999 11.6207 32.5013 11.546C32.2026 11.4713 31.9226 11.434 31.6613 11.434C31.1573 11.434 30.7419 11.5413 30.4153 11.756C30.0886 11.9707 29.8459 12.288 29.6873 12.708C29.5286 13.128 29.4493 13.6507 29.4493 14.276C29.4493 14.8733 29.5286 15.382 29.6873 15.802C29.8459 16.222 30.0839 16.5393 30.4013 16.754C30.7186 16.9687 31.1153 17.076 31.5913 17.076C32.0019 17.076 32.3613 17.034 32.6693 16.95C32.9866 16.866 33.2759 16.7633 33.5373 16.642V17.734C33.2853 17.8647 33.0053 17.9627 32.6973 18.028C32.3986 18.1027 32.0346 18.14 31.6053 18.14ZM38.1638 10.37C39.0785 10.37 39.7552 10.5707 40.1938 10.972C40.6325 11.3733 40.8518 12.0127 40.8518 12.89V18H39.9558L39.7178 16.936H39.6618C39.4472 17.2067 39.2232 17.4353 38.9898 17.622C38.7658 17.7993 38.5045 17.93 38.2058 18.014C37.9165 18.098 37.5618 18.14 37.1418 18.14C36.6938 18.14 36.2878 18.0607 35.9238 17.902C35.5692 17.7433 35.2892 17.5007 35.0838 17.174C34.8785 16.838 34.7758 16.418 34.7758 15.914C34.7758 15.1673 35.0698 14.5933 35.6578 14.192C36.2458 13.7813 37.1512 13.5573 38.3738 13.52L39.6478 13.478V13.03C39.6478 12.4047 39.5125 11.9707 39.2418 11.728C38.9712 11.4853 38.5885 11.364 38.0938 11.364C37.7018 11.364 37.3285 11.4247 36.9738 11.546C36.6192 11.658 36.2878 11.7887 35.9798 11.938L35.6018 11.014C35.9285 10.8367 36.3158 10.6873 36.7638 10.566C37.2118 10.4353 37.6785 10.37 38.1638 10.37ZM38.5278 14.374C37.5945 14.4113 36.9458 14.5607 36.5818 14.822C36.2272 15.0833 36.0498 15.452 36.0498 15.928C36.0498 16.348 36.1758 16.656 36.4278 16.852C36.6892 17.048 37.0205 17.146 37.4218 17.146C38.0565 17.146 38.5838 16.9733 39.0038 16.628C39.4238 16.2733 39.6338 15.732 39.6338 15.004V14.332L38.5278 14.374ZM48.0555 15.928C48.0555 16.4133 47.9342 16.8193 47.6915 17.146C47.4488 17.4727 47.1035 17.72 46.6555 17.888C46.2075 18.056 45.6755 18.14 45.0595 18.14C44.5368 18.14 44.0842 18.098 43.7015 18.014C43.3282 17.93 42.9968 17.8133 42.7075 17.664V16.544C43.0062 16.6933 43.3655 16.8333 43.7855 16.964C44.2148 17.0853 44.6488 17.146 45.0875 17.146C45.7128 17.146 46.1655 17.048 46.4455 16.852C46.7255 16.6467 46.8655 16.376 46.8655 16.04C46.8655 15.8533 46.8142 15.6853 46.7115 15.536C46.6088 15.3867 46.4222 15.2373 46.1515 15.088C45.8902 14.9387 45.5122 14.7707 45.0175 14.584C44.5322 14.3973 44.1168 14.2107 43.7715 14.024C43.4262 13.8373 43.1602 13.6133 42.9735 13.352C42.7868 13.0907 42.6935 12.7547 42.6935 12.344C42.6935 11.7093 42.9502 11.2193 43.4635 10.874C43.9862 10.5287 44.6675 10.356 45.5075 10.356C45.9648 10.356 46.3895 10.4027 46.7815 10.496C47.1828 10.58 47.5562 10.7013 47.9015 10.86L47.4815 11.84C47.2762 11.7467 47.0568 11.6673 46.8235 11.602C46.5995 11.5273 46.3708 11.4713 46.1375 11.434C45.9042 11.3873 45.6662 11.364 45.4235 11.364C44.9195 11.364 44.5322 11.448 44.2615 11.616C44.0002 11.7747 43.8695 11.994 43.8695 12.274C43.8695 12.4793 43.9302 12.6567 44.0515 12.806C44.1728 12.946 44.3735 13.086 44.6535 13.226C44.9428 13.3567 45.3255 13.5153 45.8015 13.702C46.2775 13.8793 46.6835 14.0613 47.0195 14.248C47.3555 14.4347 47.6122 14.6633 47.7895 14.934C47.9668 15.1953 48.0555 15.5267 48.0555 15.928ZM51.1007 10.482C51.1007 10.6593 51.0914 10.8413 51.0727 11.028C51.0634 11.2147 51.0494 11.3827 51.0307 11.532H51.1147C51.2734 11.2707 51.474 11.056 51.7167 10.888C51.9594 10.72 52.23 10.594 52.5287 10.51C52.8274 10.4167 53.1354 10.37 53.4527 10.37C54.0594 10.37 54.5634 10.468 54.9647 10.664C55.3754 10.8507 55.6834 11.1447 55.8887 11.546C56.094 11.9473 56.1967 12.47 56.1967 13.114V18H54.9787V13.198C54.9787 12.5913 54.8434 12.1387 54.5727 11.84C54.302 11.5413 53.8774 11.392 53.2987 11.392C52.7387 11.392 52.3 11.4993 51.9827 11.714C51.6654 11.9193 51.4367 12.2273 51.2967 12.638C51.166 13.0393 51.1007 13.534 51.1007 14.122V18H49.8687V7.36H51.1007V10.482ZM68.4317 18H61.5017V17.048L66.7657 9.124H61.6697V8.004H68.2917V8.956L63.0277 16.88H68.4317V18ZM75.9254 18H70.3394V8.004H75.9254V9.11H71.5994V12.232H75.6734V13.324H71.5994V16.894H75.9254V18ZM82.4027 8.97C81.8707 8.97 81.3901 9.06333 80.9607 9.25C80.5314 9.42733 80.1674 9.69333 79.8687 10.048C79.5701 10.3933 79.3414 10.818 79.1827 11.322C79.0241 11.8167 78.9447 12.3767 78.9447 13.002C78.9447 13.8233 79.0707 14.5373 79.3227 15.144C79.5841 15.7507 79.9667 16.2173 80.4707 16.544C80.9841 16.8707 81.6234 17.034 82.3887 17.034C82.8274 17.034 83.2427 16.9967 83.6347 16.922C84.0267 16.8473 84.4094 16.754 84.7827 16.642V17.734C84.4094 17.874 84.0221 17.9767 83.6207 18.042C83.2287 18.1073 82.7574 18.14 82.2067 18.14C81.1894 18.14 80.3401 17.93 79.6587 17.51C78.9774 17.09 78.4641 16.4927 78.1187 15.718C77.7827 14.9433 77.6147 14.0333 77.6147 12.988C77.6147 12.232 77.7174 11.5413 77.9227 10.916C78.1374 10.2907 78.4454 9.74933 78.8467 9.292C79.2574 8.83467 79.7614 8.48467 80.3587 8.242C80.9561 7.99 81.6421 7.864 82.4167 7.864C82.9301 7.864 83.4247 7.91533 83.9007 8.018C84.3767 8.12067 84.8014 8.26533 85.1747 8.452L84.6707 9.516C84.3627 9.376 84.0174 9.25 83.6347 9.138C83.2614 9.026 82.8507 8.97 82.4027 8.97Z" fill="white"/>
<path d="M116.682 17.132C116.869 17.132 117.06 17.118 117.256 17.09C117.452 17.0527 117.611 17.0153 117.732 16.978V17.916C117.602 17.9813 117.415 18.0327 117.172 18.07C116.93 18.1167 116.696 18.14 116.472 18.14C116.08 18.14 115.716 18.0747 115.38 17.944C115.054 17.804 114.788 17.566 114.582 17.23C114.377 16.894 114.274 16.4227 114.274 15.816V11.448H113.21V10.86L114.288 10.37L114.778 8.774H115.506V10.496H117.676V11.448H115.506V15.788C115.506 16.2453 115.614 16.586 115.828 16.81C116.052 17.0247 116.337 17.132 116.682 17.132ZM123.015 18H121.811V11.014C121.811 10.7433 121.811 10.5147 121.811 10.328C121.82 10.1413 121.83 9.96867 121.839 9.81C121.848 9.642 121.858 9.46933 121.867 9.292C121.718 9.44133 121.582 9.56733 121.461 9.67C121.34 9.77267 121.186 9.90333 120.999 10.062L119.935 10.93L119.291 10.104L121.993 8.004H123.015V18ZM133.519 18H126.589V17.048L131.853 9.124H126.757V8.004H133.379V8.956L128.115 16.88H133.519V18ZM140.97 10.342C140.97 10.79 140.886 11.1773 140.718 11.504C140.55 11.8307 140.308 12.0967 139.99 12.302C139.682 12.5073 139.318 12.652 138.898 12.736V12.792C139.701 12.8853 140.298 13.1373 140.69 13.548C141.082 13.9587 141.278 14.4953 141.278 15.158C141.278 15.7367 141.143 16.2547 140.872 16.712C140.602 17.16 140.182 17.51 139.612 17.762C139.052 18.014 138.329 18.14 137.442 18.14C136.92 18.14 136.434 18.098 135.986 18.014C135.538 17.9393 135.109 17.7993 134.698 17.594V16.446C135.118 16.6513 135.571 16.8147 136.056 16.936C136.542 17.048 137.008 17.104 137.456 17.104C138.352 17.104 138.996 16.9313 139.388 16.586C139.79 16.2313 139.99 15.746 139.99 15.13C139.99 14.71 139.878 14.374 139.654 14.122C139.44 13.8607 139.122 13.6693 138.702 13.548C138.282 13.4267 137.778 13.366 137.19 13.366H136.224V12.316H137.204C137.755 12.316 138.212 12.2367 138.576 12.078C138.95 11.9193 139.23 11.7 139.416 11.42C139.612 11.1307 139.71 10.7993 139.71 10.426C139.71 9.94067 139.547 9.56733 139.22 9.306C138.894 9.03533 138.45 8.9 137.89 8.9C137.536 8.9 137.214 8.93733 136.924 9.012C136.635 9.07733 136.364 9.17533 136.112 9.306C135.87 9.42733 135.622 9.572 135.37 9.74L134.754 8.9C134.997 8.71333 135.272 8.54067 135.58 8.382C135.898 8.22333 136.248 8.09733 136.63 8.004C137.013 7.91067 137.428 7.864 137.876 7.864C138.922 7.864 139.696 8.09733 140.2 8.564C140.714 9.03067 140.97 9.62333 140.97 10.342ZM143.438 18V8.004H144.698V16.88H149.066V18H143.438ZM158.788 12.904C158.788 14.024 158.578 14.962 158.158 15.718C157.747 16.474 157.155 17.0433 156.38 17.426C155.605 17.8087 154.667 18 153.566 18H150.78V8.004H153.86C154.868 8.004 155.741 8.19067 156.478 8.564C157.215 8.93733 157.785 9.488 158.186 10.216C158.587 10.9347 158.788 11.8307 158.788 12.904ZM157.458 12.946C157.458 12.0593 157.309 11.3313 157.01 10.762C156.721 10.1927 156.291 9.77267 155.722 9.502C155.162 9.222 154.481 9.082 153.678 9.082H152.04V16.922H153.398C154.751 16.922 155.764 16.5907 156.436 15.928C157.117 15.256 157.458 14.262 157.458 12.946ZM166.974 18H160.044V17.048L165.308 9.124H160.212V8.004H166.834V8.956L161.57 16.88H166.974V18ZM176.525 18H175.265V13.338H170.141V18H168.881V8.004H170.141V12.232H175.265V8.004H176.525V18ZM180.308 12.918C180.308 13.0673 180.299 13.2633 180.28 13.506C180.271 13.7487 180.262 13.9587 180.252 14.136H180.308C180.364 14.0613 180.448 13.954 180.56 13.814C180.672 13.674 180.784 13.534 180.896 13.394C181.018 13.2447 181.12 13.1233 181.204 13.03L183.598 10.496H185.04L182.002 13.702L185.25 18H183.766L181.162 14.5L180.308 15.242V18H179.09V7.36H180.308V12.918ZM189.495 8.004C190.326 8.004 191.007 8.11133 191.539 8.326C192.08 8.53133 192.482 8.844 192.743 9.264C193.004 9.684 193.135 10.2113 193.135 10.846C193.135 11.378 193.037 11.8213 192.841 12.176C192.645 12.5307 192.393 12.8153 192.085 13.03C191.786 13.2353 191.469 13.3987 191.133 13.52L193.877 18H192.407L189.985 13.87H187.997V18H186.737V8.004H189.495ZM189.425 9.096H187.997V12.806H189.495C190.036 12.806 190.48 12.736 190.825 12.596C191.17 12.4467 191.422 12.232 191.581 11.952C191.749 11.672 191.833 11.322 191.833 10.902C191.833 10.4633 191.744 10.1133 191.567 9.852C191.399 9.59067 191.138 9.39933 190.783 9.278C190.428 9.15667 189.976 9.096 189.425 9.096ZM199.786 12.722H203.244V17.622C202.703 17.7993 202.157 17.93 201.606 18.014C201.055 18.098 200.43 18.14 199.73 18.14C198.694 18.14 197.821 17.9347 197.112 17.524C196.403 17.104 195.861 16.5113 195.488 15.746C195.124 14.9713 194.942 14.0567 194.942 13.002C194.942 11.9567 195.147 11.0513 195.558 10.286C195.969 9.52067 196.557 8.928 197.322 8.508C198.097 8.07867 199.03 7.864 200.122 7.864C200.682 7.864 201.209 7.91533 201.704 8.018C202.208 8.12067 202.675 8.26533 203.104 8.452L202.628 9.544C202.273 9.38533 201.872 9.25 201.424 9.138C200.985 9.026 200.528 8.97 200.052 8.97C199.259 8.97 198.577 9.13333 198.008 9.46C197.439 9.78667 197.005 10.2533 196.706 10.86C196.407 11.4573 196.258 12.1713 196.258 13.002C196.258 13.7953 196.384 14.5 196.636 15.116C196.897 15.7227 197.303 16.1987 197.854 16.544C198.405 16.88 199.128 17.048 200.024 17.048C200.323 17.048 200.584 17.0387 200.808 17.02C201.041 16.992 201.251 16.9593 201.438 16.922C201.634 16.8847 201.816 16.8473 201.984 16.81V13.842H199.786V12.722ZM207.969 17.132C208.156 17.132 208.347 17.118 208.543 17.09C208.739 17.0527 208.898 17.0153 209.019 16.978V17.916C208.889 17.9813 208.702 18.0327 208.459 18.07C208.217 18.1167 207.983 18.14 207.759 18.14C207.367 18.14 207.003 18.0747 206.667 17.944C206.341 17.804 206.075 17.566 205.869 17.23C205.664 16.894 205.561 16.4227 205.561 15.816V11.448H204.497V10.86L205.575 10.37L206.065 8.774H206.793V10.496H208.963V11.448H206.793V15.788C206.793 16.2453 206.901 16.586 207.115 16.81C207.339 17.0247 207.624 17.132 207.969 17.132ZM210.69 18V8.004H211.95V16.88H216.318V18H210.69ZM221.364 10.356C221.504 10.356 221.653 10.3653 221.812 10.384C221.98 10.3933 222.124 10.412 222.246 10.44L222.092 11.574C221.97 11.546 221.835 11.5227 221.686 11.504C221.546 11.4853 221.41 11.476 221.28 11.476C220.99 11.476 220.715 11.5367 220.454 11.658C220.192 11.7793 219.959 11.952 219.754 12.176C219.548 12.3907 219.385 12.652 219.264 12.96C219.152 13.268 219.096 13.6133 219.096 13.996V18H217.864V10.496H218.872L219.012 11.868H219.068C219.226 11.588 219.418 11.336 219.642 11.112C219.866 10.8787 220.122 10.6967 220.412 10.566C220.701 10.426 221.018 10.356 221.364 10.356ZM226.17 10.356C226.665 10.356 227.108 10.4493 227.5 10.636C227.902 10.8227 228.242 11.1073 228.522 11.49H228.592L228.76 10.496H229.74V18.126C229.74 18.8353 229.619 19.428 229.376 19.904C229.134 20.3893 228.765 20.7533 228.27 20.996C227.776 21.2387 227.146 21.36 226.38 21.36C225.839 21.36 225.34 21.318 224.882 21.234C224.434 21.1593 224.033 21.0427 223.678 20.884V19.75C223.921 19.8713 224.187 19.974 224.476 20.058C224.766 20.1513 225.078 20.2213 225.414 20.268C225.75 20.3147 226.096 20.338 226.45 20.338C227.094 20.338 227.598 20.1467 227.962 19.764C228.336 19.3907 228.522 18.8773 228.522 18.224V17.93C228.522 17.818 228.527 17.6593 228.536 17.454C228.546 17.2393 228.555 17.09 228.564 17.006H228.508C228.247 17.3887 227.92 17.6733 227.528 17.86C227.146 18.0467 226.698 18.14 226.184 18.14C225.214 18.14 224.453 17.7993 223.902 17.118C223.361 16.4367 223.09 15.4847 223.09 14.262C223.09 13.4593 223.212 12.7687 223.454 12.19C223.706 11.602 224.061 11.1493 224.518 10.832C224.976 10.5147 225.526 10.356 226.17 10.356ZM226.338 11.392C225.918 11.392 225.559 11.504 225.26 11.728C224.971 11.952 224.747 12.2787 224.588 12.708C224.439 13.1373 224.364 13.66 224.364 14.276C224.364 15.2 224.532 15.9093 224.868 16.404C225.214 16.8893 225.713 17.132 226.366 17.132C226.749 17.132 227.076 17.0853 227.346 16.992C227.617 16.8893 227.841 16.7353 228.018 16.53C228.196 16.3153 228.326 16.0447 228.41 15.718C228.494 15.3913 228.536 15.004 228.536 14.556V14.262C228.536 13.5807 228.457 13.03 228.298 12.61C228.149 12.19 227.911 11.882 227.584 11.686C227.258 11.49 226.842 11.392 226.338 11.392ZM236.702 18L233.412 9.236H233.356C233.374 9.42267 233.388 9.66067 233.398 9.95C233.416 10.2393 233.43 10.5567 233.44 10.902C233.449 11.238 233.454 11.5833 233.454 11.938V18H232.292V8.004H234.154L237.234 16.194H237.29L240.426 8.004H242.274V18H241.028V11.854C241.028 11.5273 241.032 11.2053 241.042 10.888C241.051 10.5613 241.065 10.258 241.084 9.978C241.102 9.68867 241.116 9.446 241.126 9.25H241.07L237.738 18H236.702ZM247.639 8.004C248.945 8.004 249.897 8.26067 250.495 8.774C251.092 9.28733 251.391 10.0107 251.391 10.944C251.391 11.3547 251.321 11.7513 251.181 12.134C251.05 12.5073 250.831 12.8433 250.523 13.142C250.215 13.4407 249.804 13.6787 249.291 13.856C248.777 14.024 248.147 14.108 247.401 14.108H246.253V18H244.993V8.004H247.639ZM247.527 9.082H246.253V13.03H247.261C247.895 13.03 248.423 12.9647 248.843 12.834C249.263 12.694 249.575 12.4747 249.781 12.176C249.986 11.8773 250.089 11.4853 250.089 11C250.089 10.356 249.883 9.87533 249.473 9.558C249.062 9.24067 248.413 9.082 247.527 9.082ZM256.073 12.918L258.677 8.004H260.035L256.703 14.122V18H255.443V14.178L252.111 8.004H253.483L256.073 12.918ZM264.689 11.448H262.799V18H261.567V11.448H260.251V10.874L261.567 10.454V10.02C261.567 9.376 261.66 8.85333 261.847 8.452C262.043 8.05067 262.323 7.75667 262.687 7.57C263.051 7.38333 263.49 7.29 264.003 7.29C264.302 7.29 264.572 7.318 264.815 7.374C265.067 7.42067 265.282 7.47667 265.459 7.542L265.137 8.508C264.988 8.46133 264.815 8.41467 264.619 8.368C264.423 8.32133 264.222 8.298 264.017 8.298C263.606 8.298 263.298 8.438 263.093 8.718C262.897 8.98867 262.799 9.418 262.799 10.006V10.496H264.689V11.448ZM272.316 10.496V18H271.308L271.126 17.006H271.07C270.911 17.2673 270.706 17.482 270.454 17.65C270.202 17.818 269.926 17.9393 269.628 18.014C269.329 18.098 269.016 18.14 268.69 18.14C268.092 18.14 267.588 18.0467 267.178 17.86C266.776 17.664 266.473 17.3653 266.268 16.964C266.062 16.5627 265.96 16.0447 265.96 15.41V10.496H267.206V15.326C267.206 15.9233 267.341 16.3713 267.612 16.67C267.882 16.9687 268.302 17.118 268.872 17.118C269.432 17.118 269.87 17.0153 270.188 16.81C270.514 16.5953 270.743 16.2873 270.874 15.886C271.014 15.4753 271.084 14.9807 271.084 14.402V10.496H272.316ZM281.222 14.234C281.222 14.8593 281.138 15.4147 280.97 15.9C280.811 16.376 280.578 16.782 280.27 17.118C279.971 17.454 279.602 17.7107 279.164 17.888C278.734 18.056 278.254 18.14 277.722 18.14C277.227 18.14 276.77 18.056 276.35 17.888C275.93 17.7107 275.566 17.454 275.258 17.118C274.95 16.782 274.707 16.376 274.53 15.9C274.362 15.4147 274.278 14.8593 274.278 14.234C274.278 13.4033 274.418 12.7033 274.698 12.134C274.978 11.5553 275.379 11.1167 275.902 10.818C276.424 10.51 277.045 10.356 277.764 10.356C278.445 10.356 279.042 10.51 279.556 10.818C280.078 11.1167 280.484 11.5553 280.774 12.134C281.072 12.7033 281.222 13.4033 281.222 14.234ZM275.552 14.234C275.552 14.822 275.626 15.3353 275.776 15.774C275.934 16.2033 276.177 16.5347 276.504 16.768C276.83 17.0013 277.246 17.118 277.75 17.118C278.254 17.118 278.669 17.0013 278.996 16.768C279.322 16.5347 279.56 16.2033 279.71 15.774C279.868 15.3353 279.948 14.822 279.948 14.234C279.948 13.6367 279.868 13.128 279.71 12.708C279.551 12.288 279.308 11.966 278.982 11.742C278.664 11.5087 278.249 11.392 277.736 11.392C276.97 11.392 276.415 11.644 276.07 12.148C275.724 12.652 275.552 13.3473 275.552 14.234ZM290.986 18H289.726V13.338H284.602V18H283.342V8.004H284.602V12.232H289.726V8.004H290.986V18ZM296.883 18H295.623V9.11H292.501V8.004H299.991V9.11H296.883V18ZM301.499 18V8.004H302.759V16.88H307.127V18H301.499ZM316.484 18H315.224V13.338H310.1V18H308.84V8.004H310.1V12.232H315.224V8.004H316.484V18ZM323.935 15.928C323.935 16.4133 323.814 16.8193 323.571 17.146C323.329 17.4727 322.983 17.72 322.535 17.888C322.087 18.056 321.555 18.14 320.939 18.14C320.417 18.14 319.964 18.098 319.581 18.014C319.208 17.93 318.877 17.8133 318.587 17.664V16.544C318.886 16.6933 319.245 16.8333 319.665 16.964C320.095 17.0853 320.529 17.146 320.967 17.146C321.593 17.146 322.045 17.048 322.325 16.852C322.605 16.6467 322.745 16.376 322.745 16.04C322.745 15.8533 322.694 15.6853 322.591 15.536C322.489 15.3867 322.302 15.2373 322.031 15.088C321.77 14.9387 321.392 14.7707 320.897 14.584C320.412 14.3973 319.997 14.2107 319.651 14.024C319.306 13.8373 319.04 13.6133 318.853 13.352C318.667 13.0907 318.573 12.7547 318.573 12.344C318.573 11.7093 318.83 11.2193 319.343 10.874C319.866 10.5287 320.547 10.356 321.387 10.356C321.845 10.356 322.269 10.4027 322.661 10.496C323.063 10.58 323.436 10.7013 323.781 10.86L323.361 11.84C323.156 11.7467 322.937 11.6673 322.703 11.602C322.479 11.5273 322.251 11.4713 322.017 11.434C321.784 11.3873 321.546 11.364 321.303 11.364C320.799 11.364 320.412 11.448 320.141 11.616C319.88 11.7747 319.749 11.994 319.749 12.274C319.749 12.4793 319.81 12.6567 319.931 12.806C320.053 12.946 320.253 13.086 320.533 13.226C320.823 13.3567 321.205 13.5153 321.681 13.702C322.157 13.8793 322.563 14.0613 322.899 14.248C323.235 14.4347 323.492 14.6633 323.669 14.934C323.847 15.1953 323.935 15.5267 323.935 15.928ZM333.561 18H332.301V13.338H327.177V18H325.917V8.004H327.177V12.232H332.301V8.004H333.561V18ZM338.786 10.356C339.28 10.356 339.724 10.4493 340.116 10.636C340.517 10.8227 340.858 11.1073 341.138 11.49H341.208L341.376 10.496H342.356V18.126C342.356 18.8353 342.234 19.428 341.992 19.904C341.749 20.3893 341.38 20.7533 340.886 20.996C340.391 21.2387 339.761 21.36 338.996 21.36C338.454 21.36 337.955 21.318 337.498 21.234C337.05 21.1593 336.648 21.0427 336.294 20.884V19.75C336.536 19.8713 336.802 19.974 337.092 20.058C337.381 20.1513 337.694 20.2213 338.03 20.268C338.366 20.3147 338.711 20.338 339.066 20.338C339.71 20.338 340.214 20.1467 340.578 19.764C340.951 19.3907 341.138 18.8773 341.138 18.224V17.93C341.138 17.818 341.142 17.6593 341.152 17.454C341.161 17.2393 341.17 17.09 341.18 17.006H341.124C340.862 17.3887 340.536 17.6733 340.144 17.86C339.761 18.0467 339.313 18.14 338.8 18.14C337.829 18.14 337.068 17.7993 336.518 17.118C335.976 16.4367 335.706 15.4847 335.706 14.262C335.706 13.4593 335.827 12.7687 336.07 12.19C336.322 11.602 336.676 11.1493 337.134 10.832C337.591 10.5147 338.142 10.356 338.786 10.356ZM338.954 11.392C338.534 11.392 338.174 11.504 337.876 11.728C337.586 11.952 337.362 12.2787 337.204 12.708C337.054 13.1373 336.98 13.66 336.98 14.276C336.98 15.2 337.148 15.9093 337.484 16.404C337.829 16.8893 338.328 17.132 338.982 17.132C339.364 17.132 339.691 17.0853 339.962 16.992C340.232 16.8893 340.456 16.7353 340.634 16.53C340.811 16.3153 340.942 16.0447 341.026 15.718C341.11 15.3913 341.152 15.004 341.152 14.556V14.262C341.152 13.5807 341.072 13.03 340.914 12.61C340.764 12.19 340.526 11.882 340.2 11.686C339.873 11.49 339.458 11.392 338.954 11.392ZM346.391 18L343.549 10.496H344.865L346.461 14.92C346.535 15.1253 346.615 15.354 346.699 15.606C346.783 15.858 346.857 16.1007 346.923 16.334C346.988 16.558 347.035 16.7493 347.063 16.908H347.119C347.156 16.7493 347.207 16.5533 347.273 16.32C347.347 16.0867 347.427 15.844 347.511 15.592C347.604 15.34 347.683 15.116 347.749 14.92L349.345 10.496H350.661L347.805 18H346.391ZM356.692 13.758C356.636 13.562 356.58 13.3707 356.524 13.184C356.468 12.988 356.417 12.806 356.37 12.638C356.333 12.4607 356.296 12.2973 356.258 12.148C356.221 11.9987 356.193 11.8727 356.174 11.77H356.118C356.1 11.8727 356.072 11.9987 356.034 12.148C356.006 12.2973 355.969 12.4607 355.922 12.638C355.885 12.8153 355.838 13.002 355.782 13.198C355.736 13.3847 355.68 13.576 355.614 13.772L354.27 17.986H352.87L350.812 10.482H352.086L353.122 14.486C353.197 14.7567 353.267 15.032 353.332 15.312C353.398 15.5827 353.454 15.844 353.5 16.096C353.556 16.3387 353.594 16.5487 353.612 16.726H353.668C353.696 16.614 353.729 16.474 353.766 16.306C353.804 16.138 353.841 15.9607 353.878 15.774C353.925 15.5873 353.972 15.4007 354.018 15.214C354.074 15.0273 354.126 14.8593 354.172 14.71L355.502 10.482H356.846L358.134 14.71C358.2 14.9247 358.265 15.1533 358.33 15.396C358.405 15.6387 358.47 15.8767 358.526 16.11C358.582 16.334 358.62 16.5347 358.638 16.712H358.694C358.713 16.5533 358.746 16.3573 358.792 16.124C358.848 15.8813 358.909 15.62 358.974 15.34C359.049 15.0507 359.124 14.766 359.198 14.486L360.248 10.482H361.508L359.422 17.986H357.98L356.692 13.758ZM370.946 18H369.476L364.128 9.698H364.072C364.081 9.866 364.091 10.0527 364.1 10.258C364.119 10.4633 364.133 10.6873 364.142 10.93C364.151 11.1633 364.161 11.406 364.17 11.658C364.179 11.91 364.184 12.162 364.184 12.414V18H363.022V8.004H364.478L369.812 16.278H369.868C369.859 16.166 369.849 16.012 369.84 15.816C369.831 15.6107 369.821 15.3867 369.812 15.144C369.803 14.892 369.793 14.6353 369.784 14.374C369.775 14.1127 369.77 13.87 369.77 13.646V8.004H370.946V18ZM374.723 9.95C374.723 10.2673 374.713 10.566 374.695 10.846C374.685 11.1167 374.671 11.3313 374.653 11.49H374.723C374.937 11.1727 375.231 10.9067 375.605 10.692C375.978 10.4773 376.459 10.37 377.047 10.37C377.98 10.37 378.727 10.6967 379.287 11.35C379.856 11.994 380.141 12.96 380.141 14.248C380.141 15.1067 380.01 15.8253 379.749 16.404C379.497 16.9827 379.137 17.4167 378.671 17.706C378.204 17.9953 377.663 18.14 377.047 18.14C376.459 18.14 375.978 18.0327 375.605 17.818C375.231 17.6033 374.937 17.3467 374.723 17.048H374.625L374.373 18H373.491V7.36H374.723V9.95ZM376.837 11.392C376.305 11.392 375.885 11.4947 375.577 11.7C375.269 11.896 375.049 12.204 374.919 12.624C374.788 13.0347 374.723 13.562 374.723 14.206V14.262C374.723 15.186 374.872 15.8953 375.171 16.39C375.479 16.8753 376.043 17.118 376.865 17.118C377.537 17.118 378.036 16.8707 378.363 16.376C378.699 15.8813 378.867 15.1673 378.867 14.234C378.867 13.2913 378.699 12.582 378.363 12.106C378.036 11.63 377.527 11.392 376.837 11.392ZM388.376 10.496V18H387.368L387.186 17.006H387.13C386.971 17.2673 386.766 17.482 386.514 17.65C386.262 17.818 385.987 17.9393 385.688 18.014C385.389 18.098 385.077 18.14 384.75 18.14C384.153 18.14 383.649 18.0467 383.238 17.86C382.837 17.664 382.533 17.3653 382.328 16.964C382.123 16.5627 382.02 16.0447 382.02 15.41V10.496H383.266V15.326C383.266 15.9233 383.401 16.3713 383.672 16.67C383.943 16.9687 384.363 17.118 384.932 17.118C385.492 17.118 385.931 17.0153 386.248 16.81C386.575 16.5953 386.803 16.2873 386.934 15.886C387.074 15.4753 387.144 14.9807 387.144 14.402V10.496H388.376ZM390.926 18V8.004H392.186V16.88H396.554V18H390.926ZM405.733 14.472C405.733 15.1627 405.593 15.788 405.313 16.348C405.033 16.8987 404.604 17.3373 404.025 17.664C403.456 17.9813 402.728 18.14 401.841 18.14C400.6 18.14 399.653 17.804 398.999 17.132C398.355 16.4507 398.033 15.5547 398.033 14.444V8.004H399.293V14.486C399.293 15.298 399.508 15.928 399.937 16.376C400.376 16.824 401.034 17.048 401.911 17.048C402.518 17.048 403.008 16.9407 403.381 16.726C403.764 16.502 404.044 16.1987 404.221 15.816C404.399 15.424 404.487 14.976 404.487 14.472V8.004H405.733V14.472Z" fill="#555555"/>
</svg>
