<svg width="497" height="25" viewBox="0 0 497 25" fill="none" xmlns="http://www.w3.org/2000/svg">
<rect width="497" height="25" fill="#555555"/>
<rect x="147" width="350" height="25" fill="#ED57E1"/>
<path d="M21.2697 8.004C22.1003 8.004 22.7957 8.08333 23.3557 8.242C23.925 8.40067 24.3497 8.662 24.6297 9.026C24.919 9.39 25.0637 9.87533 25.0637 10.482C25.0637 10.874 24.989 11.224 24.8397 11.532C24.6997 11.8307 24.485 12.0827 24.1957 12.288C23.9157 12.484 23.5703 12.6193 23.1597 12.694V12.764C23.5797 12.8293 23.9577 12.9507 24.2937 13.128C24.639 13.3053 24.9097 13.5573 25.1057 13.884C25.3017 14.2107 25.3997 14.6353 25.3997 15.158C25.3997 15.7647 25.2597 16.2827 24.9797 16.712C24.6997 17.132 24.2983 17.454 23.7757 17.678C23.2623 17.8927 22.6463 18 21.9277 18H18.4137V8.004H21.2697ZM21.5217 12.26C22.3803 12.26 22.9683 12.1247 23.2857 11.854C23.603 11.574 23.7617 11.1633 23.7617 10.622C23.7617 10.0713 23.5657 9.67933 23.1737 9.446C22.791 9.20333 22.175 9.082 21.3257 9.082H19.6737V12.26H21.5217ZM19.6737 13.31V16.936H21.6897C22.5763 16.936 23.1923 16.7633 23.5377 16.418C23.883 16.0727 24.0557 15.62 24.0557 15.06C24.0557 14.7053 23.9763 14.3973 23.8177 14.136C23.6683 13.8747 23.4117 13.674 23.0477 13.534C22.693 13.3847 22.2077 13.31 21.5917 13.31H19.6737ZM28.5831 10.496V18H27.3511V10.496H28.5831ZM27.9811 7.682C28.1678 7.682 28.3311 7.74733 28.4711 7.878C28.6205 7.99933 28.6951 8.19533 28.6951 8.466C28.6951 8.72733 28.6205 8.92333 28.4711 9.054C28.3311 9.18467 28.1678 9.25 27.9811 9.25C27.7758 9.25 27.6031 9.18467 27.4631 9.054C27.3231 8.92333 27.2531 8.72733 27.2531 8.466C27.2531 8.19533 27.3231 7.99933 27.4631 7.878C27.6031 7.74733 27.7758 7.682 27.9811 7.682ZM33.4665 17.132C33.6532 17.132 33.8445 17.118 34.0405 17.09C34.2365 17.0527 34.3952 17.0153 34.5165 16.978V17.916C34.3858 17.9813 34.1992 18.0327 33.9565 18.07C33.7138 18.1167 33.4805 18.14 33.2565 18.14C32.8645 18.14 32.5005 18.0747 32.1645 17.944C31.8378 17.804 31.5718 17.566 31.3665 17.23C31.1612 16.894 31.0585 16.4227 31.0585 15.816V11.448H29.9945V10.86L31.0725 10.37L31.5625 8.774H32.2905V10.496H34.4605V11.448H32.2905V15.788C32.2905 16.2453 32.3978 16.586 32.6125 16.81C32.8365 17.0247 33.1212 17.132 33.4665 17.132ZM39.0291 18.14C38.3664 18.14 37.7738 18.0047 37.2511 17.734C36.7378 17.4633 36.3318 17.0433 36.0331 16.474C35.7438 15.9047 35.5991 15.1767 35.5991 14.29C35.5991 13.366 35.7531 12.6147 36.0611 12.036C36.3691 11.4573 36.7844 11.0327 37.3071 10.762C37.8391 10.4913 38.4411 10.356 39.1131 10.356C39.4958 10.356 39.8644 10.398 40.2191 10.482C40.5738 10.5567 40.8631 10.65 41.0871 10.762L40.7091 11.784C40.4851 11.7 40.2238 11.6207 39.9251 11.546C39.6264 11.4713 39.3464 11.434 39.0851 11.434C38.5811 11.434 38.1658 11.5413 37.8391 11.756C37.5124 11.9707 37.2698 12.288 37.1111 12.708C36.9524 13.128 36.8731 13.6507 36.8731 14.276C36.8731 14.8733 36.9524 15.382 37.1111 15.802C37.2698 16.222 37.5078 16.5393 37.8251 16.754C38.1424 16.9687 38.5391 17.076 39.0151 17.076C39.4258 17.076 39.7851 17.034 40.0931 16.95C40.4104 16.866 40.6998 16.7633 40.9611 16.642V17.734C40.7091 17.8647 40.4291 17.9627 40.1211 18.028C39.8224 18.1027 39.4584 18.14 39.0291 18.14ZM49.2697 14.234C49.2697 14.8593 49.1857 15.4147 49.0177 15.9C48.859 16.376 48.6257 16.782 48.3177 17.118C48.019 17.454 47.6503 17.7107 47.2117 17.888C46.7823 18.056 46.3017 18.14 45.7697 18.14C45.275 18.14 44.8177 18.056 44.3977 17.888C43.9777 17.7107 43.6137 17.454 43.3057 17.118C42.9977 16.782 42.755 16.376 42.5777 15.9C42.4097 15.4147 42.3257 14.8593 42.3257 14.234C42.3257 13.4033 42.4657 12.7033 42.7457 12.134C43.0257 11.5553 43.427 11.1167 43.9497 10.818C44.4723 10.51 45.093 10.356 45.8117 10.356C46.493 10.356 47.0903 10.51 47.6037 10.818C48.1263 11.1167 48.5323 11.5553 48.8217 12.134C49.1203 12.7033 49.2697 13.4033 49.2697 14.234ZM43.5997 14.234C43.5997 14.822 43.6743 15.3353 43.8237 15.774C43.9823 16.2033 44.225 16.5347 44.5517 16.768C44.8783 17.0013 45.2937 17.118 45.7977 17.118C46.3017 17.118 46.717 17.0013 47.0437 16.768C47.3703 16.5347 47.6083 16.2033 47.7577 15.774C47.9163 15.3353 47.9957 14.822 47.9957 14.234C47.9957 13.6367 47.9163 13.128 47.7577 12.708C47.599 12.288 47.3563 11.966 47.0297 11.742C46.7123 11.5087 46.297 11.392 45.7837 11.392C45.0183 11.392 44.463 11.644 44.1177 12.148C43.7723 12.652 43.5997 13.3473 43.5997 14.234ZM52.4542 10.496V18H51.2222V10.496H52.4542ZM51.8522 7.682C52.0389 7.682 52.2022 7.74733 52.3422 7.878C52.4916 7.99933 52.5662 8.19533 52.5662 8.466C52.5662 8.72733 52.4916 8.92333 52.3422 9.054C52.2022 9.18467 52.0389 9.25 51.8522 9.25C51.6469 9.25 51.4742 9.18467 51.3342 9.054C51.1942 8.92333 51.1242 8.72733 51.1242 8.466C51.1242 8.19533 51.1942 7.99933 51.3342 7.878C51.4742 7.74733 51.6469 7.682 51.8522 7.682ZM58.4436 10.356C59.3396 10.356 60.0163 10.5753 60.4736 11.014C60.9309 11.4433 61.1596 12.1433 61.1596 13.114V18H59.9416V13.198C59.9416 12.5913 59.8063 12.1387 59.5356 11.84C59.2649 11.5413 58.8403 11.392 58.2616 11.392C57.4309 11.392 56.8569 11.6253 56.5396 12.092C56.2223 12.5587 56.0636 13.2307 56.0636 14.108V18H54.8316V10.496H55.8256L56.0076 11.518H56.0776C56.2456 11.2567 56.4509 11.042 56.6936 10.874C56.9456 10.6967 57.2209 10.566 57.5196 10.482C57.8183 10.398 58.1263 10.356 58.4436 10.356ZM71.5746 8.97C71.0426 8.97 70.562 9.06333 70.1326 9.25C69.7033 9.42733 69.3393 9.69333 69.0406 10.048C68.742 10.3933 68.5133 10.818 68.3546 11.322C68.196 11.8167 68.1166 12.3767 68.1166 13.002C68.1166 13.8233 68.2426 14.5373 68.4946 15.144C68.756 15.7507 69.1386 16.2173 69.6426 16.544C70.156 16.8707 70.7953 17.034 71.5606 17.034C71.9993 17.034 72.4146 16.9967 72.8066 16.922C73.1986 16.8473 73.5813 16.754 73.9546 16.642V17.734C73.5813 17.874 73.194 17.9767 72.7926 18.042C72.4006 18.1073 71.9293 18.14 71.3786 18.14C70.3613 18.14 69.512 17.93 68.8306 17.51C68.1493 17.09 67.636 16.4927 67.2906 15.718C66.9546 14.9433 66.7866 14.0333 66.7866 12.988C66.7866 12.232 66.8893 11.5413 67.0946 10.916C67.3093 10.2907 67.6173 9.74933 68.0186 9.292C68.4293 8.83467 68.9333 8.48467 69.5306 8.242C70.128 7.99 70.814 7.864 71.5886 7.864C72.102 7.864 72.5966 7.91533 73.0726 8.018C73.5486 8.12067 73.9733 8.26533 74.3466 8.452L73.8426 9.516C73.5346 9.376 73.1893 9.25 72.8066 9.138C72.4333 9.026 72.0226 8.97 71.5746 8.97ZM78.8103 10.37C79.725 10.37 80.4017 10.5707 80.8403 10.972C81.279 11.3733 81.4983 12.0127 81.4983 12.89V18H80.6023L80.3643 16.936H80.3083C80.0937 17.2067 79.8697 17.4353 79.6363 17.622C79.4123 17.7993 79.151 17.93 78.8523 18.014C78.563 18.098 78.2083 18.14 77.7883 18.14C77.3403 18.14 76.9343 18.0607 76.5703 17.902C76.2157 17.7433 75.9357 17.5007 75.7303 17.174C75.525 16.838 75.4223 16.418 75.4223 15.914C75.4223 15.1673 75.7163 14.5933 76.3043 14.192C76.8923 13.7813 77.7977 13.5573 79.0203 13.52L80.2943 13.478V13.03C80.2943 12.4047 80.159 11.9707 79.8883 11.728C79.6177 11.4853 79.235 11.364 78.7403 11.364C78.3483 11.364 77.975 11.4247 77.6203 11.546C77.2657 11.658 76.9343 11.7887 76.6263 11.938L76.2483 11.014C76.575 10.8367 76.9623 10.6873 77.4103 10.566C77.8583 10.4353 78.325 10.37 78.8103 10.37ZM79.1743 14.374C78.241 14.4113 77.5923 14.5607 77.2283 14.822C76.8737 15.0833 76.6963 15.452 76.6963 15.928C76.6963 16.348 76.8223 16.656 77.0743 16.852C77.3357 17.048 77.667 17.146 78.0683 17.146C78.703 17.146 79.2303 16.9733 79.6503 16.628C80.0703 16.2733 80.2803 15.732 80.2803 15.004V14.332L79.1743 14.374ZM88.702 15.928C88.702 16.4133 88.5806 16.8193 88.338 17.146C88.0953 17.4727 87.75 17.72 87.302 17.888C86.854 18.056 86.322 18.14 85.706 18.14C85.1833 18.14 84.7306 18.098 84.348 18.014C83.9746 17.93 83.6433 17.8133 83.354 17.664V16.544C83.6526 16.6933 84.012 16.8333 84.432 16.964C84.8613 17.0853 85.2953 17.146 85.734 17.146C86.3593 17.146 86.812 17.048 87.092 16.852C87.372 16.6467 87.512 16.376 87.512 16.04C87.512 15.8533 87.4606 15.6853 87.358 15.536C87.2553 15.3867 87.0686 15.2373 86.798 15.088C86.5366 14.9387 86.1586 14.7707 85.664 14.584C85.1786 14.3973 84.7633 14.2107 84.418 14.024C84.0726 13.8373 83.8066 13.6133 83.62 13.352C83.4333 13.0907 83.34 12.7547 83.34 12.344C83.34 11.7093 83.5966 11.2193 84.11 10.874C84.6326 10.5287 85.314 10.356 86.154 10.356C86.6113 10.356 87.036 10.4027 87.428 10.496C87.8293 10.58 88.2026 10.7013 88.548 10.86L88.128 11.84C87.9226 11.7467 87.7033 11.6673 87.47 11.602C87.246 11.5273 87.0173 11.4713 86.784 11.434C86.5506 11.3873 86.3126 11.364 86.07 11.364C85.566 11.364 85.1786 11.448 84.908 11.616C84.6466 11.7747 84.516 11.994 84.516 12.274C84.516 12.4793 84.5766 12.6567 84.698 12.806C84.8193 12.946 85.02 13.086 85.3 13.226C85.5893 13.3567 85.972 13.5153 86.448 13.702C86.924 13.8793 87.33 14.0613 87.666 14.248C88.002 14.4347 88.2586 14.6633 88.436 14.934C88.6133 15.1953 88.702 15.5267 88.702 15.928ZM91.7472 10.482C91.7472 10.6593 91.7379 10.8413 91.7192 11.028C91.7099 11.2147 91.6959 11.3827 91.6772 11.532H91.7612C91.9199 11.2707 92.1205 11.056 92.3632 10.888C92.6059 10.72 92.8765 10.594 93.1752 10.51C93.4739 10.4167 93.7819 10.37 94.0992 10.37C94.7059 10.37 95.2099 10.468 95.6112 10.664C96.0219 10.8507 96.3299 11.1447 96.5352 11.546C96.7405 11.9473 96.8432 12.47 96.8432 13.114V18H95.6252V13.198C95.6252 12.5913 95.4899 12.1387 95.2192 11.84C94.9485 11.5413 94.5239 11.392 93.9452 11.392C93.3852 11.392 92.9465 11.4993 92.6292 11.714C92.3119 11.9193 92.0832 12.2273 91.9432 12.638C91.8125 13.0393 91.7472 13.534 91.7472 14.122V18H90.5152V7.36H91.7472V10.482ZM105.83 8.004C106.661 8.004 107.356 8.08333 107.916 8.242C108.486 8.40067 108.91 8.662 109.19 9.026C109.48 9.39 109.624 9.87533 109.624 10.482C109.624 10.874 109.55 11.224 109.4 11.532C109.26 11.8307 109.046 12.0827 108.756 12.288C108.476 12.484 108.131 12.6193 107.72 12.694V12.764C108.14 12.8293 108.518 12.9507 108.854 13.128C109.2 13.3053 109.47 13.5573 109.666 13.884C109.862 14.2107 109.96 14.6353 109.96 15.158C109.96 15.7647 109.82 16.2827 109.54 16.712C109.26 17.132 108.859 17.454 108.336 17.678C107.823 17.8927 107.207 18 106.488 18H102.974V8.004H105.83ZM106.082 12.26C106.941 12.26 107.529 12.1247 107.846 11.854C108.164 11.574 108.322 11.1633 108.322 10.622C108.322 10.0713 108.126 9.67933 107.734 9.446C107.352 9.20333 106.736 9.082 105.886 9.082H104.234V12.26H106.082ZM104.234 13.31V16.936H106.25C107.137 16.936 107.753 16.7633 108.098 16.418C108.444 16.0727 108.616 15.62 108.616 15.06C108.616 14.7053 108.537 14.3973 108.378 14.136C108.229 13.8747 107.972 13.674 107.608 13.534C107.254 13.3847 106.768 13.31 106.152 13.31H104.234ZM116.364 8.97C115.832 8.97 115.351 9.06333 114.922 9.25C114.492 9.42733 114.128 9.69333 113.83 10.048C113.531 10.3933 113.302 10.818 113.144 11.322C112.985 11.8167 112.906 12.3767 112.906 13.002C112.906 13.8233 113.032 14.5373 113.284 15.144C113.545 15.7507 113.928 16.2173 114.432 16.544C114.945 16.8707 115.584 17.034 116.35 17.034C116.788 17.034 117.204 16.9967 117.596 16.922C117.988 16.8473 118.37 16.754 118.744 16.642V17.734C118.37 17.874 117.983 17.9767 117.582 18.042C117.19 18.1073 116.718 18.14 116.168 18.14C115.15 18.14 114.301 17.93 113.62 17.51C112.938 17.09 112.425 16.4927 112.08 15.718C111.744 14.9433 111.576 14.0333 111.576 12.988C111.576 12.232 111.678 11.5413 111.884 10.916C112.098 10.2907 112.406 9.74933 112.808 9.292C113.218 8.83467 113.722 8.48467 114.32 8.242C114.917 7.99 115.603 7.864 116.378 7.864C116.891 7.864 117.386 7.91533 117.862 8.018C118.338 8.12067 118.762 8.26533 119.136 8.452L118.632 9.516C118.324 9.376 117.978 9.25 117.596 9.138C117.222 9.026 116.812 8.97 116.364 8.97ZM128.569 18H127.309V13.338H122.185V18H120.925V8.004H122.185V12.232H127.309V8.004H128.569V18Z" fill="white"/>
<path d="M162.355 18.154C162.355 17.986 162.36 17.79 162.369 17.566C162.378 17.342 162.397 17.1507 162.425 16.992H162.341C162.126 17.3093 161.828 17.58 161.445 17.804C161.072 18.028 160.586 18.14 159.989 18.14C159.084 18.14 158.346 17.818 157.777 17.174C157.217 16.5207 156.937 15.55 156.937 14.262C156.937 13.4033 157.068 12.6847 157.329 12.106C157.59 11.5273 157.954 11.0933 158.421 10.804C158.888 10.5053 159.424 10.356 160.031 10.356C160.619 10.356 161.1 10.468 161.473 10.692C161.846 10.916 162.145 11.1913 162.369 11.518H162.425L162.607 10.496H163.587V21.36H162.355V18.154ZM160.227 17.118C160.74 17.118 161.151 17.0247 161.459 16.838C161.776 16.6513 162.005 16.3667 162.145 15.984C162.285 15.592 162.36 15.1067 162.369 14.528V14.276C162.369 13.324 162.21 12.6053 161.893 12.12C161.576 11.6253 161.011 11.378 160.199 11.378C159.527 11.378 159.028 11.644 158.701 12.176C158.374 12.6987 158.211 13.4033 158.211 14.29C158.211 15.1767 158.374 15.872 158.701 16.376C159.037 16.8707 159.546 17.118 160.227 17.118ZM169.54 10.356C170.464 10.356 171.206 10.678 171.766 11.322C172.336 11.966 172.62 12.9367 172.62 14.234C172.62 15.0833 172.49 15.802 172.228 16.39C171.976 16.9687 171.617 17.4073 171.15 17.706C170.693 17.9953 170.152 18.14 169.526 18.14C169.144 18.14 168.803 18.0887 168.504 17.986C168.206 17.8833 167.949 17.7527 167.734 17.594C167.529 17.426 167.352 17.244 167.202 17.048H167.118C167.137 17.2067 167.156 17.4073 167.174 17.65C167.193 17.8927 167.202 18.1027 167.202 18.28V21.36H165.97V10.496H166.978L167.146 11.518H167.202C167.352 11.3033 167.529 11.1073 167.734 10.93C167.949 10.7527 168.201 10.6127 168.49 10.51C168.789 10.4073 169.139 10.356 169.54 10.356ZM169.316 11.392C168.812 11.392 168.406 11.49 168.098 11.686C167.79 11.8727 167.566 12.1573 167.426 12.54C167.286 12.9227 167.212 13.408 167.202 13.996V14.234C167.202 14.85 167.268 15.3727 167.398 15.802C167.529 16.2313 167.748 16.558 168.056 16.782C168.374 17.006 168.803 17.118 169.344 17.118C169.802 17.118 170.175 16.992 170.464 16.74C170.763 16.488 170.982 16.1473 171.122 15.718C171.272 15.2793 171.346 14.78 171.346 14.22C171.346 13.3613 171.178 12.6753 170.842 12.162C170.516 11.6487 170.007 11.392 169.316 11.392ZM180.856 10.496V18H179.848L179.666 17.006H179.61C179.451 17.2673 179.246 17.482 178.994 17.65C178.742 17.818 178.466 17.9393 178.168 18.014C177.869 18.098 177.556 18.14 177.23 18.14C176.632 18.14 176.128 18.0467 175.718 17.86C175.316 17.664 175.013 17.3653 174.808 16.964C174.602 16.5627 174.5 16.0447 174.5 15.41V10.496H175.746V15.326C175.746 15.9233 175.881 16.3713 176.152 16.67C176.422 16.9687 176.842 17.118 177.412 17.118C177.972 17.118 178.41 17.0153 178.728 16.81C179.054 16.5953 179.283 16.2873 179.414 15.886C179.554 15.4753 179.624 14.9807 179.624 14.402V10.496H180.856ZM188.95 10.342C188.95 10.79 188.866 11.1773 188.698 11.504C188.53 11.8307 188.287 12.0967 187.97 12.302C187.662 12.5073 187.298 12.652 186.878 12.736V12.792C187.681 12.8853 188.278 13.1373 188.67 13.548C189.062 13.9587 189.258 14.4953 189.258 15.158C189.258 15.7367 189.123 16.2547 188.852 16.712C188.581 17.16 188.161 17.51 187.592 17.762C187.032 18.014 186.309 18.14 185.422 18.14C184.899 18.14 184.414 18.098 183.966 18.014C183.518 17.9393 183.089 17.7993 182.678 17.594V16.446C183.098 16.6513 183.551 16.8147 184.036 16.936C184.521 17.048 184.988 17.104 185.436 17.104C186.332 17.104 186.976 16.9313 187.368 16.586C187.769 16.2313 187.97 15.746 187.97 15.13C187.97 14.71 187.858 14.374 187.634 14.122C187.419 13.8607 187.102 13.6693 186.682 13.548C186.262 13.4267 185.758 13.366 185.17 13.366H184.204V12.316H185.184C185.735 12.316 186.192 12.2367 186.556 12.078C186.929 11.9193 187.209 11.7 187.396 11.42C187.592 11.1307 187.69 10.7993 187.69 10.426C187.69 9.94067 187.527 9.56733 187.2 9.306C186.873 9.03533 186.43 8.9 185.87 8.9C185.515 8.9 185.193 8.93733 184.904 9.012C184.615 9.07733 184.344 9.17533 184.092 9.306C183.849 9.42733 183.602 9.572 183.35 9.74L182.734 8.9C182.977 8.71333 183.252 8.54067 183.56 8.382C183.877 8.22333 184.227 8.09733 184.61 8.004C184.993 7.91067 185.408 7.864 185.856 7.864C186.901 7.864 187.676 8.09733 188.18 8.564C188.693 9.03067 188.95 9.62333 188.95 10.342ZM193.91 18.14C192.976 18.14 192.23 17.818 191.67 17.174C191.11 16.5207 190.83 15.55 190.83 14.262C190.83 12.974 191.11 12.0033 191.67 11.35C192.239 10.6873 192.99 10.356 193.924 10.356C194.316 10.356 194.656 10.4073 194.946 10.51C195.235 10.6033 195.487 10.734 195.702 10.902C195.916 11.07 196.098 11.2567 196.248 11.462H196.332C196.322 11.3407 196.304 11.1633 196.276 10.93C196.257 10.6873 196.248 10.496 196.248 10.356V7.36H197.48V18H196.486L196.304 16.992H196.248C196.098 17.2067 195.916 17.4027 195.702 17.58C195.487 17.748 195.23 17.8833 194.932 17.986C194.642 18.0887 194.302 18.14 193.91 18.14ZM194.106 17.118C194.899 17.118 195.454 16.9033 195.772 16.474C196.098 16.0353 196.262 15.3773 196.262 14.5V14.276C196.262 13.3427 196.108 12.6287 195.8 12.134C195.492 11.63 194.922 11.378 194.092 11.378C193.429 11.378 192.93 11.644 192.594 12.176C192.267 12.6987 192.104 13.4033 192.104 14.29C192.104 15.186 192.267 15.8813 192.594 16.376C192.93 16.8707 193.434 17.118 194.106 17.118ZM202.523 11.868C203.204 11.868 203.797 11.9847 204.301 12.218C204.805 12.4513 205.192 12.7873 205.463 13.226C205.743 13.6553 205.883 14.1827 205.883 14.808C205.883 15.4987 205.734 16.096 205.435 16.6C205.136 17.0947 204.707 17.4773 204.147 17.748C203.596 18.0093 202.929 18.14 202.145 18.14C201.632 18.14 201.146 18.0933 200.689 18C200.241 17.9067 199.863 17.7713 199.555 17.594V16.432C199.891 16.6373 200.297 16.8007 200.773 16.922C201.258 17.034 201.72 17.09 202.159 17.09C202.654 17.09 203.083 17.0153 203.447 16.866C203.82 16.7073 204.11 16.4693 204.315 16.152C204.52 15.8253 204.623 15.4193 204.623 14.934C204.623 14.2807 204.422 13.7813 204.021 13.436C203.62 13.0813 202.985 12.904 202.117 12.904C201.856 12.904 201.557 12.9273 201.221 12.974C200.885 13.0207 200.614 13.0673 200.409 13.114L199.793 12.722L200.171 8.004H205.183V9.124H201.221L200.983 12.022C201.142 11.994 201.356 11.9613 201.627 11.924C201.898 11.8867 202.196 11.868 202.523 11.868ZM210.675 7.864C211.263 7.864 211.781 7.95733 212.229 8.144C212.677 8.32133 213.027 8.58733 213.279 8.942C213.54 9.29667 213.671 9.73533 213.671 10.258C213.671 10.6593 213.582 11.0093 213.405 11.308C213.237 11.6067 213.008 11.8727 212.719 12.106C212.429 12.33 212.112 12.5307 211.767 12.708C212.177 12.904 212.551 13.128 212.887 13.38C213.223 13.6227 213.489 13.9073 213.685 14.234C213.89 14.5607 213.993 14.9527 213.993 15.41C213.993 15.97 213.857 16.4553 213.587 16.866C213.316 17.2673 212.933 17.58 212.439 17.804C211.953 18.028 211.379 18.14 210.717 18.14C209.998 18.14 209.387 18.0327 208.883 17.818C208.388 17.6033 208.01 17.3 207.749 16.908C207.497 16.5067 207.371 16.0213 207.371 15.452C207.371 14.9947 207.464 14.598 207.651 14.262C207.847 13.926 208.103 13.6367 208.421 13.394C208.738 13.1513 209.079 12.946 209.443 12.778C209.116 12.5913 208.817 12.3813 208.547 12.148C208.285 11.9053 208.075 11.63 207.917 11.322C207.767 11.014 207.693 10.6547 207.693 10.244C207.693 9.73067 207.823 9.30133 208.085 8.956C208.346 8.60133 208.701 8.33067 209.149 8.144C209.597 7.95733 210.105 7.864 210.675 7.864ZM208.575 15.466C208.575 15.9513 208.747 16.3573 209.093 16.684C209.438 17.0013 209.97 17.16 210.689 17.16C211.146 17.16 211.529 17.0853 211.837 16.936C212.145 16.7867 212.378 16.5813 212.537 16.32C212.705 16.0587 212.789 15.76 212.789 15.424C212.789 15.0973 212.7 14.8127 212.523 14.57C212.355 14.318 212.112 14.094 211.795 13.898C211.487 13.702 211.118 13.5247 210.689 13.366L210.465 13.282C210.054 13.4593 209.709 13.6507 209.429 13.856C209.149 14.0613 208.934 14.2947 208.785 14.556C208.645 14.8173 208.575 15.1207 208.575 15.466ZM210.661 8.858C210.147 8.858 209.723 8.984 209.387 9.236C209.06 9.47867 208.897 9.83333 208.897 10.3C208.897 10.6453 208.976 10.9347 209.135 11.168C209.303 11.4013 209.527 11.602 209.807 11.77C210.087 11.9287 210.395 12.0827 210.731 12.232C211.057 12.092 211.347 11.938 211.599 11.77C211.86 11.602 212.065 11.4013 212.215 11.168C212.373 10.9253 212.453 10.636 212.453 10.3C212.453 9.83333 212.289 9.47867 211.963 9.236C211.636 8.984 211.202 8.858 210.661 8.858ZM219.386 10.356C219.526 10.356 219.676 10.3653 219.834 10.384C220.002 10.3933 220.147 10.412 220.268 10.44L220.114 11.574C219.993 11.546 219.858 11.5227 219.708 11.504C219.568 11.4853 219.433 11.476 219.302 11.476C219.013 11.476 218.738 11.5367 218.476 11.658C218.215 11.7793 217.982 11.952 217.776 12.176C217.571 12.3907 217.408 12.652 217.286 12.96C217.174 13.268 217.118 13.6133 217.118 13.996V18H215.886V10.496H216.894L217.034 11.868H217.09C217.249 11.588 217.44 11.336 217.664 11.112C217.888 10.8787 218.145 10.6967 218.434 10.566C218.724 10.426 219.041 10.356 219.386 10.356ZM222.383 18L226.485 9.124H221.095V8.004H227.801V8.956L223.741 18H222.383ZM234.679 18.154C234.679 17.986 234.684 17.79 234.693 17.566C234.703 17.342 234.721 17.1507 234.749 16.992H234.665C234.451 17.3093 234.152 17.58 233.769 17.804C233.396 18.028 232.911 18.14 232.313 18.14C231.408 18.14 230.671 17.818 230.101 17.174C229.541 16.5207 229.261 15.55 229.261 14.262C229.261 13.4033 229.392 12.6847 229.653 12.106C229.915 11.5273 230.279 11.0933 230.745 10.804C231.212 10.5053 231.749 10.356 232.355 10.356C232.943 10.356 233.424 10.468 233.797 10.692C234.171 10.916 234.469 11.1913 234.693 11.518H234.749L234.931 10.496H235.911V21.36H234.679V18.154ZM232.551 17.118C233.065 17.118 233.475 17.0247 233.783 16.838C234.101 16.6513 234.329 16.3667 234.469 15.984C234.609 15.592 234.684 15.1067 234.693 14.528V14.276C234.693 13.324 234.535 12.6053 234.217 12.12C233.9 11.6253 233.335 11.378 232.523 11.378C231.851 11.378 231.352 11.644 231.025 12.176C230.699 12.6987 230.535 13.4033 230.535 14.29C230.535 15.1767 230.699 15.872 231.025 16.376C231.361 16.8707 231.87 17.118 232.551 17.118ZM244.006 10.342C244.006 10.79 243.922 11.1773 243.754 11.504C243.586 11.8307 243.344 12.0967 243.026 12.302C242.718 12.5073 242.354 12.652 241.934 12.736V12.792C242.737 12.8853 243.334 13.1373 243.726 13.548C244.118 13.9587 244.314 14.4953 244.314 15.158C244.314 15.7367 244.179 16.2547 243.908 16.712C243.638 17.16 243.218 17.51 242.648 17.762C242.088 18.014 241.365 18.14 240.478 18.14C239.956 18.14 239.47 18.098 239.022 18.014C238.574 17.9393 238.145 17.7993 237.734 17.594V16.446C238.154 16.6513 238.607 16.8147 239.092 16.936C239.578 17.048 240.044 17.104 240.492 17.104C241.388 17.104 242.032 16.9313 242.424 16.586C242.826 16.2313 243.026 15.746 243.026 15.13C243.026 14.71 242.914 14.374 242.69 14.122C242.476 13.8607 242.158 13.6693 241.738 13.548C241.318 13.4267 240.814 13.366 240.226 13.366H239.26V12.316H240.24C240.791 12.316 241.248 12.2367 241.612 12.078C241.986 11.9193 242.266 11.7 242.452 11.42C242.648 11.1307 242.746 10.7993 242.746 10.426C242.746 9.94067 242.583 9.56733 242.256 9.306C241.93 9.03533 241.486 8.9 240.926 8.9C240.572 8.9 240.25 8.93733 239.96 9.012C239.671 9.07733 239.4 9.17533 239.148 9.306C238.906 9.42733 238.658 9.572 238.406 9.74L237.79 8.9C238.033 8.71333 238.308 8.54067 238.616 8.382C238.934 8.22333 239.284 8.09733 239.666 8.004C240.049 7.91067 240.464 7.864 240.912 7.864C241.958 7.864 242.732 8.09733 243.236 8.564C243.75 9.03067 244.006 9.62333 244.006 10.342ZM245.886 13.73C245.886 13.1513 245.924 12.582 245.998 12.022C246.082 11.462 246.222 10.9347 246.418 10.44C246.614 9.936 246.885 9.49267 247.23 9.11C247.576 8.718 248.01 8.41467 248.532 8.2C249.064 7.976 249.708 7.864 250.464 7.864C250.66 7.864 250.875 7.87333 251.108 7.892C251.351 7.91067 251.547 7.94333 251.696 7.99V9.04C251.528 8.984 251.337 8.942 251.122 8.914C250.917 8.886 250.707 8.872 250.492 8.872C249.848 8.872 249.312 8.97933 248.882 9.194C248.453 9.40867 248.112 9.70267 247.86 10.076C247.618 10.4493 247.44 10.8787 247.328 11.364C247.216 11.8493 247.146 12.3673 247.118 12.918H247.202C247.342 12.694 247.52 12.4933 247.734 12.316C247.949 12.1387 248.206 11.9987 248.504 11.896C248.812 11.7933 249.167 11.742 249.568 11.742C250.147 11.742 250.651 11.8633 251.08 12.106C251.519 12.3393 251.86 12.6847 252.102 13.142C252.345 13.59 252.466 14.136 252.466 14.78C252.466 15.4707 252.336 16.068 252.074 16.572C251.813 17.076 251.444 17.4633 250.968 17.734C250.502 18.0047 249.942 18.14 249.288 18.14C248.812 18.14 248.369 18.0513 247.958 17.874C247.548 17.6967 247.184 17.426 246.866 17.062C246.558 16.698 246.316 16.2407 246.138 15.69C245.97 15.13 245.886 14.4767 245.886 13.73ZM249.274 17.104C249.862 17.104 250.338 16.9173 250.702 16.544C251.066 16.1613 251.248 15.5733 251.248 14.78C251.248 14.1453 251.085 13.6413 250.758 13.268C250.441 12.8947 249.96 12.708 249.316 12.708C248.878 12.708 248.495 12.8013 248.168 12.988C247.842 13.1653 247.585 13.394 247.398 13.674C247.221 13.954 247.132 14.2433 247.132 14.542C247.132 14.85 247.174 15.1533 247.258 15.452C247.352 15.7507 247.487 16.026 247.664 16.278C247.851 16.53 248.075 16.7307 248.336 16.88C248.607 17.0293 248.92 17.104 249.274 17.104ZM259.162 13.758C259.106 13.562 259.05 13.3707 258.994 13.184C258.938 12.988 258.887 12.806 258.84 12.638C258.803 12.4607 258.765 12.2973 258.728 12.148C258.691 11.9987 258.663 11.8727 258.644 11.77H258.588C258.569 11.8727 258.541 11.9987 258.504 12.148C258.476 12.2973 258.439 12.4607 258.392 12.638C258.355 12.8153 258.308 13.002 258.252 13.198C258.205 13.3847 258.149 13.576 258.084 13.772L256.74 17.986H255.34L253.282 10.482H254.556L255.592 14.486C255.667 14.7567 255.737 15.032 255.802 15.312C255.867 15.5827 255.923 15.844 255.97 16.096C256.026 16.3387 256.063 16.5487 256.082 16.726H256.138C256.166 16.614 256.199 16.474 256.236 16.306C256.273 16.138 256.311 15.9607 256.348 15.774C256.395 15.5873 256.441 15.4007 256.488 15.214C256.544 15.0273 256.595 14.8593 256.642 14.71L257.972 10.482H259.316L260.604 14.71C260.669 14.9247 260.735 15.1533 260.8 15.396C260.875 15.6387 260.94 15.8767 260.996 16.11C261.052 16.334 261.089 16.5347 261.108 16.712H261.164C261.183 16.5533 261.215 16.3573 261.262 16.124C261.318 15.8813 261.379 15.62 261.444 15.34C261.519 15.0507 261.593 14.766 261.668 14.486L262.718 10.482H263.978L261.892 17.986H260.45L259.162 13.758ZM271.862 15.732H270.406V18H269.216V15.732H264.428V14.682L269.132 7.948H270.406V14.626H271.862V15.732ZM269.216 11.476C269.216 11.2333 269.216 11.014 269.216 10.818C269.225 10.6127 269.234 10.4213 269.244 10.244C269.253 10.0667 269.258 9.89867 269.258 9.74C269.267 9.572 269.276 9.41333 269.286 9.264H269.23C269.155 9.44133 269.062 9.63267 268.95 9.838C268.838 10.0433 268.73 10.216 268.628 10.356L265.632 14.626H269.216V11.476ZM276.948 10.356C277.844 10.356 278.52 10.5753 278.978 11.014C279.435 11.4433 279.664 12.1433 279.664 13.114V18H278.446V13.198C278.446 12.5913 278.31 12.1387 278.04 11.84C277.769 11.5413 277.344 11.392 276.766 11.392C275.935 11.392 275.361 11.6253 275.044 12.092C274.726 12.5587 274.568 13.2307 274.568 14.108V18H273.336V10.496H274.33L274.512 11.518H274.582C274.75 11.2567 274.955 11.042 275.198 10.874C275.45 10.6967 275.725 10.566 276.024 10.482C276.322 10.398 276.63 10.356 276.948 10.356ZM286.988 18.154C286.988 17.986 286.992 17.79 287.002 17.566C287.011 17.342 287.03 17.1507 287.058 16.992H286.974C286.759 17.3093 286.46 17.58 286.078 17.804C285.704 18.028 285.219 18.14 284.622 18.14C283.716 18.14 282.979 17.818 282.41 17.174C281.85 16.5207 281.57 15.55 281.57 14.262C281.57 13.4033 281.7 12.6847 281.962 12.106C282.223 11.5273 282.587 11.0933 283.054 10.804C283.52 10.5053 284.057 10.356 284.664 10.356C285.252 10.356 285.732 10.468 286.106 10.692C286.479 10.916 286.778 11.1913 287.002 11.518H287.058L287.24 10.496H288.22V21.36H286.988V18.154ZM284.86 17.118C285.373 17.118 285.784 17.0247 286.092 16.838C286.409 16.6513 286.638 16.3667 286.778 15.984C286.918 15.592 286.992 15.1067 287.002 14.528V14.276C287.002 13.324 286.843 12.6053 286.526 12.12C286.208 11.6253 285.644 11.378 284.832 11.378C284.16 11.378 283.66 11.644 283.334 12.176C283.007 12.6987 282.844 13.4033 282.844 14.29C282.844 15.1767 283.007 15.872 283.334 16.376C283.67 16.8707 284.178 17.118 284.86 17.118ZM295.601 18.154C295.601 17.986 295.606 17.79 295.615 17.566C295.624 17.342 295.643 17.1507 295.671 16.992H295.587C295.372 17.3093 295.074 17.58 294.691 17.804C294.318 18.028 293.832 18.14 293.235 18.14C292.33 18.14 291.592 17.818 291.023 17.174C290.463 16.5207 290.183 15.55 290.183 14.262C290.183 13.4033 290.314 12.6847 290.575 12.106C290.836 11.5273 291.2 11.0933 291.667 10.804C292.134 10.5053 292.67 10.356 293.277 10.356C293.865 10.356 294.346 10.468 294.719 10.692C295.092 10.916 295.391 11.1913 295.615 11.518H295.671L295.853 10.496H296.833V21.36H295.601V18.154ZM293.473 17.118C293.986 17.118 294.397 17.0247 294.705 16.838C295.022 16.6513 295.251 16.3667 295.391 15.984C295.531 15.592 295.606 15.1067 295.615 14.528V14.276C295.615 13.324 295.456 12.6053 295.139 12.12C294.822 11.6253 294.257 11.378 293.445 11.378C292.773 11.378 292.274 11.644 291.947 12.176C291.62 12.6987 291.457 13.4033 291.457 14.29C291.457 15.1767 291.62 15.872 291.947 16.376C292.283 16.8707 292.792 17.118 293.473 17.118ZM301.876 10.356C302.371 10.356 302.814 10.4493 303.206 10.636C303.608 10.8227 303.948 11.1073 304.228 11.49H304.298L304.466 10.496H305.446V18.126C305.446 18.8353 305.325 19.428 305.082 19.904C304.84 20.3893 304.471 20.7533 303.976 20.996C303.482 21.2387 302.852 21.36 302.086 21.36C301.545 21.36 301.046 21.318 300.588 21.234C300.14 21.1593 299.739 21.0427 299.384 20.884V19.75C299.627 19.8713 299.893 19.974 300.182 20.058C300.472 20.1513 300.784 20.2213 301.12 20.268C301.456 20.3147 301.802 20.338 302.156 20.338C302.8 20.338 303.304 20.1467 303.668 19.764C304.042 19.3907 304.228 18.8773 304.228 18.224V17.93C304.228 17.818 304.233 17.6593 304.242 17.454C304.252 17.2393 304.261 17.09 304.27 17.006H304.214C303.953 17.3887 303.626 17.6733 303.234 17.86C302.852 18.0467 302.404 18.14 301.89 18.14C300.92 18.14 300.159 17.7993 299.608 17.118C299.067 16.4367 298.796 15.4847 298.796 14.262C298.796 13.4593 298.918 12.7687 299.16 12.19C299.412 11.602 299.767 11.1493 300.224 10.832C300.682 10.5147 301.232 10.356 301.876 10.356ZM302.044 11.392C301.624 11.392 301.265 11.504 300.966 11.728C300.677 11.952 300.453 12.2787 300.294 12.708C300.145 13.1373 300.07 13.66 300.07 14.276C300.07 15.2 300.238 15.9093 300.574 16.404C300.92 16.8893 301.419 17.132 302.072 17.132C302.455 17.132 302.782 17.0853 303.052 16.992C303.323 16.8893 303.547 16.7353 303.724 16.53C303.902 16.3153 304.032 16.0447 304.116 15.718C304.2 15.3913 304.242 15.004 304.242 14.556V14.262C304.242 13.5807 304.163 13.03 304.004 12.61C303.855 12.19 303.617 11.882 303.29 11.686C302.964 11.49 302.548 11.392 302.044 11.392ZM310.728 10.356C311.372 10.356 311.922 10.496 312.38 10.776C312.846 11.056 313.201 11.4527 313.444 11.966C313.696 12.47 313.822 13.0627 313.822 13.744V14.486H308.684C308.702 15.3353 308.917 15.984 309.328 16.432C309.748 16.8707 310.331 17.09 311.078 17.09C311.554 17.09 311.974 17.048 312.338 16.964C312.711 16.8707 313.094 16.74 313.486 16.572V17.65C313.103 17.818 312.725 17.9393 312.352 18.014C311.978 18.098 311.535 18.14 311.022 18.14C310.312 18.14 309.682 17.9953 309.132 17.706C308.59 17.4167 308.166 16.9873 307.858 16.418C307.559 15.8393 307.41 15.1347 307.41 14.304C307.41 13.4827 307.545 12.778 307.816 12.19C308.096 11.602 308.483 11.1493 308.978 10.832C309.482 10.5147 310.065 10.356 310.728 10.356ZM310.714 11.364C310.126 11.364 309.659 11.5553 309.314 11.938C308.978 12.3113 308.777 12.834 308.712 13.506H312.534C312.534 13.0767 312.468 12.7033 312.338 12.386C312.207 12.0687 312.006 11.8213 311.736 11.644C311.474 11.4573 311.134 11.364 310.714 11.364ZM318.392 10.356C318.887 10.356 319.33 10.4493 319.722 10.636C320.123 10.8227 320.464 11.1073 320.744 11.49H320.814L320.982 10.496H321.962V18.126C321.962 18.8353 321.841 19.428 321.598 19.904C321.355 20.3893 320.987 20.7533 320.492 20.996C319.997 21.2387 319.367 21.36 318.602 21.36C318.061 21.36 317.561 21.318 317.104 21.234C316.656 21.1593 316.255 21.0427 315.9 20.884V19.75C316.143 19.8713 316.409 19.974 316.698 20.058C316.987 20.1513 317.3 20.2213 317.636 20.268C317.972 20.3147 318.317 20.338 318.672 20.338C319.316 20.338 319.82 20.1467 320.184 19.764C320.557 19.3907 320.744 18.8773 320.744 18.224V17.93C320.744 17.818 320.749 17.6593 320.758 17.454C320.767 17.2393 320.777 17.09 320.786 17.006H320.73C320.469 17.3887 320.142 17.6733 319.75 17.86C319.367 18.0467 318.919 18.14 318.406 18.14C317.435 18.14 316.675 17.7993 316.124 17.118C315.583 16.4367 315.312 15.4847 315.312 14.262C315.312 13.4593 315.433 12.7687 315.676 12.19C315.928 11.602 316.283 11.1493 316.74 10.832C317.197 10.5147 317.748 10.356 318.392 10.356ZM318.56 11.392C318.14 11.392 317.781 11.504 317.482 11.728C317.193 11.952 316.969 12.2787 316.81 12.708C316.661 13.1373 316.586 13.66 316.586 14.276C316.586 15.2 316.754 15.9093 317.09 16.404C317.435 16.8893 317.935 17.132 318.588 17.132C318.971 17.132 319.297 17.0853 319.568 16.992C319.839 16.8893 320.063 16.7353 320.24 16.53C320.417 16.3153 320.548 16.0447 320.632 15.718C320.716 15.3913 320.758 15.004 320.758 14.556V14.262C320.758 13.5807 320.679 13.03 320.52 12.61C320.371 12.19 320.133 11.882 319.806 11.686C319.479 11.49 319.064 11.392 318.56 11.392ZM323.463 21.36C323.23 21.36 323.025 21.3413 322.847 21.304C322.67 21.276 322.516 21.2387 322.385 21.192V20.198C322.525 20.2353 322.67 20.268 322.819 20.296C322.969 20.324 323.132 20.338 323.309 20.338C323.608 20.338 323.855 20.254 324.051 20.086C324.247 19.9273 324.345 19.6193 324.345 19.162V10.496H325.577V19.12C325.577 19.5867 325.503 19.988 325.353 20.324C325.204 20.66 324.975 20.9167 324.667 21.094C324.359 21.2713 323.958 21.36 323.463 21.36ZM324.247 8.466C324.247 8.19533 324.317 7.99933 324.457 7.878C324.597 7.74733 324.77 7.682 324.975 7.682C325.162 7.682 325.325 7.74733 325.465 7.878C325.615 7.99933 325.689 8.19533 325.689 8.466C325.689 8.72733 325.615 8.92333 325.465 9.054C325.325 9.18467 325.162 9.25 324.975 9.25C324.77 9.25 324.597 9.18467 324.457 9.054C324.317 8.92333 324.247 8.72733 324.247 8.466ZM330.615 10.356C331.109 10.356 331.553 10.4493 331.945 10.636C332.346 10.8227 332.687 11.1073 332.967 11.49H333.037L333.205 10.496H334.185V18.126C334.185 18.8353 334.063 19.428 333.821 19.904C333.578 20.3893 333.209 20.7533 332.715 20.996C332.22 21.2387 331.59 21.36 330.825 21.36C330.283 21.36 329.784 21.318 329.327 21.234C328.879 21.1593 328.477 21.0427 328.123 20.884V19.75C328.365 19.8713 328.631 19.974 328.921 20.058C329.21 20.1513 329.523 20.2213 329.859 20.268C330.195 20.3147 330.54 20.338 330.895 20.338C331.539 20.338 332.043 20.1467 332.407 19.764C332.78 19.3907 332.967 18.8773 332.967 18.224V17.93C332.967 17.818 332.971 17.6593 332.981 17.454C332.99 17.2393 332.999 17.09 333.009 17.006H332.953C332.691 17.3887 332.365 17.6733 331.973 17.86C331.59 18.0467 331.142 18.14 330.629 18.14C329.658 18.14 328.897 17.7993 328.347 17.118C327.805 16.4367 327.535 15.4847 327.535 14.262C327.535 13.4593 327.656 12.7687 327.899 12.19C328.151 11.602 328.505 11.1493 328.963 10.832C329.42 10.5147 329.971 10.356 330.615 10.356ZM330.783 11.392C330.363 11.392 330.003 11.504 329.705 11.728C329.415 11.952 329.191 12.2787 329.033 12.708C328.883 13.1373 328.809 13.66 328.809 14.276C328.809 15.2 328.977 15.9093 329.313 16.404C329.658 16.8893 330.157 17.132 330.811 17.132C331.193 17.132 331.52 17.0853 331.791 16.992C332.061 16.8893 332.285 16.7353 332.463 16.53C332.64 16.3153 332.771 16.0447 332.855 15.718C332.939 15.3913 332.981 15.004 332.981 14.556V14.262C332.981 13.5807 332.901 13.03 332.743 12.61C332.593 12.19 332.355 11.882 332.029 11.686C331.702 11.49 331.287 11.392 330.783 11.392ZM340.18 10.356C341.076 10.356 341.753 10.5753 342.21 11.014C342.667 11.4433 342.896 12.1433 342.896 13.114V18H341.678V13.198C341.678 12.5913 341.543 12.1387 341.272 11.84C341.001 11.5413 340.577 11.392 339.998 11.392C339.167 11.392 338.593 11.6253 338.276 12.092C337.959 12.5587 337.8 13.2307 337.8 14.108V18H336.568V10.496H337.562L337.744 11.518H337.814C337.982 11.2567 338.187 11.042 338.43 10.874C338.682 10.6967 338.957 10.566 339.256 10.482C339.555 10.398 339.863 10.356 340.18 10.356ZM348.68 11.448H346.79V18H345.558V11.448H344.242V10.874L345.558 10.454V10.02C345.558 9.376 345.652 8.85333 345.838 8.452C346.034 8.05067 346.314 7.75667 346.678 7.57C347.042 7.38333 347.481 7.29 347.994 7.29C348.293 7.29 348.564 7.318 348.806 7.374C349.058 7.42067 349.273 7.47667 349.45 7.542L349.128 8.508C348.979 8.46133 348.806 8.41467 348.61 8.368C348.414 8.32133 348.214 8.298 348.008 8.298C347.598 8.298 347.29 8.438 347.084 8.718C346.888 8.98867 346.79 9.418 346.79 10.006V10.496H348.68V11.448ZM358.267 10.356C359.116 10.356 359.751 10.5753 360.171 11.014C360.591 11.4433 360.801 12.1433 360.801 13.114V18H359.583V13.17C359.583 12.582 359.457 12.1387 359.205 11.84C358.962 11.5413 358.579 11.392 358.057 11.392C357.329 11.392 356.806 11.602 356.489 12.022C356.181 12.442 356.027 13.0533 356.027 13.856V18H354.809V13.17C354.809 12.778 354.753 12.4513 354.641 12.19C354.529 11.9193 354.361 11.7187 354.137 11.588C353.913 11.4573 353.623 11.392 353.269 11.392C352.765 11.392 352.368 11.4993 352.079 11.714C351.789 11.9193 351.579 12.2227 351.449 12.624C351.327 13.0253 351.267 13.52 351.267 14.108V18H350.035V10.496H351.029L351.211 11.518H351.281C351.439 11.2567 351.631 11.042 351.855 10.874C352.088 10.6967 352.345 10.566 352.625 10.482C352.905 10.398 353.194 10.356 353.493 10.356C354.071 10.356 354.552 10.4587 354.935 10.664C355.327 10.8693 355.611 11.1867 355.789 11.616H355.859C356.111 11.1867 356.451 10.8693 356.881 10.664C357.319 10.4587 357.781 10.356 358.267 10.356ZM368.005 15.928C368.005 16.4133 367.883 16.8193 367.641 17.146C367.398 17.4727 367.053 17.72 366.605 17.888C366.157 18.056 365.625 18.14 365.009 18.14C364.486 18.14 364.033 18.098 363.651 18.014C363.277 17.93 362.946 17.8133 362.657 17.664V16.544C362.955 16.6933 363.315 16.8333 363.735 16.964C364.164 17.0853 364.598 17.146 365.037 17.146C365.662 17.146 366.115 17.048 366.395 16.852C366.675 16.6467 366.815 16.376 366.815 16.04C366.815 15.8533 366.763 15.6853 366.661 15.536C366.558 15.3867 366.371 15.2373 366.101 15.088C365.839 14.9387 365.461 14.7707 364.967 14.584C364.481 14.3973 364.066 14.2107 363.721 14.024C363.375 13.8373 363.109 13.6133 362.923 13.352C362.736 13.0907 362.643 12.7547 362.643 12.344C362.643 11.7093 362.899 11.2193 363.413 10.874C363.935 10.5287 364.617 10.356 365.457 10.356C365.914 10.356 366.339 10.4027 366.731 10.496C367.132 10.58 367.505 10.7013 367.851 10.86L367.431 11.84C367.225 11.7467 367.006 11.6673 366.773 11.602C366.549 11.5273 366.32 11.4713 366.087 11.434C365.853 11.3873 365.615 11.364 365.373 11.364C364.869 11.364 364.481 11.448 364.211 11.616C363.949 11.7747 363.819 11.994 363.819 12.274C363.819 12.4793 363.879 12.6567 364.001 12.806C364.122 12.946 364.323 13.086 364.603 13.226C364.892 13.3567 365.275 13.5153 365.751 13.702C366.227 13.8793 366.633 14.0613 366.969 14.248C367.305 14.4347 367.561 14.6633 367.739 14.934C367.916 15.1953 368.005 15.5267 368.005 15.928ZM372.828 18.14C372.165 18.14 371.573 18.0047 371.05 17.734C370.537 17.4633 370.131 17.0433 369.832 16.474C369.543 15.9047 369.398 15.1767 369.398 14.29C369.398 13.366 369.552 12.6147 369.86 12.036C370.168 11.4573 370.583 11.0327 371.106 10.762C371.638 10.4913 372.24 10.356 372.912 10.356C373.295 10.356 373.663 10.398 374.018 10.482C374.373 10.5567 374.662 10.65 374.886 10.762L374.508 11.784C374.284 11.7 374.023 11.6207 373.724 11.546C373.425 11.4713 373.145 11.434 372.884 11.434C372.38 11.434 371.965 11.5413 371.638 11.756C371.311 11.9707 371.069 12.288 370.91 12.708C370.751 13.128 370.672 13.6507 370.672 14.276C370.672 14.8733 370.751 15.382 370.91 15.802C371.069 16.222 371.307 16.5393 371.624 16.754C371.941 16.9687 372.338 17.076 372.814 17.076C373.225 17.076 373.584 17.034 373.892 16.95C374.209 16.866 374.499 16.7633 374.76 16.642V17.734C374.508 17.8647 374.228 17.9627 373.92 18.028C373.621 18.1027 373.257 18.14 372.828 18.14ZM379.442 10.356C380.086 10.356 380.637 10.496 381.094 10.776C381.561 11.056 381.916 11.4527 382.158 11.966C382.41 12.47 382.536 13.0627 382.536 13.744V14.486H377.398C377.417 15.3353 377.632 15.984 378.042 16.432C378.462 16.8707 379.046 17.09 379.792 17.09C380.268 17.09 380.688 17.048 381.052 16.964C381.426 16.8707 381.808 16.74 382.2 16.572V17.65C381.818 17.818 381.44 17.9393 381.066 18.014C380.693 18.098 380.25 18.14 379.736 18.14C379.027 18.14 378.397 17.9953 377.846 17.706C377.305 17.4167 376.88 16.9873 376.572 16.418C376.274 15.8393 376.124 15.1347 376.124 14.304C376.124 13.4827 376.26 12.778 376.53 12.19C376.81 11.602 377.198 11.1493 377.692 10.832C378.196 10.5147 378.78 10.356 379.442 10.356ZM379.428 11.364C378.84 11.364 378.374 11.5553 378.028 11.938C377.692 12.3113 377.492 12.834 377.426 13.506H381.248C381.248 13.0767 381.183 12.7033 381.052 12.386C380.922 12.0687 380.721 11.8213 380.45 11.644C380.189 11.4573 379.848 11.364 379.428 11.364ZM390.537 12.274C390.537 12.8433 390.495 13.4127 390.411 13.982C390.336 14.542 390.201 15.074 390.005 15.578C389.809 16.0727 389.538 16.516 389.193 16.908C388.848 17.2907 388.409 17.594 387.877 17.818C387.345 18.0327 386.701 18.14 385.945 18.14C385.758 18.14 385.539 18.126 385.287 18.098C385.044 18.0793 384.844 18.0467 384.685 18V16.95C384.853 17.006 385.049 17.0527 385.273 17.09C385.497 17.118 385.712 17.132 385.917 17.132C386.57 17.132 387.107 17.0247 387.527 16.81C387.956 16.5953 388.297 16.306 388.549 15.942C388.801 15.5687 388.983 15.1393 389.095 14.654C389.207 14.1593 389.272 13.6413 389.291 13.1H389.207C389.067 13.3147 388.89 13.5107 388.675 13.688C388.46 13.8653 388.199 14.0053 387.891 14.108C387.592 14.2107 387.238 14.262 386.827 14.262C386.258 14.262 385.754 14.1453 385.315 13.912C384.886 13.6693 384.55 13.324 384.307 12.876C384.074 12.428 383.957 11.882 383.957 11.238C383.957 10.538 384.088 9.936 384.349 9.432C384.62 8.928 384.993 8.54067 385.469 8.27C385.945 7.99933 386.505 7.864 387.149 7.864C387.625 7.864 388.068 7.95733 388.479 8.144C388.89 8.32133 389.249 8.592 389.557 8.956C389.865 9.32 390.103 9.77733 390.271 10.328C390.448 10.8787 390.537 11.5273 390.537 12.274ZM387.149 8.9C386.57 8.9 386.094 9.09133 385.721 9.474C385.357 9.85667 385.175 10.44 385.175 11.224C385.175 11.868 385.329 12.3767 385.637 12.75C385.954 13.114 386.44 13.296 387.093 13.296C387.541 13.296 387.928 13.2073 388.255 13.03C388.582 12.8433 388.834 12.61 389.011 12.33C389.198 12.05 389.291 11.7607 389.291 11.462C389.291 11.1633 389.244 10.8647 389.151 10.566C389.067 10.258 388.936 9.978 388.759 9.726C388.582 9.474 388.358 9.27333 388.087 9.124C387.816 8.97467 387.504 8.9 387.149 8.9ZM393.691 18H392.459V7.36H393.691V18ZM397.3 10.482C397.3 10.6593 397.291 10.8413 397.272 11.028C397.263 11.2147 397.249 11.3827 397.23 11.532H397.314C397.473 11.2707 397.673 11.056 397.916 10.888C398.159 10.72 398.429 10.594 398.728 10.51C399.027 10.4167 399.335 10.37 399.652 10.37C400.259 10.37 400.763 10.468 401.164 10.664C401.575 10.8507 401.883 11.1447 402.088 11.546C402.293 11.9473 402.396 12.47 402.396 13.114V18H401.178V13.198C401.178 12.5913 401.043 12.1387 400.772 11.84C400.501 11.5413 400.077 11.392 399.498 11.392C398.938 11.392 398.499 11.4993 398.182 11.714C397.865 11.9193 397.636 12.2273 397.496 12.638C397.365 13.0393 397.3 13.534 397.3 14.122V18H396.068V7.36H397.3V10.482ZM407.382 10.356C407.877 10.356 408.32 10.4493 408.712 10.636C409.114 10.8227 409.454 11.1073 409.734 11.49H409.804L409.972 10.496H410.952V18.126C410.952 18.8353 410.831 19.428 410.588 19.904C410.346 20.3893 409.977 20.7533 409.482 20.996C408.988 21.2387 408.358 21.36 407.592 21.36C407.051 21.36 406.552 21.318 406.094 21.234C405.646 21.1593 405.245 21.0427 404.89 20.884V19.75C405.133 19.8713 405.399 19.974 405.688 20.058C405.978 20.1513 406.29 20.2213 406.626 20.268C406.962 20.3147 407.308 20.338 407.662 20.338C408.306 20.338 408.81 20.1467 409.174 19.764C409.548 19.3907 409.734 18.8773 409.734 18.224V17.93C409.734 17.818 409.739 17.6593 409.748 17.454C409.758 17.2393 409.767 17.09 409.776 17.006H409.72C409.459 17.3887 409.132 17.6733 408.74 17.86C408.358 18.0467 407.91 18.14 407.396 18.14C406.426 18.14 405.665 17.7993 405.114 17.118C404.573 16.4367 404.302 15.4847 404.302 14.262C404.302 13.4593 404.424 12.7687 404.666 12.19C404.918 11.602 405.273 11.1493 405.73 10.832C406.188 10.5147 406.738 10.356 407.382 10.356ZM407.55 11.392C407.13 11.392 406.771 11.504 406.472 11.728C406.183 11.952 405.959 12.2787 405.8 12.708C405.651 13.1373 405.576 13.66 405.576 14.276C405.576 15.2 405.744 15.9093 406.08 16.404C406.426 16.8893 406.925 17.132 407.578 17.132C407.961 17.132 408.288 17.0853 408.558 16.992C408.829 16.8893 409.053 16.7353 409.23 16.53C409.408 16.3153 409.538 16.0447 409.622 15.718C409.706 15.3913 409.748 15.004 409.748 14.556V14.262C409.748 13.5807 409.669 13.03 409.51 12.61C409.361 12.19 409.123 11.882 408.796 11.686C408.47 11.49 408.054 11.392 407.55 11.392ZM416.836 10.356C416.976 10.356 417.125 10.3653 417.284 10.384C417.452 10.3933 417.596 10.412 417.718 10.44L417.564 11.574C417.442 11.546 417.307 11.5227 417.158 11.504C417.018 11.4853 416.882 11.476 416.752 11.476C416.462 11.476 416.187 11.5367 415.926 11.658C415.664 11.7793 415.431 11.952 415.226 12.176C415.02 12.3907 414.857 12.652 414.736 12.96C414.624 13.268 414.568 13.6133 414.568 13.996V18H413.336V10.496H414.344L414.484 11.868H414.54C414.698 11.588 414.89 11.336 415.114 11.112C415.338 10.8787 415.594 10.6967 415.884 10.566C416.173 10.426 416.49 10.356 416.836 10.356ZM425.391 10.496V18H424.383L424.201 17.006H424.145C423.986 17.2673 423.781 17.482 423.529 17.65C423.277 17.818 423.001 17.9393 422.703 18.014C422.404 18.098 422.091 18.14 421.765 18.14C421.167 18.14 420.663 18.0467 420.253 17.86C419.851 17.664 419.548 17.3653 419.343 16.964C419.137 16.5627 419.035 16.0447 419.035 15.41V10.496H420.281V15.326C420.281 15.9233 420.416 16.3713 420.687 16.67C420.957 16.9687 421.377 17.118 421.947 17.118C422.507 17.118 422.945 17.0153 423.263 16.81C423.589 16.5953 423.818 16.2873 423.949 15.886C424.089 15.4753 424.159 14.9807 424.159 14.402V10.496H425.391ZM430.783 18.14C430.12 18.14 429.528 18.0047 429.005 17.734C428.492 17.4633 428.086 17.0433 427.787 16.474C427.498 15.9047 427.353 15.1767 427.353 14.29C427.353 13.366 427.507 12.6147 427.815 12.036C428.123 11.4573 428.538 11.0327 429.061 10.762C429.593 10.4913 430.195 10.356 430.867 10.356C431.25 10.356 431.618 10.398 431.973 10.482C432.328 10.5567 432.617 10.65 432.841 10.762L432.463 11.784C432.239 11.7 431.978 11.6207 431.679 11.546C431.38 11.4713 431.1 11.434 430.839 11.434C430.335 11.434 429.92 11.5413 429.593 11.756C429.266 11.9707 429.024 12.288 428.865 12.708C428.706 13.128 428.627 13.6507 428.627 14.276C428.627 14.8733 428.706 15.382 428.865 15.802C429.024 16.222 429.262 16.5393 429.579 16.754C429.896 16.9687 430.293 17.076 430.769 17.076C431.18 17.076 431.539 17.034 431.847 16.95C432.164 16.866 432.454 16.7633 432.715 16.642V17.734C432.463 17.8647 432.183 17.9627 431.875 18.028C431.576 18.1027 431.212 18.14 430.783 18.14ZM440.632 12.988C440.632 13.8 440.571 14.5233 440.45 15.158C440.328 15.7927 440.132 16.334 439.862 16.782C439.6 17.2207 439.255 17.5567 438.826 17.79C438.406 18.0233 437.897 18.14 437.3 18.14C436.553 18.14 435.932 17.9347 435.438 17.524C434.952 17.1133 434.588 16.5253 434.346 15.76C434.112 14.9853 433.996 14.0613 433.996 12.988C433.996 11.9053 434.103 10.9813 434.318 10.216C434.542 9.45067 434.896 8.86733 435.382 8.466C435.867 8.05533 436.506 7.85 437.3 7.85C438.046 7.85 438.667 8.05533 439.162 8.466C439.656 8.86733 440.025 9.45067 440.268 10.216C440.51 10.9813 440.632 11.9053 440.632 12.988ZM435.228 12.988C435.228 13.9027 435.293 14.6633 435.424 15.27C435.564 15.8767 435.783 16.334 436.082 16.642C436.39 16.9407 436.796 17.09 437.3 17.09C437.804 17.09 438.205 16.9407 438.504 16.642C438.812 16.3433 439.036 15.8907 439.176 15.284C439.316 14.668 439.386 13.9027 439.386 12.988C439.386 12.0733 439.316 11.3173 439.176 10.72C439.036 10.1133 438.812 9.66067 438.504 9.362C438.205 9.054 437.804 8.9 437.3 8.9C436.796 8.9 436.39 9.054 436.082 9.362C435.783 9.66067 435.564 10.1133 435.424 10.72C435.293 11.3173 435.228 12.0733 435.228 12.988ZM445.171 11.868C445.853 11.868 446.445 11.9847 446.949 12.218C447.453 12.4513 447.841 12.7873 448.111 13.226C448.391 13.6553 448.531 14.1827 448.531 14.808C448.531 15.4987 448.382 16.096 448.083 16.6C447.785 17.0947 447.355 17.4773 446.795 17.748C446.245 18.0093 445.577 18.14 444.793 18.14C444.28 18.14 443.795 18.0933 443.337 18C442.889 17.9067 442.511 17.7713 442.203 17.594V16.432C442.539 16.6373 442.945 16.8007 443.421 16.922C443.907 17.034 444.369 17.09 444.807 17.09C445.302 17.09 445.731 17.0153 446.095 16.866C446.469 16.7073 446.758 16.4693 446.963 16.152C447.169 15.8253 447.271 15.4193 447.271 14.934C447.271 14.2807 447.071 13.7813 446.669 13.436C446.268 13.0813 445.633 12.904 444.765 12.904C444.504 12.904 444.205 12.9273 443.869 12.974C443.533 13.0207 443.263 13.0673 443.057 13.114L442.441 12.722L442.819 8.004H447.831V9.124H443.869L443.631 12.022C443.79 11.994 444.005 11.9613 444.275 11.924C444.546 11.8867 444.845 11.868 445.171 11.868ZM453.533 18.14C452.87 18.14 452.278 18.0047 451.755 17.734C451.242 17.4633 450.836 17.0433 450.537 16.474C450.248 15.9047 450.103 15.1767 450.103 14.29C450.103 13.366 450.257 12.6147 450.565 12.036C450.873 11.4573 451.288 11.0327 451.811 10.762C452.343 10.4913 452.945 10.356 453.617 10.356C454 10.356 454.368 10.398 454.723 10.482C455.078 10.5567 455.367 10.65 455.591 10.762L455.213 11.784C454.989 11.7 454.728 11.6207 454.429 11.546C454.13 11.4713 453.85 11.434 453.589 11.434C453.085 11.434 452.67 11.5413 452.343 11.756C452.016 11.9707 451.774 12.288 451.615 12.708C451.456 13.128 451.377 13.6507 451.377 14.276C451.377 14.8733 451.456 15.382 451.615 15.802C451.774 16.222 452.012 16.5393 452.329 16.754C452.646 16.9687 453.043 17.076 453.519 17.076C453.93 17.076 454.289 17.034 454.597 16.95C454.914 16.866 455.204 16.7633 455.465 16.642V17.734C455.213 17.8647 454.933 17.9627 454.625 18.028C454.326 18.1027 453.962 18.14 453.533 18.14ZM460.148 10.356C460.792 10.356 461.342 10.496 461.8 10.776C462.266 11.056 462.621 11.4527 462.864 11.966C463.116 12.47 463.242 13.0627 463.242 13.744V14.486H458.104C458.122 15.3353 458.337 15.984 458.748 16.432C459.168 16.8707 459.751 17.09 460.498 17.09C460.974 17.09 461.394 17.048 461.758 16.964C462.131 16.8707 462.514 16.74 462.906 16.572V17.65C462.523 17.818 462.145 17.9393 461.772 18.014C461.398 18.098 460.955 18.14 460.442 18.14C459.732 18.14 459.102 17.9953 458.552 17.706C458.01 17.4167 457.586 16.9873 457.278 16.418C456.979 15.8393 456.83 15.1347 456.83 14.304C456.83 13.4827 456.965 12.778 457.236 12.19C457.516 11.602 457.903 11.1493 458.398 10.832C458.902 10.5147 459.485 10.356 460.148 10.356ZM460.134 11.364C459.546 11.364 459.079 11.5553 458.734 11.938C458.398 12.3113 458.197 12.834 458.132 13.506H461.954C461.954 13.0767 461.888 12.7033 461.758 12.386C461.627 12.0687 461.426 11.8213 461.156 11.644C460.894 11.4573 460.554 11.364 460.134 11.364ZM465.866 18L469.968 9.124H464.578V8.004H471.284V8.956L467.224 18H465.866ZM476.006 10.37C476.92 10.37 477.597 10.5707 478.036 10.972C478.474 11.3733 478.694 12.0127 478.694 12.89V18H477.798L477.56 16.936H477.504C477.289 17.2067 477.065 17.4353 476.832 17.622C476.608 17.7993 476.346 17.93 476.048 18.014C475.758 18.098 475.404 18.14 474.984 18.14C474.536 18.14 474.13 18.0607 473.766 17.902C473.411 17.7433 473.131 17.5007 472.926 17.174C472.72 16.838 472.618 16.418 472.618 15.914C472.618 15.1673 472.912 14.5933 473.5 14.192C474.088 13.7813 474.993 13.5573 476.216 13.52L477.49 13.478V13.03C477.49 12.4047 477.354 11.9707 477.084 11.728C476.813 11.4853 476.43 11.364 475.936 11.364C475.544 11.364 475.17 11.4247 474.816 11.546C474.461 11.658 474.13 11.7887 473.822 11.938L473.444 11.014C473.77 10.8367 474.158 10.6873 474.606 10.566C475.054 10.4353 475.52 10.37 476.006 10.37ZM476.37 14.374C475.436 14.4113 474.788 14.5607 474.424 14.822C474.069 15.0833 473.892 15.452 473.892 15.928C473.892 16.348 474.018 16.656 474.27 16.852C474.531 17.048 474.862 17.146 475.264 17.146C475.898 17.146 476.426 16.9733 476.846 16.628C477.266 16.2733 477.476 15.732 477.476 15.004V14.332L476.37 14.374ZM483.811 7.864C484.399 7.864 484.917 7.95733 485.365 8.144C485.813 8.32133 486.163 8.58733 486.415 8.942C486.677 9.29667 486.807 9.73533 486.807 10.258C486.807 10.6593 486.719 11.0093 486.541 11.308C486.373 11.6067 486.145 11.8727 485.855 12.106C485.566 12.33 485.249 12.5307 484.903 12.708C485.314 12.904 485.687 13.128 486.023 13.38C486.359 13.6227 486.625 13.9073 486.821 14.234C487.027 14.5607 487.129 14.9527 487.129 15.41C487.129 15.97 486.994 16.4553 486.723 16.866C486.453 17.2673 486.07 17.58 485.575 17.804C485.09 18.028 484.516 18.14 483.853 18.14C483.135 18.14 482.523 18.0327 482.019 17.818C481.525 17.6033 481.147 17.3 480.885 16.908C480.633 16.5067 480.507 16.0213 480.507 15.452C480.507 14.9947 480.601 14.598 480.787 14.262C480.983 13.926 481.24 13.6367 481.557 13.394C481.875 13.1513 482.215 12.946 482.579 12.778C482.253 12.5913 481.954 12.3813 481.683 12.148C481.422 11.9053 481.212 11.63 481.053 11.322C480.904 11.014 480.829 10.6547 480.829 10.244C480.829 9.73067 480.96 9.30133 481.221 8.956C481.483 8.60133 481.837 8.33067 482.285 8.144C482.733 7.95733 483.242 7.864 483.811 7.864ZM481.711 15.466C481.711 15.9513 481.884 16.3573 482.229 16.684C482.575 17.0013 483.107 17.16 483.825 17.16C484.283 17.16 484.665 17.0853 484.973 16.936C485.281 16.7867 485.515 16.5813 485.673 16.32C485.841 16.0587 485.925 15.76 485.925 15.424C485.925 15.0973 485.837 14.8127 485.659 14.57C485.491 14.318 485.249 14.094 484.931 13.898C484.623 13.702 484.255 13.5247 483.825 13.366L483.601 13.282C483.191 13.4593 482.845 13.6507 482.565 13.856C482.285 14.0613 482.071 14.2947 481.921 14.556C481.781 14.8173 481.711 15.1207 481.711 15.466ZM483.797 8.858C483.284 8.858 482.859 8.984 482.523 9.236C482.197 9.47867 482.033 9.83333 482.033 10.3C482.033 10.6453 482.113 10.9347 482.271 11.168C482.439 11.4013 482.663 11.602 482.943 11.77C483.223 11.9287 483.531 12.0827 483.867 12.232C484.194 12.092 484.483 11.938 484.735 11.77C484.997 11.602 485.202 11.4013 485.351 11.168C485.51 10.9253 485.589 10.636 485.589 10.3C485.589 9.83333 485.426 9.47867 485.099 9.236C484.773 8.984 484.339 8.858 483.797 8.858Z" fill="white"/>
</svg>
