<svg width="600" height="25" viewBox="0 0 600 25" fill="none" xmlns="http://www.w3.org/2000/svg">
<rect width="600" height="25" fill="#555555"/>
<rect x="240" width="360" height="25" fill="#F1B90A"/>
<path d="M20.13 8.004C20.9607 8.004 21.656 8.08333 22.216 8.242C22.7853 8.40067 23.21 8.662 23.49 9.026C23.7793 9.39 23.924 9.87533 23.924 10.482C23.924 10.874 23.8493 11.224 23.7 11.532C23.56 11.8307 23.3453 12.0827 23.056 12.288C22.776 12.484 22.4307 12.6193 22.02 12.694V12.764C22.44 12.8293 22.818 12.9507 23.154 13.128C23.4993 13.3053 23.77 13.5573 23.966 13.884C24.162 14.2107 24.26 14.6353 24.26 15.158C24.26 15.7647 24.12 16.2827 23.84 16.712C23.56 17.132 23.1587 17.454 22.636 17.678C22.1227 17.8927 21.5067 18 20.788 18H17.274V8.004H20.13ZM20.382 12.26C21.2407 12.26 21.8287 12.1247 22.146 11.854C22.4633 11.574 22.622 11.1633 22.622 10.622C22.622 10.0713 22.426 9.67933 22.034 9.446C21.6513 9.20333 21.0353 9.082 20.186 9.082H18.534V12.26H20.382ZM18.534 13.31V16.936H20.55C21.4367 16.936 22.0527 16.7633 22.398 16.418C22.7433 16.0727 22.916 15.62 22.916 15.06C22.916 14.7053 22.8367 14.3973 22.678 14.136C22.5287 13.8747 22.272 13.674 21.908 13.534C21.5533 13.3847 21.068 13.31 20.452 13.31H18.534ZM27.4435 10.496V18H26.2115V10.496H27.4435ZM26.8415 7.682C27.0282 7.682 27.1915 7.74733 27.3315 7.878C27.4808 7.99933 27.5555 8.19533 27.5555 8.466C27.5555 8.72733 27.4808 8.92333 27.3315 9.054C27.1915 9.18467 27.0282 9.25 26.8415 9.25C26.6362 9.25 26.4635 9.18467 26.3235 9.054C26.1835 8.92333 26.1135 8.72733 26.1135 8.466C26.1135 8.19533 26.1835 7.99933 26.3235 7.878C26.4635 7.74733 26.6362 7.682 26.8415 7.682ZM33.4329 10.356C34.3289 10.356 35.0055 10.5753 35.4629 11.014C35.9202 11.4433 36.1489 12.1433 36.1489 13.114V18H34.9309V13.198C34.9309 12.5913 34.7955 12.1387 34.5249 11.84C34.2542 11.5413 33.8295 11.392 33.2509 11.392C32.4202 11.392 31.8462 11.6253 31.5289 12.092C31.2115 12.5587 31.0529 13.2307 31.0529 14.108V18H29.8209V10.496H30.8149L30.9969 11.518H31.0669C31.2349 11.2567 31.4402 11.042 31.6829 10.874C31.9349 10.6967 32.2102 10.566 32.5089 10.482C32.8075 10.398 33.1155 10.356 33.4329 10.356ZM41.3172 10.37C42.2318 10.37 42.9085 10.5707 43.3472 10.972C43.7858 11.3733 44.0052 12.0127 44.0052 12.89V18H43.1092L42.8712 16.936H42.8152C42.6005 17.2067 42.3765 17.4353 42.1432 17.622C41.9192 17.7993 41.6578 17.93 41.3592 18.014C41.0698 18.098 40.7152 18.14 40.2952 18.14C39.8472 18.14 39.4412 18.0607 39.0772 17.902C38.7225 17.7433 38.4425 17.5007 38.2372 17.174C38.0318 16.838 37.9292 16.418 37.9292 15.914C37.9292 15.1673 38.2232 14.5933 38.8112 14.192C39.3992 13.7813 40.3045 13.5573 41.5272 13.52L42.8012 13.478V13.03C42.8012 12.4047 42.6658 11.9707 42.3952 11.728C42.1245 11.4853 41.7418 11.364 41.2472 11.364C40.8552 11.364 40.4818 11.4247 40.1272 11.546C39.7725 11.658 39.4412 11.7887 39.1332 11.938L38.7552 11.014C39.0818 10.8367 39.4692 10.6873 39.9172 10.566C40.3652 10.4353 40.8318 10.37 41.3172 10.37ZM41.6812 14.374C40.7478 14.4113 40.0992 14.5607 39.7352 14.822C39.3805 15.0833 39.2032 15.452 39.2032 15.928C39.2032 16.348 39.3292 16.656 39.5812 16.852C39.8425 17.048 40.1738 17.146 40.5752 17.146C41.2098 17.146 41.7372 16.9733 42.1572 16.628C42.5772 16.2733 42.7872 15.732 42.7872 15.004V14.332L41.6812 14.374ZM49.9348 10.356C50.8308 10.356 51.5075 10.5753 51.9648 11.014C52.4221 11.4433 52.6508 12.1433 52.6508 13.114V18H51.4328V13.198C51.4328 12.5913 51.2975 12.1387 51.0268 11.84C50.7561 11.5413 50.3315 11.392 49.7528 11.392C48.9221 11.392 48.3481 11.6253 48.0308 12.092C47.7135 12.5587 47.5548 13.2307 47.5548 14.108V18H46.3228V10.496H47.3168L47.4988 11.518H47.5688C47.7368 11.2567 47.9421 11.042 48.1848 10.874C48.4368 10.6967 48.7121 10.566 49.0108 10.482C49.3095 10.398 49.6175 10.356 49.9348 10.356ZM57.9871 18.14C57.3244 18.14 56.7318 18.0047 56.2091 17.734C55.6958 17.4633 55.2898 17.0433 54.9911 16.474C54.7018 15.9047 54.5571 15.1767 54.5571 14.29C54.5571 13.366 54.7111 12.6147 55.0191 12.036C55.3271 11.4573 55.7424 11.0327 56.2651 10.762C56.7971 10.4913 57.3991 10.356 58.0711 10.356C58.4538 10.356 58.8224 10.398 59.1771 10.482C59.5318 10.5567 59.8211 10.65 60.0451 10.762L59.6671 11.784C59.4431 11.7 59.1818 11.6207 58.8831 11.546C58.5844 11.4713 58.3044 11.434 58.0431 11.434C57.5391 11.434 57.1238 11.5413 56.7971 11.756C56.4704 11.9707 56.2278 12.288 56.0691 12.708C55.9104 13.128 55.8311 13.6507 55.8311 14.276C55.8311 14.8733 55.9104 15.382 56.0691 15.802C56.2278 16.222 56.4658 16.5393 56.7831 16.754C57.1004 16.9687 57.4971 17.076 57.9731 17.076C58.3838 17.076 58.7431 17.034 59.0511 16.95C59.3684 16.866 59.6578 16.7633 59.9191 16.642V17.734C59.6671 17.8647 59.3871 17.9627 59.0791 18.028C58.7804 18.1027 58.4164 18.14 57.9871 18.14ZM64.6017 10.356C65.2457 10.356 65.7963 10.496 66.2537 10.776C66.7203 11.056 67.075 11.4527 67.3177 11.966C67.5697 12.47 67.6957 13.0627 67.6957 13.744V14.486H62.5577C62.5763 15.3353 62.791 15.984 63.2017 16.432C63.6217 16.8707 64.205 17.09 64.9517 17.09C65.4277 17.09 65.8477 17.048 66.2117 16.964C66.585 16.8707 66.9677 16.74 67.3597 16.572V17.65C66.977 17.818 66.599 17.9393 66.2257 18.014C65.8523 18.098 65.409 18.14 64.8957 18.14C64.1863 18.14 63.5563 17.9953 63.0057 17.706C62.4643 17.4167 62.0397 16.9873 61.7317 16.418C61.433 15.8393 61.2837 15.1347 61.2837 14.304C61.2837 13.4827 61.419 12.778 61.6897 12.19C61.9697 11.602 62.357 11.1493 62.8517 10.832C63.3557 10.5147 63.939 10.356 64.6017 10.356ZM64.5877 11.364C63.9997 11.364 63.533 11.5553 63.1877 11.938C62.8517 12.3113 62.651 12.834 62.5857 13.506H66.4077C66.4077 13.0767 66.3423 12.7033 66.2117 12.386C66.081 12.0687 65.8803 11.8213 65.6097 11.644C65.3483 11.4573 65.0077 11.364 64.5877 11.364ZM77.6947 8.97C77.1627 8.97 76.6821 9.06333 76.2527 9.25C75.8234 9.42733 75.4594 9.69333 75.1607 10.048C74.8621 10.3933 74.6334 10.818 74.4747 11.322C74.3161 11.8167 74.2367 12.3767 74.2367 13.002C74.2367 13.8233 74.3627 14.5373 74.6147 15.144C74.8761 15.7507 75.2587 16.2173 75.7627 16.544C76.2761 16.8707 76.9154 17.034 77.6807 17.034C78.1194 17.034 78.5347 16.9967 78.9267 16.922C79.3187 16.8473 79.7014 16.754 80.0747 16.642V17.734C79.7014 17.874 79.3141 17.9767 78.9127 18.042C78.5207 18.1073 78.0494 18.14 77.4987 18.14C76.4814 18.14 75.6321 17.93 74.9507 17.51C74.2694 17.09 73.7561 16.4927 73.4107 15.718C73.0747 14.9433 72.9067 14.0333 72.9067 12.988C72.9067 12.232 73.0094 11.5413 73.2147 10.916C73.4294 10.2907 73.7374 9.74933 74.1387 9.292C74.5494 8.83467 75.0534 8.48467 75.6507 8.242C76.2481 7.99 76.9341 7.864 77.7087 7.864C78.2221 7.864 78.7167 7.91533 79.1927 8.018C79.6687 8.12067 80.0934 8.26533 80.4667 8.452L79.9627 9.516C79.6547 9.376 79.3094 9.25 78.9267 9.138C78.5534 9.026 78.1427 8.97 77.6947 8.97ZM88.6124 14.234C88.6124 14.8593 88.5284 15.4147 88.3604 15.9C88.2018 16.376 87.9684 16.782 87.6604 17.118C87.3618 17.454 86.9931 17.7107 86.5544 17.888C86.1251 18.056 85.6444 18.14 85.1124 18.14C84.6178 18.14 84.1604 18.056 83.7404 17.888C83.3204 17.7107 82.9564 17.454 82.6484 17.118C82.3404 16.782 82.0978 16.376 81.9204 15.9C81.7524 15.4147 81.6684 14.8593 81.6684 14.234C81.6684 13.4033 81.8084 12.7033 82.0884 12.134C82.3684 11.5553 82.7698 11.1167 83.2924 10.818C83.8151 10.51 84.4358 10.356 85.1544 10.356C85.8358 10.356 86.4331 10.51 86.9464 10.818C87.4691 11.1167 87.8751 11.5553 88.1644 12.134C88.4631 12.7033 88.6124 13.4033 88.6124 14.234ZM82.9424 14.234C82.9424 14.822 83.0171 15.3353 83.1664 15.774C83.3251 16.2033 83.5678 16.5347 83.8944 16.768C84.2211 17.0013 84.6364 17.118 85.1404 17.118C85.6444 17.118 86.0598 17.0013 86.3864 16.768C86.7131 16.5347 86.9511 16.2033 87.1004 15.774C87.2591 15.3353 87.3384 14.822 87.3384 14.234C87.3384 13.6367 87.2591 13.128 87.1004 12.708C86.9418 12.288 86.6991 11.966 86.3724 11.742C86.0551 11.5087 85.6398 11.392 85.1264 11.392C84.3611 11.392 83.8058 11.644 83.4604 12.148C83.1151 12.652 82.9424 13.3473 82.9424 14.234ZM91.797 10.496V18H90.565V10.496H91.797ZM91.195 7.682C91.3817 7.682 91.545 7.74733 91.685 7.878C91.8343 7.99933 91.909 8.19533 91.909 8.466C91.909 8.72733 91.8343 8.92333 91.685 9.054C91.545 9.18467 91.3817 9.25 91.195 9.25C90.9897 9.25 90.817 9.18467 90.677 9.054C90.537 8.92333 90.467 8.72733 90.467 8.466C90.467 8.19533 90.537 7.99933 90.677 7.878C90.817 7.74733 90.9897 7.682 91.195 7.682ZM97.7864 10.356C98.6824 10.356 99.359 10.5753 99.8164 11.014C100.274 11.4433 100.502 12.1433 100.502 13.114V18H99.2844V13.198C99.2844 12.5913 99.149 12.1387 98.8784 11.84C98.6077 11.5413 98.183 11.392 97.6044 11.392C96.7737 11.392 96.1997 11.6253 95.8824 12.092C95.565 12.5587 95.4064 13.2307 95.4064 14.108V18H94.1744V10.496H95.1684L95.3504 11.518H95.4204C95.5884 11.2567 95.7937 11.042 96.0364 10.874C96.2884 10.6967 96.5637 10.566 96.8624 10.482C97.161 10.398 97.469 10.356 97.7864 10.356ZM109.489 8.004C110.32 8.004 111.015 8.08333 111.575 8.242C112.145 8.40067 112.569 8.662 112.849 9.026C113.139 9.39 113.283 9.87533 113.283 10.482C113.283 10.874 113.209 11.224 113.059 11.532C112.919 11.8307 112.705 12.0827 112.415 12.288C112.135 12.484 111.79 12.6193 111.379 12.694V12.764C111.799 12.8293 112.177 12.9507 112.513 13.128C112.859 13.3053 113.129 13.5573 113.325 13.884C113.521 14.2107 113.619 14.6353 113.619 15.158C113.619 15.7647 113.479 16.2827 113.199 16.712C112.919 17.132 112.518 17.454 111.995 17.678C111.482 17.8927 110.866 18 110.147 18H106.633V8.004H109.489ZM109.741 12.26C110.6 12.26 111.188 12.1247 111.505 11.854C111.823 11.574 111.981 11.1633 111.981 10.622C111.981 10.0713 111.785 9.67933 111.393 9.446C111.011 9.20333 110.395 9.082 109.545 9.082H107.893V12.26H109.741ZM107.893 13.31V16.936H109.909C110.796 16.936 111.412 16.7633 111.757 16.418C112.103 16.0727 112.275 15.62 112.275 15.06C112.275 14.7053 112.196 14.3973 112.037 14.136C111.888 13.8747 111.631 13.674 111.267 13.534C110.913 13.3847 110.427 13.31 109.811 13.31H107.893ZM123.663 18H122.193L116.845 9.698H116.789C116.798 9.866 116.808 10.0527 116.817 10.258C116.836 10.4633 116.85 10.6873 116.859 10.93C116.868 11.1633 116.878 11.406 116.887 11.658C116.896 11.91 116.901 12.162 116.901 12.414V18H115.739V8.004H117.195L122.529 16.278H122.585C122.576 16.166 122.566 16.012 122.557 15.816C122.548 15.6107 122.538 15.3867 122.529 15.144C122.52 14.892 122.51 14.6353 122.501 14.374C122.492 14.1127 122.487 13.87 122.487 13.646V8.004H123.663V18ZM129.232 8.004C130.062 8.004 130.758 8.08333 131.318 8.242C131.887 8.40067 132.312 8.662 132.592 9.026C132.881 9.39 133.026 9.87533 133.026 10.482C133.026 10.874 132.951 11.224 132.802 11.532C132.662 11.8307 132.447 12.0827 132.158 12.288C131.878 12.484 131.532 12.6193 131.122 12.694V12.764C131.542 12.8293 131.92 12.9507 132.256 13.128C132.601 13.3053 132.872 13.5573 133.068 13.884C133.264 14.2107 133.362 14.6353 133.362 15.158C133.362 15.7647 133.222 16.2827 132.942 16.712C132.662 17.132 132.26 17.454 131.738 17.678C131.224 17.8927 130.608 18 129.89 18H126.376V8.004H129.232ZM129.484 12.26C130.342 12.26 130.93 12.1247 131.248 11.854C131.565 11.574 131.724 11.1633 131.724 10.622C131.724 10.0713 131.528 9.67933 131.136 9.446C130.753 9.20333 130.137 9.082 129.288 9.082H127.636V12.26H129.484ZM127.636 13.31V16.936H129.652C130.538 16.936 131.154 16.7633 131.5 16.418C131.845 16.0727 132.018 15.62 132.018 15.06C132.018 14.7053 131.938 14.3973 131.78 14.136C131.63 13.8747 131.374 13.674 131.01 13.534C130.655 13.3847 130.17 13.31 129.554 13.31H127.636ZM138.32 14.164C138.32 13.3987 138.39 12.652 138.53 11.924C138.679 11.196 138.908 10.5007 139.216 9.838C139.524 9.17533 139.911 8.564 140.378 8.004H141.54C141.11 8.58267 140.746 9.208 140.448 9.88C140.158 10.552 139.939 11.2473 139.79 11.966C139.64 12.6847 139.566 13.4127 139.566 14.15C139.566 14.8687 139.64 15.5827 139.79 16.292C139.939 17.0013 140.158 17.6827 140.448 18.336C140.737 18.9987 141.096 19.624 141.526 20.212H140.378C139.911 19.6613 139.524 19.0593 139.216 18.406C138.908 17.762 138.679 17.0807 138.53 16.362C138.39 15.6433 138.32 14.9107 138.32 14.164ZM149.808 8.004C150.638 8.004 151.334 8.08333 151.894 8.242C152.463 8.40067 152.888 8.662 153.168 9.026C153.457 9.39 153.602 9.87533 153.602 10.482C153.602 10.874 153.527 11.224 153.378 11.532C153.238 11.8307 153.023 12.0827 152.734 12.288C152.454 12.484 152.108 12.6193 151.698 12.694V12.764C152.118 12.8293 152.496 12.9507 152.832 13.128C153.177 13.3053 153.448 13.5573 153.644 13.884C153.84 14.2107 153.938 14.6353 153.938 15.158C153.938 15.7647 153.798 16.2827 153.518 16.712C153.238 17.132 152.836 17.454 152.314 17.678C151.8 17.8927 151.184 18 150.466 18H146.952V8.004H149.808ZM150.06 12.26C150.918 12.26 151.506 12.1247 151.824 11.854C152.141 11.574 152.3 11.1633 152.3 10.622C152.3 10.0713 152.104 9.67933 151.712 9.446C151.329 9.20333 150.713 9.082 149.864 9.082H148.212V12.26H150.06ZM148.212 13.31V16.936H150.228C151.114 16.936 151.73 16.7633 152.076 16.418C152.421 16.0727 152.594 15.62 152.594 15.06C152.594 14.7053 152.514 14.3973 152.356 14.136C152.206 13.8747 151.95 13.674 151.586 13.534C151.231 13.3847 150.746 13.31 150.13 13.31H148.212ZM161.727 15.326C161.727 15.9233 161.583 16.432 161.293 16.852C161.004 17.2627 160.589 17.58 160.047 17.804C159.515 18.028 158.885 18.14 158.157 18.14C157.784 18.14 157.425 18.1213 157.079 18.084C156.743 18.0467 156.435 17.9953 156.155 17.93C155.875 17.8553 155.628 17.7667 155.413 17.664V16.46C155.749 16.6093 156.165 16.7447 156.659 16.866C157.163 16.9873 157.681 17.048 158.213 17.048C158.708 17.048 159.123 16.9827 159.459 16.852C159.795 16.7213 160.047 16.5347 160.215 16.292C160.383 16.0493 160.467 15.7647 160.467 15.438C160.467 15.1113 160.397 14.836 160.257 14.612C160.117 14.388 159.875 14.1827 159.529 13.996C159.193 13.8 158.722 13.5947 158.115 13.38C157.686 13.2213 157.308 13.0533 156.981 12.876C156.664 12.6893 156.398 12.4793 156.183 12.246C155.969 12.0127 155.805 11.7467 155.693 11.448C155.591 11.1493 155.539 10.804 155.539 10.412C155.539 9.88 155.675 9.42733 155.945 9.054C156.216 8.67133 156.589 8.37733 157.065 8.172C157.551 7.96667 158.106 7.864 158.731 7.864C159.282 7.864 159.786 7.91533 160.243 8.018C160.701 8.12067 161.116 8.256 161.489 8.424L161.097 9.502C160.752 9.35267 160.374 9.22667 159.963 9.124C159.562 9.02133 159.142 8.97 158.703 8.97C158.283 8.97 157.933 9.03067 157.653 9.152C157.373 9.27333 157.163 9.446 157.023 9.67C156.883 9.88467 156.813 10.1367 156.813 10.426C156.813 10.762 156.883 11.042 157.023 11.266C157.163 11.49 157.392 11.6907 157.709 11.868C158.027 12.0453 158.456 12.2367 158.997 12.442C159.585 12.6567 160.08 12.89 160.481 13.142C160.892 13.3847 161.2 13.6787 161.405 14.024C161.62 14.3693 161.727 14.8033 161.727 15.326ZM168.025 8.97C167.493 8.97 167.012 9.06333 166.583 9.25C166.153 9.42733 165.789 9.69333 165.491 10.048C165.192 10.3933 164.963 10.818 164.805 11.322C164.646 11.8167 164.567 12.3767 164.567 13.002C164.567 13.8233 164.693 14.5373 164.945 15.144C165.206 15.7507 165.589 16.2173 166.093 16.544C166.606 16.8707 167.245 17.034 168.011 17.034C168.449 17.034 168.865 16.9967 169.257 16.922C169.649 16.8473 170.031 16.754 170.405 16.642V17.734C170.031 17.874 169.644 17.9767 169.243 18.042C168.851 18.1073 168.379 18.14 167.829 18.14C166.811 18.14 165.962 17.93 165.281 17.51C164.599 17.09 164.086 16.4927 163.741 15.718C163.405 14.9433 163.237 14.0333 163.237 12.988C163.237 12.232 163.339 11.5413 163.545 10.916C163.759 10.2907 164.067 9.74933 164.469 9.292C164.879 8.83467 165.383 8.48467 165.981 8.242C166.578 7.99 167.264 7.864 168.039 7.864C168.552 7.864 169.047 7.91533 169.523 8.018C169.999 8.12067 170.423 8.26533 170.797 8.452L170.293 9.516C169.985 9.376 169.639 9.25 169.257 9.138C168.883 9.026 168.473 8.97 168.025 8.97ZM179.079 8.004C179.91 8.004 180.605 8.08333 181.165 8.242C181.735 8.40067 182.159 8.662 182.439 9.026C182.729 9.39 182.873 9.87533 182.873 10.482C182.873 10.874 182.799 11.224 182.649 11.532C182.509 11.8307 182.295 12.0827 182.005 12.288C181.725 12.484 181.38 12.6193 180.969 12.694V12.764C181.389 12.8293 181.767 12.9507 182.103 13.128C182.449 13.3053 182.719 13.5573 182.915 13.884C183.111 14.2107 183.209 14.6353 183.209 15.158C183.209 15.7647 183.069 16.2827 182.789 16.712C182.509 17.132 182.108 17.454 181.585 17.678C181.072 17.8927 180.456 18 179.737 18H176.223V8.004H179.079ZM179.331 12.26C180.19 12.26 180.778 12.1247 181.095 11.854C181.413 11.574 181.571 11.1633 181.571 10.622C181.571 10.0713 181.375 9.67933 180.983 9.446C180.601 9.20333 179.985 9.082 179.135 9.082H177.483V12.26H179.331ZM177.483 13.31V16.936H179.499C180.386 16.936 181.002 16.7633 181.347 16.418C181.693 16.0727 181.865 15.62 181.865 15.06C181.865 14.7053 181.786 14.3973 181.627 14.136C181.478 13.8747 181.221 13.674 180.857 13.534C180.503 13.3847 180.017 13.31 179.401 13.31H177.483ZM190.915 18H185.329V8.004H190.915V9.11H186.589V12.232H190.663V13.324H186.589V16.894H190.915V18ZM195.754 8.004C197.061 8.004 198.013 8.26067 198.61 8.774C199.207 9.28733 199.506 10.0107 199.506 10.944C199.506 11.3547 199.436 11.7513 199.296 12.134C199.165 12.5073 198.946 12.8433 198.638 13.142C198.33 13.4407 197.919 13.6787 197.406 13.856C196.893 14.024 196.263 14.108 195.516 14.108H194.368V18H193.108V8.004H195.754ZM195.642 9.082H194.368V13.03H195.376C196.011 13.03 196.538 12.9647 196.958 12.834C197.378 12.694 197.691 12.4747 197.896 12.176C198.101 11.8773 198.204 11.4853 198.204 11C198.204 10.356 197.999 9.87533 197.588 9.558C197.177 9.24067 196.529 9.082 195.642 9.082ZM207.507 18H200.899V16.978L203.517 14.332C204.021 13.828 204.445 13.38 204.791 12.988C205.136 12.596 205.397 12.2133 205.575 11.84C205.752 11.4573 205.841 11.042 205.841 10.594C205.841 10.0433 205.677 9.628 205.351 9.348C205.024 9.05867 204.599 8.914 204.077 8.914C203.591 8.914 203.162 8.998 202.789 9.166C202.425 9.334 202.051 9.56733 201.669 9.866L201.011 9.04C201.272 8.816 201.557 8.61533 201.865 8.438C202.182 8.26067 202.523 8.12067 202.887 8.018C203.26 7.91533 203.657 7.864 204.077 7.864C204.702 7.864 205.239 7.97133 205.687 8.186C206.135 8.40067 206.48 8.70867 206.723 9.11C206.975 9.502 207.101 9.97333 207.101 10.524C207.101 10.916 207.04 11.2893 206.919 11.644C206.797 11.9893 206.625 12.33 206.401 12.666C206.177 13.002 205.906 13.3427 205.589 13.688C205.271 14.0333 204.921 14.3927 204.539 14.766L202.453 16.824V16.88H207.507V18ZM215.56 12.988C215.56 13.8 215.5 14.5233 215.378 15.158C215.257 15.7927 215.061 16.334 214.79 16.782C214.529 17.2207 214.184 17.5567 213.754 17.79C213.334 18.0233 212.826 18.14 212.228 18.14C211.482 18.14 210.861 17.9347 210.366 17.524C209.881 17.1133 209.517 16.5253 209.274 15.76C209.041 14.9853 208.924 14.0613 208.924 12.988C208.924 11.9053 209.032 10.9813 209.246 10.216C209.47 9.45067 209.825 8.86733 210.31 8.466C210.796 8.05533 211.435 7.85 212.228 7.85C212.975 7.85 213.596 8.05533 214.09 8.466C214.585 8.86733 214.954 9.45067 215.196 10.216C215.439 10.9813 215.56 11.9053 215.56 12.988ZM210.156 12.988C210.156 13.9027 210.222 14.6633 210.352 15.27C210.492 15.8767 210.712 16.334 211.01 16.642C211.318 16.9407 211.724 17.09 212.228 17.09C212.732 17.09 213.134 16.9407 213.432 16.642C213.74 16.3433 213.964 15.8907 214.104 15.284C214.244 14.668 214.314 13.9027 214.314 12.988C214.314 12.0733 214.244 11.3173 214.104 10.72C213.964 10.1133 213.74 9.66067 213.432 9.362C213.134 9.054 212.732 8.9 212.228 8.9C211.724 8.9 211.318 9.054 211.01 9.362C210.712 9.66067 210.492 10.1133 210.352 10.72C210.222 11.3173 210.156 12.0733 210.156 12.988ZM223.527 14.164C223.527 14.9107 223.452 15.6433 223.303 16.362C223.163 17.0807 222.939 17.762 222.631 18.406C222.332 19.0593 221.945 19.6613 221.469 20.212H220.321C220.75 19.624 221.109 18.9987 221.399 18.336C221.688 17.6827 221.907 17.0013 222.057 16.292C222.206 15.5827 222.281 14.8687 222.281 14.15C222.281 13.4127 222.206 12.6847 222.057 11.966C221.907 11.2473 221.688 10.552 221.399 9.88C221.109 9.208 220.745 8.58267 220.307 8.004H221.469C221.945 8.564 222.332 9.17533 222.631 9.838C222.939 10.5007 223.163 11.196 223.303 11.924C223.452 12.652 223.527 13.3987 223.527 14.164Z" fill="white"/>
<path d="M258.379 12.988C258.379 13.8 258.318 14.5233 258.197 15.158C258.075 15.7927 257.879 16.334 257.609 16.782C257.347 17.2207 257.002 17.5567 256.573 17.79C256.153 18.0233 255.644 18.14 255.047 18.14C254.3 18.14 253.679 17.9347 253.185 17.524C252.699 17.1133 252.335 16.5253 252.093 15.76C251.859 14.9853 251.743 14.0613 251.743 12.988C251.743 11.9053 251.85 10.9813 252.065 10.216C252.289 9.45067 252.643 8.86733 253.129 8.466C253.614 8.05533 254.253 7.85 255.047 7.85C255.793 7.85 256.414 8.05533 256.909 8.466C257.403 8.86733 257.772 9.45067 258.015 10.216C258.257 10.9813 258.379 11.9053 258.379 12.988ZM252.975 12.988C252.975 13.9027 253.04 14.6633 253.171 15.27C253.311 15.8767 253.53 16.334 253.829 16.642C254.137 16.9407 254.543 17.09 255.047 17.09C255.551 17.09 255.952 16.9407 256.251 16.642C256.559 16.3433 256.783 15.8907 256.923 15.284C257.063 14.668 257.133 13.9027 257.133 12.988C257.133 12.0733 257.063 11.3173 256.923 10.72C256.783 10.1133 256.559 9.66067 256.251 9.362C255.952 9.054 255.551 8.9 255.047 8.9C254.543 8.9 254.137 9.054 253.829 9.362C253.53 9.66067 253.311 10.1133 253.171 10.72C253.04 11.3173 252.975 12.0733 252.975 12.988ZM262.036 14.164L259.446 10.496H260.846L262.778 13.324L264.696 10.496H266.082L263.492 14.164L266.222 18H264.822L262.778 15.004L260.706 18H259.32L262.036 14.164ZM270.329 11.868C271.01 11.868 271.603 11.9847 272.107 12.218C272.611 12.4513 272.998 12.7873 273.269 13.226C273.549 13.6553 273.689 14.1827 273.689 14.808C273.689 15.4987 273.539 16.096 273.241 16.6C272.942 17.0947 272.513 17.4773 271.953 17.748C271.402 18.0093 270.735 18.14 269.951 18.14C269.437 18.14 268.952 18.0933 268.495 18C268.047 17.9067 267.669 17.7713 267.361 17.594V16.432C267.697 16.6373 268.103 16.8007 268.579 16.922C269.064 17.034 269.526 17.09 269.965 17.09C270.459 17.09 270.889 17.0153 271.253 16.866C271.626 16.7073 271.915 16.4693 272.121 16.152C272.326 15.8253 272.429 15.4193 272.429 14.934C272.429 14.2807 272.228 13.7813 271.827 13.436C271.425 13.0813 270.791 12.904 269.923 12.904C269.661 12.904 269.363 12.9273 269.027 12.974C268.691 13.0207 268.42 13.0673 268.215 13.114L267.599 12.722L267.977 8.004H272.989V9.124H269.027L268.789 12.022C268.947 11.994 269.162 11.9613 269.433 11.924C269.703 11.8867 270.002 11.868 270.329 11.868ZM281.434 18H275.848V8.004H281.434V9.11H277.108V12.232H281.182V13.324H277.108V16.894H281.434V18ZM289.214 18H283.628V8.004H289.214V9.11H284.888V12.232H288.962V13.324H284.888V16.894H289.214V18ZM297.329 18H290.721V16.978L293.339 14.332C293.843 13.828 294.267 13.38 294.613 12.988C294.958 12.596 295.219 12.2133 295.397 11.84C295.574 11.4573 295.663 11.042 295.663 10.594C295.663 10.0433 295.499 9.628 295.173 9.348C294.846 9.05867 294.421 8.914 293.899 8.914C293.413 8.914 292.984 8.998 292.611 9.166C292.247 9.334 291.873 9.56733 291.491 9.866L290.833 9.04C291.094 8.816 291.379 8.61533 291.687 8.438C292.004 8.26067 292.345 8.12067 292.709 8.018C293.082 7.91533 293.479 7.864 293.899 7.864C294.524 7.864 295.061 7.97133 295.509 8.186C295.957 8.40067 296.302 8.70867 296.545 9.11C296.797 9.502 296.923 9.97333 296.923 10.524C296.923 10.916 296.862 11.2893 296.741 11.644C296.619 11.9893 296.447 12.33 296.223 12.666C295.999 13.002 295.728 13.3427 295.411 13.688C295.093 14.0333 294.743 14.3927 294.361 14.766L292.275 16.824V16.88H297.329V18ZM304.963 10.342C304.963 10.79 304.879 11.1773 304.711 11.504C304.543 11.8307 304.3 12.0967 303.983 12.302C303.675 12.5073 303.311 12.652 302.891 12.736V12.792C303.693 12.8853 304.291 13.1373 304.683 13.548C305.075 13.9587 305.271 14.4953 305.271 15.158C305.271 15.7367 305.135 16.2547 304.865 16.712C304.594 17.16 304.174 17.51 303.605 17.762C303.045 18.014 302.321 18.14 301.435 18.14C300.912 18.14 300.427 18.098 299.979 18.014C299.531 17.9393 299.101 17.7993 298.691 17.594V16.446C299.111 16.6513 299.563 16.8147 300.049 16.936C300.534 17.048 301.001 17.104 301.449 17.104C302.345 17.104 302.989 16.9313 303.381 16.586C303.782 16.2313 303.983 15.746 303.983 15.13C303.983 14.71 303.871 14.374 303.647 14.122C303.432 13.8607 303.115 13.6693 302.695 13.548C302.275 13.4267 301.771 13.366 301.183 13.366H300.217V12.316H301.197C301.747 12.316 302.205 12.2367 302.569 12.078C302.942 11.9193 303.222 11.7 303.409 11.42C303.605 11.1307 303.703 10.7993 303.703 10.426C303.703 9.94067 303.539 9.56733 303.213 9.306C302.886 9.03533 302.443 8.9 301.883 8.9C301.528 8.9 301.206 8.93733 300.917 9.012C300.627 9.07733 300.357 9.17533 300.105 9.306C299.862 9.42733 299.615 9.572 299.363 9.74L298.747 8.9C298.989 8.71333 299.265 8.54067 299.573 8.382C299.89 8.22333 300.24 8.09733 300.623 8.004C301.005 7.91067 301.421 7.864 301.869 7.864C302.914 7.864 303.689 8.09733 304.193 8.564C304.706 9.03067 304.963 9.62333 304.963 10.342ZM309.922 11.868C310.604 11.868 311.196 11.9847 311.7 12.218C312.204 12.4513 312.592 12.7873 312.862 13.226C313.142 13.6553 313.282 14.1827 313.282 14.808C313.282 15.4987 313.133 16.096 312.834 16.6C312.536 17.0947 312.106 17.4773 311.546 17.748C310.996 18.0093 310.328 18.14 309.544 18.14C309.031 18.14 308.546 18.0933 308.088 18C307.64 17.9067 307.262 17.7713 306.954 17.594V16.432C307.29 16.6373 307.696 16.8007 308.172 16.922C308.658 17.034 309.12 17.09 309.558 17.09C310.053 17.09 310.482 17.0153 310.846 16.866C311.22 16.7073 311.509 16.4693 311.714 16.152C311.92 15.8253 312.022 15.4193 312.022 14.934C312.022 14.2807 311.822 13.7813 311.42 13.436C311.019 13.0813 310.384 12.904 309.516 12.904C309.255 12.904 308.956 12.9273 308.62 12.974C308.284 13.0207 308.014 13.0673 307.808 13.114L307.192 12.722L307.57 8.004H312.582V9.124H308.62L308.382 12.022C308.541 11.994 308.756 11.9613 309.026 11.924C309.297 11.8867 309.596 11.868 309.922 11.868ZM321.028 18H315.442V8.004H321.028V9.11H316.702V12.232H320.776V13.324H316.702V16.894H321.028V18ZM323.767 18L327.869 9.124H322.479V8.004H329.185V8.956L325.125 18H323.767ZM337.197 12.988C337.197 13.8 337.136 14.5233 337.015 15.158C336.894 15.7927 336.698 16.334 336.427 16.782C336.166 17.2207 335.82 17.5567 335.391 17.79C334.971 18.0233 334.462 18.14 333.865 18.14C333.118 18.14 332.498 17.9347 332.003 17.524C331.518 17.1133 331.154 16.5253 330.911 15.76C330.678 14.9853 330.561 14.0613 330.561 12.988C330.561 11.9053 330.668 10.9813 330.883 10.216C331.107 9.45067 331.462 8.86733 331.947 8.466C332.432 8.05533 333.072 7.85 333.865 7.85C334.612 7.85 335.232 8.05533 335.727 8.466C336.222 8.86733 336.59 9.45067 336.833 10.216C337.076 10.9813 337.197 11.9053 337.197 12.988ZM331.793 12.988C331.793 13.9027 331.858 14.6633 331.989 15.27C332.129 15.8767 332.348 16.334 332.647 16.642C332.955 16.9407 333.361 17.09 333.865 17.09C334.369 17.09 334.77 16.9407 335.069 16.642C335.377 16.3433 335.601 15.8907 335.741 15.284C335.881 14.668 335.951 13.9027 335.951 12.988C335.951 12.0733 335.881 11.3173 335.741 10.72C335.601 10.1133 335.377 9.66067 335.069 9.362C334.77 9.054 334.369 8.9 333.865 8.9C333.361 8.9 332.955 9.054 332.647 9.362C332.348 9.66067 332.129 10.1133 331.989 10.72C331.858 11.3173 331.793 12.0733 331.793 12.988ZM341.737 18.14C340.803 18.14 340.057 17.818 339.497 17.174C338.937 16.5207 338.657 15.55 338.657 14.262C338.657 12.974 338.937 12.0033 339.497 11.35C340.066 10.6873 340.817 10.356 341.751 10.356C342.143 10.356 342.483 10.4073 342.773 10.51C343.062 10.6033 343.314 10.734 343.529 10.902C343.743 11.07 343.925 11.2567 344.075 11.462H344.159C344.149 11.3407 344.131 11.1633 344.103 10.93C344.084 10.6873 344.075 10.496 344.075 10.356V7.36H345.307V18H344.313L344.131 16.992H344.075C343.925 17.2067 343.743 17.4027 343.529 17.58C343.314 17.748 343.057 17.8833 342.759 17.986C342.469 18.0887 342.129 18.14 341.737 18.14ZM341.933 17.118C342.726 17.118 343.281 16.9033 343.599 16.474C343.925 16.0353 344.089 15.3773 344.089 14.5V14.276C344.089 13.3427 343.935 12.6287 343.627 12.134C343.319 11.63 342.749 11.378 341.919 11.378C341.256 11.378 340.757 11.644 340.421 12.176C340.094 12.6987 339.931 13.4033 339.931 14.29C339.931 15.186 340.094 15.8813 340.421 16.376C340.757 16.8707 341.261 17.118 341.933 17.118ZM349.118 18H347.858V8.004H353.444V9.11H349.118V12.652H353.178V13.758H349.118V18ZM355.664 18L359.766 9.124H354.376V8.004H361.082V8.956L357.022 18H355.664ZM369.051 18H362.443V16.978L365.061 14.332C365.565 13.828 365.99 13.38 366.335 12.988C366.681 12.596 366.942 12.2133 367.119 11.84C367.297 11.4573 367.385 11.042 367.385 10.594C367.385 10.0433 367.222 9.628 366.895 9.348C366.569 9.05867 366.144 8.914 365.621 8.914C365.136 8.914 364.707 8.998 364.333 9.166C363.969 9.334 363.596 9.56733 363.213 9.866L362.555 9.04C362.817 8.816 363.101 8.61533 363.409 8.438C363.727 8.26067 364.067 8.12067 364.431 8.018C364.805 7.91533 365.201 7.864 365.621 7.864C366.247 7.864 366.783 7.97133 367.231 8.186C367.679 8.40067 368.025 8.70867 368.267 9.11C368.519 9.502 368.645 9.97333 368.645 10.524C368.645 10.916 368.585 11.2893 368.463 11.644C368.342 11.9893 368.169 12.33 367.945 12.666C367.721 13.002 367.451 13.3427 367.133 13.688C366.816 14.0333 366.466 14.3927 366.083 14.766L363.997 16.824V16.88H369.051V18ZM373.871 10.356C374.515 10.356 375.066 10.496 375.523 10.776C375.99 11.056 376.345 11.4527 376.587 11.966C376.839 12.47 376.965 13.0627 376.965 13.744V14.486H371.827C371.846 15.3353 372.061 15.984 372.471 16.432C372.891 16.8707 373.475 17.09 374.221 17.09C374.697 17.09 375.117 17.048 375.481 16.964C375.855 16.8707 376.237 16.74 376.629 16.572V17.65C376.247 17.818 375.869 17.9393 375.495 18.014C375.122 18.098 374.679 18.14 374.165 18.14C373.456 18.14 372.826 17.9953 372.275 17.706C371.734 17.4167 371.309 16.9873 371.001 16.418C370.703 15.8393 370.553 15.1347 370.553 14.304C370.553 13.4827 370.689 12.778 370.959 12.19C371.239 11.602 371.627 11.1493 372.121 10.832C372.625 10.5147 373.209 10.356 373.871 10.356ZM373.857 11.364C373.269 11.364 372.803 11.5553 372.457 11.938C372.121 12.3113 371.921 12.834 371.855 13.506H375.677C375.677 13.0767 375.612 12.7033 375.481 12.386C375.351 12.0687 375.15 11.8213 374.879 11.644C374.618 11.4573 374.277 11.364 373.857 11.364ZM387.052 12.904C387.052 14.024 386.842 14.962 386.422 15.718C386.011 16.474 385.418 17.0433 384.644 17.426C383.869 17.8087 382.931 18 381.83 18H379.044V8.004H382.124C383.132 8.004 384.004 8.19067 384.742 8.564C385.479 8.93733 386.048 9.488 386.45 10.216C386.851 10.9347 387.052 11.8307 387.052 12.904ZM385.722 12.946C385.722 12.0593 385.572 11.3313 385.274 10.762C384.984 10.1927 384.555 9.77267 383.986 9.502C383.426 9.222 382.744 9.082 381.942 9.082H380.304V16.922H381.662C383.015 16.922 384.028 16.5907 384.7 15.928C385.381 15.256 385.722 14.262 385.722 12.946ZM395.64 15.732H394.184V18H392.994V15.732H388.206V14.682L392.91 7.948H394.184V14.626H395.64V15.732ZM392.994 11.476C392.994 11.2333 392.994 11.014 392.994 10.818C393.003 10.6127 393.013 10.4213 393.022 10.244C393.031 10.0667 393.036 9.89867 393.036 9.74C393.045 9.572 393.055 9.41333 393.064 9.264H393.008C392.933 9.44133 392.84 9.63267 392.728 9.838C392.616 10.0433 392.509 10.216 392.406 10.356L389.41 14.626H392.994V11.476ZM400.572 11.448H398.682V18H397.45V11.448H396.134V10.874L397.45 10.454V10.02C397.45 9.376 397.543 8.85333 397.73 8.452C397.926 8.05067 398.206 7.75667 398.57 7.57C398.934 7.38333 399.372 7.29 399.886 7.29C400.184 7.29 400.455 7.318 400.698 7.374C400.95 7.42067 401.164 7.47667 401.342 7.542L401.02 8.508C400.87 8.46133 400.698 8.41467 400.502 8.368C400.306 8.32133 400.105 8.298 399.9 8.298C399.489 8.298 399.181 8.438 398.976 8.718C398.78 8.98867 398.682 9.418 398.682 10.006V10.496H400.572V11.448ZM408.058 12.988C408.058 13.8 407.998 14.5233 407.876 15.158C407.755 15.7927 407.559 16.334 407.288 16.782C407.027 17.2207 406.682 17.5567 406.252 17.79C405.832 18.0233 405.324 18.14 404.726 18.14C403.98 18.14 403.359 17.9347 402.864 17.524C402.379 17.1133 402.015 16.5253 401.772 15.76C401.539 14.9853 401.422 14.0613 401.422 12.988C401.422 11.9053 401.53 10.9813 401.744 10.216C401.968 9.45067 402.323 8.86733 402.808 8.466C403.294 8.05533 403.933 7.85 404.726 7.85C405.473 7.85 406.094 8.05533 406.588 8.466C407.083 8.86733 407.452 9.45067 407.694 10.216C407.937 10.9813 408.058 11.9053 408.058 12.988ZM402.654 12.988C402.654 13.9027 402.72 14.6633 402.85 15.27C402.99 15.8767 403.21 16.334 403.508 16.642C403.816 16.9407 404.222 17.09 404.726 17.09C405.23 17.09 405.632 16.9407 405.93 16.642C406.238 16.3433 406.462 15.8907 406.602 15.284C406.742 14.668 406.812 13.9027 406.812 12.988C406.812 12.0733 406.742 11.3173 406.602 10.72C406.462 10.1133 406.238 9.66067 405.93 9.362C405.632 9.054 405.23 8.9 404.726 8.9C404.222 8.9 403.816 9.054 403.508 9.362C403.21 9.66067 402.99 10.1133 402.85 10.72C402.72 11.3173 402.654 12.0733 402.654 12.988ZM415.65 10.342C415.65 10.79 415.566 11.1773 415.398 11.504C415.23 11.8307 414.987 12.0967 414.67 12.302C414.362 12.5073 413.998 12.652 413.578 12.736V12.792C414.381 12.8853 414.978 13.1373 415.37 13.548C415.762 13.9587 415.958 14.4953 415.958 15.158C415.958 15.7367 415.823 16.2547 415.552 16.712C415.281 17.16 414.861 17.51 414.292 17.762C413.732 18.014 413.009 18.14 412.122 18.14C411.599 18.14 411.114 18.098 410.666 18.014C410.218 17.9393 409.789 17.7993 409.378 17.594V16.446C409.798 16.6513 410.251 16.8147 410.736 16.936C411.221 17.048 411.688 17.104 412.136 17.104C413.032 17.104 413.676 16.9313 414.068 16.586C414.469 16.2313 414.67 15.746 414.67 15.13C414.67 14.71 414.558 14.374 414.334 14.122C414.119 13.8607 413.802 13.6693 413.382 13.548C412.962 13.4267 412.458 13.366 411.87 13.366H410.904V12.316H411.884C412.435 12.316 412.892 12.2367 413.256 12.078C413.629 11.9193 413.909 11.7 414.096 11.42C414.292 11.1307 414.39 10.7993 414.39 10.426C414.39 9.94067 414.227 9.56733 413.9 9.306C413.573 9.03533 413.13 8.9 412.57 8.9C412.215 8.9 411.893 8.93733 411.604 9.012C411.315 9.07733 411.044 9.17533 410.792 9.306C410.549 9.42733 410.302 9.572 410.05 9.74L409.434 8.9C409.677 8.71333 409.952 8.54067 410.26 8.382C410.577 8.22333 410.927 8.09733 411.31 8.004C411.693 7.91067 412.108 7.864 412.556 7.864C413.601 7.864 414.376 8.09733 414.88 8.564C415.393 9.03067 415.65 9.62333 415.65 10.342ZM420.75 7.864C421.338 7.864 421.856 7.95733 422.304 8.144C422.752 8.32133 423.102 8.58733 423.354 8.942C423.615 9.29667 423.746 9.73533 423.746 10.258C423.746 10.6593 423.657 11.0093 423.48 11.308C423.312 11.6067 423.083 11.8727 422.794 12.106C422.504 12.33 422.187 12.5307 421.842 12.708C422.252 12.904 422.626 13.128 422.962 13.38C423.298 13.6227 423.564 13.9073 423.76 14.234C423.965 14.5607 424.068 14.9527 424.068 15.41C424.068 15.97 423.932 16.4553 423.662 16.866C423.391 17.2673 423.008 17.58 422.514 17.804C422.028 18.028 421.454 18.14 420.792 18.14C420.073 18.14 419.462 18.0327 418.958 17.818C418.463 17.6033 418.085 17.3 417.824 16.908C417.572 16.5067 417.446 16.0213 417.446 15.452C417.446 14.9947 417.539 14.598 417.726 14.262C417.922 13.926 418.178 13.6367 418.496 13.394C418.813 13.1513 419.154 12.946 419.518 12.778C419.191 12.5913 418.892 12.3813 418.622 12.148C418.36 11.9053 418.15 11.63 417.992 11.322C417.842 11.014 417.768 10.6547 417.768 10.244C417.768 9.73067 417.898 9.30133 418.16 8.956C418.421 8.60133 418.776 8.33067 419.224 8.144C419.672 7.95733 420.18 7.864 420.75 7.864ZM418.65 15.466C418.65 15.9513 418.822 16.3573 419.168 16.684C419.513 17.0013 420.045 17.16 420.764 17.16C421.221 17.16 421.604 17.0853 421.912 16.936C422.22 16.7867 422.453 16.5813 422.612 16.32C422.78 16.0587 422.864 15.76 422.864 15.424C422.864 15.0973 422.775 14.8127 422.598 14.57C422.43 14.318 422.187 14.094 421.87 13.898C421.562 13.702 421.193 13.5247 420.764 13.366L420.54 13.282C420.129 13.4593 419.784 13.6507 419.504 13.856C419.224 14.0613 419.009 14.2947 418.86 14.556C418.72 14.8173 418.65 15.1207 418.65 15.466ZM420.736 8.858C420.222 8.858 419.798 8.984 419.462 9.236C419.135 9.47867 418.972 9.83333 418.972 10.3C418.972 10.6453 419.051 10.9347 419.21 11.168C419.378 11.4013 419.602 11.602 419.882 11.77C420.162 11.9287 420.47 12.0827 420.806 12.232C421.132 12.092 421.422 11.938 421.674 11.77C421.935 11.602 422.14 11.4013 422.29 11.168C422.448 10.9253 422.528 10.636 422.528 10.3C422.528 9.83333 422.364 9.47867 422.038 9.236C421.711 8.984 421.277 8.858 420.736 8.858ZM431.715 18H426.129V8.004H431.715V9.11H427.389V12.232H431.463V13.324H427.389V16.894H431.715V18ZM439.831 12.274C439.831 12.8433 439.789 13.4127 439.705 13.982C439.63 14.542 439.495 15.074 439.299 15.578C439.103 16.0727 438.832 16.516 438.487 16.908C438.141 17.2907 437.703 17.594 437.171 17.818C436.639 18.0327 435.995 18.14 435.239 18.14C435.052 18.14 434.833 18.126 434.581 18.098C434.338 18.0793 434.137 18.0467 433.979 18V16.95C434.147 17.006 434.343 17.0527 434.567 17.09C434.791 17.118 435.005 17.132 435.211 17.132C435.864 17.132 436.401 17.0247 436.821 16.81C437.25 16.5953 437.591 16.306 437.843 15.942C438.095 15.5687 438.277 15.1393 438.389 14.654C438.501 14.1593 438.566 13.6413 438.585 13.1H438.501C438.361 13.3147 438.183 13.5107 437.969 13.688C437.754 13.8653 437.493 14.0053 437.185 14.108C436.886 14.2107 436.531 14.262 436.121 14.262C435.551 14.262 435.047 14.1453 434.609 13.912C434.179 13.6693 433.843 13.324 433.601 12.876C433.367 12.428 433.251 11.882 433.251 11.238C433.251 10.538 433.381 9.936 433.643 9.432C433.913 8.928 434.287 8.54067 434.763 8.27C435.239 7.99933 435.799 7.864 436.443 7.864C436.919 7.864 437.362 7.95733 437.773 8.144C438.183 8.32133 438.543 8.592 438.851 8.956C439.159 9.32 439.397 9.77733 439.565 10.328C439.742 10.8787 439.831 11.5273 439.831 12.274ZM436.443 8.9C435.864 8.9 435.388 9.09133 435.015 9.474C434.651 9.85667 434.469 10.44 434.469 11.224C434.469 11.868 434.623 12.3767 434.931 12.75C435.248 13.114 435.733 13.296 436.387 13.296C436.835 13.296 437.222 13.2073 437.549 13.03C437.875 12.8433 438.127 12.61 438.305 12.33C438.491 12.05 438.585 11.7607 438.585 11.462C438.585 11.1633 438.538 10.8647 438.445 10.566C438.361 10.258 438.23 9.978 438.053 9.726C437.875 9.474 437.651 9.27333 437.381 9.124C437.11 8.97467 436.797 8.9 436.443 8.9ZM448.193 18L446.989 14.906H443.027L441.837 18H440.562L444.469 7.962H445.603L449.495 18H448.193ZM445.491 10.762C445.463 10.6873 445.416 10.552 445.351 10.356C445.285 10.16 445.22 9.95933 445.155 9.754C445.099 9.53933 445.052 9.376 445.015 9.264C444.968 9.45067 444.917 9.642 444.861 9.838C444.814 10.0247 444.763 10.1973 444.707 10.356C444.66 10.5147 444.618 10.65 444.581 10.762L443.447 13.786H446.611L445.491 10.762ZM451.926 9.95C451.926 10.2673 451.917 10.566 451.898 10.846C451.889 11.1167 451.875 11.3313 451.856 11.49H451.926C452.141 11.1727 452.435 10.9067 452.808 10.692C453.181 10.4773 453.662 10.37 454.25 10.37C455.183 10.37 455.93 10.6967 456.49 11.35C457.059 11.994 457.344 12.96 457.344 14.248C457.344 15.1067 457.213 15.8253 456.952 16.404C456.7 16.9827 456.341 17.4167 455.874 17.706C455.407 17.9953 454.866 18.14 454.25 18.14C453.662 18.14 453.181 18.0327 452.808 17.818C452.435 17.6033 452.141 17.3467 451.926 17.048H451.828L451.576 18H450.694V7.36H451.926V9.95ZM454.04 11.392C453.508 11.392 453.088 11.4947 452.78 11.7C452.472 11.896 452.253 12.204 452.122 12.624C451.991 13.0347 451.926 13.562 451.926 14.206V14.262C451.926 15.186 452.075 15.8953 452.374 16.39C452.682 16.8753 453.247 17.118 454.068 17.118C454.74 17.118 455.239 16.8707 455.566 16.376C455.902 15.8813 456.07 15.1673 456.07 14.234C456.07 13.2913 455.902 12.582 455.566 12.106C455.239 11.63 454.731 11.392 454.04 11.392ZM465.397 18H458.789V16.978L461.407 14.332C461.911 13.828 462.336 13.38 462.681 12.988C463.027 12.596 463.288 12.2133 463.465 11.84C463.643 11.4573 463.731 11.042 463.731 10.594C463.731 10.0433 463.568 9.628 463.241 9.348C462.915 9.05867 462.49 8.914 461.967 8.914C461.482 8.914 461.053 8.998 460.679 9.166C460.315 9.334 459.942 9.56733 459.559 9.866L458.901 9.04C459.163 8.816 459.447 8.61533 459.755 8.438C460.073 8.26067 460.413 8.12067 460.777 8.018C461.151 7.91533 461.547 7.864 461.967 7.864C462.593 7.864 463.129 7.97133 463.577 8.186C464.025 8.40067 464.371 8.70867 464.613 9.11C464.865 9.502 464.991 9.97333 464.991 10.524C464.991 10.916 464.931 11.2893 464.809 11.644C464.688 11.9893 464.515 12.33 464.291 12.666C464.067 13.002 463.797 13.3427 463.479 13.688C463.162 14.0333 462.812 14.3927 462.429 14.766L460.343 16.824V16.88H465.397V18ZM473.409 12.274C473.409 12.8433 473.367 13.4127 473.283 13.982C473.208 14.542 473.073 15.074 472.877 15.578C472.681 16.0727 472.41 16.516 472.065 16.908C471.72 17.2907 471.281 17.594 470.749 17.818C470.217 18.0327 469.573 18.14 468.817 18.14C468.63 18.14 468.411 18.126 468.159 18.098C467.916 18.0793 467.716 18.0467 467.557 18V16.95C467.725 17.006 467.921 17.0527 468.145 17.09C468.369 17.118 468.584 17.132 468.789 17.132C469.442 17.132 469.979 17.0247 470.399 16.81C470.828 16.5953 471.169 16.306 471.421 15.942C471.673 15.5687 471.855 15.1393 471.967 14.654C472.079 14.1593 472.144 13.6413 472.163 13.1H472.079C471.939 13.3147 471.762 13.5107 471.547 13.688C471.332 13.8653 471.071 14.0053 470.763 14.108C470.464 14.2107 470.11 14.262 469.699 14.262C469.13 14.262 468.626 14.1453 468.187 13.912C467.758 13.6693 467.422 13.324 467.179 12.876C466.946 12.428 466.829 11.882 466.829 11.238C466.829 10.538 466.96 9.936 467.221 9.432C467.492 8.928 467.865 8.54067 468.341 8.27C468.817 7.99933 469.377 7.864 470.021 7.864C470.497 7.864 470.94 7.95733 471.351 8.144C471.762 8.32133 472.121 8.592 472.429 8.956C472.737 9.32 472.975 9.77733 473.143 10.328C473.32 10.8787 473.409 11.5273 473.409 12.274ZM470.021 8.9C469.442 8.9 468.966 9.09133 468.593 9.474C468.229 9.85667 468.047 10.44 468.047 11.224C468.047 11.868 468.201 12.3767 468.509 12.75C468.826 13.114 469.312 13.296 469.965 13.296C470.413 13.296 470.8 13.2073 471.127 13.03C471.454 12.8433 471.706 12.61 471.883 12.33C472.07 12.05 472.163 11.7607 472.163 11.462C472.163 11.1633 472.116 10.8647 472.023 10.566C471.939 10.258 471.808 9.978 471.631 9.726C471.454 9.474 471.23 9.27333 470.959 9.124C470.688 8.97467 470.376 8.9 470.021 8.9ZM478.131 7.864C478.719 7.864 479.237 7.95733 479.685 8.144C480.133 8.32133 480.483 8.58733 480.735 8.942C480.996 9.29667 481.127 9.73533 481.127 10.258C481.127 10.6593 481.038 11.0093 480.861 11.308C480.693 11.6067 480.464 11.8727 480.175 12.106C479.885 12.33 479.568 12.5307 479.223 12.708C479.633 12.904 480.007 13.128 480.343 13.38C480.679 13.6227 480.945 13.9073 481.141 14.234C481.346 14.5607 481.449 14.9527 481.449 15.41C481.449 15.97 481.313 16.4553 481.043 16.866C480.772 17.2673 480.389 17.58 479.895 17.804C479.409 18.028 478.835 18.14 478.173 18.14C477.454 18.14 476.843 18.0327 476.339 17.818C475.844 17.6033 475.466 17.3 475.205 16.908C474.953 16.5067 474.827 16.0213 474.827 15.452C474.827 14.9947 474.92 14.598 475.107 14.262C475.303 13.926 475.559 13.6367 475.877 13.394C476.194 13.1513 476.535 12.946 476.899 12.778C476.572 12.5913 476.273 12.3813 476.003 12.148C475.741 11.9053 475.531 11.63 475.373 11.322C475.223 11.014 475.149 10.6547 475.149 10.244C475.149 9.73067 475.279 9.30133 475.541 8.956C475.802 8.60133 476.157 8.33067 476.605 8.144C477.053 7.95733 477.561 7.864 478.131 7.864ZM476.031 15.466C476.031 15.9513 476.203 16.3573 476.549 16.684C476.894 17.0013 477.426 17.16 478.145 17.16C478.602 17.16 478.985 17.0853 479.293 16.936C479.601 16.7867 479.834 16.5813 479.993 16.32C480.161 16.0587 480.245 15.76 480.245 15.424C480.245 15.0973 480.156 14.8127 479.979 14.57C479.811 14.318 479.568 14.094 479.251 13.898C478.943 13.702 478.574 13.5247 478.145 13.366L477.921 13.282C477.51 13.4593 477.165 13.6507 476.885 13.856C476.605 14.0613 476.39 14.2947 476.241 14.556C476.101 14.8173 476.031 15.1207 476.031 15.466ZM478.117 8.858C477.603 8.858 477.179 8.984 476.843 9.236C476.516 9.47867 476.353 9.83333 476.353 10.3C476.353 10.6453 476.432 10.9347 476.591 11.168C476.759 11.4013 476.983 11.602 477.263 11.77C477.543 11.9287 477.851 12.0827 478.187 12.232C478.513 12.092 478.803 11.938 479.055 11.77C479.316 11.602 479.521 11.4013 479.671 11.168C479.829 10.9253 479.909 10.636 479.909 10.3C479.909 9.83333 479.745 9.47867 479.419 9.236C479.092 8.984 478.658 8.858 478.117 8.858ZM489.782 18L488.578 14.906H484.616L483.426 18H482.152L486.058 7.962H487.192L491.084 18H489.782ZM487.08 10.762C487.052 10.6873 487.006 10.552 486.94 10.356C486.875 10.16 486.81 9.95933 486.744 9.754C486.688 9.53933 486.642 9.376 486.604 9.264C486.558 9.45067 486.506 9.642 486.45 9.838C486.404 10.0247 486.352 10.1973 486.296 10.356C486.25 10.5147 486.208 10.65 486.17 10.762L485.036 13.786H488.2L487.08 10.762ZM495.308 8.004C496.138 8.004 496.834 8.08333 497.394 8.242C497.963 8.40067 498.388 8.662 498.668 9.026C498.957 9.39 499.102 9.87533 499.102 10.482C499.102 10.874 499.027 11.224 498.878 11.532C498.738 11.8307 498.523 12.0827 498.234 12.288C497.954 12.484 497.608 12.6193 497.198 12.694V12.764C497.618 12.8293 497.996 12.9507 498.332 13.128C498.677 13.3053 498.948 13.5573 499.144 13.884C499.34 14.2107 499.438 14.6353 499.438 15.158C499.438 15.7647 499.298 16.2827 499.018 16.712C498.738 17.132 498.336 17.454 497.814 17.678C497.3 17.8927 496.684 18 495.966 18H492.452V8.004H495.308ZM495.56 12.26C496.418 12.26 497.006 12.1247 497.324 11.854C497.641 11.574 497.8 11.1633 497.8 10.622C497.8 10.0713 497.604 9.67933 497.212 9.446C496.829 9.20333 496.213 9.082 495.364 9.082H493.712V12.26H495.56ZM493.712 13.31V16.936H495.728C496.614 16.936 497.23 16.7633 497.576 16.418C497.921 16.0727 498.094 15.62 498.094 15.06C498.094 14.7053 498.014 14.3973 497.856 14.136C497.706 13.8747 497.45 13.674 497.086 13.534C496.731 13.3847 496.246 13.31 495.63 13.31H493.712ZM502.817 18H501.557V8.004H507.143V9.11H502.817V12.652H506.877V13.758H502.817V18ZM515.187 15.732H513.731V18H512.541V15.732H507.753V14.682L512.457 7.948H513.731V14.626H515.187V15.732ZM512.541 11.476C512.541 11.2333 512.541 11.014 512.541 10.818C512.55 10.6127 512.56 10.4213 512.569 10.244C512.578 10.0667 512.583 9.89867 512.583 9.74C512.592 9.572 512.602 9.41333 512.611 9.264H512.555C512.48 9.44133 512.387 9.63267 512.275 9.838C512.163 10.0433 512.056 10.216 511.953 10.356L508.957 14.626H512.541V11.476ZM522.751 12.274C522.751 12.8433 522.709 13.4127 522.625 13.982C522.55 14.542 522.415 15.074 522.219 15.578C522.023 16.0727 521.752 16.516 521.407 16.908C521.061 17.2907 520.623 17.594 520.091 17.818C519.559 18.0327 518.915 18.14 518.159 18.14C517.972 18.14 517.753 18.126 517.501 18.098C517.258 18.0793 517.057 18.0467 516.899 18V16.95C517.067 17.006 517.263 17.0527 517.487 17.09C517.711 17.118 517.925 17.132 518.131 17.132C518.784 17.132 519.321 17.0247 519.741 16.81C520.17 16.5953 520.511 16.306 520.763 15.942C521.015 15.5687 521.197 15.1393 521.309 14.654C521.421 14.1593 521.486 13.6413 521.505 13.1H521.421C521.281 13.3147 521.103 13.5107 520.889 13.688C520.674 13.8653 520.413 14.0053 520.105 14.108C519.806 14.2107 519.451 14.262 519.041 14.262C518.471 14.262 517.967 14.1453 517.529 13.912C517.099 13.6693 516.763 13.324 516.521 12.876C516.287 12.428 516.171 11.882 516.171 11.238C516.171 10.538 516.301 9.936 516.563 9.432C516.833 8.928 517.207 8.54067 517.683 8.27C518.159 7.99933 518.719 7.864 519.363 7.864C519.839 7.864 520.282 7.95733 520.693 8.144C521.103 8.32133 521.463 8.592 521.771 8.956C522.079 9.32 522.317 9.77733 522.485 10.328C522.662 10.8787 522.751 11.5273 522.751 12.274ZM519.363 8.9C518.784 8.9 518.308 9.09133 517.935 9.474C517.571 9.85667 517.389 10.44 517.389 11.224C517.389 11.868 517.543 12.3767 517.851 12.75C518.168 13.114 518.653 13.296 519.307 13.296C519.755 13.296 520.142 13.2073 520.469 13.03C520.795 12.8433 521.047 12.61 521.225 12.33C521.411 12.05 521.505 11.7607 521.505 11.462C521.505 11.1633 521.458 10.8647 521.365 10.566C521.281 10.258 521.15 9.978 520.973 9.726C520.795 9.474 520.571 9.27333 520.301 9.124C520.03 8.97467 519.717 8.9 519.363 8.9ZM527.514 10.37C528.429 10.37 529.106 10.5707 529.544 10.972C529.983 11.3733 530.202 12.0127 530.202 12.89V18H529.306L529.068 16.936H529.012C528.798 17.2067 528.574 17.4353 528.34 17.622C528.116 17.7993 527.855 17.93 527.556 18.014C527.267 18.098 526.912 18.14 526.492 18.14C526.044 18.14 525.638 18.0607 525.274 17.902C524.92 17.7433 524.64 17.5007 524.434 17.174C524.229 16.838 524.126 16.418 524.126 15.914C524.126 15.1673 524.42 14.5933 525.008 14.192C525.596 13.7813 526.502 13.5573 527.724 13.52L528.998 13.478V13.03C528.998 12.4047 528.863 11.9707 528.592 11.728C528.322 11.4853 527.939 11.364 527.444 11.364C527.052 11.364 526.679 11.4247 526.324 11.546C525.97 11.658 525.638 11.7887 525.33 11.938L524.952 11.014C525.279 10.8367 525.666 10.6873 526.114 10.566C526.562 10.4353 527.029 10.37 527.514 10.37ZM527.878 14.374C526.945 14.4113 526.296 14.5607 525.932 14.822C525.578 15.0833 525.4 15.452 525.4 15.928C525.4 16.348 525.526 16.656 525.778 16.852C526.04 17.048 526.371 17.146 526.772 17.146C527.407 17.146 527.934 16.9733 528.354 16.628C528.774 16.2733 528.984 15.732 528.984 15.004V14.332L527.878 14.374ZM536.3 18H535.096V11.014C535.096 10.7433 535.096 10.5147 535.096 10.328C535.105 10.1413 535.115 9.96867 535.124 9.81C535.133 9.642 535.143 9.46933 535.152 9.292C535.003 9.44133 534.867 9.56733 534.746 9.67C534.625 9.77267 534.471 9.90333 534.284 10.062L533.22 10.93L532.576 10.104L535.278 8.004H536.3V18ZM546.972 18L545.768 14.906H541.806L540.616 18H539.342L543.248 7.962H544.382L548.274 18H546.972ZM544.27 10.762C544.242 10.6873 544.195 10.552 544.13 10.356C544.064 10.16 543.999 9.95933 543.934 9.754C543.878 9.53933 543.831 9.376 543.794 9.264C543.747 9.45067 543.696 9.642 543.64 9.838C543.593 10.0247 543.542 10.1973 543.486 10.356C543.439 10.5147 543.397 10.65 543.36 10.762L542.226 13.786H545.39L544.27 10.762ZM550.705 9.95C550.705 10.2673 550.696 10.566 550.677 10.846C550.668 11.1167 550.654 11.3313 550.635 11.49H550.705C550.92 11.1727 551.214 10.9067 551.587 10.692C551.961 10.4773 552.441 10.37 553.029 10.37C553.963 10.37 554.709 10.6967 555.269 11.35C555.839 11.994 556.123 12.96 556.123 14.248C556.123 15.1067 555.993 15.8253 555.731 16.404C555.479 16.9827 555.12 17.4167 554.653 17.706C554.187 17.9953 553.645 18.14 553.029 18.14C552.441 18.14 551.961 18.0327 551.587 17.818C551.214 17.6033 550.92 17.3467 550.705 17.048H550.607L550.355 18H549.473V7.36H550.705V9.95ZM552.819 11.392C552.287 11.392 551.867 11.4947 551.559 11.7C551.251 11.896 551.032 12.204 550.901 12.624C550.771 13.0347 550.705 13.562 550.705 14.206V14.262C550.705 15.186 550.855 15.8953 551.153 16.39C551.461 16.8753 552.026 17.118 552.847 17.118C553.519 17.118 554.019 16.8707 554.345 16.376C554.681 15.8813 554.849 15.1673 554.849 14.234C554.849 13.2913 554.681 12.582 554.345 12.106C554.019 11.63 553.51 11.392 552.819 11.392ZM557.666 13.73C557.666 13.1513 557.704 12.582 557.778 12.022C557.862 11.462 558.002 10.9347 558.198 10.44C558.394 9.936 558.665 9.49267 559.01 9.11C559.356 8.718 559.79 8.41467 560.312 8.2C560.844 7.976 561.488 7.864 562.244 7.864C562.44 7.864 562.655 7.87333 562.888 7.892C563.131 7.91067 563.327 7.94333 563.476 7.99V9.04C563.308 8.984 563.117 8.942 562.902 8.914C562.697 8.886 562.487 8.872 562.272 8.872C561.628 8.872 561.092 8.97933 560.662 9.194C560.233 9.40867 559.892 9.70267 559.64 10.076C559.398 10.4493 559.22 10.8787 559.108 11.364C558.996 11.8493 558.926 12.3673 558.898 12.918H558.982C559.122 12.694 559.3 12.4933 559.514 12.316C559.729 12.1387 559.986 11.9987 560.284 11.896C560.592 11.7933 560.947 11.742 561.348 11.742C561.927 11.742 562.431 11.8633 562.86 12.106C563.299 12.3393 563.64 12.6847 563.882 13.142C564.125 13.59 564.246 14.136 564.246 14.78C564.246 15.4707 564.116 16.068 563.854 16.572C563.593 17.076 563.224 17.4633 562.748 17.734C562.282 18.0047 561.722 18.14 561.068 18.14C560.592 18.14 560.149 18.0513 559.738 17.874C559.328 17.6967 558.964 17.426 558.646 17.062C558.338 16.698 558.096 16.2407 557.918 15.69C557.75 15.13 557.666 14.4767 557.666 13.73ZM561.054 17.104C561.642 17.104 562.118 16.9173 562.482 16.544C562.846 16.1613 563.028 15.5733 563.028 14.78C563.028 14.1453 562.865 13.6413 562.538 13.268C562.221 12.8947 561.74 12.708 561.096 12.708C560.658 12.708 560.275 12.8013 559.948 12.988C559.622 13.1653 559.365 13.394 559.178 13.674C559.001 13.954 558.912 14.2433 558.912 14.542C558.912 14.85 558.954 15.1533 559.038 15.452C559.132 15.7507 559.267 16.026 559.444 16.278C559.631 16.53 559.855 16.7307 560.116 16.88C560.387 17.0293 560.7 17.104 561.054 17.104ZM572.188 18H565.58V16.978L568.198 14.332C568.702 13.828 569.127 13.38 569.472 12.988C569.818 12.596 570.079 12.2133 570.256 11.84C570.434 11.4573 570.522 11.042 570.522 10.594C570.522 10.0433 570.359 9.628 570.032 9.348C569.706 9.05867 569.281 8.914 568.758 8.914C568.273 8.914 567.844 8.998 567.47 9.166C567.106 9.334 566.733 9.56733 566.35 9.866L565.692 9.04C565.954 8.816 566.238 8.61533 566.546 8.438C566.864 8.26067 567.204 8.12067 567.568 8.018C567.942 7.91533 568.338 7.864 568.758 7.864C569.384 7.864 569.92 7.97133 570.368 8.186C570.816 8.40067 571.162 8.70867 571.404 9.11C571.656 9.502 571.782 9.97333 571.782 10.524C571.782 10.916 571.722 11.2893 571.6 11.644C571.479 11.9893 571.306 12.33 571.082 12.666C570.858 13.002 570.588 13.3427 570.27 13.688C569.953 14.0333 569.603 14.3927 569.22 14.766L567.134 16.824V16.88H572.188V18ZM574.824 18L578.926 9.124H573.536V8.004H580.242V8.956L576.182 18H574.824ZM584.922 7.864C585.51 7.864 586.028 7.95733 586.476 8.144C586.924 8.32133 587.274 8.58733 587.526 8.942C587.787 9.29667 587.918 9.73533 587.918 10.258C587.918 10.6593 587.829 11.0093 587.652 11.308C587.484 11.6067 587.255 11.8727 586.966 12.106C586.676 12.33 586.359 12.5307 586.014 12.708C586.424 12.904 586.798 13.128 587.134 13.38C587.47 13.6227 587.736 13.9073 587.932 14.234C588.137 14.5607 588.24 14.9527 588.24 15.41C588.24 15.97 588.104 16.4553 587.834 16.866C587.563 17.2673 587.18 17.58 586.686 17.804C586.2 18.028 585.626 18.14 584.964 18.14C584.245 18.14 583.634 18.0327 583.13 17.818C582.635 17.6033 582.257 17.3 581.996 16.908C581.744 16.5067 581.618 16.0213 581.618 15.452C581.618 14.9947 581.711 14.598 581.898 14.262C582.094 13.926 582.35 13.6367 582.668 13.394C582.985 13.1513 583.326 12.946 583.69 12.778C583.363 12.5913 583.064 12.3813 582.794 12.148C582.532 11.9053 582.322 11.63 582.164 11.322C582.014 11.014 581.94 10.6547 581.94 10.244C581.94 9.73067 582.07 9.30133 582.332 8.956C582.593 8.60133 582.948 8.33067 583.396 8.144C583.844 7.95733 584.352 7.864 584.922 7.864ZM582.822 15.466C582.822 15.9513 582.994 16.3573 583.34 16.684C583.685 17.0013 584.217 17.16 584.936 17.16C585.393 17.16 585.776 17.0853 586.084 16.936C586.392 16.7867 586.625 16.5813 586.784 16.32C586.952 16.0587 587.036 15.76 587.036 15.424C587.036 15.0973 586.947 14.8127 586.77 14.57C586.602 14.318 586.359 14.094 586.042 13.898C585.734 13.702 585.365 13.5247 584.936 13.366L584.712 13.282C584.301 13.4593 583.956 13.6507 583.676 13.856C583.396 14.0613 583.181 14.2947 583.032 14.556C582.892 14.8173 582.822 15.1207 582.822 15.466ZM584.908 8.858C584.394 8.858 583.97 8.984 583.634 9.236C583.307 9.47867 583.144 9.83333 583.144 10.3C583.144 10.6453 583.223 10.9347 583.382 11.168C583.55 11.4013 583.774 11.602 584.054 11.77C584.334 11.9287 584.642 12.0827 584.978 12.232C585.304 12.092 585.594 11.938 585.846 11.77C586.107 11.602 586.312 11.4013 586.462 11.168C586.62 10.9253 586.7 10.636 586.7 10.3C586.7 9.83333 586.536 9.47867 586.21 9.236C585.883 8.984 585.449 8.858 584.908 8.858Z" fill="#555555"/>
</svg>
