<svg width="586" height="25" viewBox="0 0 586 25" fill="none" xmlns="http://www.w3.org/2000/svg">
<rect width="586" height="25" fill="#555555"/>
<rect x="218" width="368" height="25" fill="#F1B90A"/>
<path d="M23.2253 15.326C23.2253 15.9233 23.0806 16.432 22.7913 16.852C22.5019 17.2627 22.0866 17.58 21.5453 17.804C21.0133 18.028 20.3833 18.14 19.6553 18.14C19.2819 18.14 18.9226 18.1213 18.5773 18.084C18.2413 18.0467 17.9333 17.9953 17.6533 17.93C17.3733 17.8553 17.1259 17.7667 16.9113 17.664V16.46C17.2473 16.6093 17.6626 16.7447 18.1573 16.866C18.6613 16.9873 19.1793 17.048 19.7113 17.048C20.2059 17.048 20.6213 16.9827 20.9573 16.852C21.2933 16.7213 21.5453 16.5347 21.7133 16.292C21.8813 16.0493 21.9653 15.7647 21.9653 15.438C21.9653 15.1113 21.8953 14.836 21.7553 14.612C21.6153 14.388 21.3726 14.1827 21.0273 13.996C20.6913 13.8 20.2199 13.5947 19.6133 13.38C19.1839 13.2213 18.8059 13.0533 18.4793 12.876C18.1619 12.6893 17.8959 12.4793 17.6813 12.246C17.4666 12.0127 17.3033 11.7467 17.1913 11.448C17.0886 11.1493 17.0373 10.804 17.0373 10.412C17.0373 9.88 17.1726 9.42733 17.4433 9.054C17.7139 8.67133 18.0873 8.37733 18.5633 8.172C19.0486 7.96667 19.6039 7.864 20.2293 7.864C20.7799 7.864 21.2839 7.91533 21.7413 8.018C22.1986 8.12067 22.6139 8.256 22.9873 8.424L22.5953 9.502C22.2499 9.35267 21.8719 9.22667 21.4613 9.124C21.0599 9.02133 20.6399 8.97 20.2013 8.97C19.7813 8.97 19.4313 9.03067 19.1513 9.152C18.8713 9.27333 18.6613 9.446 18.5213 9.67C18.3813 9.88467 18.3113 10.1367 18.3113 10.426C18.3113 10.762 18.3813 11.042 18.5213 11.266C18.6613 11.49 18.8899 11.6907 19.2073 11.868C19.5246 12.0453 19.9539 12.2367 20.4953 12.442C21.0833 12.6567 21.5779 12.89 21.9793 13.142C22.3899 13.3847 22.6979 13.6787 22.9033 14.024C23.1179 14.3693 23.2253 14.8033 23.2253 15.326ZM26.3029 10.482C26.3029 10.6593 26.2935 10.8413 26.2749 11.028C26.2655 11.2147 26.2515 11.3827 26.2329 11.532H26.3169C26.4755 11.2707 26.6762 11.056 26.9189 10.888C27.1615 10.72 27.4322 10.594 27.7309 10.51C28.0295 10.4167 28.3375 10.37 28.6549 10.37C29.2615 10.37 29.7655 10.468 30.1669 10.664C30.5775 10.8507 30.8855 11.1447 31.0909 11.546C31.2962 11.9473 31.3989 12.47 31.3989 13.114V18H30.1809V13.198C30.1809 12.5913 30.0455 12.1387 29.7749 11.84C29.5042 11.5413 29.0795 11.392 28.5009 11.392C27.9409 11.392 27.5022 11.4993 27.1849 11.714C26.8675 11.9193 26.6389 12.2273 26.4989 12.638C26.3682 13.0393 26.3029 13.534 26.3029 14.122V18H25.0709V7.36H26.3029V10.482ZM34.9572 10.496V18H33.7252V10.496H34.9572ZM34.3552 7.682C34.5418 7.682 34.7052 7.74733 34.8452 7.878C34.9945 7.99933 35.0692 8.19533 35.0692 8.466C35.0692 8.72733 34.9945 8.92333 34.8452 9.054C34.7052 9.18467 34.5418 9.25 34.3552 9.25C34.1498 9.25 33.9772 9.18467 33.8372 9.054C33.6972 8.92333 33.6272 8.72733 33.6272 8.466C33.6272 8.19533 33.6972 7.99933 33.8372 7.878C33.9772 7.74733 34.1498 7.682 34.3552 7.682ZM38.5665 9.95C38.5665 10.2673 38.5572 10.566 38.5385 10.846C38.5292 11.1167 38.5152 11.3313 38.4965 11.49H38.5665C38.7812 11.1727 39.0752 10.9067 39.4485 10.692C39.8219 10.4773 40.3025 10.37 40.8905 10.37C41.8239 10.37 42.5705 10.6967 43.1305 11.35C43.6999 11.994 43.9845 12.96 43.9845 14.248C43.9845 15.1067 43.8539 15.8253 43.5925 16.404C43.3405 16.9827 42.9812 17.4167 42.5145 17.706C42.0479 17.9953 41.5065 18.14 40.8905 18.14C40.3025 18.14 39.8219 18.0327 39.4485 17.818C39.0752 17.6033 38.7812 17.3467 38.5665 17.048H38.4685L38.2165 18H37.3345V7.36H38.5665V9.95ZM40.6805 11.392C40.1485 11.392 39.7285 11.4947 39.4205 11.7C39.1125 11.896 38.8932 12.204 38.7625 12.624C38.6319 13.0347 38.5665 13.562 38.5665 14.206V14.262C38.5665 15.186 38.7159 15.8953 39.0145 16.39C39.3225 16.8753 39.8872 17.118 40.7085 17.118C41.3805 17.118 41.8799 16.8707 42.2065 16.376C42.5425 15.8813 42.7105 15.1673 42.7105 14.234C42.7105 13.2913 42.5425 12.582 42.2065 12.106C41.8799 11.63 41.3712 11.392 40.6805 11.392ZM48.7898 10.37C49.7045 10.37 50.3811 10.5707 50.8198 10.972C51.2585 11.3733 51.4778 12.0127 51.4778 12.89V18H50.5818L50.3438 16.936H50.2878C50.0731 17.2067 49.8491 17.4353 49.6158 17.622C49.3918 17.7993 49.1305 17.93 48.8318 18.014C48.5425 18.098 48.1878 18.14 47.7678 18.14C47.3198 18.14 46.9138 18.0607 46.5498 17.902C46.1951 17.7433 45.9151 17.5007 45.7098 17.174C45.5045 16.838 45.4018 16.418 45.4018 15.914C45.4018 15.1673 45.6958 14.5933 46.2838 14.192C46.8718 13.7813 47.7771 13.5573 48.9998 13.52L50.2738 13.478V13.03C50.2738 12.4047 50.1385 11.9707 49.8678 11.728C49.5971 11.4853 49.2145 11.364 48.7198 11.364C48.3278 11.364 47.9545 11.4247 47.5998 11.546C47.2451 11.658 46.9138 11.7887 46.6058 11.938L46.2278 11.014C46.5545 10.8367 46.9418 10.6873 47.3898 10.566C47.8378 10.4353 48.3045 10.37 48.7898 10.37ZM49.1538 14.374C48.2205 14.4113 47.5718 14.5607 47.2078 14.822C46.8531 15.0833 46.6758 15.452 46.6758 15.928C46.6758 16.348 46.8018 16.656 47.0538 16.852C47.3151 17.048 47.6465 17.146 48.0478 17.146C48.6825 17.146 49.2098 16.9733 49.6298 16.628C50.0498 16.2733 50.2598 15.732 50.2598 15.004V14.332L49.1538 14.374ZM60.4142 18H56.8022V17.272L57.9782 17.006V9.012L56.8022 8.732V8.004H60.4142V8.732L59.2382 9.012V17.006L60.4142 17.272V18ZM65.7883 10.356C66.6843 10.356 67.361 10.5753 67.8183 11.014C68.2757 11.4433 68.5043 12.1433 68.5043 13.114V18H67.2863V13.198C67.2863 12.5913 67.151 12.1387 66.8803 11.84C66.6097 11.5413 66.185 11.392 65.6063 11.392C64.7757 11.392 64.2017 11.6253 63.8843 12.092C63.567 12.5587 63.4083 13.2307 63.4083 14.108V18H62.1763V10.496H63.1703L63.3523 11.518H63.4223C63.5903 11.2567 63.7957 11.042 64.0383 10.874C64.2903 10.6967 64.5657 10.566 64.8643 10.482C65.163 10.398 65.471 10.356 65.7883 10.356ZM77.1026 10.496V18H76.0946L75.9126 17.006H75.8566C75.698 17.2673 75.4926 17.482 75.2406 17.65C74.9886 17.818 74.7133 17.9393 74.4146 18.014C74.116 18.098 73.8033 18.14 73.4766 18.14C72.8793 18.14 72.3753 18.0467 71.9646 17.86C71.5633 17.664 71.26 17.3653 71.0546 16.964C70.8493 16.5627 70.7466 16.0447 70.7466 15.41V10.496H71.9926V15.326C71.9926 15.9233 72.128 16.3713 72.3986 16.67C72.6693 16.9687 73.0893 17.118 73.6586 17.118C74.2186 17.118 74.6573 17.0153 74.9746 16.81C75.3013 16.5953 75.53 16.2873 75.6606 15.886C75.8006 15.4753 75.8706 14.9807 75.8706 14.402V10.496H77.1026ZM88.9596 15.326C88.9596 15.9233 88.815 16.432 88.5256 16.852C88.2363 17.2627 87.821 17.58 87.2796 17.804C86.7476 18.028 86.1176 18.14 85.3896 18.14C85.0163 18.14 84.657 18.1213 84.3116 18.084C83.9756 18.0467 83.6676 17.9953 83.3876 17.93C83.1076 17.8553 82.8603 17.7667 82.6456 17.664V16.46C82.9816 16.6093 83.397 16.7447 83.8916 16.866C84.3956 16.9873 84.9136 17.048 85.4456 17.048C85.9403 17.048 86.3556 16.9827 86.6916 16.852C87.0276 16.7213 87.2796 16.5347 87.4476 16.292C87.6156 16.0493 87.6996 15.7647 87.6996 15.438C87.6996 15.1113 87.6296 14.836 87.4896 14.612C87.3496 14.388 87.107 14.1827 86.7616 13.996C86.4256 13.8 85.9543 13.5947 85.3476 13.38C84.9183 13.2213 84.5403 13.0533 84.2136 12.876C83.8963 12.6893 83.6303 12.4793 83.4156 12.246C83.201 12.0127 83.0376 11.7467 82.9256 11.448C82.823 11.1493 82.7716 10.804 82.7716 10.412C82.7716 9.88 82.907 9.42733 83.1776 9.054C83.4483 8.67133 83.8216 8.37733 84.2976 8.172C84.783 7.96667 85.3383 7.864 85.9636 7.864C86.5143 7.864 87.0183 7.91533 87.4756 8.018C87.933 8.12067 88.3483 8.256 88.7216 8.424L88.3296 9.502C87.9843 9.35267 87.6063 9.22667 87.1956 9.124C86.7943 9.02133 86.3743 8.97 85.9356 8.97C85.5156 8.97 85.1656 9.03067 84.8856 9.152C84.6056 9.27333 84.3956 9.446 84.2556 9.67C84.1156 9.88467 84.0456 10.1367 84.0456 10.426C84.0456 10.762 84.1156 11.042 84.2556 11.266C84.3956 11.49 84.6243 11.6907 84.9416 11.868C85.259 12.0453 85.6883 12.2367 86.2296 12.442C86.8176 12.6567 87.3123 12.89 87.7136 13.142C88.1243 13.3847 88.4323 13.6787 88.6376 14.024C88.8523 14.3693 88.9596 14.8033 88.9596 15.326ZM98.6172 18H97.3572V13.338H92.2332V18H90.9732V8.004H92.2332V12.232H97.3572V8.004H98.6172V18ZM104.164 18H100.552V17.272L101.728 17.006V9.012L100.552 8.732V8.004H104.164V8.732L102.988 9.012V17.006L104.164 17.272V18ZM108.95 8.004C109.781 8.004 110.476 8.08333 111.036 8.242C111.606 8.40067 112.03 8.662 112.31 9.026C112.6 9.39 112.744 9.87533 112.744 10.482C112.744 10.874 112.67 11.224 112.52 11.532C112.38 11.8307 112.166 12.0827 111.876 12.288C111.596 12.484 111.251 12.6193 110.84 12.694V12.764C111.26 12.8293 111.638 12.9507 111.974 13.128C112.32 13.3053 112.59 13.5573 112.786 13.884C112.982 14.2107 113.08 14.6353 113.08 15.158C113.08 15.7647 112.94 16.2827 112.66 16.712C112.38 17.132 111.979 17.454 111.456 17.678C110.943 17.8927 110.327 18 109.608 18H106.094V8.004H108.95ZM109.202 12.26C110.061 12.26 110.649 12.1247 110.966 11.854C111.284 11.574 111.442 11.1633 111.442 10.622C111.442 10.0713 111.246 9.67933 110.854 9.446C110.472 9.20333 109.856 9.082 109.006 9.082H107.354V12.26H109.202ZM107.354 13.31V16.936H109.37C110.257 16.936 110.873 16.7633 111.218 16.418C111.564 16.0727 111.736 15.62 111.736 15.06C111.736 14.7053 111.657 14.3973 111.498 14.136C111.349 13.8747 111.092 13.674 110.728 13.534C110.374 13.3847 109.888 13.31 109.272 13.31H107.354ZM118.039 14.164C118.039 13.3987 118.109 12.652 118.249 11.924C118.398 11.196 118.627 10.5007 118.935 9.838C119.243 9.17533 119.63 8.564 120.097 8.004H121.259C120.829 8.58267 120.465 9.208 120.167 9.88C119.877 10.552 119.658 11.2473 119.509 11.966C119.359 12.6847 119.285 13.4127 119.285 14.15C119.285 14.8687 119.359 15.5827 119.509 16.292C119.658 17.0013 119.877 17.6827 120.167 18.336C120.456 18.9987 120.815 19.624 121.245 20.212H120.097C119.63 19.6613 119.243 19.0593 118.935 18.406C118.627 17.762 118.398 17.0807 118.249 16.362C118.109 15.6433 118.039 14.9107 118.039 14.164ZM129.527 8.004C130.357 8.004 131.053 8.08333 131.613 8.242C132.182 8.40067 132.607 8.662 132.887 9.026C133.176 9.39 133.321 9.87533 133.321 10.482C133.321 10.874 133.246 11.224 133.097 11.532C132.957 11.8307 132.742 12.0827 132.453 12.288C132.173 12.484 131.827 12.6193 131.417 12.694V12.764C131.837 12.8293 132.215 12.9507 132.551 13.128C132.896 13.3053 133.167 13.5573 133.363 13.884C133.559 14.2107 133.657 14.6353 133.657 15.158C133.657 15.7647 133.517 16.2827 133.237 16.712C132.957 17.132 132.555 17.454 132.033 17.678C131.519 17.8927 130.903 18 130.185 18H126.671V8.004H129.527ZM129.779 12.26C130.637 12.26 131.225 12.1247 131.543 11.854C131.86 11.574 132.019 11.1633 132.019 10.622C132.019 10.0713 131.823 9.67933 131.431 9.446C131.048 9.20333 130.432 9.082 129.583 9.082H127.931V12.26H129.779ZM127.931 13.31V16.936H129.947C130.833 16.936 131.449 16.7633 131.795 16.418C132.14 16.0727 132.312 15.62 132.312 15.06C132.312 14.7053 132.233 14.3973 132.075 14.136C131.925 13.8747 131.669 13.674 131.305 13.534C130.95 13.3847 130.465 13.31 129.849 13.31H127.931ZM141.446 15.326C141.446 15.9233 141.301 16.432 141.012 16.852C140.723 17.2627 140.307 17.58 139.766 17.804C139.234 18.028 138.604 18.14 137.876 18.14C137.503 18.14 137.143 18.1213 136.798 18.084C136.462 18.0467 136.154 17.9953 135.874 17.93C135.594 17.8553 135.347 17.7667 135.132 17.664V16.46C135.468 16.6093 135.883 16.7447 136.378 16.866C136.882 16.9873 137.4 17.048 137.932 17.048C138.427 17.048 138.842 16.9827 139.178 16.852C139.514 16.7213 139.766 16.5347 139.934 16.292C140.102 16.0493 140.186 15.7647 140.186 15.438C140.186 15.1113 140.116 14.836 139.976 14.612C139.836 14.388 139.593 14.1827 139.248 13.996C138.912 13.8 138.441 13.5947 137.834 13.38C137.405 13.2213 137.027 13.0533 136.7 12.876C136.383 12.6893 136.117 12.4793 135.902 12.246C135.687 12.0127 135.524 11.7467 135.412 11.448C135.309 11.1493 135.258 10.804 135.258 10.412C135.258 9.88 135.393 9.42733 135.664 9.054C135.935 8.67133 136.308 8.37733 136.784 8.172C137.269 7.96667 137.825 7.864 138.45 7.864C139.001 7.864 139.505 7.91533 139.962 8.018C140.419 8.12067 140.835 8.256 141.208 8.424L140.816 9.502C140.471 9.35267 140.093 9.22667 139.682 9.124C139.281 9.02133 138.861 8.97 138.422 8.97C138.002 8.97 137.652 9.03067 137.372 9.152C137.092 9.27333 136.882 9.446 136.742 9.67C136.602 9.88467 136.532 10.1367 136.532 10.426C136.532 10.762 136.602 11.042 136.742 11.266C136.882 11.49 137.111 11.6907 137.428 11.868C137.745 12.0453 138.175 12.2367 138.716 12.442C139.304 12.6567 139.799 12.89 140.2 13.142C140.611 13.3847 140.919 13.6787 141.124 14.024C141.339 14.3693 141.446 14.8033 141.446 15.326ZM147.744 8.97C147.212 8.97 146.731 9.06333 146.302 9.25C145.872 9.42733 145.508 9.69333 145.21 10.048C144.911 10.3933 144.682 10.818 144.524 11.322C144.365 11.8167 144.286 12.3767 144.286 13.002C144.286 13.8233 144.412 14.5373 144.664 15.144C144.925 15.7507 145.308 16.2173 145.812 16.544C146.325 16.8707 146.964 17.034 147.73 17.034C148.168 17.034 148.584 16.9967 148.976 16.922C149.368 16.8473 149.75 16.754 150.124 16.642V17.734C149.75 17.874 149.363 17.9767 148.962 18.042C148.57 18.1073 148.098 18.14 147.548 18.14C146.53 18.14 145.681 17.93 145 17.51C144.318 17.09 143.805 16.4927 143.46 15.718C143.124 14.9433 142.956 14.0333 142.956 12.988C142.956 12.232 143.058 11.5413 143.264 10.916C143.478 10.2907 143.786 9.74933 144.188 9.292C144.598 8.83467 145.102 8.48467 145.7 8.242C146.297 7.99 146.983 7.864 147.758 7.864C148.271 7.864 148.766 7.91533 149.242 8.018C149.718 8.12067 150.142 8.26533 150.516 8.452L150.012 9.516C149.704 9.376 149.358 9.25 148.976 9.138C148.602 9.026 148.192 8.97 147.744 8.97ZM158.798 8.004C159.629 8.004 160.324 8.08333 160.884 8.242C161.453 8.40067 161.878 8.662 162.158 9.026C162.447 9.39 162.592 9.87533 162.592 10.482C162.592 10.874 162.517 11.224 162.368 11.532C162.228 11.8307 162.013 12.0827 161.724 12.288C161.444 12.484 161.099 12.6193 160.688 12.694V12.764C161.108 12.8293 161.486 12.9507 161.822 13.128C162.167 13.3053 162.438 13.5573 162.634 13.884C162.83 14.2107 162.928 14.6353 162.928 15.158C162.928 15.7647 162.788 16.2827 162.508 16.712C162.228 17.132 161.827 17.454 161.304 17.678C160.791 17.8927 160.175 18 159.456 18H155.942V8.004H158.798ZM159.05 12.26C159.909 12.26 160.497 12.1247 160.814 11.854C161.131 11.574 161.29 11.1633 161.29 10.622C161.29 10.0713 161.094 9.67933 160.702 9.446C160.319 9.20333 159.703 9.082 158.854 9.082H157.202V12.26H159.05ZM157.202 13.31V16.936H159.218C160.105 16.936 160.721 16.7633 161.066 16.418C161.411 16.0727 161.584 15.62 161.584 15.06C161.584 14.7053 161.505 14.3973 161.346 14.136C161.197 13.8747 160.94 13.674 160.576 13.534C160.221 13.3847 159.736 13.31 159.12 13.31H157.202ZM170.633 18H165.047V8.004H170.633V9.11H166.307V12.232H170.381V13.324H166.307V16.894H170.633V18ZM175.473 8.004C176.779 8.004 177.731 8.26067 178.329 8.774C178.926 9.28733 179.225 10.0107 179.225 10.944C179.225 11.3547 179.155 11.7513 179.015 12.134C178.884 12.5073 178.665 12.8433 178.357 13.142C178.049 13.4407 177.638 13.6787 177.125 13.856C176.611 14.024 175.981 14.108 175.235 14.108H174.087V18H172.827V8.004H175.473ZM175.361 9.082H174.087V13.03H175.095C175.729 13.03 176.257 12.9647 176.677 12.834C177.097 12.694 177.409 12.4747 177.615 12.176C177.82 11.8773 177.923 11.4853 177.923 11C177.923 10.356 177.717 9.87533 177.307 9.558C176.896 9.24067 176.247 9.082 175.361 9.082ZM187.225 18H180.617V16.978L183.235 14.332C183.739 13.828 184.164 13.38 184.509 12.988C184.855 12.596 185.116 12.2133 185.293 11.84C185.471 11.4573 185.559 11.042 185.559 10.594C185.559 10.0433 185.396 9.628 185.069 9.348C184.743 9.05867 184.318 8.914 183.795 8.914C183.31 8.914 182.881 8.998 182.507 9.166C182.143 9.334 181.77 9.56733 181.387 9.866L180.729 9.04C180.991 8.816 181.275 8.61533 181.583 8.438C181.901 8.26067 182.241 8.12067 182.605 8.018C182.979 7.91533 183.375 7.864 183.795 7.864C184.421 7.864 184.957 7.97133 185.405 8.186C185.853 8.40067 186.199 8.70867 186.441 9.11C186.693 9.502 186.819 9.97333 186.819 10.524C186.819 10.916 186.759 11.2893 186.637 11.644C186.516 11.9893 186.343 12.33 186.119 12.666C185.895 13.002 185.625 13.3427 185.307 13.688C184.99 14.0333 184.64 14.3927 184.257 14.766L182.171 16.824V16.88H187.225V18ZM195.279 12.988C195.279 13.8 195.218 14.5233 195.097 15.158C194.976 15.7927 194.78 16.334 194.509 16.782C194.248 17.2207 193.902 17.5567 193.473 17.79C193.053 18.0233 192.544 18.14 191.947 18.14C191.2 18.14 190.58 17.9347 190.085 17.524C189.6 17.1133 189.236 16.5253 188.993 15.76C188.76 14.9853 188.643 14.0613 188.643 12.988C188.643 11.9053 188.75 10.9813 188.965 10.216C189.189 9.45067 189.544 8.86733 190.029 8.466C190.514 8.05533 191.154 7.85 191.947 7.85C192.694 7.85 193.314 8.05533 193.809 8.466C194.304 8.86733 194.672 9.45067 194.915 10.216C195.158 10.9813 195.279 11.9053 195.279 12.988ZM189.875 12.988C189.875 13.9027 189.94 14.6633 190.071 15.27C190.211 15.8767 190.43 16.334 190.729 16.642C191.037 16.9407 191.443 17.09 191.947 17.09C192.451 17.09 192.852 16.9407 193.151 16.642C193.459 16.3433 193.683 15.8907 193.823 15.284C193.963 14.668 194.033 13.9027 194.033 12.988C194.033 12.0733 193.963 11.3173 193.823 10.72C193.683 10.1133 193.459 9.66067 193.151 9.362C192.852 9.054 192.451 8.9 191.947 8.9C191.443 8.9 191.037 9.054 190.729 9.362C190.43 9.66067 190.211 10.1133 190.071 10.72C189.94 11.3173 189.875 12.0733 189.875 12.988ZM203.245 14.164C203.245 14.9107 203.171 15.6433 203.021 16.362C202.881 17.0807 202.657 17.762 202.349 18.406C202.051 19.0593 201.663 19.6613 201.187 20.212H200.039C200.469 19.624 200.828 18.9987 201.117 18.336C201.407 17.6827 201.626 17.0013 201.775 16.292C201.925 15.5827 201.999 14.8687 201.999 14.15C201.999 13.4127 201.925 12.6847 201.775 11.966C201.626 11.2473 201.407 10.552 201.117 9.88C200.828 9.208 200.464 8.58267 200.025 8.004H201.187C201.663 8.564 202.051 9.17533 202.349 9.838C202.657 10.5007 202.881 11.196 203.021 11.924C203.171 12.652 203.245 13.3987 203.245 14.164Z" fill="white"/>
<path d="M240.379 12.988C240.379 13.8 240.318 14.5233 240.197 15.158C240.075 15.7927 239.879 16.334 239.609 16.782C239.347 17.2207 239.002 17.5567 238.573 17.79C238.153 18.0233 237.644 18.14 237.047 18.14C236.3 18.14 235.679 17.9347 235.185 17.524C234.699 17.1133 234.335 16.5253 234.093 15.76C233.859 14.9853 233.743 14.0613 233.743 12.988C233.743 11.9053 233.85 10.9813 234.065 10.216C234.289 9.45067 234.643 8.86733 235.129 8.466C235.614 8.05533 236.253 7.85 237.047 7.85C237.793 7.85 238.414 8.05533 238.909 8.466C239.403 8.86733 239.772 9.45067 240.015 10.216C240.257 10.9813 240.379 11.9053 240.379 12.988ZM234.975 12.988C234.975 13.9027 235.04 14.6633 235.171 15.27C235.311 15.8767 235.53 16.334 235.829 16.642C236.137 16.9407 236.543 17.09 237.047 17.09C237.551 17.09 237.952 16.9407 238.251 16.642C238.559 16.3433 238.783 15.8907 238.923 15.284C239.063 14.668 239.133 13.9027 239.133 12.988C239.133 12.0733 239.063 11.3173 238.923 10.72C238.783 10.1133 238.559 9.66067 238.251 9.362C237.952 9.054 237.551 8.9 237.047 8.9C236.543 8.9 236.137 9.054 235.829 9.362C235.53 9.66067 235.311 10.1133 235.171 10.72C235.04 11.3173 234.975 12.0733 234.975 12.988ZM244.036 14.164L241.446 10.496H242.846L244.778 13.324L246.696 10.496H248.082L245.492 14.164L248.222 18H246.822L244.778 15.004L242.706 18H241.32L244.036 14.164ZM252.329 11.868C253.01 11.868 253.603 11.9847 254.107 12.218C254.611 12.4513 254.998 12.7873 255.269 13.226C255.549 13.6553 255.689 14.1827 255.689 14.808C255.689 15.4987 255.539 16.096 255.241 16.6C254.942 17.0947 254.513 17.4773 253.953 17.748C253.402 18.0093 252.735 18.14 251.951 18.14C251.437 18.14 250.952 18.0933 250.495 18C250.047 17.9067 249.669 17.7713 249.361 17.594V16.432C249.697 16.6373 250.103 16.8007 250.579 16.922C251.064 17.034 251.526 17.09 251.965 17.09C252.459 17.09 252.889 17.0153 253.253 16.866C253.626 16.7073 253.915 16.4693 254.121 16.152C254.326 15.8253 254.429 15.4193 254.429 14.934C254.429 14.2807 254.228 13.7813 253.827 13.436C253.425 13.0813 252.791 12.904 251.923 12.904C251.661 12.904 251.363 12.9273 251.027 12.974C250.691 13.0207 250.42 13.0673 250.215 13.114L249.599 12.722L249.977 8.004H254.989V9.124H251.027L250.789 12.022C250.947 11.994 251.162 11.9613 251.433 11.924C251.703 11.8867 252.002 11.868 252.329 11.868ZM263.434 18H257.848V8.004H263.434V9.11H259.108V12.232H263.182V13.324H259.108V16.894H263.434V18ZM271.214 18H265.628V8.004H271.214V9.11H266.888V12.232H270.962V13.324H266.888V16.894H271.214V18ZM279.329 18H272.721V16.978L275.339 14.332C275.843 13.828 276.267 13.38 276.613 12.988C276.958 12.596 277.219 12.2133 277.397 11.84C277.574 11.4573 277.663 11.042 277.663 10.594C277.663 10.0433 277.499 9.628 277.173 9.348C276.846 9.05867 276.421 8.914 275.899 8.914C275.413 8.914 274.984 8.998 274.611 9.166C274.247 9.334 273.873 9.56733 273.491 9.866L272.833 9.04C273.094 8.816 273.379 8.61533 273.687 8.438C274.004 8.26067 274.345 8.12067 274.709 8.018C275.082 7.91533 275.479 7.864 275.899 7.864C276.524 7.864 277.061 7.97133 277.509 8.186C277.957 8.40067 278.302 8.70867 278.545 9.11C278.797 9.502 278.923 9.97333 278.923 10.524C278.923 10.916 278.862 11.2893 278.741 11.644C278.619 11.9893 278.447 12.33 278.223 12.666C277.999 13.002 277.728 13.3427 277.411 13.688C277.093 14.0333 276.743 14.3927 276.361 14.766L274.275 16.824V16.88H279.329V18ZM286.963 10.342C286.963 10.79 286.879 11.1773 286.711 11.504C286.543 11.8307 286.3 12.0967 285.983 12.302C285.675 12.5073 285.311 12.652 284.891 12.736V12.792C285.693 12.8853 286.291 13.1373 286.683 13.548C287.075 13.9587 287.271 14.4953 287.271 15.158C287.271 15.7367 287.135 16.2547 286.865 16.712C286.594 17.16 286.174 17.51 285.605 17.762C285.045 18.014 284.321 18.14 283.435 18.14C282.912 18.14 282.427 18.098 281.979 18.014C281.531 17.9393 281.101 17.7993 280.691 17.594V16.446C281.111 16.6513 281.563 16.8147 282.049 16.936C282.534 17.048 283.001 17.104 283.449 17.104C284.345 17.104 284.989 16.9313 285.381 16.586C285.782 16.2313 285.983 15.746 285.983 15.13C285.983 14.71 285.871 14.374 285.647 14.122C285.432 13.8607 285.115 13.6693 284.695 13.548C284.275 13.4267 283.771 13.366 283.183 13.366H282.217V12.316H283.197C283.747 12.316 284.205 12.2367 284.569 12.078C284.942 11.9193 285.222 11.7 285.409 11.42C285.605 11.1307 285.703 10.7993 285.703 10.426C285.703 9.94067 285.539 9.56733 285.213 9.306C284.886 9.03533 284.443 8.9 283.883 8.9C283.528 8.9 283.206 8.93733 282.917 9.012C282.627 9.07733 282.357 9.17533 282.105 9.306C281.862 9.42733 281.615 9.572 281.363 9.74L280.747 8.9C280.989 8.71333 281.265 8.54067 281.573 8.382C281.89 8.22333 282.24 8.09733 282.623 8.004C283.005 7.91067 283.421 7.864 283.869 7.864C284.914 7.864 285.689 8.09733 286.193 8.564C286.706 9.03067 286.963 9.62333 286.963 10.342ZM291.922 11.868C292.604 11.868 293.196 11.9847 293.7 12.218C294.204 12.4513 294.592 12.7873 294.862 13.226C295.142 13.6553 295.282 14.1827 295.282 14.808C295.282 15.4987 295.133 16.096 294.834 16.6C294.536 17.0947 294.106 17.4773 293.546 17.748C292.996 18.0093 292.328 18.14 291.544 18.14C291.031 18.14 290.546 18.0933 290.088 18C289.64 17.9067 289.262 17.7713 288.954 17.594V16.432C289.29 16.6373 289.696 16.8007 290.172 16.922C290.658 17.034 291.12 17.09 291.558 17.09C292.053 17.09 292.482 17.0153 292.846 16.866C293.22 16.7073 293.509 16.4693 293.714 16.152C293.92 15.8253 294.022 15.4193 294.022 14.934C294.022 14.2807 293.822 13.7813 293.42 13.436C293.019 13.0813 292.384 12.904 291.516 12.904C291.255 12.904 290.956 12.9273 290.62 12.974C290.284 13.0207 290.014 13.0673 289.808 13.114L289.192 12.722L289.57 8.004H294.582V9.124H290.62L290.382 12.022C290.541 11.994 290.756 11.9613 291.026 11.924C291.297 11.8867 291.596 11.868 291.922 11.868ZM303.028 18H297.442V8.004H303.028V9.11H298.702V12.232H302.776V13.324H298.702V16.894H303.028V18ZM305.767 18L309.869 9.124H304.479V8.004H311.185V8.956L307.125 18H305.767ZM319.197 12.988C319.197 13.8 319.136 14.5233 319.015 15.158C318.894 15.7927 318.698 16.334 318.427 16.782C318.166 17.2207 317.82 17.5567 317.391 17.79C316.971 18.0233 316.462 18.14 315.865 18.14C315.118 18.14 314.498 17.9347 314.003 17.524C313.518 17.1133 313.154 16.5253 312.911 15.76C312.678 14.9853 312.561 14.0613 312.561 12.988C312.561 11.9053 312.668 10.9813 312.883 10.216C313.107 9.45067 313.462 8.86733 313.947 8.466C314.432 8.05533 315.072 7.85 315.865 7.85C316.612 7.85 317.232 8.05533 317.727 8.466C318.222 8.86733 318.59 9.45067 318.833 10.216C319.076 10.9813 319.197 11.9053 319.197 12.988ZM313.793 12.988C313.793 13.9027 313.858 14.6633 313.989 15.27C314.129 15.8767 314.348 16.334 314.647 16.642C314.955 16.9407 315.361 17.09 315.865 17.09C316.369 17.09 316.77 16.9407 317.069 16.642C317.377 16.3433 317.601 15.8907 317.741 15.284C317.881 14.668 317.951 13.9027 317.951 12.988C317.951 12.0733 317.881 11.3173 317.741 10.72C317.601 10.1133 317.377 9.66067 317.069 9.362C316.77 9.054 316.369 8.9 315.865 8.9C315.361 8.9 314.955 9.054 314.647 9.362C314.348 9.66067 314.129 10.1133 313.989 10.72C313.858 11.3173 313.793 12.0733 313.793 12.988ZM323.737 18.14C322.803 18.14 322.057 17.818 321.497 17.174C320.937 16.5207 320.657 15.55 320.657 14.262C320.657 12.974 320.937 12.0033 321.497 11.35C322.066 10.6873 322.817 10.356 323.751 10.356C324.143 10.356 324.483 10.4073 324.773 10.51C325.062 10.6033 325.314 10.734 325.529 10.902C325.743 11.07 325.925 11.2567 326.075 11.462H326.159C326.149 11.3407 326.131 11.1633 326.103 10.93C326.084 10.6873 326.075 10.496 326.075 10.356V7.36H327.307V18H326.313L326.131 16.992H326.075C325.925 17.2067 325.743 17.4027 325.529 17.58C325.314 17.748 325.057 17.8833 324.759 17.986C324.469 18.0887 324.129 18.14 323.737 18.14ZM323.933 17.118C324.726 17.118 325.281 16.9033 325.599 16.474C325.925 16.0353 326.089 15.3773 326.089 14.5V14.276C326.089 13.3427 325.935 12.6287 325.627 12.134C325.319 11.63 324.749 11.378 323.919 11.378C323.256 11.378 322.757 11.644 322.421 12.176C322.094 12.6987 321.931 13.4033 321.931 14.29C321.931 15.186 322.094 15.8813 322.421 16.376C322.757 16.8707 323.261 17.118 323.933 17.118ZM331.118 18H329.858V8.004H335.444V9.11H331.118V12.652H335.178V13.758H331.118V18ZM337.664 18L341.766 9.124H336.376V8.004H343.082V8.956L339.022 18H337.664ZM351.051 18H344.443V16.978L347.061 14.332C347.565 13.828 347.99 13.38 348.335 12.988C348.681 12.596 348.942 12.2133 349.119 11.84C349.297 11.4573 349.385 11.042 349.385 10.594C349.385 10.0433 349.222 9.628 348.895 9.348C348.569 9.05867 348.144 8.914 347.621 8.914C347.136 8.914 346.707 8.998 346.333 9.166C345.969 9.334 345.596 9.56733 345.213 9.866L344.555 9.04C344.817 8.816 345.101 8.61533 345.409 8.438C345.727 8.26067 346.067 8.12067 346.431 8.018C346.805 7.91533 347.201 7.864 347.621 7.864C348.247 7.864 348.783 7.97133 349.231 8.186C349.679 8.40067 350.025 8.70867 350.267 9.11C350.519 9.502 350.645 9.97333 350.645 10.524C350.645 10.916 350.585 11.2893 350.463 11.644C350.342 11.9893 350.169 12.33 349.945 12.666C349.721 13.002 349.451 13.3427 349.133 13.688C348.816 14.0333 348.466 14.3927 348.083 14.766L345.997 16.824V16.88H351.051V18ZM355.871 10.356C356.515 10.356 357.066 10.496 357.523 10.776C357.99 11.056 358.345 11.4527 358.587 11.966C358.839 12.47 358.965 13.0627 358.965 13.744V14.486H353.827C353.846 15.3353 354.061 15.984 354.471 16.432C354.891 16.8707 355.475 17.09 356.221 17.09C356.697 17.09 357.117 17.048 357.481 16.964C357.855 16.8707 358.237 16.74 358.629 16.572V17.65C358.247 17.818 357.869 17.9393 357.495 18.014C357.122 18.098 356.679 18.14 356.165 18.14C355.456 18.14 354.826 17.9953 354.275 17.706C353.734 17.4167 353.309 16.9873 353.001 16.418C352.703 15.8393 352.553 15.1347 352.553 14.304C352.553 13.4827 352.689 12.778 352.959 12.19C353.239 11.602 353.627 11.1493 354.121 10.832C354.625 10.5147 355.209 10.356 355.871 10.356ZM355.857 11.364C355.269 11.364 354.803 11.5553 354.457 11.938C354.121 12.3113 353.921 12.834 353.855 13.506H357.677C357.677 13.0767 357.612 12.7033 357.481 12.386C357.351 12.0687 357.15 11.8213 356.879 11.644C356.618 11.4573 356.277 11.364 355.857 11.364ZM369.052 12.904C369.052 14.024 368.842 14.962 368.422 15.718C368.011 16.474 367.418 17.0433 366.644 17.426C365.869 17.8087 364.931 18 363.83 18H361.044V8.004H364.124C365.132 8.004 366.004 8.19067 366.742 8.564C367.479 8.93733 368.048 9.488 368.45 10.216C368.851 10.9347 369.052 11.8307 369.052 12.904ZM367.722 12.946C367.722 12.0593 367.572 11.3313 367.274 10.762C366.984 10.1927 366.555 9.77267 365.986 9.502C365.426 9.222 364.744 9.082 363.942 9.082H362.304V16.922H363.662C365.015 16.922 366.028 16.5907 366.7 15.928C367.381 15.256 367.722 14.262 367.722 12.946ZM377.64 15.732H376.184V18H374.994V15.732H370.206V14.682L374.91 7.948H376.184V14.626H377.64V15.732ZM374.994 11.476C374.994 11.2333 374.994 11.014 374.994 10.818C375.003 10.6127 375.013 10.4213 375.022 10.244C375.031 10.0667 375.036 9.89867 375.036 9.74C375.045 9.572 375.055 9.41333 375.064 9.264H375.008C374.933 9.44133 374.84 9.63267 374.728 9.838C374.616 10.0433 374.509 10.216 374.406 10.356L371.41 14.626H374.994V11.476ZM382.572 11.448H380.682V18H379.45V11.448H378.134V10.874L379.45 10.454V10.02C379.45 9.376 379.543 8.85333 379.73 8.452C379.926 8.05067 380.206 7.75667 380.57 7.57C380.934 7.38333 381.372 7.29 381.886 7.29C382.184 7.29 382.455 7.318 382.698 7.374C382.95 7.42067 383.164 7.47667 383.342 7.542L383.02 8.508C382.87 8.46133 382.698 8.41467 382.502 8.368C382.306 8.32133 382.105 8.298 381.9 8.298C381.489 8.298 381.181 8.438 380.976 8.718C380.78 8.98867 380.682 9.418 380.682 10.006V10.496H382.572V11.448ZM390.058 12.988C390.058 13.8 389.998 14.5233 389.876 15.158C389.755 15.7927 389.559 16.334 389.288 16.782C389.027 17.2207 388.682 17.5567 388.252 17.79C387.832 18.0233 387.324 18.14 386.726 18.14C385.98 18.14 385.359 17.9347 384.864 17.524C384.379 17.1133 384.015 16.5253 383.772 15.76C383.539 14.9853 383.422 14.0613 383.422 12.988C383.422 11.9053 383.53 10.9813 383.744 10.216C383.968 9.45067 384.323 8.86733 384.808 8.466C385.294 8.05533 385.933 7.85 386.726 7.85C387.473 7.85 388.094 8.05533 388.588 8.466C389.083 8.86733 389.452 9.45067 389.694 10.216C389.937 10.9813 390.058 11.9053 390.058 12.988ZM384.654 12.988C384.654 13.9027 384.72 14.6633 384.85 15.27C384.99 15.8767 385.21 16.334 385.508 16.642C385.816 16.9407 386.222 17.09 386.726 17.09C387.23 17.09 387.632 16.9407 387.93 16.642C388.238 16.3433 388.462 15.8907 388.602 15.284C388.742 14.668 388.812 13.9027 388.812 12.988C388.812 12.0733 388.742 11.3173 388.602 10.72C388.462 10.1133 388.238 9.66067 387.93 9.362C387.632 9.054 387.23 8.9 386.726 8.9C386.222 8.9 385.816 9.054 385.508 9.362C385.21 9.66067 384.99 10.1133 384.85 10.72C384.72 11.3173 384.654 12.0733 384.654 12.988ZM397.65 10.342C397.65 10.79 397.566 11.1773 397.398 11.504C397.23 11.8307 396.987 12.0967 396.67 12.302C396.362 12.5073 395.998 12.652 395.578 12.736V12.792C396.381 12.8853 396.978 13.1373 397.37 13.548C397.762 13.9587 397.958 14.4953 397.958 15.158C397.958 15.7367 397.823 16.2547 397.552 16.712C397.281 17.16 396.861 17.51 396.292 17.762C395.732 18.014 395.009 18.14 394.122 18.14C393.599 18.14 393.114 18.098 392.666 18.014C392.218 17.9393 391.789 17.7993 391.378 17.594V16.446C391.798 16.6513 392.251 16.8147 392.736 16.936C393.221 17.048 393.688 17.104 394.136 17.104C395.032 17.104 395.676 16.9313 396.068 16.586C396.469 16.2313 396.67 15.746 396.67 15.13C396.67 14.71 396.558 14.374 396.334 14.122C396.119 13.8607 395.802 13.6693 395.382 13.548C394.962 13.4267 394.458 13.366 393.87 13.366H392.904V12.316H393.884C394.435 12.316 394.892 12.2367 395.256 12.078C395.629 11.9193 395.909 11.7 396.096 11.42C396.292 11.1307 396.39 10.7993 396.39 10.426C396.39 9.94067 396.227 9.56733 395.9 9.306C395.573 9.03533 395.13 8.9 394.57 8.9C394.215 8.9 393.893 8.93733 393.604 9.012C393.315 9.07733 393.044 9.17533 392.792 9.306C392.549 9.42733 392.302 9.572 392.05 9.74L391.434 8.9C391.677 8.71333 391.952 8.54067 392.26 8.382C392.577 8.22333 392.927 8.09733 393.31 8.004C393.693 7.91067 394.108 7.864 394.556 7.864C395.601 7.864 396.376 8.09733 396.88 8.564C397.393 9.03067 397.65 9.62333 397.65 10.342ZM402.75 7.864C403.338 7.864 403.856 7.95733 404.304 8.144C404.752 8.32133 405.102 8.58733 405.354 8.942C405.615 9.29667 405.746 9.73533 405.746 10.258C405.746 10.6593 405.657 11.0093 405.48 11.308C405.312 11.6067 405.083 11.8727 404.794 12.106C404.504 12.33 404.187 12.5307 403.842 12.708C404.252 12.904 404.626 13.128 404.962 13.38C405.298 13.6227 405.564 13.9073 405.76 14.234C405.965 14.5607 406.068 14.9527 406.068 15.41C406.068 15.97 405.932 16.4553 405.662 16.866C405.391 17.2673 405.008 17.58 404.514 17.804C404.028 18.028 403.454 18.14 402.792 18.14C402.073 18.14 401.462 18.0327 400.958 17.818C400.463 17.6033 400.085 17.3 399.824 16.908C399.572 16.5067 399.446 16.0213 399.446 15.452C399.446 14.9947 399.539 14.598 399.726 14.262C399.922 13.926 400.178 13.6367 400.496 13.394C400.813 13.1513 401.154 12.946 401.518 12.778C401.191 12.5913 400.892 12.3813 400.622 12.148C400.36 11.9053 400.15 11.63 399.992 11.322C399.842 11.014 399.768 10.6547 399.768 10.244C399.768 9.73067 399.898 9.30133 400.16 8.956C400.421 8.60133 400.776 8.33067 401.224 8.144C401.672 7.95733 402.18 7.864 402.75 7.864ZM400.65 15.466C400.65 15.9513 400.822 16.3573 401.168 16.684C401.513 17.0013 402.045 17.16 402.764 17.16C403.221 17.16 403.604 17.0853 403.912 16.936C404.22 16.7867 404.453 16.5813 404.612 16.32C404.78 16.0587 404.864 15.76 404.864 15.424C404.864 15.0973 404.775 14.8127 404.598 14.57C404.43 14.318 404.187 14.094 403.87 13.898C403.562 13.702 403.193 13.5247 402.764 13.366L402.54 13.282C402.129 13.4593 401.784 13.6507 401.504 13.856C401.224 14.0613 401.009 14.2947 400.86 14.556C400.72 14.8173 400.65 15.1207 400.65 15.466ZM402.736 8.858C402.222 8.858 401.798 8.984 401.462 9.236C401.135 9.47867 400.972 9.83333 400.972 10.3C400.972 10.6453 401.051 10.9347 401.21 11.168C401.378 11.4013 401.602 11.602 401.882 11.77C402.162 11.9287 402.47 12.0827 402.806 12.232C403.132 12.092 403.422 11.938 403.674 11.77C403.935 11.602 404.14 11.4013 404.29 11.168C404.448 10.9253 404.528 10.636 404.528 10.3C404.528 9.83333 404.364 9.47867 404.038 9.236C403.711 8.984 403.277 8.858 402.736 8.858ZM413.715 18H408.129V8.004H413.715V9.11H409.389V12.232H413.463V13.324H409.389V16.894H413.715V18ZM421.831 12.274C421.831 12.8433 421.789 13.4127 421.705 13.982C421.63 14.542 421.495 15.074 421.299 15.578C421.103 16.0727 420.832 16.516 420.487 16.908C420.141 17.2907 419.703 17.594 419.171 17.818C418.639 18.0327 417.995 18.14 417.239 18.14C417.052 18.14 416.833 18.126 416.581 18.098C416.338 18.0793 416.137 18.0467 415.979 18V16.95C416.147 17.006 416.343 17.0527 416.567 17.09C416.791 17.118 417.005 17.132 417.211 17.132C417.864 17.132 418.401 17.0247 418.821 16.81C419.25 16.5953 419.591 16.306 419.843 15.942C420.095 15.5687 420.277 15.1393 420.389 14.654C420.501 14.1593 420.566 13.6413 420.585 13.1H420.501C420.361 13.3147 420.183 13.5107 419.969 13.688C419.754 13.8653 419.493 14.0053 419.185 14.108C418.886 14.2107 418.531 14.262 418.121 14.262C417.551 14.262 417.047 14.1453 416.609 13.912C416.179 13.6693 415.843 13.324 415.601 12.876C415.367 12.428 415.251 11.882 415.251 11.238C415.251 10.538 415.381 9.936 415.643 9.432C415.913 8.928 416.287 8.54067 416.763 8.27C417.239 7.99933 417.799 7.864 418.443 7.864C418.919 7.864 419.362 7.95733 419.773 8.144C420.183 8.32133 420.543 8.592 420.851 8.956C421.159 9.32 421.397 9.77733 421.565 10.328C421.742 10.8787 421.831 11.5273 421.831 12.274ZM418.443 8.9C417.864 8.9 417.388 9.09133 417.015 9.474C416.651 9.85667 416.469 10.44 416.469 11.224C416.469 11.868 416.623 12.3767 416.931 12.75C417.248 13.114 417.733 13.296 418.387 13.296C418.835 13.296 419.222 13.2073 419.549 13.03C419.875 12.8433 420.127 12.61 420.305 12.33C420.491 12.05 420.585 11.7607 420.585 11.462C420.585 11.1633 420.538 10.8647 420.445 10.566C420.361 10.258 420.23 9.978 420.053 9.726C419.875 9.474 419.651 9.27333 419.381 9.124C419.11 8.97467 418.797 8.9 418.443 8.9ZM430.193 18L428.989 14.906H425.027L423.837 18H422.562L426.469 7.962H427.603L431.495 18H430.193ZM427.491 10.762C427.463 10.6873 427.416 10.552 427.351 10.356C427.285 10.16 427.22 9.95933 427.155 9.754C427.099 9.53933 427.052 9.376 427.015 9.264C426.968 9.45067 426.917 9.642 426.861 9.838C426.814 10.0247 426.763 10.1973 426.707 10.356C426.66 10.5147 426.618 10.65 426.581 10.762L425.447 13.786H428.611L427.491 10.762ZM433.926 9.95C433.926 10.2673 433.917 10.566 433.898 10.846C433.889 11.1167 433.875 11.3313 433.856 11.49H433.926C434.141 11.1727 434.435 10.9067 434.808 10.692C435.181 10.4773 435.662 10.37 436.25 10.37C437.183 10.37 437.93 10.6967 438.49 11.35C439.059 11.994 439.344 12.96 439.344 14.248C439.344 15.1067 439.213 15.8253 438.952 16.404C438.7 16.9827 438.341 17.4167 437.874 17.706C437.407 17.9953 436.866 18.14 436.25 18.14C435.662 18.14 435.181 18.0327 434.808 17.818C434.435 17.6033 434.141 17.3467 433.926 17.048H433.828L433.576 18H432.694V7.36H433.926V9.95ZM436.04 11.392C435.508 11.392 435.088 11.4947 434.78 11.7C434.472 11.896 434.253 12.204 434.122 12.624C433.991 13.0347 433.926 13.562 433.926 14.206V14.262C433.926 15.186 434.075 15.8953 434.374 16.39C434.682 16.8753 435.247 17.118 436.068 17.118C436.74 17.118 437.239 16.8707 437.566 16.376C437.902 15.8813 438.07 15.1673 438.07 14.234C438.07 13.2913 437.902 12.582 437.566 12.106C437.239 11.63 436.731 11.392 436.04 11.392ZM447.397 18H440.789V16.978L443.407 14.332C443.911 13.828 444.336 13.38 444.681 12.988C445.027 12.596 445.288 12.2133 445.465 11.84C445.643 11.4573 445.731 11.042 445.731 10.594C445.731 10.0433 445.568 9.628 445.241 9.348C444.915 9.05867 444.49 8.914 443.967 8.914C443.482 8.914 443.053 8.998 442.679 9.166C442.315 9.334 441.942 9.56733 441.559 9.866L440.901 9.04C441.163 8.816 441.447 8.61533 441.755 8.438C442.073 8.26067 442.413 8.12067 442.777 8.018C443.151 7.91533 443.547 7.864 443.967 7.864C444.593 7.864 445.129 7.97133 445.577 8.186C446.025 8.40067 446.371 8.70867 446.613 9.11C446.865 9.502 446.991 9.97333 446.991 10.524C446.991 10.916 446.931 11.2893 446.809 11.644C446.688 11.9893 446.515 12.33 446.291 12.666C446.067 13.002 445.797 13.3427 445.479 13.688C445.162 14.0333 444.812 14.3927 444.429 14.766L442.343 16.824V16.88H447.397V18ZM455.409 12.274C455.409 12.8433 455.367 13.4127 455.283 13.982C455.208 14.542 455.073 15.074 454.877 15.578C454.681 16.0727 454.41 16.516 454.065 16.908C453.72 17.2907 453.281 17.594 452.749 17.818C452.217 18.0327 451.573 18.14 450.817 18.14C450.63 18.14 450.411 18.126 450.159 18.098C449.916 18.0793 449.716 18.0467 449.557 18V16.95C449.725 17.006 449.921 17.0527 450.145 17.09C450.369 17.118 450.584 17.132 450.789 17.132C451.442 17.132 451.979 17.0247 452.399 16.81C452.828 16.5953 453.169 16.306 453.421 15.942C453.673 15.5687 453.855 15.1393 453.967 14.654C454.079 14.1593 454.144 13.6413 454.163 13.1H454.079C453.939 13.3147 453.762 13.5107 453.547 13.688C453.332 13.8653 453.071 14.0053 452.763 14.108C452.464 14.2107 452.11 14.262 451.699 14.262C451.13 14.262 450.626 14.1453 450.187 13.912C449.758 13.6693 449.422 13.324 449.179 12.876C448.946 12.428 448.829 11.882 448.829 11.238C448.829 10.538 448.96 9.936 449.221 9.432C449.492 8.928 449.865 8.54067 450.341 8.27C450.817 7.99933 451.377 7.864 452.021 7.864C452.497 7.864 452.94 7.95733 453.351 8.144C453.762 8.32133 454.121 8.592 454.429 8.956C454.737 9.32 454.975 9.77733 455.143 10.328C455.32 10.8787 455.409 11.5273 455.409 12.274ZM452.021 8.9C451.442 8.9 450.966 9.09133 450.593 9.474C450.229 9.85667 450.047 10.44 450.047 11.224C450.047 11.868 450.201 12.3767 450.509 12.75C450.826 13.114 451.312 13.296 451.965 13.296C452.413 13.296 452.8 13.2073 453.127 13.03C453.454 12.8433 453.706 12.61 453.883 12.33C454.07 12.05 454.163 11.7607 454.163 11.462C454.163 11.1633 454.116 10.8647 454.023 10.566C453.939 10.258 453.808 9.978 453.631 9.726C453.454 9.474 453.23 9.27333 452.959 9.124C452.688 8.97467 452.376 8.9 452.021 8.9ZM460.131 7.864C460.719 7.864 461.237 7.95733 461.685 8.144C462.133 8.32133 462.483 8.58733 462.735 8.942C462.996 9.29667 463.127 9.73533 463.127 10.258C463.127 10.6593 463.038 11.0093 462.861 11.308C462.693 11.6067 462.464 11.8727 462.175 12.106C461.885 12.33 461.568 12.5307 461.223 12.708C461.633 12.904 462.007 13.128 462.343 13.38C462.679 13.6227 462.945 13.9073 463.141 14.234C463.346 14.5607 463.449 14.9527 463.449 15.41C463.449 15.97 463.313 16.4553 463.043 16.866C462.772 17.2673 462.389 17.58 461.895 17.804C461.409 18.028 460.835 18.14 460.173 18.14C459.454 18.14 458.843 18.0327 458.339 17.818C457.844 17.6033 457.466 17.3 457.205 16.908C456.953 16.5067 456.827 16.0213 456.827 15.452C456.827 14.9947 456.92 14.598 457.107 14.262C457.303 13.926 457.559 13.6367 457.877 13.394C458.194 13.1513 458.535 12.946 458.899 12.778C458.572 12.5913 458.273 12.3813 458.003 12.148C457.741 11.9053 457.531 11.63 457.373 11.322C457.223 11.014 457.149 10.6547 457.149 10.244C457.149 9.73067 457.279 9.30133 457.541 8.956C457.802 8.60133 458.157 8.33067 458.605 8.144C459.053 7.95733 459.561 7.864 460.131 7.864ZM458.031 15.466C458.031 15.9513 458.203 16.3573 458.549 16.684C458.894 17.0013 459.426 17.16 460.145 17.16C460.602 17.16 460.985 17.0853 461.293 16.936C461.601 16.7867 461.834 16.5813 461.993 16.32C462.161 16.0587 462.245 15.76 462.245 15.424C462.245 15.0973 462.156 14.8127 461.979 14.57C461.811 14.318 461.568 14.094 461.251 13.898C460.943 13.702 460.574 13.5247 460.145 13.366L459.921 13.282C459.51 13.4593 459.165 13.6507 458.885 13.856C458.605 14.0613 458.39 14.2947 458.241 14.556C458.101 14.8173 458.031 15.1207 458.031 15.466ZM460.117 8.858C459.603 8.858 459.179 8.984 458.843 9.236C458.516 9.47867 458.353 9.83333 458.353 10.3C458.353 10.6453 458.432 10.9347 458.591 11.168C458.759 11.4013 458.983 11.602 459.263 11.77C459.543 11.9287 459.851 12.0827 460.187 12.232C460.513 12.092 460.803 11.938 461.055 11.77C461.316 11.602 461.521 11.4013 461.671 11.168C461.829 10.9253 461.909 10.636 461.909 10.3C461.909 9.83333 461.745 9.47867 461.419 9.236C461.092 8.984 460.658 8.858 460.117 8.858ZM471.782 18L470.578 14.906H466.616L465.426 18H464.152L468.058 7.962H469.192L473.084 18H471.782ZM469.08 10.762C469.052 10.6873 469.006 10.552 468.94 10.356C468.875 10.16 468.81 9.95933 468.744 9.754C468.688 9.53933 468.642 9.376 468.604 9.264C468.558 9.45067 468.506 9.642 468.45 9.838C468.404 10.0247 468.352 10.1973 468.296 10.356C468.25 10.5147 468.208 10.65 468.17 10.762L467.036 13.786H470.2L469.08 10.762ZM477.308 8.004C478.138 8.004 478.834 8.08333 479.394 8.242C479.963 8.40067 480.388 8.662 480.668 9.026C480.957 9.39 481.102 9.87533 481.102 10.482C481.102 10.874 481.027 11.224 480.878 11.532C480.738 11.8307 480.523 12.0827 480.234 12.288C479.954 12.484 479.608 12.6193 479.198 12.694V12.764C479.618 12.8293 479.996 12.9507 480.332 13.128C480.677 13.3053 480.948 13.5573 481.144 13.884C481.34 14.2107 481.438 14.6353 481.438 15.158C481.438 15.7647 481.298 16.2827 481.018 16.712C480.738 17.132 480.336 17.454 479.814 17.678C479.3 17.8927 478.684 18 477.966 18H474.452V8.004H477.308ZM477.56 12.26C478.418 12.26 479.006 12.1247 479.324 11.854C479.641 11.574 479.8 11.1633 479.8 10.622C479.8 10.0713 479.604 9.67933 479.212 9.446C478.829 9.20333 478.213 9.082 477.364 9.082H475.712V12.26H477.56ZM475.712 13.31V16.936H477.728C478.614 16.936 479.23 16.7633 479.576 16.418C479.921 16.0727 480.094 15.62 480.094 15.06C480.094 14.7053 480.014 14.3973 479.856 14.136C479.706 13.8747 479.45 13.674 479.086 13.534C478.731 13.3847 478.246 13.31 477.63 13.31H475.712ZM484.817 18H483.557V8.004H489.143V9.11H484.817V12.652H488.877V13.758H484.817V18ZM497.187 15.732H495.731V18H494.541V15.732H489.753V14.682L494.457 7.948H495.731V14.626H497.187V15.732ZM494.541 11.476C494.541 11.2333 494.541 11.014 494.541 10.818C494.55 10.6127 494.56 10.4213 494.569 10.244C494.578 10.0667 494.583 9.89867 494.583 9.74C494.592 9.572 494.602 9.41333 494.611 9.264H494.555C494.48 9.44133 494.387 9.63267 494.275 9.838C494.163 10.0433 494.056 10.216 493.953 10.356L490.957 14.626H494.541V11.476ZM504.751 12.274C504.751 12.8433 504.709 13.4127 504.625 13.982C504.55 14.542 504.415 15.074 504.219 15.578C504.023 16.0727 503.752 16.516 503.407 16.908C503.061 17.2907 502.623 17.594 502.091 17.818C501.559 18.0327 500.915 18.14 500.159 18.14C499.972 18.14 499.753 18.126 499.501 18.098C499.258 18.0793 499.057 18.0467 498.899 18V16.95C499.067 17.006 499.263 17.0527 499.487 17.09C499.711 17.118 499.925 17.132 500.131 17.132C500.784 17.132 501.321 17.0247 501.741 16.81C502.17 16.5953 502.511 16.306 502.763 15.942C503.015 15.5687 503.197 15.1393 503.309 14.654C503.421 14.1593 503.486 13.6413 503.505 13.1H503.421C503.281 13.3147 503.103 13.5107 502.889 13.688C502.674 13.8653 502.413 14.0053 502.105 14.108C501.806 14.2107 501.451 14.262 501.041 14.262C500.471 14.262 499.967 14.1453 499.529 13.912C499.099 13.6693 498.763 13.324 498.521 12.876C498.287 12.428 498.171 11.882 498.171 11.238C498.171 10.538 498.301 9.936 498.563 9.432C498.833 8.928 499.207 8.54067 499.683 8.27C500.159 7.99933 500.719 7.864 501.363 7.864C501.839 7.864 502.282 7.95733 502.693 8.144C503.103 8.32133 503.463 8.592 503.771 8.956C504.079 9.32 504.317 9.77733 504.485 10.328C504.662 10.8787 504.751 11.5273 504.751 12.274ZM501.363 8.9C500.784 8.9 500.308 9.09133 499.935 9.474C499.571 9.85667 499.389 10.44 499.389 11.224C499.389 11.868 499.543 12.3767 499.851 12.75C500.168 13.114 500.653 13.296 501.307 13.296C501.755 13.296 502.142 13.2073 502.469 13.03C502.795 12.8433 503.047 12.61 503.225 12.33C503.411 12.05 503.505 11.7607 503.505 11.462C503.505 11.1633 503.458 10.8647 503.365 10.566C503.281 10.258 503.15 9.978 502.973 9.726C502.795 9.474 502.571 9.27333 502.301 9.124C502.03 8.97467 501.717 8.9 501.363 8.9ZM509.514 10.37C510.429 10.37 511.106 10.5707 511.544 10.972C511.983 11.3733 512.202 12.0127 512.202 12.89V18H511.306L511.068 16.936H511.012C510.798 17.2067 510.574 17.4353 510.34 17.622C510.116 17.7993 509.855 17.93 509.556 18.014C509.267 18.098 508.912 18.14 508.492 18.14C508.044 18.14 507.638 18.0607 507.274 17.902C506.92 17.7433 506.64 17.5007 506.434 17.174C506.229 16.838 506.126 16.418 506.126 15.914C506.126 15.1673 506.42 14.5933 507.008 14.192C507.596 13.7813 508.502 13.5573 509.724 13.52L510.998 13.478V13.03C510.998 12.4047 510.863 11.9707 510.592 11.728C510.322 11.4853 509.939 11.364 509.444 11.364C509.052 11.364 508.679 11.4247 508.324 11.546C507.97 11.658 507.638 11.7887 507.33 11.938L506.952 11.014C507.279 10.8367 507.666 10.6873 508.114 10.566C508.562 10.4353 509.029 10.37 509.514 10.37ZM509.878 14.374C508.945 14.4113 508.296 14.5607 507.932 14.822C507.578 15.0833 507.4 15.452 507.4 15.928C507.4 16.348 507.526 16.656 507.778 16.852C508.04 17.048 508.371 17.146 508.772 17.146C509.407 17.146 509.934 16.9733 510.354 16.628C510.774 16.2733 510.984 15.732 510.984 15.004V14.332L509.878 14.374ZM518.3 18H517.096V11.014C517.096 10.7433 517.096 10.5147 517.096 10.328C517.105 10.1413 517.115 9.96867 517.124 9.81C517.133 9.642 517.143 9.46933 517.152 9.292C517.003 9.44133 516.867 9.56733 516.746 9.67C516.625 9.77267 516.471 9.90333 516.284 10.062L515.22 10.93L514.576 10.104L517.278 8.004H518.3V18ZM528.972 18L527.768 14.906H523.806L522.616 18H521.342L525.248 7.962H526.382L530.274 18H528.972ZM526.27 10.762C526.242 10.6873 526.195 10.552 526.13 10.356C526.064 10.16 525.999 9.95933 525.934 9.754C525.878 9.53933 525.831 9.376 525.794 9.264C525.747 9.45067 525.696 9.642 525.64 9.838C525.593 10.0247 525.542 10.1973 525.486 10.356C525.439 10.5147 525.397 10.65 525.36 10.762L524.226 13.786H527.39L526.27 10.762ZM532.705 9.95C532.705 10.2673 532.696 10.566 532.677 10.846C532.668 11.1167 532.654 11.3313 532.635 11.49H532.705C532.92 11.1727 533.214 10.9067 533.587 10.692C533.961 10.4773 534.441 10.37 535.029 10.37C535.963 10.37 536.709 10.6967 537.269 11.35C537.839 11.994 538.123 12.96 538.123 14.248C538.123 15.1067 537.993 15.8253 537.731 16.404C537.479 16.9827 537.12 17.4167 536.653 17.706C536.187 17.9953 535.645 18.14 535.029 18.14C534.441 18.14 533.961 18.0327 533.587 17.818C533.214 17.6033 532.92 17.3467 532.705 17.048H532.607L532.355 18H531.473V7.36H532.705V9.95ZM534.819 11.392C534.287 11.392 533.867 11.4947 533.559 11.7C533.251 11.896 533.032 12.204 532.901 12.624C532.771 13.0347 532.705 13.562 532.705 14.206V14.262C532.705 15.186 532.855 15.8953 533.153 16.39C533.461 16.8753 534.026 17.118 534.847 17.118C535.519 17.118 536.019 16.8707 536.345 16.376C536.681 15.8813 536.849 15.1673 536.849 14.234C536.849 13.2913 536.681 12.582 536.345 12.106C536.019 11.63 535.51 11.392 534.819 11.392ZM539.666 13.73C539.666 13.1513 539.704 12.582 539.778 12.022C539.862 11.462 540.002 10.9347 540.198 10.44C540.394 9.936 540.665 9.49267 541.01 9.11C541.356 8.718 541.79 8.41467 542.312 8.2C542.844 7.976 543.488 7.864 544.244 7.864C544.44 7.864 544.655 7.87333 544.888 7.892C545.131 7.91067 545.327 7.94333 545.476 7.99V9.04C545.308 8.984 545.117 8.942 544.902 8.914C544.697 8.886 544.487 8.872 544.272 8.872C543.628 8.872 543.092 8.97933 542.662 9.194C542.233 9.40867 541.892 9.70267 541.64 10.076C541.398 10.4493 541.22 10.8787 541.108 11.364C540.996 11.8493 540.926 12.3673 540.898 12.918H540.982C541.122 12.694 541.3 12.4933 541.514 12.316C541.729 12.1387 541.986 11.9987 542.284 11.896C542.592 11.7933 542.947 11.742 543.348 11.742C543.927 11.742 544.431 11.8633 544.86 12.106C545.299 12.3393 545.64 12.6847 545.882 13.142C546.125 13.59 546.246 14.136 546.246 14.78C546.246 15.4707 546.116 16.068 545.854 16.572C545.593 17.076 545.224 17.4633 544.748 17.734C544.282 18.0047 543.722 18.14 543.068 18.14C542.592 18.14 542.149 18.0513 541.738 17.874C541.328 17.6967 540.964 17.426 540.646 17.062C540.338 16.698 540.096 16.2407 539.918 15.69C539.75 15.13 539.666 14.4767 539.666 13.73ZM543.054 17.104C543.642 17.104 544.118 16.9173 544.482 16.544C544.846 16.1613 545.028 15.5733 545.028 14.78C545.028 14.1453 544.865 13.6413 544.538 13.268C544.221 12.8947 543.74 12.708 543.096 12.708C542.658 12.708 542.275 12.8013 541.948 12.988C541.622 13.1653 541.365 13.394 541.178 13.674C541.001 13.954 540.912 14.2433 540.912 14.542C540.912 14.85 540.954 15.1533 541.038 15.452C541.132 15.7507 541.267 16.026 541.444 16.278C541.631 16.53 541.855 16.7307 542.116 16.88C542.387 17.0293 542.7 17.104 543.054 17.104ZM554.188 18H547.58V16.978L550.198 14.332C550.702 13.828 551.127 13.38 551.472 12.988C551.818 12.596 552.079 12.2133 552.256 11.84C552.434 11.4573 552.522 11.042 552.522 10.594C552.522 10.0433 552.359 9.628 552.032 9.348C551.706 9.05867 551.281 8.914 550.758 8.914C550.273 8.914 549.844 8.998 549.47 9.166C549.106 9.334 548.733 9.56733 548.35 9.866L547.692 9.04C547.954 8.816 548.238 8.61533 548.546 8.438C548.864 8.26067 549.204 8.12067 549.568 8.018C549.942 7.91533 550.338 7.864 550.758 7.864C551.384 7.864 551.92 7.97133 552.368 8.186C552.816 8.40067 553.162 8.70867 553.404 9.11C553.656 9.502 553.782 9.97333 553.782 10.524C553.782 10.916 553.722 11.2893 553.6 11.644C553.479 11.9893 553.306 12.33 553.082 12.666C552.858 13.002 552.588 13.3427 552.27 13.688C551.953 14.0333 551.603 14.3927 551.22 14.766L549.134 16.824V16.88H554.188V18ZM556.824 18L560.926 9.124H555.536V8.004H562.242V8.956L558.182 18H556.824ZM566.922 7.864C567.51 7.864 568.028 7.95733 568.476 8.144C568.924 8.32133 569.274 8.58733 569.526 8.942C569.787 9.29667 569.918 9.73533 569.918 10.258C569.918 10.6593 569.829 11.0093 569.652 11.308C569.484 11.6067 569.255 11.8727 568.966 12.106C568.676 12.33 568.359 12.5307 568.014 12.708C568.424 12.904 568.798 13.128 569.134 13.38C569.47 13.6227 569.736 13.9073 569.932 14.234C570.137 14.5607 570.24 14.9527 570.24 15.41C570.24 15.97 570.104 16.4553 569.834 16.866C569.563 17.2673 569.18 17.58 568.686 17.804C568.2 18.028 567.626 18.14 566.964 18.14C566.245 18.14 565.634 18.0327 565.13 17.818C564.635 17.6033 564.257 17.3 563.996 16.908C563.744 16.5067 563.618 16.0213 563.618 15.452C563.618 14.9947 563.711 14.598 563.898 14.262C564.094 13.926 564.35 13.6367 564.668 13.394C564.985 13.1513 565.326 12.946 565.69 12.778C565.363 12.5913 565.064 12.3813 564.794 12.148C564.532 11.9053 564.322 11.63 564.164 11.322C564.014 11.014 563.94 10.6547 563.94 10.244C563.94 9.73067 564.07 9.30133 564.332 8.956C564.593 8.60133 564.948 8.33067 565.396 8.144C565.844 7.95733 566.352 7.864 566.922 7.864ZM564.822 15.466C564.822 15.9513 564.994 16.3573 565.34 16.684C565.685 17.0013 566.217 17.16 566.936 17.16C567.393 17.16 567.776 17.0853 568.084 16.936C568.392 16.7867 568.625 16.5813 568.784 16.32C568.952 16.0587 569.036 15.76 569.036 15.424C569.036 15.0973 568.947 14.8127 568.77 14.57C568.602 14.318 568.359 14.094 568.042 13.898C567.734 13.702 567.365 13.5247 566.936 13.366L566.712 13.282C566.301 13.4593 565.956 13.6507 565.676 13.856C565.396 14.0613 565.181 14.2947 565.032 14.556C564.892 14.8173 564.822 15.1207 564.822 15.466ZM566.908 8.858C566.394 8.858 565.97 8.984 565.634 9.236C565.307 9.47867 565.144 9.83333 565.144 10.3C565.144 10.6453 565.223 10.9347 565.382 11.168C565.55 11.4013 565.774 11.602 566.054 11.77C566.334 11.9287 566.642 12.0827 566.978 12.232C567.304 12.092 567.594 11.938 567.846 11.77C568.107 11.602 568.312 11.4013 568.462 11.168C568.62 10.9253 568.7 10.636 568.7 10.3C568.7 9.83333 568.536 9.47867 568.21 9.236C567.883 8.984 567.449 8.858 566.908 8.858Z" fill="#555555"/>
</svg>
