<svg width="571" height="25" viewBox="0 0 571 25" fill="none" xmlns="http://www.w3.org/2000/svg">
<rect width="468.233" height="25" fill="#555555"/>
<rect x="202.237" width="368.609" height="25" fill="#F1B90A"/>
<path d="M21.037 18H19.777V9.11H16.655V8.004H24.145V9.11H21.037V18ZM27.398 10.356C28.042 10.356 28.5926 10.496 29.05 10.776C29.5166 11.056 29.8713 11.4527 30.114 11.966C30.366 12.47 30.492 13.0627 30.492 13.744V14.486H25.354C25.3726 15.3353 25.5873 15.984 25.998 16.432C26.418 16.8707 27.0013 17.09 27.748 17.09C28.224 17.09 28.644 17.048 29.008 16.964C29.3813 16.8707 29.764 16.74 30.156 16.572V17.65C29.7733 17.818 29.3953 17.9393 29.022 18.014C28.6486 18.098 28.2053 18.14 27.692 18.14C26.9826 18.14 26.3526 17.9953 25.802 17.706C25.2606 17.4167 24.836 16.9873 24.528 16.418C24.2293 15.8393 24.08 15.1347 24.08 14.304C24.08 13.4827 24.2153 12.778 24.486 12.19C24.766 11.602 25.1533 11.1493 25.648 10.832C26.152 10.5147 26.7353 10.356 27.398 10.356ZM27.384 11.364C26.796 11.364 26.3293 11.5553 25.984 11.938C25.648 12.3113 25.4473 12.834 25.382 13.506H29.204C29.204 13.0767 29.1386 12.7033 29.008 12.386C28.8773 12.0687 28.6766 11.8213 28.406 11.644C28.1446 11.4573 27.804 11.364 27.384 11.364ZM34.9083 17.132C35.095 17.132 35.2863 17.118 35.4823 17.09C35.6783 17.0527 35.837 17.0153 35.9583 16.978V17.916C35.8276 17.9813 35.641 18.0327 35.3983 18.07C35.1556 18.1167 34.9223 18.14 34.6983 18.14C34.3063 18.14 33.9423 18.0747 33.6063 17.944C33.2796 17.804 33.0136 17.566 32.8083 17.23C32.603 16.894 32.5003 16.4227 32.5003 15.816V11.448H31.4363V10.86L32.5143 10.37L33.0043 8.774H33.7323V10.496H35.9023V11.448H33.7323V15.788C33.7323 16.2453 33.8396 16.586 34.0543 16.81C34.2783 17.0247 34.563 17.132 34.9083 17.132ZM38.6929 10.482C38.6929 10.6593 38.6836 10.8413 38.6649 11.028C38.6556 11.2147 38.6416 11.3827 38.6229 11.532H38.7069C38.8656 11.2707 39.0662 11.056 39.3089 10.888C39.5516 10.72 39.8222 10.594 40.1209 10.51C40.4196 10.4167 40.7276 10.37 41.0449 10.37C41.6516 10.37 42.1556 10.468 42.5569 10.664C42.9676 10.8507 43.2756 11.1447 43.4809 11.546C43.6862 11.9473 43.7889 12.47 43.7889 13.114V18H42.5709V13.198C42.5709 12.5913 42.4356 12.1387 42.1649 11.84C41.8942 11.5413 41.4696 11.392 40.8909 11.392C40.3309 11.392 39.8922 11.4993 39.5749 11.714C39.2576 11.9193 39.0289 12.2273 38.8889 12.638C38.7582 13.0393 38.6929 13.534 38.6929 14.122V18H37.4609V7.36H38.6929V10.482ZM49.0132 10.356C49.6572 10.356 50.2079 10.496 50.6652 10.776C51.1319 11.056 51.4865 11.4527 51.7292 11.966C51.9812 12.47 52.1072 13.0627 52.1072 13.744V14.486H46.9692C46.9879 15.3353 47.2025 15.984 47.6132 16.432C48.0332 16.8707 48.6165 17.09 49.3632 17.09C49.8392 17.09 50.2592 17.048 50.6232 16.964C50.9965 16.8707 51.3792 16.74 51.7712 16.572V17.65C51.3885 17.818 51.0105 17.9393 50.6372 18.014C50.2639 18.098 49.8205 18.14 49.3072 18.14C48.5979 18.14 47.9679 17.9953 47.4172 17.706C46.8759 17.4167 46.4512 16.9873 46.1432 16.418C45.8445 15.8393 45.6952 15.1347 45.6952 14.304C45.6952 13.4827 45.8305 12.778 46.1012 12.19C46.3812 11.602 46.7685 11.1493 47.2632 10.832C47.7672 10.5147 48.3505 10.356 49.0132 10.356ZM48.9992 11.364C48.4112 11.364 47.9445 11.5553 47.5992 11.938C47.2632 12.3113 47.0625 12.834 46.9972 13.506H50.8192C50.8192 13.0767 50.7539 12.7033 50.6232 12.386C50.4925 12.0687 50.2919 11.8213 50.0212 11.644C49.7599 11.4573 49.4192 11.364 48.9992 11.364ZM57.5175 10.356C57.6575 10.356 57.8069 10.3653 57.9655 10.384C58.1335 10.3933 58.2782 10.412 58.3995 10.44L58.2455 11.574C58.1242 11.546 57.9889 11.5227 57.8395 11.504C57.6995 11.4853 57.5642 11.476 57.4335 11.476C57.1442 11.476 56.8689 11.5367 56.6075 11.658C56.3462 11.7793 56.1129 11.952 55.9075 12.176C55.7022 12.3907 55.5389 12.652 55.4175 12.96C55.3055 13.268 55.2495 13.6133 55.2495 13.996V18H54.0175V10.496H55.0255L55.1655 11.868H55.2215C55.3802 11.588 55.5715 11.336 55.7955 11.112C56.0195 10.8787 56.2762 10.6967 56.5655 10.566C56.8549 10.426 57.1722 10.356 57.5175 10.356ZM71.2075 14.472C71.2075 15.1627 71.0675 15.788 70.7875 16.348C70.5075 16.8987 70.0781 17.3373 69.4995 17.664C68.9301 17.9813 68.2021 18.14 67.3155 18.14C66.0741 18.14 65.1268 17.804 64.4735 17.132C63.8295 16.4507 63.5075 15.5547 63.5075 14.444V8.004H64.7675V14.486C64.7675 15.298 64.9821 15.928 65.4115 16.376C65.8501 16.824 66.5081 17.048 67.3855 17.048C67.9921 17.048 68.4821 16.9407 68.8555 16.726C69.2381 16.502 69.5181 16.1987 69.6955 15.816C69.8728 15.424 69.9615 14.976 69.9615 14.472V8.004H71.2075V14.472ZM79.5157 15.326C79.5157 15.9233 79.371 16.432 79.0817 16.852C78.7924 17.2627 78.377 17.58 77.8357 17.804C77.3037 18.028 76.6737 18.14 75.9457 18.14C75.5724 18.14 75.213 18.1213 74.8677 18.084C74.5317 18.0467 74.2237 17.9953 73.9437 17.93C73.6637 17.8553 73.4164 17.7667 73.2017 17.664V16.46C73.5377 16.6093 73.953 16.7447 74.4477 16.866C74.9517 16.9873 75.4697 17.048 76.0017 17.048C76.4964 17.048 76.9117 16.9827 77.2477 16.852C77.5837 16.7213 77.8357 16.5347 78.0037 16.292C78.1717 16.0493 78.2557 15.7647 78.2557 15.438C78.2557 15.1113 78.1857 14.836 78.0457 14.612C77.9057 14.388 77.663 14.1827 77.3177 13.996C76.9817 13.8 76.5104 13.5947 75.9037 13.38C75.4744 13.2213 75.0964 13.0533 74.7697 12.876C74.4524 12.6893 74.1864 12.4793 73.9717 12.246C73.757 12.0127 73.5937 11.7467 73.4817 11.448C73.379 11.1493 73.3277 10.804 73.3277 10.412C73.3277 9.88 73.463 9.42733 73.7337 9.054C74.0044 8.67133 74.3777 8.37733 74.8537 8.172C75.339 7.96667 75.8944 7.864 76.5197 7.864C77.0704 7.864 77.5744 7.91533 78.0317 8.018C78.489 8.12067 78.9044 8.256 79.2777 8.424L78.8857 9.502C78.5404 9.35267 78.1624 9.22667 77.7517 9.124C77.3504 9.02133 76.9304 8.97 76.4917 8.97C76.0717 8.97 75.7217 9.03067 75.4417 9.152C75.1617 9.27333 74.9517 9.446 74.8117 9.67C74.6717 9.88467 74.6017 10.1367 74.6017 10.426C74.6017 10.762 74.6717 11.042 74.8117 11.266C74.9517 11.49 75.1804 11.6907 75.4977 11.868C75.815 12.0453 76.2444 12.2367 76.7857 12.442C77.3737 12.6567 77.8684 12.89 78.2697 13.142C78.6804 13.3847 78.9884 13.6787 79.1937 14.024C79.4084 14.3693 79.5157 14.8033 79.5157 15.326ZM89.5373 12.904C89.5373 14.024 89.3273 14.962 88.9073 15.718C88.4966 16.474 87.904 17.0433 87.1293 17.426C86.3546 17.8087 85.4166 18 84.3153 18H81.5293V8.004H84.6093C85.6173 8.004 86.49 8.19067 87.2273 8.564C87.9646 8.93733 88.534 9.488 88.9353 10.216C89.3366 10.9347 89.5373 11.8307 89.5373 12.904ZM88.2073 12.946C88.2073 12.0593 88.058 11.3313 87.7593 10.762C87.47 10.1927 87.0406 9.77267 86.4713 9.502C85.9113 9.222 85.23 9.082 84.4273 9.082H82.7893V16.922H84.1473C85.5006 16.922 86.5133 16.5907 87.1853 15.928C87.8666 15.256 88.2073 14.262 88.2073 12.946ZM94.496 18H93.236V9.11H90.114V8.004H97.604V9.11H94.496V18ZM101.95 14.164C101.95 13.3987 102.02 12.652 102.16 11.924C102.309 11.196 102.538 10.5007 102.846 9.838C103.154 9.17533 103.541 8.564 104.008 8.004H105.17C104.741 8.58267 104.377 9.208 104.078 9.88C103.789 10.552 103.569 11.2473 103.42 11.966C103.271 12.6847 103.196 13.4127 103.196 14.15C103.196 14.8687 103.271 15.5827 103.42 16.292C103.569 17.0013 103.789 17.6827 104.078 18.336C104.367 18.9987 104.727 19.624 105.156 20.212H104.008C103.541 19.6613 103.154 19.0593 102.846 18.406C102.538 17.762 102.309 17.0807 102.16 16.362C102.02 15.6433 101.95 14.9107 101.95 14.164ZM113.438 8.004C114.269 8.004 114.964 8.08333 115.524 8.242C116.093 8.40067 116.518 8.662 116.798 9.026C117.087 9.39 117.232 9.87533 117.232 10.482C117.232 10.874 117.157 11.224 117.008 11.532C116.868 11.8307 116.653 12.0827 116.364 12.288C116.084 12.484 115.739 12.6193 115.328 12.694V12.764C115.748 12.8293 116.126 12.9507 116.462 13.128C116.807 13.3053 117.078 13.5573 117.274 13.884C117.47 14.2107 117.568 14.6353 117.568 15.158C117.568 15.7647 117.428 16.2827 117.148 16.712C116.868 17.132 116.467 17.454 115.944 17.678C115.431 17.8927 114.815 18 114.096 18H110.582V8.004H113.438ZM113.69 12.26C114.549 12.26 115.137 12.1247 115.454 11.854C115.771 11.574 115.93 11.1633 115.93 10.622C115.93 10.0713 115.734 9.67933 115.342 9.446C114.959 9.20333 114.343 9.082 113.494 9.082H111.842V12.26H113.69ZM111.842 13.31V16.936H113.858C114.745 16.936 115.361 16.7633 115.706 16.418C116.051 16.0727 116.224 15.62 116.224 15.06C116.224 14.7053 116.145 14.3973 115.986 14.136C115.837 13.8747 115.58 13.674 115.216 13.534C114.861 13.3847 114.376 13.31 113.76 13.31H111.842ZM125.357 15.326C125.357 15.9233 125.213 16.432 124.923 16.852C124.634 17.2627 124.219 17.58 123.677 17.804C123.145 18.028 122.515 18.14 121.787 18.14C121.414 18.14 121.055 18.1213 120.709 18.084C120.373 18.0467 120.065 17.9953 119.785 17.93C119.505 17.8553 119.258 17.7667 119.043 17.664V16.46C119.379 16.6093 119.795 16.7447 120.289 16.866C120.793 16.9873 121.311 17.048 121.843 17.048C122.338 17.048 122.753 16.9827 123.089 16.852C123.425 16.7213 123.677 16.5347 123.845 16.292C124.013 16.0493 124.097 15.7647 124.097 15.438C124.097 15.1113 124.027 14.836 123.887 14.612C123.747 14.388 123.505 14.1827 123.159 13.996C122.823 13.8 122.352 13.5947 121.745 13.38C121.316 13.2213 120.938 13.0533 120.611 12.876C120.294 12.6893 120.028 12.4793 119.813 12.246C119.599 12.0127 119.435 11.7467 119.323 11.448C119.221 11.1493 119.169 10.804 119.169 10.412C119.169 9.88 119.305 9.42733 119.575 9.054C119.846 8.67133 120.219 8.37733 120.695 8.172C121.181 7.96667 121.736 7.864 122.361 7.864C122.912 7.864 123.416 7.91533 123.873 8.018C124.331 8.12067 124.746 8.256 125.119 8.424L124.727 9.502C124.382 9.35267 124.004 9.22667 123.593 9.124C123.192 9.02133 122.772 8.97 122.333 8.97C121.913 8.97 121.563 9.03067 121.283 9.152C121.003 9.27333 120.793 9.446 120.653 9.67C120.513 9.88467 120.443 10.1367 120.443 10.426C120.443 10.762 120.513 11.042 120.653 11.266C120.793 11.49 121.022 11.6907 121.339 11.868C121.657 12.0453 122.086 12.2367 122.627 12.442C123.215 12.6567 123.71 12.89 124.111 13.142C124.522 13.3847 124.83 13.6787 125.035 14.024C125.25 14.3693 125.357 14.8033 125.357 15.326ZM131.655 8.97C131.123 8.97 130.642 9.06333 130.213 9.25C129.784 9.42733 129.42 9.69333 129.121 10.048C128.822 10.3933 128.594 10.818 128.435 11.322C128.276 11.8167 128.197 12.3767 128.197 13.002C128.197 13.8233 128.323 14.5373 128.575 15.144C128.836 15.7507 129.219 16.2173 129.723 16.544C130.236 16.8707 130.876 17.034 131.641 17.034C132.08 17.034 132.495 16.9967 132.887 16.922C133.279 16.8473 133.662 16.754 134.035 16.642V17.734C133.662 17.874 133.274 17.9767 132.873 18.042C132.481 18.1073 132.01 18.14 131.459 18.14C130.442 18.14 129.592 17.93 128.911 17.51C128.23 17.09 127.716 16.4927 127.371 15.718C127.035 14.9433 126.867 14.0333 126.867 12.988C126.867 12.232 126.97 11.5413 127.175 10.916C127.39 10.2907 127.698 9.74933 128.099 9.292C128.51 8.83467 129.014 8.48467 129.611 8.242C130.208 7.99 130.894 7.864 131.669 7.864C132.182 7.864 132.677 7.91533 133.153 8.018C133.629 8.12067 134.054 8.26533 134.427 8.452L133.923 9.516C133.615 9.376 133.27 9.25 132.887 9.138C132.514 9.026 132.103 8.97 131.655 8.97ZM142.71 8.004C143.54 8.004 144.236 8.08333 144.796 8.242C145.365 8.40067 145.79 8.662 146.07 9.026C146.359 9.39 146.504 9.87533 146.504 10.482C146.504 10.874 146.429 11.224 146.28 11.532C146.14 11.8307 145.925 12.0827 145.636 12.288C145.356 12.484 145.01 12.6193 144.6 12.694V12.764C145.02 12.8293 145.398 12.9507 145.734 13.128C146.079 13.3053 146.35 13.5573 146.546 13.884C146.742 14.2107 146.84 14.6353 146.84 15.158C146.84 15.7647 146.7 16.2827 146.42 16.712C146.14 17.132 145.738 17.454 145.216 17.678C144.702 17.8927 144.086 18 143.368 18H139.854V8.004H142.71ZM142.962 12.26C143.82 12.26 144.408 12.1247 144.726 11.854C145.043 11.574 145.202 11.1633 145.202 10.622C145.202 10.0713 145.006 9.67933 144.614 9.446C144.231 9.20333 143.615 9.082 142.766 9.082H141.114V12.26H142.962ZM141.114 13.31V16.936H143.13C144.016 16.936 144.632 16.7633 144.978 16.418C145.323 16.0727 145.496 15.62 145.496 15.06C145.496 14.7053 145.416 14.3973 145.258 14.136C145.108 13.8747 144.852 13.674 144.488 13.534C144.133 13.3847 143.648 13.31 143.032 13.31H141.114ZM154.545 18H148.959V8.004H154.545V9.11H150.219V12.232H154.293V13.324H150.219V16.894H154.545V18ZM159.384 8.004C160.691 8.004 161.643 8.26067 162.24 8.774C162.838 9.28733 163.136 10.0107 163.136 10.944C163.136 11.3547 163.066 11.7513 162.926 12.134C162.796 12.5073 162.576 12.8433 162.268 13.142C161.96 13.4407 161.55 13.6787 161.036 13.856C160.523 14.024 159.893 14.108 159.146 14.108H157.998V18H156.738V8.004H159.384ZM159.272 9.082H157.998V13.03H159.006C159.641 13.03 160.168 12.9647 160.588 12.834C161.008 12.694 161.321 12.4747 161.526 12.176C161.732 11.8773 161.834 11.4853 161.834 11C161.834 10.356 161.629 9.87533 161.218 9.558C160.808 9.24067 160.159 9.082 159.272 9.082ZM171.137 18H164.529V16.978L167.147 14.332C167.651 13.828 168.076 13.38 168.421 12.988C168.766 12.596 169.028 12.2133 169.205 11.84C169.382 11.4573 169.471 11.042 169.471 10.594C169.471 10.0433 169.308 9.628 168.981 9.348C168.654 9.05867 168.23 8.914 167.707 8.914C167.222 8.914 166.792 8.998 166.419 9.166C166.055 9.334 165.682 9.56733 165.299 9.866L164.641 9.04C164.902 8.816 165.187 8.61533 165.495 8.438C165.812 8.26067 166.153 8.12067 166.517 8.018C166.89 7.91533 167.287 7.864 167.707 7.864C168.332 7.864 168.869 7.97133 169.317 8.186C169.765 8.40067 170.11 8.70867 170.353 9.11C170.605 9.502 170.731 9.97333 170.731 10.524C170.731 10.916 170.67 11.2893 170.549 11.644C170.428 11.9893 170.255 12.33 170.031 12.666C169.807 13.002 169.536 13.3427 169.219 13.688C168.902 14.0333 168.552 14.3927 168.169 14.766L166.083 16.824V16.88H171.137V18ZM179.191 12.988C179.191 13.8 179.13 14.5233 179.009 15.158C178.887 15.7927 178.691 16.334 178.421 16.782C178.159 17.2207 177.814 17.5567 177.385 17.79C176.965 18.0233 176.456 18.14 175.859 18.14C175.112 18.14 174.491 17.9347 173.997 17.524C173.511 17.1133 173.147 16.5253 172.905 15.76C172.671 14.9853 172.555 14.0613 172.555 12.988C172.555 11.9053 172.662 10.9813 172.877 10.216C173.101 9.45067 173.455 8.86733 173.941 8.466C174.426 8.05533 175.065 7.85 175.859 7.85C176.605 7.85 177.226 8.05533 177.721 8.466C178.215 8.86733 178.584 9.45067 178.827 10.216C179.069 10.9813 179.191 11.9053 179.191 12.988ZM173.787 12.988C173.787 13.9027 173.852 14.6633 173.983 15.27C174.123 15.8767 174.342 16.334 174.641 16.642C174.949 16.9407 175.355 17.09 175.859 17.09C176.363 17.09 176.764 16.9407 177.063 16.642C177.371 16.3433 177.595 15.8907 177.735 15.284C177.875 14.668 177.945 13.9027 177.945 12.988C177.945 12.0733 177.875 11.3173 177.735 10.72C177.595 10.1133 177.371 9.66067 177.063 9.362C176.764 9.054 176.363 8.9 175.859 8.9C175.355 8.9 174.949 9.054 174.641 9.362C174.342 9.66067 174.123 10.1133 173.983 10.72C173.852 11.3173 173.787 12.0733 173.787 12.988ZM187.157 14.164C187.157 14.9107 187.082 15.6433 186.933 16.362C186.793 17.0807 186.569 17.762 186.261 18.406C185.962 19.0593 185.575 19.6613 185.099 20.212H183.951C184.38 19.624 184.74 18.9987 185.029 18.336C185.318 17.6827 185.538 17.0013 185.687 16.292C185.836 15.5827 185.911 14.8687 185.911 14.15C185.911 13.4127 185.836 12.6847 185.687 11.966C185.538 11.2473 185.318 10.552 185.029 9.88C184.74 9.208 184.376 8.58267 183.937 8.004H185.099C185.575 8.564 185.962 9.17533 186.261 9.838C186.569 10.5007 186.793 11.196 186.933 11.924C187.082 12.652 187.157 13.3987 187.157 14.164Z" fill="white"/>
<path d="M224.92 12.988C224.92 13.8 224.859 14.5233 224.738 15.158C224.617 15.7927 224.421 16.334 224.15 16.782C223.889 17.2207 223.543 17.5567 223.114 17.79C222.694 18.0233 222.185 18.14 221.588 18.14C220.841 18.14 220.221 17.9347 219.726 17.524C219.241 17.1133 218.877 16.5253 218.634 15.76C218.401 14.9853 218.284 14.0613 218.284 12.988C218.284 11.9053 218.391 10.9813 218.606 10.216C218.83 9.45067 219.185 8.86733 219.67 8.466C220.155 8.05533 220.795 7.85 221.588 7.85C222.335 7.85 222.955 8.05533 223.45 8.466C223.945 8.86733 224.313 9.45067 224.556 10.216C224.799 10.9813 224.92 11.9053 224.92 12.988ZM219.516 12.988C219.516 13.9027 219.581 14.6633 219.712 15.27C219.852 15.8767 220.071 16.334 220.37 16.642C220.678 16.9407 221.084 17.09 221.588 17.09C222.092 17.09 222.493 16.9407 222.792 16.642C223.1 16.3433 223.324 15.8907 223.464 15.284C223.604 14.668 223.674 13.9027 223.674 12.988C223.674 12.0733 223.604 11.3173 223.464 10.72C223.324 10.1133 223.1 9.66067 222.792 9.362C222.493 9.054 222.092 8.9 221.588 8.9C221.084 8.9 220.678 9.054 220.37 9.362C220.071 9.66067 219.852 10.1133 219.712 10.72C219.581 11.3173 219.516 12.0733 219.516 12.988ZM228.578 14.164L225.988 10.496H227.388L229.32 13.324L231.238 10.496H232.624L230.034 14.164L232.764 18H231.364L229.32 15.004L227.248 18H225.862L228.578 14.164ZM236.87 11.868C237.551 11.868 238.144 11.9847 238.648 12.218C239.152 12.4513 239.539 12.7873 239.81 13.226C240.09 13.6553 240.23 14.1827 240.23 14.808C240.23 15.4987 240.081 16.096 239.782 16.6C239.483 17.0947 239.054 17.4773 238.494 17.748C237.943 18.0093 237.276 18.14 236.492 18.14C235.979 18.14 235.493 18.0933 235.036 18C234.588 17.9067 234.21 17.7713 233.902 17.594V16.432C234.238 16.6373 234.644 16.8007 235.12 16.922C235.605 17.034 236.067 17.09 236.506 17.09C237.001 17.09 237.43 17.0153 237.794 16.866C238.167 16.7073 238.457 16.4693 238.662 16.152C238.867 15.8253 238.97 15.4193 238.97 14.934C238.97 14.2807 238.769 13.7813 238.368 13.436C237.967 13.0813 237.332 12.904 236.464 12.904C236.203 12.904 235.904 12.9273 235.568 12.974C235.232 13.0207 234.961 13.0673 234.756 13.114L234.14 12.722L234.518 8.004H239.53V9.124H235.568L235.33 12.022C235.489 11.994 235.703 11.9613 235.974 11.924C236.245 11.8867 236.543 11.868 236.87 11.868ZM247.976 18H242.39V8.004H247.976V9.11H243.65V12.232H247.724V13.324H243.65V16.894H247.976V18ZM255.755 18H250.169V8.004H255.755V9.11H251.429V12.232H255.503V13.324H251.429V16.894H255.755V18ZM263.87 18H257.262V16.978L259.88 14.332C260.384 13.828 260.809 13.38 261.154 12.988C261.5 12.596 261.761 12.2133 261.938 11.84C262.116 11.4573 262.204 11.042 262.204 10.594C262.204 10.0433 262.041 9.628 261.714 9.348C261.388 9.05867 260.963 8.914 260.44 8.914C259.955 8.914 259.526 8.998 259.152 9.166C258.788 9.334 258.415 9.56733 258.032 9.866L257.374 9.04C257.636 8.816 257.92 8.61533 258.228 8.438C258.546 8.26067 258.886 8.12067 259.25 8.018C259.624 7.91533 260.02 7.864 260.44 7.864C261.066 7.864 261.602 7.97133 262.05 8.186C262.498 8.40067 262.844 8.70867 263.086 9.11C263.338 9.502 263.464 9.97333 263.464 10.524C263.464 10.916 263.404 11.2893 263.282 11.644C263.161 11.9893 262.988 12.33 262.764 12.666C262.54 13.002 262.27 13.3427 261.952 13.688C261.635 14.0333 261.285 14.3927 260.902 14.766L258.816 16.824V16.88H263.87V18ZM271.504 10.342C271.504 10.79 271.42 11.1773 271.252 11.504C271.084 11.8307 270.841 12.0967 270.524 12.302C270.216 12.5073 269.852 12.652 269.432 12.736V12.792C270.235 12.8853 270.832 13.1373 271.224 13.548C271.616 13.9587 271.812 14.4953 271.812 15.158C271.812 15.7367 271.677 16.2547 271.406 16.712C271.135 17.16 270.715 17.51 270.146 17.762C269.586 18.014 268.863 18.14 267.976 18.14C267.453 18.14 266.968 18.098 266.52 18.014C266.072 17.9393 265.643 17.7993 265.232 17.594V16.446C265.652 16.6513 266.105 16.8147 266.59 16.936C267.075 17.048 267.542 17.104 267.99 17.104C268.886 17.104 269.53 16.9313 269.922 16.586C270.323 16.2313 270.524 15.746 270.524 15.13C270.524 14.71 270.412 14.374 270.188 14.122C269.973 13.8607 269.656 13.6693 269.236 13.548C268.816 13.4267 268.312 13.366 267.724 13.366H266.758V12.316H267.738C268.289 12.316 268.746 12.2367 269.11 12.078C269.483 11.9193 269.763 11.7 269.95 11.42C270.146 11.1307 270.244 10.7993 270.244 10.426C270.244 9.94067 270.081 9.56733 269.754 9.306C269.427 9.03533 268.984 8.9 268.424 8.9C268.069 8.9 267.747 8.93733 267.458 9.012C267.169 9.07733 266.898 9.17533 266.646 9.306C266.403 9.42733 266.156 9.572 265.904 9.74L265.288 8.9C265.531 8.71333 265.806 8.54067 266.114 8.382C266.431 8.22333 266.781 8.09733 267.164 8.004C267.547 7.91067 267.962 7.864 268.41 7.864C269.455 7.864 270.23 8.09733 270.734 8.564C271.247 9.03067 271.504 9.62333 271.504 10.342ZM276.464 11.868C277.145 11.868 277.738 11.9847 278.242 12.218C278.746 12.4513 279.133 12.7873 279.404 13.226C279.684 13.6553 279.824 14.1827 279.824 14.808C279.824 15.4987 279.674 16.096 279.376 16.6C279.077 17.0947 278.648 17.4773 278.088 17.748C277.537 18.0093 276.87 18.14 276.086 18.14C275.572 18.14 275.087 18.0933 274.63 18C274.182 17.9067 273.804 17.7713 273.496 17.594V16.432C273.832 16.6373 274.238 16.8007 274.714 16.922C275.199 17.034 275.661 17.09 276.1 17.09C276.594 17.09 277.024 17.0153 277.388 16.866C277.761 16.7073 278.05 16.4693 278.256 16.152C278.461 15.8253 278.564 15.4193 278.564 14.934C278.564 14.2807 278.363 13.7813 277.962 13.436C277.56 13.0813 276.926 12.904 276.058 12.904C275.796 12.904 275.498 12.9273 275.162 12.974C274.826 13.0207 274.555 13.0673 274.35 13.114L273.734 12.722L274.112 8.004H279.124V9.124H275.162L274.924 12.022C275.082 11.994 275.297 11.9613 275.568 11.924C275.838 11.8867 276.137 11.868 276.464 11.868ZM287.569 18H281.983V8.004H287.569V9.11H283.243V12.232H287.317V13.324H283.243V16.894H287.569V18ZM290.309 18L294.411 9.124H289.021V8.004H295.727V8.956L291.667 18H290.309ZM303.738 12.988C303.738 13.8 303.678 14.5233 303.556 15.158C303.435 15.7927 303.239 16.334 302.968 16.782C302.707 17.2207 302.362 17.5567 301.932 17.79C301.512 18.0233 301.004 18.14 300.406 18.14C299.66 18.14 299.039 17.9347 298.544 17.524C298.059 17.1133 297.695 16.5253 297.452 15.76C297.219 14.9853 297.102 14.0613 297.102 12.988C297.102 11.9053 297.21 10.9813 297.424 10.216C297.648 9.45067 298.003 8.86733 298.488 8.466C298.974 8.05533 299.613 7.85 300.406 7.85C301.153 7.85 301.774 8.05533 302.268 8.466C302.763 8.86733 303.132 9.45067 303.374 10.216C303.617 10.9813 303.738 11.9053 303.738 12.988ZM298.334 12.988C298.334 13.9027 298.4 14.6633 298.53 15.27C298.67 15.8767 298.89 16.334 299.188 16.642C299.496 16.9407 299.902 17.09 300.406 17.09C300.91 17.09 301.312 16.9407 301.61 16.642C301.918 16.3433 302.142 15.8907 302.282 15.284C302.422 14.668 302.492 13.9027 302.492 12.988C302.492 12.0733 302.422 11.3173 302.282 10.72C302.142 10.1133 301.918 9.66067 301.61 9.362C301.312 9.054 300.91 8.9 300.406 8.9C299.902 8.9 299.496 9.054 299.188 9.362C298.89 9.66067 298.67 10.1133 298.53 10.72C298.4 11.3173 298.334 12.0733 298.334 12.988ZM308.278 18.14C307.345 18.14 306.598 17.818 306.038 17.174C305.478 16.5207 305.198 15.55 305.198 14.262C305.198 12.974 305.478 12.0033 306.038 11.35C306.607 10.6873 307.359 10.356 308.292 10.356C308.684 10.356 309.025 10.4073 309.314 10.51C309.603 10.6033 309.855 10.734 310.07 10.902C310.285 11.07 310.467 11.2567 310.616 11.462H310.7C310.691 11.3407 310.672 11.1633 310.644 10.93C310.625 10.6873 310.616 10.496 310.616 10.356V7.36H311.848V18H310.854L310.672 16.992H310.616C310.467 17.2067 310.285 17.4027 310.07 17.58C309.855 17.748 309.599 17.8833 309.3 17.986C309.011 18.0887 308.67 18.14 308.278 18.14ZM308.474 17.118C309.267 17.118 309.823 16.9033 310.14 16.474C310.467 16.0353 310.63 15.3773 310.63 14.5V14.276C310.63 13.3427 310.476 12.6287 310.168 12.134C309.86 11.63 309.291 11.378 308.46 11.378C307.797 11.378 307.298 11.644 306.962 12.176C306.635 12.6987 306.472 13.4033 306.472 14.29C306.472 15.186 306.635 15.8813 306.962 16.376C307.298 16.8707 307.802 17.118 308.474 17.118ZM315.659 18H314.399V8.004H319.985V9.11H315.659V12.652H319.719V13.758H315.659V18ZM322.205 18L326.307 9.124H320.917V8.004H327.623V8.956L323.563 18H322.205ZM335.593 18H328.985V16.978L331.603 14.332C332.107 13.828 332.532 13.38 332.877 12.988C333.222 12.596 333.484 12.2133 333.661 11.84C333.838 11.4573 333.927 11.042 333.927 10.594C333.927 10.0433 333.764 9.628 333.437 9.348C333.11 9.05867 332.686 8.914 332.163 8.914C331.678 8.914 331.248 8.998 330.875 9.166C330.511 9.334 330.138 9.56733 329.755 9.866L329.097 9.04C329.358 8.816 329.643 8.61533 329.951 8.438C330.268 8.26067 330.609 8.12067 330.973 8.018C331.346 7.91533 331.743 7.864 332.163 7.864C332.788 7.864 333.325 7.97133 333.773 8.186C334.221 8.40067 334.566 8.70867 334.809 9.11C335.061 9.502 335.187 9.97333 335.187 10.524C335.187 10.916 335.126 11.2893 335.005 11.644C334.884 11.9893 334.711 12.33 334.487 12.666C334.263 13.002 333.992 13.3427 333.675 13.688C333.358 14.0333 333.008 14.3927 332.625 14.766L330.539 16.824V16.88H335.593V18ZM340.413 10.356C341.057 10.356 341.607 10.496 342.065 10.776C342.531 11.056 342.886 11.4527 343.129 11.966C343.381 12.47 343.507 13.0627 343.507 13.744V14.486H338.369C338.387 15.3353 338.602 15.984 339.013 16.432C339.433 16.8707 340.016 17.09 340.763 17.09C341.239 17.09 341.659 17.048 342.023 16.964C342.396 16.8707 342.779 16.74 343.171 16.572V17.65C342.788 17.818 342.41 17.9393 342.037 18.014C341.663 18.098 341.22 18.14 340.707 18.14C339.997 18.14 339.367 17.9953 338.817 17.706C338.275 17.4167 337.851 16.9873 337.543 16.418C337.244 15.8393 337.095 15.1347 337.095 14.304C337.095 13.4827 337.23 12.778 337.501 12.19C337.781 11.602 338.168 11.1493 338.663 10.832C339.167 10.5147 339.75 10.356 340.413 10.356ZM340.399 11.364C339.811 11.364 339.344 11.5553 338.999 11.938C338.663 12.3113 338.462 12.834 338.397 13.506H342.219C342.219 13.0767 342.153 12.7033 342.023 12.386C341.892 12.0687 341.691 11.8213 341.421 11.644C341.159 11.4573 340.819 11.364 340.399 11.364ZM353.593 12.904C353.593 14.024 353.383 14.962 352.963 15.718C352.552 16.474 351.96 17.0433 351.185 17.426C350.41 17.8087 349.472 18 348.371 18H345.585V8.004H348.665C349.673 8.004 350.546 8.19067 351.283 8.564C352.02 8.93733 352.59 9.488 352.991 10.216C353.392 10.9347 353.593 11.8307 353.593 12.904ZM352.263 12.946C352.263 12.0593 352.114 11.3313 351.815 10.762C351.526 10.1927 351.096 9.77267 350.527 9.502C349.967 9.222 349.286 9.082 348.483 9.082H346.845V16.922H348.203C349.556 16.922 350.569 16.5907 351.241 15.928C351.922 15.256 352.263 14.262 352.263 12.946ZM362.181 15.732H360.725V18H359.535V15.732H354.747V14.682L359.451 7.948H360.725V14.626H362.181V15.732ZM359.535 11.476C359.535 11.2333 359.535 11.014 359.535 10.818C359.545 10.6127 359.554 10.4213 359.563 10.244C359.573 10.0667 359.577 9.89867 359.577 9.74C359.587 9.572 359.596 9.41333 359.605 9.264H359.549C359.475 9.44133 359.381 9.63267 359.269 9.838C359.157 10.0433 359.05 10.216 358.947 10.356L355.951 14.626H359.535V11.476ZM367.113 11.448H365.223V18H363.991V11.448H362.675V10.874L363.991 10.454V10.02C363.991 9.376 364.085 8.85333 364.271 8.452C364.467 8.05067 364.747 7.75667 365.111 7.57C365.475 7.38333 365.914 7.29 366.427 7.29C366.726 7.29 366.997 7.318 367.239 7.374C367.491 7.42067 367.706 7.47667 367.883 7.542L367.561 8.508C367.412 8.46133 367.239 8.41467 367.043 8.368C366.847 8.32133 366.647 8.298 366.441 8.298C366.031 8.298 365.723 8.438 365.517 8.718C365.321 8.98867 365.223 9.418 365.223 10.006V10.496H367.113V11.448ZM374.6 12.988C374.6 13.8 374.539 14.5233 374.418 15.158C374.296 15.7927 374.1 16.334 373.83 16.782C373.568 17.2207 373.223 17.5567 372.794 17.79C372.374 18.0233 371.865 18.14 371.268 18.14C370.521 18.14 369.9 17.9347 369.406 17.524C368.92 17.1133 368.556 16.5253 368.314 15.76C368.08 14.9853 367.964 14.0613 367.964 12.988C367.964 11.9053 368.071 10.9813 368.286 10.216C368.51 9.45067 368.864 8.86733 369.35 8.466C369.835 8.05533 370.474 7.85 371.268 7.85C372.014 7.85 372.635 8.05533 373.13 8.466C373.624 8.86733 373.993 9.45067 374.236 10.216C374.478 10.9813 374.6 11.9053 374.6 12.988ZM369.196 12.988C369.196 13.9027 369.261 14.6633 369.392 15.27C369.532 15.8767 369.751 16.334 370.05 16.642C370.358 16.9407 370.764 17.09 371.268 17.09C371.772 17.09 372.173 16.9407 372.472 16.642C372.78 16.3433 373.004 15.8907 373.144 15.284C373.284 14.668 373.354 13.9027 373.354 12.988C373.354 12.0733 373.284 11.3173 373.144 10.72C373.004 10.1133 372.78 9.66067 372.472 9.362C372.173 9.054 371.772 8.9 371.268 8.9C370.764 8.9 370.358 9.054 370.05 9.362C369.751 9.66067 369.532 10.1133 369.392 10.72C369.261 11.3173 369.196 12.0733 369.196 12.988ZM382.191 10.342C382.191 10.79 382.107 11.1773 381.939 11.504C381.771 11.8307 381.529 12.0967 381.211 12.302C380.903 12.5073 380.539 12.652 380.119 12.736V12.792C380.922 12.8853 381.519 13.1373 381.911 13.548C382.303 13.9587 382.499 14.4953 382.499 15.158C382.499 15.7367 382.364 16.2547 382.093 16.712C381.823 17.16 381.403 17.51 380.833 17.762C380.273 18.014 379.55 18.14 378.663 18.14C378.141 18.14 377.655 18.098 377.207 18.014C376.759 17.9393 376.33 17.7993 375.919 17.594V16.446C376.339 16.6513 376.792 16.8147 377.277 16.936C377.763 17.048 378.229 17.104 378.677 17.104C379.573 17.104 380.217 16.9313 380.609 16.586C381.011 16.2313 381.211 15.746 381.211 15.13C381.211 14.71 381.099 14.374 380.875 14.122C380.661 13.8607 380.343 13.6693 379.923 13.548C379.503 13.4267 378.999 13.366 378.411 13.366H377.445V12.316H378.425C378.976 12.316 379.433 12.2367 379.797 12.078C380.171 11.9193 380.451 11.7 380.637 11.42C380.833 11.1307 380.931 10.7993 380.931 10.426C380.931 9.94067 380.768 9.56733 380.441 9.306C380.115 9.03533 379.671 8.9 379.111 8.9C378.757 8.9 378.435 8.93733 378.145 9.012C377.856 9.07733 377.585 9.17533 377.333 9.306C377.091 9.42733 376.843 9.572 376.591 9.74L375.975 8.9C376.218 8.71333 376.493 8.54067 376.801 8.382C377.119 8.22333 377.469 8.09733 377.851 8.004C378.234 7.91067 378.649 7.864 379.097 7.864C380.143 7.864 380.917 8.09733 381.421 8.564C381.935 9.03067 382.191 9.62333 382.191 10.342ZM387.291 7.864C387.879 7.864 388.397 7.95733 388.845 8.144C389.293 8.32133 389.643 8.58733 389.895 8.942C390.156 9.29667 390.287 9.73533 390.287 10.258C390.287 10.6593 390.198 11.0093 390.021 11.308C389.853 11.6067 389.624 11.8727 389.335 12.106C389.046 12.33 388.728 12.5307 388.383 12.708C388.794 12.904 389.167 13.128 389.503 13.38C389.839 13.6227 390.105 13.9073 390.301 14.234C390.506 14.5607 390.609 14.9527 390.609 15.41C390.609 15.97 390.474 16.4553 390.203 16.866C389.932 17.2673 389.55 17.58 389.055 17.804C388.57 18.028 387.996 18.14 387.333 18.14C386.614 18.14 386.003 18.0327 385.499 17.818C385.004 17.6033 384.626 17.3 384.365 16.908C384.113 16.5067 383.987 16.0213 383.987 15.452C383.987 14.9947 384.08 14.598 384.267 14.262C384.463 13.926 384.72 13.6367 385.037 13.394C385.354 13.1513 385.695 12.946 386.059 12.778C385.732 12.5913 385.434 12.3813 385.163 12.148C384.902 11.9053 384.692 11.63 384.533 11.322C384.384 11.014 384.309 10.6547 384.309 10.244C384.309 9.73067 384.44 9.30133 384.701 8.956C384.962 8.60133 385.317 8.33067 385.765 8.144C386.213 7.95733 386.722 7.864 387.291 7.864ZM385.191 15.466C385.191 15.9513 385.364 16.3573 385.709 16.684C386.054 17.0013 386.586 17.16 387.305 17.16C387.762 17.16 388.145 17.0853 388.453 16.936C388.761 16.7867 388.994 16.5813 389.153 16.32C389.321 16.0587 389.405 15.76 389.405 15.424C389.405 15.0973 389.316 14.8127 389.139 14.57C388.971 14.318 388.728 14.094 388.411 13.898C388.103 13.702 387.734 13.5247 387.305 13.366L387.081 13.282C386.67 13.4593 386.325 13.6507 386.045 13.856C385.765 14.0613 385.55 14.2947 385.401 14.556C385.261 14.8173 385.191 15.1207 385.191 15.466ZM387.277 8.858C386.764 8.858 386.339 8.984 386.003 9.236C385.676 9.47867 385.513 9.83333 385.513 10.3C385.513 10.6453 385.592 10.9347 385.751 11.168C385.919 11.4013 386.143 11.602 386.423 11.77C386.703 11.9287 387.011 12.0827 387.347 12.232C387.674 12.092 387.963 11.938 388.215 11.77C388.476 11.602 388.682 11.4013 388.831 11.168C388.99 10.9253 389.069 10.636 389.069 10.3C389.069 9.83333 388.906 9.47867 388.579 9.236C388.252 8.984 387.818 8.858 387.277 8.858ZM398.257 18H392.671V8.004H398.257V9.11H393.931V12.232H398.005V13.324H393.931V16.894H398.257V18ZM406.372 12.274C406.372 12.8433 406.33 13.4127 406.246 13.982C406.171 14.542 406.036 15.074 405.84 15.578C405.644 16.0727 405.373 16.516 405.028 16.908C404.683 17.2907 404.244 17.594 403.712 17.818C403.18 18.0327 402.536 18.14 401.78 18.14C401.593 18.14 401.374 18.126 401.122 18.098C400.879 18.0793 400.679 18.0467 400.52 18V16.95C400.688 17.006 400.884 17.0527 401.108 17.09C401.332 17.118 401.547 17.132 401.752 17.132C402.405 17.132 402.942 17.0247 403.362 16.81C403.791 16.5953 404.132 16.306 404.384 15.942C404.636 15.5687 404.818 15.1393 404.93 14.654C405.042 14.1593 405.107 13.6413 405.126 13.1H405.042C404.902 13.3147 404.725 13.5107 404.51 13.688C404.295 13.8653 404.034 14.0053 403.726 14.108C403.427 14.2107 403.073 14.262 402.662 14.262C402.093 14.262 401.589 14.1453 401.15 13.912C400.721 13.6693 400.385 13.324 400.142 12.876C399.909 12.428 399.792 11.882 399.792 11.238C399.792 10.538 399.923 9.936 400.184 9.432C400.455 8.928 400.828 8.54067 401.304 8.27C401.78 7.99933 402.34 7.864 402.984 7.864C403.46 7.864 403.903 7.95733 404.314 8.144C404.725 8.32133 405.084 8.592 405.392 8.956C405.7 9.32 405.938 9.77733 406.106 10.328C406.283 10.8787 406.372 11.5273 406.372 12.274ZM402.984 8.9C402.405 8.9 401.929 9.09133 401.556 9.474C401.192 9.85667 401.01 10.44 401.01 11.224C401.01 11.868 401.164 12.3767 401.472 12.75C401.789 13.114 402.275 13.296 402.928 13.296C403.376 13.296 403.763 13.2073 404.09 13.03C404.417 12.8433 404.669 12.61 404.846 12.33C405.033 12.05 405.126 11.7607 405.126 11.462C405.126 11.1633 405.079 10.8647 404.986 10.566C404.902 10.258 404.771 9.978 404.594 9.726C404.417 9.474 404.193 9.27333 403.922 9.124C403.651 8.97467 403.339 8.9 402.984 8.9ZM414.734 18L413.53 14.906H409.568L408.378 18H407.104L411.01 7.962H412.144L416.036 18H414.734ZM412.032 10.762C412.004 10.6873 411.957 10.552 411.892 10.356C411.827 10.16 411.761 9.95933 411.696 9.754C411.64 9.53933 411.593 9.376 411.556 9.264C411.509 9.45067 411.458 9.642 411.402 9.838C411.355 10.0247 411.304 10.1973 411.248 10.356C411.201 10.5147 411.159 10.65 411.122 10.762L409.988 13.786H413.152L412.032 10.762ZM418.467 9.95C418.467 10.2673 418.458 10.566 418.439 10.846C418.43 11.1167 418.416 11.3313 418.397 11.49H418.467C418.682 11.1727 418.976 10.9067 419.349 10.692C419.723 10.4773 420.203 10.37 420.791 10.37C421.725 10.37 422.471 10.6967 423.031 11.35C423.601 11.994 423.885 12.96 423.885 14.248C423.885 15.1067 423.755 15.8253 423.493 16.404C423.241 16.9827 422.882 17.4167 422.415 17.706C421.949 17.9953 421.407 18.14 420.791 18.14C420.203 18.14 419.723 18.0327 419.349 17.818C418.976 17.6033 418.682 17.3467 418.467 17.048H418.369L418.117 18H417.235V7.36H418.467V9.95ZM420.581 11.392C420.049 11.392 419.629 11.4947 419.321 11.7C419.013 11.896 418.794 12.204 418.663 12.624C418.533 13.0347 418.467 13.562 418.467 14.206V14.262C418.467 15.186 418.617 15.8953 418.915 16.39C419.223 16.8753 419.788 17.118 420.609 17.118C421.281 17.118 421.781 16.8707 422.107 16.376C422.443 15.8813 422.611 15.1673 422.611 14.234C422.611 13.2913 422.443 12.582 422.107 12.106C421.781 11.63 421.272 11.392 420.581 11.392ZM431.939 18H425.331V16.978L427.949 14.332C428.453 13.828 428.877 13.38 429.223 12.988C429.568 12.596 429.829 12.2133 430.007 11.84C430.184 11.4573 430.273 11.042 430.273 10.594C430.273 10.0433 430.109 9.628 429.783 9.348C429.456 9.05867 429.031 8.914 428.509 8.914C428.023 8.914 427.594 8.998 427.221 9.166C426.857 9.334 426.483 9.56733 426.101 9.866L425.443 9.04C425.704 8.816 425.989 8.61533 426.297 8.438C426.614 8.26067 426.955 8.12067 427.319 8.018C427.692 7.91533 428.089 7.864 428.509 7.864C429.134 7.864 429.671 7.97133 430.119 8.186C430.567 8.40067 430.912 8.70867 431.155 9.11C431.407 9.502 431.533 9.97333 431.533 10.524C431.533 10.916 431.472 11.2893 431.351 11.644C431.229 11.9893 431.057 12.33 430.833 12.666C430.609 13.002 430.338 13.3427 430.021 13.688C429.703 14.0333 429.353 14.3927 428.971 14.766L426.885 16.824V16.88H431.939V18ZM439.95 12.274C439.95 12.8433 439.908 13.4127 439.824 13.982C439.75 14.542 439.614 15.074 439.418 15.578C439.222 16.0727 438.952 16.516 438.606 16.908C438.261 17.2907 437.822 17.594 437.29 17.818C436.758 18.0327 436.114 18.14 435.358 18.14C435.172 18.14 434.952 18.126 434.7 18.098C434.458 18.0793 434.257 18.0467 434.098 18V16.95C434.266 17.006 434.462 17.0527 434.686 17.09C434.91 17.118 435.125 17.132 435.33 17.132C435.984 17.132 436.52 17.0247 436.94 16.81C437.37 16.5953 437.71 16.306 437.962 15.942C438.214 15.5687 438.396 15.1393 438.508 14.654C438.62 14.1593 438.686 13.6413 438.704 13.1H438.62C438.48 13.3147 438.303 13.5107 438.088 13.688C437.874 13.8653 437.612 14.0053 437.304 14.108C437.006 14.2107 436.651 14.262 436.24 14.262C435.671 14.262 435.167 14.1453 434.728 13.912C434.299 13.6693 433.963 13.324 433.72 12.876C433.487 12.428 433.37 11.882 433.37 11.238C433.37 10.538 433.501 9.936 433.762 9.432C434.033 8.928 434.406 8.54067 434.882 8.27C435.358 7.99933 435.918 7.864 436.562 7.864C437.038 7.864 437.482 7.95733 437.892 8.144C438.303 8.32133 438.662 8.592 438.97 8.956C439.278 9.32 439.516 9.77733 439.684 10.328C439.862 10.8787 439.95 11.5273 439.95 12.274ZM436.562 8.9C435.984 8.9 435.508 9.09133 435.134 9.474C434.77 9.85667 434.588 10.44 434.588 11.224C434.588 11.868 434.742 12.3767 435.05 12.75C435.368 13.114 435.853 13.296 436.506 13.296C436.954 13.296 437.342 13.2073 437.668 13.03C437.995 12.8433 438.247 12.61 438.424 12.33C438.611 12.05 438.704 11.7607 438.704 11.462C438.704 11.1633 438.658 10.8647 438.564 10.566C438.48 10.258 438.35 9.978 438.172 9.726C437.995 9.474 437.771 9.27333 437.5 9.124C437.23 8.97467 436.917 8.9 436.562 8.9ZM444.672 7.864C445.26 7.864 445.778 7.95733 446.226 8.144C446.674 8.32133 447.024 8.58733 447.276 8.942C447.537 9.29667 447.668 9.73533 447.668 10.258C447.668 10.6593 447.579 11.0093 447.402 11.308C447.234 11.6067 447.005 11.8727 446.716 12.106C446.427 12.33 446.109 12.5307 445.764 12.708C446.175 12.904 446.548 13.128 446.884 13.38C447.22 13.6227 447.486 13.9073 447.682 14.234C447.887 14.5607 447.99 14.9527 447.99 15.41C447.99 15.97 447.855 16.4553 447.584 16.866C447.313 17.2673 446.931 17.58 446.436 17.804C445.951 18.028 445.377 18.14 444.714 18.14C443.995 18.14 443.384 18.0327 442.88 17.818C442.385 17.6033 442.007 17.3 441.746 16.908C441.494 16.5067 441.368 16.0213 441.368 15.452C441.368 14.9947 441.461 14.598 441.648 14.262C441.844 13.926 442.101 13.6367 442.418 13.394C442.735 13.1513 443.076 12.946 443.44 12.778C443.113 12.5913 442.815 12.3813 442.544 12.148C442.283 11.9053 442.073 11.63 441.914 11.322C441.765 11.014 441.69 10.6547 441.69 10.244C441.69 9.73067 441.821 9.30133 442.082 8.956C442.343 8.60133 442.698 8.33067 443.146 8.144C443.594 7.95733 444.103 7.864 444.672 7.864ZM442.572 15.466C442.572 15.9513 442.745 16.3573 443.09 16.684C443.435 17.0013 443.967 17.16 444.686 17.16C445.143 17.16 445.526 17.0853 445.834 16.936C446.142 16.7867 446.375 16.5813 446.534 16.32C446.702 16.0587 446.786 15.76 446.786 15.424C446.786 15.0973 446.697 14.8127 446.52 14.57C446.352 14.318 446.109 14.094 445.792 13.898C445.484 13.702 445.115 13.5247 444.686 13.366L444.462 13.282C444.051 13.4593 443.706 13.6507 443.426 13.856C443.146 14.0613 442.931 14.2947 442.782 14.556C442.642 14.8173 442.572 15.1207 442.572 15.466ZM444.658 8.858C444.145 8.858 443.72 8.984 443.384 9.236C443.057 9.47867 442.894 9.83333 442.894 10.3C442.894 10.6453 442.973 10.9347 443.132 11.168C443.3 11.4013 443.524 11.602 443.804 11.77C444.084 11.9287 444.392 12.0827 444.728 12.232C445.055 12.092 445.344 11.938 445.596 11.77C445.857 11.602 446.063 11.4013 446.212 11.168C446.371 10.9253 446.45 10.636 446.45 10.3C446.45 9.83333 446.287 9.47867 445.96 9.236C445.633 8.984 445.199 8.858 444.658 8.858ZM456.324 18L455.12 14.906H451.158L449.968 18H448.694L452.6 7.962H453.734L457.626 18H456.324ZM453.622 10.762C453.594 10.6873 453.547 10.552 453.482 10.356C453.416 10.16 453.351 9.95933 453.286 9.754C453.23 9.53933 453.183 9.376 453.146 9.264C453.099 9.45067 453.048 9.642 452.992 9.838C452.945 10.0247 452.894 10.1973 452.838 10.356C452.791 10.5147 452.749 10.65 452.712 10.762L451.578 13.786H454.742L453.622 10.762ZM461.849 8.004C462.68 8.004 463.375 8.08333 463.935 8.242C464.504 8.40067 464.929 8.662 465.209 9.026C465.498 9.39 465.643 9.87533 465.643 10.482C465.643 10.874 465.568 11.224 465.419 11.532C465.279 11.8307 465.064 12.0827 464.775 12.288C464.495 12.484 464.15 12.6193 463.739 12.694V12.764C464.159 12.8293 464.537 12.9507 464.873 13.128C465.218 13.3053 465.489 13.5573 465.685 13.884C465.881 14.2107 465.979 14.6353 465.979 15.158C465.979 15.7647 465.839 16.2827 465.559 16.712C465.279 17.132 464.878 17.454 464.355 17.678C463.842 17.8927 463.226 18 462.507 18H458.993V8.004H461.849ZM462.101 12.26C462.96 12.26 463.548 12.1247 463.865 11.854C464.182 11.574 464.341 11.1633 464.341 10.622C464.341 10.0713 464.145 9.67933 463.753 9.446C463.37 9.20333 462.754 9.082 461.905 9.082H460.253V12.26H462.101ZM460.253 13.31V16.936H462.269C463.156 16.936 463.772 16.7633 464.117 16.418C464.462 16.0727 464.635 15.62 464.635 15.06C464.635 14.7053 464.556 14.3973 464.397 14.136C464.248 13.8747 463.991 13.674 463.627 13.534C463.272 13.3847 462.787 13.31 462.171 13.31H460.253ZM469.359 18H468.099V8.004H473.685V9.11H469.359V12.652H473.419V13.758H469.359V18ZM481.728 15.732H480.272V18H479.082V15.732H474.294V14.682L478.998 7.948H480.272V14.626H481.728V15.732ZM479.082 11.476C479.082 11.2333 479.082 11.014 479.082 10.818C479.092 10.6127 479.101 10.4213 479.11 10.244C479.12 10.0667 479.124 9.89867 479.124 9.74C479.134 9.572 479.143 9.41333 479.152 9.264H479.096C479.022 9.44133 478.928 9.63267 478.816 9.838C478.704 10.0433 478.597 10.216 478.494 10.356L475.498 14.626H479.082V11.476ZM489.292 12.274C489.292 12.8433 489.25 13.4127 489.166 13.982C489.091 14.542 488.956 15.074 488.76 15.578C488.564 16.0727 488.293 16.516 487.948 16.908C487.603 17.2907 487.164 17.594 486.632 17.818C486.1 18.0327 485.456 18.14 484.7 18.14C484.513 18.14 484.294 18.126 484.042 18.098C483.799 18.0793 483.599 18.0467 483.44 18V16.95C483.608 17.006 483.804 17.0527 484.028 17.09C484.252 17.118 484.467 17.132 484.672 17.132C485.325 17.132 485.862 17.0247 486.282 16.81C486.711 16.5953 487.052 16.306 487.304 15.942C487.556 15.5687 487.738 15.1393 487.85 14.654C487.962 14.1593 488.027 13.6413 488.046 13.1H487.962C487.822 13.3147 487.645 13.5107 487.43 13.688C487.215 13.8653 486.954 14.0053 486.646 14.108C486.347 14.2107 485.993 14.262 485.582 14.262C485.013 14.262 484.509 14.1453 484.07 13.912C483.641 13.6693 483.305 13.324 483.062 12.876C482.829 12.428 482.712 11.882 482.712 11.238C482.712 10.538 482.843 9.936 483.104 9.432C483.375 8.928 483.748 8.54067 484.224 8.27C484.7 7.99933 485.26 7.864 485.904 7.864C486.38 7.864 486.823 7.95733 487.234 8.144C487.645 8.32133 488.004 8.592 488.312 8.956C488.62 9.32 488.858 9.77733 489.026 10.328C489.203 10.8787 489.292 11.5273 489.292 12.274ZM485.904 8.9C485.325 8.9 484.849 9.09133 484.476 9.474C484.112 9.85667 483.93 10.44 483.93 11.224C483.93 11.868 484.084 12.3767 484.392 12.75C484.709 13.114 485.195 13.296 485.848 13.296C486.296 13.296 486.683 13.2073 487.01 13.03C487.337 12.8433 487.589 12.61 487.766 12.33C487.953 12.05 488.046 11.7607 488.046 11.462C488.046 11.1633 487.999 10.8647 487.906 10.566C487.822 10.258 487.691 9.978 487.514 9.726C487.337 9.474 487.113 9.27333 486.842 9.124C486.571 8.97467 486.259 8.9 485.904 8.9ZM494.056 10.37C494.97 10.37 495.647 10.5707 496.086 10.972C496.524 11.3733 496.744 12.0127 496.744 12.89V18H495.848L495.61 16.936H495.554C495.339 17.2067 495.115 17.4353 494.882 17.622C494.658 17.7993 494.396 17.93 494.098 18.014C493.808 18.098 493.454 18.14 493.034 18.14C492.586 18.14 492.18 18.0607 491.816 17.902C491.461 17.7433 491.181 17.5007 490.976 17.174C490.77 16.838 490.668 16.418 490.668 15.914C490.668 15.1673 490.962 14.5933 491.55 14.192C492.138 13.7813 493.043 13.5573 494.266 13.52L495.54 13.478V13.03C495.54 12.4047 495.404 11.9707 495.134 11.728C494.863 11.4853 494.48 11.364 493.986 11.364C493.594 11.364 493.22 11.4247 492.866 11.546C492.511 11.658 492.18 11.7887 491.872 11.938L491.494 11.014C491.82 10.8367 492.208 10.6873 492.656 10.566C493.104 10.4353 493.57 10.37 494.056 10.37ZM494.42 14.374C493.486 14.4113 492.838 14.5607 492.474 14.822C492.119 15.0833 491.942 15.452 491.942 15.928C491.942 16.348 492.068 16.656 492.32 16.852C492.581 17.048 492.912 17.146 493.314 17.146C493.948 17.146 494.476 16.9733 494.896 16.628C495.316 16.2733 495.526 15.732 495.526 15.004V14.332L494.42 14.374ZM502.841 18H501.637V11.014C501.637 10.7433 501.637 10.5147 501.637 10.328C501.647 10.1413 501.656 9.96867 501.665 9.81C501.675 9.642 501.684 9.46933 501.693 9.292C501.544 9.44133 501.409 9.56733 501.287 9.67C501.166 9.77267 501.012 9.90333 500.825 10.062L499.761 10.93L499.117 10.104L501.819 8.004H502.841V18ZM513.513 18L512.309 14.906H508.347L507.157 18H505.883L509.789 7.962H510.923L514.815 18H513.513ZM510.811 10.762C510.783 10.6873 510.736 10.552 510.671 10.356C510.606 10.16 510.54 9.95933 510.475 9.754C510.419 9.53933 510.372 9.376 510.335 9.264C510.288 9.45067 510.237 9.642 510.181 9.838C510.134 10.0247 510.083 10.1973 510.027 10.356C509.98 10.5147 509.938 10.65 509.901 10.762L508.767 13.786H511.931L510.811 10.762ZM517.247 9.95C517.247 10.2673 517.237 10.566 517.219 10.846C517.209 11.1167 517.195 11.3313 517.177 11.49H517.247C517.461 11.1727 517.755 10.9067 518.129 10.692C518.502 10.4773 518.983 10.37 519.571 10.37C520.504 10.37 521.251 10.6967 521.811 11.35C522.38 11.994 522.665 12.96 522.665 14.248C522.665 15.1067 522.534 15.8253 522.273 16.404C522.021 16.9827 521.661 17.4167 521.195 17.706C520.728 17.9953 520.187 18.14 519.571 18.14C518.983 18.14 518.502 18.0327 518.129 17.818C517.755 17.6033 517.461 17.3467 517.247 17.048H517.149L516.897 18H516.015V7.36H517.247V9.95ZM519.361 11.392C518.829 11.392 518.409 11.4947 518.101 11.7C517.793 11.896 517.573 12.204 517.443 12.624C517.312 13.0347 517.247 13.562 517.247 14.206V14.262C517.247 15.186 517.396 15.8953 517.695 16.39C518.003 16.8753 518.567 17.118 519.389 17.118C520.061 17.118 520.56 16.8707 520.887 16.376C521.223 15.8813 521.391 15.1673 521.391 14.234C521.391 13.2913 521.223 12.582 520.887 12.106C520.56 11.63 520.051 11.392 519.361 11.392ZM524.208 13.73C524.208 13.1513 524.245 12.582 524.32 12.022C524.404 11.462 524.544 10.9347 524.74 10.44C524.936 9.936 525.207 9.49267 525.552 9.11C525.897 8.718 526.331 8.41467 526.854 8.2C527.386 7.976 528.03 7.864 528.786 7.864C528.982 7.864 529.197 7.87333 529.43 7.892C529.673 7.91067 529.869 7.94333 530.018 7.99V9.04C529.85 8.984 529.659 8.942 529.444 8.914C529.239 8.886 529.029 8.872 528.814 8.872C528.17 8.872 527.633 8.97933 527.204 9.194C526.775 9.40867 526.434 9.70267 526.182 10.076C525.939 10.4493 525.762 10.8787 525.65 11.364C525.538 11.8493 525.468 12.3673 525.44 12.918H525.524C525.664 12.694 525.841 12.4933 526.056 12.316C526.271 12.1387 526.527 11.9987 526.826 11.896C527.134 11.7933 527.489 11.742 527.89 11.742C528.469 11.742 528.973 11.8633 529.402 12.106C529.841 12.3393 530.181 12.6847 530.424 13.142C530.667 13.59 530.788 14.136 530.788 14.78C530.788 15.4707 530.657 16.068 530.396 16.572C530.135 17.076 529.766 17.4633 529.29 17.734C528.823 18.0047 528.263 18.14 527.61 18.14C527.134 18.14 526.691 18.0513 526.28 17.874C525.869 17.6967 525.505 17.426 525.188 17.062C524.88 16.698 524.637 16.2407 524.46 15.69C524.292 15.13 524.208 14.4767 524.208 13.73ZM527.596 17.104C528.184 17.104 528.66 16.9173 529.024 16.544C529.388 16.1613 529.57 15.5733 529.57 14.78C529.57 14.1453 529.407 13.6413 529.08 13.268C528.763 12.8947 528.282 12.708 527.638 12.708C527.199 12.708 526.817 12.8013 526.49 12.988C526.163 13.1653 525.907 13.394 525.72 13.674C525.543 13.954 525.454 14.2433 525.454 14.542C525.454 14.85 525.496 15.1533 525.58 15.452C525.673 15.7507 525.809 16.026 525.986 16.278C526.173 16.53 526.397 16.7307 526.658 16.88C526.929 17.0293 527.241 17.104 527.596 17.104ZM538.73 18H532.122V16.978L534.74 14.332C535.244 13.828 535.668 13.38 536.014 12.988C536.359 12.596 536.62 12.2133 536.798 11.84C536.975 11.4573 537.064 11.042 537.064 10.594C537.064 10.0433 536.9 9.628 536.574 9.348C536.247 9.05867 535.822 8.914 535.3 8.914C534.814 8.914 534.385 8.998 534.012 9.166C533.648 9.334 533.274 9.56733 532.892 9.866L532.234 9.04C532.495 8.816 532.78 8.61533 533.088 8.438C533.405 8.26067 533.746 8.12067 534.11 8.018C534.483 7.91533 534.88 7.864 535.3 7.864C535.925 7.864 536.462 7.97133 536.91 8.186C537.358 8.40067 537.703 8.70867 537.946 9.11C538.198 9.502 538.324 9.97333 538.324 10.524C538.324 10.916 538.263 11.2893 538.142 11.644C538.02 11.9893 537.848 12.33 537.624 12.666C537.4 13.002 537.129 13.3427 536.812 13.688C536.494 14.0333 536.144 14.3927 535.762 14.766L533.676 16.824V16.88H538.73V18ZM541.365 18L545.467 9.124H540.077V8.004H546.783V8.956L542.723 18H541.365ZM551.463 7.864C552.051 7.864 552.569 7.95733 553.017 8.144C553.465 8.32133 553.815 8.58733 554.067 8.942C554.328 9.29667 554.459 9.73533 554.459 10.258C554.459 10.6593 554.37 11.0093 554.193 11.308C554.025 11.6067 553.796 11.8727 553.507 12.106C553.218 12.33 552.9 12.5307 552.555 12.708C552.966 12.904 553.339 13.128 553.675 13.38C554.011 13.6227 554.277 13.9073 554.473 14.234C554.678 14.5607 554.781 14.9527 554.781 15.41C554.781 15.97 554.646 16.4553 554.375 16.866C554.104 17.2673 553.722 17.58 553.227 17.804C552.742 18.028 552.168 18.14 551.505 18.14C550.786 18.14 550.175 18.0327 549.671 17.818C549.176 17.6033 548.798 17.3 548.537 16.908C548.285 16.5067 548.159 16.0213 548.159 15.452C548.159 14.9947 548.252 14.598 548.439 14.262C548.635 13.926 548.892 13.6367 549.209 13.394C549.526 13.1513 549.867 12.946 550.231 12.778C549.904 12.5913 549.606 12.3813 549.335 12.148C549.074 11.9053 548.864 11.63 548.705 11.322C548.556 11.014 548.481 10.6547 548.481 10.244C548.481 9.73067 548.612 9.30133 548.873 8.956C549.134 8.60133 549.489 8.33067 549.937 8.144C550.385 7.95733 550.894 7.864 551.463 7.864ZM549.363 15.466C549.363 15.9513 549.536 16.3573 549.881 16.684C550.226 17.0013 550.758 17.16 551.477 17.16C551.934 17.16 552.317 17.0853 552.625 16.936C552.933 16.7867 553.166 16.5813 553.325 16.32C553.493 16.0587 553.577 15.76 553.577 15.424C553.577 15.0973 553.488 14.8127 553.311 14.57C553.143 14.318 552.9 14.094 552.583 13.898C552.275 13.702 551.906 13.5247 551.477 13.366L551.253 13.282C550.842 13.4593 550.497 13.6507 550.217 13.856C549.937 14.0613 549.722 14.2947 549.573 14.556C549.433 14.8173 549.363 15.1207 549.363 15.466ZM551.449 8.858C550.936 8.858 550.511 8.984 550.175 9.236C549.848 9.47867 549.685 9.83333 549.685 10.3C549.685 10.6453 549.764 10.9347 549.923 11.168C550.091 11.4013 550.315 11.602 550.595 11.77C550.875 11.9287 551.183 12.0827 551.519 12.232C551.846 12.092 552.135 11.938 552.387 11.77C552.648 11.602 552.854 11.4013 553.003 11.168C553.162 10.9253 553.241 10.636 553.241 10.3C553.241 9.83333 553.078 9.47867 552.751 9.236C552.424 8.984 551.99 8.858 551.449 8.858Z" fill="#555555"/>
</svg>
