<svg width="530" height="25" viewBox="0 0 530 25" fill="none" xmlns="http://www.w3.org/2000/svg">
<rect width="530" height="25" fill="#555555"/>
<rect x="160" width="370" height="25" fill="#F1B90A"/>
<path d="M25.4815 14.472C25.4815 15.1627 25.3415 15.788 25.0615 16.348C24.7815 16.8987 24.3522 17.3373 23.7735 17.664C23.2042 17.9813 22.4762 18.14 21.5895 18.14C20.3482 18.14 19.4008 17.804 18.7475 17.132C18.1035 16.4507 17.7815 15.5547 17.7815 14.444V8.004H19.0415V14.486C19.0415 15.298 19.2562 15.928 19.6855 16.376C20.1242 16.824 20.7822 17.048 21.6595 17.048C22.2662 17.048 22.7562 16.9407 23.1295 16.726C23.5122 16.502 23.7922 16.1987 23.9695 15.816C24.1468 15.424 24.2355 14.976 24.2355 14.472V8.004H25.4815V14.472ZM33.7897 15.326C33.7897 15.9233 33.6451 16.432 33.3557 16.852C33.0664 17.2627 32.6511 17.58 32.1097 17.804C31.5777 18.028 30.9477 18.14 30.2197 18.14C29.8464 18.14 29.4871 18.1213 29.1417 18.084C28.8057 18.0467 28.4977 17.9953 28.2177 17.93C27.9377 17.8553 27.6904 17.7667 27.4757 17.664V16.46C27.8117 16.6093 28.2271 16.7447 28.7217 16.866C29.2257 16.9873 29.7437 17.048 30.2757 17.048C30.7704 17.048 31.1857 16.9827 31.5217 16.852C31.8577 16.7213 32.1097 16.5347 32.2777 16.292C32.4457 16.0493 32.5297 15.7647 32.5297 15.438C32.5297 15.1113 32.4597 14.836 32.3197 14.612C32.1797 14.388 31.9371 14.1827 31.5917 13.996C31.2557 13.8 30.7844 13.5947 30.1777 13.38C29.7484 13.2213 29.3704 13.0533 29.0437 12.876C28.7264 12.6893 28.4604 12.4793 28.2457 12.246C28.0311 12.0127 27.8677 11.7467 27.7557 11.448C27.6531 11.1493 27.6017 10.804 27.6017 10.412C27.6017 9.88 27.7371 9.42733 28.0077 9.054C28.2784 8.67133 28.6517 8.37733 29.1277 8.172C29.6131 7.96667 30.1684 7.864 30.7937 7.864C31.3444 7.864 31.8484 7.91533 32.3057 8.018C32.7631 8.12067 33.1784 8.256 33.5517 8.424L33.1597 9.502C32.8144 9.35267 32.4364 9.22667 32.0257 9.124C31.6244 9.02133 31.2044 8.97 30.7657 8.97C30.3457 8.97 29.9957 9.03067 29.7157 9.152C29.4357 9.27333 29.2257 9.446 29.0857 9.67C28.9457 9.88467 28.8757 10.1367 28.8757 10.426C28.8757 10.762 28.9457 11.042 29.0857 11.266C29.2257 11.49 29.4544 11.6907 29.7717 11.868C30.0891 12.0453 30.5184 12.2367 31.0597 12.442C31.6477 12.6567 32.1424 12.89 32.5437 13.142C32.9544 13.3847 33.2624 13.6787 33.4677 14.024C33.6824 14.3693 33.7897 14.8033 33.7897 15.326ZM43.8113 12.904C43.8113 14.024 43.6013 14.962 43.1813 15.718C42.7706 16.474 42.178 17.0433 41.4033 17.426C40.6286 17.8087 39.6906 18 38.5893 18H35.8033V8.004H38.8833C39.8913 8.004 40.764 8.19067 41.5013 8.564C42.2386 8.93733 42.808 9.488 43.2093 10.216C43.6106 10.9347 43.8113 11.8307 43.8113 12.904ZM42.4813 12.946C42.4813 12.0593 42.332 11.3313 42.0333 10.762C41.744 10.1927 41.3146 9.77267 40.7453 9.502C40.1853 9.222 39.504 9.082 38.7013 9.082H37.0633V16.922H38.4213C39.7746 16.922 40.7873 16.5907 41.4593 15.928C42.1406 15.256 42.4813 14.262 42.4813 12.946ZM50.3139 8.97C49.7819 8.97 49.3012 9.06333 48.8719 9.25C48.4425 9.42733 48.0785 9.69333 47.7799 10.048C47.4812 10.3933 47.2525 10.818 47.0939 11.322C46.9352 11.8167 46.8559 12.3767 46.8559 13.002C46.8559 13.8233 46.9819 14.5373 47.2339 15.144C47.4952 15.7507 47.8779 16.2173 48.3819 16.544C48.8952 16.8707 49.5345 17.034 50.2999 17.034C50.7385 17.034 51.1539 16.9967 51.5459 16.922C51.9379 16.8473 52.3205 16.754 52.6939 16.642V17.734C52.3205 17.874 51.9332 17.9767 51.5319 18.042C51.1399 18.1073 50.6685 18.14 50.1179 18.14C49.1005 18.14 48.2512 17.93 47.5699 17.51C46.8885 17.09 46.3752 16.4927 46.0299 15.718C45.6939 14.9433 45.5259 14.0333 45.5259 12.988C45.5259 12.232 45.6285 11.5413 45.8339 10.916C46.0485 10.2907 46.3565 9.74933 46.7579 9.292C47.1685 8.83467 47.6725 8.48467 48.2699 8.242C48.8672 7.99 49.5532 7.864 50.3279 7.864C50.8412 7.864 51.3359 7.91533 51.8119 8.018C52.2879 8.12067 52.7125 8.26533 53.0859 8.452L52.5819 9.516C52.2739 9.376 51.9285 9.25 51.5459 9.138C51.1725 9.026 50.7619 8.97 50.3139 8.97ZM57.7143 14.164C57.7143 13.3987 57.7843 12.652 57.9243 11.924C58.0736 11.196 58.3023 10.5007 58.6103 9.838C58.9183 9.17533 59.3056 8.564 59.7723 8.004H60.9343C60.505 8.58267 60.141 9.208 59.8423 9.88C59.553 10.552 59.3336 11.2473 59.1843 11.966C59.035 12.6847 58.9603 13.4127 58.9603 14.15C58.9603 14.8687 59.035 15.5827 59.1843 16.292C59.3336 17.0013 59.553 17.6827 59.8423 18.336C60.1316 18.9987 60.491 19.624 60.9203 20.212H59.7723C59.3056 19.6613 58.9183 19.0593 58.6103 18.406C58.3023 17.762 58.0736 17.0807 57.9243 16.362C57.7843 15.6433 57.7143 14.9107 57.7143 14.164ZM69.2023 8.004C70.0329 8.004 70.7283 8.08333 71.2883 8.242C71.8576 8.40067 72.2823 8.662 72.5623 9.026C72.8516 9.39 72.9963 9.87533 72.9963 10.482C72.9963 10.874 72.9216 11.224 72.7723 11.532C72.6323 11.8307 72.4176 12.0827 72.1283 12.288C71.8483 12.484 71.5029 12.6193 71.0923 12.694V12.764C71.5123 12.8293 71.8903 12.9507 72.2263 13.128C72.5716 13.3053 72.8423 13.5573 73.0383 13.884C73.2343 14.2107 73.3323 14.6353 73.3323 15.158C73.3323 15.7647 73.1923 16.2827 72.9123 16.712C72.6323 17.132 72.2309 17.454 71.7083 17.678C71.1949 17.8927 70.5789 18 69.8603 18H66.3463V8.004H69.2023ZM69.4543 12.26C70.3129 12.26 70.9009 12.1247 71.2183 11.854C71.5356 11.574 71.6943 11.1633 71.6943 10.622C71.6943 10.0713 71.4983 9.67933 71.1063 9.446C70.7236 9.20333 70.1076 9.082 69.2583 9.082H67.6063V12.26H69.4543ZM67.6063 13.31V16.936H69.6223C70.5089 16.936 71.1249 16.7633 71.4703 16.418C71.8156 16.0727 71.9883 15.62 71.9883 15.06C71.9883 14.7053 71.9089 14.3973 71.7503 14.136C71.6009 13.8747 71.3443 13.674 70.9803 13.534C70.6256 13.3847 70.1403 13.31 69.5243 13.31H67.6063ZM81.1218 15.326C81.1218 15.9233 80.9771 16.432 80.6878 16.852C80.3984 17.2627 79.9831 17.58 79.4418 17.804C78.9098 18.028 78.2798 18.14 77.5518 18.14C77.1784 18.14 76.8191 18.1213 76.4738 18.084C76.1378 18.0467 75.8298 17.9953 75.5498 17.93C75.2698 17.8553 75.0224 17.7667 74.8078 17.664V16.46C75.1438 16.6093 75.5591 16.7447 76.0538 16.866C76.5578 16.9873 77.0758 17.048 77.6078 17.048C78.1024 17.048 78.5178 16.9827 78.8538 16.852C79.1898 16.7213 79.4418 16.5347 79.6098 16.292C79.7778 16.0493 79.8618 15.7647 79.8618 15.438C79.8618 15.1113 79.7918 14.836 79.6518 14.612C79.5118 14.388 79.2691 14.1827 78.9238 13.996C78.5878 13.8 78.1164 13.5947 77.5098 13.38C77.0804 13.2213 76.7024 13.0533 76.3758 12.876C76.0584 12.6893 75.7924 12.4793 75.5778 12.246C75.3631 12.0127 75.1998 11.7467 75.0878 11.448C74.9851 11.1493 74.9338 10.804 74.9338 10.412C74.9338 9.88 75.0691 9.42733 75.3398 9.054C75.6104 8.67133 75.9838 8.37733 76.4598 8.172C76.9451 7.96667 77.5004 7.864 78.1258 7.864C78.6764 7.864 79.1804 7.91533 79.6378 8.018C80.0951 8.12067 80.5104 8.256 80.8838 8.424L80.4918 9.502C80.1464 9.35267 79.7684 9.22667 79.3578 9.124C78.9564 9.02133 78.5364 8.97 78.0978 8.97C77.6778 8.97 77.3278 9.03067 77.0478 9.152C76.7678 9.27333 76.5578 9.446 76.4178 9.67C76.2778 9.88467 76.2078 10.1367 76.2078 10.426C76.2078 10.762 76.2778 11.042 76.4178 11.266C76.5578 11.49 76.7864 11.6907 77.1038 11.868C77.4211 12.0453 77.8504 12.2367 78.3918 12.442C78.9798 12.6567 79.4744 12.89 79.8758 13.142C80.2864 13.3847 80.5944 13.6787 80.7998 14.024C81.0144 14.3693 81.1218 14.8033 81.1218 15.326ZM87.4193 8.97C86.8873 8.97 86.4067 9.06333 85.9773 9.25C85.548 9.42733 85.184 9.69333 84.8853 10.048C84.5867 10.3933 84.358 10.818 84.1993 11.322C84.0407 11.8167 83.9613 12.3767 83.9613 13.002C83.9613 13.8233 84.0873 14.5373 84.3393 15.144C84.6007 15.7507 84.9833 16.2173 85.4873 16.544C86.0007 16.8707 86.64 17.034 87.4053 17.034C87.844 17.034 88.2593 16.9967 88.6513 16.922C89.0433 16.8473 89.426 16.754 89.7993 16.642V17.734C89.426 17.874 89.0387 17.9767 88.6373 18.042C88.2453 18.1073 87.774 18.14 87.2233 18.14C86.206 18.14 85.3567 17.93 84.6753 17.51C83.994 17.09 83.4807 16.4927 83.1353 15.718C82.7993 14.9433 82.6313 14.0333 82.6313 12.988C82.6313 12.232 82.734 11.5413 82.9393 10.916C83.154 10.2907 83.462 9.74933 83.8633 9.292C84.274 8.83467 84.778 8.48467 85.3753 8.242C85.9727 7.99 86.6587 7.864 87.4333 7.864C87.9467 7.864 88.4413 7.91533 88.9173 8.018C89.3933 8.12067 89.818 8.26533 90.1913 8.452L89.6873 9.516C89.3793 9.376 89.034 9.25 88.6513 9.138C88.278 9.026 87.8673 8.97 87.4193 8.97ZM98.4738 8.004C99.3044 8.004 99.9998 8.08333 100.56 8.242C101.129 8.40067 101.554 8.662 101.834 9.026C102.123 9.39 102.268 9.87533 102.268 10.482C102.268 10.874 102.193 11.224 102.044 11.532C101.904 11.8307 101.689 12.0827 101.4 12.288C101.12 12.484 100.774 12.6193 100.364 12.694V12.764C100.784 12.8293 101.162 12.9507 101.498 13.128C101.843 13.3053 102.114 13.5573 102.31 13.884C102.506 14.2107 102.604 14.6353 102.604 15.158C102.604 15.7647 102.464 16.2827 102.184 16.712C101.904 17.132 101.502 17.454 100.98 17.678C100.466 17.8927 99.8504 18 99.1318 18H95.6178V8.004H98.4738ZM98.7258 12.26C99.5844 12.26 100.172 12.1247 100.49 11.854C100.807 11.574 100.966 11.1633 100.966 10.622C100.966 10.0713 100.77 9.67933 100.378 9.446C99.9951 9.20333 99.3791 9.082 98.5298 9.082H96.8778V12.26H98.7258ZM96.8778 13.31V16.936H98.8938C99.7804 16.936 100.396 16.7633 100.742 16.418C101.087 16.0727 101.26 15.62 101.26 15.06C101.26 14.7053 101.18 14.3973 101.022 14.136C100.872 13.8747 100.616 13.674 100.252 13.534C99.8971 13.3847 99.4118 13.31 98.7958 13.31H96.8778ZM110.309 18H104.723V8.004H110.309V9.11H105.983V12.232H110.057V13.324H105.983V16.894H110.309V18ZM115.149 8.004C116.455 8.004 117.407 8.26067 118.005 8.774C118.602 9.28733 118.901 10.0107 118.901 10.944C118.901 11.3547 118.831 11.7513 118.691 12.134C118.56 12.5073 118.341 12.8433 118.033 13.142C117.725 13.4407 117.314 13.6787 116.801 13.856C116.287 14.024 115.657 14.108 114.911 14.108H113.763V18H112.503V8.004H115.149ZM115.037 9.082H113.763V13.03H114.771C115.405 13.03 115.933 12.9647 116.353 12.834C116.773 12.694 117.085 12.4747 117.291 12.176C117.496 11.8773 117.599 11.4853 117.599 11C117.599 10.356 117.393 9.87533 116.983 9.558C116.572 9.24067 115.923 9.082 115.037 9.082ZM126.901 18H120.293V16.978L122.911 14.332C123.415 13.828 123.84 13.38 124.185 12.988C124.53 12.596 124.792 12.2133 124.969 11.84C125.146 11.4573 125.235 11.042 125.235 10.594C125.235 10.0433 125.072 9.628 124.745 9.348C124.418 9.05867 123.994 8.914 123.471 8.914C122.986 8.914 122.556 8.998 122.183 9.166C121.819 9.334 121.446 9.56733 121.063 9.866L120.405 9.04C120.666 8.816 120.951 8.61533 121.259 8.438C121.576 8.26067 121.917 8.12067 122.281 8.018C122.654 7.91533 123.051 7.864 123.471 7.864C124.096 7.864 124.633 7.97133 125.081 8.186C125.529 8.40067 125.874 8.70867 126.117 9.11C126.369 9.502 126.495 9.97333 126.495 10.524C126.495 10.916 126.434 11.2893 126.313 11.644C126.192 11.9893 126.019 12.33 125.795 12.666C125.571 13.002 125.3 13.3427 124.983 13.688C124.666 14.0333 124.316 14.3927 123.933 14.766L121.847 16.824V16.88H126.901V18ZM134.955 12.988C134.955 13.8 134.894 14.5233 134.773 15.158C134.651 15.7927 134.455 16.334 134.185 16.782C133.923 17.2207 133.578 17.5567 133.149 17.79C132.729 18.0233 132.22 18.14 131.623 18.14C130.876 18.14 130.255 17.9347 129.761 17.524C129.275 17.1133 128.911 16.5253 128.669 15.76C128.435 14.9853 128.319 14.0613 128.319 12.988C128.319 11.9053 128.426 10.9813 128.641 10.216C128.865 9.45067 129.219 8.86733 129.705 8.466C130.19 8.05533 130.829 7.85 131.623 7.85C132.369 7.85 132.99 8.05533 133.485 8.466C133.979 8.86733 134.348 9.45067 134.591 10.216C134.833 10.9813 134.955 11.9053 134.955 12.988ZM129.551 12.988C129.551 13.9027 129.616 14.6633 129.747 15.27C129.887 15.8767 130.106 16.334 130.405 16.642C130.713 16.9407 131.119 17.09 131.623 17.09C132.127 17.09 132.528 16.9407 132.827 16.642C133.135 16.3433 133.359 15.8907 133.499 15.284C133.639 14.668 133.709 13.9027 133.709 12.988C133.709 12.0733 133.639 11.3173 133.499 10.72C133.359 10.1133 133.135 9.66067 132.827 9.362C132.528 9.054 132.127 8.9 131.623 8.9C131.119 8.9 130.713 9.054 130.405 9.362C130.106 9.66067 129.887 10.1133 129.747 10.72C129.616 11.3173 129.551 12.0733 129.551 12.988ZM142.921 14.164C142.921 14.9107 142.847 15.6433 142.697 16.362C142.557 17.0807 142.333 17.762 142.025 18.406C141.727 19.0593 141.339 19.6613 140.863 20.212H139.715C140.145 19.624 140.504 18.9987 140.793 18.336C141.083 17.6827 141.302 17.0013 141.451 16.292C141.601 15.5827 141.675 14.8687 141.675 14.15C141.675 13.4127 141.601 12.6847 141.451 11.966C141.302 11.2473 141.083 10.552 140.793 9.88C140.504 9.208 140.14 8.58267 139.701 8.004H140.863C141.339 8.564 141.727 9.17533 142.025 9.838C142.333 10.5007 142.557 11.196 142.697 11.924C142.847 12.652 142.921 13.3987 142.921 14.164Z" fill="white"/>
<path d="M183.379 12.988C183.379 13.8 183.318 14.5233 183.197 15.158C183.075 15.7927 182.879 16.334 182.609 16.782C182.347 17.2207 182.002 17.5567 181.573 17.79C181.153 18.0233 180.644 18.14 180.047 18.14C179.3 18.14 178.679 17.9347 178.185 17.524C177.699 17.1133 177.335 16.5253 177.093 15.76C176.859 14.9853 176.743 14.0613 176.743 12.988C176.743 11.9053 176.85 10.9813 177.065 10.216C177.289 9.45067 177.643 8.86733 178.129 8.466C178.614 8.05533 179.253 7.85 180.047 7.85C180.793 7.85 181.414 8.05533 181.909 8.466C182.403 8.86733 182.772 9.45067 183.015 10.216C183.257 10.9813 183.379 11.9053 183.379 12.988ZM177.975 12.988C177.975 13.9027 178.04 14.6633 178.171 15.27C178.311 15.8767 178.53 16.334 178.829 16.642C179.137 16.9407 179.543 17.09 180.047 17.09C180.551 17.09 180.952 16.9407 181.251 16.642C181.559 16.3433 181.783 15.8907 181.923 15.284C182.063 14.668 182.133 13.9027 182.133 12.988C182.133 12.0733 182.063 11.3173 181.923 10.72C181.783 10.1133 181.559 9.66067 181.251 9.362C180.952 9.054 180.551 8.9 180.047 8.9C179.543 8.9 179.137 9.054 178.829 9.362C178.53 9.66067 178.311 10.1133 178.171 10.72C178.04 11.3173 177.975 12.0733 177.975 12.988ZM187.036 14.164L184.446 10.496H185.846L187.778 13.324L189.696 10.496H191.082L188.492 14.164L191.222 18H189.822L187.778 15.004L185.706 18H184.32L187.036 14.164ZM195.329 11.868C196.01 11.868 196.603 11.9847 197.107 12.218C197.611 12.4513 197.998 12.7873 198.269 13.226C198.549 13.6553 198.689 14.1827 198.689 14.808C198.689 15.4987 198.539 16.096 198.241 16.6C197.942 17.0947 197.513 17.4773 196.953 17.748C196.402 18.0093 195.735 18.14 194.951 18.14C194.437 18.14 193.952 18.0933 193.495 18C193.047 17.9067 192.669 17.7713 192.361 17.594V16.432C192.697 16.6373 193.103 16.8007 193.579 16.922C194.064 17.034 194.526 17.09 194.965 17.09C195.459 17.09 195.889 17.0153 196.253 16.866C196.626 16.7073 196.915 16.4693 197.121 16.152C197.326 15.8253 197.429 15.4193 197.429 14.934C197.429 14.2807 197.228 13.7813 196.827 13.436C196.425 13.0813 195.791 12.904 194.923 12.904C194.661 12.904 194.363 12.9273 194.027 12.974C193.691 13.0207 193.42 13.0673 193.215 13.114L192.599 12.722L192.977 8.004H197.989V9.124H194.027L193.789 12.022C193.947 11.994 194.162 11.9613 194.433 11.924C194.703 11.8867 195.002 11.868 195.329 11.868ZM206.434 18H200.848V8.004H206.434V9.11H202.108V12.232H206.182V13.324H202.108V16.894H206.434V18ZM214.214 18H208.628V8.004H214.214V9.11H209.888V12.232H213.962V13.324H209.888V16.894H214.214V18ZM222.329 18H215.721V16.978L218.339 14.332C218.843 13.828 219.267 13.38 219.613 12.988C219.958 12.596 220.219 12.2133 220.397 11.84C220.574 11.4573 220.663 11.042 220.663 10.594C220.663 10.0433 220.499 9.628 220.173 9.348C219.846 9.05867 219.421 8.914 218.899 8.914C218.413 8.914 217.984 8.998 217.611 9.166C217.247 9.334 216.873 9.56733 216.491 9.866L215.833 9.04C216.094 8.816 216.379 8.61533 216.687 8.438C217.004 8.26067 217.345 8.12067 217.709 8.018C218.082 7.91533 218.479 7.864 218.899 7.864C219.524 7.864 220.061 7.97133 220.509 8.186C220.957 8.40067 221.302 8.70867 221.545 9.11C221.797 9.502 221.923 9.97333 221.923 10.524C221.923 10.916 221.862 11.2893 221.741 11.644C221.619 11.9893 221.447 12.33 221.223 12.666C220.999 13.002 220.728 13.3427 220.411 13.688C220.093 14.0333 219.743 14.3927 219.361 14.766L217.275 16.824V16.88H222.329V18ZM229.963 10.342C229.963 10.79 229.879 11.1773 229.711 11.504C229.543 11.8307 229.3 12.0967 228.983 12.302C228.675 12.5073 228.311 12.652 227.891 12.736V12.792C228.693 12.8853 229.291 13.1373 229.683 13.548C230.075 13.9587 230.271 14.4953 230.271 15.158C230.271 15.7367 230.135 16.2547 229.865 16.712C229.594 17.16 229.174 17.51 228.605 17.762C228.045 18.014 227.321 18.14 226.435 18.14C225.912 18.14 225.427 18.098 224.979 18.014C224.531 17.9393 224.101 17.7993 223.691 17.594V16.446C224.111 16.6513 224.563 16.8147 225.049 16.936C225.534 17.048 226.001 17.104 226.449 17.104C227.345 17.104 227.989 16.9313 228.381 16.586C228.782 16.2313 228.983 15.746 228.983 15.13C228.983 14.71 228.871 14.374 228.647 14.122C228.432 13.8607 228.115 13.6693 227.695 13.548C227.275 13.4267 226.771 13.366 226.183 13.366H225.217V12.316H226.197C226.747 12.316 227.205 12.2367 227.569 12.078C227.942 11.9193 228.222 11.7 228.409 11.42C228.605 11.1307 228.703 10.7993 228.703 10.426C228.703 9.94067 228.539 9.56733 228.213 9.306C227.886 9.03533 227.443 8.9 226.883 8.9C226.528 8.9 226.206 8.93733 225.917 9.012C225.627 9.07733 225.357 9.17533 225.105 9.306C224.862 9.42733 224.615 9.572 224.363 9.74L223.747 8.9C223.989 8.71333 224.265 8.54067 224.573 8.382C224.89 8.22333 225.24 8.09733 225.623 8.004C226.005 7.91067 226.421 7.864 226.869 7.864C227.914 7.864 228.689 8.09733 229.193 8.564C229.706 9.03067 229.963 9.62333 229.963 10.342ZM234.922 11.868C235.604 11.868 236.196 11.9847 236.7 12.218C237.204 12.4513 237.592 12.7873 237.862 13.226C238.142 13.6553 238.282 14.1827 238.282 14.808C238.282 15.4987 238.133 16.096 237.834 16.6C237.536 17.0947 237.106 17.4773 236.546 17.748C235.996 18.0093 235.328 18.14 234.544 18.14C234.031 18.14 233.546 18.0933 233.088 18C232.64 17.9067 232.262 17.7713 231.954 17.594V16.432C232.29 16.6373 232.696 16.8007 233.172 16.922C233.658 17.034 234.12 17.09 234.558 17.09C235.053 17.09 235.482 17.0153 235.846 16.866C236.22 16.7073 236.509 16.4693 236.714 16.152C236.92 15.8253 237.022 15.4193 237.022 14.934C237.022 14.2807 236.822 13.7813 236.42 13.436C236.019 13.0813 235.384 12.904 234.516 12.904C234.255 12.904 233.956 12.9273 233.62 12.974C233.284 13.0207 233.014 13.0673 232.808 13.114L232.192 12.722L232.57 8.004H237.582V9.124H233.62L233.382 12.022C233.541 11.994 233.756 11.9613 234.026 11.924C234.297 11.8867 234.596 11.868 234.922 11.868ZM246.028 18H240.442V8.004H246.028V9.11H241.702V12.232H245.776V13.324H241.702V16.894H246.028V18ZM248.767 18L252.869 9.124H247.479V8.004H254.185V8.956L250.125 18H248.767ZM262.197 12.988C262.197 13.8 262.136 14.5233 262.015 15.158C261.894 15.7927 261.698 16.334 261.427 16.782C261.166 17.2207 260.82 17.5567 260.391 17.79C259.971 18.0233 259.462 18.14 258.865 18.14C258.118 18.14 257.498 17.9347 257.003 17.524C256.518 17.1133 256.154 16.5253 255.911 15.76C255.678 14.9853 255.561 14.0613 255.561 12.988C255.561 11.9053 255.668 10.9813 255.883 10.216C256.107 9.45067 256.462 8.86733 256.947 8.466C257.432 8.05533 258.072 7.85 258.865 7.85C259.612 7.85 260.232 8.05533 260.727 8.466C261.222 8.86733 261.59 9.45067 261.833 10.216C262.076 10.9813 262.197 11.9053 262.197 12.988ZM256.793 12.988C256.793 13.9027 256.858 14.6633 256.989 15.27C257.129 15.8767 257.348 16.334 257.647 16.642C257.955 16.9407 258.361 17.09 258.865 17.09C259.369 17.09 259.77 16.9407 260.069 16.642C260.377 16.3433 260.601 15.8907 260.741 15.284C260.881 14.668 260.951 13.9027 260.951 12.988C260.951 12.0733 260.881 11.3173 260.741 10.72C260.601 10.1133 260.377 9.66067 260.069 9.362C259.77 9.054 259.369 8.9 258.865 8.9C258.361 8.9 257.955 9.054 257.647 9.362C257.348 9.66067 257.129 10.1133 256.989 10.72C256.858 11.3173 256.793 12.0733 256.793 12.988ZM266.737 18.14C265.803 18.14 265.057 17.818 264.497 17.174C263.937 16.5207 263.657 15.55 263.657 14.262C263.657 12.974 263.937 12.0033 264.497 11.35C265.066 10.6873 265.817 10.356 266.751 10.356C267.143 10.356 267.483 10.4073 267.773 10.51C268.062 10.6033 268.314 10.734 268.529 10.902C268.743 11.07 268.925 11.2567 269.075 11.462H269.159C269.149 11.3407 269.131 11.1633 269.103 10.93C269.084 10.6873 269.075 10.496 269.075 10.356V7.36H270.307V18H269.313L269.131 16.992H269.075C268.925 17.2067 268.743 17.4027 268.529 17.58C268.314 17.748 268.057 17.8833 267.759 17.986C267.469 18.0887 267.129 18.14 266.737 18.14ZM266.933 17.118C267.726 17.118 268.281 16.9033 268.599 16.474C268.925 16.0353 269.089 15.3773 269.089 14.5V14.276C269.089 13.3427 268.935 12.6287 268.627 12.134C268.319 11.63 267.749 11.378 266.919 11.378C266.256 11.378 265.757 11.644 265.421 12.176C265.094 12.6987 264.931 13.4033 264.931 14.29C264.931 15.186 265.094 15.8813 265.421 16.376C265.757 16.8707 266.261 17.118 266.933 17.118ZM274.118 18H272.858V8.004H278.444V9.11H274.118V12.652H278.178V13.758H274.118V18ZM280.664 18L284.766 9.124H279.376V8.004H286.082V8.956L282.022 18H280.664ZM294.051 18H287.443V16.978L290.061 14.332C290.565 13.828 290.99 13.38 291.335 12.988C291.681 12.596 291.942 12.2133 292.119 11.84C292.297 11.4573 292.385 11.042 292.385 10.594C292.385 10.0433 292.222 9.628 291.895 9.348C291.569 9.05867 291.144 8.914 290.621 8.914C290.136 8.914 289.707 8.998 289.333 9.166C288.969 9.334 288.596 9.56733 288.213 9.866L287.555 9.04C287.817 8.816 288.101 8.61533 288.409 8.438C288.727 8.26067 289.067 8.12067 289.431 8.018C289.805 7.91533 290.201 7.864 290.621 7.864C291.247 7.864 291.783 7.97133 292.231 8.186C292.679 8.40067 293.025 8.70867 293.267 9.11C293.519 9.502 293.645 9.97333 293.645 10.524C293.645 10.916 293.585 11.2893 293.463 11.644C293.342 11.9893 293.169 12.33 292.945 12.666C292.721 13.002 292.451 13.3427 292.133 13.688C291.816 14.0333 291.466 14.3927 291.083 14.766L288.997 16.824V16.88H294.051V18ZM298.871 10.356C299.515 10.356 300.066 10.496 300.523 10.776C300.99 11.056 301.345 11.4527 301.587 11.966C301.839 12.47 301.965 13.0627 301.965 13.744V14.486H296.827C296.846 15.3353 297.061 15.984 297.471 16.432C297.891 16.8707 298.475 17.09 299.221 17.09C299.697 17.09 300.117 17.048 300.481 16.964C300.855 16.8707 301.237 16.74 301.629 16.572V17.65C301.247 17.818 300.869 17.9393 300.495 18.014C300.122 18.098 299.679 18.14 299.165 18.14C298.456 18.14 297.826 17.9953 297.275 17.706C296.734 17.4167 296.309 16.9873 296.001 16.418C295.703 15.8393 295.553 15.1347 295.553 14.304C295.553 13.4827 295.689 12.778 295.959 12.19C296.239 11.602 296.627 11.1493 297.121 10.832C297.625 10.5147 298.209 10.356 298.871 10.356ZM298.857 11.364C298.269 11.364 297.803 11.5553 297.457 11.938C297.121 12.3113 296.921 12.834 296.855 13.506H300.677C300.677 13.0767 300.612 12.7033 300.481 12.386C300.351 12.0687 300.15 11.8213 299.879 11.644C299.618 11.4573 299.277 11.364 298.857 11.364ZM312.052 12.904C312.052 14.024 311.842 14.962 311.422 15.718C311.011 16.474 310.418 17.0433 309.644 17.426C308.869 17.8087 307.931 18 306.83 18H304.044V8.004H307.124C308.132 8.004 309.004 8.19067 309.742 8.564C310.479 8.93733 311.048 9.488 311.45 10.216C311.851 10.9347 312.052 11.8307 312.052 12.904ZM310.722 12.946C310.722 12.0593 310.572 11.3313 310.274 10.762C309.984 10.1927 309.555 9.77267 308.986 9.502C308.426 9.222 307.744 9.082 306.942 9.082H305.304V16.922H306.662C308.015 16.922 309.028 16.5907 309.7 15.928C310.381 15.256 310.722 14.262 310.722 12.946ZM320.64 15.732H319.184V18H317.994V15.732H313.206V14.682L317.91 7.948H319.184V14.626H320.64V15.732ZM317.994 11.476C317.994 11.2333 317.994 11.014 317.994 10.818C318.003 10.6127 318.013 10.4213 318.022 10.244C318.031 10.0667 318.036 9.89867 318.036 9.74C318.045 9.572 318.055 9.41333 318.064 9.264H318.008C317.933 9.44133 317.84 9.63267 317.728 9.838C317.616 10.0433 317.509 10.216 317.406 10.356L314.41 14.626H317.994V11.476ZM325.572 11.448H323.682V18H322.45V11.448H321.134V10.874L322.45 10.454V10.02C322.45 9.376 322.543 8.85333 322.73 8.452C322.926 8.05067 323.206 7.75667 323.57 7.57C323.934 7.38333 324.372 7.29 324.886 7.29C325.184 7.29 325.455 7.318 325.698 7.374C325.95 7.42067 326.164 7.47667 326.342 7.542L326.02 8.508C325.87 8.46133 325.698 8.41467 325.502 8.368C325.306 8.32133 325.105 8.298 324.9 8.298C324.489 8.298 324.181 8.438 323.976 8.718C323.78 8.98867 323.682 9.418 323.682 10.006V10.496H325.572V11.448ZM333.058 12.988C333.058 13.8 332.998 14.5233 332.876 15.158C332.755 15.7927 332.559 16.334 332.288 16.782C332.027 17.2207 331.682 17.5567 331.252 17.79C330.832 18.0233 330.324 18.14 329.726 18.14C328.98 18.14 328.359 17.9347 327.864 17.524C327.379 17.1133 327.015 16.5253 326.772 15.76C326.539 14.9853 326.422 14.0613 326.422 12.988C326.422 11.9053 326.53 10.9813 326.744 10.216C326.968 9.45067 327.323 8.86733 327.808 8.466C328.294 8.05533 328.933 7.85 329.726 7.85C330.473 7.85 331.094 8.05533 331.588 8.466C332.083 8.86733 332.452 9.45067 332.694 10.216C332.937 10.9813 333.058 11.9053 333.058 12.988ZM327.654 12.988C327.654 13.9027 327.72 14.6633 327.85 15.27C327.99 15.8767 328.21 16.334 328.508 16.642C328.816 16.9407 329.222 17.09 329.726 17.09C330.23 17.09 330.632 16.9407 330.93 16.642C331.238 16.3433 331.462 15.8907 331.602 15.284C331.742 14.668 331.812 13.9027 331.812 12.988C331.812 12.0733 331.742 11.3173 331.602 10.72C331.462 10.1133 331.238 9.66067 330.93 9.362C330.632 9.054 330.23 8.9 329.726 8.9C329.222 8.9 328.816 9.054 328.508 9.362C328.21 9.66067 327.99 10.1133 327.85 10.72C327.72 11.3173 327.654 12.0733 327.654 12.988ZM340.65 10.342C340.65 10.79 340.566 11.1773 340.398 11.504C340.23 11.8307 339.987 12.0967 339.67 12.302C339.362 12.5073 338.998 12.652 338.578 12.736V12.792C339.381 12.8853 339.978 13.1373 340.37 13.548C340.762 13.9587 340.958 14.4953 340.958 15.158C340.958 15.7367 340.823 16.2547 340.552 16.712C340.281 17.16 339.861 17.51 339.292 17.762C338.732 18.014 338.009 18.14 337.122 18.14C336.599 18.14 336.114 18.098 335.666 18.014C335.218 17.9393 334.789 17.7993 334.378 17.594V16.446C334.798 16.6513 335.251 16.8147 335.736 16.936C336.221 17.048 336.688 17.104 337.136 17.104C338.032 17.104 338.676 16.9313 339.068 16.586C339.469 16.2313 339.67 15.746 339.67 15.13C339.67 14.71 339.558 14.374 339.334 14.122C339.119 13.8607 338.802 13.6693 338.382 13.548C337.962 13.4267 337.458 13.366 336.87 13.366H335.904V12.316H336.884C337.435 12.316 337.892 12.2367 338.256 12.078C338.629 11.9193 338.909 11.7 339.096 11.42C339.292 11.1307 339.39 10.7993 339.39 10.426C339.39 9.94067 339.227 9.56733 338.9 9.306C338.573 9.03533 338.13 8.9 337.57 8.9C337.215 8.9 336.893 8.93733 336.604 9.012C336.315 9.07733 336.044 9.17533 335.792 9.306C335.549 9.42733 335.302 9.572 335.05 9.74L334.434 8.9C334.677 8.71333 334.952 8.54067 335.26 8.382C335.577 8.22333 335.927 8.09733 336.31 8.004C336.693 7.91067 337.108 7.864 337.556 7.864C338.601 7.864 339.376 8.09733 339.88 8.564C340.393 9.03067 340.65 9.62333 340.65 10.342ZM345.75 7.864C346.338 7.864 346.856 7.95733 347.304 8.144C347.752 8.32133 348.102 8.58733 348.354 8.942C348.615 9.29667 348.746 9.73533 348.746 10.258C348.746 10.6593 348.657 11.0093 348.48 11.308C348.312 11.6067 348.083 11.8727 347.794 12.106C347.504 12.33 347.187 12.5307 346.842 12.708C347.252 12.904 347.626 13.128 347.962 13.38C348.298 13.6227 348.564 13.9073 348.76 14.234C348.965 14.5607 349.068 14.9527 349.068 15.41C349.068 15.97 348.932 16.4553 348.662 16.866C348.391 17.2673 348.008 17.58 347.514 17.804C347.028 18.028 346.454 18.14 345.792 18.14C345.073 18.14 344.462 18.0327 343.958 17.818C343.463 17.6033 343.085 17.3 342.824 16.908C342.572 16.5067 342.446 16.0213 342.446 15.452C342.446 14.9947 342.539 14.598 342.726 14.262C342.922 13.926 343.178 13.6367 343.496 13.394C343.813 13.1513 344.154 12.946 344.518 12.778C344.191 12.5913 343.892 12.3813 343.622 12.148C343.36 11.9053 343.15 11.63 342.992 11.322C342.842 11.014 342.768 10.6547 342.768 10.244C342.768 9.73067 342.898 9.30133 343.16 8.956C343.421 8.60133 343.776 8.33067 344.224 8.144C344.672 7.95733 345.18 7.864 345.75 7.864ZM343.65 15.466C343.65 15.9513 343.822 16.3573 344.168 16.684C344.513 17.0013 345.045 17.16 345.764 17.16C346.221 17.16 346.604 17.0853 346.912 16.936C347.22 16.7867 347.453 16.5813 347.612 16.32C347.78 16.0587 347.864 15.76 347.864 15.424C347.864 15.0973 347.775 14.8127 347.598 14.57C347.43 14.318 347.187 14.094 346.87 13.898C346.562 13.702 346.193 13.5247 345.764 13.366L345.54 13.282C345.129 13.4593 344.784 13.6507 344.504 13.856C344.224 14.0613 344.009 14.2947 343.86 14.556C343.72 14.8173 343.65 15.1207 343.65 15.466ZM345.736 8.858C345.222 8.858 344.798 8.984 344.462 9.236C344.135 9.47867 343.972 9.83333 343.972 10.3C343.972 10.6453 344.051 10.9347 344.21 11.168C344.378 11.4013 344.602 11.602 344.882 11.77C345.162 11.9287 345.47 12.0827 345.806 12.232C346.132 12.092 346.422 11.938 346.674 11.77C346.935 11.602 347.14 11.4013 347.29 11.168C347.448 10.9253 347.528 10.636 347.528 10.3C347.528 9.83333 347.364 9.47867 347.038 9.236C346.711 8.984 346.277 8.858 345.736 8.858ZM356.715 18H351.129V8.004H356.715V9.11H352.389V12.232H356.463V13.324H352.389V16.894H356.715V18ZM364.831 12.274C364.831 12.8433 364.789 13.4127 364.705 13.982C364.63 14.542 364.495 15.074 364.299 15.578C364.103 16.0727 363.832 16.516 363.487 16.908C363.141 17.2907 362.703 17.594 362.171 17.818C361.639 18.0327 360.995 18.14 360.239 18.14C360.052 18.14 359.833 18.126 359.581 18.098C359.338 18.0793 359.137 18.0467 358.979 18V16.95C359.147 17.006 359.343 17.0527 359.567 17.09C359.791 17.118 360.005 17.132 360.211 17.132C360.864 17.132 361.401 17.0247 361.821 16.81C362.25 16.5953 362.591 16.306 362.843 15.942C363.095 15.5687 363.277 15.1393 363.389 14.654C363.501 14.1593 363.566 13.6413 363.585 13.1H363.501C363.361 13.3147 363.183 13.5107 362.969 13.688C362.754 13.8653 362.493 14.0053 362.185 14.108C361.886 14.2107 361.531 14.262 361.121 14.262C360.551 14.262 360.047 14.1453 359.609 13.912C359.179 13.6693 358.843 13.324 358.601 12.876C358.367 12.428 358.251 11.882 358.251 11.238C358.251 10.538 358.381 9.936 358.643 9.432C358.913 8.928 359.287 8.54067 359.763 8.27C360.239 7.99933 360.799 7.864 361.443 7.864C361.919 7.864 362.362 7.95733 362.773 8.144C363.183 8.32133 363.543 8.592 363.851 8.956C364.159 9.32 364.397 9.77733 364.565 10.328C364.742 10.8787 364.831 11.5273 364.831 12.274ZM361.443 8.9C360.864 8.9 360.388 9.09133 360.015 9.474C359.651 9.85667 359.469 10.44 359.469 11.224C359.469 11.868 359.623 12.3767 359.931 12.75C360.248 13.114 360.733 13.296 361.387 13.296C361.835 13.296 362.222 13.2073 362.549 13.03C362.875 12.8433 363.127 12.61 363.305 12.33C363.491 12.05 363.585 11.7607 363.585 11.462C363.585 11.1633 363.538 10.8647 363.445 10.566C363.361 10.258 363.23 9.978 363.053 9.726C362.875 9.474 362.651 9.27333 362.381 9.124C362.11 8.97467 361.797 8.9 361.443 8.9ZM373.193 18L371.989 14.906H368.027L366.837 18H365.562L369.469 7.962H370.603L374.495 18H373.193ZM370.491 10.762C370.463 10.6873 370.416 10.552 370.351 10.356C370.285 10.16 370.22 9.95933 370.155 9.754C370.099 9.53933 370.052 9.376 370.015 9.264C369.968 9.45067 369.917 9.642 369.861 9.838C369.814 10.0247 369.763 10.1973 369.707 10.356C369.66 10.5147 369.618 10.65 369.581 10.762L368.447 13.786H371.611L370.491 10.762ZM376.926 9.95C376.926 10.2673 376.917 10.566 376.898 10.846C376.889 11.1167 376.875 11.3313 376.856 11.49H376.926C377.141 11.1727 377.435 10.9067 377.808 10.692C378.181 10.4773 378.662 10.37 379.25 10.37C380.183 10.37 380.93 10.6967 381.49 11.35C382.059 11.994 382.344 12.96 382.344 14.248C382.344 15.1067 382.213 15.8253 381.952 16.404C381.7 16.9827 381.341 17.4167 380.874 17.706C380.407 17.9953 379.866 18.14 379.25 18.14C378.662 18.14 378.181 18.0327 377.808 17.818C377.435 17.6033 377.141 17.3467 376.926 17.048H376.828L376.576 18H375.694V7.36H376.926V9.95ZM379.04 11.392C378.508 11.392 378.088 11.4947 377.78 11.7C377.472 11.896 377.253 12.204 377.122 12.624C376.991 13.0347 376.926 13.562 376.926 14.206V14.262C376.926 15.186 377.075 15.8953 377.374 16.39C377.682 16.8753 378.247 17.118 379.068 17.118C379.74 17.118 380.239 16.8707 380.566 16.376C380.902 15.8813 381.07 15.1673 381.07 14.234C381.07 13.2913 380.902 12.582 380.566 12.106C380.239 11.63 379.731 11.392 379.04 11.392ZM390.397 18H383.789V16.978L386.407 14.332C386.911 13.828 387.336 13.38 387.681 12.988C388.027 12.596 388.288 12.2133 388.465 11.84C388.643 11.4573 388.731 11.042 388.731 10.594C388.731 10.0433 388.568 9.628 388.241 9.348C387.915 9.05867 387.49 8.914 386.967 8.914C386.482 8.914 386.053 8.998 385.679 9.166C385.315 9.334 384.942 9.56733 384.559 9.866L383.901 9.04C384.163 8.816 384.447 8.61533 384.755 8.438C385.073 8.26067 385.413 8.12067 385.777 8.018C386.151 7.91533 386.547 7.864 386.967 7.864C387.593 7.864 388.129 7.97133 388.577 8.186C389.025 8.40067 389.371 8.70867 389.613 9.11C389.865 9.502 389.991 9.97333 389.991 10.524C389.991 10.916 389.931 11.2893 389.809 11.644C389.688 11.9893 389.515 12.33 389.291 12.666C389.067 13.002 388.797 13.3427 388.479 13.688C388.162 14.0333 387.812 14.3927 387.429 14.766L385.343 16.824V16.88H390.397V18ZM398.409 12.274C398.409 12.8433 398.367 13.4127 398.283 13.982C398.208 14.542 398.073 15.074 397.877 15.578C397.681 16.0727 397.41 16.516 397.065 16.908C396.72 17.2907 396.281 17.594 395.749 17.818C395.217 18.0327 394.573 18.14 393.817 18.14C393.63 18.14 393.411 18.126 393.159 18.098C392.916 18.0793 392.716 18.0467 392.557 18V16.95C392.725 17.006 392.921 17.0527 393.145 17.09C393.369 17.118 393.584 17.132 393.789 17.132C394.442 17.132 394.979 17.0247 395.399 16.81C395.828 16.5953 396.169 16.306 396.421 15.942C396.673 15.5687 396.855 15.1393 396.967 14.654C397.079 14.1593 397.144 13.6413 397.163 13.1H397.079C396.939 13.3147 396.762 13.5107 396.547 13.688C396.332 13.8653 396.071 14.0053 395.763 14.108C395.464 14.2107 395.11 14.262 394.699 14.262C394.13 14.262 393.626 14.1453 393.187 13.912C392.758 13.6693 392.422 13.324 392.179 12.876C391.946 12.428 391.829 11.882 391.829 11.238C391.829 10.538 391.96 9.936 392.221 9.432C392.492 8.928 392.865 8.54067 393.341 8.27C393.817 7.99933 394.377 7.864 395.021 7.864C395.497 7.864 395.94 7.95733 396.351 8.144C396.762 8.32133 397.121 8.592 397.429 8.956C397.737 9.32 397.975 9.77733 398.143 10.328C398.32 10.8787 398.409 11.5273 398.409 12.274ZM395.021 8.9C394.442 8.9 393.966 9.09133 393.593 9.474C393.229 9.85667 393.047 10.44 393.047 11.224C393.047 11.868 393.201 12.3767 393.509 12.75C393.826 13.114 394.312 13.296 394.965 13.296C395.413 13.296 395.8 13.2073 396.127 13.03C396.454 12.8433 396.706 12.61 396.883 12.33C397.07 12.05 397.163 11.7607 397.163 11.462C397.163 11.1633 397.116 10.8647 397.023 10.566C396.939 10.258 396.808 9.978 396.631 9.726C396.454 9.474 396.23 9.27333 395.959 9.124C395.688 8.97467 395.376 8.9 395.021 8.9ZM403.131 7.864C403.719 7.864 404.237 7.95733 404.685 8.144C405.133 8.32133 405.483 8.58733 405.735 8.942C405.996 9.29667 406.127 9.73533 406.127 10.258C406.127 10.6593 406.038 11.0093 405.861 11.308C405.693 11.6067 405.464 11.8727 405.175 12.106C404.885 12.33 404.568 12.5307 404.223 12.708C404.633 12.904 405.007 13.128 405.343 13.38C405.679 13.6227 405.945 13.9073 406.141 14.234C406.346 14.5607 406.449 14.9527 406.449 15.41C406.449 15.97 406.313 16.4553 406.043 16.866C405.772 17.2673 405.389 17.58 404.895 17.804C404.409 18.028 403.835 18.14 403.173 18.14C402.454 18.14 401.843 18.0327 401.339 17.818C400.844 17.6033 400.466 17.3 400.205 16.908C399.953 16.5067 399.827 16.0213 399.827 15.452C399.827 14.9947 399.92 14.598 400.107 14.262C400.303 13.926 400.559 13.6367 400.877 13.394C401.194 13.1513 401.535 12.946 401.899 12.778C401.572 12.5913 401.273 12.3813 401.003 12.148C400.741 11.9053 400.531 11.63 400.373 11.322C400.223 11.014 400.149 10.6547 400.149 10.244C400.149 9.73067 400.279 9.30133 400.541 8.956C400.802 8.60133 401.157 8.33067 401.605 8.144C402.053 7.95733 402.561 7.864 403.131 7.864ZM401.031 15.466C401.031 15.9513 401.203 16.3573 401.549 16.684C401.894 17.0013 402.426 17.16 403.145 17.16C403.602 17.16 403.985 17.0853 404.293 16.936C404.601 16.7867 404.834 16.5813 404.993 16.32C405.161 16.0587 405.245 15.76 405.245 15.424C405.245 15.0973 405.156 14.8127 404.979 14.57C404.811 14.318 404.568 14.094 404.251 13.898C403.943 13.702 403.574 13.5247 403.145 13.366L402.921 13.282C402.51 13.4593 402.165 13.6507 401.885 13.856C401.605 14.0613 401.39 14.2947 401.241 14.556C401.101 14.8173 401.031 15.1207 401.031 15.466ZM403.117 8.858C402.603 8.858 402.179 8.984 401.843 9.236C401.516 9.47867 401.353 9.83333 401.353 10.3C401.353 10.6453 401.432 10.9347 401.591 11.168C401.759 11.4013 401.983 11.602 402.263 11.77C402.543 11.9287 402.851 12.0827 403.187 12.232C403.513 12.092 403.803 11.938 404.055 11.77C404.316 11.602 404.521 11.4013 404.671 11.168C404.829 10.9253 404.909 10.636 404.909 10.3C404.909 9.83333 404.745 9.47867 404.419 9.236C404.092 8.984 403.658 8.858 403.117 8.858ZM414.782 18L413.578 14.906H409.616L408.426 18H407.152L411.058 7.962H412.192L416.084 18H414.782ZM412.08 10.762C412.052 10.6873 412.006 10.552 411.94 10.356C411.875 10.16 411.81 9.95933 411.744 9.754C411.688 9.53933 411.642 9.376 411.604 9.264C411.558 9.45067 411.506 9.642 411.45 9.838C411.404 10.0247 411.352 10.1973 411.296 10.356C411.25 10.5147 411.208 10.65 411.17 10.762L410.036 13.786H413.2L412.08 10.762ZM420.308 8.004C421.138 8.004 421.834 8.08333 422.394 8.242C422.963 8.40067 423.388 8.662 423.668 9.026C423.957 9.39 424.102 9.87533 424.102 10.482C424.102 10.874 424.027 11.224 423.878 11.532C423.738 11.8307 423.523 12.0827 423.234 12.288C422.954 12.484 422.608 12.6193 422.198 12.694V12.764C422.618 12.8293 422.996 12.9507 423.332 13.128C423.677 13.3053 423.948 13.5573 424.144 13.884C424.34 14.2107 424.438 14.6353 424.438 15.158C424.438 15.7647 424.298 16.2827 424.018 16.712C423.738 17.132 423.336 17.454 422.814 17.678C422.3 17.8927 421.684 18 420.966 18H417.452V8.004H420.308ZM420.56 12.26C421.418 12.26 422.006 12.1247 422.324 11.854C422.641 11.574 422.8 11.1633 422.8 10.622C422.8 10.0713 422.604 9.67933 422.212 9.446C421.829 9.20333 421.213 9.082 420.364 9.082H418.712V12.26H420.56ZM418.712 13.31V16.936H420.728C421.614 16.936 422.23 16.7633 422.576 16.418C422.921 16.0727 423.094 15.62 423.094 15.06C423.094 14.7053 423.014 14.3973 422.856 14.136C422.706 13.8747 422.45 13.674 422.086 13.534C421.731 13.3847 421.246 13.31 420.63 13.31H418.712ZM427.817 18H426.557V8.004H432.143V9.11H427.817V12.652H431.877V13.758H427.817V18ZM440.187 15.732H438.731V18H437.541V15.732H432.753V14.682L437.457 7.948H438.731V14.626H440.187V15.732ZM437.541 11.476C437.541 11.2333 437.541 11.014 437.541 10.818C437.55 10.6127 437.56 10.4213 437.569 10.244C437.578 10.0667 437.583 9.89867 437.583 9.74C437.592 9.572 437.602 9.41333 437.611 9.264H437.555C437.48 9.44133 437.387 9.63267 437.275 9.838C437.163 10.0433 437.056 10.216 436.953 10.356L433.957 14.626H437.541V11.476ZM447.751 12.274C447.751 12.8433 447.709 13.4127 447.625 13.982C447.55 14.542 447.415 15.074 447.219 15.578C447.023 16.0727 446.752 16.516 446.407 16.908C446.061 17.2907 445.623 17.594 445.091 17.818C444.559 18.0327 443.915 18.14 443.159 18.14C442.972 18.14 442.753 18.126 442.501 18.098C442.258 18.0793 442.057 18.0467 441.899 18V16.95C442.067 17.006 442.263 17.0527 442.487 17.09C442.711 17.118 442.925 17.132 443.131 17.132C443.784 17.132 444.321 17.0247 444.741 16.81C445.17 16.5953 445.511 16.306 445.763 15.942C446.015 15.5687 446.197 15.1393 446.309 14.654C446.421 14.1593 446.486 13.6413 446.505 13.1H446.421C446.281 13.3147 446.103 13.5107 445.889 13.688C445.674 13.8653 445.413 14.0053 445.105 14.108C444.806 14.2107 444.451 14.262 444.041 14.262C443.471 14.262 442.967 14.1453 442.529 13.912C442.099 13.6693 441.763 13.324 441.521 12.876C441.287 12.428 441.171 11.882 441.171 11.238C441.171 10.538 441.301 9.936 441.563 9.432C441.833 8.928 442.207 8.54067 442.683 8.27C443.159 7.99933 443.719 7.864 444.363 7.864C444.839 7.864 445.282 7.95733 445.693 8.144C446.103 8.32133 446.463 8.592 446.771 8.956C447.079 9.32 447.317 9.77733 447.485 10.328C447.662 10.8787 447.751 11.5273 447.751 12.274ZM444.363 8.9C443.784 8.9 443.308 9.09133 442.935 9.474C442.571 9.85667 442.389 10.44 442.389 11.224C442.389 11.868 442.543 12.3767 442.851 12.75C443.168 13.114 443.653 13.296 444.307 13.296C444.755 13.296 445.142 13.2073 445.469 13.03C445.795 12.8433 446.047 12.61 446.225 12.33C446.411 12.05 446.505 11.7607 446.505 11.462C446.505 11.1633 446.458 10.8647 446.365 10.566C446.281 10.258 446.15 9.978 445.973 9.726C445.795 9.474 445.571 9.27333 445.301 9.124C445.03 8.97467 444.717 8.9 444.363 8.9ZM452.514 10.37C453.429 10.37 454.106 10.5707 454.544 10.972C454.983 11.3733 455.202 12.0127 455.202 12.89V18H454.306L454.068 16.936H454.012C453.798 17.2067 453.574 17.4353 453.34 17.622C453.116 17.7993 452.855 17.93 452.556 18.014C452.267 18.098 451.912 18.14 451.492 18.14C451.044 18.14 450.638 18.0607 450.274 17.902C449.92 17.7433 449.64 17.5007 449.434 17.174C449.229 16.838 449.126 16.418 449.126 15.914C449.126 15.1673 449.42 14.5933 450.008 14.192C450.596 13.7813 451.502 13.5573 452.724 13.52L453.998 13.478V13.03C453.998 12.4047 453.863 11.9707 453.592 11.728C453.322 11.4853 452.939 11.364 452.444 11.364C452.052 11.364 451.679 11.4247 451.324 11.546C450.97 11.658 450.638 11.7887 450.33 11.938L449.952 11.014C450.279 10.8367 450.666 10.6873 451.114 10.566C451.562 10.4353 452.029 10.37 452.514 10.37ZM452.878 14.374C451.945 14.4113 451.296 14.5607 450.932 14.822C450.578 15.0833 450.4 15.452 450.4 15.928C450.4 16.348 450.526 16.656 450.778 16.852C451.04 17.048 451.371 17.146 451.772 17.146C452.407 17.146 452.934 16.9733 453.354 16.628C453.774 16.2733 453.984 15.732 453.984 15.004V14.332L452.878 14.374ZM461.3 18H460.096V11.014C460.096 10.7433 460.096 10.5147 460.096 10.328C460.105 10.1413 460.115 9.96867 460.124 9.81C460.133 9.642 460.143 9.46933 460.152 9.292C460.003 9.44133 459.867 9.56733 459.746 9.67C459.625 9.77267 459.471 9.90333 459.284 10.062L458.22 10.93L457.576 10.104L460.278 8.004H461.3V18ZM471.972 18L470.768 14.906H466.806L465.616 18H464.342L468.248 7.962H469.382L473.274 18H471.972ZM469.27 10.762C469.242 10.6873 469.195 10.552 469.13 10.356C469.064 10.16 468.999 9.95933 468.934 9.754C468.878 9.53933 468.831 9.376 468.794 9.264C468.747 9.45067 468.696 9.642 468.64 9.838C468.593 10.0247 468.542 10.1973 468.486 10.356C468.439 10.5147 468.397 10.65 468.36 10.762L467.226 13.786H470.39L469.27 10.762ZM475.705 9.95C475.705 10.2673 475.696 10.566 475.677 10.846C475.668 11.1167 475.654 11.3313 475.635 11.49H475.705C475.92 11.1727 476.214 10.9067 476.587 10.692C476.961 10.4773 477.441 10.37 478.029 10.37C478.963 10.37 479.709 10.6967 480.269 11.35C480.839 11.994 481.123 12.96 481.123 14.248C481.123 15.1067 480.993 15.8253 480.731 16.404C480.479 16.9827 480.12 17.4167 479.653 17.706C479.187 17.9953 478.645 18.14 478.029 18.14C477.441 18.14 476.961 18.0327 476.587 17.818C476.214 17.6033 475.92 17.3467 475.705 17.048H475.607L475.355 18H474.473V7.36H475.705V9.95ZM477.819 11.392C477.287 11.392 476.867 11.4947 476.559 11.7C476.251 11.896 476.032 12.204 475.901 12.624C475.771 13.0347 475.705 13.562 475.705 14.206V14.262C475.705 15.186 475.855 15.8953 476.153 16.39C476.461 16.8753 477.026 17.118 477.847 17.118C478.519 17.118 479.019 16.8707 479.345 16.376C479.681 15.8813 479.849 15.1673 479.849 14.234C479.849 13.2913 479.681 12.582 479.345 12.106C479.019 11.63 478.51 11.392 477.819 11.392ZM482.666 13.73C482.666 13.1513 482.704 12.582 482.778 12.022C482.862 11.462 483.002 10.9347 483.198 10.44C483.394 9.936 483.665 9.49267 484.01 9.11C484.356 8.718 484.79 8.41467 485.312 8.2C485.844 7.976 486.488 7.864 487.244 7.864C487.44 7.864 487.655 7.87333 487.888 7.892C488.131 7.91067 488.327 7.94333 488.476 7.99V9.04C488.308 8.984 488.117 8.942 487.902 8.914C487.697 8.886 487.487 8.872 487.272 8.872C486.628 8.872 486.092 8.97933 485.662 9.194C485.233 9.40867 484.892 9.70267 484.64 10.076C484.398 10.4493 484.22 10.8787 484.108 11.364C483.996 11.8493 483.926 12.3673 483.898 12.918H483.982C484.122 12.694 484.3 12.4933 484.514 12.316C484.729 12.1387 484.986 11.9987 485.284 11.896C485.592 11.7933 485.947 11.742 486.348 11.742C486.927 11.742 487.431 11.8633 487.86 12.106C488.299 12.3393 488.64 12.6847 488.882 13.142C489.125 13.59 489.246 14.136 489.246 14.78C489.246 15.4707 489.116 16.068 488.854 16.572C488.593 17.076 488.224 17.4633 487.748 17.734C487.282 18.0047 486.722 18.14 486.068 18.14C485.592 18.14 485.149 18.0513 484.738 17.874C484.328 17.6967 483.964 17.426 483.646 17.062C483.338 16.698 483.096 16.2407 482.918 15.69C482.75 15.13 482.666 14.4767 482.666 13.73ZM486.054 17.104C486.642 17.104 487.118 16.9173 487.482 16.544C487.846 16.1613 488.028 15.5733 488.028 14.78C488.028 14.1453 487.865 13.6413 487.538 13.268C487.221 12.8947 486.74 12.708 486.096 12.708C485.658 12.708 485.275 12.8013 484.948 12.988C484.622 13.1653 484.365 13.394 484.178 13.674C484.001 13.954 483.912 14.2433 483.912 14.542C483.912 14.85 483.954 15.1533 484.038 15.452C484.132 15.7507 484.267 16.026 484.444 16.278C484.631 16.53 484.855 16.7307 485.116 16.88C485.387 17.0293 485.7 17.104 486.054 17.104ZM497.188 18H490.58V16.978L493.198 14.332C493.702 13.828 494.127 13.38 494.472 12.988C494.818 12.596 495.079 12.2133 495.256 11.84C495.434 11.4573 495.522 11.042 495.522 10.594C495.522 10.0433 495.359 9.628 495.032 9.348C494.706 9.05867 494.281 8.914 493.758 8.914C493.273 8.914 492.844 8.998 492.47 9.166C492.106 9.334 491.733 9.56733 491.35 9.866L490.692 9.04C490.954 8.816 491.238 8.61533 491.546 8.438C491.864 8.26067 492.204 8.12067 492.568 8.018C492.942 7.91533 493.338 7.864 493.758 7.864C494.384 7.864 494.92 7.97133 495.368 8.186C495.816 8.40067 496.162 8.70867 496.404 9.11C496.656 9.502 496.782 9.97333 496.782 10.524C496.782 10.916 496.722 11.2893 496.6 11.644C496.479 11.9893 496.306 12.33 496.082 12.666C495.858 13.002 495.588 13.3427 495.27 13.688C494.953 14.0333 494.603 14.3927 494.22 14.766L492.134 16.824V16.88H497.188V18ZM499.824 18L503.926 9.124H498.536V8.004H505.242V8.956L501.182 18H499.824ZM509.922 7.864C510.51 7.864 511.028 7.95733 511.476 8.144C511.924 8.32133 512.274 8.58733 512.526 8.942C512.787 9.29667 512.918 9.73533 512.918 10.258C512.918 10.6593 512.829 11.0093 512.652 11.308C512.484 11.6067 512.255 11.8727 511.966 12.106C511.676 12.33 511.359 12.5307 511.014 12.708C511.424 12.904 511.798 13.128 512.134 13.38C512.47 13.6227 512.736 13.9073 512.932 14.234C513.137 14.5607 513.24 14.9527 513.24 15.41C513.24 15.97 513.104 16.4553 512.834 16.866C512.563 17.2673 512.18 17.58 511.686 17.804C511.2 18.028 510.626 18.14 509.964 18.14C509.245 18.14 508.634 18.0327 508.13 17.818C507.635 17.6033 507.257 17.3 506.996 16.908C506.744 16.5067 506.618 16.0213 506.618 15.452C506.618 14.9947 506.711 14.598 506.898 14.262C507.094 13.926 507.35 13.6367 507.668 13.394C507.985 13.1513 508.326 12.946 508.69 12.778C508.363 12.5913 508.064 12.3813 507.794 12.148C507.532 11.9053 507.322 11.63 507.164 11.322C507.014 11.014 506.94 10.6547 506.94 10.244C506.94 9.73067 507.07 9.30133 507.332 8.956C507.593 8.60133 507.948 8.33067 508.396 8.144C508.844 7.95733 509.352 7.864 509.922 7.864ZM507.822 15.466C507.822 15.9513 507.994 16.3573 508.34 16.684C508.685 17.0013 509.217 17.16 509.936 17.16C510.393 17.16 510.776 17.0853 511.084 16.936C511.392 16.7867 511.625 16.5813 511.784 16.32C511.952 16.0587 512.036 15.76 512.036 15.424C512.036 15.0973 511.947 14.8127 511.77 14.57C511.602 14.318 511.359 14.094 511.042 13.898C510.734 13.702 510.365 13.5247 509.936 13.366L509.712 13.282C509.301 13.4593 508.956 13.6507 508.676 13.856C508.396 14.0613 508.181 14.2947 508.032 14.556C507.892 14.8173 507.822 15.1207 507.822 15.466ZM509.908 8.858C509.394 8.858 508.97 8.984 508.634 9.236C508.307 9.47867 508.144 9.83333 508.144 10.3C508.144 10.6453 508.223 10.9347 508.382 11.168C508.55 11.4013 508.774 11.602 509.054 11.77C509.334 11.9287 509.642 12.0827 509.978 12.232C510.304 12.092 510.594 11.938 510.846 11.77C511.107 11.602 511.312 11.4013 511.462 11.168C511.62 10.9253 511.7 10.636 511.7 10.3C511.7 9.83333 511.536 9.47867 511.21 9.236C510.883 8.984 510.449 8.858 509.908 8.858Z" fill="#555555"/>
</svg>
