<svg width="554" height="25" viewBox="0 0 554 25" fill="none" xmlns="http://www.w3.org/2000/svg">
<rect width="554" height="25" fill="#555555"/>
<rect x="159" width="395" height="25" fill="#9945FF"/>
<path d="M20.7691 18H19.5091V9.11H16.3871V8.004H23.8771V9.11H20.7691V18ZM27.13 10.356C27.774 10.356 28.3247 10.496 28.782 10.776C29.2487 11.056 29.6033 11.4527 29.846 11.966C30.098 12.47 30.224 13.0627 30.224 13.744V14.486H25.086C25.1047 15.3353 25.3193 15.984 25.73 16.432C26.15 16.8707 26.7333 17.09 27.48 17.09C27.956 17.09 28.376 17.048 28.74 16.964C29.1133 16.8707 29.496 16.74 29.888 16.572V17.65C29.5053 17.818 29.1273 17.9393 28.754 18.014C28.3807 18.098 27.9373 18.14 27.424 18.14C26.7147 18.14 26.0847 17.9953 25.534 17.706C24.9927 17.4167 24.568 16.9873 24.26 16.418C23.9613 15.8393 23.812 15.1347 23.812 14.304C23.812 13.4827 23.9473 12.778 24.218 12.19C24.498 11.602 24.8853 11.1493 25.38 10.832C25.884 10.5147 26.4673 10.356 27.13 10.356ZM27.116 11.364C26.528 11.364 26.0613 11.5553 25.716 11.938C25.38 12.3113 25.1793 12.834 25.114 13.506H28.936C28.936 13.0767 28.8707 12.7033 28.74 12.386C28.6093 12.0687 28.4087 11.8213 28.138 11.644C27.8767 11.4573 27.536 11.364 27.116 11.364ZM34.6403 17.132C34.827 17.132 35.0183 17.118 35.2143 17.09C35.4103 17.0527 35.569 17.0153 35.6903 16.978V17.916C35.5597 17.9813 35.373 18.0327 35.1303 18.07C34.8877 18.1167 34.6543 18.14 34.4303 18.14C34.0383 18.14 33.6743 18.0747 33.3383 17.944C33.0117 17.804 32.7457 17.566 32.5403 17.23C32.335 16.894 32.2323 16.4227 32.2323 15.816V11.448H31.1683V10.86L32.2463 10.37L32.7363 8.774H33.4643V10.496H35.6343V11.448H33.4643V15.788C33.4643 16.2453 33.5717 16.586 33.7863 16.81C34.0103 17.0247 34.295 17.132 34.6403 17.132ZM38.4249 10.482C38.4249 10.6593 38.4156 10.8413 38.3969 11.028C38.3876 11.2147 38.3736 11.3827 38.3549 11.532H38.4389C38.5976 11.2707 38.7983 11.056 39.0409 10.888C39.2836 10.72 39.5543 10.594 39.8529 10.51C40.1516 10.4167 40.4596 10.37 40.7769 10.37C41.3836 10.37 41.8876 10.468 42.2889 10.664C42.6996 10.8507 43.0076 11.1447 43.2129 11.546C43.4183 11.9473 43.5209 12.47 43.5209 13.114V18H42.3029V13.198C42.3029 12.5913 42.1676 12.1387 41.8969 11.84C41.6263 11.5413 41.2016 11.392 40.6229 11.392C40.0629 11.392 39.6243 11.4993 39.3069 11.714C38.9896 11.9193 38.7609 12.2273 38.6209 12.638C38.4903 13.0393 38.4249 13.534 38.4249 14.122V18H37.1929V7.36H38.4249V10.482ZM48.7452 10.356C49.3892 10.356 49.9399 10.496 50.3972 10.776C50.8639 11.056 51.2186 11.4527 51.4612 11.966C51.7132 12.47 51.8392 13.0627 51.8392 13.744V14.486H46.7012C46.7199 15.3353 46.9346 15.984 47.3452 16.432C47.7652 16.8707 48.3486 17.09 49.0952 17.09C49.5712 17.09 49.9912 17.048 50.3552 16.964C50.7286 16.8707 51.1112 16.74 51.5032 16.572V17.65C51.1206 17.818 50.7426 17.9393 50.3692 18.014C49.9959 18.098 49.5526 18.14 49.0392 18.14C48.3299 18.14 47.6999 17.9953 47.1492 17.706C46.6079 17.4167 46.1832 16.9873 45.8752 16.418C45.5766 15.8393 45.4272 15.1347 45.4272 14.304C45.4272 13.4827 45.5626 12.778 45.8332 12.19C46.1132 11.602 46.5006 11.1493 46.9952 10.832C47.4992 10.5147 48.0826 10.356 48.7452 10.356ZM48.7312 11.364C48.1432 11.364 47.6766 11.5553 47.3312 11.938C46.9952 12.3113 46.7946 12.834 46.7292 13.506H50.5512C50.5512 13.0767 50.4859 12.7033 50.3552 12.386C50.2246 12.0687 50.0239 11.8213 49.7532 11.644C49.4919 11.4573 49.1512 11.364 48.7312 11.364ZM57.2496 10.356C57.3896 10.356 57.5389 10.3653 57.6976 10.384C57.8656 10.3933 58.0102 10.412 58.1316 10.44L57.9776 11.574C57.8562 11.546 57.7209 11.5227 57.5716 11.504C57.4316 11.4853 57.2962 11.476 57.1656 11.476C56.8762 11.476 56.6009 11.5367 56.3396 11.658C56.0782 11.7793 55.8449 11.952 55.6396 12.176C55.4342 12.3907 55.2709 12.652 55.1496 12.96C55.0376 13.268 54.9816 13.6133 54.9816 13.996V18H53.7496V10.496H54.7576L54.8976 11.868H54.9536C55.1122 11.588 55.3036 11.336 55.5276 11.112C55.7516 10.8787 56.0082 10.6967 56.2976 10.566C56.5869 10.426 56.9042 10.356 57.2496 10.356ZM70.9395 14.472C70.9395 15.1627 70.7995 15.788 70.5195 16.348C70.2395 16.8987 69.8102 17.3373 69.2315 17.664C68.6622 17.9813 67.9342 18.14 67.0475 18.14C65.8062 18.14 64.8588 17.804 64.2055 17.132C63.5615 16.4507 63.2395 15.5547 63.2395 14.444V8.004H64.4995V14.486C64.4995 15.298 64.7142 15.928 65.1435 16.376C65.5822 16.824 66.2402 17.048 67.1175 17.048C67.7242 17.048 68.2142 16.9407 68.5875 16.726C68.9702 16.502 69.2502 16.1987 69.4275 15.816C69.6048 15.424 69.6935 14.976 69.6935 14.472V8.004H70.9395V14.472ZM79.2477 15.326C79.2477 15.9233 79.1031 16.432 78.8137 16.852C78.5244 17.2627 78.1091 17.58 77.5677 17.804C77.0357 18.028 76.4057 18.14 75.6777 18.14C75.3044 18.14 74.9451 18.1213 74.5997 18.084C74.2637 18.0467 73.9557 17.9953 73.6757 17.93C73.3957 17.8553 73.1484 17.7667 72.9337 17.664V16.46C73.2697 16.6093 73.6851 16.7447 74.1797 16.866C74.6837 16.9873 75.2017 17.048 75.7337 17.048C76.2284 17.048 76.6437 16.9827 76.9797 16.852C77.3157 16.7213 77.5677 16.5347 77.7357 16.292C77.9037 16.0493 77.9877 15.7647 77.9877 15.438C77.9877 15.1113 77.9177 14.836 77.7777 14.612C77.6377 14.388 77.3951 14.1827 77.0497 13.996C76.7137 13.8 76.2424 13.5947 75.6357 13.38C75.2064 13.2213 74.8284 13.0533 74.5017 12.876C74.1844 12.6893 73.9184 12.4793 73.7037 12.246C73.4891 12.0127 73.3257 11.7467 73.2137 11.448C73.1111 11.1493 73.0597 10.804 73.0597 10.412C73.0597 9.88 73.1951 9.42733 73.4657 9.054C73.7364 8.67133 74.1097 8.37733 74.5857 8.172C75.0711 7.96667 75.6264 7.864 76.2517 7.864C76.8024 7.864 77.3064 7.91533 77.7637 8.018C78.2211 8.12067 78.6364 8.256 79.0097 8.424L78.6177 9.502C78.2724 9.35267 77.8944 9.22667 77.4837 9.124C77.0824 9.02133 76.6624 8.97 76.2237 8.97C75.8037 8.97 75.4537 9.03067 75.1737 9.152C74.8937 9.27333 74.6837 9.446 74.5437 9.67C74.4037 9.88467 74.3337 10.1367 74.3337 10.426C74.3337 10.762 74.4037 11.042 74.5437 11.266C74.6837 11.49 74.9124 11.6907 75.2297 11.868C75.5471 12.0453 75.9764 12.2367 76.5177 12.442C77.1057 12.6567 77.6004 12.89 78.0017 13.142C78.4124 13.3847 78.7204 13.6787 78.9257 14.024C79.1404 14.3693 79.2477 14.8033 79.2477 15.326ZM89.2693 12.904C89.2693 14.024 89.0593 14.962 88.6393 15.718C88.2287 16.474 87.636 17.0433 86.8613 17.426C86.0867 17.8087 85.1487 18 84.0473 18H81.2613V8.004H84.3413C85.3493 8.004 86.222 8.19067 86.9593 8.564C87.6967 8.93733 88.266 9.488 88.6673 10.216C89.0687 10.9347 89.2693 11.8307 89.2693 12.904ZM87.9393 12.946C87.9393 12.0593 87.79 11.3313 87.4913 10.762C87.202 10.1927 86.7727 9.77267 86.2033 9.502C85.6433 9.222 84.962 9.082 84.1593 9.082H82.5213V16.922H83.8793C85.2327 16.922 86.2453 16.5907 86.9173 15.928C87.5987 15.256 87.9393 14.262 87.9393 12.946ZM94.2281 18H92.9681V9.11H89.8461V8.004H97.3361V9.11H94.2281V18ZM101.682 14.164C101.682 13.3987 101.752 12.652 101.892 11.924C102.041 11.196 102.27 10.5007 102.578 9.838C102.886 9.17533 103.273 8.564 103.74 8.004H104.902C104.473 8.58267 104.109 9.208 103.81 9.88C103.521 10.552 103.301 11.2473 103.152 11.966C103.003 12.6847 102.928 13.4127 102.928 14.15C102.928 14.8687 103.003 15.5827 103.152 16.292C103.301 17.0013 103.521 17.6827 103.81 18.336C104.099 18.9987 104.459 19.624 104.888 20.212H103.74C103.273 19.6613 102.886 19.0593 102.578 18.406C102.27 17.762 102.041 17.0807 101.892 16.362C101.752 15.6433 101.682 14.9107 101.682 14.164ZM115.984 15.326C115.984 15.9233 115.839 16.432 115.55 16.852C115.261 17.2627 114.845 17.58 114.304 17.804C113.772 18.028 113.142 18.14 112.414 18.14C112.041 18.14 111.681 18.1213 111.336 18.084C111 18.0467 110.692 17.9953 110.412 17.93C110.132 17.8553 109.885 17.7667 109.67 17.664V16.46C110.006 16.6093 110.421 16.7447 110.916 16.866C111.42 16.9873 111.938 17.048 112.47 17.048C112.965 17.048 113.38 16.9827 113.716 16.852C114.052 16.7213 114.304 16.5347 114.472 16.292C114.64 16.0493 114.724 15.7647 114.724 15.438C114.724 15.1113 114.654 14.836 114.514 14.612C114.374 14.388 114.131 14.1827 113.786 13.996C113.45 13.8 112.979 13.5947 112.372 13.38C111.943 13.2213 111.565 13.0533 111.238 12.876C110.921 12.6893 110.655 12.4793 110.44 12.246C110.225 12.0127 110.062 11.7467 109.95 11.448C109.847 11.1493 109.796 10.804 109.796 10.412C109.796 9.88 109.931 9.42733 110.202 9.054C110.473 8.67133 110.846 8.37733 111.322 8.172C111.807 7.96667 112.363 7.864 112.988 7.864C113.539 7.864 114.043 7.91533 114.5 8.018C114.957 8.12067 115.373 8.256 115.746 8.424L115.354 9.502C115.009 9.35267 114.631 9.22667 114.22 9.124C113.819 9.02133 113.399 8.97 112.96 8.97C112.54 8.97 112.19 9.03067 111.91 9.152C111.63 9.27333 111.42 9.446 111.28 9.67C111.14 9.88467 111.07 10.1367 111.07 10.426C111.07 10.762 111.14 11.042 111.28 11.266C111.42 11.49 111.649 11.6907 111.966 11.868C112.283 12.0453 112.713 12.2367 113.254 12.442C113.842 12.6567 114.337 12.89 114.738 13.142C115.149 13.3847 115.457 13.6787 115.662 14.024C115.877 14.3693 115.984 14.8033 115.984 15.326ZM126.72 12.988C126.72 13.7627 126.622 14.4673 126.426 15.102C126.23 15.7273 125.936 16.2687 125.544 16.726C125.161 17.1833 124.68 17.5333 124.102 17.776C123.532 18.0187 122.87 18.14 122.114 18.14C121.33 18.14 120.648 18.0187 120.07 17.776C119.491 17.524 119.01 17.174 118.628 16.726C118.245 16.2687 117.96 15.7227 117.774 15.088C117.587 14.4533 117.494 13.7487 117.494 12.974C117.494 11.9473 117.662 11.0513 117.998 10.286C118.334 9.52067 118.842 8.92333 119.524 8.494C120.214 8.06467 121.082 7.85 122.128 7.85C123.126 7.85 123.966 8.06467 124.648 8.494C125.329 8.914 125.842 9.51133 126.188 10.286C126.542 11.0513 126.72 11.952 126.72 12.988ZM118.824 12.988C118.824 13.828 118.94 14.5513 119.174 15.158C119.407 15.7647 119.766 16.2313 120.252 16.558C120.746 16.8847 121.367 17.048 122.114 17.048C122.87 17.048 123.486 16.8847 123.962 16.558C124.447 16.2313 124.806 15.7647 125.04 15.158C125.273 14.5513 125.39 13.828 125.39 12.988C125.39 11.728 125.128 10.7433 124.606 10.034C124.083 9.31533 123.257 8.956 122.128 8.956C121.372 8.956 120.746 9.11933 120.252 9.446C119.766 9.76333 119.407 10.2253 119.174 10.832C118.94 11.4293 118.824 12.148 118.824 12.988ZM128.935 18V8.004H130.195V16.88H134.563V18H128.935ZM142.196 14.164C142.196 14.9107 142.121 15.6433 141.972 16.362C141.832 17.0807 141.608 17.762 141.3 18.406C141.001 19.0593 140.614 19.6613 140.138 20.212H138.99C139.419 19.624 139.778 18.9987 140.068 18.336C140.357 17.6827 140.576 17.0013 140.726 16.292C140.875 15.5827 140.95 14.8687 140.95 14.15C140.95 13.4127 140.875 12.6847 140.726 11.966C140.576 11.2473 140.357 10.552 140.068 9.88C139.778 9.208 139.414 8.58267 138.976 8.004H140.138C140.614 8.564 141.001 9.17533 141.3 9.838C141.608 10.5007 141.832 11.196 141.972 11.924C142.121 12.652 142.196 13.3987 142.196 14.164Z" fill="white"/>
<path d="M177.66 11.868C178.341 11.868 178.934 11.9847 179.438 12.218C179.942 12.4513 180.329 12.7873 180.6 13.226C180.88 13.6553 181.02 14.1827 181.02 14.808C181.02 15.4987 180.87 16.096 180.572 16.6C180.273 17.0947 179.844 17.4773 179.284 17.748C178.733 18.0093 178.066 18.14 177.282 18.14C176.768 18.14 176.283 18.0933 175.826 18C175.378 17.9067 175 17.7713 174.692 17.594V16.432C175.028 16.6373 175.434 16.8007 175.91 16.922C176.395 17.034 176.857 17.09 177.296 17.09C177.79 17.09 178.22 17.0153 178.584 16.866C178.957 16.7073 179.246 16.4693 179.452 16.152C179.657 15.8253 179.76 15.4193 179.76 14.934C179.76 14.2807 179.559 13.7813 179.158 13.436C178.756 13.0813 178.122 12.904 177.254 12.904C176.992 12.904 176.694 12.9273 176.358 12.974C176.022 13.0207 175.751 13.0673 175.546 13.114L174.93 12.722L175.308 8.004H180.32V9.124H176.358L176.12 12.022C176.278 11.994 176.493 11.9613 176.764 11.924C177.034 11.8867 177.333 11.868 177.66 11.868ZM190.221 8.004L186.651 18H185.391L181.821 8.004H183.137L185.391 14.416C185.494 14.6867 185.583 14.948 185.657 15.2C185.732 15.452 185.797 15.6947 185.853 15.928C185.919 16.152 185.975 16.376 186.021 16.6C186.068 16.376 186.119 16.1473 186.175 15.914C186.241 15.6807 186.311 15.438 186.385 15.186C186.469 14.934 186.558 14.668 186.651 14.388L188.891 8.004H190.221ZM194.332 8.004C195.162 8.004 195.844 8.11133 196.376 8.326C196.917 8.53133 197.318 8.844 197.58 9.264C197.841 9.684 197.972 10.2113 197.972 10.846C197.972 11.378 197.874 11.8213 197.678 12.176C197.482 12.5307 197.23 12.8153 196.922 13.03C196.623 13.2353 196.306 13.3987 195.97 13.52L198.714 18H197.244L194.822 13.87H192.834V18H191.574V8.004H194.332ZM194.262 9.096H192.834V12.806H194.332C194.873 12.806 195.316 12.736 195.662 12.596C196.007 12.4467 196.259 12.232 196.418 11.952C196.586 11.672 196.67 11.322 196.67 10.902C196.67 10.4633 196.581 10.1133 196.404 9.852C196.236 9.59067 195.974 9.39933 195.62 9.278C195.265 9.15667 194.812 9.096 194.262 9.096ZM206.653 15.732H205.197V18H204.007V15.732H199.219V14.682L203.923 7.948H205.197V14.626H206.653V15.732ZM204.007 11.476C204.007 11.2333 204.007 11.014 204.007 10.818C204.016 10.6127 204.025 10.4213 204.035 10.244C204.044 10.0667 204.049 9.89867 204.049 9.74C204.058 9.572 204.067 9.41333 204.077 9.264H204.021C203.946 9.44133 203.853 9.63267 203.741 9.838C203.629 10.0433 203.521 10.216 203.419 10.356L200.423 14.626H204.007V11.476ZM210.899 12.918L213.503 8.004H214.861L211.529 14.122V18H210.269V14.178L206.937 8.004H208.309L210.899 12.918ZM221.81 18H216.224V8.004H221.81V9.11H217.484V12.232H221.558V13.324H217.484V16.894H221.81V18ZM225.264 18H224.004V8.004H229.59V9.11H225.264V12.652H229.324V13.758H225.264V18ZM238.907 18H237.647V13.338H232.523V18H231.263V8.004H232.523V12.232H237.647V8.004H238.907V18ZM244.37 10.356C245.014 10.356 245.565 10.496 246.022 10.776C246.489 11.056 246.844 11.4527 247.086 11.966C247.338 12.47 247.464 13.0627 247.464 13.744V14.486H242.326C242.345 15.3353 242.56 15.984 242.97 16.432C243.39 16.8707 243.974 17.09 244.72 17.09C245.196 17.09 245.616 17.048 245.98 16.964C246.354 16.8707 246.736 16.74 247.128 16.572V17.65C246.746 17.818 246.368 17.9393 245.994 18.014C245.621 18.098 245.178 18.14 244.664 18.14C243.955 18.14 243.325 17.9953 242.774 17.706C242.233 17.4167 241.808 16.9873 241.5 16.418C241.202 15.8393 241.052 15.1347 241.052 14.304C241.052 13.4827 241.188 12.778 241.458 12.19C241.738 11.602 242.126 11.1493 242.62 10.832C243.124 10.5147 243.708 10.356 244.37 10.356ZM244.356 11.364C243.768 11.364 243.302 11.5553 242.956 11.938C242.62 12.3113 242.42 12.834 242.354 13.506H246.176C246.176 13.0767 246.111 12.7033 245.98 12.386C245.85 12.0687 245.649 11.8213 245.378 11.644C245.117 11.4573 244.776 11.364 244.356 11.364ZM253.827 8.97C253.295 8.97 252.814 9.06333 252.385 9.25C251.955 9.42733 251.591 9.69333 251.293 10.048C250.994 10.3933 250.765 10.818 250.607 11.322C250.448 11.8167 250.369 12.3767 250.369 13.002C250.369 13.8233 250.495 14.5373 250.747 15.144C251.008 15.7507 251.391 16.2173 251.895 16.544C252.408 16.8707 253.047 17.034 253.813 17.034C254.251 17.034 254.667 16.9967 255.059 16.922C255.451 16.8473 255.833 16.754 256.207 16.642V17.734C255.833 17.874 255.446 17.9767 255.045 18.042C254.653 18.1073 254.181 18.14 253.631 18.14C252.613 18.14 251.764 17.93 251.083 17.51C250.401 17.09 249.888 16.4927 249.543 15.718C249.207 14.9433 249.039 14.0333 249.039 12.988C249.039 12.232 249.141 11.5413 249.347 10.916C249.561 10.2907 249.869 9.74933 250.271 9.292C250.681 8.83467 251.185 8.48467 251.783 8.242C252.38 7.99 253.066 7.864 253.841 7.864C254.354 7.864 254.849 7.91533 255.325 8.018C255.801 8.12067 256.225 8.26533 256.599 8.452L256.095 9.516C255.787 9.376 255.441 9.25 255.059 9.138C254.685 9.026 254.275 8.97 253.827 8.97ZM259.872 18L257.03 10.496H258.346L259.942 14.92C260.017 15.1253 260.096 15.354 260.18 15.606C260.264 15.858 260.339 16.1007 260.404 16.334C260.47 16.558 260.516 16.7493 260.544 16.908H260.6C260.638 16.7493 260.689 16.5533 260.754 16.32C260.829 16.0867 260.908 15.844 260.992 15.592C261.086 15.34 261.165 15.116 261.23 14.92L262.826 10.496H264.142L261.286 18H259.872ZM268.83 10.356C268.97 10.356 269.119 10.3653 269.278 10.384C269.446 10.3933 269.59 10.412 269.712 10.44L269.558 11.574C269.436 11.546 269.301 11.5227 269.152 11.504C269.012 11.4853 268.876 11.476 268.746 11.476C268.456 11.476 268.181 11.5367 267.92 11.658C267.658 11.7793 267.425 11.952 267.22 12.176C267.014 12.3907 266.851 12.652 266.73 12.96C266.618 13.268 266.562 13.6133 266.562 13.996V18H265.33V10.496H266.338L266.478 11.868H266.534C266.692 11.588 266.884 11.336 267.108 11.112C267.332 10.8787 267.588 10.6967 267.878 10.566C268.167 10.426 268.484 10.356 268.83 10.356ZM273.619 17.132C273.806 17.132 273.997 17.118 274.193 17.09C274.389 17.0527 274.548 17.0153 274.669 16.978V17.916C274.538 17.9813 274.352 18.0327 274.109 18.07C273.866 18.1167 273.633 18.14 273.409 18.14C273.017 18.14 272.653 18.0747 272.317 17.944C271.99 17.804 271.724 17.566 271.519 17.23C271.314 16.894 271.211 16.4227 271.211 15.816V11.448H270.147V10.86L271.225 10.37L271.715 8.774H272.443V10.496H274.613V11.448H272.443V15.788C272.443 16.2453 272.55 16.586 272.765 16.81C272.989 17.0247 273.274 17.132 273.619 17.132ZM275.751 13.73C275.751 13.1513 275.789 12.582 275.863 12.022C275.947 11.462 276.087 10.9347 276.283 10.44C276.479 9.936 276.75 9.49267 277.095 9.11C277.441 8.718 277.875 8.41467 278.397 8.2C278.929 7.976 279.573 7.864 280.329 7.864C280.525 7.864 280.74 7.87333 280.973 7.892C281.216 7.91067 281.412 7.94333 281.561 7.99V9.04C281.393 8.984 281.202 8.942 280.987 8.914C280.782 8.886 280.572 8.872 280.357 8.872C279.713 8.872 279.177 8.97933 278.747 9.194C278.318 9.40867 277.977 9.70267 277.725 10.076C277.483 10.4493 277.305 10.8787 277.193 11.364C277.081 11.8493 277.011 12.3673 276.983 12.918H277.067C277.207 12.694 277.385 12.4933 277.599 12.316C277.814 12.1387 278.071 11.9987 278.369 11.896C278.677 11.7933 279.032 11.742 279.433 11.742C280.012 11.742 280.516 11.8633 280.945 12.106C281.384 12.3393 281.725 12.6847 281.967 13.142C282.21 13.59 282.331 14.136 282.331 14.78C282.331 15.4707 282.201 16.068 281.939 16.572C281.678 17.076 281.309 17.4633 280.833 17.734C280.367 18.0047 279.807 18.14 279.153 18.14C278.677 18.14 278.234 18.0513 277.823 17.874C277.413 17.6967 277.049 17.426 276.731 17.062C276.423 16.698 276.181 16.2407 276.003 15.69C275.835 15.13 275.751 14.4767 275.751 13.73ZM279.139 17.104C279.727 17.104 280.203 16.9173 280.567 16.544C280.931 16.1613 281.113 15.5733 281.113 14.78C281.113 14.1453 280.95 13.6413 280.623 13.268C280.306 12.8947 279.825 12.708 279.181 12.708C278.743 12.708 278.36 12.8013 278.033 12.988C277.707 13.1653 277.45 13.394 277.263 13.674C277.086 13.954 276.997 14.2433 276.997 14.542C276.997 14.85 277.039 15.1533 277.123 15.452C277.217 15.7507 277.352 16.026 277.529 16.278C277.716 16.53 277.94 16.7307 278.201 16.88C278.472 17.0293 278.785 17.104 279.139 17.104ZM291.953 14.472C291.953 15.1627 291.813 15.788 291.533 16.348C291.253 16.8987 290.824 17.3373 290.245 17.664C289.676 17.9813 288.948 18.14 288.061 18.14C286.82 18.14 285.872 17.804 285.219 17.132C284.575 16.4507 284.253 15.5547 284.253 14.444V8.004H285.513V14.486C285.513 15.298 285.728 15.928 286.157 16.376C286.596 16.824 287.254 17.048 288.131 17.048C288.738 17.048 289.228 16.9407 289.601 16.726C289.984 16.502 290.264 16.1987 290.441 15.816C290.618 15.424 290.707 14.976 290.707 14.472V8.004H291.953V14.472ZM293.247 10.496H294.563L296.187 14.766C296.281 15.018 296.365 15.2607 296.439 15.494C296.523 15.7273 296.598 15.956 296.663 16.18C296.729 16.3947 296.78 16.6047 296.817 16.81H296.873C296.929 16.5767 297.018 16.2733 297.139 15.9C297.261 15.5173 297.387 15.1347 297.517 14.752L299.043 10.496H300.373L297.139 19.036C296.962 19.5027 296.752 19.9087 296.509 20.254C296.276 20.6087 295.987 20.8793 295.641 21.066C295.305 21.262 294.895 21.36 294.409 21.36C294.185 21.36 293.989 21.346 293.821 21.318C293.653 21.2993 293.509 21.276 293.387 21.248V20.268C293.49 20.2867 293.611 20.3053 293.751 20.324C293.901 20.3427 294.055 20.352 294.213 20.352C294.503 20.352 294.75 20.296 294.955 20.184C295.17 20.0813 295.352 19.9273 295.501 19.722C295.651 19.526 295.777 19.2927 295.879 19.022L296.271 18.028L293.247 10.496ZM304.22 18.14C303.287 18.14 302.54 17.818 301.98 17.174C301.42 16.5207 301.14 15.55 301.14 14.262C301.14 12.974 301.42 12.0033 301.98 11.35C302.549 10.6873 303.301 10.356 304.234 10.356C304.626 10.356 304.967 10.4073 305.256 10.51C305.545 10.6033 305.797 10.734 306.012 10.902C306.227 11.07 306.409 11.2567 306.558 11.462H306.642C306.633 11.3407 306.614 11.1633 306.586 10.93C306.567 10.6873 306.558 10.496 306.558 10.356V7.36H307.79V18H306.796L306.614 16.992H306.558C306.409 17.2067 306.227 17.4027 306.012 17.58C305.797 17.748 305.541 17.8833 305.242 17.986C304.953 18.0887 304.612 18.14 304.22 18.14ZM304.416 17.118C305.209 17.118 305.765 16.9033 306.082 16.474C306.409 16.0353 306.572 15.3773 306.572 14.5V14.276C306.572 13.3427 306.418 12.6287 306.11 12.134C305.802 11.63 305.233 11.378 304.402 11.378C303.739 11.378 303.24 11.644 302.904 12.176C302.577 12.6987 302.414 13.4033 302.414 14.29C302.414 15.186 302.577 15.8813 302.904 16.376C303.24 16.8707 303.744 17.118 304.416 17.118ZM317.985 18H316.725V13.338H311.601V18H310.341V8.004H311.601V12.232H316.725V8.004H317.985V18ZM328.726 12.904C328.726 14.024 328.516 14.962 328.096 15.718C327.686 16.474 327.093 17.0433 326.318 17.426C325.544 17.8087 324.606 18 323.504 18H320.718V8.004H323.798C324.806 8.004 325.679 8.19067 326.416 8.564C327.154 8.93733 327.723 9.488 328.124 10.216C328.526 10.9347 328.726 11.8307 328.726 12.904ZM327.396 12.946C327.396 12.0593 327.247 11.3313 326.948 10.762C326.659 10.1927 326.23 9.77267 325.66 9.502C325.1 9.222 324.419 9.082 323.616 9.082H321.978V16.922H323.336C324.69 16.922 325.702 16.5907 326.374 15.928C327.056 15.256 327.396 14.262 327.396 12.946ZM338.547 14.472C338.547 15.1627 338.407 15.788 338.127 16.348C337.847 16.8987 337.418 17.3373 336.839 17.664C336.27 17.9813 335.542 18.14 334.655 18.14C333.414 18.14 332.466 17.804 331.813 17.132C331.169 16.4507 330.847 15.5547 330.847 14.444V8.004H332.107V14.486C332.107 15.298 332.322 15.928 332.751 16.376C333.19 16.824 333.848 17.048 334.725 17.048C335.332 17.048 335.822 16.9407 336.195 16.726C336.578 16.502 336.858 16.1987 337.035 15.816C337.212 15.424 337.301 14.976 337.301 14.472V8.004H338.547V14.472ZM344.517 10.356C344.657 10.356 344.806 10.3653 344.965 10.384C345.133 10.3933 345.278 10.412 345.399 10.44L345.245 11.574C345.124 11.546 344.988 11.5227 344.839 11.504C344.699 11.4853 344.564 11.476 344.433 11.476C344.144 11.476 343.868 11.5367 343.607 11.658C343.346 11.7793 343.112 11.952 342.907 12.176C342.702 12.3907 342.538 12.652 342.417 12.96C342.305 13.268 342.249 13.6133 342.249 13.996V18H341.017V10.496H342.025L342.165 11.868H342.221C342.38 11.588 342.571 11.336 342.795 11.112C343.019 10.8787 343.276 10.6967 343.565 10.566C343.854 10.426 344.172 10.356 344.517 10.356ZM352.89 12.274C352.89 12.8433 352.848 13.4127 352.764 13.982C352.69 14.542 352.554 15.074 352.358 15.578C352.162 16.0727 351.892 16.516 351.546 16.908C351.201 17.2907 350.762 17.594 350.23 17.818C349.698 18.0327 349.054 18.14 348.298 18.14C348.112 18.14 347.892 18.126 347.64 18.098C347.398 18.0793 347.197 18.0467 347.038 18V16.95C347.206 17.006 347.402 17.0527 347.626 17.09C347.85 17.118 348.065 17.132 348.27 17.132C348.924 17.132 349.46 17.0247 349.88 16.81C350.31 16.5953 350.65 16.306 350.902 15.942C351.154 15.5687 351.336 15.1393 351.448 14.654C351.56 14.1593 351.626 13.6413 351.644 13.1H351.56C351.42 13.3147 351.243 13.5107 351.028 13.688C350.814 13.8653 350.552 14.0053 350.244 14.108C349.946 14.2107 349.591 14.262 349.18 14.262C348.611 14.262 348.107 14.1453 347.668 13.912C347.239 13.6693 346.903 13.324 346.66 12.876C346.427 12.428 346.31 11.882 346.31 11.238C346.31 10.538 346.441 9.936 346.702 9.432C346.973 8.928 347.346 8.54067 347.822 8.27C348.298 7.99933 348.858 7.864 349.502 7.864C349.978 7.864 350.422 7.95733 350.832 8.144C351.243 8.32133 351.602 8.592 351.91 8.956C352.218 9.32 352.456 9.77733 352.624 10.328C352.802 10.8787 352.89 11.5273 352.89 12.274ZM349.502 8.9C348.924 8.9 348.448 9.09133 348.074 9.474C347.71 9.85667 347.528 10.44 347.528 11.224C347.528 11.868 347.682 12.3767 347.99 12.75C348.308 13.114 348.793 13.296 349.446 13.296C349.894 13.296 350.282 13.2073 350.608 13.03C350.935 12.8433 351.187 12.61 351.364 12.33C351.551 12.05 351.644 11.7607 351.644 11.462C351.644 11.1633 351.598 10.8647 351.504 10.566C351.42 10.258 351.29 9.978 351.112 9.726C350.935 9.474 350.711 9.27333 350.44 9.124C350.17 8.97467 349.857 8.9 349.502 8.9ZM357.654 10.37C358.569 10.37 359.245 10.5707 359.684 10.972C360.123 11.3733 360.342 12.0127 360.342 12.89V18H359.446L359.208 16.936H359.152C358.937 17.2067 358.713 17.4353 358.48 17.622C358.256 17.7993 357.995 17.93 357.696 18.014C357.407 18.098 357.052 18.14 356.632 18.14C356.184 18.14 355.778 18.0607 355.414 17.902C355.059 17.7433 354.779 17.5007 354.574 17.174C354.369 16.838 354.266 16.418 354.266 15.914C354.266 15.1673 354.56 14.5933 355.148 14.192C355.736 13.7813 356.641 13.5573 357.864 13.52L359.138 13.478V13.03C359.138 12.4047 359.003 11.9707 358.732 11.728C358.461 11.4853 358.079 11.364 357.584 11.364C357.192 11.364 356.819 11.4247 356.464 11.546C356.109 11.658 355.778 11.7887 355.47 11.938L355.092 11.014C355.419 10.8367 355.806 10.6873 356.254 10.566C356.702 10.4353 357.169 10.37 357.654 10.37ZM358.018 14.374C357.085 14.4113 356.436 14.5607 356.072 14.822C355.717 15.0833 355.54 15.452 355.54 15.928C355.54 16.348 355.666 16.656 355.918 16.852C356.179 17.048 356.511 17.146 356.912 17.146C357.547 17.146 358.074 16.9733 358.494 16.628C358.914 16.2733 359.124 15.732 359.124 15.004V14.332L358.018 14.374ZM369.87 8.004L366.3 18H365.04L361.47 8.004H362.786L365.04 14.416C365.142 14.6867 365.231 14.948 365.306 15.2C365.38 15.452 365.446 15.6947 365.502 15.928C365.567 16.152 365.623 16.376 365.67 16.6C365.716 16.376 365.768 16.1473 365.824 15.914C365.889 15.6807 365.959 15.438 366.034 15.186C366.118 14.934 366.206 14.668 366.3 14.388L368.54 8.004H369.87ZM375.779 18.154C375.779 17.986 375.783 17.79 375.793 17.566C375.802 17.342 375.821 17.1507 375.849 16.992H375.765C375.55 17.3093 375.251 17.58 374.869 17.804C374.495 18.028 374.01 18.14 373.413 18.14C372.507 18.14 371.77 17.818 371.201 17.174C370.641 16.5207 370.361 15.55 370.361 14.262C370.361 13.4033 370.491 12.6847 370.753 12.106C371.014 11.5273 371.378 11.0933 371.845 10.804C372.311 10.5053 372.848 10.356 373.455 10.356C374.043 10.356 374.523 10.468 374.897 10.692C375.27 10.916 375.569 11.1913 375.793 11.518H375.849L376.031 10.496H377.011V21.36H375.779V18.154ZM373.651 17.118C374.164 17.118 374.575 17.0247 374.883 16.838C375.2 16.6513 375.429 16.3667 375.569 15.984C375.709 15.592 375.783 15.1067 375.793 14.528V14.276C375.793 13.324 375.634 12.6053 375.317 12.12C374.999 11.6253 374.435 11.378 373.623 11.378C372.951 11.378 372.451 11.644 372.125 12.176C371.798 12.6987 371.635 13.4033 371.635 14.29C371.635 15.1767 371.798 15.872 372.125 16.376C372.461 16.8707 372.969 17.118 373.651 17.118ZM382.852 11.448H380.962V18H379.73V11.448H378.414V10.874L379.73 10.454V10.02C379.73 9.376 379.823 8.85333 380.01 8.452C380.206 8.05067 380.486 7.75667 380.85 7.57C381.214 7.38333 381.653 7.29 382.166 7.29C382.465 7.29 382.735 7.318 382.978 7.374C383.23 7.42067 383.445 7.47667 383.622 7.542L383.3 8.508C383.151 8.46133 382.978 8.41467 382.782 8.368C382.586 8.32133 382.385 8.298 382.18 8.298C381.769 8.298 381.461 8.438 381.256 8.718C381.06 8.98867 380.962 9.418 380.962 10.006V10.496H382.852V11.448ZM389.051 13.758C388.995 13.562 388.939 13.3707 388.883 13.184C388.827 12.988 388.775 12.806 388.729 12.638C388.691 12.4607 388.654 12.2973 388.617 12.148C388.579 11.9987 388.551 11.8727 388.533 11.77H388.477C388.458 11.8727 388.43 11.9987 388.393 12.148C388.365 12.2973 388.327 12.4607 388.281 12.638C388.243 12.8153 388.197 13.002 388.141 13.198C388.094 13.3847 388.038 13.576 387.973 13.772L386.629 17.986H385.229L383.171 10.482H384.445L385.481 14.486C385.555 14.7567 385.625 15.032 385.691 15.312C385.756 15.5827 385.812 15.844 385.859 16.096C385.915 16.3387 385.952 16.5487 385.971 16.726H386.027C386.055 16.614 386.087 16.474 386.125 16.306C386.162 16.138 386.199 15.9607 386.237 15.774C386.283 15.5873 386.33 15.4007 386.377 15.214C386.433 15.0273 386.484 14.8593 386.531 14.71L387.861 10.482H389.205L390.493 14.71C390.558 14.9247 390.623 15.1533 390.689 15.396C390.763 15.6387 390.829 15.8767 390.885 16.11C390.941 16.334 390.978 16.5347 390.997 16.712H391.053C391.071 16.5533 391.104 16.3573 391.151 16.124C391.207 15.8813 391.267 15.62 391.333 15.34C391.407 15.0507 391.482 14.766 391.557 14.486L392.607 10.482H393.867L391.781 17.986H390.339L389.051 13.758ZM401.75 15.732H400.294V18H399.104V15.732H394.316V14.682L399.02 7.948H400.294V14.626H401.75V15.732ZM399.104 11.476C399.104 11.2333 399.104 11.014 399.104 10.818C399.114 10.6127 399.123 10.4213 399.132 10.244C399.142 10.0667 399.146 9.89867 399.146 9.74C399.156 9.572 399.165 9.41333 399.174 9.264H399.118C399.044 9.44133 398.95 9.63267 398.838 9.838C398.726 10.0433 398.619 10.216 398.516 10.356L395.52 14.626H399.104V11.476ZM408.222 18.154C408.222 17.986 408.227 17.79 408.236 17.566C408.246 17.342 408.264 17.1507 408.292 16.992H408.208C407.994 17.3093 407.695 17.58 407.312 17.804C406.939 18.028 406.454 18.14 405.856 18.14C404.951 18.14 404.214 17.818 403.644 17.174C403.084 16.5207 402.804 15.55 402.804 14.262C402.804 13.4033 402.935 12.6847 403.196 12.106C403.458 11.5273 403.822 11.0933 404.288 10.804C404.755 10.5053 405.292 10.356 405.898 10.356C406.486 10.356 406.967 10.468 407.34 10.692C407.714 10.916 408.012 11.1913 408.236 11.518H408.292L408.474 10.496H409.454V21.36H408.222V18.154ZM406.094 17.118C406.608 17.118 407.018 17.0247 407.326 16.838C407.644 16.6513 407.872 16.3667 408.012 15.984C408.152 15.592 408.227 15.1067 408.236 14.528V14.276C408.236 13.324 408.078 12.6053 407.76 12.12C407.443 11.6253 406.878 11.378 406.066 11.378C405.394 11.378 404.895 11.644 404.568 12.176C404.242 12.6987 404.078 13.4033 404.078 14.29C404.078 15.1767 404.242 15.872 404.568 16.376C404.904 16.8707 405.413 17.118 406.094 17.118ZM414.847 18.14C414.185 18.14 413.592 18.0047 413.069 17.734C412.556 17.4633 412.15 17.0433 411.851 16.474C411.562 15.9047 411.417 15.1767 411.417 14.29C411.417 13.366 411.571 12.6147 411.879 12.036C412.187 11.4573 412.603 11.0327 413.125 10.762C413.657 10.4913 414.259 10.356 414.931 10.356C415.314 10.356 415.683 10.398 416.037 10.482C416.392 10.5567 416.681 10.65 416.905 10.762L416.527 11.784C416.303 11.7 416.042 11.6207 415.743 11.546C415.445 11.4713 415.165 11.434 414.903 11.434C414.399 11.434 413.984 11.5413 413.657 11.756C413.331 11.9707 413.088 12.288 412.929 12.708C412.771 13.128 412.691 13.6507 412.691 14.276C412.691 14.8733 412.771 15.382 412.929 15.802C413.088 16.222 413.326 16.5393 413.643 16.754C413.961 16.9687 414.357 17.076 414.833 17.076C415.244 17.076 415.603 17.034 415.911 16.95C416.229 16.866 416.518 16.7633 416.779 16.642V17.734C416.527 17.8647 416.247 17.9627 415.939 18.028C415.641 18.1027 415.277 18.14 414.847 18.14ZM421.224 11.868C421.905 11.868 422.498 11.9847 423.002 12.218C423.506 12.4513 423.893 12.7873 424.164 13.226C424.444 13.6553 424.584 14.1827 424.584 14.808C424.584 15.4987 424.435 16.096 424.136 16.6C423.837 17.0947 423.408 17.4773 422.848 17.748C422.297 18.0093 421.63 18.14 420.846 18.14C420.333 18.14 419.847 18.0933 419.39 18C418.942 17.9067 418.564 17.7713 418.256 17.594V16.432C418.592 16.6373 418.998 16.8007 419.474 16.922C419.959 17.034 420.421 17.09 420.86 17.09C421.355 17.09 421.784 17.0153 422.148 16.866C422.521 16.7073 422.811 16.4693 423.016 16.152C423.221 15.8253 423.324 15.4193 423.324 14.934C423.324 14.2807 423.123 13.7813 422.722 13.436C422.321 13.0813 421.686 12.904 420.818 12.904C420.557 12.904 420.258 12.9273 419.922 12.974C419.586 13.0207 419.315 13.0673 419.11 13.114L418.494 12.722L418.872 8.004H423.884V9.124H419.922L419.684 12.022C419.843 11.994 420.057 11.9613 420.328 11.924C420.599 11.8867 420.897 11.868 421.224 11.868ZM429.236 10.356C429.73 10.356 430.174 10.4493 430.566 10.636C430.967 10.8227 431.308 11.1073 431.588 11.49H431.658L431.826 10.496H432.806V18.126C432.806 18.8353 432.684 19.428 432.442 19.904C432.199 20.3893 431.83 20.7533 431.336 20.996C430.841 21.2387 430.211 21.36 429.446 21.36C428.904 21.36 428.405 21.318 427.948 21.234C427.5 21.1593 427.098 21.0427 426.744 20.884V19.75C426.986 19.8713 427.252 19.974 427.542 20.058C427.831 20.1513 428.144 20.2213 428.48 20.268C428.816 20.3147 429.161 20.338 429.516 20.338C430.16 20.338 430.664 20.1467 431.028 19.764C431.401 19.3907 431.588 18.8773 431.588 18.224V17.93C431.588 17.818 431.592 17.6593 431.602 17.454C431.611 17.2393 431.62 17.09 431.63 17.006H431.574C431.312 17.3887 430.986 17.6733 430.594 17.86C430.211 18.0467 429.763 18.14 429.25 18.14C428.279 18.14 427.518 17.7993 426.968 17.118C426.426 16.4367 426.156 15.4847 426.156 14.262C426.156 13.4593 426.277 12.7687 426.52 12.19C426.772 11.602 427.126 11.1493 427.584 10.832C428.041 10.5147 428.592 10.356 429.236 10.356ZM429.404 11.392C428.984 11.392 428.624 11.504 428.326 11.728C428.036 11.952 427.812 12.2787 427.654 12.708C427.504 13.1373 427.43 13.66 427.43 14.276C427.43 15.2 427.598 15.9093 427.934 16.404C428.279 16.8893 428.778 17.132 429.432 17.132C429.814 17.132 430.141 17.0853 430.412 16.992C430.682 16.8893 430.906 16.7353 431.084 16.53C431.261 16.3153 431.392 16.0447 431.476 15.718C431.56 15.3913 431.602 15.004 431.602 14.556V14.262C431.602 13.5807 431.522 13.03 431.364 12.61C431.214 12.19 430.976 11.882 430.65 11.686C430.323 11.49 429.908 11.392 429.404 11.392ZM446.837 8.004L444.177 18H442.903L440.957 11.448C440.901 11.252 440.845 11.0513 440.789 10.846C440.733 10.6407 440.682 10.4447 440.635 10.258C440.588 10.0713 440.546 9.91267 440.509 9.782C440.481 9.642 440.462 9.53933 440.453 9.474C440.444 9.53933 440.425 9.642 440.397 9.782C440.378 9.91267 440.346 10.0713 440.299 10.258C440.252 10.4447 440.201 10.6453 440.145 10.86C440.098 11.0653 440.042 11.2753 439.977 11.49L438.087 18H436.813L434.167 8.004H435.483L437.037 14.108C437.093 14.3227 437.144 14.5373 437.191 14.752C437.238 14.9573 437.28 15.1627 437.317 15.368C437.364 15.564 437.401 15.7553 437.429 15.942C437.457 16.1287 437.485 16.3107 437.513 16.488C437.541 16.3013 437.569 16.11 437.597 15.914C437.634 15.718 437.676 15.5173 437.723 15.312C437.77 15.0973 437.821 14.8827 437.877 14.668C437.933 14.4533 437.989 14.2433 438.045 14.038L439.809 8.004H441.111L442.945 14.08C443.01 14.2947 443.071 14.514 443.127 14.738C443.183 14.9527 443.234 15.1627 443.281 15.368C443.328 15.5733 443.365 15.774 443.393 15.97C443.43 16.1567 443.463 16.3293 443.491 16.488C443.519 16.2547 443.556 16.012 443.603 15.76C443.65 15.4987 443.706 15.228 443.771 14.948C443.836 14.668 443.906 14.3833 443.981 14.094L445.521 8.004H446.837ZM455.415 8.004L451.845 18H450.585L447.015 8.004H448.331L450.585 14.416C450.687 14.6867 450.776 14.948 450.851 15.2C450.925 15.452 450.991 15.6947 451.047 15.928C451.112 16.152 451.168 16.376 451.215 16.6C451.261 16.376 451.313 16.1473 451.369 15.914C451.434 15.6807 451.504 15.438 451.579 15.186C451.663 14.934 451.751 14.668 451.845 14.388L454.085 8.004H455.415ZM459.105 17.132C459.292 17.132 459.483 17.118 459.679 17.09C459.875 17.0527 460.034 17.0153 460.155 16.978V17.916C460.025 17.9813 459.838 18.0327 459.595 18.07C459.353 18.1167 459.119 18.14 458.895 18.14C458.503 18.14 458.139 18.0747 457.803 17.944C457.477 17.804 457.211 17.566 457.005 17.23C456.8 16.894 456.697 16.4227 456.697 15.816V11.448H455.633V10.86L456.711 10.37L457.201 8.774H457.929V10.496H460.099V11.448H457.929V15.788C457.929 16.2453 458.037 16.586 458.251 16.81C458.475 17.0247 458.76 17.132 459.105 17.132ZM464.318 10.356C464.812 10.356 465.256 10.4493 465.648 10.636C466.049 10.8227 466.39 11.1073 466.67 11.49H466.74L466.908 10.496H467.888V18.126C467.888 18.8353 467.766 19.428 467.524 19.904C467.281 20.3893 466.912 20.7533 466.418 20.996C465.923 21.2387 465.293 21.36 464.528 21.36C463.986 21.36 463.487 21.318 463.03 21.234C462.582 21.1593 462.18 21.0427 461.826 20.884V19.75C462.068 19.8713 462.334 19.974 462.624 20.058C462.913 20.1513 463.226 20.2213 463.562 20.268C463.898 20.3147 464.243 20.338 464.598 20.338C465.242 20.338 465.746 20.1467 466.11 19.764C466.483 19.3907 466.67 18.8773 466.67 18.224V17.93C466.67 17.818 466.674 17.6593 466.684 17.454C466.693 17.2393 466.702 17.09 466.712 17.006H466.656C466.394 17.3887 466.068 17.6733 465.676 17.86C465.293 18.0467 464.845 18.14 464.332 18.14C463.361 18.14 462.6 17.7993 462.05 17.118C461.508 16.4367 461.238 15.4847 461.238 14.262C461.238 13.4593 461.359 12.7687 461.602 12.19C461.854 11.602 462.208 11.1493 462.666 10.832C463.123 10.5147 463.674 10.356 464.318 10.356ZM464.486 11.392C464.066 11.392 463.706 11.504 463.408 11.728C463.118 11.952 462.894 12.2787 462.736 12.708C462.586 13.1373 462.512 13.66 462.512 14.276C462.512 15.2 462.68 15.9093 463.016 16.404C463.361 16.8893 463.86 17.132 464.514 17.132C464.896 17.132 465.223 17.0853 465.494 16.992C465.764 16.8893 465.988 16.7353 466.166 16.53C466.343 16.3153 466.474 16.0447 466.558 15.718C466.642 15.3913 466.684 15.004 466.684 14.556V14.262C466.684 13.5807 466.604 13.03 466.446 12.61C466.296 12.19 466.058 11.882 465.732 11.686C465.405 11.49 464.99 11.392 464.486 11.392ZM470.439 18V8.004H471.699V16.88H476.067V18H470.439ZM481.847 12.722H485.305V17.622C484.764 17.7993 484.218 17.93 483.667 18.014C483.117 18.098 482.491 18.14 481.791 18.14C480.755 18.14 479.883 17.9347 479.173 17.524C478.464 17.104 477.923 16.5113 477.549 15.746C477.185 14.9713 477.003 14.0567 477.003 13.002C477.003 11.9567 477.209 11.0513 477.619 10.286C478.03 9.52067 478.618 8.928 479.383 8.508C480.158 8.07867 481.091 7.864 482.183 7.864C482.743 7.864 483.271 7.91533 483.765 8.018C484.269 8.12067 484.736 8.26533 485.165 8.452L484.689 9.544C484.335 9.38533 483.933 9.25 483.485 9.138C483.047 9.026 482.589 8.97 482.113 8.97C481.32 8.97 480.639 9.13333 480.069 9.46C479.5 9.78667 479.066 10.2533 478.767 10.86C478.469 11.4573 478.319 12.1713 478.319 13.002C478.319 13.7953 478.445 14.5 478.697 15.116C478.959 15.7227 479.365 16.1987 479.915 16.544C480.466 16.88 481.189 17.048 482.085 17.048C482.384 17.048 482.645 17.0387 482.869 17.02C483.103 16.992 483.313 16.9593 483.499 16.922C483.695 16.8847 483.877 16.8473 484.045 16.81V13.842H481.847V12.722ZM490.535 18.14C489.872 18.14 489.28 18.0047 488.757 17.734C488.244 17.4633 487.838 17.0433 487.539 16.474C487.25 15.9047 487.105 15.1767 487.105 14.29C487.105 13.366 487.259 12.6147 487.567 12.036C487.875 11.4573 488.29 11.0327 488.813 10.762C489.345 10.4913 489.947 10.356 490.619 10.356C491.002 10.356 491.37 10.398 491.725 10.482C492.08 10.5567 492.369 10.65 492.593 10.762L492.215 11.784C491.991 11.7 491.73 11.6207 491.431 11.546C491.132 11.4713 490.852 11.434 490.591 11.434C490.087 11.434 489.672 11.5413 489.345 11.756C489.018 11.9707 488.776 12.288 488.617 12.708C488.458 13.128 488.379 13.6507 488.379 14.276C488.379 14.8733 488.458 15.382 488.617 15.802C488.776 16.222 489.014 16.5393 489.331 16.754C489.648 16.9687 490.045 17.076 490.521 17.076C490.932 17.076 491.291 17.034 491.599 16.95C491.916 16.866 492.206 16.7633 492.467 16.642V17.734C492.215 17.8647 491.935 17.9627 491.627 18.028C491.328 18.1027 490.964 18.14 490.535 18.14ZM499.25 18.154C499.25 17.986 499.254 17.79 499.264 17.566C499.273 17.342 499.292 17.1507 499.32 16.992H499.236C499.021 17.3093 498.722 17.58 498.34 17.804C497.966 18.028 497.481 18.14 496.884 18.14C495.978 18.14 495.241 17.818 494.672 17.174C494.112 16.5207 493.832 15.55 493.832 14.262C493.832 13.4033 493.962 12.6847 494.224 12.106C494.485 11.5273 494.849 11.0933 495.316 10.804C495.782 10.5053 496.319 10.356 496.926 10.356C497.514 10.356 497.994 10.468 498.368 10.692C498.741 10.916 499.04 11.1913 499.264 11.518H499.32L499.502 10.496H500.482V21.36H499.25V18.154ZM497.122 17.118C497.635 17.118 498.046 17.0247 498.354 16.838C498.671 16.6513 498.9 16.3667 499.04 15.984C499.18 15.592 499.254 15.1067 499.264 14.528V14.276C499.264 13.324 499.105 12.6053 498.788 12.12C498.47 11.6253 497.906 11.378 497.094 11.378C496.422 11.378 495.922 11.644 495.596 12.176C495.269 12.6987 495.106 13.4033 495.106 14.29C495.106 15.1767 495.269 15.872 495.596 16.376C495.932 16.8707 496.44 17.118 497.122 17.118ZM505.791 8.004C506.621 8.004 507.303 8.11133 507.835 8.326C508.376 8.53133 508.777 8.844 509.039 9.264C509.3 9.684 509.431 10.2113 509.431 10.846C509.431 11.378 509.333 11.8213 509.137 12.176C508.941 12.5307 508.689 12.8153 508.381 13.03C508.082 13.2353 507.765 13.3987 507.429 13.52L510.173 18H508.703L506.281 13.87H504.293V18H503.033V8.004H505.791ZM505.721 9.096H504.293V12.806H505.791C506.332 12.806 506.775 12.736 507.121 12.596C507.466 12.4467 507.718 12.232 507.877 11.952C508.045 11.672 508.129 11.322 508.129 10.902C508.129 10.4633 508.04 10.1133 507.863 9.852C507.695 9.59067 507.433 9.39933 507.079 9.278C506.724 9.15667 506.271 9.096 505.721 9.096ZM514.906 18H513.646V9.11H510.524V8.004H518.014V9.11H514.906V18ZM525.443 18H518.835V16.978L521.453 14.332C521.957 13.828 522.382 13.38 522.727 12.988C523.072 12.596 523.334 12.2133 523.511 11.84C523.688 11.4573 523.777 11.042 523.777 10.594C523.777 10.0433 523.614 9.628 523.287 9.348C522.96 9.05867 522.536 8.914 522.013 8.914C521.528 8.914 521.098 8.998 520.725 9.166C520.361 9.334 519.988 9.56733 519.605 9.866L518.947 9.04C519.208 8.816 519.493 8.61533 519.801 8.438C520.118 8.26067 520.459 8.12067 520.823 8.018C521.196 7.91533 521.593 7.864 522.013 7.864C522.638 7.864 523.175 7.97133 523.623 8.186C524.071 8.40067 524.416 8.70867 524.659 9.11C524.911 9.502 525.037 9.97333 525.037 10.524C525.037 10.916 524.976 11.2893 524.855 11.644C524.734 11.9893 524.561 12.33 524.337 12.666C524.113 13.002 523.842 13.3427 523.525 13.688C523.208 14.0333 522.858 14.3927 522.475 14.766L520.389 16.824V16.88H525.443V18ZM539.013 8.004L536.353 18H535.079L533.133 11.448C533.077 11.252 533.021 11.0513 532.965 10.846C532.909 10.6407 532.857 10.4447 532.811 10.258C532.764 10.0713 532.722 9.91267 532.685 9.782C532.657 9.642 532.638 9.53933 532.629 9.474C532.619 9.53933 532.601 9.642 532.573 9.782C532.554 9.91267 532.521 10.0713 532.475 10.258C532.428 10.4447 532.377 10.6453 532.321 10.86C532.274 11.0653 532.218 11.2753 532.153 11.49L530.263 18H528.989L526.343 8.004H527.659L529.213 14.108C529.269 14.3227 529.32 14.5373 529.367 14.752C529.413 14.9573 529.455 15.1627 529.493 15.368C529.539 15.564 529.577 15.7553 529.605 15.942C529.633 16.1287 529.661 16.3107 529.689 16.488C529.717 16.3013 529.745 16.11 529.773 15.914C529.81 15.718 529.852 15.5173 529.899 15.312C529.945 15.0973 529.997 14.8827 530.053 14.668C530.109 14.4533 530.165 14.2433 530.221 14.038L531.985 8.004H533.287L535.121 14.08C535.186 14.2947 535.247 14.514 535.303 14.738C535.359 14.9527 535.41 15.1627 535.457 15.368C535.503 15.5733 535.541 15.774 535.569 15.97C535.606 16.1567 535.639 16.3293 535.667 16.488C535.695 16.2547 535.732 16.012 535.779 15.76C535.825 15.4987 535.881 15.228 535.947 14.948C536.012 14.668 536.082 14.3833 536.157 14.094L537.697 8.004H539.013Z" fill="white"/>
</svg>
