<svg width="510" height="25" viewBox="0 0 510 25" fill="none" xmlns="http://www.w3.org/2000/svg">
<rect width="510" height="25" fill="#555555"/>
<rect x="115" width="395" height="25" fill="#9945FF"/>
<path d="M25.3282 14.472C25.3282 15.1627 25.1882 15.788 24.9082 16.348C24.6282 16.8987 24.1988 17.3373 23.6202 17.664C23.0508 17.9813 22.3228 18.14 21.4362 18.14C20.1948 18.14 19.2475 17.804 18.5942 17.132C17.9502 16.4507 17.6282 15.5547 17.6282 14.444V8.004H18.8882V14.486C18.8882 15.298 19.1028 15.928 19.5322 16.376C19.9708 16.824 20.6288 17.048 21.5062 17.048C22.1128 17.048 22.6028 16.9407 22.9762 16.726C23.3588 16.502 23.6388 16.1987 23.8162 15.816C23.9935 15.424 24.0822 14.976 24.0822 14.472V8.004H25.3282V14.472ZM33.6364 15.326C33.6364 15.9233 33.4917 16.432 33.2024 16.852C32.9131 17.2627 32.4977 17.58 31.9564 17.804C31.4244 18.028 30.7944 18.14 30.0664 18.14C29.6931 18.14 29.3337 18.1213 28.9884 18.084C28.6524 18.0467 28.3444 17.9953 28.0644 17.93C27.7844 17.8553 27.5371 17.7667 27.3224 17.664V16.46C27.6584 16.6093 28.0737 16.7447 28.5684 16.866C29.0724 16.9873 29.5904 17.048 30.1224 17.048C30.6171 17.048 31.0324 16.9827 31.3684 16.852C31.7044 16.7213 31.9564 16.5347 32.1244 16.292C32.2924 16.0493 32.3764 15.7647 32.3764 15.438C32.3764 15.1113 32.3064 14.836 32.1664 14.612C32.0264 14.388 31.7837 14.1827 31.4384 13.996C31.1024 13.8 30.6311 13.5947 30.0244 13.38C29.5951 13.2213 29.2171 13.0533 28.8904 12.876C28.5731 12.6893 28.3071 12.4793 28.0924 12.246C27.8777 12.0127 27.7144 11.7467 27.6024 11.448C27.4997 11.1493 27.4484 10.804 27.4484 10.412C27.4484 9.88 27.5837 9.42733 27.8544 9.054C28.1251 8.67133 28.4984 8.37733 28.9744 8.172C29.4597 7.96667 30.0151 7.864 30.6404 7.864C31.1911 7.864 31.6951 7.91533 32.1524 8.018C32.6097 8.12067 33.0251 8.256 33.3984 8.424L33.0064 9.502C32.6611 9.35267 32.2831 9.22667 31.8724 9.124C31.4711 9.02133 31.0511 8.97 30.6124 8.97C30.1924 8.97 29.8424 9.03067 29.5624 9.152C29.2824 9.27333 29.0724 9.446 28.9324 9.67C28.7924 9.88467 28.7224 10.1367 28.7224 10.426C28.7224 10.762 28.7924 11.042 28.9324 11.266C29.0724 11.49 29.3011 11.6907 29.6184 11.868C29.9357 12.0453 30.3651 12.2367 30.9064 12.442C31.4944 12.6567 31.9891 12.89 32.3904 13.142C32.8011 13.3847 33.1091 13.6787 33.3144 14.024C33.5291 14.3693 33.6364 14.8033 33.6364 15.326ZM43.658 12.904C43.658 14.024 43.448 14.962 43.028 15.718C42.6173 16.474 42.0247 17.0433 41.25 17.426C40.4753 17.8087 39.5373 18 38.436 18H35.65V8.004H38.73C39.738 8.004 40.6107 8.19067 41.348 8.564C42.0853 8.93733 42.6547 9.488 43.056 10.216C43.4573 10.9347 43.658 11.8307 43.658 12.904ZM42.328 12.946C42.328 12.0593 42.1787 11.3313 41.88 10.762C41.5907 10.1927 41.1613 9.77267 40.592 9.502C40.032 9.222 39.3507 9.082 38.548 9.082H36.91V16.922H38.268C39.6213 16.922 40.634 16.5907 41.306 15.928C41.9873 15.256 42.328 14.262 42.328 12.946ZM50.1606 8.97C49.6286 8.97 49.1479 9.06333 48.7186 9.25C48.2892 9.42733 47.9252 9.69333 47.6266 10.048C47.3279 10.3933 47.0992 10.818 46.9406 11.322C46.7819 11.8167 46.7026 12.3767 46.7026 13.002C46.7026 13.8233 46.8286 14.5373 47.0806 15.144C47.3419 15.7507 47.7246 16.2173 48.2286 16.544C48.7419 16.8707 49.3812 17.034 50.1466 17.034C50.5852 17.034 51.0006 16.9967 51.3926 16.922C51.7846 16.8473 52.1672 16.754 52.5406 16.642V17.734C52.1672 17.874 51.7799 17.9767 51.3786 18.042C50.9866 18.1073 50.5152 18.14 49.9646 18.14C48.9472 18.14 48.0979 17.93 47.4166 17.51C46.7352 17.09 46.2219 16.4927 45.8766 15.718C45.5406 14.9433 45.3726 14.0333 45.3726 12.988C45.3726 12.232 45.4752 11.5413 45.6806 10.916C45.8952 10.2907 46.2032 9.74933 46.6046 9.292C47.0152 8.83467 47.5192 8.48467 48.1166 8.242C48.7139 7.99 49.3999 7.864 50.1746 7.864C50.6879 7.864 51.1826 7.91533 51.6586 8.018C52.1346 8.12067 52.5592 8.26533 52.9326 8.452L52.4286 9.516C52.1206 9.376 51.7752 9.25 51.3926 9.138C51.0192 9.026 50.6086 8.97 50.1606 8.97ZM57.561 14.164C57.561 13.3987 57.631 12.652 57.771 11.924C57.9203 11.196 58.149 10.5007 58.457 9.838C58.765 9.17533 59.1523 8.564 59.619 8.004H60.781C60.3516 8.58267 59.9876 9.208 59.689 9.88C59.3996 10.552 59.1803 11.2473 59.031 11.966C58.8816 12.6847 58.807 13.4127 58.807 14.15C58.807 14.8687 58.8816 15.5827 59.031 16.292C59.1803 17.0013 59.3996 17.6827 59.689 18.336C59.9783 18.9987 60.3376 19.624 60.767 20.212H59.619C59.1523 19.6613 58.765 19.0593 58.457 18.406C58.149 17.762 57.9203 17.0807 57.771 16.362C57.631 15.6433 57.561 14.9107 57.561 14.164ZM71.863 15.326C71.863 15.9233 71.7183 16.432 71.429 16.852C71.1396 17.2627 70.7243 17.58 70.183 17.804C69.651 18.028 69.021 18.14 68.293 18.14C67.9196 18.14 67.5603 18.1213 67.215 18.084C66.879 18.0467 66.571 17.9953 66.291 17.93C66.011 17.8553 65.7636 17.7667 65.549 17.664V16.46C65.885 16.6093 66.3003 16.7447 66.795 16.866C67.299 16.9873 67.817 17.048 68.349 17.048C68.8436 17.048 69.259 16.9827 69.595 16.852C69.931 16.7213 70.183 16.5347 70.351 16.292C70.519 16.0493 70.603 15.7647 70.603 15.438C70.603 15.1113 70.533 14.836 70.393 14.612C70.253 14.388 70.0103 14.1827 69.665 13.996C69.329 13.8 68.8576 13.5947 68.251 13.38C67.8216 13.2213 67.4436 13.0533 67.117 12.876C66.7996 12.6893 66.5336 12.4793 66.319 12.246C66.1043 12.0127 65.941 11.7467 65.829 11.448C65.7263 11.1493 65.675 10.804 65.675 10.412C65.675 9.88 65.8103 9.42733 66.081 9.054C66.3516 8.67133 66.725 8.37733 67.201 8.172C67.6863 7.96667 68.2416 7.864 68.867 7.864C69.4176 7.864 69.9216 7.91533 70.379 8.018C70.8363 8.12067 71.2516 8.256 71.625 8.424L71.233 9.502C70.8876 9.35267 70.5096 9.22667 70.099 9.124C69.6976 9.02133 69.2776 8.97 68.839 8.97C68.419 8.97 68.069 9.03067 67.789 9.152C67.509 9.27333 67.299 9.446 67.159 9.67C67.019 9.88467 66.949 10.1367 66.949 10.426C66.949 10.762 67.019 11.042 67.159 11.266C67.299 11.49 67.5276 11.6907 67.845 11.868C68.1623 12.0453 68.5916 12.2367 69.133 12.442C69.721 12.6567 70.2156 12.89 70.617 13.142C71.0276 13.3847 71.3356 13.6787 71.541 14.024C71.7556 14.3693 71.863 14.8033 71.863 15.326ZM82.5986 12.988C82.5986 13.7627 82.5006 14.4673 82.3046 15.102C82.1086 15.7273 81.8146 16.2687 81.4226 16.726C81.0399 17.1833 80.5592 17.5333 79.9806 17.776C79.4112 18.0187 78.7486 18.14 77.9926 18.14C77.2086 18.14 76.5272 18.0187 75.9486 17.776C75.3699 17.524 74.8892 17.174 74.5066 16.726C74.1239 16.2687 73.8392 15.7227 73.6526 15.088C73.4659 14.4533 73.3726 13.7487 73.3726 12.974C73.3726 11.9473 73.5406 11.0513 73.8766 10.286C74.2126 9.52067 74.7212 8.92333 75.4026 8.494C76.0932 8.06467 76.9612 7.85 78.0066 7.85C79.0052 7.85 79.8452 8.06467 80.5266 8.494C81.2079 8.914 81.7212 9.51133 82.0666 10.286C82.4212 11.0513 82.5986 11.952 82.5986 12.988ZM74.7026 12.988C74.7026 13.828 74.8192 14.5513 75.0526 15.158C75.2859 15.7647 75.6452 16.2313 76.1306 16.558C76.6252 16.8847 77.2459 17.048 77.9926 17.048C78.7486 17.048 79.3646 16.8847 79.8406 16.558C80.3259 16.2313 80.6852 15.7647 80.9186 15.158C81.1519 14.5513 81.2686 13.828 81.2686 12.988C81.2686 11.728 81.0072 10.7433 80.4846 10.034C79.9619 9.31533 79.1359 8.956 78.0066 8.956C77.2506 8.956 76.6252 9.11933 76.1306 9.446C75.6452 9.76333 75.2859 10.2253 75.0526 10.832C74.8192 11.4293 74.7026 12.148 74.7026 12.988ZM84.8141 18V8.004H86.0741V16.88H90.4421V18H84.8141ZM98.0746 14.164C98.0746 14.9107 97.9999 15.6433 97.8506 16.362C97.7106 17.0807 97.4866 17.762 97.1786 18.406C96.8799 19.0593 96.4926 19.6613 96.0166 20.212H94.8686C95.2979 19.624 95.6572 18.9987 95.9466 18.336C96.2359 17.6827 96.4552 17.0013 96.6046 16.292C96.7539 15.5827 96.8286 14.8687 96.8286 14.15C96.8286 13.4127 96.7539 12.6847 96.6046 11.966C96.4552 11.2473 96.2359 10.552 95.9466 9.88C95.6572 9.208 95.2932 8.58267 94.8546 8.004H96.0166C96.4926 8.564 96.8799 9.17533 97.1786 9.838C97.4866 10.5007 97.7106 11.196 97.8506 11.924C97.9999 12.652 98.0746 13.3987 98.0746 14.164Z" fill="white"/>
<path d="M133.66 11.868C134.341 11.868 134.934 11.9847 135.438 12.218C135.942 12.4513 136.329 12.7873 136.6 13.226C136.88 13.6553 137.02 14.1827 137.02 14.808C137.02 15.4987 136.87 16.096 136.572 16.6C136.273 17.0947 135.844 17.4773 135.284 17.748C134.733 18.0093 134.066 18.14 133.282 18.14C132.768 18.14 132.283 18.0933 131.826 18C131.378 17.9067 131 17.7713 130.692 17.594V16.432C131.028 16.6373 131.434 16.8007 131.91 16.922C132.395 17.034 132.857 17.09 133.296 17.09C133.79 17.09 134.22 17.0153 134.584 16.866C134.957 16.7073 135.246 16.4693 135.452 16.152C135.657 15.8253 135.76 15.4193 135.76 14.934C135.76 14.2807 135.559 13.7813 135.158 13.436C134.756 13.0813 134.122 12.904 133.254 12.904C132.992 12.904 132.694 12.9273 132.358 12.974C132.022 13.0207 131.751 13.0673 131.546 13.114L130.93 12.722L131.308 8.004H136.32V9.124H132.358L132.12 12.022C132.278 11.994 132.493 11.9613 132.764 11.924C133.034 11.8867 133.333 11.868 133.66 11.868ZM146.221 8.004L142.651 18H141.391L137.821 8.004H139.137L141.391 14.416C141.494 14.6867 141.583 14.948 141.657 15.2C141.732 15.452 141.797 15.6947 141.853 15.928C141.919 16.152 141.975 16.376 142.021 16.6C142.068 16.376 142.119 16.1473 142.175 15.914C142.241 15.6807 142.311 15.438 142.385 15.186C142.469 14.934 142.558 14.668 142.651 14.388L144.891 8.004H146.221ZM150.332 8.004C151.162 8.004 151.844 8.11133 152.376 8.326C152.917 8.53133 153.318 8.844 153.58 9.264C153.841 9.684 153.972 10.2113 153.972 10.846C153.972 11.378 153.874 11.8213 153.678 12.176C153.482 12.5307 153.23 12.8153 152.922 13.03C152.623 13.2353 152.306 13.3987 151.97 13.52L154.714 18H153.244L150.822 13.87H148.834V18H147.574V8.004H150.332ZM150.262 9.096H148.834V12.806H150.332C150.873 12.806 151.316 12.736 151.662 12.596C152.007 12.4467 152.259 12.232 152.418 11.952C152.586 11.672 152.67 11.322 152.67 10.902C152.67 10.4633 152.581 10.1133 152.404 9.852C152.236 9.59067 151.974 9.39933 151.62 9.278C151.265 9.15667 150.812 9.096 150.262 9.096ZM162.653 15.732H161.197V18H160.007V15.732H155.219V14.682L159.923 7.948H161.197V14.626H162.653V15.732ZM160.007 11.476C160.007 11.2333 160.007 11.014 160.007 10.818C160.016 10.6127 160.025 10.4213 160.035 10.244C160.044 10.0667 160.049 9.89867 160.049 9.74C160.058 9.572 160.067 9.41333 160.077 9.264H160.021C159.946 9.44133 159.853 9.63267 159.741 9.838C159.629 10.0433 159.521 10.216 159.419 10.356L156.423 14.626H160.007V11.476ZM166.899 12.918L169.503 8.004H170.861L167.529 14.122V18H166.269V14.178L162.937 8.004H164.309L166.899 12.918ZM177.81 18H172.224V8.004H177.81V9.11H173.484V12.232H177.558V13.324H173.484V16.894H177.81V18ZM181.264 18H180.004V8.004H185.59V9.11H181.264V12.652H185.324V13.758H181.264V18ZM194.907 18H193.647V13.338H188.523V18H187.263V8.004H188.523V12.232H193.647V8.004H194.907V18ZM200.37 10.356C201.014 10.356 201.565 10.496 202.022 10.776C202.489 11.056 202.844 11.4527 203.086 11.966C203.338 12.47 203.464 13.0627 203.464 13.744V14.486H198.326C198.345 15.3353 198.56 15.984 198.97 16.432C199.39 16.8707 199.974 17.09 200.72 17.09C201.196 17.09 201.616 17.048 201.98 16.964C202.354 16.8707 202.736 16.74 203.128 16.572V17.65C202.746 17.818 202.368 17.9393 201.994 18.014C201.621 18.098 201.178 18.14 200.664 18.14C199.955 18.14 199.325 17.9953 198.774 17.706C198.233 17.4167 197.808 16.9873 197.5 16.418C197.202 15.8393 197.052 15.1347 197.052 14.304C197.052 13.4827 197.188 12.778 197.458 12.19C197.738 11.602 198.126 11.1493 198.62 10.832C199.124 10.5147 199.708 10.356 200.37 10.356ZM200.356 11.364C199.768 11.364 199.302 11.5553 198.956 11.938C198.62 12.3113 198.42 12.834 198.354 13.506H202.176C202.176 13.0767 202.111 12.7033 201.98 12.386C201.85 12.0687 201.649 11.8213 201.378 11.644C201.117 11.4573 200.776 11.364 200.356 11.364ZM209.827 8.97C209.295 8.97 208.814 9.06333 208.385 9.25C207.955 9.42733 207.591 9.69333 207.293 10.048C206.994 10.3933 206.765 10.818 206.607 11.322C206.448 11.8167 206.369 12.3767 206.369 13.002C206.369 13.8233 206.495 14.5373 206.747 15.144C207.008 15.7507 207.391 16.2173 207.895 16.544C208.408 16.8707 209.047 17.034 209.813 17.034C210.251 17.034 210.667 16.9967 211.059 16.922C211.451 16.8473 211.833 16.754 212.207 16.642V17.734C211.833 17.874 211.446 17.9767 211.045 18.042C210.653 18.1073 210.181 18.14 209.631 18.14C208.613 18.14 207.764 17.93 207.083 17.51C206.401 17.09 205.888 16.4927 205.543 15.718C205.207 14.9433 205.039 14.0333 205.039 12.988C205.039 12.232 205.141 11.5413 205.347 10.916C205.561 10.2907 205.869 9.74933 206.271 9.292C206.681 8.83467 207.185 8.48467 207.783 8.242C208.38 7.99 209.066 7.864 209.841 7.864C210.354 7.864 210.849 7.91533 211.325 8.018C211.801 8.12067 212.225 8.26533 212.599 8.452L212.095 9.516C211.787 9.376 211.441 9.25 211.059 9.138C210.685 9.026 210.275 8.97 209.827 8.97ZM215.872 18L213.03 10.496H214.346L215.942 14.92C216.017 15.1253 216.096 15.354 216.18 15.606C216.264 15.858 216.339 16.1007 216.404 16.334C216.47 16.558 216.516 16.7493 216.544 16.908H216.6C216.638 16.7493 216.689 16.5533 216.754 16.32C216.829 16.0867 216.908 15.844 216.992 15.592C217.086 15.34 217.165 15.116 217.23 14.92L218.826 10.496H220.142L217.286 18H215.872ZM224.83 10.356C224.97 10.356 225.119 10.3653 225.278 10.384C225.446 10.3933 225.59 10.412 225.712 10.44L225.558 11.574C225.436 11.546 225.301 11.5227 225.152 11.504C225.012 11.4853 224.876 11.476 224.746 11.476C224.456 11.476 224.181 11.5367 223.92 11.658C223.658 11.7793 223.425 11.952 223.22 12.176C223.014 12.3907 222.851 12.652 222.73 12.96C222.618 13.268 222.562 13.6133 222.562 13.996V18H221.33V10.496H222.338L222.478 11.868H222.534C222.692 11.588 222.884 11.336 223.108 11.112C223.332 10.8787 223.588 10.6967 223.878 10.566C224.167 10.426 224.484 10.356 224.83 10.356ZM229.619 17.132C229.806 17.132 229.997 17.118 230.193 17.09C230.389 17.0527 230.548 17.0153 230.669 16.978V17.916C230.538 17.9813 230.352 18.0327 230.109 18.07C229.866 18.1167 229.633 18.14 229.409 18.14C229.017 18.14 228.653 18.0747 228.317 17.944C227.99 17.804 227.724 17.566 227.519 17.23C227.314 16.894 227.211 16.4227 227.211 15.816V11.448H226.147V10.86L227.225 10.37L227.715 8.774H228.443V10.496H230.613V11.448H228.443V15.788C228.443 16.2453 228.55 16.586 228.765 16.81C228.989 17.0247 229.274 17.132 229.619 17.132ZM231.751 13.73C231.751 13.1513 231.789 12.582 231.863 12.022C231.947 11.462 232.087 10.9347 232.283 10.44C232.479 9.936 232.75 9.49267 233.095 9.11C233.441 8.718 233.875 8.41467 234.397 8.2C234.929 7.976 235.573 7.864 236.329 7.864C236.525 7.864 236.74 7.87333 236.973 7.892C237.216 7.91067 237.412 7.94333 237.561 7.99V9.04C237.393 8.984 237.202 8.942 236.987 8.914C236.782 8.886 236.572 8.872 236.357 8.872C235.713 8.872 235.177 8.97933 234.747 9.194C234.318 9.40867 233.977 9.70267 233.725 10.076C233.483 10.4493 233.305 10.8787 233.193 11.364C233.081 11.8493 233.011 12.3673 232.983 12.918H233.067C233.207 12.694 233.385 12.4933 233.599 12.316C233.814 12.1387 234.071 11.9987 234.369 11.896C234.677 11.7933 235.032 11.742 235.433 11.742C236.012 11.742 236.516 11.8633 236.945 12.106C237.384 12.3393 237.725 12.6847 237.967 13.142C238.21 13.59 238.331 14.136 238.331 14.78C238.331 15.4707 238.201 16.068 237.939 16.572C237.678 17.076 237.309 17.4633 236.833 17.734C236.367 18.0047 235.807 18.14 235.153 18.14C234.677 18.14 234.234 18.0513 233.823 17.874C233.413 17.6967 233.049 17.426 232.731 17.062C232.423 16.698 232.181 16.2407 232.003 15.69C231.835 15.13 231.751 14.4767 231.751 13.73ZM235.139 17.104C235.727 17.104 236.203 16.9173 236.567 16.544C236.931 16.1613 237.113 15.5733 237.113 14.78C237.113 14.1453 236.95 13.6413 236.623 13.268C236.306 12.8947 235.825 12.708 235.181 12.708C234.743 12.708 234.36 12.8013 234.033 12.988C233.707 13.1653 233.45 13.394 233.263 13.674C233.086 13.954 232.997 14.2433 232.997 14.542C232.997 14.85 233.039 15.1533 233.123 15.452C233.217 15.7507 233.352 16.026 233.529 16.278C233.716 16.53 233.94 16.7307 234.201 16.88C234.472 17.0293 234.785 17.104 235.139 17.104ZM247.953 14.472C247.953 15.1627 247.813 15.788 247.533 16.348C247.253 16.8987 246.824 17.3373 246.245 17.664C245.676 17.9813 244.948 18.14 244.061 18.14C242.82 18.14 241.872 17.804 241.219 17.132C240.575 16.4507 240.253 15.5547 240.253 14.444V8.004H241.513V14.486C241.513 15.298 241.728 15.928 242.157 16.376C242.596 16.824 243.254 17.048 244.131 17.048C244.738 17.048 245.228 16.9407 245.601 16.726C245.984 16.502 246.264 16.1987 246.441 15.816C246.618 15.424 246.707 14.976 246.707 14.472V8.004H247.953V14.472ZM249.247 10.496H250.563L252.187 14.766C252.281 15.018 252.365 15.2607 252.439 15.494C252.523 15.7273 252.598 15.956 252.663 16.18C252.729 16.3947 252.78 16.6047 252.817 16.81H252.873C252.929 16.5767 253.018 16.2733 253.139 15.9C253.261 15.5173 253.387 15.1347 253.517 14.752L255.043 10.496H256.373L253.139 19.036C252.962 19.5027 252.752 19.9087 252.509 20.254C252.276 20.6087 251.987 20.8793 251.641 21.066C251.305 21.262 250.895 21.36 250.409 21.36C250.185 21.36 249.989 21.346 249.821 21.318C249.653 21.2993 249.509 21.276 249.387 21.248V20.268C249.49 20.2867 249.611 20.3053 249.751 20.324C249.901 20.3427 250.055 20.352 250.213 20.352C250.503 20.352 250.75 20.296 250.955 20.184C251.17 20.0813 251.352 19.9273 251.501 19.722C251.651 19.526 251.777 19.2927 251.879 19.022L252.271 18.028L249.247 10.496ZM260.22 18.14C259.287 18.14 258.54 17.818 257.98 17.174C257.42 16.5207 257.14 15.55 257.14 14.262C257.14 12.974 257.42 12.0033 257.98 11.35C258.549 10.6873 259.301 10.356 260.234 10.356C260.626 10.356 260.967 10.4073 261.256 10.51C261.545 10.6033 261.797 10.734 262.012 10.902C262.227 11.07 262.409 11.2567 262.558 11.462H262.642C262.633 11.3407 262.614 11.1633 262.586 10.93C262.567 10.6873 262.558 10.496 262.558 10.356V7.36H263.79V18H262.796L262.614 16.992H262.558C262.409 17.2067 262.227 17.4027 262.012 17.58C261.797 17.748 261.541 17.8833 261.242 17.986C260.953 18.0887 260.612 18.14 260.22 18.14ZM260.416 17.118C261.209 17.118 261.765 16.9033 262.082 16.474C262.409 16.0353 262.572 15.3773 262.572 14.5V14.276C262.572 13.3427 262.418 12.6287 262.11 12.134C261.802 11.63 261.233 11.378 260.402 11.378C259.739 11.378 259.24 11.644 258.904 12.176C258.577 12.6987 258.414 13.4033 258.414 14.29C258.414 15.186 258.577 15.8813 258.904 16.376C259.24 16.8707 259.744 17.118 260.416 17.118ZM273.985 18H272.725V13.338H267.601V18H266.341V8.004H267.601V12.232H272.725V8.004H273.985V18ZM284.726 12.904C284.726 14.024 284.516 14.962 284.096 15.718C283.686 16.474 283.093 17.0433 282.318 17.426C281.544 17.8087 280.606 18 279.504 18H276.718V8.004H279.798C280.806 8.004 281.679 8.19067 282.416 8.564C283.154 8.93733 283.723 9.488 284.124 10.216C284.526 10.9347 284.726 11.8307 284.726 12.904ZM283.396 12.946C283.396 12.0593 283.247 11.3313 282.948 10.762C282.659 10.1927 282.23 9.77267 281.66 9.502C281.1 9.222 280.419 9.082 279.616 9.082H277.978V16.922H279.336C280.69 16.922 281.702 16.5907 282.374 15.928C283.056 15.256 283.396 14.262 283.396 12.946ZM294.547 14.472C294.547 15.1627 294.407 15.788 294.127 16.348C293.847 16.8987 293.418 17.3373 292.839 17.664C292.27 17.9813 291.542 18.14 290.655 18.14C289.414 18.14 288.466 17.804 287.813 17.132C287.169 16.4507 286.847 15.5547 286.847 14.444V8.004H288.107V14.486C288.107 15.298 288.322 15.928 288.751 16.376C289.19 16.824 289.848 17.048 290.725 17.048C291.332 17.048 291.822 16.9407 292.195 16.726C292.578 16.502 292.858 16.1987 293.035 15.816C293.212 15.424 293.301 14.976 293.301 14.472V8.004H294.547V14.472ZM300.517 10.356C300.657 10.356 300.806 10.3653 300.965 10.384C301.133 10.3933 301.278 10.412 301.399 10.44L301.245 11.574C301.124 11.546 300.988 11.5227 300.839 11.504C300.699 11.4853 300.564 11.476 300.433 11.476C300.144 11.476 299.868 11.5367 299.607 11.658C299.346 11.7793 299.112 11.952 298.907 12.176C298.702 12.3907 298.538 12.652 298.417 12.96C298.305 13.268 298.249 13.6133 298.249 13.996V18H297.017V10.496H298.025L298.165 11.868H298.221C298.38 11.588 298.571 11.336 298.795 11.112C299.019 10.8787 299.276 10.6967 299.565 10.566C299.854 10.426 300.172 10.356 300.517 10.356ZM308.89 12.274C308.89 12.8433 308.848 13.4127 308.764 13.982C308.69 14.542 308.554 15.074 308.358 15.578C308.162 16.0727 307.892 16.516 307.546 16.908C307.201 17.2907 306.762 17.594 306.23 17.818C305.698 18.0327 305.054 18.14 304.298 18.14C304.112 18.14 303.892 18.126 303.64 18.098C303.398 18.0793 303.197 18.0467 303.038 18V16.95C303.206 17.006 303.402 17.0527 303.626 17.09C303.85 17.118 304.065 17.132 304.27 17.132C304.924 17.132 305.46 17.0247 305.88 16.81C306.31 16.5953 306.65 16.306 306.902 15.942C307.154 15.5687 307.336 15.1393 307.448 14.654C307.56 14.1593 307.626 13.6413 307.644 13.1H307.56C307.42 13.3147 307.243 13.5107 307.028 13.688C306.814 13.8653 306.552 14.0053 306.244 14.108C305.946 14.2107 305.591 14.262 305.18 14.262C304.611 14.262 304.107 14.1453 303.668 13.912C303.239 13.6693 302.903 13.324 302.66 12.876C302.427 12.428 302.31 11.882 302.31 11.238C302.31 10.538 302.441 9.936 302.702 9.432C302.973 8.928 303.346 8.54067 303.822 8.27C304.298 7.99933 304.858 7.864 305.502 7.864C305.978 7.864 306.422 7.95733 306.832 8.144C307.243 8.32133 307.602 8.592 307.91 8.956C308.218 9.32 308.456 9.77733 308.624 10.328C308.802 10.8787 308.89 11.5273 308.89 12.274ZM305.502 8.9C304.924 8.9 304.448 9.09133 304.074 9.474C303.71 9.85667 303.528 10.44 303.528 11.224C303.528 11.868 303.682 12.3767 303.99 12.75C304.308 13.114 304.793 13.296 305.446 13.296C305.894 13.296 306.282 13.2073 306.608 13.03C306.935 12.8433 307.187 12.61 307.364 12.33C307.551 12.05 307.644 11.7607 307.644 11.462C307.644 11.1633 307.598 10.8647 307.504 10.566C307.42 10.258 307.29 9.978 307.112 9.726C306.935 9.474 306.711 9.27333 306.44 9.124C306.17 8.97467 305.857 8.9 305.502 8.9ZM313.654 10.37C314.569 10.37 315.245 10.5707 315.684 10.972C316.123 11.3733 316.342 12.0127 316.342 12.89V18H315.446L315.208 16.936H315.152C314.937 17.2067 314.713 17.4353 314.48 17.622C314.256 17.7993 313.995 17.93 313.696 18.014C313.407 18.098 313.052 18.14 312.632 18.14C312.184 18.14 311.778 18.0607 311.414 17.902C311.059 17.7433 310.779 17.5007 310.574 17.174C310.369 16.838 310.266 16.418 310.266 15.914C310.266 15.1673 310.56 14.5933 311.148 14.192C311.736 13.7813 312.641 13.5573 313.864 13.52L315.138 13.478V13.03C315.138 12.4047 315.003 11.9707 314.732 11.728C314.461 11.4853 314.079 11.364 313.584 11.364C313.192 11.364 312.819 11.4247 312.464 11.546C312.109 11.658 311.778 11.7887 311.47 11.938L311.092 11.014C311.419 10.8367 311.806 10.6873 312.254 10.566C312.702 10.4353 313.169 10.37 313.654 10.37ZM314.018 14.374C313.085 14.4113 312.436 14.5607 312.072 14.822C311.717 15.0833 311.54 15.452 311.54 15.928C311.54 16.348 311.666 16.656 311.918 16.852C312.179 17.048 312.511 17.146 312.912 17.146C313.547 17.146 314.074 16.9733 314.494 16.628C314.914 16.2733 315.124 15.732 315.124 15.004V14.332L314.018 14.374ZM325.87 8.004L322.3 18H321.04L317.47 8.004H318.786L321.04 14.416C321.142 14.6867 321.231 14.948 321.306 15.2C321.38 15.452 321.446 15.6947 321.502 15.928C321.567 16.152 321.623 16.376 321.67 16.6C321.716 16.376 321.768 16.1473 321.824 15.914C321.889 15.6807 321.959 15.438 322.034 15.186C322.118 14.934 322.206 14.668 322.3 14.388L324.54 8.004H325.87ZM331.779 18.154C331.779 17.986 331.783 17.79 331.793 17.566C331.802 17.342 331.821 17.1507 331.849 16.992H331.765C331.55 17.3093 331.251 17.58 330.869 17.804C330.495 18.028 330.01 18.14 329.413 18.14C328.507 18.14 327.77 17.818 327.201 17.174C326.641 16.5207 326.361 15.55 326.361 14.262C326.361 13.4033 326.491 12.6847 326.753 12.106C327.014 11.5273 327.378 11.0933 327.845 10.804C328.311 10.5053 328.848 10.356 329.455 10.356C330.043 10.356 330.523 10.468 330.897 10.692C331.27 10.916 331.569 11.1913 331.793 11.518H331.849L332.031 10.496H333.011V21.36H331.779V18.154ZM329.651 17.118C330.164 17.118 330.575 17.0247 330.883 16.838C331.2 16.6513 331.429 16.3667 331.569 15.984C331.709 15.592 331.783 15.1067 331.793 14.528V14.276C331.793 13.324 331.634 12.6053 331.317 12.12C330.999 11.6253 330.435 11.378 329.623 11.378C328.951 11.378 328.451 11.644 328.125 12.176C327.798 12.6987 327.635 13.4033 327.635 14.29C327.635 15.1767 327.798 15.872 328.125 16.376C328.461 16.8707 328.969 17.118 329.651 17.118ZM338.852 11.448H336.962V18H335.73V11.448H334.414V10.874L335.73 10.454V10.02C335.73 9.376 335.823 8.85333 336.01 8.452C336.206 8.05067 336.486 7.75667 336.85 7.57C337.214 7.38333 337.653 7.29 338.166 7.29C338.465 7.29 338.735 7.318 338.978 7.374C339.23 7.42067 339.445 7.47667 339.622 7.542L339.3 8.508C339.151 8.46133 338.978 8.41467 338.782 8.368C338.586 8.32133 338.385 8.298 338.18 8.298C337.769 8.298 337.461 8.438 337.256 8.718C337.06 8.98867 336.962 9.418 336.962 10.006V10.496H338.852V11.448ZM345.051 13.758C344.995 13.562 344.939 13.3707 344.883 13.184C344.827 12.988 344.775 12.806 344.729 12.638C344.691 12.4607 344.654 12.2973 344.617 12.148C344.579 11.9987 344.551 11.8727 344.533 11.77H344.477C344.458 11.8727 344.43 11.9987 344.393 12.148C344.365 12.2973 344.327 12.4607 344.281 12.638C344.243 12.8153 344.197 13.002 344.141 13.198C344.094 13.3847 344.038 13.576 343.973 13.772L342.629 17.986H341.229L339.171 10.482H340.445L341.481 14.486C341.555 14.7567 341.625 15.032 341.691 15.312C341.756 15.5827 341.812 15.844 341.859 16.096C341.915 16.3387 341.952 16.5487 341.971 16.726H342.027C342.055 16.614 342.087 16.474 342.125 16.306C342.162 16.138 342.199 15.9607 342.237 15.774C342.283 15.5873 342.33 15.4007 342.377 15.214C342.433 15.0273 342.484 14.8593 342.531 14.71L343.861 10.482H345.205L346.493 14.71C346.558 14.9247 346.623 15.1533 346.689 15.396C346.763 15.6387 346.829 15.8767 346.885 16.11C346.941 16.334 346.978 16.5347 346.997 16.712H347.053C347.071 16.5533 347.104 16.3573 347.151 16.124C347.207 15.8813 347.267 15.62 347.333 15.34C347.407 15.0507 347.482 14.766 347.557 14.486L348.607 10.482H349.867L347.781 17.986H346.339L345.051 13.758ZM357.75 15.732H356.294V18H355.104V15.732H350.316V14.682L355.02 7.948H356.294V14.626H357.75V15.732ZM355.104 11.476C355.104 11.2333 355.104 11.014 355.104 10.818C355.114 10.6127 355.123 10.4213 355.132 10.244C355.142 10.0667 355.146 9.89867 355.146 9.74C355.156 9.572 355.165 9.41333 355.174 9.264H355.118C355.044 9.44133 354.95 9.63267 354.838 9.838C354.726 10.0433 354.619 10.216 354.516 10.356L351.52 14.626H355.104V11.476ZM364.222 18.154C364.222 17.986 364.227 17.79 364.236 17.566C364.246 17.342 364.264 17.1507 364.292 16.992H364.208C363.994 17.3093 363.695 17.58 363.312 17.804C362.939 18.028 362.454 18.14 361.856 18.14C360.951 18.14 360.214 17.818 359.644 17.174C359.084 16.5207 358.804 15.55 358.804 14.262C358.804 13.4033 358.935 12.6847 359.196 12.106C359.458 11.5273 359.822 11.0933 360.288 10.804C360.755 10.5053 361.292 10.356 361.898 10.356C362.486 10.356 362.967 10.468 363.34 10.692C363.714 10.916 364.012 11.1913 364.236 11.518H364.292L364.474 10.496H365.454V21.36H364.222V18.154ZM362.094 17.118C362.608 17.118 363.018 17.0247 363.326 16.838C363.644 16.6513 363.872 16.3667 364.012 15.984C364.152 15.592 364.227 15.1067 364.236 14.528V14.276C364.236 13.324 364.078 12.6053 363.76 12.12C363.443 11.6253 362.878 11.378 362.066 11.378C361.394 11.378 360.895 11.644 360.568 12.176C360.242 12.6987 360.078 13.4033 360.078 14.29C360.078 15.1767 360.242 15.872 360.568 16.376C360.904 16.8707 361.413 17.118 362.094 17.118ZM370.847 18.14C370.185 18.14 369.592 18.0047 369.069 17.734C368.556 17.4633 368.15 17.0433 367.851 16.474C367.562 15.9047 367.417 15.1767 367.417 14.29C367.417 13.366 367.571 12.6147 367.879 12.036C368.187 11.4573 368.603 11.0327 369.125 10.762C369.657 10.4913 370.259 10.356 370.931 10.356C371.314 10.356 371.683 10.398 372.037 10.482C372.392 10.5567 372.681 10.65 372.905 10.762L372.527 11.784C372.303 11.7 372.042 11.6207 371.743 11.546C371.445 11.4713 371.165 11.434 370.903 11.434C370.399 11.434 369.984 11.5413 369.657 11.756C369.331 11.9707 369.088 12.288 368.929 12.708C368.771 13.128 368.691 13.6507 368.691 14.276C368.691 14.8733 368.771 15.382 368.929 15.802C369.088 16.222 369.326 16.5393 369.643 16.754C369.961 16.9687 370.357 17.076 370.833 17.076C371.244 17.076 371.603 17.034 371.911 16.95C372.229 16.866 372.518 16.7633 372.779 16.642V17.734C372.527 17.8647 372.247 17.9627 371.939 18.028C371.641 18.1027 371.277 18.14 370.847 18.14ZM377.224 11.868C377.905 11.868 378.498 11.9847 379.002 12.218C379.506 12.4513 379.893 12.7873 380.164 13.226C380.444 13.6553 380.584 14.1827 380.584 14.808C380.584 15.4987 380.435 16.096 380.136 16.6C379.837 17.0947 379.408 17.4773 378.848 17.748C378.297 18.0093 377.63 18.14 376.846 18.14C376.333 18.14 375.847 18.0933 375.39 18C374.942 17.9067 374.564 17.7713 374.256 17.594V16.432C374.592 16.6373 374.998 16.8007 375.474 16.922C375.959 17.034 376.421 17.09 376.86 17.09C377.355 17.09 377.784 17.0153 378.148 16.866C378.521 16.7073 378.811 16.4693 379.016 16.152C379.221 15.8253 379.324 15.4193 379.324 14.934C379.324 14.2807 379.123 13.7813 378.722 13.436C378.321 13.0813 377.686 12.904 376.818 12.904C376.557 12.904 376.258 12.9273 375.922 12.974C375.586 13.0207 375.315 13.0673 375.11 13.114L374.494 12.722L374.872 8.004H379.884V9.124H375.922L375.684 12.022C375.843 11.994 376.057 11.9613 376.328 11.924C376.599 11.8867 376.897 11.868 377.224 11.868ZM385.236 10.356C385.73 10.356 386.174 10.4493 386.566 10.636C386.967 10.8227 387.308 11.1073 387.588 11.49H387.658L387.826 10.496H388.806V18.126C388.806 18.8353 388.684 19.428 388.442 19.904C388.199 20.3893 387.83 20.7533 387.336 20.996C386.841 21.2387 386.211 21.36 385.446 21.36C384.904 21.36 384.405 21.318 383.948 21.234C383.5 21.1593 383.098 21.0427 382.744 20.884V19.75C382.986 19.8713 383.252 19.974 383.542 20.058C383.831 20.1513 384.144 20.2213 384.48 20.268C384.816 20.3147 385.161 20.338 385.516 20.338C386.16 20.338 386.664 20.1467 387.028 19.764C387.401 19.3907 387.588 18.8773 387.588 18.224V17.93C387.588 17.818 387.592 17.6593 387.602 17.454C387.611 17.2393 387.62 17.09 387.63 17.006H387.574C387.312 17.3887 386.986 17.6733 386.594 17.86C386.211 18.0467 385.763 18.14 385.25 18.14C384.279 18.14 383.518 17.7993 382.968 17.118C382.426 16.4367 382.156 15.4847 382.156 14.262C382.156 13.4593 382.277 12.7687 382.52 12.19C382.772 11.602 383.126 11.1493 383.584 10.832C384.041 10.5147 384.592 10.356 385.236 10.356ZM385.404 11.392C384.984 11.392 384.624 11.504 384.326 11.728C384.036 11.952 383.812 12.2787 383.654 12.708C383.504 13.1373 383.43 13.66 383.43 14.276C383.43 15.2 383.598 15.9093 383.934 16.404C384.279 16.8893 384.778 17.132 385.432 17.132C385.814 17.132 386.141 17.0853 386.412 16.992C386.682 16.8893 386.906 16.7353 387.084 16.53C387.261 16.3153 387.392 16.0447 387.476 15.718C387.56 15.3913 387.602 15.004 387.602 14.556V14.262C387.602 13.5807 387.522 13.03 387.364 12.61C387.214 12.19 386.976 11.882 386.65 11.686C386.323 11.49 385.908 11.392 385.404 11.392ZM402.837 8.004L400.177 18H398.903L396.957 11.448C396.901 11.252 396.845 11.0513 396.789 10.846C396.733 10.6407 396.682 10.4447 396.635 10.258C396.588 10.0713 396.546 9.91267 396.509 9.782C396.481 9.642 396.462 9.53933 396.453 9.474C396.444 9.53933 396.425 9.642 396.397 9.782C396.378 9.91267 396.346 10.0713 396.299 10.258C396.252 10.4447 396.201 10.6453 396.145 10.86C396.098 11.0653 396.042 11.2753 395.977 11.49L394.087 18H392.813L390.167 8.004H391.483L393.037 14.108C393.093 14.3227 393.144 14.5373 393.191 14.752C393.238 14.9573 393.28 15.1627 393.317 15.368C393.364 15.564 393.401 15.7553 393.429 15.942C393.457 16.1287 393.485 16.3107 393.513 16.488C393.541 16.3013 393.569 16.11 393.597 15.914C393.634 15.718 393.676 15.5173 393.723 15.312C393.77 15.0973 393.821 14.8827 393.877 14.668C393.933 14.4533 393.989 14.2433 394.045 14.038L395.809 8.004H397.111L398.945 14.08C399.01 14.2947 399.071 14.514 399.127 14.738C399.183 14.9527 399.234 15.1627 399.281 15.368C399.328 15.5733 399.365 15.774 399.393 15.97C399.43 16.1567 399.463 16.3293 399.491 16.488C399.519 16.2547 399.556 16.012 399.603 15.76C399.65 15.4987 399.706 15.228 399.771 14.948C399.836 14.668 399.906 14.3833 399.981 14.094L401.521 8.004H402.837ZM411.415 8.004L407.845 18H406.585L403.015 8.004H404.331L406.585 14.416C406.687 14.6867 406.776 14.948 406.851 15.2C406.925 15.452 406.991 15.6947 407.047 15.928C407.112 16.152 407.168 16.376 407.215 16.6C407.261 16.376 407.313 16.1473 407.369 15.914C407.434 15.6807 407.504 15.438 407.579 15.186C407.663 14.934 407.751 14.668 407.845 14.388L410.085 8.004H411.415ZM415.105 17.132C415.292 17.132 415.483 17.118 415.679 17.09C415.875 17.0527 416.034 17.0153 416.155 16.978V17.916C416.025 17.9813 415.838 18.0327 415.595 18.07C415.353 18.1167 415.119 18.14 414.895 18.14C414.503 18.14 414.139 18.0747 413.803 17.944C413.477 17.804 413.211 17.566 413.005 17.23C412.8 16.894 412.697 16.4227 412.697 15.816V11.448H411.633V10.86L412.711 10.37L413.201 8.774H413.929V10.496H416.099V11.448H413.929V15.788C413.929 16.2453 414.037 16.586 414.251 16.81C414.475 17.0247 414.76 17.132 415.105 17.132ZM420.318 10.356C420.812 10.356 421.256 10.4493 421.648 10.636C422.049 10.8227 422.39 11.1073 422.67 11.49H422.74L422.908 10.496H423.888V18.126C423.888 18.8353 423.766 19.428 423.524 19.904C423.281 20.3893 422.912 20.7533 422.418 20.996C421.923 21.2387 421.293 21.36 420.528 21.36C419.986 21.36 419.487 21.318 419.03 21.234C418.582 21.1593 418.18 21.0427 417.826 20.884V19.75C418.068 19.8713 418.334 19.974 418.624 20.058C418.913 20.1513 419.226 20.2213 419.562 20.268C419.898 20.3147 420.243 20.338 420.598 20.338C421.242 20.338 421.746 20.1467 422.11 19.764C422.483 19.3907 422.67 18.8773 422.67 18.224V17.93C422.67 17.818 422.674 17.6593 422.684 17.454C422.693 17.2393 422.702 17.09 422.712 17.006H422.656C422.394 17.3887 422.068 17.6733 421.676 17.86C421.293 18.0467 420.845 18.14 420.332 18.14C419.361 18.14 418.6 17.7993 418.05 17.118C417.508 16.4367 417.238 15.4847 417.238 14.262C417.238 13.4593 417.359 12.7687 417.602 12.19C417.854 11.602 418.208 11.1493 418.666 10.832C419.123 10.5147 419.674 10.356 420.318 10.356ZM420.486 11.392C420.066 11.392 419.706 11.504 419.408 11.728C419.118 11.952 418.894 12.2787 418.736 12.708C418.586 13.1373 418.512 13.66 418.512 14.276C418.512 15.2 418.68 15.9093 419.016 16.404C419.361 16.8893 419.86 17.132 420.514 17.132C420.896 17.132 421.223 17.0853 421.494 16.992C421.764 16.8893 421.988 16.7353 422.166 16.53C422.343 16.3153 422.474 16.0447 422.558 15.718C422.642 15.3913 422.684 15.004 422.684 14.556V14.262C422.684 13.5807 422.604 13.03 422.446 12.61C422.296 12.19 422.058 11.882 421.732 11.686C421.405 11.49 420.99 11.392 420.486 11.392ZM426.439 18V8.004H427.699V16.88H432.067V18H426.439ZM437.847 12.722H441.305V17.622C440.764 17.7993 440.218 17.93 439.667 18.014C439.117 18.098 438.491 18.14 437.791 18.14C436.755 18.14 435.883 17.9347 435.173 17.524C434.464 17.104 433.923 16.5113 433.549 15.746C433.185 14.9713 433.003 14.0567 433.003 13.002C433.003 11.9567 433.209 11.0513 433.619 10.286C434.03 9.52067 434.618 8.928 435.383 8.508C436.158 8.07867 437.091 7.864 438.183 7.864C438.743 7.864 439.271 7.91533 439.765 8.018C440.269 8.12067 440.736 8.26533 441.165 8.452L440.689 9.544C440.335 9.38533 439.933 9.25 439.485 9.138C439.047 9.026 438.589 8.97 438.113 8.97C437.32 8.97 436.639 9.13333 436.069 9.46C435.5 9.78667 435.066 10.2533 434.767 10.86C434.469 11.4573 434.319 12.1713 434.319 13.002C434.319 13.7953 434.445 14.5 434.697 15.116C434.959 15.7227 435.365 16.1987 435.915 16.544C436.466 16.88 437.189 17.048 438.085 17.048C438.384 17.048 438.645 17.0387 438.869 17.02C439.103 16.992 439.313 16.9593 439.499 16.922C439.695 16.8847 439.877 16.8473 440.045 16.81V13.842H437.847V12.722ZM446.535 18.14C445.872 18.14 445.28 18.0047 444.757 17.734C444.244 17.4633 443.838 17.0433 443.539 16.474C443.25 15.9047 443.105 15.1767 443.105 14.29C443.105 13.366 443.259 12.6147 443.567 12.036C443.875 11.4573 444.29 11.0327 444.813 10.762C445.345 10.4913 445.947 10.356 446.619 10.356C447.002 10.356 447.37 10.398 447.725 10.482C448.08 10.5567 448.369 10.65 448.593 10.762L448.215 11.784C447.991 11.7 447.73 11.6207 447.431 11.546C447.132 11.4713 446.852 11.434 446.591 11.434C446.087 11.434 445.672 11.5413 445.345 11.756C445.018 11.9707 444.776 12.288 444.617 12.708C444.458 13.128 444.379 13.6507 444.379 14.276C444.379 14.8733 444.458 15.382 444.617 15.802C444.776 16.222 445.014 16.5393 445.331 16.754C445.648 16.9687 446.045 17.076 446.521 17.076C446.932 17.076 447.291 17.034 447.599 16.95C447.916 16.866 448.206 16.7633 448.467 16.642V17.734C448.215 17.8647 447.935 17.9627 447.627 18.028C447.328 18.1027 446.964 18.14 446.535 18.14ZM455.25 18.154C455.25 17.986 455.254 17.79 455.264 17.566C455.273 17.342 455.292 17.1507 455.32 16.992H455.236C455.021 17.3093 454.722 17.58 454.34 17.804C453.966 18.028 453.481 18.14 452.884 18.14C451.978 18.14 451.241 17.818 450.672 17.174C450.112 16.5207 449.832 15.55 449.832 14.262C449.832 13.4033 449.962 12.6847 450.224 12.106C450.485 11.5273 450.849 11.0933 451.316 10.804C451.782 10.5053 452.319 10.356 452.926 10.356C453.514 10.356 453.994 10.468 454.368 10.692C454.741 10.916 455.04 11.1913 455.264 11.518H455.32L455.502 10.496H456.482V21.36H455.25V18.154ZM453.122 17.118C453.635 17.118 454.046 17.0247 454.354 16.838C454.671 16.6513 454.9 16.3667 455.04 15.984C455.18 15.592 455.254 15.1067 455.264 14.528V14.276C455.264 13.324 455.105 12.6053 454.788 12.12C454.47 11.6253 453.906 11.378 453.094 11.378C452.422 11.378 451.922 11.644 451.596 12.176C451.269 12.6987 451.106 13.4033 451.106 14.29C451.106 15.1767 451.269 15.872 451.596 16.376C451.932 16.8707 452.44 17.118 453.122 17.118ZM461.791 8.004C462.621 8.004 463.303 8.11133 463.835 8.326C464.376 8.53133 464.777 8.844 465.039 9.264C465.3 9.684 465.431 10.2113 465.431 10.846C465.431 11.378 465.333 11.8213 465.137 12.176C464.941 12.5307 464.689 12.8153 464.381 13.03C464.082 13.2353 463.765 13.3987 463.429 13.52L466.173 18H464.703L462.281 13.87H460.293V18H459.033V8.004H461.791ZM461.721 9.096H460.293V12.806H461.791C462.332 12.806 462.775 12.736 463.121 12.596C463.466 12.4467 463.718 12.232 463.877 11.952C464.045 11.672 464.129 11.322 464.129 10.902C464.129 10.4633 464.04 10.1133 463.863 9.852C463.695 9.59067 463.433 9.39933 463.079 9.278C462.724 9.15667 462.271 9.096 461.721 9.096ZM470.906 18H469.646V9.11H466.524V8.004H474.014V9.11H470.906V18ZM481.443 18H474.835V16.978L477.453 14.332C477.957 13.828 478.382 13.38 478.727 12.988C479.072 12.596 479.334 12.2133 479.511 11.84C479.688 11.4573 479.777 11.042 479.777 10.594C479.777 10.0433 479.614 9.628 479.287 9.348C478.96 9.05867 478.536 8.914 478.013 8.914C477.528 8.914 477.098 8.998 476.725 9.166C476.361 9.334 475.988 9.56733 475.605 9.866L474.947 9.04C475.208 8.816 475.493 8.61533 475.801 8.438C476.118 8.26067 476.459 8.12067 476.823 8.018C477.196 7.91533 477.593 7.864 478.013 7.864C478.638 7.864 479.175 7.97133 479.623 8.186C480.071 8.40067 480.416 8.70867 480.659 9.11C480.911 9.502 481.037 9.97333 481.037 10.524C481.037 10.916 480.976 11.2893 480.855 11.644C480.734 11.9893 480.561 12.33 480.337 12.666C480.113 13.002 479.842 13.3427 479.525 13.688C479.208 14.0333 478.858 14.3927 478.475 14.766L476.389 16.824V16.88H481.443V18ZM495.013 8.004L492.353 18H491.079L489.133 11.448C489.077 11.252 489.021 11.0513 488.965 10.846C488.909 10.6407 488.857 10.4447 488.811 10.258C488.764 10.0713 488.722 9.91267 488.685 9.782C488.657 9.642 488.638 9.53933 488.629 9.474C488.619 9.53933 488.601 9.642 488.573 9.782C488.554 9.91267 488.521 10.0713 488.475 10.258C488.428 10.4447 488.377 10.6453 488.321 10.86C488.274 11.0653 488.218 11.2753 488.153 11.49L486.263 18H484.989L482.343 8.004H483.659L485.213 14.108C485.269 14.3227 485.32 14.5373 485.367 14.752C485.413 14.9573 485.455 15.1627 485.493 15.368C485.539 15.564 485.577 15.7553 485.605 15.942C485.633 16.1287 485.661 16.3107 485.689 16.488C485.717 16.3013 485.745 16.11 485.773 15.914C485.81 15.718 485.852 15.5173 485.899 15.312C485.945 15.0973 485.997 14.8827 486.053 14.668C486.109 14.4533 486.165 14.2433 486.221 14.038L487.985 8.004H489.287L491.121 14.08C491.186 14.2947 491.247 14.514 491.303 14.738C491.359 14.9527 491.41 15.1627 491.457 15.368C491.503 15.5733 491.541 15.774 491.569 15.97C491.606 16.1567 491.639 16.3293 491.667 16.488C491.695 16.2547 491.732 16.012 491.779 15.76C491.825 15.4987 491.881 15.228 491.947 14.948C492.012 14.668 492.082 14.3833 492.157 14.094L493.697 8.004H495.013Z" fill="white"/>
</svg>
