<svg width="517" height="25" viewBox="0 0 517 25" fill="none" xmlns="http://www.w3.org/2000/svg">
<rect width="517" height="25" fill="#555555"/>
<rect x="122" width="395" height="25" fill="#9945FF"/>
<path d="M23.3346 15.326C23.3346 15.9233 23.19 16.432 22.9006 16.852C22.6113 17.2627 22.196 17.58 21.6546 17.804C21.1226 18.028 20.4926 18.14 19.7646 18.14C19.3913 18.14 19.032 18.1213 18.6866 18.084C18.3506 18.0467 18.0426 17.9953 17.7626 17.93C17.4826 17.8553 17.2353 17.7667 17.0206 17.664V16.46C17.3566 16.6093 17.772 16.7447 18.2666 16.866C18.7706 16.9873 19.2886 17.048 19.8206 17.048C20.3153 17.048 20.7306 16.9827 21.0666 16.852C21.4026 16.7213 21.6546 16.5347 21.8226 16.292C21.9906 16.0493 22.0746 15.7647 22.0746 15.438C22.0746 15.1113 22.0046 14.836 21.8646 14.612C21.7246 14.388 21.482 14.1827 21.1366 13.996C20.8006 13.8 20.3293 13.5947 19.7226 13.38C19.2933 13.2213 18.9153 13.0533 18.5886 12.876C18.2713 12.6893 18.0053 12.4793 17.7906 12.246C17.576 12.0127 17.4126 11.7467 17.3006 11.448C17.198 11.1493 17.1466 10.804 17.1466 10.412C17.1466 9.88 17.282 9.42733 17.5526 9.054C17.8233 8.67133 18.1966 8.37733 18.6726 8.172C19.158 7.96667 19.7133 7.864 20.3386 7.864C20.8893 7.864 21.3933 7.91533 21.8506 8.018C22.308 8.12067 22.7233 8.256 23.0966 8.424L22.7046 9.502C22.3593 9.35267 21.9813 9.22667 21.5706 9.124C21.1693 9.02133 20.7493 8.97 20.3106 8.97C19.8906 8.97 19.5406 9.03067 19.2606 9.152C18.9806 9.27333 18.7706 9.446 18.6306 9.67C18.4906 9.88467 18.4206 10.1367 18.4206 10.426C18.4206 10.762 18.4906 11.042 18.6306 11.266C18.7706 11.49 18.9993 11.6907 19.3166 11.868C19.634 12.0453 20.0633 12.2367 20.6046 12.442C21.1926 12.6567 21.6873 12.89 22.0886 13.142C22.4993 13.3847 22.8073 13.6787 23.0126 14.024C23.2273 14.3693 23.3346 14.8033 23.3346 15.326ZM31.7042 14.234C31.7042 14.8593 31.6202 15.4147 31.4522 15.9C31.2936 16.376 31.0602 16.782 30.7522 17.118C30.4536 17.454 30.0849 17.7107 29.6462 17.888C29.2169 18.056 28.7362 18.14 28.2042 18.14C27.7096 18.14 27.2522 18.056 26.8322 17.888C26.4122 17.7107 26.0482 17.454 25.7402 17.118C25.4322 16.782 25.1896 16.376 25.0122 15.9C24.8442 15.4147 24.7602 14.8593 24.7602 14.234C24.7602 13.4033 24.9002 12.7033 25.1802 12.134C25.4602 11.5553 25.8616 11.1167 26.3842 10.818C26.9069 10.51 27.5276 10.356 28.2462 10.356C28.9276 10.356 29.5249 10.51 30.0382 10.818C30.5609 11.1167 30.9669 11.5553 31.2562 12.134C31.5549 12.7033 31.7042 13.4033 31.7042 14.234ZM26.0342 14.234C26.0342 14.822 26.1089 15.3353 26.2582 15.774C26.4169 16.2033 26.6596 16.5347 26.9862 16.768C27.3129 17.0013 27.7282 17.118 28.2322 17.118C28.7362 17.118 29.1516 17.0013 29.4782 16.768C29.8049 16.5347 30.0429 16.2033 30.1922 15.774C30.3509 15.3353 30.4302 14.822 30.4302 14.234C30.4302 13.6367 30.3509 13.128 30.1922 12.708C30.0336 12.288 29.7909 11.966 29.4642 11.742C29.1469 11.5087 28.7316 11.392 28.2182 11.392C27.4529 11.392 26.8976 11.644 26.5522 12.148C26.2069 12.652 26.0342 13.3473 26.0342 14.234ZM34.8888 18H33.6568V7.36H34.8888V18ZM40.1082 10.37C41.0228 10.37 41.6995 10.5707 42.1382 10.972C42.5768 11.3733 42.7962 12.0127 42.7962 12.89V18H41.9002L41.6622 16.936H41.6062C41.3915 17.2067 41.1675 17.4353 40.9342 17.622C40.7102 17.7993 40.4488 17.93 40.1502 18.014C39.8608 18.098 39.5062 18.14 39.0862 18.14C38.6382 18.14 38.2322 18.0607 37.8682 17.902C37.5135 17.7433 37.2335 17.5007 37.0282 17.174C36.8228 16.838 36.7202 16.418 36.7202 15.914C36.7202 15.1673 37.0142 14.5933 37.6022 14.192C38.1902 13.7813 39.0955 13.5573 40.3182 13.52L41.5922 13.478V13.03C41.5922 12.4047 41.4568 11.9707 41.1862 11.728C40.9155 11.4853 40.5328 11.364 40.0382 11.364C39.6462 11.364 39.2728 11.4247 38.9182 11.546C38.5635 11.658 38.2322 11.7887 37.9242 11.938L37.5462 11.014C37.8728 10.8367 38.2602 10.6873 38.7082 10.566C39.1562 10.4353 39.6228 10.37 40.1082 10.37ZM40.4722 14.374C39.5388 14.4113 38.8902 14.5607 38.5262 14.822C38.1715 15.0833 37.9942 15.452 37.9942 15.928C37.9942 16.348 38.1202 16.656 38.3722 16.852C38.6335 17.048 38.9648 17.146 39.3662 17.146C40.0008 17.146 40.5282 16.9733 40.9482 16.628C41.3682 16.2733 41.5782 15.732 41.5782 15.004V14.332L40.4722 14.374ZM48.7258 10.356C49.6218 10.356 50.2985 10.5753 50.7558 11.014C51.2132 11.4433 51.4418 12.1433 51.4418 13.114V18H50.2238V13.198C50.2238 12.5913 50.0885 12.1387 49.8178 11.84C49.5472 11.5413 49.1225 11.392 48.5438 11.392C47.7132 11.392 47.1392 11.6253 46.8218 12.092C46.5045 12.5587 46.3458 13.2307 46.3458 14.108V18H45.1138V10.496H46.1078L46.2898 11.518H46.3598C46.5278 11.2567 46.7332 11.042 46.9758 10.874C47.2278 10.6967 47.5032 10.566 47.8018 10.482C48.1005 10.398 48.4085 10.356 48.7258 10.356ZM56.6101 10.37C57.5248 10.37 58.2015 10.5707 58.6401 10.972C59.0788 11.3733 59.2981 12.0127 59.2981 12.89V18H58.4021L58.1641 16.936H58.1081C57.8935 17.2067 57.6695 17.4353 57.4361 17.622C57.2121 17.7993 56.9508 17.93 56.6521 18.014C56.3628 18.098 56.0081 18.14 55.5881 18.14C55.1401 18.14 54.7341 18.0607 54.3701 17.902C54.0155 17.7433 53.7355 17.5007 53.5301 17.174C53.3248 16.838 53.2221 16.418 53.2221 15.914C53.2221 15.1673 53.5161 14.5933 54.1041 14.192C54.6921 13.7813 55.5975 13.5573 56.8201 13.52L58.0941 13.478V13.03C58.0941 12.4047 57.9588 11.9707 57.6881 11.728C57.4175 11.4853 57.0348 11.364 56.5401 11.364C56.1481 11.364 55.7748 11.4247 55.4201 11.546C55.0655 11.658 54.7341 11.7887 54.4261 11.938L54.0481 11.014C54.3748 10.8367 54.7621 10.6873 55.2101 10.566C55.6581 10.4353 56.1248 10.37 56.6101 10.37ZM56.9741 14.374C56.0408 14.4113 55.3921 14.5607 55.0281 14.822C54.6735 15.0833 54.4961 15.452 54.4961 15.928C54.4961 16.348 54.6221 16.656 54.8741 16.852C55.1355 17.048 55.4668 17.146 55.8681 17.146C56.5028 17.146 57.0301 16.9733 57.4501 16.628C57.8701 16.2733 58.0801 15.732 58.0801 15.004V14.332L56.9741 14.374ZM64.6225 14.164C64.6225 13.3987 64.6925 12.652 64.8325 11.924C64.9818 11.196 65.2105 10.5007 65.5185 9.838C65.8265 9.17533 66.2138 8.564 66.6805 8.004H67.8425C67.4132 8.58267 67.0492 9.208 66.7505 9.88C66.4612 10.552 66.2418 11.2473 66.0925 11.966C65.9432 12.6847 65.8685 13.4127 65.8685 14.15C65.8685 14.8687 65.9432 15.5827 66.0925 16.292C66.2418 17.0013 66.4612 17.6827 66.7505 18.336C67.0398 18.9987 67.3992 19.624 67.8285 20.212H66.6805C66.2138 19.6613 65.8265 19.0593 65.5185 18.406C65.2105 17.762 64.9818 17.0807 64.8325 16.362C64.6925 15.6433 64.6225 14.9107 64.6225 14.164ZM78.9245 15.326C78.9245 15.9233 78.7798 16.432 78.4905 16.852C78.2012 17.2627 77.7858 17.58 77.2445 17.804C76.7125 18.028 76.0825 18.14 75.3545 18.14C74.9812 18.14 74.6218 18.1213 74.2765 18.084C73.9405 18.0467 73.6325 17.9953 73.3525 17.93C73.0725 17.8553 72.8252 17.7667 72.6105 17.664V16.46C72.9465 16.6093 73.3618 16.7447 73.8565 16.866C74.3605 16.9873 74.8785 17.048 75.4105 17.048C75.9052 17.048 76.3205 16.9827 76.6565 16.852C76.9925 16.7213 77.2445 16.5347 77.4125 16.292C77.5805 16.0493 77.6645 15.7647 77.6645 15.438C77.6645 15.1113 77.5945 14.836 77.4545 14.612C77.3145 14.388 77.0718 14.1827 76.7265 13.996C76.3905 13.8 75.9192 13.5947 75.3125 13.38C74.8832 13.2213 74.5052 13.0533 74.1785 12.876C73.8612 12.6893 73.5952 12.4793 73.3805 12.246C73.1658 12.0127 73.0025 11.7467 72.8905 11.448C72.7878 11.1493 72.7365 10.804 72.7365 10.412C72.7365 9.88 72.8718 9.42733 73.1425 9.054C73.4132 8.67133 73.7865 8.37733 74.2625 8.172C74.7478 7.96667 75.3032 7.864 75.9285 7.864C76.4792 7.864 76.9832 7.91533 77.4405 8.018C77.8978 8.12067 78.3132 8.256 78.6865 8.424L78.2945 9.502C77.9492 9.35267 77.5712 9.22667 77.1605 9.124C76.7592 9.02133 76.3392 8.97 75.9005 8.97C75.4805 8.97 75.1305 9.03067 74.8505 9.152C74.5705 9.27333 74.3605 9.446 74.2205 9.67C74.0805 9.88467 74.0105 10.1367 74.0105 10.426C74.0105 10.762 74.0805 11.042 74.2205 11.266C74.3605 11.49 74.5892 11.6907 74.9065 11.868C75.2238 12.0453 75.6532 12.2367 76.1945 12.442C76.7825 12.6567 77.2772 12.89 77.6785 13.142C78.0892 13.3847 78.3972 13.6787 78.6025 14.024C78.8172 14.3693 78.9245 14.8033 78.9245 15.326ZM89.6601 12.988C89.6601 13.7627 89.5621 14.4673 89.3661 15.102C89.1701 15.7273 88.8761 16.2687 88.4841 16.726C88.1014 17.1833 87.6207 17.5333 87.0421 17.776C86.4727 18.0187 85.8101 18.14 85.0541 18.14C84.2701 18.14 83.5887 18.0187 83.0101 17.776C82.4314 17.524 81.9507 17.174 81.5681 16.726C81.1854 16.2687 80.9007 15.7227 80.7141 15.088C80.5274 14.4533 80.4341 13.7487 80.4341 12.974C80.4341 11.9473 80.6021 11.0513 80.9381 10.286C81.2741 9.52067 81.7827 8.92333 82.4641 8.494C83.1547 8.06467 84.0227 7.85 85.0681 7.85C86.0667 7.85 86.9067 8.06467 87.5881 8.494C88.2694 8.914 88.7827 9.51133 89.1281 10.286C89.4827 11.0513 89.6601 11.952 89.6601 12.988ZM81.7641 12.988C81.7641 13.828 81.8807 14.5513 82.1141 15.158C82.3474 15.7647 82.7067 16.2313 83.1921 16.558C83.6867 16.8847 84.3074 17.048 85.0541 17.048C85.8101 17.048 86.4261 16.8847 86.9021 16.558C87.3874 16.2313 87.7467 15.7647 87.9801 15.158C88.2134 14.5513 88.3301 13.828 88.3301 12.988C88.3301 11.728 88.0687 10.7433 87.5461 10.034C87.0234 9.31533 86.1974 8.956 85.0681 8.956C84.3121 8.956 83.6867 9.11933 83.1921 9.446C82.7067 9.76333 82.3474 10.2253 82.1141 10.832C81.8807 11.4293 81.7641 12.148 81.7641 12.988ZM91.8756 18V8.004H93.1356V16.88H97.5036V18H91.8756ZM105.136 14.164C105.136 14.9107 105.061 15.6433 104.912 16.362C104.772 17.0807 104.548 17.762 104.24 18.406C103.941 19.0593 103.554 19.6613 103.078 20.212H101.93C102.359 19.624 102.719 18.9987 103.008 18.336C103.297 17.6827 103.517 17.0013 103.666 16.292C103.815 15.5827 103.89 14.8687 103.89 14.15C103.89 13.4127 103.815 12.6847 103.666 11.966C103.517 11.2473 103.297 10.552 103.008 9.88C102.719 9.208 102.355 8.58267 101.916 8.004H103.078C103.554 8.564 103.941 9.17533 104.24 9.838C104.548 10.5007 104.772 11.196 104.912 11.924C105.061 12.652 105.136 13.3987 105.136 14.164Z" fill="white"/>
<path d="M140.66 11.868C141.341 11.868 141.934 11.9847 142.438 12.218C142.942 12.4513 143.329 12.7873 143.6 13.226C143.88 13.6553 144.02 14.1827 144.02 14.808C144.02 15.4987 143.87 16.096 143.572 16.6C143.273 17.0947 142.844 17.4773 142.284 17.748C141.733 18.0093 141.066 18.14 140.282 18.14C139.768 18.14 139.283 18.0933 138.826 18C138.378 17.9067 138 17.7713 137.692 17.594V16.432C138.028 16.6373 138.434 16.8007 138.91 16.922C139.395 17.034 139.857 17.09 140.296 17.09C140.79 17.09 141.22 17.0153 141.584 16.866C141.957 16.7073 142.246 16.4693 142.452 16.152C142.657 15.8253 142.76 15.4193 142.76 14.934C142.76 14.2807 142.559 13.7813 142.158 13.436C141.756 13.0813 141.122 12.904 140.254 12.904C139.992 12.904 139.694 12.9273 139.358 12.974C139.022 13.0207 138.751 13.0673 138.546 13.114L137.93 12.722L138.308 8.004H143.32V9.124H139.358L139.12 12.022C139.278 11.994 139.493 11.9613 139.764 11.924C140.034 11.8867 140.333 11.868 140.66 11.868ZM153.221 8.004L149.651 18H148.391L144.821 8.004H146.137L148.391 14.416C148.494 14.6867 148.583 14.948 148.657 15.2C148.732 15.452 148.797 15.6947 148.853 15.928C148.919 16.152 148.975 16.376 149.021 16.6C149.068 16.376 149.119 16.1473 149.175 15.914C149.241 15.6807 149.311 15.438 149.385 15.186C149.469 14.934 149.558 14.668 149.651 14.388L151.891 8.004H153.221ZM157.332 8.004C158.162 8.004 158.844 8.11133 159.376 8.326C159.917 8.53133 160.318 8.844 160.58 9.264C160.841 9.684 160.972 10.2113 160.972 10.846C160.972 11.378 160.874 11.8213 160.678 12.176C160.482 12.5307 160.23 12.8153 159.922 13.03C159.623 13.2353 159.306 13.3987 158.97 13.52L161.714 18H160.244L157.822 13.87H155.834V18H154.574V8.004H157.332ZM157.262 9.096H155.834V12.806H157.332C157.873 12.806 158.316 12.736 158.662 12.596C159.007 12.4467 159.259 12.232 159.418 11.952C159.586 11.672 159.67 11.322 159.67 10.902C159.67 10.4633 159.581 10.1133 159.404 9.852C159.236 9.59067 158.974 9.39933 158.62 9.278C158.265 9.15667 157.812 9.096 157.262 9.096ZM169.653 15.732H168.197V18H167.007V15.732H162.219V14.682L166.923 7.948H168.197V14.626H169.653V15.732ZM167.007 11.476C167.007 11.2333 167.007 11.014 167.007 10.818C167.016 10.6127 167.025 10.4213 167.035 10.244C167.044 10.0667 167.049 9.89867 167.049 9.74C167.058 9.572 167.067 9.41333 167.077 9.264H167.021C166.946 9.44133 166.853 9.63267 166.741 9.838C166.629 10.0433 166.521 10.216 166.419 10.356L163.423 14.626H167.007V11.476ZM173.899 12.918L176.503 8.004H177.861L174.529 14.122V18H173.269V14.178L169.937 8.004H171.309L173.899 12.918ZM184.81 18H179.224V8.004H184.81V9.11H180.484V12.232H184.558V13.324H180.484V16.894H184.81V18ZM188.264 18H187.004V8.004H192.59V9.11H188.264V12.652H192.324V13.758H188.264V18ZM201.907 18H200.647V13.338H195.523V18H194.263V8.004H195.523V12.232H200.647V8.004H201.907V18ZM207.37 10.356C208.014 10.356 208.565 10.496 209.022 10.776C209.489 11.056 209.844 11.4527 210.086 11.966C210.338 12.47 210.464 13.0627 210.464 13.744V14.486H205.326C205.345 15.3353 205.56 15.984 205.97 16.432C206.39 16.8707 206.974 17.09 207.72 17.09C208.196 17.09 208.616 17.048 208.98 16.964C209.354 16.8707 209.736 16.74 210.128 16.572V17.65C209.746 17.818 209.368 17.9393 208.994 18.014C208.621 18.098 208.178 18.14 207.664 18.14C206.955 18.14 206.325 17.9953 205.774 17.706C205.233 17.4167 204.808 16.9873 204.5 16.418C204.202 15.8393 204.052 15.1347 204.052 14.304C204.052 13.4827 204.188 12.778 204.458 12.19C204.738 11.602 205.126 11.1493 205.62 10.832C206.124 10.5147 206.708 10.356 207.37 10.356ZM207.356 11.364C206.768 11.364 206.302 11.5553 205.956 11.938C205.62 12.3113 205.42 12.834 205.354 13.506H209.176C209.176 13.0767 209.111 12.7033 208.98 12.386C208.85 12.0687 208.649 11.8213 208.378 11.644C208.117 11.4573 207.776 11.364 207.356 11.364ZM216.827 8.97C216.295 8.97 215.814 9.06333 215.385 9.25C214.955 9.42733 214.591 9.69333 214.293 10.048C213.994 10.3933 213.765 10.818 213.607 11.322C213.448 11.8167 213.369 12.3767 213.369 13.002C213.369 13.8233 213.495 14.5373 213.747 15.144C214.008 15.7507 214.391 16.2173 214.895 16.544C215.408 16.8707 216.047 17.034 216.813 17.034C217.251 17.034 217.667 16.9967 218.059 16.922C218.451 16.8473 218.833 16.754 219.207 16.642V17.734C218.833 17.874 218.446 17.9767 218.045 18.042C217.653 18.1073 217.181 18.14 216.631 18.14C215.613 18.14 214.764 17.93 214.083 17.51C213.401 17.09 212.888 16.4927 212.543 15.718C212.207 14.9433 212.039 14.0333 212.039 12.988C212.039 12.232 212.141 11.5413 212.347 10.916C212.561 10.2907 212.869 9.74933 213.271 9.292C213.681 8.83467 214.185 8.48467 214.783 8.242C215.38 7.99 216.066 7.864 216.841 7.864C217.354 7.864 217.849 7.91533 218.325 8.018C218.801 8.12067 219.225 8.26533 219.599 8.452L219.095 9.516C218.787 9.376 218.441 9.25 218.059 9.138C217.685 9.026 217.275 8.97 216.827 8.97ZM222.872 18L220.03 10.496H221.346L222.942 14.92C223.017 15.1253 223.096 15.354 223.18 15.606C223.264 15.858 223.339 16.1007 223.404 16.334C223.47 16.558 223.516 16.7493 223.544 16.908H223.6C223.638 16.7493 223.689 16.5533 223.754 16.32C223.829 16.0867 223.908 15.844 223.992 15.592C224.086 15.34 224.165 15.116 224.23 14.92L225.826 10.496H227.142L224.286 18H222.872ZM231.83 10.356C231.97 10.356 232.119 10.3653 232.278 10.384C232.446 10.3933 232.59 10.412 232.712 10.44L232.558 11.574C232.436 11.546 232.301 11.5227 232.152 11.504C232.012 11.4853 231.876 11.476 231.746 11.476C231.456 11.476 231.181 11.5367 230.92 11.658C230.658 11.7793 230.425 11.952 230.22 12.176C230.014 12.3907 229.851 12.652 229.73 12.96C229.618 13.268 229.562 13.6133 229.562 13.996V18H228.33V10.496H229.338L229.478 11.868H229.534C229.692 11.588 229.884 11.336 230.108 11.112C230.332 10.8787 230.588 10.6967 230.878 10.566C231.167 10.426 231.484 10.356 231.83 10.356ZM236.619 17.132C236.806 17.132 236.997 17.118 237.193 17.09C237.389 17.0527 237.548 17.0153 237.669 16.978V17.916C237.538 17.9813 237.352 18.0327 237.109 18.07C236.866 18.1167 236.633 18.14 236.409 18.14C236.017 18.14 235.653 18.0747 235.317 17.944C234.99 17.804 234.724 17.566 234.519 17.23C234.314 16.894 234.211 16.4227 234.211 15.816V11.448H233.147V10.86L234.225 10.37L234.715 8.774H235.443V10.496H237.613V11.448H235.443V15.788C235.443 16.2453 235.55 16.586 235.765 16.81C235.989 17.0247 236.274 17.132 236.619 17.132ZM238.751 13.73C238.751 13.1513 238.789 12.582 238.863 12.022C238.947 11.462 239.087 10.9347 239.283 10.44C239.479 9.936 239.75 9.49267 240.095 9.11C240.441 8.718 240.875 8.41467 241.397 8.2C241.929 7.976 242.573 7.864 243.329 7.864C243.525 7.864 243.74 7.87333 243.973 7.892C244.216 7.91067 244.412 7.94333 244.561 7.99V9.04C244.393 8.984 244.202 8.942 243.987 8.914C243.782 8.886 243.572 8.872 243.357 8.872C242.713 8.872 242.177 8.97933 241.747 9.194C241.318 9.40867 240.977 9.70267 240.725 10.076C240.483 10.4493 240.305 10.8787 240.193 11.364C240.081 11.8493 240.011 12.3673 239.983 12.918H240.067C240.207 12.694 240.385 12.4933 240.599 12.316C240.814 12.1387 241.071 11.9987 241.369 11.896C241.677 11.7933 242.032 11.742 242.433 11.742C243.012 11.742 243.516 11.8633 243.945 12.106C244.384 12.3393 244.725 12.6847 244.967 13.142C245.21 13.59 245.331 14.136 245.331 14.78C245.331 15.4707 245.201 16.068 244.939 16.572C244.678 17.076 244.309 17.4633 243.833 17.734C243.367 18.0047 242.807 18.14 242.153 18.14C241.677 18.14 241.234 18.0513 240.823 17.874C240.413 17.6967 240.049 17.426 239.731 17.062C239.423 16.698 239.181 16.2407 239.003 15.69C238.835 15.13 238.751 14.4767 238.751 13.73ZM242.139 17.104C242.727 17.104 243.203 16.9173 243.567 16.544C243.931 16.1613 244.113 15.5733 244.113 14.78C244.113 14.1453 243.95 13.6413 243.623 13.268C243.306 12.8947 242.825 12.708 242.181 12.708C241.743 12.708 241.36 12.8013 241.033 12.988C240.707 13.1653 240.45 13.394 240.263 13.674C240.086 13.954 239.997 14.2433 239.997 14.542C239.997 14.85 240.039 15.1533 240.123 15.452C240.217 15.7507 240.352 16.026 240.529 16.278C240.716 16.53 240.94 16.7307 241.201 16.88C241.472 17.0293 241.785 17.104 242.139 17.104ZM254.953 14.472C254.953 15.1627 254.813 15.788 254.533 16.348C254.253 16.8987 253.824 17.3373 253.245 17.664C252.676 17.9813 251.948 18.14 251.061 18.14C249.82 18.14 248.872 17.804 248.219 17.132C247.575 16.4507 247.253 15.5547 247.253 14.444V8.004H248.513V14.486C248.513 15.298 248.728 15.928 249.157 16.376C249.596 16.824 250.254 17.048 251.131 17.048C251.738 17.048 252.228 16.9407 252.601 16.726C252.984 16.502 253.264 16.1987 253.441 15.816C253.618 15.424 253.707 14.976 253.707 14.472V8.004H254.953V14.472ZM256.247 10.496H257.563L259.187 14.766C259.281 15.018 259.365 15.2607 259.439 15.494C259.523 15.7273 259.598 15.956 259.663 16.18C259.729 16.3947 259.78 16.6047 259.817 16.81H259.873C259.929 16.5767 260.018 16.2733 260.139 15.9C260.261 15.5173 260.387 15.1347 260.517 14.752L262.043 10.496H263.373L260.139 19.036C259.962 19.5027 259.752 19.9087 259.509 20.254C259.276 20.6087 258.987 20.8793 258.641 21.066C258.305 21.262 257.895 21.36 257.409 21.36C257.185 21.36 256.989 21.346 256.821 21.318C256.653 21.2993 256.509 21.276 256.387 21.248V20.268C256.49 20.2867 256.611 20.3053 256.751 20.324C256.901 20.3427 257.055 20.352 257.213 20.352C257.503 20.352 257.75 20.296 257.955 20.184C258.17 20.0813 258.352 19.9273 258.501 19.722C258.651 19.526 258.777 19.2927 258.879 19.022L259.271 18.028L256.247 10.496ZM267.22 18.14C266.287 18.14 265.54 17.818 264.98 17.174C264.42 16.5207 264.14 15.55 264.14 14.262C264.14 12.974 264.42 12.0033 264.98 11.35C265.549 10.6873 266.301 10.356 267.234 10.356C267.626 10.356 267.967 10.4073 268.256 10.51C268.545 10.6033 268.797 10.734 269.012 10.902C269.227 11.07 269.409 11.2567 269.558 11.462H269.642C269.633 11.3407 269.614 11.1633 269.586 10.93C269.567 10.6873 269.558 10.496 269.558 10.356V7.36H270.79V18H269.796L269.614 16.992H269.558C269.409 17.2067 269.227 17.4027 269.012 17.58C268.797 17.748 268.541 17.8833 268.242 17.986C267.953 18.0887 267.612 18.14 267.22 18.14ZM267.416 17.118C268.209 17.118 268.765 16.9033 269.082 16.474C269.409 16.0353 269.572 15.3773 269.572 14.5V14.276C269.572 13.3427 269.418 12.6287 269.11 12.134C268.802 11.63 268.233 11.378 267.402 11.378C266.739 11.378 266.24 11.644 265.904 12.176C265.577 12.6987 265.414 13.4033 265.414 14.29C265.414 15.186 265.577 15.8813 265.904 16.376C266.24 16.8707 266.744 17.118 267.416 17.118ZM280.985 18H279.725V13.338H274.601V18H273.341V8.004H274.601V12.232H279.725V8.004H280.985V18ZM291.726 12.904C291.726 14.024 291.516 14.962 291.096 15.718C290.686 16.474 290.093 17.0433 289.318 17.426C288.544 17.8087 287.606 18 286.504 18H283.718V8.004H286.798C287.806 8.004 288.679 8.19067 289.416 8.564C290.154 8.93733 290.723 9.488 291.124 10.216C291.526 10.9347 291.726 11.8307 291.726 12.904ZM290.396 12.946C290.396 12.0593 290.247 11.3313 289.948 10.762C289.659 10.1927 289.23 9.77267 288.66 9.502C288.1 9.222 287.419 9.082 286.616 9.082H284.978V16.922H286.336C287.69 16.922 288.702 16.5907 289.374 15.928C290.056 15.256 290.396 14.262 290.396 12.946ZM301.547 14.472C301.547 15.1627 301.407 15.788 301.127 16.348C300.847 16.8987 300.418 17.3373 299.839 17.664C299.27 17.9813 298.542 18.14 297.655 18.14C296.414 18.14 295.466 17.804 294.813 17.132C294.169 16.4507 293.847 15.5547 293.847 14.444V8.004H295.107V14.486C295.107 15.298 295.322 15.928 295.751 16.376C296.19 16.824 296.848 17.048 297.725 17.048C298.332 17.048 298.822 16.9407 299.195 16.726C299.578 16.502 299.858 16.1987 300.035 15.816C300.212 15.424 300.301 14.976 300.301 14.472V8.004H301.547V14.472ZM307.517 10.356C307.657 10.356 307.806 10.3653 307.965 10.384C308.133 10.3933 308.278 10.412 308.399 10.44L308.245 11.574C308.124 11.546 307.988 11.5227 307.839 11.504C307.699 11.4853 307.564 11.476 307.433 11.476C307.144 11.476 306.868 11.5367 306.607 11.658C306.346 11.7793 306.112 11.952 305.907 12.176C305.702 12.3907 305.538 12.652 305.417 12.96C305.305 13.268 305.249 13.6133 305.249 13.996V18H304.017V10.496H305.025L305.165 11.868H305.221C305.38 11.588 305.571 11.336 305.795 11.112C306.019 10.8787 306.276 10.6967 306.565 10.566C306.854 10.426 307.172 10.356 307.517 10.356ZM315.89 12.274C315.89 12.8433 315.848 13.4127 315.764 13.982C315.69 14.542 315.554 15.074 315.358 15.578C315.162 16.0727 314.892 16.516 314.546 16.908C314.201 17.2907 313.762 17.594 313.23 17.818C312.698 18.0327 312.054 18.14 311.298 18.14C311.112 18.14 310.892 18.126 310.64 18.098C310.398 18.0793 310.197 18.0467 310.038 18V16.95C310.206 17.006 310.402 17.0527 310.626 17.09C310.85 17.118 311.065 17.132 311.27 17.132C311.924 17.132 312.46 17.0247 312.88 16.81C313.31 16.5953 313.65 16.306 313.902 15.942C314.154 15.5687 314.336 15.1393 314.448 14.654C314.56 14.1593 314.626 13.6413 314.644 13.1H314.56C314.42 13.3147 314.243 13.5107 314.028 13.688C313.814 13.8653 313.552 14.0053 313.244 14.108C312.946 14.2107 312.591 14.262 312.18 14.262C311.611 14.262 311.107 14.1453 310.668 13.912C310.239 13.6693 309.903 13.324 309.66 12.876C309.427 12.428 309.31 11.882 309.31 11.238C309.31 10.538 309.441 9.936 309.702 9.432C309.973 8.928 310.346 8.54067 310.822 8.27C311.298 7.99933 311.858 7.864 312.502 7.864C312.978 7.864 313.422 7.95733 313.832 8.144C314.243 8.32133 314.602 8.592 314.91 8.956C315.218 9.32 315.456 9.77733 315.624 10.328C315.802 10.8787 315.89 11.5273 315.89 12.274ZM312.502 8.9C311.924 8.9 311.448 9.09133 311.074 9.474C310.71 9.85667 310.528 10.44 310.528 11.224C310.528 11.868 310.682 12.3767 310.99 12.75C311.308 13.114 311.793 13.296 312.446 13.296C312.894 13.296 313.282 13.2073 313.608 13.03C313.935 12.8433 314.187 12.61 314.364 12.33C314.551 12.05 314.644 11.7607 314.644 11.462C314.644 11.1633 314.598 10.8647 314.504 10.566C314.42 10.258 314.29 9.978 314.112 9.726C313.935 9.474 313.711 9.27333 313.44 9.124C313.17 8.97467 312.857 8.9 312.502 8.9ZM320.654 10.37C321.569 10.37 322.245 10.5707 322.684 10.972C323.123 11.3733 323.342 12.0127 323.342 12.89V18H322.446L322.208 16.936H322.152C321.937 17.2067 321.713 17.4353 321.48 17.622C321.256 17.7993 320.995 17.93 320.696 18.014C320.407 18.098 320.052 18.14 319.632 18.14C319.184 18.14 318.778 18.0607 318.414 17.902C318.059 17.7433 317.779 17.5007 317.574 17.174C317.369 16.838 317.266 16.418 317.266 15.914C317.266 15.1673 317.56 14.5933 318.148 14.192C318.736 13.7813 319.641 13.5573 320.864 13.52L322.138 13.478V13.03C322.138 12.4047 322.003 11.9707 321.732 11.728C321.461 11.4853 321.079 11.364 320.584 11.364C320.192 11.364 319.819 11.4247 319.464 11.546C319.109 11.658 318.778 11.7887 318.47 11.938L318.092 11.014C318.419 10.8367 318.806 10.6873 319.254 10.566C319.702 10.4353 320.169 10.37 320.654 10.37ZM321.018 14.374C320.085 14.4113 319.436 14.5607 319.072 14.822C318.717 15.0833 318.54 15.452 318.54 15.928C318.54 16.348 318.666 16.656 318.918 16.852C319.179 17.048 319.511 17.146 319.912 17.146C320.547 17.146 321.074 16.9733 321.494 16.628C321.914 16.2733 322.124 15.732 322.124 15.004V14.332L321.018 14.374ZM332.87 8.004L329.3 18H328.04L324.47 8.004H325.786L328.04 14.416C328.142 14.6867 328.231 14.948 328.306 15.2C328.38 15.452 328.446 15.6947 328.502 15.928C328.567 16.152 328.623 16.376 328.67 16.6C328.716 16.376 328.768 16.1473 328.824 15.914C328.889 15.6807 328.959 15.438 329.034 15.186C329.118 14.934 329.206 14.668 329.3 14.388L331.54 8.004H332.87ZM338.779 18.154C338.779 17.986 338.783 17.79 338.793 17.566C338.802 17.342 338.821 17.1507 338.849 16.992H338.765C338.55 17.3093 338.251 17.58 337.869 17.804C337.495 18.028 337.01 18.14 336.413 18.14C335.507 18.14 334.77 17.818 334.201 17.174C333.641 16.5207 333.361 15.55 333.361 14.262C333.361 13.4033 333.491 12.6847 333.753 12.106C334.014 11.5273 334.378 11.0933 334.845 10.804C335.311 10.5053 335.848 10.356 336.455 10.356C337.043 10.356 337.523 10.468 337.897 10.692C338.27 10.916 338.569 11.1913 338.793 11.518H338.849L339.031 10.496H340.011V21.36H338.779V18.154ZM336.651 17.118C337.164 17.118 337.575 17.0247 337.883 16.838C338.2 16.6513 338.429 16.3667 338.569 15.984C338.709 15.592 338.783 15.1067 338.793 14.528V14.276C338.793 13.324 338.634 12.6053 338.317 12.12C337.999 11.6253 337.435 11.378 336.623 11.378C335.951 11.378 335.451 11.644 335.125 12.176C334.798 12.6987 334.635 13.4033 334.635 14.29C334.635 15.1767 334.798 15.872 335.125 16.376C335.461 16.8707 335.969 17.118 336.651 17.118ZM345.852 11.448H343.962V18H342.73V11.448H341.414V10.874L342.73 10.454V10.02C342.73 9.376 342.823 8.85333 343.01 8.452C343.206 8.05067 343.486 7.75667 343.85 7.57C344.214 7.38333 344.653 7.29 345.166 7.29C345.465 7.29 345.735 7.318 345.978 7.374C346.23 7.42067 346.445 7.47667 346.622 7.542L346.3 8.508C346.151 8.46133 345.978 8.41467 345.782 8.368C345.586 8.32133 345.385 8.298 345.18 8.298C344.769 8.298 344.461 8.438 344.256 8.718C344.06 8.98867 343.962 9.418 343.962 10.006V10.496H345.852V11.448ZM352.051 13.758C351.995 13.562 351.939 13.3707 351.883 13.184C351.827 12.988 351.775 12.806 351.729 12.638C351.691 12.4607 351.654 12.2973 351.617 12.148C351.579 11.9987 351.551 11.8727 351.533 11.77H351.477C351.458 11.8727 351.43 11.9987 351.393 12.148C351.365 12.2973 351.327 12.4607 351.281 12.638C351.243 12.8153 351.197 13.002 351.141 13.198C351.094 13.3847 351.038 13.576 350.973 13.772L349.629 17.986H348.229L346.171 10.482H347.445L348.481 14.486C348.555 14.7567 348.625 15.032 348.691 15.312C348.756 15.5827 348.812 15.844 348.859 16.096C348.915 16.3387 348.952 16.5487 348.971 16.726H349.027C349.055 16.614 349.087 16.474 349.125 16.306C349.162 16.138 349.199 15.9607 349.237 15.774C349.283 15.5873 349.33 15.4007 349.377 15.214C349.433 15.0273 349.484 14.8593 349.531 14.71L350.861 10.482H352.205L353.493 14.71C353.558 14.9247 353.623 15.1533 353.689 15.396C353.763 15.6387 353.829 15.8767 353.885 16.11C353.941 16.334 353.978 16.5347 353.997 16.712H354.053C354.071 16.5533 354.104 16.3573 354.151 16.124C354.207 15.8813 354.267 15.62 354.333 15.34C354.407 15.0507 354.482 14.766 354.557 14.486L355.607 10.482H356.867L354.781 17.986H353.339L352.051 13.758ZM364.75 15.732H363.294V18H362.104V15.732H357.316V14.682L362.02 7.948H363.294V14.626H364.75V15.732ZM362.104 11.476C362.104 11.2333 362.104 11.014 362.104 10.818C362.114 10.6127 362.123 10.4213 362.132 10.244C362.142 10.0667 362.146 9.89867 362.146 9.74C362.156 9.572 362.165 9.41333 362.174 9.264H362.118C362.044 9.44133 361.95 9.63267 361.838 9.838C361.726 10.0433 361.619 10.216 361.516 10.356L358.52 14.626H362.104V11.476ZM371.222 18.154C371.222 17.986 371.227 17.79 371.236 17.566C371.246 17.342 371.264 17.1507 371.292 16.992H371.208C370.994 17.3093 370.695 17.58 370.312 17.804C369.939 18.028 369.454 18.14 368.856 18.14C367.951 18.14 367.214 17.818 366.644 17.174C366.084 16.5207 365.804 15.55 365.804 14.262C365.804 13.4033 365.935 12.6847 366.196 12.106C366.458 11.5273 366.822 11.0933 367.288 10.804C367.755 10.5053 368.292 10.356 368.898 10.356C369.486 10.356 369.967 10.468 370.34 10.692C370.714 10.916 371.012 11.1913 371.236 11.518H371.292L371.474 10.496H372.454V21.36H371.222V18.154ZM369.094 17.118C369.608 17.118 370.018 17.0247 370.326 16.838C370.644 16.6513 370.872 16.3667 371.012 15.984C371.152 15.592 371.227 15.1067 371.236 14.528V14.276C371.236 13.324 371.078 12.6053 370.76 12.12C370.443 11.6253 369.878 11.378 369.066 11.378C368.394 11.378 367.895 11.644 367.568 12.176C367.242 12.6987 367.078 13.4033 367.078 14.29C367.078 15.1767 367.242 15.872 367.568 16.376C367.904 16.8707 368.413 17.118 369.094 17.118ZM377.847 18.14C377.185 18.14 376.592 18.0047 376.069 17.734C375.556 17.4633 375.15 17.0433 374.851 16.474C374.562 15.9047 374.417 15.1767 374.417 14.29C374.417 13.366 374.571 12.6147 374.879 12.036C375.187 11.4573 375.603 11.0327 376.125 10.762C376.657 10.4913 377.259 10.356 377.931 10.356C378.314 10.356 378.683 10.398 379.037 10.482C379.392 10.5567 379.681 10.65 379.905 10.762L379.527 11.784C379.303 11.7 379.042 11.6207 378.743 11.546C378.445 11.4713 378.165 11.434 377.903 11.434C377.399 11.434 376.984 11.5413 376.657 11.756C376.331 11.9707 376.088 12.288 375.929 12.708C375.771 13.128 375.691 13.6507 375.691 14.276C375.691 14.8733 375.771 15.382 375.929 15.802C376.088 16.222 376.326 16.5393 376.643 16.754C376.961 16.9687 377.357 17.076 377.833 17.076C378.244 17.076 378.603 17.034 378.911 16.95C379.229 16.866 379.518 16.7633 379.779 16.642V17.734C379.527 17.8647 379.247 17.9627 378.939 18.028C378.641 18.1027 378.277 18.14 377.847 18.14ZM384.224 11.868C384.905 11.868 385.498 11.9847 386.002 12.218C386.506 12.4513 386.893 12.7873 387.164 13.226C387.444 13.6553 387.584 14.1827 387.584 14.808C387.584 15.4987 387.435 16.096 387.136 16.6C386.837 17.0947 386.408 17.4773 385.848 17.748C385.297 18.0093 384.63 18.14 383.846 18.14C383.333 18.14 382.847 18.0933 382.39 18C381.942 17.9067 381.564 17.7713 381.256 17.594V16.432C381.592 16.6373 381.998 16.8007 382.474 16.922C382.959 17.034 383.421 17.09 383.86 17.09C384.355 17.09 384.784 17.0153 385.148 16.866C385.521 16.7073 385.811 16.4693 386.016 16.152C386.221 15.8253 386.324 15.4193 386.324 14.934C386.324 14.2807 386.123 13.7813 385.722 13.436C385.321 13.0813 384.686 12.904 383.818 12.904C383.557 12.904 383.258 12.9273 382.922 12.974C382.586 13.0207 382.315 13.0673 382.11 13.114L381.494 12.722L381.872 8.004H386.884V9.124H382.922L382.684 12.022C382.843 11.994 383.057 11.9613 383.328 11.924C383.599 11.8867 383.897 11.868 384.224 11.868ZM392.236 10.356C392.73 10.356 393.174 10.4493 393.566 10.636C393.967 10.8227 394.308 11.1073 394.588 11.49H394.658L394.826 10.496H395.806V18.126C395.806 18.8353 395.684 19.428 395.442 19.904C395.199 20.3893 394.83 20.7533 394.336 20.996C393.841 21.2387 393.211 21.36 392.446 21.36C391.904 21.36 391.405 21.318 390.948 21.234C390.5 21.1593 390.098 21.0427 389.744 20.884V19.75C389.986 19.8713 390.252 19.974 390.542 20.058C390.831 20.1513 391.144 20.2213 391.48 20.268C391.816 20.3147 392.161 20.338 392.516 20.338C393.16 20.338 393.664 20.1467 394.028 19.764C394.401 19.3907 394.588 18.8773 394.588 18.224V17.93C394.588 17.818 394.592 17.6593 394.602 17.454C394.611 17.2393 394.62 17.09 394.63 17.006H394.574C394.312 17.3887 393.986 17.6733 393.594 17.86C393.211 18.0467 392.763 18.14 392.25 18.14C391.279 18.14 390.518 17.7993 389.968 17.118C389.426 16.4367 389.156 15.4847 389.156 14.262C389.156 13.4593 389.277 12.7687 389.52 12.19C389.772 11.602 390.126 11.1493 390.584 10.832C391.041 10.5147 391.592 10.356 392.236 10.356ZM392.404 11.392C391.984 11.392 391.624 11.504 391.326 11.728C391.036 11.952 390.812 12.2787 390.654 12.708C390.504 13.1373 390.43 13.66 390.43 14.276C390.43 15.2 390.598 15.9093 390.934 16.404C391.279 16.8893 391.778 17.132 392.432 17.132C392.814 17.132 393.141 17.0853 393.412 16.992C393.682 16.8893 393.906 16.7353 394.084 16.53C394.261 16.3153 394.392 16.0447 394.476 15.718C394.56 15.3913 394.602 15.004 394.602 14.556V14.262C394.602 13.5807 394.522 13.03 394.364 12.61C394.214 12.19 393.976 11.882 393.65 11.686C393.323 11.49 392.908 11.392 392.404 11.392ZM409.837 8.004L407.177 18H405.903L403.957 11.448C403.901 11.252 403.845 11.0513 403.789 10.846C403.733 10.6407 403.682 10.4447 403.635 10.258C403.588 10.0713 403.546 9.91267 403.509 9.782C403.481 9.642 403.462 9.53933 403.453 9.474C403.444 9.53933 403.425 9.642 403.397 9.782C403.378 9.91267 403.346 10.0713 403.299 10.258C403.252 10.4447 403.201 10.6453 403.145 10.86C403.098 11.0653 403.042 11.2753 402.977 11.49L401.087 18H399.813L397.167 8.004H398.483L400.037 14.108C400.093 14.3227 400.144 14.5373 400.191 14.752C400.238 14.9573 400.28 15.1627 400.317 15.368C400.364 15.564 400.401 15.7553 400.429 15.942C400.457 16.1287 400.485 16.3107 400.513 16.488C400.541 16.3013 400.569 16.11 400.597 15.914C400.634 15.718 400.676 15.5173 400.723 15.312C400.77 15.0973 400.821 14.8827 400.877 14.668C400.933 14.4533 400.989 14.2433 401.045 14.038L402.809 8.004H404.111L405.945 14.08C406.01 14.2947 406.071 14.514 406.127 14.738C406.183 14.9527 406.234 15.1627 406.281 15.368C406.328 15.5733 406.365 15.774 406.393 15.97C406.43 16.1567 406.463 16.3293 406.491 16.488C406.519 16.2547 406.556 16.012 406.603 15.76C406.65 15.4987 406.706 15.228 406.771 14.948C406.836 14.668 406.906 14.3833 406.981 14.094L408.521 8.004H409.837ZM418.415 8.004L414.845 18H413.585L410.015 8.004H411.331L413.585 14.416C413.687 14.6867 413.776 14.948 413.851 15.2C413.925 15.452 413.991 15.6947 414.047 15.928C414.112 16.152 414.168 16.376 414.215 16.6C414.261 16.376 414.313 16.1473 414.369 15.914C414.434 15.6807 414.504 15.438 414.579 15.186C414.663 14.934 414.751 14.668 414.845 14.388L417.085 8.004H418.415ZM422.105 17.132C422.292 17.132 422.483 17.118 422.679 17.09C422.875 17.0527 423.034 17.0153 423.155 16.978V17.916C423.025 17.9813 422.838 18.0327 422.595 18.07C422.353 18.1167 422.119 18.14 421.895 18.14C421.503 18.14 421.139 18.0747 420.803 17.944C420.477 17.804 420.211 17.566 420.005 17.23C419.8 16.894 419.697 16.4227 419.697 15.816V11.448H418.633V10.86L419.711 10.37L420.201 8.774H420.929V10.496H423.099V11.448H420.929V15.788C420.929 16.2453 421.037 16.586 421.251 16.81C421.475 17.0247 421.76 17.132 422.105 17.132ZM427.318 10.356C427.812 10.356 428.256 10.4493 428.648 10.636C429.049 10.8227 429.39 11.1073 429.67 11.49H429.74L429.908 10.496H430.888V18.126C430.888 18.8353 430.766 19.428 430.524 19.904C430.281 20.3893 429.912 20.7533 429.418 20.996C428.923 21.2387 428.293 21.36 427.528 21.36C426.986 21.36 426.487 21.318 426.03 21.234C425.582 21.1593 425.18 21.0427 424.826 20.884V19.75C425.068 19.8713 425.334 19.974 425.624 20.058C425.913 20.1513 426.226 20.2213 426.562 20.268C426.898 20.3147 427.243 20.338 427.598 20.338C428.242 20.338 428.746 20.1467 429.11 19.764C429.483 19.3907 429.67 18.8773 429.67 18.224V17.93C429.67 17.818 429.674 17.6593 429.684 17.454C429.693 17.2393 429.702 17.09 429.712 17.006H429.656C429.394 17.3887 429.068 17.6733 428.676 17.86C428.293 18.0467 427.845 18.14 427.332 18.14C426.361 18.14 425.6 17.7993 425.05 17.118C424.508 16.4367 424.238 15.4847 424.238 14.262C424.238 13.4593 424.359 12.7687 424.602 12.19C424.854 11.602 425.208 11.1493 425.666 10.832C426.123 10.5147 426.674 10.356 427.318 10.356ZM427.486 11.392C427.066 11.392 426.706 11.504 426.408 11.728C426.118 11.952 425.894 12.2787 425.736 12.708C425.586 13.1373 425.512 13.66 425.512 14.276C425.512 15.2 425.68 15.9093 426.016 16.404C426.361 16.8893 426.86 17.132 427.514 17.132C427.896 17.132 428.223 17.0853 428.494 16.992C428.764 16.8893 428.988 16.7353 429.166 16.53C429.343 16.3153 429.474 16.0447 429.558 15.718C429.642 15.3913 429.684 15.004 429.684 14.556V14.262C429.684 13.5807 429.604 13.03 429.446 12.61C429.296 12.19 429.058 11.882 428.732 11.686C428.405 11.49 427.99 11.392 427.486 11.392ZM433.439 18V8.004H434.699V16.88H439.067V18H433.439ZM444.847 12.722H448.305V17.622C447.764 17.7993 447.218 17.93 446.667 18.014C446.117 18.098 445.491 18.14 444.791 18.14C443.755 18.14 442.883 17.9347 442.173 17.524C441.464 17.104 440.923 16.5113 440.549 15.746C440.185 14.9713 440.003 14.0567 440.003 13.002C440.003 11.9567 440.209 11.0513 440.619 10.286C441.03 9.52067 441.618 8.928 442.383 8.508C443.158 8.07867 444.091 7.864 445.183 7.864C445.743 7.864 446.271 7.91533 446.765 8.018C447.269 8.12067 447.736 8.26533 448.165 8.452L447.689 9.544C447.335 9.38533 446.933 9.25 446.485 9.138C446.047 9.026 445.589 8.97 445.113 8.97C444.32 8.97 443.639 9.13333 443.069 9.46C442.5 9.78667 442.066 10.2533 441.767 10.86C441.469 11.4573 441.319 12.1713 441.319 13.002C441.319 13.7953 441.445 14.5 441.697 15.116C441.959 15.7227 442.365 16.1987 442.915 16.544C443.466 16.88 444.189 17.048 445.085 17.048C445.384 17.048 445.645 17.0387 445.869 17.02C446.103 16.992 446.313 16.9593 446.499 16.922C446.695 16.8847 446.877 16.8473 447.045 16.81V13.842H444.847V12.722ZM453.535 18.14C452.872 18.14 452.28 18.0047 451.757 17.734C451.244 17.4633 450.838 17.0433 450.539 16.474C450.25 15.9047 450.105 15.1767 450.105 14.29C450.105 13.366 450.259 12.6147 450.567 12.036C450.875 11.4573 451.29 11.0327 451.813 10.762C452.345 10.4913 452.947 10.356 453.619 10.356C454.002 10.356 454.37 10.398 454.725 10.482C455.08 10.5567 455.369 10.65 455.593 10.762L455.215 11.784C454.991 11.7 454.73 11.6207 454.431 11.546C454.132 11.4713 453.852 11.434 453.591 11.434C453.087 11.434 452.672 11.5413 452.345 11.756C452.018 11.9707 451.776 12.288 451.617 12.708C451.458 13.128 451.379 13.6507 451.379 14.276C451.379 14.8733 451.458 15.382 451.617 15.802C451.776 16.222 452.014 16.5393 452.331 16.754C452.648 16.9687 453.045 17.076 453.521 17.076C453.932 17.076 454.291 17.034 454.599 16.95C454.916 16.866 455.206 16.7633 455.467 16.642V17.734C455.215 17.8647 454.935 17.9627 454.627 18.028C454.328 18.1027 453.964 18.14 453.535 18.14ZM462.25 18.154C462.25 17.986 462.254 17.79 462.264 17.566C462.273 17.342 462.292 17.1507 462.32 16.992H462.236C462.021 17.3093 461.722 17.58 461.34 17.804C460.966 18.028 460.481 18.14 459.884 18.14C458.978 18.14 458.241 17.818 457.672 17.174C457.112 16.5207 456.832 15.55 456.832 14.262C456.832 13.4033 456.962 12.6847 457.224 12.106C457.485 11.5273 457.849 11.0933 458.316 10.804C458.782 10.5053 459.319 10.356 459.926 10.356C460.514 10.356 460.994 10.468 461.368 10.692C461.741 10.916 462.04 11.1913 462.264 11.518H462.32L462.502 10.496H463.482V21.36H462.25V18.154ZM460.122 17.118C460.635 17.118 461.046 17.0247 461.354 16.838C461.671 16.6513 461.9 16.3667 462.04 15.984C462.18 15.592 462.254 15.1067 462.264 14.528V14.276C462.264 13.324 462.105 12.6053 461.788 12.12C461.47 11.6253 460.906 11.378 460.094 11.378C459.422 11.378 458.922 11.644 458.596 12.176C458.269 12.6987 458.106 13.4033 458.106 14.29C458.106 15.1767 458.269 15.872 458.596 16.376C458.932 16.8707 459.44 17.118 460.122 17.118ZM468.791 8.004C469.621 8.004 470.303 8.11133 470.835 8.326C471.376 8.53133 471.777 8.844 472.039 9.264C472.3 9.684 472.431 10.2113 472.431 10.846C472.431 11.378 472.333 11.8213 472.137 12.176C471.941 12.5307 471.689 12.8153 471.381 13.03C471.082 13.2353 470.765 13.3987 470.429 13.52L473.173 18H471.703L469.281 13.87H467.293V18H466.033V8.004H468.791ZM468.721 9.096H467.293V12.806H468.791C469.332 12.806 469.775 12.736 470.121 12.596C470.466 12.4467 470.718 12.232 470.877 11.952C471.045 11.672 471.129 11.322 471.129 10.902C471.129 10.4633 471.04 10.1133 470.863 9.852C470.695 9.59067 470.433 9.39933 470.079 9.278C469.724 9.15667 469.271 9.096 468.721 9.096ZM477.906 18H476.646V9.11H473.524V8.004H481.014V9.11H477.906V18ZM488.443 18H481.835V16.978L484.453 14.332C484.957 13.828 485.382 13.38 485.727 12.988C486.072 12.596 486.334 12.2133 486.511 11.84C486.688 11.4573 486.777 11.042 486.777 10.594C486.777 10.0433 486.614 9.628 486.287 9.348C485.96 9.05867 485.536 8.914 485.013 8.914C484.528 8.914 484.098 8.998 483.725 9.166C483.361 9.334 482.988 9.56733 482.605 9.866L481.947 9.04C482.208 8.816 482.493 8.61533 482.801 8.438C483.118 8.26067 483.459 8.12067 483.823 8.018C484.196 7.91533 484.593 7.864 485.013 7.864C485.638 7.864 486.175 7.97133 486.623 8.186C487.071 8.40067 487.416 8.70867 487.659 9.11C487.911 9.502 488.037 9.97333 488.037 10.524C488.037 10.916 487.976 11.2893 487.855 11.644C487.734 11.9893 487.561 12.33 487.337 12.666C487.113 13.002 486.842 13.3427 486.525 13.688C486.208 14.0333 485.858 14.3927 485.475 14.766L483.389 16.824V16.88H488.443V18ZM502.013 8.004L499.353 18H498.079L496.133 11.448C496.077 11.252 496.021 11.0513 495.965 10.846C495.909 10.6407 495.857 10.4447 495.811 10.258C495.764 10.0713 495.722 9.91267 495.685 9.782C495.657 9.642 495.638 9.53933 495.629 9.474C495.619 9.53933 495.601 9.642 495.573 9.782C495.554 9.91267 495.521 10.0713 495.475 10.258C495.428 10.4447 495.377 10.6453 495.321 10.86C495.274 11.0653 495.218 11.2753 495.153 11.49L493.263 18H491.989L489.343 8.004H490.659L492.213 14.108C492.269 14.3227 492.32 14.5373 492.367 14.752C492.413 14.9573 492.455 15.1627 492.493 15.368C492.539 15.564 492.577 15.7553 492.605 15.942C492.633 16.1287 492.661 16.3107 492.689 16.488C492.717 16.3013 492.745 16.11 492.773 15.914C492.81 15.718 492.852 15.5173 492.899 15.312C492.945 15.0973 492.997 14.8827 493.053 14.668C493.109 14.4533 493.165 14.2433 493.221 14.038L494.985 8.004H496.287L498.121 14.08C498.186 14.2947 498.247 14.514 498.303 14.738C498.359 14.9527 498.41 15.1627 498.457 15.368C498.503 15.5733 498.541 15.774 498.569 15.97C498.606 16.1567 498.639 16.3293 498.667 16.488C498.695 16.2547 498.732 16.012 498.779 15.76C498.825 15.4987 498.881 15.228 498.947 14.948C499.012 14.668 499.082 14.3833 499.157 14.094L500.697 8.004H502.013Z" fill="white"/>
</svg>
