<svg width="586" height="25" viewBox="0 0 586 25" fill="none" xmlns="http://www.w3.org/2000/svg">
<rect width="586" height="25" fill="#555555"/>
<rect x="218" width="368" height="25" fill="#F1B90A"/>
<path d="M25.6247 15.326C25.6247 15.9233 25.48 16.432 25.1907 16.852C24.9013 17.2627 24.486 17.58 23.9447 17.804C23.4127 18.028 22.7827 18.14 22.0547 18.14C21.6813 18.14 21.322 18.1213 20.9767 18.084C20.6407 18.0467 20.3327 17.9953 20.0527 17.93C19.7727 17.8553 19.5253 17.7667 19.3107 17.664V16.46C19.6467 16.6093 20.062 16.7447 20.5567 16.866C21.0607 16.9873 21.5787 17.048 22.1107 17.048C22.6053 17.048 23.0207 16.9827 23.3567 16.852C23.6927 16.7213 23.9447 16.5347 24.1127 16.292C24.2807 16.0493 24.3647 15.7647 24.3647 15.438C24.3647 15.1113 24.2947 14.836 24.1547 14.612C24.0147 14.388 23.772 14.1827 23.4267 13.996C23.0907 13.8 22.6193 13.5947 22.0127 13.38C21.5833 13.2213 21.2053 13.0533 20.8787 12.876C20.5613 12.6893 20.2953 12.4793 20.0807 12.246C19.866 12.0127 19.7027 11.7467 19.5907 11.448C19.488 11.1493 19.4367 10.804 19.4367 10.412C19.4367 9.88 19.572 9.42733 19.8427 9.054C20.1133 8.67133 20.4867 8.37733 20.9627 8.172C21.448 7.96667 22.0033 7.864 22.6287 7.864C23.1793 7.864 23.6833 7.91533 24.1407 8.018C24.598 8.12067 25.0133 8.256 25.3867 8.424L24.9947 9.502C24.6493 9.35267 24.2713 9.22667 23.8607 9.124C23.4593 9.02133 23.0393 8.97 22.6007 8.97C22.1807 8.97 21.8307 9.03067 21.5507 9.152C21.2707 9.27333 21.0607 9.446 20.9207 9.67C20.7807 9.88467 20.7107 10.1367 20.7107 10.426C20.7107 10.762 20.7807 11.042 20.9207 11.266C21.0607 11.49 21.2893 11.6907 21.6067 11.868C21.924 12.0453 22.3533 12.2367 22.8947 12.442C23.4827 12.6567 23.9773 12.89 24.3787 13.142C24.7893 13.3847 25.0973 13.6787 25.3027 14.024C25.5173 14.3693 25.6247 14.8033 25.6247 15.326ZM28.7023 10.482C28.7023 10.6593 28.6929 10.8413 28.6743 11.028C28.6649 11.2147 28.6509 11.3827 28.6323 11.532H28.7163C28.8749 11.2707 29.0756 11.056 29.3183 10.888C29.5609 10.72 29.8316 10.594 30.1303 10.51C30.4289 10.4167 30.7369 10.37 31.0543 10.37C31.6609 10.37 32.1649 10.468 32.5663 10.664C32.9769 10.8507 33.2849 11.1447 33.4903 11.546C33.6956 11.9473 33.7983 12.47 33.7983 13.114V18H32.5803V13.198C32.5803 12.5913 32.4449 12.1387 32.1743 11.84C31.9036 11.5413 31.4789 11.392 30.9003 11.392C30.3403 11.392 29.9016 11.4993 29.5843 11.714C29.2669 11.9193 29.0383 12.2273 28.8983 12.638C28.7676 13.0393 28.7023 13.534 28.7023 14.122V18H27.4703V7.36H28.7023V10.482ZM37.3566 10.496V18H36.1246V10.496H37.3566ZM36.7546 7.682C36.9412 7.682 37.1046 7.74733 37.2446 7.878C37.3939 7.99933 37.4686 8.19533 37.4686 8.466C37.4686 8.72733 37.3939 8.92333 37.2446 9.054C37.1046 9.18467 36.9412 9.25 36.7546 9.25C36.5492 9.25 36.3766 9.18467 36.2366 9.054C36.0966 8.92333 36.0266 8.72733 36.0266 8.466C36.0266 8.19533 36.0966 7.99933 36.2366 7.878C36.3766 7.74733 36.5492 7.682 36.7546 7.682ZM40.9659 9.95C40.9659 10.2673 40.9566 10.566 40.9379 10.846C40.9286 11.1167 40.9146 11.3313 40.8959 11.49H40.9659C41.1806 11.1727 41.4746 10.9067 41.8479 10.692C42.2213 10.4773 42.7019 10.37 43.2899 10.37C44.2233 10.37 44.9699 10.6967 45.5299 11.35C46.0993 11.994 46.3839 12.96 46.3839 14.248C46.3839 15.1067 46.2533 15.8253 45.9919 16.404C45.7399 16.9827 45.3806 17.4167 44.9139 17.706C44.4473 17.9953 43.9059 18.14 43.2899 18.14C42.7019 18.14 42.2213 18.0327 41.8479 17.818C41.4746 17.6033 41.1806 17.3467 40.9659 17.048H40.8679L40.6159 18H39.7339V7.36H40.9659V9.95ZM43.0799 11.392C42.5479 11.392 42.1279 11.4947 41.8199 11.7C41.5119 11.896 41.2926 12.204 41.1619 12.624C41.0313 13.0347 40.9659 13.562 40.9659 14.206V14.262C40.9659 15.186 41.1153 15.8953 41.4139 16.39C41.7219 16.8753 42.2866 17.118 43.1079 17.118C43.7799 17.118 44.2793 16.8707 44.6059 16.376C44.9419 15.8813 45.1099 15.1673 45.1099 14.234C45.1099 13.2913 44.9419 12.582 44.6059 12.106C44.2793 11.63 43.7706 11.392 43.0799 11.392ZM51.1892 10.37C52.1039 10.37 52.7806 10.5707 53.2192 10.972C53.6579 11.3733 53.8772 12.0127 53.8772 12.89V18H52.9812L52.7432 16.936H52.6872C52.4726 17.2067 52.2486 17.4353 52.0152 17.622C51.7912 17.7993 51.5299 17.93 51.2312 18.014C50.9419 18.098 50.5872 18.14 50.1672 18.14C49.7192 18.14 49.3132 18.0607 48.9492 17.902C48.5946 17.7433 48.3146 17.5007 48.1092 17.174C47.9039 16.838 47.8012 16.418 47.8012 15.914C47.8012 15.1673 48.0952 14.5933 48.6832 14.192C49.2712 13.7813 50.1766 13.5573 51.3992 13.52L52.6732 13.478V13.03C52.6732 12.4047 52.5379 11.9707 52.2672 11.728C51.9966 11.4853 51.6139 11.364 51.1192 11.364C50.7272 11.364 50.3539 11.4247 49.9992 11.546C49.6446 11.658 49.3132 11.7887 49.0052 11.938L48.6272 11.014C48.9539 10.8367 49.3412 10.6873 49.7892 10.566C50.2372 10.4353 50.7039 10.37 51.1892 10.37ZM51.5532 14.374C50.6199 14.4113 49.9712 14.5607 49.6072 14.822C49.2526 15.0833 49.0752 15.452 49.0752 15.928C49.0752 16.348 49.2012 16.656 49.4532 16.852C49.7146 17.048 50.0459 17.146 50.4472 17.146C51.0819 17.146 51.6092 16.9733 52.0292 16.628C52.4492 16.2733 52.6592 15.732 52.6592 15.004V14.332L51.5532 14.374ZM62.8136 18H59.2016V17.272L60.3776 17.006V9.012L59.2016 8.732V8.004H62.8136V8.732L61.6376 9.012V17.006L62.8136 17.272V18ZM68.1877 10.356C69.0837 10.356 69.7604 10.5753 70.2177 11.014C70.6751 11.4433 70.9037 12.1433 70.9037 13.114V18H69.6857V13.198C69.6857 12.5913 69.5504 12.1387 69.2797 11.84C69.0091 11.5413 68.5844 11.392 68.0057 11.392C67.1751 11.392 66.6011 11.6253 66.2837 12.092C65.9664 12.5587 65.8077 13.2307 65.8077 14.108V18H64.5757V10.496H65.5697L65.7517 11.518H65.8217C65.9897 11.2567 66.1951 11.042 66.4377 10.874C66.6897 10.6967 66.9651 10.566 67.2637 10.482C67.5624 10.398 67.8704 10.356 68.1877 10.356ZM79.502 10.496V18H78.494L78.312 17.006H78.256C78.0974 17.2673 77.892 17.482 77.64 17.65C77.388 17.818 77.1127 17.9393 76.814 18.014C76.5154 18.098 76.2027 18.14 75.876 18.14C75.2787 18.14 74.7747 18.0467 74.364 17.86C73.9627 17.664 73.6594 17.3653 73.454 16.964C73.2487 16.5627 73.146 16.0447 73.146 15.41V10.496H74.392V15.326C74.392 15.9233 74.5274 16.3713 74.798 16.67C75.0687 16.9687 75.4887 17.118 76.058 17.118C76.618 17.118 77.0567 17.0153 77.374 16.81C77.7007 16.5953 77.9294 16.2873 78.06 15.886C78.2 15.4753 78.27 14.9807 78.27 14.402V10.496H79.502ZM91.3591 15.326C91.3591 15.9233 91.2144 16.432 90.9251 16.852C90.6357 17.2627 90.2204 17.58 89.6791 17.804C89.1471 18.028 88.5171 18.14 87.7891 18.14C87.4157 18.14 87.0564 18.1213 86.7111 18.084C86.3751 18.0467 86.0671 17.9953 85.7871 17.93C85.5071 17.8553 85.2597 17.7667 85.0451 17.664V16.46C85.3811 16.6093 85.7964 16.7447 86.2911 16.866C86.7951 16.9873 87.3131 17.048 87.8451 17.048C88.3397 17.048 88.7551 16.9827 89.0911 16.852C89.4271 16.7213 89.6791 16.5347 89.8471 16.292C90.0151 16.0493 90.0991 15.7647 90.0991 15.438C90.0991 15.1113 90.0291 14.836 89.8891 14.612C89.7491 14.388 89.5064 14.1827 89.1611 13.996C88.8251 13.8 88.3537 13.5947 87.7471 13.38C87.3177 13.2213 86.9397 13.0533 86.6131 12.876C86.2957 12.6893 86.0297 12.4793 85.8151 12.246C85.6004 12.0127 85.4371 11.7467 85.3251 11.448C85.2224 11.1493 85.1711 10.804 85.1711 10.412C85.1711 9.88 85.3064 9.42733 85.5771 9.054C85.8477 8.67133 86.2211 8.37733 86.6971 8.172C87.1824 7.96667 87.7377 7.864 88.3631 7.864C88.9137 7.864 89.4177 7.91533 89.8751 8.018C90.3324 8.12067 90.7477 8.256 91.1211 8.424L90.7291 9.502C90.3837 9.35267 90.0057 9.22667 89.5951 9.124C89.1937 9.02133 88.7737 8.97 88.3351 8.97C87.9151 8.97 87.5651 9.03067 87.2851 9.152C87.0051 9.27333 86.7951 9.446 86.6551 9.67C86.5151 9.88467 86.4451 10.1367 86.4451 10.426C86.4451 10.762 86.5151 11.042 86.6551 11.266C86.7951 11.49 87.0237 11.6907 87.3411 11.868C87.6584 12.0453 88.0877 12.2367 88.6291 12.442C89.2171 12.6567 89.7117 12.89 90.1131 13.142C90.5237 13.3847 90.8317 13.6787 91.0371 14.024C91.2517 14.3693 91.3591 14.8033 91.3591 15.326ZM101.017 18H99.7566V13.338H94.6326V18H93.3726V8.004H94.6326V12.232H99.7566V8.004H101.017V18ZM106.564 18H102.952V17.272L104.128 17.006V9.012L102.952 8.732V8.004H106.564V8.732L105.388 9.012V17.006L106.564 17.272V18ZM111.35 8.004C112.18 8.004 112.876 8.08333 113.436 8.242C114.005 8.40067 114.43 8.662 114.71 9.026C114.999 9.39 115.144 9.87533 115.144 10.482C115.144 10.874 115.069 11.224 114.92 11.532C114.78 11.8307 114.565 12.0827 114.276 12.288C113.996 12.484 113.65 12.6193 113.24 12.694V12.764C113.66 12.8293 114.038 12.9507 114.374 13.128C114.719 13.3053 114.99 13.5573 115.186 13.884C115.382 14.2107 115.48 14.6353 115.48 15.158C115.48 15.7647 115.34 16.2827 115.06 16.712C114.78 17.132 114.378 17.454 113.856 17.678C113.342 17.8927 112.726 18 112.008 18H108.494V8.004H111.35ZM111.602 12.26C112.46 12.26 113.048 12.1247 113.366 11.854C113.683 11.574 113.842 11.1633 113.842 10.622C113.842 10.0713 113.646 9.67933 113.254 9.446C112.871 9.20333 112.255 9.082 111.406 9.082H109.754V12.26H111.602ZM109.754 13.31V16.936H111.77C112.656 16.936 113.272 16.7633 113.618 16.418C113.963 16.0727 114.136 15.62 114.136 15.06C114.136 14.7053 114.056 14.3973 113.898 14.136C113.748 13.8747 113.492 13.674 113.128 13.534C112.773 13.3847 112.288 13.31 111.672 13.31H109.754ZM120.438 14.164C120.438 13.3987 120.508 12.652 120.648 11.924C120.797 11.196 121.026 10.5007 121.334 9.838C121.642 9.17533 122.029 8.564 122.496 8.004H123.658C123.229 8.58267 122.865 9.208 122.566 9.88C122.277 10.552 122.057 11.2473 121.908 11.966C121.759 12.6847 121.684 13.4127 121.684 14.15C121.684 14.8687 121.759 15.5827 121.908 16.292C122.057 17.0013 122.277 17.6827 122.566 18.336C122.855 18.9987 123.215 19.624 123.644 20.212H122.496C122.029 19.6613 121.642 19.0593 121.334 18.406C121.026 17.762 120.797 17.0807 120.648 16.362C120.508 15.6433 120.438 14.9107 120.438 14.164ZM131.926 8.004C132.757 8.004 133.452 8.08333 134.012 8.242C134.581 8.40067 135.006 8.662 135.286 9.026C135.575 9.39 135.72 9.87533 135.72 10.482C135.72 10.874 135.645 11.224 135.496 11.532C135.356 11.8307 135.141 12.0827 134.852 12.288C134.572 12.484 134.227 12.6193 133.816 12.694V12.764C134.236 12.8293 134.614 12.9507 134.95 13.128C135.295 13.3053 135.566 13.5573 135.762 13.884C135.958 14.2107 136.056 14.6353 136.056 15.158C136.056 15.7647 135.916 16.2827 135.636 16.712C135.356 17.132 134.955 17.454 134.432 17.678C133.919 17.8927 133.303 18 132.584 18H129.07V8.004H131.926ZM132.178 12.26C133.037 12.26 133.625 12.1247 133.942 11.854C134.259 11.574 134.418 11.1633 134.418 10.622C134.418 10.0713 134.222 9.67933 133.83 9.446C133.447 9.20333 132.831 9.082 131.982 9.082H130.33V12.26H132.178ZM130.33 13.31V16.936H132.346C133.233 16.936 133.849 16.7633 134.194 16.418C134.539 16.0727 134.712 15.62 134.712 15.06C134.712 14.7053 134.633 14.3973 134.474 14.136C134.325 13.8747 134.068 13.674 133.704 13.534C133.349 13.3847 132.864 13.31 132.248 13.31H130.33ZM146.099 18H144.629L139.281 9.698H139.225C139.235 9.866 139.244 10.0527 139.253 10.258C139.272 10.4633 139.286 10.6873 139.295 10.93C139.305 11.1633 139.314 11.406 139.323 11.658C139.333 11.91 139.337 12.162 139.337 12.414V18H138.175V8.004H139.631L144.965 16.278H145.021C145.012 16.166 145.003 16.012 144.993 15.816C144.984 15.6107 144.975 15.3867 144.965 15.144C144.956 14.892 144.947 14.6353 144.937 14.374C144.928 14.1127 144.923 13.87 144.923 13.646V8.004H146.099V18ZM151.668 8.004C152.499 8.004 153.194 8.08333 153.754 8.242C154.323 8.40067 154.748 8.662 155.028 9.026C155.317 9.39 155.462 9.87533 155.462 10.482C155.462 10.874 155.387 11.224 155.238 11.532C155.098 11.8307 154.883 12.0827 154.594 12.288C154.314 12.484 153.969 12.6193 153.558 12.694V12.764C153.978 12.8293 154.356 12.9507 154.692 13.128C155.037 13.3053 155.308 13.5573 155.504 13.884C155.7 14.2107 155.798 14.6353 155.798 15.158C155.798 15.7647 155.658 16.2827 155.378 16.712C155.098 17.132 154.697 17.454 154.174 17.678C153.661 17.8927 153.045 18 152.326 18H148.812V8.004H151.668ZM151.92 12.26C152.779 12.26 153.367 12.1247 153.684 11.854C154.001 11.574 154.16 11.1633 154.16 10.622C154.16 10.0713 153.964 9.67933 153.572 9.446C153.189 9.20333 152.573 9.082 151.724 9.082H150.072V12.26H151.92ZM150.072 13.31V16.936H152.088C152.975 16.936 153.591 16.7633 153.936 16.418C154.281 16.0727 154.454 15.62 154.454 15.06C154.454 14.7053 154.375 14.3973 154.216 14.136C154.067 13.8747 153.81 13.674 153.446 13.534C153.091 13.3847 152.606 13.31 151.99 13.31H150.072ZM164.41 8.004C165.241 8.004 165.936 8.08333 166.496 8.242C167.066 8.40067 167.49 8.662 167.77 9.026C168.06 9.39 168.204 9.87533 168.204 10.482C168.204 10.874 168.13 11.224 167.98 11.532C167.84 11.8307 167.626 12.0827 167.336 12.288C167.056 12.484 166.711 12.6193 166.3 12.694V12.764C166.72 12.8293 167.098 12.9507 167.434 13.128C167.78 13.3053 168.05 13.5573 168.246 13.884C168.442 14.2107 168.54 14.6353 168.54 15.158C168.54 15.7647 168.4 16.2827 168.12 16.712C167.84 17.132 167.439 17.454 166.916 17.678C166.403 17.8927 165.787 18 165.068 18H161.554V8.004H164.41ZM164.662 12.26C165.521 12.26 166.109 12.1247 166.426 11.854C166.744 11.574 166.902 11.1633 166.902 10.622C166.902 10.0713 166.706 9.67933 166.314 9.446C165.932 9.20333 165.316 9.082 164.466 9.082H162.814V12.26H164.662ZM162.814 13.31V16.936H164.83C165.717 16.936 166.333 16.7633 166.678 16.418C167.024 16.0727 167.196 15.62 167.196 15.06C167.196 14.7053 167.117 14.3973 166.958 14.136C166.809 13.8747 166.552 13.674 166.188 13.534C165.834 13.3847 165.348 13.31 164.732 13.31H162.814ZM176.246 18H170.66V8.004H176.246V9.11H171.92V12.232H175.994V13.324H171.92V16.894H176.246V18ZM181.085 8.004C182.392 8.004 183.344 8.26067 183.941 8.774C184.538 9.28733 184.837 10.0107 184.837 10.944C184.837 11.3547 184.767 11.7513 184.627 12.134C184.496 12.5073 184.277 12.8433 183.969 13.142C183.661 13.4407 183.25 13.6787 182.737 13.856C182.224 14.024 181.594 14.108 180.847 14.108H179.699V18H178.439V8.004H181.085ZM180.973 9.082H179.699V13.03H180.707C181.342 13.03 181.869 12.9647 182.289 12.834C182.709 12.694 183.022 12.4747 183.227 12.176C183.432 11.8773 183.535 11.4853 183.535 11C183.535 10.356 183.33 9.87533 182.919 9.558C182.508 9.24067 181.86 9.082 180.973 9.082ZM192.838 18H186.23V16.978L188.848 14.332C189.352 13.828 189.776 13.38 190.122 12.988C190.467 12.596 190.728 12.2133 190.906 11.84C191.083 11.4573 191.172 11.042 191.172 10.594C191.172 10.0433 191.008 9.628 190.682 9.348C190.355 9.05867 189.93 8.914 189.408 8.914C188.922 8.914 188.493 8.998 188.12 9.166C187.756 9.334 187.382 9.56733 187 9.866L186.342 9.04C186.603 8.816 186.888 8.61533 187.196 8.438C187.513 8.26067 187.854 8.12067 188.218 8.018C188.591 7.91533 188.988 7.864 189.408 7.864C190.033 7.864 190.57 7.97133 191.018 8.186C191.466 8.40067 191.811 8.70867 192.054 9.11C192.306 9.502 192.432 9.97333 192.432 10.524C192.432 10.916 192.371 11.2893 192.25 11.644C192.128 11.9893 191.956 12.33 191.732 12.666C191.508 13.002 191.237 13.3427 190.92 13.688C190.602 14.0333 190.252 14.3927 189.87 14.766L187.784 16.824V16.88H192.838V18ZM200.846 14.164C200.846 14.9107 200.771 15.6433 200.622 16.362C200.482 17.0807 200.258 17.762 199.95 18.406C199.651 19.0593 199.264 19.6613 198.788 20.212H197.64C198.069 19.624 198.429 18.9987 198.718 18.336C199.007 17.6827 199.227 17.0013 199.376 16.292C199.525 15.5827 199.6 14.8687 199.6 14.15C199.6 13.4127 199.525 12.6847 199.376 11.966C199.227 11.2473 199.007 10.552 198.718 9.88C198.429 9.208 198.065 8.58267 197.626 8.004H198.788C199.264 8.564 199.651 9.17533 199.95 9.838C200.258 10.5007 200.482 11.196 200.622 11.924C200.771 12.652 200.846 13.3987 200.846 14.164Z" fill="white"/>
<path d="M233.954 9.95C233.954 10.2673 233.945 10.566 233.926 10.846C233.917 11.1167 233.903 11.3313 233.884 11.49H233.954C234.169 11.1727 234.463 10.9067 234.836 10.692C235.21 10.4773 235.69 10.37 236.278 10.37C237.212 10.37 237.958 10.6967 238.518 11.35C239.088 11.994 239.372 12.96 239.372 14.248C239.372 15.1067 239.242 15.8253 238.98 16.404C238.728 16.9827 238.369 17.4167 237.902 17.706C237.436 17.9953 236.894 18.14 236.278 18.14C235.69 18.14 235.21 18.0327 234.836 17.818C234.463 17.6033 234.169 17.3467 233.954 17.048H233.856L233.604 18H232.722V7.36H233.954V9.95ZM236.068 11.392C235.536 11.392 235.116 11.4947 234.808 11.7C234.5 11.896 234.281 12.204 234.15 12.624C234.02 13.0347 233.954 13.562 233.954 14.206V14.262C233.954 15.186 234.104 15.8953 234.402 16.39C234.71 16.8753 235.275 17.118 236.096 17.118C236.768 17.118 237.268 16.8707 237.594 16.376C237.93 15.8813 238.098 15.1673 238.098 14.234C238.098 13.2913 237.93 12.582 237.594 12.106C237.268 11.63 236.759 11.392 236.068 11.392ZM244.948 10.356C245.844 10.356 246.52 10.5753 246.978 11.014C247.435 11.4433 247.664 12.1433 247.664 13.114V18H246.446V13.198C246.446 12.5913 246.31 12.1387 246.04 11.84C245.769 11.5413 245.344 11.392 244.766 11.392C243.935 11.392 243.361 11.6253 243.044 12.092C242.726 12.5587 242.568 13.2307 242.568 14.108V18H241.336V10.496H242.33L242.512 11.518H242.582C242.75 11.2567 242.955 11.042 243.198 10.874C243.45 10.6967 243.725 10.566 244.024 10.482C244.322 10.398 244.63 10.356 244.948 10.356ZM251.222 9.95C251.222 10.2673 251.212 10.566 251.194 10.846C251.184 11.1167 251.17 11.3313 251.152 11.49H251.222C251.436 11.1727 251.73 10.9067 252.104 10.692C252.477 10.4773 252.958 10.37 253.546 10.37C254.479 10.37 255.226 10.6967 255.786 11.35C256.355 11.994 256.64 12.96 256.64 14.248C256.64 15.1067 256.509 15.8253 256.248 16.404C255.996 16.9827 255.636 17.4167 255.17 17.706C254.703 17.9953 254.162 18.14 253.546 18.14C252.958 18.14 252.477 18.0327 252.104 17.818C251.73 17.6033 251.436 17.3467 251.222 17.048H251.124L250.872 18H249.99V7.36H251.222V9.95ZM253.336 11.392C252.804 11.392 252.384 11.4947 252.076 11.7C251.768 11.896 251.548 12.204 251.418 12.624C251.287 13.0347 251.222 13.562 251.222 14.206V14.262C251.222 15.186 251.371 15.8953 251.67 16.39C251.978 16.8753 252.542 17.118 253.364 17.118C254.036 17.118 254.535 16.8707 254.862 16.376C255.198 15.8813 255.366 15.1673 255.366 14.234C255.366 13.2913 255.198 12.582 254.862 12.106C254.535 11.63 254.026 11.392 253.336 11.392ZM262.383 18H261.179V11.014C261.179 10.7433 261.179 10.5147 261.179 10.328C261.188 10.1413 261.198 9.96867 261.207 9.81C261.216 9.642 261.226 9.46933 261.235 9.292C261.086 9.44133 260.95 9.56733 260.829 9.67C260.708 9.77267 260.554 9.90333 260.367 10.062L259.303 10.93L258.659 10.104L261.361 8.004H262.383V18ZM269.513 10.356C270.157 10.356 270.707 10.496 271.165 10.776C271.631 11.056 271.986 11.4527 272.229 11.966C272.481 12.47 272.607 13.0627 272.607 13.744V14.486H267.469C267.487 15.3353 267.702 15.984 268.113 16.432C268.533 16.8707 269.116 17.09 269.863 17.09C270.339 17.09 270.759 17.048 271.123 16.964C271.496 16.8707 271.879 16.74 272.271 16.572V17.65C271.888 17.818 271.51 17.9393 271.137 18.014C270.763 18.098 270.32 18.14 269.807 18.14C269.097 18.14 268.467 17.9953 267.917 17.706C267.375 17.4167 266.951 16.9873 266.643 16.418C266.344 15.8393 266.195 15.1347 266.195 14.304C266.195 13.4827 266.33 12.778 266.601 12.19C266.881 11.602 267.268 11.1493 267.763 10.832C268.267 10.5147 268.85 10.356 269.513 10.356ZM269.499 11.364C268.911 11.364 268.444 11.5553 268.099 11.938C267.763 12.3113 267.562 12.834 267.497 13.506H271.319C271.319 13.0767 271.253 12.7033 271.123 12.386C270.992 12.0687 270.791 11.8213 270.521 11.644C270.259 11.4573 269.919 11.364 269.499 11.364ZM280.789 10.496V18H279.781L279.599 17.006H279.543C279.384 17.2673 279.179 17.482 278.927 17.65C278.675 17.818 278.4 17.9393 278.101 18.014C277.802 18.098 277.49 18.14 277.163 18.14C276.566 18.14 276.062 18.0467 275.651 17.86C275.25 17.664 274.946 17.3653 274.741 16.964C274.536 16.5627 274.433 16.0447 274.433 15.41V10.496H275.679V15.326C275.679 15.9233 275.814 16.3713 276.085 16.67C276.356 16.9687 276.776 17.118 277.345 17.118C277.905 17.118 278.344 17.0153 278.661 16.81C278.988 16.5953 279.216 16.2873 279.347 15.886C279.487 15.4753 279.557 14.9807 279.557 14.402V10.496H280.789ZM289.303 12.988C289.303 13.8 289.243 14.5233 289.121 15.158C289 15.7927 288.804 16.334 288.533 16.782C288.272 17.2207 287.927 17.5567 287.497 17.79C287.077 18.0233 286.569 18.14 285.971 18.14C285.225 18.14 284.604 17.9347 284.109 17.524C283.624 17.1133 283.26 16.5253 283.017 15.76C282.784 14.9853 282.667 14.0613 282.667 12.988C282.667 11.9053 282.775 10.9813 282.989 10.216C283.213 9.45067 283.568 8.86733 284.053 8.466C284.539 8.05533 285.178 7.85 285.971 7.85C286.718 7.85 287.339 8.05533 287.833 8.466C288.328 8.86733 288.697 9.45067 288.939 10.216C289.182 10.9813 289.303 11.9053 289.303 12.988ZM283.899 12.988C283.899 13.9027 283.965 14.6633 284.095 15.27C284.235 15.8767 284.455 16.334 284.753 16.642C285.061 16.9407 285.467 17.09 285.971 17.09C286.475 17.09 286.877 16.9407 287.175 16.642C287.483 16.3433 287.707 15.8907 287.847 15.284C287.987 14.668 288.057 13.9027 288.057 12.988C288.057 12.0733 287.987 11.3173 287.847 10.72C287.707 10.1133 287.483 9.66067 287.175 9.362C286.877 9.054 286.475 8.9 285.971 8.9C285.467 8.9 285.061 9.054 284.753 9.362C284.455 9.66067 284.235 10.1133 284.095 10.72C283.965 11.3173 283.899 12.0733 283.899 12.988ZM297.273 18H290.665V16.978L293.283 14.332C293.787 13.828 294.212 13.38 294.557 12.988C294.902 12.596 295.164 12.2133 295.341 11.84C295.518 11.4573 295.607 11.042 295.607 10.594C295.607 10.0433 295.444 9.628 295.117 9.348C294.79 9.05867 294.366 8.914 293.843 8.914C293.358 8.914 292.928 8.998 292.555 9.166C292.191 9.334 291.818 9.56733 291.435 9.866L290.777 9.04C291.038 8.816 291.323 8.61533 291.631 8.438C291.948 8.26067 292.289 8.12067 292.653 8.018C293.026 7.91533 293.423 7.864 293.843 7.864C294.468 7.864 295.005 7.97133 295.453 8.186C295.901 8.40067 296.246 8.70867 296.489 9.11C296.741 9.502 296.867 9.97333 296.867 10.524C296.867 10.916 296.806 11.2893 296.685 11.644C296.564 11.9893 296.391 12.33 296.167 12.666C295.943 13.002 295.672 13.3427 295.355 13.688C295.038 14.0333 294.688 14.3927 294.305 14.766L292.219 16.824V16.88H297.273V18ZM302.653 11.448H300.763V18H299.531V11.448H298.215V10.874L299.531 10.454V10.02C299.531 9.376 299.624 8.85333 299.811 8.452C300.007 8.05067 300.287 7.75667 300.651 7.57C301.015 7.38333 301.454 7.29 301.967 7.29C302.266 7.29 302.536 7.318 302.779 7.374C303.031 7.42067 303.246 7.47667 303.423 7.542L303.101 8.508C302.952 8.46133 302.779 8.41467 302.583 8.368C302.387 8.32133 302.186 8.298 301.981 8.298C301.57 8.298 301.262 8.438 301.057 8.718C300.861 8.98867 300.763 9.418 300.763 10.006V10.496H302.653V11.448ZM305.785 14.164L303.195 10.496H304.595L306.527 13.324L308.445 10.496H309.831L307.241 14.164L309.971 18H308.571L306.527 15.004L304.455 18H303.069L305.785 14.164ZM314.078 10.356C314.572 10.356 315.016 10.4493 315.408 10.636C315.809 10.8227 316.15 11.1073 316.43 11.49H316.5L316.668 10.496H317.648V18.126C317.648 18.8353 317.526 19.428 317.284 19.904C317.041 20.3893 316.672 20.7533 316.178 20.996C315.683 21.2387 315.053 21.36 314.288 21.36C313.746 21.36 313.247 21.318 312.79 21.234C312.342 21.1593 311.94 21.0427 311.586 20.884V19.75C311.828 19.8713 312.094 19.974 312.384 20.058C312.673 20.1513 312.986 20.2213 313.322 20.268C313.658 20.3147 314.003 20.338 314.358 20.338C315.002 20.338 315.506 20.1467 315.87 19.764C316.243 19.3907 316.43 18.8773 316.43 18.224V17.93C316.43 17.818 316.434 17.6593 316.444 17.454C316.453 17.2393 316.462 17.09 316.472 17.006H316.416C316.154 17.3887 315.828 17.6733 315.436 17.86C315.053 18.0467 314.605 18.14 314.092 18.14C313.121 18.14 312.36 17.7993 311.81 17.118C311.268 16.4367 310.998 15.4847 310.998 14.262C310.998 13.4593 311.119 12.7687 311.362 12.19C311.614 11.602 311.968 11.1493 312.426 10.832C312.883 10.5147 313.434 10.356 314.078 10.356ZM314.246 11.392C313.826 11.392 313.466 11.504 313.168 11.728C312.878 11.952 312.654 12.2787 312.496 12.708C312.346 13.1373 312.272 13.66 312.272 14.276C312.272 15.2 312.44 15.9093 312.776 16.404C313.121 16.8893 313.62 17.132 314.274 17.132C314.656 17.132 314.983 17.0853 315.254 16.992C315.524 16.8893 315.748 16.7353 315.926 16.53C316.103 16.3153 316.234 16.0447 316.318 15.718C316.402 15.3913 316.444 15.004 316.444 14.556V14.262C316.444 13.5807 316.364 13.03 316.206 12.61C316.056 12.19 315.818 11.882 315.492 11.686C315.165 11.49 314.75 11.392 314.246 11.392ZM324.917 15.928C324.917 16.4133 324.795 16.8193 324.553 17.146C324.31 17.4727 323.965 17.72 323.517 17.888C323.069 18.056 322.537 18.14 321.921 18.14C321.398 18.14 320.945 18.098 320.563 18.014C320.189 17.93 319.858 17.8133 319.569 17.664V16.544C319.867 16.6933 320.227 16.8333 320.647 16.964C321.076 17.0853 321.51 17.146 321.949 17.146C322.574 17.146 323.027 17.048 323.307 16.852C323.587 16.6467 323.727 16.376 323.727 16.04C323.727 15.8533 323.675 15.6853 323.573 15.536C323.47 15.3867 323.283 15.2373 323.013 15.088C322.751 14.9387 322.373 14.7707 321.879 14.584C321.393 14.3973 320.978 14.2107 320.633 14.024C320.287 13.8373 320.021 13.6133 319.835 13.352C319.648 13.0907 319.555 12.7547 319.555 12.344C319.555 11.7093 319.811 11.2193 320.325 10.874C320.847 10.5287 321.529 10.356 322.369 10.356C322.826 10.356 323.251 10.4027 323.643 10.496C324.044 10.58 324.417 10.7013 324.763 10.86L324.343 11.84C324.137 11.7467 323.918 11.6673 323.685 11.602C323.461 11.5273 323.232 11.4713 322.999 11.434C322.765 11.3873 322.527 11.364 322.285 11.364C321.781 11.364 321.393 11.448 321.123 11.616C320.861 11.7747 320.731 11.994 320.731 12.274C320.731 12.4793 320.791 12.6567 320.913 12.806C321.034 12.946 321.235 13.086 321.515 13.226C321.804 13.3567 322.187 13.5153 322.663 13.702C323.139 13.8793 323.545 14.0613 323.881 14.248C324.217 14.4347 324.473 14.6633 324.651 14.934C324.828 15.1953 324.917 15.5267 324.917 15.928ZM327.444 18L331.546 9.124H326.156V8.004H332.862V8.956L328.802 18H327.444ZM341.014 10.496V18H340.006L339.824 17.006H339.768C339.609 17.2673 339.404 17.482 339.152 17.65C338.9 17.818 338.624 17.9393 338.326 18.014C338.027 18.098 337.714 18.14 337.388 18.14C336.79 18.14 336.286 18.0467 335.876 17.86C335.474 17.664 335.171 17.3653 334.966 16.964C334.76 16.5627 334.658 16.0447 334.658 15.41V10.496H335.904V15.326C335.904 15.9233 336.039 16.3713 336.31 16.67C336.58 16.9687 337 17.118 337.57 17.118C338.13 17.118 338.568 17.0153 338.886 16.81C339.212 16.5953 339.441 16.2873 339.572 15.886C339.712 15.4753 339.782 14.9807 339.782 14.402V10.496H341.014ZM348.394 18.154C348.394 17.986 348.399 17.79 348.408 17.566C348.417 17.342 348.436 17.1507 348.464 16.992H348.38C348.165 17.3093 347.867 17.58 347.484 17.804C347.111 18.028 346.625 18.14 346.028 18.14C345.123 18.14 344.385 17.818 343.816 17.174C343.256 16.5207 342.976 15.55 342.976 14.262C342.976 13.4033 343.107 12.6847 343.368 12.106C343.629 11.5273 343.993 11.0933 344.46 10.804C344.927 10.5053 345.463 10.356 346.07 10.356C346.658 10.356 347.139 10.468 347.512 10.692C347.885 10.916 348.184 11.1913 348.408 11.518H348.464L348.646 10.496H349.626V21.36H348.394V18.154ZM346.266 17.118C346.779 17.118 347.19 17.0247 347.498 16.838C347.815 16.6513 348.044 16.3667 348.184 15.984C348.324 15.592 348.399 15.1067 348.408 14.528V14.276C348.408 13.324 348.249 12.6053 347.932 12.12C347.615 11.6253 347.05 11.378 346.238 11.378C345.566 11.378 345.067 11.644 344.74 12.176C344.413 12.6987 344.25 13.4033 344.25 14.29C344.25 15.1767 344.413 15.872 344.74 16.376C345.076 16.8707 345.585 17.118 346.266 17.118ZM354.669 10.356C355.164 10.356 355.607 10.4493 355.999 10.636C356.401 10.8227 356.741 11.1073 357.021 11.49H357.091L357.259 10.496H358.239V18.126C358.239 18.8353 358.118 19.428 357.875 19.904C357.633 20.3893 357.264 20.7533 356.769 20.996C356.275 21.2387 355.645 21.36 354.879 21.36C354.338 21.36 353.839 21.318 353.381 21.234C352.933 21.1593 352.532 21.0427 352.177 20.884V19.75C352.42 19.8713 352.686 19.974 352.975 20.058C353.265 20.1513 353.577 20.2213 353.913 20.268C354.249 20.3147 354.595 20.338 354.949 20.338C355.593 20.338 356.097 20.1467 356.461 19.764C356.835 19.3907 357.021 18.8773 357.021 18.224V17.93C357.021 17.818 357.026 17.6593 357.035 17.454C357.045 17.2393 357.054 17.09 357.063 17.006H357.007C356.746 17.3887 356.419 17.6733 356.027 17.86C355.645 18.0467 355.197 18.14 354.683 18.14C353.713 18.14 352.952 17.7993 352.401 17.118C351.86 16.4367 351.589 15.4847 351.589 14.262C351.589 13.4593 351.711 12.7687 351.953 12.19C352.205 11.602 352.56 11.1493 353.017 10.832C353.475 10.5147 354.025 10.356 354.669 10.356ZM354.837 11.392C354.417 11.392 354.058 11.504 353.759 11.728C353.47 11.952 353.246 12.2787 353.087 12.708C352.938 13.1373 352.863 13.66 352.863 14.276C352.863 15.2 353.031 15.9093 353.367 16.404C353.713 16.8893 354.212 17.132 354.865 17.132C355.248 17.132 355.575 17.0853 355.845 16.992C356.116 16.8893 356.34 16.7353 356.517 16.53C356.695 16.3153 356.825 16.0447 356.909 15.718C356.993 15.3913 357.035 15.004 357.035 14.556V14.262C357.035 13.5807 356.956 13.03 356.797 12.61C356.648 12.19 356.41 11.882 356.083 11.686C355.757 11.49 355.341 11.392 354.837 11.392ZM365.467 18H359.979V17.188L364.011 11.448H360.217V10.496H365.369V11.42L361.393 17.048H365.467V18ZM370.209 18.14C369.546 18.14 368.953 18.0047 368.431 17.734C367.917 17.4633 367.511 17.0433 367.213 16.474C366.923 15.9047 366.779 15.1767 366.779 14.29C366.779 13.366 366.933 12.6147 367.241 12.036C367.549 11.4573 367.964 11.0327 368.487 10.762C369.019 10.4913 369.621 10.356 370.293 10.356C370.675 10.356 371.044 10.398 371.399 10.482C371.753 10.5567 372.043 10.65 372.267 10.762L371.889 11.784C371.665 11.7 371.403 11.6207 371.105 11.546C370.806 11.4713 370.526 11.434 370.265 11.434C369.761 11.434 369.345 11.5413 369.019 11.756C368.692 11.9707 368.449 12.288 368.291 12.708C368.132 13.128 368.053 13.6507 368.053 14.276C368.053 14.8733 368.132 15.382 368.291 15.802C368.449 16.222 368.687 16.5393 369.005 16.754C369.322 16.9687 369.719 17.076 370.195 17.076C370.605 17.076 370.965 17.034 371.273 16.95C371.59 16.866 371.879 16.7633 372.141 16.642V17.734C371.889 17.8647 371.609 17.9627 371.301 18.028C371.002 18.1027 370.638 18.14 370.209 18.14ZM379.637 10.342C379.637 10.79 379.553 11.1773 379.385 11.504C379.217 11.8307 378.975 12.0967 378.657 12.302C378.349 12.5073 377.985 12.652 377.565 12.736V12.792C378.368 12.8853 378.965 13.1373 379.357 13.548C379.749 13.9587 379.945 14.4953 379.945 15.158C379.945 15.7367 379.81 16.2547 379.539 16.712C379.269 17.16 378.849 17.51 378.279 17.762C377.719 18.014 376.996 18.14 376.109 18.14C375.587 18.14 375.101 18.098 374.653 18.014C374.205 17.9393 373.776 17.7993 373.365 17.594V16.446C373.785 16.6513 374.238 16.8147 374.723 16.936C375.209 17.048 375.675 17.104 376.123 17.104C377.019 17.104 377.663 16.9313 378.055 16.586C378.457 16.2313 378.657 15.746 378.657 15.13C378.657 14.71 378.545 14.374 378.321 14.122C378.107 13.8607 377.789 13.6693 377.369 13.548C376.949 13.4267 376.445 13.366 375.857 13.366H374.891V12.316H375.871C376.422 12.316 376.879 12.2367 377.243 12.078C377.617 11.9193 377.897 11.7 378.083 11.42C378.279 11.1307 378.377 10.7993 378.377 10.426C378.377 9.94067 378.214 9.56733 377.887 9.306C377.561 9.03533 377.117 8.9 376.557 8.9C376.203 8.9 375.881 8.93733 375.591 9.012C375.302 9.07733 375.031 9.17533 374.779 9.306C374.537 9.42733 374.289 9.572 374.037 9.74L373.421 8.9C373.664 8.71333 373.939 8.54067 374.247 8.382C374.565 8.22333 374.915 8.09733 375.297 8.004C375.68 7.91067 376.095 7.864 376.543 7.864C377.589 7.864 378.363 8.09733 378.867 8.564C379.381 9.03067 379.637 9.62333 379.637 10.342ZM388.027 18H381.419V16.978L384.037 14.332C384.541 13.828 384.966 13.38 385.311 12.988C385.656 12.596 385.918 12.2133 386.095 11.84C386.272 11.4573 386.361 11.042 386.361 10.594C386.361 10.0433 386.198 9.628 385.871 9.348C385.544 9.05867 385.12 8.914 384.597 8.914C384.112 8.914 383.682 8.998 383.309 9.166C382.945 9.334 382.572 9.56733 382.189 9.866L381.531 9.04C381.792 8.816 382.077 8.61533 382.385 8.438C382.702 8.26067 383.043 8.12067 383.407 8.018C383.78 7.91533 384.177 7.864 384.597 7.864C385.222 7.864 385.759 7.97133 386.207 8.186C386.655 8.40067 387 8.70867 387.243 9.11C387.495 9.502 387.621 9.97333 387.621 10.524C387.621 10.916 387.56 11.2893 387.439 11.644C387.318 11.9893 387.145 12.33 386.921 12.666C386.697 13.002 386.426 13.3427 386.109 13.688C385.792 14.0333 385.442 14.3927 385.059 14.766L382.973 16.824V16.88H388.027V18ZM398.181 10.356C399.03 10.356 399.665 10.5753 400.085 11.014C400.505 11.4433 400.715 12.1433 400.715 13.114V18H399.497V13.17C399.497 12.582 399.371 12.1387 399.119 11.84C398.876 11.5413 398.493 11.392 397.971 11.392C397.243 11.392 396.72 11.602 396.403 12.022C396.095 12.442 395.941 13.0533 395.941 13.856V18H394.723V13.17C394.723 12.778 394.667 12.4513 394.555 12.19C394.443 11.9193 394.275 11.7187 394.051 11.588C393.827 11.4573 393.537 11.392 393.183 11.392C392.679 11.392 392.282 11.4993 391.993 11.714C391.703 11.9193 391.493 12.2227 391.363 12.624C391.241 13.0253 391.181 13.52 391.181 14.108V18H389.949V10.496H390.943L391.125 11.518H391.195C391.353 11.2567 391.545 11.042 391.769 10.874C392.002 10.6967 392.259 10.566 392.539 10.482C392.819 10.398 393.108 10.356 393.407 10.356C393.985 10.356 394.466 10.4587 394.849 10.664C395.241 10.8693 395.525 11.1867 395.703 11.616H395.773C396.025 11.1867 396.365 10.8693 396.795 10.664C397.233 10.4587 397.695 10.356 398.181 10.356ZM409.123 12.274C409.123 12.8433 409.081 13.4127 408.997 13.982C408.922 14.542 408.787 15.074 408.591 15.578C408.395 16.0727 408.124 16.516 407.779 16.908C407.433 17.2907 406.995 17.594 406.463 17.818C405.931 18.0327 405.287 18.14 404.531 18.14C404.344 18.14 404.125 18.126 403.873 18.098C403.63 18.0793 403.429 18.0467 403.271 18V16.95C403.439 17.006 403.635 17.0527 403.859 17.09C404.083 17.118 404.297 17.132 404.503 17.132C405.156 17.132 405.693 17.0247 406.113 16.81C406.542 16.5953 406.883 16.306 407.135 15.942C407.387 15.5687 407.569 15.1393 407.681 14.654C407.793 14.1593 407.858 13.6413 407.877 13.1H407.793C407.653 13.3147 407.475 13.5107 407.261 13.688C407.046 13.8653 406.785 14.0053 406.477 14.108C406.178 14.2107 405.823 14.262 405.413 14.262C404.843 14.262 404.339 14.1453 403.901 13.912C403.471 13.6693 403.135 13.324 402.893 12.876C402.659 12.428 402.543 11.882 402.543 11.238C402.543 10.538 402.673 9.936 402.935 9.432C403.205 8.928 403.579 8.54067 404.055 8.27C404.531 7.99933 405.091 7.864 405.735 7.864C406.211 7.864 406.654 7.95733 407.065 8.144C407.475 8.32133 407.835 8.592 408.143 8.956C408.451 9.32 408.689 9.77733 408.857 10.328C409.034 10.8787 409.123 11.5273 409.123 12.274ZM405.735 8.9C405.156 8.9 404.68 9.09133 404.307 9.474C403.943 9.85667 403.761 10.44 403.761 11.224C403.761 11.868 403.915 12.3767 404.223 12.75C404.54 13.114 405.025 13.296 405.679 13.296C406.127 13.296 406.514 13.2073 406.841 13.03C407.167 12.8433 407.419 12.61 407.597 12.33C407.783 12.05 407.877 11.7607 407.877 11.462C407.877 11.1633 407.83 10.8647 407.737 10.566C407.653 10.258 407.522 9.978 407.345 9.726C407.167 9.474 406.943 9.27333 406.673 9.124C406.402 8.97467 406.089 8.9 405.735 8.9ZM413.704 18.14C412.771 18.14 412.024 17.818 411.464 17.174C410.904 16.5207 410.624 15.55 410.624 14.262C410.624 12.974 410.904 12.0033 411.464 11.35C412.034 10.6873 412.785 10.356 413.718 10.356C414.11 10.356 414.451 10.4073 414.74 10.51C415.03 10.6033 415.282 10.734 415.496 10.902C415.711 11.07 415.893 11.2567 416.042 11.462H416.126C416.117 11.3407 416.098 11.1633 416.07 10.93C416.052 10.6873 416.042 10.496 416.042 10.356V7.36H417.274V18H416.28L416.098 16.992H416.042C415.893 17.2067 415.711 17.4027 415.496 17.58C415.282 17.748 415.025 17.8833 414.726 17.986C414.437 18.0887 414.096 18.14 413.704 18.14ZM413.9 17.118C414.694 17.118 415.249 16.9033 415.566 16.474C415.893 16.0353 416.056 15.3773 416.056 14.5V14.276C416.056 13.3427 415.902 12.6287 415.594 12.134C415.286 11.63 414.717 11.378 413.886 11.378C413.224 11.378 412.724 11.644 412.388 12.176C412.062 12.6987 411.898 13.4033 411.898 14.29C411.898 15.186 412.062 15.8813 412.388 16.376C412.724 16.8707 413.228 17.118 413.9 17.118ZM422.318 10.356C422.812 10.356 423.256 10.4493 423.648 10.636C424.049 10.8227 424.39 11.1073 424.67 11.49H424.74L424.908 10.496H425.888V18.126C425.888 18.8353 425.766 19.428 425.524 19.904C425.281 20.3893 424.912 20.7533 424.418 20.996C423.923 21.2387 423.293 21.36 422.528 21.36C421.986 21.36 421.487 21.318 421.03 21.234C420.582 21.1593 420.18 21.0427 419.826 20.884V19.75C420.068 19.8713 420.334 19.974 420.624 20.058C420.913 20.1513 421.226 20.2213 421.562 20.268C421.898 20.3147 422.243 20.338 422.598 20.338C423.242 20.338 423.746 20.1467 424.11 19.764C424.483 19.3907 424.67 18.8773 424.67 18.224V17.93C424.67 17.818 424.674 17.6593 424.684 17.454C424.693 17.2393 424.702 17.09 424.712 17.006H424.656C424.394 17.3887 424.068 17.6733 423.676 17.86C423.293 18.0467 422.845 18.14 422.332 18.14C421.361 18.14 420.6 17.7993 420.05 17.118C419.508 16.4367 419.238 15.4847 419.238 14.262C419.238 13.4593 419.359 12.7687 419.602 12.19C419.854 11.602 420.208 11.1493 420.666 10.832C421.123 10.5147 421.674 10.356 422.318 10.356ZM422.486 11.392C422.066 11.392 421.706 11.504 421.408 11.728C421.118 11.952 420.894 12.2787 420.736 12.708C420.586 13.1373 420.512 13.66 420.512 14.276C420.512 15.2 420.68 15.9093 421.016 16.404C421.361 16.8893 421.86 17.132 422.514 17.132C422.896 17.132 423.223 17.0853 423.494 16.992C423.764 16.8893 423.988 16.7353 424.166 16.53C424.343 16.3153 424.474 16.0447 424.558 15.718C424.642 15.3913 424.684 15.004 424.684 14.556V14.262C424.684 13.5807 424.604 13.03 424.446 12.61C424.296 12.19 424.058 11.882 423.732 11.686C423.405 11.49 422.99 11.392 422.486 11.392ZM430.049 14.164L427.459 10.496H428.859L430.791 13.324L432.709 10.496H434.095L431.505 14.164L434.235 18H432.835L430.791 15.004L428.719 18H427.333L430.049 14.164ZM438.068 18.14C437.134 18.14 436.388 17.818 435.828 17.174C435.268 16.5207 434.988 15.55 434.988 14.262C434.988 12.974 435.268 12.0033 435.828 11.35C436.397 10.6873 437.148 10.356 438.082 10.356C438.474 10.356 438.814 10.4073 439.104 10.51C439.393 10.6033 439.645 10.734 439.86 10.902C440.074 11.07 440.256 11.2567 440.406 11.462H440.49C440.48 11.3407 440.462 11.1633 440.434 10.93C440.415 10.6873 440.406 10.496 440.406 10.356V7.36H441.638V18H440.644L440.462 16.992H440.406C440.256 17.2067 440.074 17.4027 439.86 17.58C439.645 17.748 439.388 17.8833 439.09 17.986C438.8 18.0887 438.46 18.14 438.068 18.14ZM438.264 17.118C439.057 17.118 439.612 16.9033 439.93 16.474C440.256 16.0353 440.42 15.3773 440.42 14.5V14.276C440.42 13.3427 440.266 12.6287 439.958 12.134C439.65 11.63 439.08 11.378 438.25 11.378C437.587 11.378 437.088 11.644 436.752 12.176C436.425 12.6987 436.262 13.4033 436.262 14.29C436.262 15.186 436.425 15.8813 436.752 16.376C437.088 16.8707 437.592 17.118 438.264 17.118ZM447.591 10.356C448.515 10.356 449.257 10.678 449.817 11.322C450.386 11.966 450.671 12.9367 450.671 14.234C450.671 15.0833 450.54 15.802 450.279 16.39C450.027 16.9687 449.668 17.4073 449.201 17.706C448.744 17.9953 448.202 18.14 447.577 18.14C447.194 18.14 446.854 18.0887 446.555 17.986C446.256 17.8833 446 17.7527 445.785 17.594C445.58 17.426 445.402 17.244 445.253 17.048H445.169C445.188 17.2067 445.206 17.4073 445.225 17.65C445.244 17.8927 445.253 18.1027 445.253 18.28V21.36H444.021V10.496H445.029L445.197 11.518H445.253C445.402 11.3033 445.58 11.1073 445.785 10.93C446 10.7527 446.252 10.6127 446.541 10.51C446.84 10.4073 447.19 10.356 447.591 10.356ZM447.367 11.392C446.863 11.392 446.457 11.49 446.149 11.686C445.841 11.8727 445.617 12.1573 445.477 12.54C445.337 12.9227 445.262 13.408 445.253 13.996V14.234C445.253 14.85 445.318 15.3727 445.449 15.802C445.58 16.2313 445.799 16.558 446.107 16.782C446.424 17.006 446.854 17.118 447.395 17.118C447.852 17.118 448.226 16.992 448.515 16.74C448.814 16.488 449.033 16.1473 449.173 15.718C449.322 15.2793 449.397 14.78 449.397 14.22C449.397 13.3613 449.229 12.6753 448.893 12.162C448.566 11.6487 448.058 11.392 447.367 11.392ZM454.139 14.164L451.549 10.496H452.949L454.881 13.324L456.799 10.496H458.185L455.595 14.164L458.325 18H456.925L454.881 15.004L452.809 18H451.423L454.139 14.164ZM458.595 10.496H459.911L461.535 14.766C461.628 15.018 461.712 15.2607 461.787 15.494C461.871 15.7273 461.946 15.956 462.011 16.18C462.076 16.3947 462.128 16.6047 462.165 16.81H462.221C462.277 16.5767 462.366 16.2733 462.487 15.9C462.608 15.5173 462.734 15.1347 462.865 14.752L464.391 10.496H465.721L462.487 19.036C462.31 19.5027 462.1 19.9087 461.857 20.254C461.624 20.6087 461.334 20.8793 460.989 21.066C460.653 21.262 460.242 21.36 459.757 21.36C459.533 21.36 459.337 21.346 459.169 21.318C459.001 21.2993 458.856 21.276 458.735 21.248V20.268C458.838 20.2867 458.959 20.3053 459.099 20.324C459.248 20.3427 459.402 20.352 459.561 20.352C459.85 20.352 460.098 20.296 460.303 20.184C460.518 20.0813 460.7 19.9273 460.849 19.722C460.998 19.526 461.124 19.2927 461.227 19.022L461.619 18.028L458.595 10.496ZM468.14 10.482C468.14 10.6593 468.13 10.8413 468.112 11.028C468.102 11.2147 468.088 11.3827 468.07 11.532H468.154C468.312 11.2707 468.513 11.056 468.756 10.888C468.998 10.72 469.269 10.594 469.568 10.51C469.866 10.4167 470.174 10.37 470.492 10.37C471.098 10.37 471.602 10.468 472.004 10.664C472.414 10.8507 472.722 11.1447 472.928 11.546C473.133 11.9473 473.236 12.47 473.236 13.114V18H472.018V13.198C472.018 12.5913 471.882 12.1387 471.612 11.84C471.341 11.5413 470.916 11.392 470.338 11.392C469.778 11.392 469.339 11.4993 469.022 11.714C468.704 11.9193 468.476 12.2273 468.336 12.638C468.205 13.0393 468.14 13.534 468.14 14.122V18H466.908V7.36H468.14V10.482ZM481.274 10.342C481.274 10.79 481.19 11.1773 481.022 11.504C480.854 11.8307 480.611 12.0967 480.294 12.302C479.986 12.5073 479.622 12.652 479.202 12.736V12.792C480.005 12.8853 480.602 13.1373 480.994 13.548C481.386 13.9587 481.582 14.4953 481.582 15.158C481.582 15.7367 481.447 16.2547 481.176 16.712C480.905 17.16 480.485 17.51 479.916 17.762C479.356 18.014 478.633 18.14 477.746 18.14C477.223 18.14 476.738 18.098 476.29 18.014C475.842 17.9393 475.413 17.7993 475.002 17.594V16.446C475.422 16.6513 475.875 16.8147 476.36 16.936C476.845 17.048 477.312 17.104 477.76 17.104C478.656 17.104 479.3 16.9313 479.692 16.586C480.093 16.2313 480.294 15.746 480.294 15.13C480.294 14.71 480.182 14.374 479.958 14.122C479.743 13.8607 479.426 13.6693 479.006 13.548C478.586 13.4267 478.082 13.366 477.494 13.366H476.528V12.316H477.508C478.059 12.316 478.516 12.2367 478.88 12.078C479.253 11.9193 479.533 11.7 479.72 11.42C479.916 11.1307 480.014 10.7993 480.014 10.426C480.014 9.94067 479.851 9.56733 479.524 9.306C479.197 9.03533 478.754 8.9 478.194 8.9C477.839 8.9 477.517 8.93733 477.228 9.012C476.939 9.07733 476.668 9.17533 476.416 9.306C476.173 9.42733 475.926 9.572 475.674 9.74L475.058 8.9C475.301 8.71333 475.576 8.54067 475.884 8.382C476.201 8.22333 476.551 8.09733 476.934 8.004C477.317 7.91067 477.732 7.864 478.18 7.864C479.225 7.864 480 8.09733 480.504 8.564C481.017 9.03067 481.274 9.62333 481.274 10.342ZM486.08 17.132C486.266 17.132 486.458 17.118 486.654 17.09C486.85 17.0527 487.008 17.0153 487.13 16.978V17.916C486.999 17.9813 486.812 18.0327 486.57 18.07C486.327 18.1167 486.094 18.14 485.87 18.14C485.478 18.14 485.114 18.0747 484.778 17.944C484.451 17.804 484.185 17.566 483.98 17.23C483.774 16.894 483.672 16.4227 483.672 15.816V11.448H482.608V10.86L483.686 10.37L484.176 8.774H484.904V10.496H487.074V11.448H484.904V15.788C484.904 16.2453 485.011 16.586 485.226 16.81C485.45 17.0247 485.734 17.132 486.08 17.132ZM487.75 21.36C487.517 21.36 487.312 21.3413 487.134 21.304C486.957 21.276 486.803 21.2387 486.672 21.192V20.198C486.812 20.2353 486.957 20.268 487.106 20.296C487.256 20.324 487.419 20.338 487.596 20.338C487.895 20.338 488.142 20.254 488.338 20.086C488.534 19.9273 488.632 19.6193 488.632 19.162V10.496H489.864V19.12C489.864 19.5867 489.79 19.988 489.64 20.324C489.491 20.66 489.262 20.9167 488.954 21.094C488.646 21.2713 488.245 21.36 487.75 21.36ZM488.534 8.466C488.534 8.19533 488.604 7.99933 488.744 7.878C488.884 7.74733 489.057 7.682 489.262 7.682C489.449 7.682 489.612 7.74733 489.752 7.878C489.902 7.99933 489.976 8.19533 489.976 8.466C489.976 8.72733 489.902 8.92333 489.752 9.054C489.612 9.18467 489.449 9.25 489.262 9.25C489.057 9.25 488.884 9.18467 488.744 9.054C488.604 8.92333 488.534 8.72733 488.534 8.466ZM500.474 10.356C501.323 10.356 501.958 10.5753 502.378 11.014C502.798 11.4433 503.008 12.1433 503.008 13.114V18H501.79V13.17C501.79 12.582 501.664 12.1387 501.412 11.84C501.169 11.5413 500.786 11.392 500.264 11.392C499.536 11.392 499.013 11.602 498.696 12.022C498.388 12.442 498.234 13.0533 498.234 13.856V18H497.016V13.17C497.016 12.778 496.96 12.4513 496.848 12.19C496.736 11.9193 496.568 11.7187 496.344 11.588C496.12 11.4573 495.83 11.392 495.476 11.392C494.972 11.392 494.575 11.4993 494.286 11.714C493.996 11.9193 493.786 12.2227 493.656 12.624C493.534 13.0253 493.474 13.52 493.474 14.108V18H492.242V10.496H493.236L493.418 11.518H493.488C493.646 11.2567 493.838 11.042 494.062 10.874C494.295 10.6967 494.552 10.566 494.832 10.482C495.112 10.398 495.401 10.356 495.7 10.356C496.278 10.356 496.759 10.4587 497.142 10.664C497.534 10.8693 497.818 11.1867 497.996 11.616H498.066C498.318 11.1867 498.658 10.8693 499.088 10.664C499.526 10.4587 499.988 10.356 500.474 10.356ZM507.986 18.14C507.052 18.14 506.306 17.818 505.746 17.174C505.186 16.5207 504.906 15.55 504.906 14.262C504.906 12.974 505.186 12.0033 505.746 11.35C506.315 10.6873 507.066 10.356 508 10.356C508.392 10.356 508.732 10.4073 509.022 10.51C509.311 10.6033 509.563 10.734 509.778 10.902C509.992 11.07 510.174 11.2567 510.324 11.462H510.408C510.398 11.3407 510.38 11.1633 510.352 10.93C510.333 10.6873 510.324 10.496 510.324 10.356V7.36H511.556V18H510.562L510.38 16.992H510.324C510.174 17.2067 509.992 17.4027 509.778 17.58C509.563 17.748 509.306 17.8833 509.008 17.986C508.718 18.0887 508.378 18.14 507.986 18.14ZM508.182 17.118C508.975 17.118 509.53 16.9033 509.848 16.474C510.174 16.0353 510.338 15.3773 510.338 14.5V14.276C510.338 13.3427 510.184 12.6287 509.876 12.134C509.568 11.63 508.998 11.378 508.168 11.378C507.505 11.378 507.006 11.644 506.67 12.176C506.343 12.6987 506.18 13.4033 506.18 14.29C506.18 15.186 506.343 15.8813 506.67 16.376C507.006 16.8707 507.51 17.118 508.182 17.118ZM514.653 18L518.755 9.124H513.365V8.004H520.071V8.956L516.011 18H514.653ZM530.183 10.356C531.032 10.356 531.667 10.5753 532.087 11.014C532.507 11.4433 532.717 12.1433 532.717 13.114V18H531.499V13.17C531.499 12.582 531.373 12.1387 531.121 11.84C530.878 11.5413 530.495 11.392 529.973 11.392C529.245 11.392 528.722 11.602 528.405 12.022C528.097 12.442 527.943 13.0533 527.943 13.856V18H526.725V13.17C526.725 12.778 526.669 12.4513 526.557 12.19C526.445 11.9193 526.277 11.7187 526.053 11.588C525.829 11.4573 525.539 11.392 525.185 11.392C524.681 11.392 524.284 11.4993 523.995 11.714C523.705 11.9193 523.495 12.2227 523.365 12.624C523.243 13.0253 523.183 13.52 523.183 14.108V18H521.951V10.496H522.945L523.127 11.518H523.197C523.355 11.2567 523.547 11.042 523.771 10.874C524.004 10.6967 524.261 10.566 524.541 10.482C524.821 10.398 525.11 10.356 525.409 10.356C525.987 10.356 526.468 10.4587 526.851 10.664C527.243 10.8693 527.527 11.1867 527.705 11.616H527.775C528.027 11.1867 528.367 10.8693 528.797 10.664C529.235 10.4587 529.697 10.356 530.183 10.356ZM541.573 15.732H540.117V18H538.927V15.732H534.139V14.682L538.843 7.948H540.117V14.626H541.573V15.732ZM538.927 11.476C538.927 11.2333 538.927 11.014 538.927 10.818C538.936 10.6127 538.945 10.4213 538.955 10.244C538.964 10.0667 538.969 9.89867 538.969 9.74C538.978 9.572 538.987 9.41333 538.997 9.264H538.941C538.866 9.44133 538.773 9.63267 538.661 9.838C538.549 10.0433 538.441 10.216 538.339 10.356L535.343 14.626H538.927V11.476ZM545.706 11.868C546.388 11.868 546.98 11.9847 547.484 12.218C547.988 12.4513 548.376 12.7873 548.646 13.226C548.926 13.6553 549.066 14.1827 549.066 14.808C549.066 15.4987 548.917 16.096 548.618 16.6C548.32 17.0947 547.89 17.4773 547.33 17.748C546.78 18.0093 546.112 18.14 545.328 18.14C544.815 18.14 544.33 18.0933 543.872 18C543.424 17.9067 543.046 17.7713 542.738 17.594V16.432C543.074 16.6373 543.48 16.8007 543.956 16.922C544.442 17.034 544.904 17.09 545.342 17.09C545.837 17.09 546.266 17.0153 546.63 16.866C547.004 16.7073 547.293 16.4693 547.498 16.152C547.704 15.8253 547.806 15.4193 547.806 14.934C547.806 14.2807 547.606 13.7813 547.204 13.436C546.803 13.0813 546.168 12.904 545.3 12.904C545.039 12.904 544.74 12.9273 544.404 12.974C544.068 13.0207 543.798 13.0673 543.592 13.114L542.976 12.722L543.354 8.004H548.366V9.124H544.404L544.166 12.022C544.325 11.994 544.54 11.9613 544.81 11.924C545.081 11.8867 545.38 11.868 545.706 11.868ZM555.902 18H550.414V17.188L554.446 11.448H550.652V10.496H555.804V11.42L551.828 17.048H555.902V18ZM560.294 11.868C560.976 11.868 561.568 11.9847 562.072 12.218C562.576 12.4513 562.964 12.7873 563.234 13.226C563.514 13.6553 563.654 14.1827 563.654 14.808C563.654 15.4987 563.505 16.096 563.206 16.6C562.908 17.0947 562.478 17.4773 561.918 17.748C561.368 18.0093 560.7 18.14 559.916 18.14C559.403 18.14 558.918 18.0933 558.46 18C558.012 17.9067 557.634 17.7713 557.326 17.594V16.432C557.662 16.6373 558.068 16.8007 558.544 16.922C559.03 17.034 559.492 17.09 559.93 17.09C560.425 17.09 560.854 17.0153 561.218 16.866C561.592 16.7073 561.881 16.4693 562.086 16.152C562.292 15.8253 562.394 15.4193 562.394 14.934C562.394 14.2807 562.194 13.7813 561.792 13.436C561.391 13.0813 560.756 12.904 559.888 12.904C559.627 12.904 559.328 12.9273 558.992 12.974C558.656 13.0207 558.386 13.0673 558.18 13.114L557.564 12.722L557.942 8.004H562.954V9.124H558.992L558.754 12.022C558.913 11.994 559.128 11.9613 559.398 11.924C559.669 11.8867 559.968 11.868 560.294 11.868ZM566.36 18L570.462 9.124H565.072V8.004H571.778V8.956L567.718 18H566.36Z" fill="#555555"/>
</svg>
