<svg width="571" height="25" viewBox="0 0 571 25" fill="none" xmlns="http://www.w3.org/2000/svg">
<rect width="468.233" height="25" fill="#555555"/>
<rect x="202.237" width="368.609" height="25" fill="#F1B90A"/>
<path d="M23.4365 18H22.1765V9.11H19.0545V8.004H26.5445V9.11H23.4365V18ZM29.7974 10.356C30.4414 10.356 30.992 10.496 31.4494 10.776C31.916 11.056 32.2707 11.4527 32.5134 11.966C32.7654 12.47 32.8914 13.0627 32.8914 13.744V14.486H27.7534C27.772 15.3353 27.9867 15.984 28.3974 16.432C28.8174 16.8707 29.4007 17.09 30.1474 17.09C30.6234 17.09 31.0434 17.048 31.4074 16.964C31.7807 16.8707 32.1634 16.74 32.5554 16.572V17.65C32.1727 17.818 31.7947 17.9393 31.4214 18.014C31.048 18.098 30.6047 18.14 30.0914 18.14C29.382 18.14 28.752 17.9953 28.2014 17.706C27.66 17.4167 27.2354 16.9873 26.9274 16.418C26.6287 15.8393 26.4794 15.1347 26.4794 14.304C26.4794 13.4827 26.6147 12.778 26.8854 12.19C27.1654 11.602 27.5527 11.1493 28.0474 10.832C28.5514 10.5147 29.1347 10.356 29.7974 10.356ZM29.7834 11.364C29.1954 11.364 28.7287 11.5553 28.3834 11.938C28.0474 12.3113 27.8467 12.834 27.7814 13.506H31.6034C31.6034 13.0767 31.538 12.7033 31.4074 12.386C31.2767 12.0687 31.076 11.8213 30.8054 11.644C30.544 11.4573 30.2034 11.364 29.7834 11.364ZM37.3077 17.132C37.4944 17.132 37.6857 17.118 37.8817 17.09C38.0777 17.0527 38.2364 17.0153 38.3577 16.978V17.916C38.2271 17.9813 38.0404 18.0327 37.7977 18.07C37.5551 18.1167 37.3217 18.14 37.0977 18.14C36.7057 18.14 36.3417 18.0747 36.0057 17.944C35.6791 17.804 35.4131 17.566 35.2077 17.23C35.0024 16.894 34.8997 16.4227 34.8997 15.816V11.448H33.8357V10.86L34.9137 10.37L35.4037 8.774H36.1317V10.496H38.3017V11.448H36.1317V15.788C36.1317 16.2453 36.2391 16.586 36.4537 16.81C36.6777 17.0247 36.9624 17.132 37.3077 17.132ZM41.0923 10.482C41.0923 10.6593 41.083 10.8413 41.0643 11.028C41.055 11.2147 41.041 11.3827 41.0223 11.532H41.1063C41.265 11.2707 41.4657 11.056 41.7083 10.888C41.951 10.72 42.2217 10.594 42.5203 10.51C42.819 10.4167 43.127 10.37 43.4443 10.37C44.051 10.37 44.555 10.468 44.9563 10.664C45.367 10.8507 45.675 11.1447 45.8803 11.546C46.0857 11.9473 46.1883 12.47 46.1883 13.114V18H44.9703V13.198C44.9703 12.5913 44.835 12.1387 44.5643 11.84C44.2937 11.5413 43.869 11.392 43.2903 11.392C42.7303 11.392 42.2917 11.4993 41.9743 11.714C41.657 11.9193 41.4283 12.2273 41.2883 12.638C41.1577 13.0393 41.0923 13.534 41.0923 14.122V18H39.8603V7.36H41.0923V10.482ZM51.4126 10.356C52.0566 10.356 52.6073 10.496 53.0646 10.776C53.5313 11.056 53.8859 11.4527 54.1286 11.966C54.3806 12.47 54.5066 13.0627 54.5066 13.744V14.486H49.3686C49.3873 15.3353 49.6019 15.984 50.0126 16.432C50.4326 16.8707 51.0159 17.09 51.7626 17.09C52.2386 17.09 52.6586 17.048 53.0226 16.964C53.3959 16.8707 53.7786 16.74 54.1706 16.572V17.65C53.7879 17.818 53.4099 17.9393 53.0366 18.014C52.6633 18.098 52.2199 18.14 51.7066 18.14C50.9973 18.14 50.3673 17.9953 49.8166 17.706C49.2753 17.4167 48.8506 16.9873 48.5426 16.418C48.2439 15.8393 48.0946 15.1347 48.0946 14.304C48.0946 13.4827 48.2299 12.778 48.5006 12.19C48.7806 11.602 49.1679 11.1493 49.6626 10.832C50.1666 10.5147 50.7499 10.356 51.4126 10.356ZM51.3986 11.364C50.8106 11.364 50.3439 11.5553 49.9986 11.938C49.6626 12.3113 49.4619 12.834 49.3966 13.506H53.2186C53.2186 13.0767 53.1533 12.7033 53.0226 12.386C52.8919 12.0687 52.6913 11.8213 52.4206 11.644C52.1593 11.4573 51.8186 11.364 51.3986 11.364ZM59.917 10.356C60.057 10.356 60.2063 10.3653 60.365 10.384C60.533 10.3933 60.6776 10.412 60.799 10.44L60.645 11.574C60.5236 11.546 60.3883 11.5227 60.239 11.504C60.099 11.4853 59.9636 11.476 59.833 11.476C59.5436 11.476 59.2683 11.5367 59.007 11.658C58.7456 11.7793 58.5123 11.952 58.307 12.176C58.1016 12.3907 57.9383 12.652 57.817 12.96C57.705 13.268 57.649 13.6133 57.649 13.996V18H56.417V10.496H57.425L57.565 11.868H57.621C57.7796 11.588 57.971 11.336 58.195 11.112C58.419 10.8787 58.6756 10.6967 58.965 10.566C59.2543 10.426 59.5716 10.356 59.917 10.356ZM73.6069 14.472C73.6069 15.1627 73.4669 15.788 73.1869 16.348C72.9069 16.8987 72.4775 17.3373 71.8989 17.664C71.3295 17.9813 70.6015 18.14 69.7149 18.14C68.4735 18.14 67.5262 17.804 66.8729 17.132C66.2289 16.4507 65.9069 15.5547 65.9069 14.444V8.004H67.1669V14.486C67.1669 15.298 67.3815 15.928 67.8109 16.376C68.2495 16.824 68.9075 17.048 69.7849 17.048C70.3915 17.048 70.8815 16.9407 71.2549 16.726C71.6375 16.502 71.9175 16.1987 72.0949 15.816C72.2722 15.424 72.3609 14.976 72.3609 14.472V8.004H73.6069V14.472ZM81.9151 15.326C81.9151 15.9233 81.7704 16.432 81.4811 16.852C81.1918 17.2627 80.7764 17.58 80.2351 17.804C79.7031 18.028 79.0731 18.14 78.3451 18.14C77.9718 18.14 77.6124 18.1213 77.2671 18.084C76.9311 18.0467 76.6231 17.9953 76.3431 17.93C76.0631 17.8553 75.8158 17.7667 75.6011 17.664V16.46C75.9371 16.6093 76.3524 16.7447 76.8471 16.866C77.3511 16.9873 77.8691 17.048 78.4011 17.048C78.8958 17.048 79.3111 16.9827 79.6471 16.852C79.9831 16.7213 80.2351 16.5347 80.4031 16.292C80.5711 16.0493 80.6551 15.7647 80.6551 15.438C80.6551 15.1113 80.5851 14.836 80.4451 14.612C80.3051 14.388 80.0624 14.1827 79.7171 13.996C79.3811 13.8 78.9098 13.5947 78.3031 13.38C77.8738 13.2213 77.4958 13.0533 77.1691 12.876C76.8518 12.6893 76.5858 12.4793 76.3711 12.246C76.1564 12.0127 75.9931 11.7467 75.8811 11.448C75.7784 11.1493 75.7271 10.804 75.7271 10.412C75.7271 9.88 75.8624 9.42733 76.1331 9.054C76.4038 8.67133 76.7771 8.37733 77.2531 8.172C77.7384 7.96667 78.2938 7.864 78.9191 7.864C79.4698 7.864 79.9738 7.91533 80.4311 8.018C80.8884 8.12067 81.3038 8.256 81.6771 8.424L81.2851 9.502C80.9398 9.35267 80.5618 9.22667 80.1511 9.124C79.7498 9.02133 79.3298 8.97 78.8911 8.97C78.4711 8.97 78.1211 9.03067 77.8411 9.152C77.5611 9.27333 77.3511 9.446 77.2111 9.67C77.0711 9.88467 77.0011 10.1367 77.0011 10.426C77.0011 10.762 77.0711 11.042 77.2111 11.266C77.3511 11.49 77.5798 11.6907 77.8971 11.868C78.2144 12.0453 78.6438 12.2367 79.1851 12.442C79.7731 12.6567 80.2678 12.89 80.6691 13.142C81.0798 13.3847 81.3878 13.6787 81.5931 14.024C81.8078 14.3693 81.9151 14.8033 81.9151 15.326ZM91.9367 12.904C91.9367 14.024 91.7267 14.962 91.3067 15.718C90.896 16.474 90.3034 17.0433 89.5287 17.426C88.754 17.8087 87.816 18 86.7147 18H83.9287V8.004H87.0087C88.0167 8.004 88.8894 8.19067 89.6267 8.564C90.364 8.93733 90.9334 9.488 91.3347 10.216C91.736 10.9347 91.9367 11.8307 91.9367 12.904ZM90.6067 12.946C90.6067 12.0593 90.4574 11.3313 90.1587 10.762C89.8694 10.1927 89.44 9.77267 88.8707 9.502C88.3107 9.222 87.6294 9.082 86.8267 9.082H85.1887V16.922H86.5467C87.9 16.922 88.9127 16.5907 89.5847 15.928C90.266 15.256 90.6067 14.262 90.6067 12.946ZM96.8954 18H95.6354V9.11H92.5134V8.004H100.003V9.11H96.8954V18ZM104.349 14.164C104.349 13.3987 104.419 12.652 104.559 11.924C104.709 11.196 104.937 10.5007 105.245 9.838C105.553 9.17533 105.941 8.564 106.407 8.004H107.569C107.14 8.58267 106.776 9.208 106.477 9.88C106.188 10.552 105.969 11.2473 105.819 11.966C105.67 12.6847 105.595 13.4127 105.595 14.15C105.595 14.8687 105.67 15.5827 105.819 16.292C105.969 17.0013 106.188 17.6827 106.477 18.336C106.767 18.9987 107.126 19.624 107.555 20.212H106.407C105.941 19.6613 105.553 19.0593 105.245 18.406C104.937 17.762 104.709 17.0807 104.559 16.362C104.419 15.6433 104.349 14.9107 104.349 14.164ZM115.837 8.004C116.668 8.004 117.363 8.08333 117.923 8.242C118.493 8.40067 118.917 8.662 119.197 9.026C119.487 9.39 119.631 9.87533 119.631 10.482C119.631 10.874 119.557 11.224 119.407 11.532C119.267 11.8307 119.053 12.0827 118.763 12.288C118.483 12.484 118.138 12.6193 117.727 12.694V12.764C118.147 12.8293 118.525 12.9507 118.861 13.128C119.207 13.3053 119.477 13.5573 119.673 13.884C119.869 14.2107 119.967 14.6353 119.967 15.158C119.967 15.7647 119.827 16.2827 119.547 16.712C119.267 17.132 118.866 17.454 118.343 17.678C117.83 17.8927 117.214 18 116.495 18H112.981V8.004H115.837ZM116.089 12.26C116.948 12.26 117.536 12.1247 117.853 11.854C118.171 11.574 118.329 11.1633 118.329 10.622C118.329 10.0713 118.133 9.67933 117.741 9.446C117.359 9.20333 116.743 9.082 115.893 9.082H114.241V12.26H116.089ZM114.241 13.31V16.936H116.257C117.144 16.936 117.76 16.7633 118.105 16.418C118.451 16.0727 118.623 15.62 118.623 15.06C118.623 14.7053 118.544 14.3973 118.385 14.136C118.236 13.8747 117.979 13.674 117.615 13.534C117.261 13.3847 116.775 13.31 116.159 13.31H114.241ZM130.011 18H128.541L123.193 9.698H123.137C123.146 9.866 123.156 10.0527 123.165 10.258C123.184 10.4633 123.198 10.6873 123.207 10.93C123.216 11.1633 123.226 11.406 123.235 11.658C123.244 11.91 123.249 12.162 123.249 12.414V18H122.087V8.004H123.543L128.877 16.278H128.933C128.924 16.166 128.914 16.012 128.905 15.816C128.896 15.6107 128.886 15.3867 128.877 15.144C128.868 14.892 128.858 14.6353 128.849 14.374C128.84 14.1127 128.835 13.87 128.835 13.646V8.004H130.011V18ZM135.58 8.004C136.41 8.004 137.106 8.08333 137.666 8.242C138.235 8.40067 138.66 8.662 138.94 9.026C139.229 9.39 139.374 9.87533 139.374 10.482C139.374 10.874 139.299 11.224 139.15 11.532C139.01 11.8307 138.795 12.0827 138.506 12.288C138.226 12.484 137.88 12.6193 137.47 12.694V12.764C137.89 12.8293 138.268 12.9507 138.604 13.128C138.949 13.3053 139.22 13.5573 139.416 13.884C139.612 14.2107 139.71 14.6353 139.71 15.158C139.71 15.7647 139.57 16.2827 139.29 16.712C139.01 17.132 138.608 17.454 138.086 17.678C137.572 17.8927 136.956 18 136.238 18H132.724V8.004H135.58ZM135.832 12.26C136.69 12.26 137.278 12.1247 137.596 11.854C137.913 11.574 138.072 11.1633 138.072 10.622C138.072 10.0713 137.876 9.67933 137.484 9.446C137.101 9.20333 136.485 9.082 135.636 9.082H133.984V12.26H135.832ZM133.984 13.31V16.936H136C136.886 16.936 137.502 16.7633 137.848 16.418C138.193 16.0727 138.366 15.62 138.366 15.06C138.366 14.7053 138.286 14.3973 138.128 14.136C137.978 13.8747 137.722 13.674 137.358 13.534C137.003 13.3847 136.518 13.31 135.902 13.31H133.984ZM148.322 8.004C149.152 8.004 149.848 8.08333 150.408 8.242C150.977 8.40067 151.402 8.662 151.682 9.026C151.971 9.39 152.116 9.87533 152.116 10.482C152.116 10.874 152.041 11.224 151.892 11.532C151.752 11.8307 151.537 12.0827 151.248 12.288C150.968 12.484 150.622 12.6193 150.212 12.694V12.764C150.632 12.8293 151.01 12.9507 151.346 13.128C151.691 13.3053 151.962 13.5573 152.158 13.884C152.354 14.2107 152.452 14.6353 152.452 15.158C152.452 15.7647 152.312 16.2827 152.032 16.712C151.752 17.132 151.35 17.454 150.828 17.678C150.314 17.8927 149.698 18 148.98 18H145.466V8.004H148.322ZM148.574 12.26C149.432 12.26 150.02 12.1247 150.338 11.854C150.655 11.574 150.814 11.1633 150.814 10.622C150.814 10.0713 150.618 9.67933 150.226 9.446C149.843 9.20333 149.227 9.082 148.378 9.082H146.726V12.26H148.574ZM146.726 13.31V16.936H148.742C149.628 16.936 150.244 16.7633 150.59 16.418C150.935 16.0727 151.108 15.62 151.108 15.06C151.108 14.7053 151.028 14.3973 150.87 14.136C150.72 13.8747 150.464 13.674 150.1 13.534C149.745 13.3847 149.26 13.31 148.644 13.31H146.726ZM160.157 18H154.571V8.004H160.157V9.11H155.831V12.232H159.905V13.324H155.831V16.894H160.157V18ZM164.997 8.004C166.303 8.004 167.255 8.26067 167.853 8.774C168.45 9.28733 168.749 10.0107 168.749 10.944C168.749 11.3547 168.679 11.7513 168.539 12.134C168.408 12.5073 168.189 12.8433 167.881 13.142C167.573 13.4407 167.162 13.6787 166.649 13.856C166.135 14.024 165.505 14.108 164.759 14.108H163.611V18H162.351V8.004H164.997ZM164.885 9.082H163.611V13.03H164.619C165.253 13.03 165.781 12.9647 166.201 12.834C166.621 12.694 166.933 12.4747 167.139 12.176C167.344 11.8773 167.447 11.4853 167.447 11C167.447 10.356 167.241 9.87533 166.831 9.558C166.42 9.24067 165.771 9.082 164.885 9.082ZM176.749 18H170.141V16.978L172.759 14.332C173.263 13.828 173.688 13.38 174.033 12.988C174.378 12.596 174.64 12.2133 174.817 11.84C174.994 11.4573 175.083 11.042 175.083 10.594C175.083 10.0433 174.92 9.628 174.593 9.348C174.266 9.05867 173.842 8.914 173.319 8.914C172.834 8.914 172.404 8.998 172.031 9.166C171.667 9.334 171.294 9.56733 170.911 9.866L170.253 9.04C170.514 8.816 170.799 8.61533 171.107 8.438C171.424 8.26067 171.765 8.12067 172.129 8.018C172.502 7.91533 172.899 7.864 173.319 7.864C173.944 7.864 174.481 7.97133 174.929 8.186C175.377 8.40067 175.722 8.70867 175.965 9.11C176.217 9.502 176.343 9.97333 176.343 10.524C176.343 10.916 176.282 11.2893 176.161 11.644C176.04 11.9893 175.867 12.33 175.643 12.666C175.419 13.002 175.148 13.3427 174.831 13.688C174.514 14.0333 174.164 14.3927 173.781 14.766L171.695 16.824V16.88H176.749V18ZM184.758 14.164C184.758 14.9107 184.683 15.6433 184.534 16.362C184.394 17.0807 184.17 17.762 183.862 18.406C183.563 19.0593 183.176 19.6613 182.7 20.212H181.552C181.981 19.624 182.34 18.9987 182.63 18.336C182.919 17.6827 183.138 17.0013 183.288 16.292C183.437 15.5827 183.512 14.8687 183.512 14.15C183.512 13.4127 183.437 12.6847 183.288 11.966C183.138 11.2473 182.919 10.552 182.63 9.88C182.34 9.208 181.976 8.58267 181.538 8.004H182.7C183.176 8.564 183.563 9.17533 183.862 9.838C184.17 10.5007 184.394 11.196 184.534 11.924C184.683 12.652 184.758 13.3987 184.758 14.164Z" fill="white"/>
<path d="M218.496 9.95C218.496 10.2673 218.486 10.566 218.468 10.846C218.458 11.1167 218.444 11.3313 218.426 11.49H218.496C218.71 11.1727 219.004 10.9067 219.378 10.692C219.751 10.4773 220.232 10.37 220.82 10.37C221.753 10.37 222.5 10.6967 223.06 11.35C223.629 11.994 223.914 12.96 223.914 14.248C223.914 15.1067 223.783 15.8253 223.522 16.404C223.27 16.9827 222.91 17.4167 222.444 17.706C221.977 17.9953 221.436 18.14 220.82 18.14C220.232 18.14 219.751 18.0327 219.378 17.818C219.004 17.6033 218.71 17.3467 218.496 17.048H218.398L218.146 18H217.264V7.36H218.496V9.95ZM220.61 11.392C220.078 11.392 219.658 11.4947 219.35 11.7C219.042 11.896 218.822 12.204 218.692 12.624C218.561 13.0347 218.496 13.562 218.496 14.206V14.262C218.496 15.186 218.645 15.8953 218.944 16.39C219.252 16.8753 219.816 17.118 220.638 17.118C221.31 17.118 221.809 16.8707 222.136 16.376C222.472 15.8813 222.64 15.1673 222.64 14.234C222.64 13.2913 222.472 12.582 222.136 12.106C221.809 11.63 221.3 11.392 220.61 11.392ZM229.489 10.356C230.385 10.356 231.062 10.5753 231.519 11.014C231.976 11.4433 232.205 12.1433 232.205 13.114V18H230.987V13.198C230.987 12.5913 230.852 12.1387 230.581 11.84C230.31 11.5413 229.886 11.392 229.307 11.392C228.476 11.392 227.902 11.6253 227.585 12.092C227.268 12.5587 227.109 13.2307 227.109 14.108V18H225.877V10.496H226.871L227.053 11.518H227.123C227.291 11.2567 227.496 11.042 227.739 10.874C227.991 10.6967 228.266 10.566 228.565 10.482C228.864 10.398 229.172 10.356 229.489 10.356ZM235.763 9.95C235.763 10.2673 235.754 10.566 235.735 10.846C235.726 11.1167 235.712 11.3313 235.693 11.49H235.763C235.978 11.1727 236.272 10.9067 236.645 10.692C237.018 10.4773 237.499 10.37 238.087 10.37C239.02 10.37 239.767 10.6967 240.327 11.35C240.896 11.994 241.181 12.96 241.181 14.248C241.181 15.1067 241.05 15.8253 240.789 16.404C240.537 16.9827 240.178 17.4167 239.711 17.706C239.244 17.9953 238.703 18.14 238.087 18.14C237.499 18.14 237.018 18.0327 236.645 17.818C236.272 17.6033 235.978 17.3467 235.763 17.048H235.665L235.413 18H234.531V7.36H235.763V9.95ZM237.877 11.392C237.345 11.392 236.925 11.4947 236.617 11.7C236.309 11.896 236.09 12.204 235.959 12.624C235.828 13.0347 235.763 13.562 235.763 14.206V14.262C235.763 15.186 235.912 15.8953 236.211 16.39C236.519 16.8753 237.084 17.118 237.905 17.118C238.577 17.118 239.076 16.8707 239.403 16.376C239.739 15.8813 239.907 15.1673 239.907 14.234C239.907 13.2913 239.739 12.582 239.403 12.106C239.076 11.63 238.568 11.392 237.877 11.392ZM246.924 18H245.72V11.014C245.72 10.7433 245.72 10.5147 245.72 10.328C245.73 10.1413 245.739 9.96867 245.748 9.81C245.758 9.642 245.767 9.46933 245.776 9.292C245.627 9.44133 245.492 9.56733 245.37 9.67C245.249 9.77267 245.095 9.90333 244.908 10.062L243.844 10.93L243.2 10.104L245.902 8.004H246.924V18ZM254.054 10.356C254.698 10.356 255.249 10.496 255.706 10.776C256.173 11.056 256.527 11.4527 256.77 11.966C257.022 12.47 257.148 13.0627 257.148 13.744V14.486H252.01C252.029 15.3353 252.243 15.984 252.654 16.432C253.074 16.8707 253.657 17.09 254.404 17.09C254.88 17.09 255.3 17.048 255.664 16.964C256.037 16.8707 256.42 16.74 256.812 16.572V17.65C256.429 17.818 256.051 17.9393 255.678 18.014C255.305 18.098 254.861 18.14 254.348 18.14C253.639 18.14 253.009 17.9953 252.458 17.706C251.917 17.4167 251.492 16.9873 251.184 16.418C250.885 15.8393 250.736 15.1347 250.736 14.304C250.736 13.4827 250.871 12.778 251.142 12.19C251.422 11.602 251.809 11.1493 252.304 10.832C252.808 10.5147 253.391 10.356 254.054 10.356ZM254.04 11.364C253.452 11.364 252.985 11.5553 252.64 11.938C252.304 12.3113 252.103 12.834 252.038 13.506H255.86C255.86 13.0767 255.795 12.7033 255.664 12.386C255.533 12.0687 255.333 11.8213 255.062 11.644C254.801 11.4573 254.46 11.364 254.04 11.364ZM265.331 10.496V18H264.323L264.14 17.006H264.085C263.926 17.2673 263.72 17.482 263.468 17.65C263.217 17.818 262.941 17.9393 262.643 18.014C262.344 18.098 262.031 18.14 261.705 18.14C261.107 18.14 260.603 18.0467 260.192 17.86C259.791 17.664 259.488 17.3653 259.282 16.964C259.077 16.5627 258.974 16.0447 258.974 15.41V10.496H260.22V15.326C260.22 15.9233 260.356 16.3713 260.626 16.67C260.897 16.9687 261.317 17.118 261.886 17.118C262.446 17.118 262.885 17.0153 263.202 16.81C263.529 16.5953 263.758 16.2873 263.888 15.886C264.029 15.4753 264.099 14.9807 264.099 14.402V10.496H265.331ZM273.845 12.988C273.845 13.8 273.784 14.5233 273.663 15.158C273.541 15.7927 273.345 16.334 273.075 16.782C272.813 17.2207 272.468 17.5567 272.039 17.79C271.619 18.0233 271.11 18.14 270.513 18.14C269.766 18.14 269.145 17.9347 268.651 17.524C268.165 17.1133 267.801 16.5253 267.559 15.76C267.325 14.9853 267.209 14.0613 267.209 12.988C267.209 11.9053 267.316 10.9813 267.531 10.216C267.755 9.45067 268.109 8.86733 268.595 8.466C269.08 8.05533 269.719 7.85 270.513 7.85C271.259 7.85 271.88 8.05533 272.375 8.466C272.869 8.86733 273.238 9.45067 273.481 10.216C273.723 10.9813 273.845 11.9053 273.845 12.988ZM268.441 12.988C268.441 13.9027 268.506 14.6633 268.637 15.27C268.777 15.8767 268.996 16.334 269.295 16.642C269.603 16.9407 270.009 17.09 270.513 17.09C271.017 17.09 271.418 16.9407 271.717 16.642C272.025 16.3433 272.249 15.8907 272.389 15.284C272.529 14.668 272.599 13.9027 272.599 12.988C272.599 12.0733 272.529 11.3173 272.389 10.72C272.249 10.1133 272.025 9.66067 271.717 9.362C271.418 9.054 271.017 8.9 270.513 8.9C270.009 8.9 269.603 9.054 269.295 9.362C268.996 9.66067 268.777 10.1133 268.637 10.72C268.506 11.3173 268.441 12.0733 268.441 12.988ZM281.815 18H275.207V16.978L277.825 14.332C278.329 13.828 278.753 13.38 279.099 12.988C279.444 12.596 279.705 12.2133 279.883 11.84C280.06 11.4573 280.149 11.042 280.149 10.594C280.149 10.0433 279.985 9.628 279.659 9.348C279.332 9.05867 278.907 8.914 278.385 8.914C277.899 8.914 277.47 8.998 277.097 9.166C276.733 9.334 276.359 9.56733 275.977 9.866L275.319 9.04C275.58 8.816 275.865 8.61533 276.173 8.438C276.49 8.26067 276.831 8.12067 277.195 8.018C277.568 7.91533 277.965 7.864 278.385 7.864C279.01 7.864 279.547 7.97133 279.995 8.186C280.443 8.40067 280.788 8.70867 281.031 9.11C281.283 9.502 281.409 9.97333 281.409 10.524C281.409 10.916 281.348 11.2893 281.227 11.644C281.105 11.9893 280.933 12.33 280.709 12.666C280.485 13.002 280.214 13.3427 279.897 13.688C279.579 14.0333 279.229 14.3927 278.847 14.766L276.761 16.824V16.88H281.815V18ZM287.194 11.448H285.304V18H284.072V11.448H282.756V10.874L284.072 10.454V10.02C284.072 9.376 284.166 8.85333 284.352 8.452C284.548 8.05067 284.828 7.75667 285.192 7.57C285.556 7.38333 285.995 7.29 286.508 7.29C286.807 7.29 287.078 7.318 287.32 7.374C287.572 7.42067 287.787 7.47667 287.964 7.542L287.642 8.508C287.493 8.46133 287.32 8.41467 287.124 8.368C286.928 8.32133 286.728 8.298 286.522 8.298C286.112 8.298 285.804 8.438 285.598 8.718C285.402 8.98867 285.304 9.418 285.304 10.006V10.496H287.194V11.448ZM290.327 14.164L287.737 10.496H289.137L291.069 13.324L292.987 10.496H294.373L291.783 14.164L294.513 18H293.113L291.069 15.004L288.997 18H287.611L290.327 14.164ZM298.619 10.356C299.114 10.356 299.557 10.4493 299.949 10.636C300.35 10.8227 300.691 11.1073 300.971 11.49H301.041L301.209 10.496H302.189V18.126C302.189 18.8353 302.068 19.428 301.825 19.904C301.582 20.3893 301.214 20.7533 300.719 20.996C300.224 21.2387 299.594 21.36 298.829 21.36C298.288 21.36 297.788 21.318 297.331 21.234C296.883 21.1593 296.482 21.0427 296.127 20.884V19.75C296.37 19.8713 296.636 19.974 296.925 20.058C297.214 20.1513 297.527 20.2213 297.863 20.268C298.199 20.3147 298.544 20.338 298.899 20.338C299.543 20.338 300.047 20.1467 300.411 19.764C300.784 19.3907 300.971 18.8773 300.971 18.224V17.93C300.971 17.818 300.976 17.6593 300.985 17.454C300.994 17.2393 301.004 17.09 301.013 17.006H300.957C300.696 17.3887 300.369 17.6733 299.977 17.86C299.594 18.0467 299.146 18.14 298.633 18.14C297.662 18.14 296.902 17.7993 296.351 17.118C295.81 16.4367 295.539 15.4847 295.539 14.262C295.539 13.4593 295.66 12.7687 295.903 12.19C296.155 11.602 296.51 11.1493 296.967 10.832C297.424 10.5147 297.975 10.356 298.619 10.356ZM298.787 11.392C298.367 11.392 298.008 11.504 297.709 11.728C297.42 11.952 297.196 12.2787 297.037 12.708C296.888 13.1373 296.813 13.66 296.813 14.276C296.813 15.2 296.981 15.9093 297.317 16.404C297.662 16.8893 298.162 17.132 298.815 17.132C299.198 17.132 299.524 17.0853 299.795 16.992C300.066 16.8893 300.29 16.7353 300.467 16.53C300.644 16.3153 300.775 16.0447 300.859 15.718C300.943 15.3913 300.985 15.004 300.985 14.556V14.262C300.985 13.5807 300.906 13.03 300.747 12.61C300.598 12.19 300.36 11.882 300.033 11.686C299.706 11.49 299.291 11.392 298.787 11.392ZM309.458 15.928C309.458 16.4133 309.337 16.8193 309.094 17.146C308.852 17.4727 308.506 17.72 308.058 17.888C307.61 18.056 307.078 18.14 306.462 18.14C305.94 18.14 305.487 18.098 305.104 18.014C304.731 17.93 304.4 17.8133 304.11 17.664V16.544C304.409 16.6933 304.768 16.8333 305.188 16.964C305.618 17.0853 306.052 17.146 306.49 17.146C307.116 17.146 307.568 17.048 307.848 16.852C308.128 16.6467 308.268 16.376 308.268 16.04C308.268 15.8533 308.217 15.6853 308.114 15.536C308.012 15.3867 307.825 15.2373 307.554 15.088C307.293 14.9387 306.915 14.7707 306.42 14.584C305.935 14.3973 305.52 14.2107 305.174 14.024C304.829 13.8373 304.563 13.6133 304.376 13.352C304.19 13.0907 304.096 12.7547 304.096 12.344C304.096 11.7093 304.353 11.2193 304.866 10.874C305.389 10.5287 306.07 10.356 306.91 10.356C307.368 10.356 307.792 10.4027 308.184 10.496C308.586 10.58 308.959 10.7013 309.304 10.86L308.884 11.84C308.679 11.7467 308.46 11.6673 308.226 11.602C308.002 11.5273 307.774 11.4713 307.54 11.434C307.307 11.3873 307.069 11.364 306.826 11.364C306.322 11.364 305.935 11.448 305.664 11.616C305.403 11.7747 305.272 11.994 305.272 12.274C305.272 12.4793 305.333 12.6567 305.454 12.806C305.576 12.946 305.776 13.086 306.056 13.226C306.346 13.3567 306.728 13.5153 307.204 13.702C307.68 13.8793 308.086 14.0613 308.422 14.248C308.758 14.4347 309.015 14.6633 309.192 14.934C309.37 15.1953 309.458 15.5267 309.458 15.928ZM311.985 18L316.087 9.124H310.697V8.004H317.403V8.956L313.343 18H311.985ZM325.555 10.496V18H324.547L324.365 17.006H324.309C324.15 17.2673 323.945 17.482 323.693 17.65C323.441 17.818 323.166 17.9393 322.867 18.014C322.568 18.098 322.256 18.14 321.929 18.14C321.332 18.14 320.828 18.0467 320.417 17.86C320.016 17.664 319.712 17.3653 319.507 16.964C319.302 16.5627 319.199 16.0447 319.199 15.41V10.496H320.445V15.326C320.445 15.9233 320.58 16.3713 320.851 16.67C321.122 16.9687 321.542 17.118 322.111 17.118C322.671 17.118 323.11 17.0153 323.427 16.81C323.754 16.5953 323.982 16.2873 324.113 15.886C324.253 15.4753 324.323 14.9807 324.323 14.402V10.496H325.555ZM332.935 18.154C332.935 17.986 332.94 17.79 332.949 17.566C332.959 17.342 332.977 17.1507 333.005 16.992H332.921C332.707 17.3093 332.408 17.58 332.025 17.804C331.652 18.028 331.167 18.14 330.569 18.14C329.664 18.14 328.927 17.818 328.357 17.174C327.797 16.5207 327.517 15.55 327.517 14.262C327.517 13.4033 327.648 12.6847 327.909 12.106C328.171 11.5273 328.535 11.0933 329.001 10.804C329.468 10.5053 330.005 10.356 330.611 10.356C331.199 10.356 331.68 10.468 332.053 10.692C332.427 10.916 332.725 11.1913 332.949 11.518H333.005L333.187 10.496H334.167V21.36H332.935V18.154ZM330.807 17.118C331.321 17.118 331.731 17.0247 332.039 16.838C332.357 16.6513 332.585 16.3667 332.725 15.984C332.865 15.592 332.94 15.1067 332.949 14.528V14.276C332.949 13.324 332.791 12.6053 332.473 12.12C332.156 11.6253 331.591 11.378 330.779 11.378C330.107 11.378 329.608 11.644 329.281 12.176C328.955 12.6987 328.791 13.4033 328.791 14.29C328.791 15.1767 328.955 15.872 329.281 16.376C329.617 16.8707 330.126 17.118 330.807 17.118ZM339.211 10.356C339.705 10.356 340.149 10.4493 340.541 10.636C340.942 10.8227 341.283 11.1073 341.563 11.49H341.633L341.801 10.496H342.781V18.126C342.781 18.8353 342.659 19.428 342.417 19.904C342.174 20.3893 341.805 20.7533 341.311 20.996C340.816 21.2387 340.186 21.36 339.421 21.36C338.879 21.36 338.38 21.318 337.923 21.234C337.475 21.1593 337.073 21.0427 336.719 20.884V19.75C336.961 19.8713 337.227 19.974 337.517 20.058C337.806 20.1513 338.119 20.2213 338.455 20.268C338.791 20.3147 339.136 20.338 339.491 20.338C340.135 20.338 340.639 20.1467 341.003 19.764C341.376 19.3907 341.563 18.8773 341.563 18.224V17.93C341.563 17.818 341.567 17.6593 341.577 17.454C341.586 17.2393 341.595 17.09 341.605 17.006H341.549C341.287 17.3887 340.961 17.6733 340.569 17.86C340.186 18.0467 339.738 18.14 339.225 18.14C338.254 18.14 337.493 17.7993 336.943 17.118C336.401 16.4367 336.131 15.4847 336.131 14.262C336.131 13.4593 336.252 12.7687 336.495 12.19C336.747 11.602 337.101 11.1493 337.559 10.832C338.016 10.5147 338.567 10.356 339.211 10.356ZM339.379 11.392C338.959 11.392 338.599 11.504 338.301 11.728C338.011 11.952 337.787 12.2787 337.629 12.708C337.479 13.1373 337.405 13.66 337.405 14.276C337.405 15.2 337.573 15.9093 337.909 16.404C338.254 16.8893 338.753 17.132 339.407 17.132C339.789 17.132 340.116 17.0853 340.387 16.992C340.657 16.8893 340.881 16.7353 341.059 16.53C341.236 16.3153 341.367 16.0447 341.451 15.718C341.535 15.3913 341.577 15.004 341.577 14.556V14.262C341.577 13.5807 341.497 13.03 341.339 12.61C341.189 12.19 340.951 11.882 340.625 11.686C340.298 11.49 339.883 11.392 339.379 11.392ZM350.008 18H344.52V17.188L348.552 11.448H344.758V10.496H349.91V11.42L345.934 17.048H350.008V18ZM354.75 18.14C354.087 18.14 353.495 18.0047 352.972 17.734C352.459 17.4633 352.053 17.0433 351.754 16.474C351.465 15.9047 351.32 15.1767 351.32 14.29C351.32 13.366 351.474 12.6147 351.782 12.036C352.09 11.4573 352.505 11.0327 353.028 10.762C353.56 10.4913 354.162 10.356 354.834 10.356C355.217 10.356 355.585 10.398 355.94 10.482C356.295 10.5567 356.584 10.65 356.808 10.762L356.43 11.784C356.206 11.7 355.945 11.6207 355.646 11.546C355.347 11.4713 355.067 11.434 354.806 11.434C354.302 11.434 353.887 11.5413 353.56 11.756C353.233 11.9707 352.991 12.288 352.832 12.708C352.673 13.128 352.594 13.6507 352.594 14.276C352.594 14.8733 352.673 15.382 352.832 15.802C352.991 16.222 353.229 16.5393 353.546 16.754C353.863 16.9687 354.26 17.076 354.736 17.076C355.147 17.076 355.506 17.034 355.814 16.95C356.131 16.866 356.421 16.7633 356.682 16.642V17.734C356.43 17.8647 356.15 17.9627 355.842 18.028C355.543 18.1027 355.179 18.14 354.75 18.14ZM364.179 10.342C364.179 10.79 364.095 11.1773 363.927 11.504C363.759 11.8307 363.516 12.0967 363.199 12.302C362.891 12.5073 362.527 12.652 362.107 12.736V12.792C362.909 12.8853 363.507 13.1373 363.899 13.548C364.291 13.9587 364.487 14.4953 364.487 15.158C364.487 15.7367 364.351 16.2547 364.081 16.712C363.81 17.16 363.39 17.51 362.821 17.762C362.261 18.014 361.537 18.14 360.651 18.14C360.128 18.14 359.643 18.098 359.195 18.014C358.747 17.9393 358.317 17.7993 357.907 17.594V16.446C358.327 16.6513 358.779 16.8147 359.265 16.936C359.75 17.048 360.217 17.104 360.665 17.104C361.561 17.104 362.205 16.9313 362.597 16.586C362.998 16.2313 363.199 15.746 363.199 15.13C363.199 14.71 363.087 14.374 362.863 14.122C362.648 13.8607 362.331 13.6693 361.911 13.548C361.491 13.4267 360.987 13.366 360.399 13.366H359.433V12.316H360.413C360.963 12.316 361.421 12.2367 361.785 12.078C362.158 11.9193 362.438 11.7 362.625 11.42C362.821 11.1307 362.919 10.7993 362.919 10.426C362.919 9.94067 362.755 9.56733 362.429 9.306C362.102 9.03533 361.659 8.9 361.099 8.9C360.744 8.9 360.422 8.93733 360.133 9.012C359.843 9.07733 359.573 9.17533 359.321 9.306C359.078 9.42733 358.831 9.572 358.579 9.74L357.963 8.9C358.205 8.71333 358.481 8.54067 358.789 8.382C359.106 8.22333 359.456 8.09733 359.839 8.004C360.221 7.91067 360.637 7.864 361.085 7.864C362.13 7.864 362.905 8.09733 363.409 8.564C363.922 9.03067 364.179 9.62333 364.179 10.342ZM372.568 18H365.96V16.978L368.578 14.332C369.082 13.828 369.507 13.38 369.852 12.988C370.198 12.596 370.459 12.2133 370.636 11.84C370.814 11.4573 370.902 11.042 370.902 10.594C370.902 10.0433 370.739 9.628 370.412 9.348C370.086 9.05867 369.661 8.914 369.138 8.914C368.653 8.914 368.224 8.998 367.85 9.166C367.486 9.334 367.113 9.56733 366.73 9.866L366.072 9.04C366.334 8.816 366.618 8.61533 366.926 8.438C367.244 8.26067 367.584 8.12067 367.948 8.018C368.322 7.91533 368.718 7.864 369.138 7.864C369.764 7.864 370.3 7.97133 370.748 8.186C371.196 8.40067 371.542 8.70867 371.784 9.11C372.036 9.502 372.162 9.97333 372.162 10.524C372.162 10.916 372.102 11.2893 371.98 11.644C371.859 11.9893 371.686 12.33 371.462 12.666C371.238 13.002 370.968 13.3427 370.65 13.688C370.333 14.0333 369.983 14.3927 369.6 14.766L367.514 16.824V16.88H372.568V18ZM382.722 10.356C383.571 10.356 384.206 10.5753 384.626 11.014C385.046 11.4433 385.256 12.1433 385.256 13.114V18H384.038V13.17C384.038 12.582 383.912 12.1387 383.66 11.84C383.417 11.5413 383.035 11.392 382.512 11.392C381.784 11.392 381.261 11.602 380.944 12.022C380.636 12.442 380.482 13.0533 380.482 13.856V18H379.264V13.17C379.264 12.778 379.208 12.4513 379.096 12.19C378.984 11.9193 378.816 11.7187 378.592 11.588C378.368 11.4573 378.079 11.392 377.724 11.392C377.22 11.392 376.823 11.4993 376.534 11.714C376.245 11.9193 376.035 12.2227 375.904 12.624C375.783 13.0253 375.722 13.52 375.722 14.108V18H374.49V10.496H375.484L375.666 11.518H375.736C375.895 11.2567 376.086 11.042 376.31 10.874C376.543 10.6967 376.8 10.566 377.08 10.482C377.36 10.398 377.649 10.356 377.948 10.356C378.527 10.356 379.007 10.4587 379.39 10.664C379.782 10.8693 380.067 11.1867 380.244 11.616H380.314C380.566 11.1867 380.907 10.8693 381.336 10.664C381.775 10.4587 382.237 10.356 382.722 10.356ZM393.664 12.274C393.664 12.8433 393.622 13.4127 393.538 13.982C393.463 14.542 393.328 15.074 393.132 15.578C392.936 16.0727 392.665 16.516 392.32 16.908C391.975 17.2907 391.536 17.594 391.004 17.818C390.472 18.0327 389.828 18.14 389.072 18.14C388.885 18.14 388.666 18.126 388.414 18.098C388.171 18.0793 387.971 18.0467 387.812 18V16.95C387.98 17.006 388.176 17.0527 388.4 17.09C388.624 17.118 388.839 17.132 389.044 17.132C389.697 17.132 390.234 17.0247 390.654 16.81C391.083 16.5953 391.424 16.306 391.676 15.942C391.928 15.5687 392.11 15.1393 392.222 14.654C392.334 14.1593 392.399 13.6413 392.418 13.1H392.334C392.194 13.3147 392.017 13.5107 391.802 13.688C391.587 13.8653 391.326 14.0053 391.018 14.108C390.719 14.2107 390.365 14.262 389.954 14.262C389.385 14.262 388.881 14.1453 388.442 13.912C388.013 13.6693 387.677 13.324 387.434 12.876C387.201 12.428 387.084 11.882 387.084 11.238C387.084 10.538 387.215 9.936 387.476 9.432C387.747 8.928 388.12 8.54067 388.596 8.27C389.072 7.99933 389.632 7.864 390.276 7.864C390.752 7.864 391.195 7.95733 391.606 8.144C392.017 8.32133 392.376 8.592 392.684 8.956C392.992 9.32 393.23 9.77733 393.398 10.328C393.575 10.8787 393.664 11.5273 393.664 12.274ZM390.276 8.9C389.697 8.9 389.221 9.09133 388.848 9.474C388.484 9.85667 388.302 10.44 388.302 11.224C388.302 11.868 388.456 12.3767 388.764 12.75C389.081 13.114 389.567 13.296 390.22 13.296C390.668 13.296 391.055 13.2073 391.382 13.03C391.709 12.8433 391.961 12.61 392.138 12.33C392.325 12.05 392.418 11.7607 392.418 11.462C392.418 11.1633 392.371 10.8647 392.278 10.566C392.194 10.258 392.063 9.978 391.886 9.726C391.709 9.474 391.485 9.27333 391.214 9.124C390.943 8.97467 390.631 8.9 390.276 8.9ZM398.246 18.14C397.313 18.14 396.566 17.818 396.006 17.174C395.446 16.5207 395.166 15.55 395.166 14.262C395.166 12.974 395.446 12.0033 396.006 11.35C396.575 10.6873 397.327 10.356 398.26 10.356C398.652 10.356 398.993 10.4073 399.282 10.51C399.571 10.6033 399.823 10.734 400.038 10.902C400.253 11.07 400.435 11.2567 400.584 11.462H400.668C400.659 11.3407 400.64 11.1633 400.612 10.93C400.593 10.6873 400.584 10.496 400.584 10.356V7.36H401.816V18H400.822L400.64 16.992H400.584C400.435 17.2067 400.253 17.4027 400.038 17.58C399.823 17.748 399.567 17.8833 399.268 17.986C398.979 18.0887 398.638 18.14 398.246 18.14ZM398.442 17.118C399.235 17.118 399.791 16.9033 400.108 16.474C400.435 16.0353 400.598 15.3773 400.598 14.5V14.276C400.598 13.3427 400.444 12.6287 400.136 12.134C399.828 11.63 399.259 11.378 398.428 11.378C397.765 11.378 397.266 11.644 396.93 12.176C396.603 12.6987 396.44 13.4033 396.44 14.29C396.44 15.186 396.603 15.8813 396.93 16.376C397.266 16.8707 397.77 17.118 398.442 17.118ZM406.859 10.356C407.354 10.356 407.797 10.4493 408.189 10.636C408.59 10.8227 408.931 11.1073 409.211 11.49H409.281L409.449 10.496H410.429V18.126C410.429 18.8353 410.308 19.428 410.065 19.904C409.822 20.3893 409.454 20.7533 408.959 20.996C408.464 21.2387 407.834 21.36 407.069 21.36C406.528 21.36 406.028 21.318 405.571 21.234C405.123 21.1593 404.722 21.0427 404.367 20.884V19.75C404.61 19.8713 404.876 19.974 405.165 20.058C405.454 20.1513 405.767 20.2213 406.103 20.268C406.439 20.3147 406.784 20.338 407.139 20.338C407.783 20.338 408.287 20.1467 408.651 19.764C409.024 19.3907 409.211 18.8773 409.211 18.224V17.93C409.211 17.818 409.216 17.6593 409.225 17.454C409.234 17.2393 409.244 17.09 409.253 17.006H409.197C408.936 17.3887 408.609 17.6733 408.217 17.86C407.834 18.0467 407.386 18.14 406.873 18.14C405.902 18.14 405.142 17.7993 404.591 17.118C404.05 16.4367 403.779 15.4847 403.779 14.262C403.779 13.4593 403.9 12.7687 404.143 12.19C404.395 11.602 404.75 11.1493 405.207 10.832C405.664 10.5147 406.215 10.356 406.859 10.356ZM407.027 11.392C406.607 11.392 406.248 11.504 405.949 11.728C405.66 11.952 405.436 12.2787 405.277 12.708C405.128 13.1373 405.053 13.66 405.053 14.276C405.053 15.2 405.221 15.9093 405.557 16.404C405.902 16.8893 406.402 17.132 407.055 17.132C407.438 17.132 407.764 17.0853 408.035 16.992C408.306 16.8893 408.53 16.7353 408.707 16.53C408.884 16.3153 409.015 16.0447 409.099 15.718C409.183 15.3913 409.225 15.004 409.225 14.556V14.262C409.225 13.5807 409.146 13.03 408.987 12.61C408.838 12.19 408.6 11.882 408.273 11.686C407.946 11.49 407.531 11.392 407.027 11.392ZM414.59 14.164L412 10.496H413.4L415.332 13.324L417.25 10.496H418.636L416.046 14.164L418.776 18H417.376L415.332 15.004L413.26 18H411.874L414.59 14.164ZM422.609 18.14C421.676 18.14 420.929 17.818 420.369 17.174C419.809 16.5207 419.529 15.55 419.529 14.262C419.529 12.974 419.809 12.0033 420.369 11.35C420.938 10.6873 421.69 10.356 422.623 10.356C423.015 10.356 423.356 10.4073 423.645 10.51C423.934 10.6033 424.186 10.734 424.401 10.902C424.616 11.07 424.798 11.2567 424.947 11.462H425.031C425.022 11.3407 425.003 11.1633 424.975 10.93C424.956 10.6873 424.947 10.496 424.947 10.356V7.36H426.179V18H425.185L425.003 16.992H424.947C424.798 17.2067 424.616 17.4027 424.401 17.58C424.186 17.748 423.93 17.8833 423.631 17.986C423.342 18.0887 423.001 18.14 422.609 18.14ZM422.805 17.118C423.598 17.118 424.154 16.9033 424.471 16.474C424.798 16.0353 424.961 15.3773 424.961 14.5V14.276C424.961 13.3427 424.807 12.6287 424.499 12.134C424.191 11.63 423.622 11.378 422.791 11.378C422.128 11.378 421.629 11.644 421.293 12.176C420.966 12.6987 420.803 13.4033 420.803 14.29C420.803 15.186 420.966 15.8813 421.293 16.376C421.629 16.8707 422.133 17.118 422.805 17.118ZM432.132 10.356C433.056 10.356 433.798 10.678 434.358 11.322C434.928 11.966 435.212 12.9367 435.212 14.234C435.212 15.0833 435.082 15.802 434.82 16.39C434.568 16.9687 434.209 17.4073 433.742 17.706C433.285 17.9953 432.744 18.14 432.118 18.14C431.736 18.14 431.395 18.0887 431.096 17.986C430.798 17.8833 430.541 17.7527 430.326 17.594C430.121 17.426 429.944 17.244 429.794 17.048H429.71C429.729 17.2067 429.748 17.4073 429.766 17.65C429.785 17.8927 429.794 18.1027 429.794 18.28V21.36H428.562V10.496H429.57L429.738 11.518H429.794C429.944 11.3033 430.121 11.1073 430.326 10.93C430.541 10.7527 430.793 10.6127 431.082 10.51C431.381 10.4073 431.731 10.356 432.132 10.356ZM431.908 11.392C431.404 11.392 430.998 11.49 430.69 11.686C430.382 11.8727 430.158 12.1573 430.018 12.54C429.878 12.9227 429.804 13.408 429.794 13.996V14.234C429.794 14.85 429.86 15.3727 429.99 15.802C430.121 16.2313 430.34 16.558 430.648 16.782C430.966 17.006 431.395 17.118 431.936 17.118C432.394 17.118 432.767 16.992 433.056 16.74C433.355 16.488 433.574 16.1473 433.714 15.718C433.864 15.2793 433.938 14.78 433.938 14.22C433.938 13.3613 433.77 12.6753 433.434 12.162C433.108 11.6487 432.599 11.392 431.908 11.392ZM438.68 14.164L436.09 10.496H437.49L439.422 13.324L441.34 10.496H442.726L440.136 14.164L442.866 18H441.466L439.422 15.004L437.35 18H435.964L438.68 14.164ZM443.136 10.496H444.452L446.076 14.766C446.17 15.018 446.254 15.2607 446.328 15.494C446.412 15.7273 446.487 15.956 446.552 16.18C446.618 16.3947 446.669 16.6047 446.706 16.81H446.762C446.818 16.5767 446.907 16.2733 447.028 15.9C447.15 15.5173 447.276 15.1347 447.406 14.752L448.932 10.496H450.262L447.028 19.036C446.851 19.5027 446.641 19.9087 446.398 20.254C446.165 20.6087 445.876 20.8793 445.53 21.066C445.194 21.262 444.784 21.36 444.298 21.36C444.074 21.36 443.878 21.346 443.71 21.318C443.542 21.2993 443.398 21.276 443.276 21.248V20.268C443.379 20.2867 443.5 20.3053 443.64 20.324C443.79 20.3427 443.944 20.352 444.102 20.352C444.392 20.352 444.639 20.296 444.844 20.184C445.059 20.0813 445.241 19.9273 445.39 19.722C445.54 19.526 445.666 19.2927 445.768 19.022L446.16 18.028L443.136 10.496ZM452.681 10.482C452.681 10.6593 452.672 10.8413 452.653 11.028C452.644 11.2147 452.63 11.3827 452.611 11.532H452.695C452.854 11.2707 453.054 11.056 453.297 10.888C453.54 10.72 453.81 10.594 454.109 10.51C454.408 10.4167 454.716 10.37 455.033 10.37C455.64 10.37 456.144 10.468 456.545 10.664C456.956 10.8507 457.264 11.1447 457.469 11.546C457.674 11.9473 457.777 12.47 457.777 13.114V18H456.559V13.198C456.559 12.5913 456.424 12.1387 456.153 11.84C455.882 11.5413 455.458 11.392 454.879 11.392C454.319 11.392 453.88 11.4993 453.563 11.714C453.246 11.9193 453.017 12.2273 452.877 12.638C452.746 13.0393 452.681 13.534 452.681 14.122V18H451.449V7.36H452.681V10.482ZM465.815 10.342C465.815 10.79 465.731 11.1773 465.563 11.504C465.395 11.8307 465.153 12.0967 464.835 12.302C464.527 12.5073 464.163 12.652 463.743 12.736V12.792C464.546 12.8853 465.143 13.1373 465.535 13.548C465.927 13.9587 466.123 14.4953 466.123 15.158C466.123 15.7367 465.988 16.2547 465.717 16.712C465.447 17.16 465.027 17.51 464.457 17.762C463.897 18.014 463.174 18.14 462.287 18.14C461.765 18.14 461.279 18.098 460.831 18.014C460.383 17.9393 459.954 17.7993 459.543 17.594V16.446C459.963 16.6513 460.416 16.8147 460.901 16.936C461.387 17.048 461.853 17.104 462.301 17.104C463.197 17.104 463.841 16.9313 464.233 16.586C464.635 16.2313 464.835 15.746 464.835 15.13C464.835 14.71 464.723 14.374 464.499 14.122C464.285 13.8607 463.967 13.6693 463.547 13.548C463.127 13.4267 462.623 13.366 462.035 13.366H461.069V12.316H462.049C462.6 12.316 463.057 12.2367 463.421 12.078C463.795 11.9193 464.075 11.7 464.261 11.42C464.457 11.1307 464.555 10.7993 464.555 10.426C464.555 9.94067 464.392 9.56733 464.065 9.306C463.739 9.03533 463.295 8.9 462.735 8.9C462.381 8.9 462.059 8.93733 461.769 9.012C461.48 9.07733 461.209 9.17533 460.957 9.306C460.715 9.42733 460.467 9.572 460.215 9.74L459.599 8.9C459.842 8.71333 460.117 8.54067 460.425 8.382C460.743 8.22333 461.093 8.09733 461.475 8.004C461.858 7.91067 462.273 7.864 462.721 7.864C463.767 7.864 464.541 8.09733 465.045 8.564C465.559 9.03067 465.815 9.62333 465.815 10.342ZM470.621 17.132C470.808 17.132 470.999 17.118 471.195 17.09C471.391 17.0527 471.55 17.0153 471.671 16.978V17.916C471.54 17.9813 471.354 18.0327 471.111 18.07C470.868 18.1167 470.635 18.14 470.411 18.14C470.019 18.14 469.655 18.0747 469.319 17.944C468.992 17.804 468.726 17.566 468.521 17.23C468.316 16.894 468.213 16.4227 468.213 15.816V11.448H467.149V10.86L468.227 10.37L468.717 8.774H469.445V10.496H471.615V11.448H469.445V15.788C469.445 16.2453 469.552 16.586 469.767 16.81C469.991 17.0247 470.276 17.132 470.621 17.132ZM472.292 21.36C472.058 21.36 471.853 21.3413 471.676 21.304C471.498 21.276 471.344 21.2387 471.214 21.192V20.198C471.354 20.2353 471.498 20.268 471.648 20.296C471.797 20.324 471.96 20.338 472.138 20.338C472.436 20.338 472.684 20.254 472.88 20.086C473.076 19.9273 473.174 19.6193 473.174 19.162V10.496H474.406V19.12C474.406 19.5867 474.331 19.988 474.182 20.324C474.032 20.66 473.804 20.9167 473.496 21.094C473.188 21.2713 472.786 21.36 472.292 21.36ZM473.076 8.466C473.076 8.19533 473.146 7.99933 473.286 7.878C473.426 7.74733 473.598 7.682 473.804 7.682C473.99 7.682 474.154 7.74733 474.294 7.878C474.443 7.99933 474.518 8.19533 474.518 8.466C474.518 8.72733 474.443 8.92333 474.294 9.054C474.154 9.18467 473.99 9.25 473.804 9.25C473.598 9.25 473.426 9.18467 473.286 9.054C473.146 8.92333 473.076 8.72733 473.076 8.466ZM485.015 10.356C485.864 10.356 486.499 10.5753 486.919 11.014C487.339 11.4433 487.549 12.1433 487.549 13.114V18H486.331V13.17C486.331 12.582 486.205 12.1387 485.953 11.84C485.71 11.5413 485.328 11.392 484.805 11.392C484.077 11.392 483.554 11.602 483.237 12.022C482.929 12.442 482.775 13.0533 482.775 13.856V18H481.557V13.17C481.557 12.778 481.501 12.4513 481.389 12.19C481.277 11.9193 481.109 11.7187 480.885 11.588C480.661 11.4573 480.372 11.392 480.017 11.392C479.513 11.392 479.116 11.4993 478.827 11.714C478.538 11.9193 478.328 12.2227 478.197 12.624C478.076 13.0253 478.015 13.52 478.015 14.108V18H476.783V10.496H477.777L477.959 11.518H478.029C478.188 11.2567 478.379 11.042 478.603 10.874C478.836 10.6967 479.093 10.566 479.373 10.482C479.653 10.398 479.942 10.356 480.241 10.356C480.82 10.356 481.3 10.4587 481.683 10.664C482.075 10.8693 482.36 11.1867 482.537 11.616H482.607C482.859 11.1867 483.2 10.8693 483.629 10.664C484.068 10.4587 484.53 10.356 485.015 10.356ZM492.527 18.14C491.594 18.14 490.847 17.818 490.287 17.174C489.727 16.5207 489.447 15.55 489.447 14.262C489.447 12.974 489.727 12.0033 490.287 11.35C490.856 10.6873 491.608 10.356 492.541 10.356C492.933 10.356 493.274 10.4073 493.563 10.51C493.852 10.6033 494.104 10.734 494.319 10.902C494.534 11.07 494.716 11.2567 494.865 11.462H494.949C494.94 11.3407 494.921 11.1633 494.893 10.93C494.874 10.6873 494.865 10.496 494.865 10.356V7.36H496.097V18H495.103L494.921 16.992H494.865C494.716 17.2067 494.534 17.4027 494.319 17.58C494.104 17.748 493.848 17.8833 493.549 17.986C493.26 18.0887 492.919 18.14 492.527 18.14ZM492.723 17.118C493.516 17.118 494.072 16.9033 494.389 16.474C494.716 16.0353 494.879 15.3773 494.879 14.5V14.276C494.879 13.3427 494.725 12.6287 494.417 12.134C494.109 11.63 493.54 11.378 492.709 11.378C492.046 11.378 491.547 11.644 491.211 12.176C490.884 12.6987 490.721 13.4033 490.721 14.29C490.721 15.186 490.884 15.8813 491.211 16.376C491.547 16.8707 492.051 17.118 492.723 17.118ZM499.194 18L503.296 9.124H497.906V8.004H504.612V8.956L500.552 18H499.194ZM514.724 10.356C515.573 10.356 516.208 10.5753 516.628 11.014C517.048 11.4433 517.258 12.1433 517.258 13.114V18H516.04V13.17C516.04 12.582 515.914 12.1387 515.662 11.84C515.419 11.5413 515.037 11.392 514.514 11.392C513.786 11.392 513.263 11.602 512.946 12.022C512.638 12.442 512.484 13.0533 512.484 13.856V18H511.266V13.17C511.266 12.778 511.21 12.4513 511.098 12.19C510.986 11.9193 510.818 11.7187 510.594 11.588C510.37 11.4573 510.081 11.392 509.726 11.392C509.222 11.392 508.825 11.4993 508.536 11.714C508.247 11.9193 508.037 12.2227 507.906 12.624C507.785 13.0253 507.724 13.52 507.724 14.108V18H506.492V10.496H507.486L507.668 11.518H507.738C507.897 11.2567 508.088 11.042 508.312 10.874C508.545 10.6967 508.802 10.566 509.082 10.482C509.362 10.398 509.651 10.356 509.95 10.356C510.529 10.356 511.009 10.4587 511.392 10.664C511.784 10.8693 512.069 11.1867 512.246 11.616H512.316C512.568 11.1867 512.909 10.8693 513.338 10.664C513.777 10.4587 514.239 10.356 514.724 10.356ZM526.114 15.732H524.658V18H523.468V15.732H518.68V14.682L523.384 7.948H524.658V14.626H526.114V15.732ZM523.468 11.476C523.468 11.2333 523.468 11.014 523.468 10.818C523.477 10.6127 523.487 10.4213 523.496 10.244C523.505 10.0667 523.51 9.89867 523.51 9.74C523.519 9.572 523.529 9.41333 523.538 9.264H523.482C523.407 9.44133 523.314 9.63267 523.202 9.838C523.09 10.0433 522.983 10.216 522.88 10.356L519.884 14.626H523.468V11.476ZM530.248 11.868C530.929 11.868 531.522 11.9847 532.026 12.218C532.53 12.4513 532.917 12.7873 533.188 13.226C533.468 13.6553 533.608 14.1827 533.608 14.808C533.608 15.4987 533.458 16.096 533.16 16.6C532.861 17.0947 532.432 17.4773 531.872 17.748C531.321 18.0093 530.654 18.14 529.87 18.14C529.356 18.14 528.871 18.0933 528.414 18C527.966 17.9067 527.588 17.7713 527.28 17.594V16.432C527.616 16.6373 528.022 16.8007 528.498 16.922C528.983 17.034 529.445 17.09 529.884 17.09C530.378 17.09 530.808 17.0153 531.172 16.866C531.545 16.7073 531.834 16.4693 532.04 16.152C532.245 15.8253 532.348 15.4193 532.348 14.934C532.348 14.2807 532.147 13.7813 531.746 13.436C531.344 13.0813 530.71 12.904 529.842 12.904C529.58 12.904 529.282 12.9273 528.946 12.974C528.61 13.0207 528.339 13.0673 528.134 13.114L527.518 12.722L527.896 8.004H532.908V9.124H528.946L528.708 12.022C528.866 11.994 529.081 11.9613 529.352 11.924C529.622 11.8867 529.921 11.868 530.248 11.868ZM540.444 18H534.956V17.188L538.988 11.448H535.194V10.496H540.346V11.42L536.37 17.048H540.444V18ZM544.836 11.868C545.517 11.868 546.11 11.9847 546.614 12.218C547.118 12.4513 547.505 12.7873 547.776 13.226C548.056 13.6553 548.196 14.1827 548.196 14.808C548.196 15.4987 548.046 16.096 547.748 16.6C547.449 17.0947 547.02 17.4773 546.46 17.748C545.909 18.0093 545.242 18.14 544.458 18.14C543.944 18.14 543.459 18.0933 543.002 18C542.554 17.9067 542.176 17.7713 541.868 17.594V16.432C542.204 16.6373 542.61 16.8007 543.086 16.922C543.571 17.034 544.033 17.09 544.472 17.09C544.966 17.09 545.396 17.0153 545.76 16.866C546.133 16.7073 546.422 16.4693 546.628 16.152C546.833 15.8253 546.936 15.4193 546.936 14.934C546.936 14.2807 546.735 13.7813 546.334 13.436C545.932 13.0813 545.298 12.904 544.43 12.904C544.168 12.904 543.87 12.9273 543.534 12.974C543.198 13.0207 542.927 13.0673 542.722 13.114L542.106 12.722L542.484 8.004H547.496V9.124H543.534L543.296 12.022C543.454 11.994 543.669 11.9613 543.94 11.924C544.21 11.8867 544.509 11.868 544.836 11.868ZM550.901 18L555.003 9.124H549.613V8.004H556.319V8.956L552.259 18H550.901Z" fill="#555555"/>
</svg>
