<svg width="530" height="25" viewBox="0 0 530 25" fill="none" xmlns="http://www.w3.org/2000/svg">
<rect width="530" height="25" fill="#555555"/>
<rect x="160" width="370" height="25" fill="#F1B90A"/>
<path d="M23.005 8.004C23.8357 8.004 24.531 8.08333 25.091 8.242C25.6603 8.40067 26.085 8.662 26.365 9.026C26.6543 9.39 26.799 9.87533 26.799 10.482C26.799 10.874 26.7243 11.224 26.575 11.532C26.435 11.8307 26.2203 12.0827 25.931 12.288C25.651 12.484 25.3057 12.6193 24.895 12.694V12.764C25.315 12.8293 25.693 12.9507 26.029 13.128C26.3743 13.3053 26.645 13.5573 26.841 13.884C27.037 14.2107 27.135 14.6353 27.135 15.158C27.135 15.7647 26.995 16.2827 26.715 16.712C26.435 17.132 26.0337 17.454 25.511 17.678C24.9977 17.8927 24.3817 18 23.663 18H20.149V8.004H23.005ZM23.257 12.26C24.1157 12.26 24.7037 12.1247 25.021 11.854C25.3383 11.574 25.497 11.1633 25.497 10.622C25.497 10.0713 25.301 9.67933 24.909 9.446C24.5263 9.20333 23.9103 9.082 23.061 9.082H21.409V12.26H23.257ZM21.409 13.31V16.936H23.425C24.3117 16.936 24.9277 16.7633 25.273 16.418C25.6183 16.0727 25.791 15.62 25.791 15.06C25.791 14.7053 25.7117 14.3973 25.553 14.136C25.4037 13.8747 25.147 13.674 24.783 13.534C24.4283 13.3847 23.943 13.31 23.327 13.31H21.409ZM36.8565 14.472C36.8565 15.1627 36.7165 15.788 36.4365 16.348C36.1565 16.8987 35.7272 17.3373 35.1485 17.664C34.5792 17.9813 33.8512 18.14 32.9645 18.14C31.7232 18.14 30.7758 17.804 30.1225 17.132C29.4785 16.4507 29.1565 15.5547 29.1565 14.444V8.004H30.4165V14.486C30.4165 15.298 30.6312 15.928 31.0605 16.376C31.4992 16.824 32.1572 17.048 33.0345 17.048C33.6412 17.048 34.1312 16.9407 34.5045 16.726C34.8872 16.502 35.1672 16.1987 35.3445 15.816C35.5218 15.424 35.6105 14.976 35.6105 14.472V8.004H36.8565V14.472ZM45.1647 15.326C45.1647 15.9233 45.0201 16.432 44.7307 16.852C44.4414 17.2627 44.0261 17.58 43.4847 17.804C42.9527 18.028 42.3227 18.14 41.5947 18.14C41.2214 18.14 40.8621 18.1213 40.5167 18.084C40.1807 18.0467 39.8727 17.9953 39.5927 17.93C39.3127 17.8553 39.0654 17.7667 38.8507 17.664V16.46C39.1867 16.6093 39.6021 16.7447 40.0967 16.866C40.6007 16.9873 41.1187 17.048 41.6507 17.048C42.1454 17.048 42.5607 16.9827 42.8967 16.852C43.2327 16.7213 43.4847 16.5347 43.6527 16.292C43.8207 16.0493 43.9047 15.7647 43.9047 15.438C43.9047 15.1113 43.8347 14.836 43.6947 14.612C43.5547 14.388 43.3121 14.1827 42.9667 13.996C42.6307 13.8 42.1594 13.5947 41.5527 13.38C41.1234 13.2213 40.7454 13.0533 40.4187 12.876C40.1014 12.6893 39.8354 12.4793 39.6207 12.246C39.4061 12.0127 39.2427 11.7467 39.1307 11.448C39.0281 11.1493 38.9767 10.804 38.9767 10.412C38.9767 9.88 39.1121 9.42733 39.3827 9.054C39.6534 8.67133 40.0267 8.37733 40.5027 8.172C40.9881 7.96667 41.5434 7.864 42.1687 7.864C42.7194 7.864 43.2234 7.91533 43.6807 8.018C44.1381 8.12067 44.5534 8.256 44.9267 8.424L44.5347 9.502C44.1894 9.35267 43.8114 9.22667 43.4007 9.124C42.9994 9.02133 42.5794 8.97 42.1407 8.97C41.7207 8.97 41.3707 9.03067 41.0907 9.152C40.8107 9.27333 40.6007 9.446 40.4607 9.67C40.3207 9.88467 40.2507 10.1367 40.2507 10.426C40.2507 10.762 40.3207 11.042 40.4607 11.266C40.6007 11.49 40.8294 11.6907 41.1467 11.868C41.4641 12.0453 41.8934 12.2367 42.4347 12.442C43.0227 12.6567 43.5174 12.89 43.9187 13.142C44.3294 13.3847 44.6374 13.6787 44.8427 14.024C45.0574 14.3693 45.1647 14.8033 45.1647 15.326ZM55.1863 12.904C55.1863 14.024 54.9763 14.962 54.5563 15.718C54.1456 16.474 53.553 17.0433 52.7783 17.426C52.0036 17.8087 51.0656 18 49.9643 18H47.1783V8.004H50.2583C51.2663 8.004 52.139 8.19067 52.8763 8.564C53.6136 8.93733 54.183 9.488 54.5843 10.216C54.9856 10.9347 55.1863 11.8307 55.1863 12.904ZM53.8563 12.946C53.8563 12.0593 53.707 11.3313 53.4083 10.762C53.119 10.1927 52.6896 9.77267 52.1203 9.502C51.5603 9.222 50.879 9.082 50.0763 9.082H48.4383V16.922H49.7963C51.1496 16.922 52.1623 16.5907 52.8343 15.928C53.5156 15.256 53.8563 14.262 53.8563 12.946ZM60.2436 14.164C60.2436 13.3987 60.3136 12.652 60.4536 11.924C60.6029 11.196 60.8316 10.5007 61.1396 9.838C61.4476 9.17533 61.8349 8.564 62.3016 8.004H63.4636C63.0343 8.58267 62.6703 9.208 62.3716 9.88C62.0823 10.552 61.8629 11.2473 61.7136 11.966C61.5643 12.6847 61.4896 13.4127 61.4896 14.15C61.4896 14.8687 61.5643 15.5827 61.7136 16.292C61.8629 17.0013 62.0823 17.6827 62.3716 18.336C62.6609 18.9987 63.0203 19.624 63.4496 20.212H62.3016C61.8349 19.6613 61.4476 19.0593 61.1396 18.406C60.8316 17.762 60.6029 17.0807 60.4536 16.362C60.3136 15.6433 60.2436 14.9107 60.2436 14.164ZM71.7316 8.004C72.5622 8.004 73.2576 8.08333 73.8176 8.242C74.3869 8.40067 74.8116 8.662 75.0916 9.026C75.3809 9.39 75.5256 9.87533 75.5256 10.482C75.5256 10.874 75.4509 11.224 75.3016 11.532C75.1616 11.8307 74.9469 12.0827 74.6576 12.288C74.3776 12.484 74.0322 12.6193 73.6216 12.694V12.764C74.0416 12.8293 74.4196 12.9507 74.7556 13.128C75.1009 13.3053 75.3716 13.5573 75.5676 13.884C75.7636 14.2107 75.8616 14.6353 75.8616 15.158C75.8616 15.7647 75.7216 16.2827 75.4416 16.712C75.1616 17.132 74.7602 17.454 74.2376 17.678C73.7242 17.8927 73.1082 18 72.3896 18H68.8756V8.004H71.7316ZM71.9836 12.26C72.8422 12.26 73.4302 12.1247 73.7476 11.854C74.0649 11.574 74.2236 11.1633 74.2236 10.622C74.2236 10.0713 74.0276 9.67933 73.6356 9.446C73.2529 9.20333 72.6369 9.082 71.7876 9.082H70.1356V12.26H71.9836ZM70.1356 13.31V16.936H72.1516C73.0382 16.936 73.6542 16.7633 73.9996 16.418C74.3449 16.0727 74.5176 15.62 74.5176 15.06C74.5176 14.7053 74.4382 14.3973 74.2796 14.136C74.1302 13.8747 73.8736 13.674 73.5096 13.534C73.1549 13.3847 72.6696 13.31 72.0536 13.31H70.1356ZM85.905 18H84.435L79.087 9.698H79.031C79.0404 9.866 79.0497 10.0527 79.059 10.258C79.0777 10.4633 79.0917 10.6873 79.101 10.93C79.1104 11.1633 79.1197 11.406 79.129 11.658C79.1384 11.91 79.143 12.162 79.143 12.414V18H77.981V8.004H79.437L84.771 16.278H84.827C84.8177 16.166 84.8084 16.012 84.799 15.816C84.7897 15.6107 84.7804 15.3867 84.771 15.144C84.7617 14.892 84.7524 14.6353 84.743 14.374C84.7337 14.1127 84.729 13.87 84.729 13.646V8.004H85.905V18ZM91.4738 8.004C92.3044 8.004 92.9998 8.08333 93.5598 8.242C94.1291 8.40067 94.5538 8.662 94.8338 9.026C95.1231 9.39 95.2678 9.87533 95.2678 10.482C95.2678 10.874 95.1931 11.224 95.0438 11.532C94.9038 11.8307 94.6891 12.0827 94.3998 12.288C94.1198 12.484 93.7744 12.6193 93.3638 12.694V12.764C93.7838 12.8293 94.1618 12.9507 94.4978 13.128C94.8431 13.3053 95.1138 13.5573 95.3098 13.884C95.5058 14.2107 95.6038 14.6353 95.6038 15.158C95.6038 15.7647 95.4638 16.2827 95.1838 16.712C94.9038 17.132 94.5024 17.454 93.9798 17.678C93.4664 17.8927 92.8504 18 92.1318 18H88.6178V8.004H91.4738ZM91.7258 12.26C92.5844 12.26 93.1724 12.1247 93.4898 11.854C93.8071 11.574 93.9658 11.1633 93.9658 10.622C93.9658 10.0713 93.7698 9.67933 93.3778 9.446C92.9951 9.20333 92.3791 9.082 91.5298 9.082H89.8778V12.26H91.7258ZM89.8778 13.31V16.936H91.8938C92.7804 16.936 93.3964 16.7633 93.7418 16.418C94.0871 16.0727 94.2598 15.62 94.2598 15.06C94.2598 14.7053 94.1804 14.3973 94.0218 14.136C93.8724 13.8747 93.6158 13.674 93.2518 13.534C92.8971 13.3847 92.4118 13.31 91.7958 13.31H89.8778ZM104.216 8.004C105.047 8.004 105.742 8.08333 106.302 8.242C106.871 8.40067 107.296 8.662 107.576 9.026C107.865 9.39 108.01 9.87533 108.01 10.482C108.01 10.874 107.935 11.224 107.786 11.532C107.646 11.8307 107.431 12.0827 107.142 12.288C106.862 12.484 106.517 12.6193 106.106 12.694V12.764C106.526 12.8293 106.904 12.9507 107.24 13.128C107.585 13.3053 107.856 13.5573 108.052 13.884C108.248 14.2107 108.346 14.6353 108.346 15.158C108.346 15.7647 108.206 16.2827 107.926 16.712C107.646 17.132 107.245 17.454 106.722 17.678C106.209 17.8927 105.593 18 104.874 18H101.36V8.004H104.216ZM104.468 12.26C105.327 12.26 105.915 12.1247 106.232 11.854C106.549 11.574 106.708 11.1633 106.708 10.622C106.708 10.0713 106.512 9.67933 106.12 9.446C105.737 9.20333 105.121 9.082 104.272 9.082H102.62V12.26H104.468ZM102.62 13.31V16.936H104.636C105.523 16.936 106.139 16.7633 106.484 16.418C106.829 16.0727 107.002 15.62 107.002 15.06C107.002 14.7053 106.923 14.3973 106.764 14.136C106.615 13.8747 106.358 13.674 105.994 13.534C105.639 13.3847 105.154 13.31 104.538 13.31H102.62ZM116.051 18H110.465V8.004H116.051V9.11H111.725V12.232H115.799V13.324H111.725V16.894H116.051V18ZM120.891 8.004C122.197 8.004 123.149 8.26067 123.747 8.774C124.344 9.28733 124.643 10.0107 124.643 10.944C124.643 11.3547 124.573 11.7513 124.433 12.134C124.302 12.5073 124.083 12.8433 123.775 13.142C123.467 13.4407 123.056 13.6787 122.543 13.856C122.029 14.024 121.399 14.108 120.653 14.108H119.505V18H118.245V8.004H120.891ZM120.779 9.082H119.505V13.03H120.513C121.147 13.03 121.675 12.9647 122.095 12.834C122.515 12.694 122.827 12.4747 123.033 12.176C123.238 11.8773 123.341 11.4853 123.341 11C123.341 10.356 123.135 9.87533 122.725 9.558C122.314 9.24067 121.665 9.082 120.779 9.082ZM132.643 18H126.035V16.978L128.653 14.332C129.157 13.828 129.582 13.38 129.927 12.988C130.273 12.596 130.534 12.2133 130.711 11.84C130.889 11.4573 130.977 11.042 130.977 10.594C130.977 10.0433 130.814 9.628 130.487 9.348C130.161 9.05867 129.736 8.914 129.213 8.914C128.728 8.914 128.299 8.998 127.925 9.166C127.561 9.334 127.188 9.56733 126.805 9.866L126.147 9.04C126.409 8.816 126.693 8.61533 127.001 8.438C127.319 8.26067 127.659 8.12067 128.023 8.018C128.397 7.91533 128.793 7.864 129.213 7.864C129.839 7.864 130.375 7.97133 130.823 8.186C131.271 8.40067 131.617 8.70867 131.859 9.11C132.111 9.502 132.237 9.97333 132.237 10.524C132.237 10.916 132.177 11.2893 132.055 11.644C131.934 11.9893 131.761 12.33 131.537 12.666C131.313 13.002 131.043 13.3427 130.725 13.688C130.408 14.0333 130.058 14.3927 129.675 14.766L127.589 16.824V16.88H132.643V18ZM140.652 14.164C140.652 14.9107 140.577 15.6433 140.428 16.362C140.288 17.0807 140.064 17.762 139.756 18.406C139.457 19.0593 139.07 19.6613 138.594 20.212H137.446C137.875 19.624 138.234 18.9987 138.524 18.336C138.813 17.6827 139.032 17.0013 139.182 16.292C139.331 15.5827 139.406 14.8687 139.406 14.15C139.406 13.4127 139.331 12.6847 139.182 11.966C139.032 11.2473 138.813 10.552 138.524 9.88C138.234 9.208 137.87 8.58267 137.432 8.004H138.594C139.07 8.564 139.457 9.17533 139.756 9.838C140.064 10.5007 140.288 11.196 140.428 11.924C140.577 12.652 140.652 13.3987 140.652 14.164Z" fill="white"/>
<path d="M176.954 9.95C176.954 10.2673 176.945 10.566 176.926 10.846C176.917 11.1167 176.903 11.3313 176.884 11.49H176.954C177.169 11.1727 177.463 10.9067 177.836 10.692C178.21 10.4773 178.69 10.37 179.278 10.37C180.212 10.37 180.958 10.6967 181.518 11.35C182.088 11.994 182.372 12.96 182.372 14.248C182.372 15.1067 182.242 15.8253 181.98 16.404C181.728 16.9827 181.369 17.4167 180.902 17.706C180.436 17.9953 179.894 18.14 179.278 18.14C178.69 18.14 178.21 18.0327 177.836 17.818C177.463 17.6033 177.169 17.3467 176.954 17.048H176.856L176.604 18H175.722V7.36H176.954V9.95ZM179.068 11.392C178.536 11.392 178.116 11.4947 177.808 11.7C177.5 11.896 177.281 12.204 177.15 12.624C177.02 13.0347 176.954 13.562 176.954 14.206V14.262C176.954 15.186 177.104 15.8953 177.402 16.39C177.71 16.8753 178.275 17.118 179.096 17.118C179.768 17.118 180.268 16.8707 180.594 16.376C180.93 15.8813 181.098 15.1673 181.098 14.234C181.098 13.2913 180.93 12.582 180.594 12.106C180.268 11.63 179.759 11.392 179.068 11.392ZM187.948 10.356C188.844 10.356 189.52 10.5753 189.978 11.014C190.435 11.4433 190.664 12.1433 190.664 13.114V18H189.446V13.198C189.446 12.5913 189.31 12.1387 189.04 11.84C188.769 11.5413 188.344 11.392 187.766 11.392C186.935 11.392 186.361 11.6253 186.044 12.092C185.726 12.5587 185.568 13.2307 185.568 14.108V18H184.336V10.496H185.33L185.512 11.518H185.582C185.75 11.2567 185.955 11.042 186.198 10.874C186.45 10.6967 186.725 10.566 187.024 10.482C187.322 10.398 187.63 10.356 187.948 10.356ZM194.222 9.95C194.222 10.2673 194.212 10.566 194.194 10.846C194.184 11.1167 194.17 11.3313 194.152 11.49H194.222C194.436 11.1727 194.73 10.9067 195.104 10.692C195.477 10.4773 195.958 10.37 196.546 10.37C197.479 10.37 198.226 10.6967 198.786 11.35C199.355 11.994 199.64 12.96 199.64 14.248C199.64 15.1067 199.509 15.8253 199.248 16.404C198.996 16.9827 198.636 17.4167 198.17 17.706C197.703 17.9953 197.162 18.14 196.546 18.14C195.958 18.14 195.477 18.0327 195.104 17.818C194.73 17.6033 194.436 17.3467 194.222 17.048H194.124L193.872 18H192.99V7.36H194.222V9.95ZM196.336 11.392C195.804 11.392 195.384 11.4947 195.076 11.7C194.768 11.896 194.548 12.204 194.418 12.624C194.287 13.0347 194.222 13.562 194.222 14.206V14.262C194.222 15.186 194.371 15.8953 194.67 16.39C194.978 16.8753 195.542 17.118 196.364 17.118C197.036 17.118 197.535 16.8707 197.862 16.376C198.198 15.8813 198.366 15.1673 198.366 14.234C198.366 13.2913 198.198 12.582 197.862 12.106C197.535 11.63 197.026 11.392 196.336 11.392ZM205.383 18H204.179V11.014C204.179 10.7433 204.179 10.5147 204.179 10.328C204.188 10.1413 204.198 9.96867 204.207 9.81C204.216 9.642 204.226 9.46933 204.235 9.292C204.086 9.44133 203.95 9.56733 203.829 9.67C203.708 9.77267 203.554 9.90333 203.367 10.062L202.303 10.93L201.659 10.104L204.361 8.004H205.383V18ZM212.513 10.356C213.157 10.356 213.707 10.496 214.165 10.776C214.631 11.056 214.986 11.4527 215.229 11.966C215.481 12.47 215.607 13.0627 215.607 13.744V14.486H210.469C210.487 15.3353 210.702 15.984 211.113 16.432C211.533 16.8707 212.116 17.09 212.863 17.09C213.339 17.09 213.759 17.048 214.123 16.964C214.496 16.8707 214.879 16.74 215.271 16.572V17.65C214.888 17.818 214.51 17.9393 214.137 18.014C213.763 18.098 213.32 18.14 212.807 18.14C212.097 18.14 211.467 17.9953 210.917 17.706C210.375 17.4167 209.951 16.9873 209.643 16.418C209.344 15.8393 209.195 15.1347 209.195 14.304C209.195 13.4827 209.33 12.778 209.601 12.19C209.881 11.602 210.268 11.1493 210.763 10.832C211.267 10.5147 211.85 10.356 212.513 10.356ZM212.499 11.364C211.911 11.364 211.444 11.5553 211.099 11.938C210.763 12.3113 210.562 12.834 210.497 13.506H214.319C214.319 13.0767 214.253 12.7033 214.123 12.386C213.992 12.0687 213.791 11.8213 213.521 11.644C213.259 11.4573 212.919 11.364 212.499 11.364ZM223.789 10.496V18H222.781L222.599 17.006H222.543C222.384 17.2673 222.179 17.482 221.927 17.65C221.675 17.818 221.4 17.9393 221.101 18.014C220.802 18.098 220.49 18.14 220.163 18.14C219.566 18.14 219.062 18.0467 218.651 17.86C218.25 17.664 217.946 17.3653 217.741 16.964C217.536 16.5627 217.433 16.0447 217.433 15.41V10.496H218.679V15.326C218.679 15.9233 218.814 16.3713 219.085 16.67C219.356 16.9687 219.776 17.118 220.345 17.118C220.905 17.118 221.344 17.0153 221.661 16.81C221.988 16.5953 222.216 16.2873 222.347 15.886C222.487 15.4753 222.557 14.9807 222.557 14.402V10.496H223.789ZM232.303 12.988C232.303 13.8 232.243 14.5233 232.121 15.158C232 15.7927 231.804 16.334 231.533 16.782C231.272 17.2207 230.927 17.5567 230.497 17.79C230.077 18.0233 229.569 18.14 228.971 18.14C228.225 18.14 227.604 17.9347 227.109 17.524C226.624 17.1133 226.26 16.5253 226.017 15.76C225.784 14.9853 225.667 14.0613 225.667 12.988C225.667 11.9053 225.775 10.9813 225.989 10.216C226.213 9.45067 226.568 8.86733 227.053 8.466C227.539 8.05533 228.178 7.85 228.971 7.85C229.718 7.85 230.339 8.05533 230.833 8.466C231.328 8.86733 231.697 9.45067 231.939 10.216C232.182 10.9813 232.303 11.9053 232.303 12.988ZM226.899 12.988C226.899 13.9027 226.965 14.6633 227.095 15.27C227.235 15.8767 227.455 16.334 227.753 16.642C228.061 16.9407 228.467 17.09 228.971 17.09C229.475 17.09 229.877 16.9407 230.175 16.642C230.483 16.3433 230.707 15.8907 230.847 15.284C230.987 14.668 231.057 13.9027 231.057 12.988C231.057 12.0733 230.987 11.3173 230.847 10.72C230.707 10.1133 230.483 9.66067 230.175 9.362C229.877 9.054 229.475 8.9 228.971 8.9C228.467 8.9 228.061 9.054 227.753 9.362C227.455 9.66067 227.235 10.1133 227.095 10.72C226.965 11.3173 226.899 12.0733 226.899 12.988ZM240.273 18H233.665V16.978L236.283 14.332C236.787 13.828 237.212 13.38 237.557 12.988C237.902 12.596 238.164 12.2133 238.341 11.84C238.518 11.4573 238.607 11.042 238.607 10.594C238.607 10.0433 238.444 9.628 238.117 9.348C237.79 9.05867 237.366 8.914 236.843 8.914C236.358 8.914 235.928 8.998 235.555 9.166C235.191 9.334 234.818 9.56733 234.435 9.866L233.777 9.04C234.038 8.816 234.323 8.61533 234.631 8.438C234.948 8.26067 235.289 8.12067 235.653 8.018C236.026 7.91533 236.423 7.864 236.843 7.864C237.468 7.864 238.005 7.97133 238.453 8.186C238.901 8.40067 239.246 8.70867 239.489 9.11C239.741 9.502 239.867 9.97333 239.867 10.524C239.867 10.916 239.806 11.2893 239.685 11.644C239.564 11.9893 239.391 12.33 239.167 12.666C238.943 13.002 238.672 13.3427 238.355 13.688C238.038 14.0333 237.688 14.3927 237.305 14.766L235.219 16.824V16.88H240.273V18ZM245.653 11.448H243.763V18H242.531V11.448H241.215V10.874L242.531 10.454V10.02C242.531 9.376 242.624 8.85333 242.811 8.452C243.007 8.05067 243.287 7.75667 243.651 7.57C244.015 7.38333 244.454 7.29 244.967 7.29C245.266 7.29 245.536 7.318 245.779 7.374C246.031 7.42067 246.246 7.47667 246.423 7.542L246.101 8.508C245.952 8.46133 245.779 8.41467 245.583 8.368C245.387 8.32133 245.186 8.298 244.981 8.298C244.57 8.298 244.262 8.438 244.057 8.718C243.861 8.98867 243.763 9.418 243.763 10.006V10.496H245.653V11.448ZM248.785 14.164L246.195 10.496H247.595L249.527 13.324L251.445 10.496H252.831L250.241 14.164L252.971 18H251.571L249.527 15.004L247.455 18H246.069L248.785 14.164ZM257.078 10.356C257.572 10.356 258.016 10.4493 258.408 10.636C258.809 10.8227 259.15 11.1073 259.43 11.49H259.5L259.668 10.496H260.648V18.126C260.648 18.8353 260.526 19.428 260.284 19.904C260.041 20.3893 259.672 20.7533 259.178 20.996C258.683 21.2387 258.053 21.36 257.288 21.36C256.746 21.36 256.247 21.318 255.79 21.234C255.342 21.1593 254.94 21.0427 254.586 20.884V19.75C254.828 19.8713 255.094 19.974 255.384 20.058C255.673 20.1513 255.986 20.2213 256.322 20.268C256.658 20.3147 257.003 20.338 257.358 20.338C258.002 20.338 258.506 20.1467 258.87 19.764C259.243 19.3907 259.43 18.8773 259.43 18.224V17.93C259.43 17.818 259.434 17.6593 259.444 17.454C259.453 17.2393 259.462 17.09 259.472 17.006H259.416C259.154 17.3887 258.828 17.6733 258.436 17.86C258.053 18.0467 257.605 18.14 257.092 18.14C256.121 18.14 255.36 17.7993 254.81 17.118C254.268 16.4367 253.998 15.4847 253.998 14.262C253.998 13.4593 254.119 12.7687 254.362 12.19C254.614 11.602 254.968 11.1493 255.426 10.832C255.883 10.5147 256.434 10.356 257.078 10.356ZM257.246 11.392C256.826 11.392 256.466 11.504 256.168 11.728C255.878 11.952 255.654 12.2787 255.496 12.708C255.346 13.1373 255.272 13.66 255.272 14.276C255.272 15.2 255.44 15.9093 255.776 16.404C256.121 16.8893 256.62 17.132 257.274 17.132C257.656 17.132 257.983 17.0853 258.254 16.992C258.524 16.8893 258.748 16.7353 258.926 16.53C259.103 16.3153 259.234 16.0447 259.318 15.718C259.402 15.3913 259.444 15.004 259.444 14.556V14.262C259.444 13.5807 259.364 13.03 259.206 12.61C259.056 12.19 258.818 11.882 258.492 11.686C258.165 11.49 257.75 11.392 257.246 11.392ZM267.917 15.928C267.917 16.4133 267.795 16.8193 267.553 17.146C267.31 17.4727 266.965 17.72 266.517 17.888C266.069 18.056 265.537 18.14 264.921 18.14C264.398 18.14 263.945 18.098 263.563 18.014C263.189 17.93 262.858 17.8133 262.569 17.664V16.544C262.867 16.6933 263.227 16.8333 263.647 16.964C264.076 17.0853 264.51 17.146 264.949 17.146C265.574 17.146 266.027 17.048 266.307 16.852C266.587 16.6467 266.727 16.376 266.727 16.04C266.727 15.8533 266.675 15.6853 266.573 15.536C266.47 15.3867 266.283 15.2373 266.013 15.088C265.751 14.9387 265.373 14.7707 264.879 14.584C264.393 14.3973 263.978 14.2107 263.633 14.024C263.287 13.8373 263.021 13.6133 262.835 13.352C262.648 13.0907 262.555 12.7547 262.555 12.344C262.555 11.7093 262.811 11.2193 263.325 10.874C263.847 10.5287 264.529 10.356 265.369 10.356C265.826 10.356 266.251 10.4027 266.643 10.496C267.044 10.58 267.417 10.7013 267.763 10.86L267.343 11.84C267.137 11.7467 266.918 11.6673 266.685 11.602C266.461 11.5273 266.232 11.4713 265.999 11.434C265.765 11.3873 265.527 11.364 265.285 11.364C264.781 11.364 264.393 11.448 264.123 11.616C263.861 11.7747 263.731 11.994 263.731 12.274C263.731 12.4793 263.791 12.6567 263.913 12.806C264.034 12.946 264.235 13.086 264.515 13.226C264.804 13.3567 265.187 13.5153 265.663 13.702C266.139 13.8793 266.545 14.0613 266.881 14.248C267.217 14.4347 267.473 14.6633 267.651 14.934C267.828 15.1953 267.917 15.5267 267.917 15.928ZM270.444 18L274.546 9.124H269.156V8.004H275.862V8.956L271.802 18H270.444ZM284.014 10.496V18H283.006L282.824 17.006H282.768C282.609 17.2673 282.404 17.482 282.152 17.65C281.9 17.818 281.624 17.9393 281.326 18.014C281.027 18.098 280.714 18.14 280.388 18.14C279.79 18.14 279.286 18.0467 278.876 17.86C278.474 17.664 278.171 17.3653 277.966 16.964C277.76 16.5627 277.658 16.0447 277.658 15.41V10.496H278.904V15.326C278.904 15.9233 279.039 16.3713 279.31 16.67C279.58 16.9687 280 17.118 280.57 17.118C281.13 17.118 281.568 17.0153 281.886 16.81C282.212 16.5953 282.441 16.2873 282.572 15.886C282.712 15.4753 282.782 14.9807 282.782 14.402V10.496H284.014ZM291.394 18.154C291.394 17.986 291.399 17.79 291.408 17.566C291.417 17.342 291.436 17.1507 291.464 16.992H291.38C291.165 17.3093 290.867 17.58 290.484 17.804C290.111 18.028 289.625 18.14 289.028 18.14C288.123 18.14 287.385 17.818 286.816 17.174C286.256 16.5207 285.976 15.55 285.976 14.262C285.976 13.4033 286.107 12.6847 286.368 12.106C286.629 11.5273 286.993 11.0933 287.46 10.804C287.927 10.5053 288.463 10.356 289.07 10.356C289.658 10.356 290.139 10.468 290.512 10.692C290.885 10.916 291.184 11.1913 291.408 11.518H291.464L291.646 10.496H292.626V21.36H291.394V18.154ZM289.266 17.118C289.779 17.118 290.19 17.0247 290.498 16.838C290.815 16.6513 291.044 16.3667 291.184 15.984C291.324 15.592 291.399 15.1067 291.408 14.528V14.276C291.408 13.324 291.249 12.6053 290.932 12.12C290.615 11.6253 290.05 11.378 289.238 11.378C288.566 11.378 288.067 11.644 287.74 12.176C287.413 12.6987 287.25 13.4033 287.25 14.29C287.25 15.1767 287.413 15.872 287.74 16.376C288.076 16.8707 288.585 17.118 289.266 17.118ZM297.669 10.356C298.164 10.356 298.607 10.4493 298.999 10.636C299.401 10.8227 299.741 11.1073 300.021 11.49H300.091L300.259 10.496H301.239V18.126C301.239 18.8353 301.118 19.428 300.875 19.904C300.633 20.3893 300.264 20.7533 299.769 20.996C299.275 21.2387 298.645 21.36 297.879 21.36C297.338 21.36 296.839 21.318 296.381 21.234C295.933 21.1593 295.532 21.0427 295.177 20.884V19.75C295.42 19.8713 295.686 19.974 295.975 20.058C296.265 20.1513 296.577 20.2213 296.913 20.268C297.249 20.3147 297.595 20.338 297.949 20.338C298.593 20.338 299.097 20.1467 299.461 19.764C299.835 19.3907 300.021 18.8773 300.021 18.224V17.93C300.021 17.818 300.026 17.6593 300.035 17.454C300.045 17.2393 300.054 17.09 300.063 17.006H300.007C299.746 17.3887 299.419 17.6733 299.027 17.86C298.645 18.0467 298.197 18.14 297.683 18.14C296.713 18.14 295.952 17.7993 295.401 17.118C294.86 16.4367 294.589 15.4847 294.589 14.262C294.589 13.4593 294.711 12.7687 294.953 12.19C295.205 11.602 295.56 11.1493 296.017 10.832C296.475 10.5147 297.025 10.356 297.669 10.356ZM297.837 11.392C297.417 11.392 297.058 11.504 296.759 11.728C296.47 11.952 296.246 12.2787 296.087 12.708C295.938 13.1373 295.863 13.66 295.863 14.276C295.863 15.2 296.031 15.9093 296.367 16.404C296.713 16.8893 297.212 17.132 297.865 17.132C298.248 17.132 298.575 17.0853 298.845 16.992C299.116 16.8893 299.34 16.7353 299.517 16.53C299.695 16.3153 299.825 16.0447 299.909 15.718C299.993 15.3913 300.035 15.004 300.035 14.556V14.262C300.035 13.5807 299.956 13.03 299.797 12.61C299.648 12.19 299.41 11.882 299.083 11.686C298.757 11.49 298.341 11.392 297.837 11.392ZM308.467 18H302.979V17.188L307.011 11.448H303.217V10.496H308.369V11.42L304.393 17.048H308.467V18ZM313.209 18.14C312.546 18.14 311.953 18.0047 311.431 17.734C310.917 17.4633 310.511 17.0433 310.213 16.474C309.923 15.9047 309.779 15.1767 309.779 14.29C309.779 13.366 309.933 12.6147 310.241 12.036C310.549 11.4573 310.964 11.0327 311.487 10.762C312.019 10.4913 312.621 10.356 313.293 10.356C313.675 10.356 314.044 10.398 314.399 10.482C314.753 10.5567 315.043 10.65 315.267 10.762L314.889 11.784C314.665 11.7 314.403 11.6207 314.105 11.546C313.806 11.4713 313.526 11.434 313.265 11.434C312.761 11.434 312.345 11.5413 312.019 11.756C311.692 11.9707 311.449 12.288 311.291 12.708C311.132 13.128 311.053 13.6507 311.053 14.276C311.053 14.8733 311.132 15.382 311.291 15.802C311.449 16.222 311.687 16.5393 312.005 16.754C312.322 16.9687 312.719 17.076 313.195 17.076C313.605 17.076 313.965 17.034 314.273 16.95C314.59 16.866 314.879 16.7633 315.141 16.642V17.734C314.889 17.8647 314.609 17.9627 314.301 18.028C314.002 18.1027 313.638 18.14 313.209 18.14ZM322.637 10.342C322.637 10.79 322.553 11.1773 322.385 11.504C322.217 11.8307 321.975 12.0967 321.657 12.302C321.349 12.5073 320.985 12.652 320.565 12.736V12.792C321.368 12.8853 321.965 13.1373 322.357 13.548C322.749 13.9587 322.945 14.4953 322.945 15.158C322.945 15.7367 322.81 16.2547 322.539 16.712C322.269 17.16 321.849 17.51 321.279 17.762C320.719 18.014 319.996 18.14 319.109 18.14C318.587 18.14 318.101 18.098 317.653 18.014C317.205 17.9393 316.776 17.7993 316.365 17.594V16.446C316.785 16.6513 317.238 16.8147 317.723 16.936C318.209 17.048 318.675 17.104 319.123 17.104C320.019 17.104 320.663 16.9313 321.055 16.586C321.457 16.2313 321.657 15.746 321.657 15.13C321.657 14.71 321.545 14.374 321.321 14.122C321.107 13.8607 320.789 13.6693 320.369 13.548C319.949 13.4267 319.445 13.366 318.857 13.366H317.891V12.316H318.871C319.422 12.316 319.879 12.2367 320.243 12.078C320.617 11.9193 320.897 11.7 321.083 11.42C321.279 11.1307 321.377 10.7993 321.377 10.426C321.377 9.94067 321.214 9.56733 320.887 9.306C320.561 9.03533 320.117 8.9 319.557 8.9C319.203 8.9 318.881 8.93733 318.591 9.012C318.302 9.07733 318.031 9.17533 317.779 9.306C317.537 9.42733 317.289 9.572 317.037 9.74L316.421 8.9C316.664 8.71333 316.939 8.54067 317.247 8.382C317.565 8.22333 317.915 8.09733 318.297 8.004C318.68 7.91067 319.095 7.864 319.543 7.864C320.589 7.864 321.363 8.09733 321.867 8.564C322.381 9.03067 322.637 9.62333 322.637 10.342ZM331.027 18H324.419V16.978L327.037 14.332C327.541 13.828 327.966 13.38 328.311 12.988C328.656 12.596 328.918 12.2133 329.095 11.84C329.272 11.4573 329.361 11.042 329.361 10.594C329.361 10.0433 329.198 9.628 328.871 9.348C328.544 9.05867 328.12 8.914 327.597 8.914C327.112 8.914 326.682 8.998 326.309 9.166C325.945 9.334 325.572 9.56733 325.189 9.866L324.531 9.04C324.792 8.816 325.077 8.61533 325.385 8.438C325.702 8.26067 326.043 8.12067 326.407 8.018C326.78 7.91533 327.177 7.864 327.597 7.864C328.222 7.864 328.759 7.97133 329.207 8.186C329.655 8.40067 330 8.70867 330.243 9.11C330.495 9.502 330.621 9.97333 330.621 10.524C330.621 10.916 330.56 11.2893 330.439 11.644C330.318 11.9893 330.145 12.33 329.921 12.666C329.697 13.002 329.426 13.3427 329.109 13.688C328.792 14.0333 328.442 14.3927 328.059 14.766L325.973 16.824V16.88H331.027V18ZM341.181 10.356C342.03 10.356 342.665 10.5753 343.085 11.014C343.505 11.4433 343.715 12.1433 343.715 13.114V18H342.497V13.17C342.497 12.582 342.371 12.1387 342.119 11.84C341.876 11.5413 341.493 11.392 340.971 11.392C340.243 11.392 339.72 11.602 339.403 12.022C339.095 12.442 338.941 13.0533 338.941 13.856V18H337.723V13.17C337.723 12.778 337.667 12.4513 337.555 12.19C337.443 11.9193 337.275 11.7187 337.051 11.588C336.827 11.4573 336.537 11.392 336.183 11.392C335.679 11.392 335.282 11.4993 334.993 11.714C334.703 11.9193 334.493 12.2227 334.363 12.624C334.241 13.0253 334.181 13.52 334.181 14.108V18H332.949V10.496H333.943L334.125 11.518H334.195C334.353 11.2567 334.545 11.042 334.769 10.874C335.002 10.6967 335.259 10.566 335.539 10.482C335.819 10.398 336.108 10.356 336.407 10.356C336.985 10.356 337.466 10.4587 337.849 10.664C338.241 10.8693 338.525 11.1867 338.703 11.616H338.773C339.025 11.1867 339.365 10.8693 339.795 10.664C340.233 10.4587 340.695 10.356 341.181 10.356ZM352.123 12.274C352.123 12.8433 352.081 13.4127 351.997 13.982C351.922 14.542 351.787 15.074 351.591 15.578C351.395 16.0727 351.124 16.516 350.779 16.908C350.433 17.2907 349.995 17.594 349.463 17.818C348.931 18.0327 348.287 18.14 347.531 18.14C347.344 18.14 347.125 18.126 346.873 18.098C346.63 18.0793 346.429 18.0467 346.271 18V16.95C346.439 17.006 346.635 17.0527 346.859 17.09C347.083 17.118 347.297 17.132 347.503 17.132C348.156 17.132 348.693 17.0247 349.113 16.81C349.542 16.5953 349.883 16.306 350.135 15.942C350.387 15.5687 350.569 15.1393 350.681 14.654C350.793 14.1593 350.858 13.6413 350.877 13.1H350.793C350.653 13.3147 350.475 13.5107 350.261 13.688C350.046 13.8653 349.785 14.0053 349.477 14.108C349.178 14.2107 348.823 14.262 348.413 14.262C347.843 14.262 347.339 14.1453 346.901 13.912C346.471 13.6693 346.135 13.324 345.893 12.876C345.659 12.428 345.543 11.882 345.543 11.238C345.543 10.538 345.673 9.936 345.935 9.432C346.205 8.928 346.579 8.54067 347.055 8.27C347.531 7.99933 348.091 7.864 348.735 7.864C349.211 7.864 349.654 7.95733 350.065 8.144C350.475 8.32133 350.835 8.592 351.143 8.956C351.451 9.32 351.689 9.77733 351.857 10.328C352.034 10.8787 352.123 11.5273 352.123 12.274ZM348.735 8.9C348.156 8.9 347.68 9.09133 347.307 9.474C346.943 9.85667 346.761 10.44 346.761 11.224C346.761 11.868 346.915 12.3767 347.223 12.75C347.54 13.114 348.025 13.296 348.679 13.296C349.127 13.296 349.514 13.2073 349.841 13.03C350.167 12.8433 350.419 12.61 350.597 12.33C350.783 12.05 350.877 11.7607 350.877 11.462C350.877 11.1633 350.83 10.8647 350.737 10.566C350.653 10.258 350.522 9.978 350.345 9.726C350.167 9.474 349.943 9.27333 349.673 9.124C349.402 8.97467 349.089 8.9 348.735 8.9ZM356.704 18.14C355.771 18.14 355.024 17.818 354.464 17.174C353.904 16.5207 353.624 15.55 353.624 14.262C353.624 12.974 353.904 12.0033 354.464 11.35C355.034 10.6873 355.785 10.356 356.718 10.356C357.11 10.356 357.451 10.4073 357.74 10.51C358.03 10.6033 358.282 10.734 358.496 10.902C358.711 11.07 358.893 11.2567 359.042 11.462H359.126C359.117 11.3407 359.098 11.1633 359.07 10.93C359.052 10.6873 359.042 10.496 359.042 10.356V7.36H360.274V18H359.28L359.098 16.992H359.042C358.893 17.2067 358.711 17.4027 358.496 17.58C358.282 17.748 358.025 17.8833 357.726 17.986C357.437 18.0887 357.096 18.14 356.704 18.14ZM356.9 17.118C357.694 17.118 358.249 16.9033 358.566 16.474C358.893 16.0353 359.056 15.3773 359.056 14.5V14.276C359.056 13.3427 358.902 12.6287 358.594 12.134C358.286 11.63 357.717 11.378 356.886 11.378C356.224 11.378 355.724 11.644 355.388 12.176C355.062 12.6987 354.898 13.4033 354.898 14.29C354.898 15.186 355.062 15.8813 355.388 16.376C355.724 16.8707 356.228 17.118 356.9 17.118ZM365.318 10.356C365.812 10.356 366.256 10.4493 366.648 10.636C367.049 10.8227 367.39 11.1073 367.67 11.49H367.74L367.908 10.496H368.888V18.126C368.888 18.8353 368.766 19.428 368.524 19.904C368.281 20.3893 367.912 20.7533 367.418 20.996C366.923 21.2387 366.293 21.36 365.528 21.36C364.986 21.36 364.487 21.318 364.03 21.234C363.582 21.1593 363.18 21.0427 362.826 20.884V19.75C363.068 19.8713 363.334 19.974 363.624 20.058C363.913 20.1513 364.226 20.2213 364.562 20.268C364.898 20.3147 365.243 20.338 365.598 20.338C366.242 20.338 366.746 20.1467 367.11 19.764C367.483 19.3907 367.67 18.8773 367.67 18.224V17.93C367.67 17.818 367.674 17.6593 367.684 17.454C367.693 17.2393 367.702 17.09 367.712 17.006H367.656C367.394 17.3887 367.068 17.6733 366.676 17.86C366.293 18.0467 365.845 18.14 365.332 18.14C364.361 18.14 363.6 17.7993 363.05 17.118C362.508 16.4367 362.238 15.4847 362.238 14.262C362.238 13.4593 362.359 12.7687 362.602 12.19C362.854 11.602 363.208 11.1493 363.666 10.832C364.123 10.5147 364.674 10.356 365.318 10.356ZM365.486 11.392C365.066 11.392 364.706 11.504 364.408 11.728C364.118 11.952 363.894 12.2787 363.736 12.708C363.586 13.1373 363.512 13.66 363.512 14.276C363.512 15.2 363.68 15.9093 364.016 16.404C364.361 16.8893 364.86 17.132 365.514 17.132C365.896 17.132 366.223 17.0853 366.494 16.992C366.764 16.8893 366.988 16.7353 367.166 16.53C367.343 16.3153 367.474 16.0447 367.558 15.718C367.642 15.3913 367.684 15.004 367.684 14.556V14.262C367.684 13.5807 367.604 13.03 367.446 12.61C367.296 12.19 367.058 11.882 366.732 11.686C366.405 11.49 365.99 11.392 365.486 11.392ZM373.049 14.164L370.459 10.496H371.859L373.791 13.324L375.709 10.496H377.095L374.505 14.164L377.235 18H375.835L373.791 15.004L371.719 18H370.333L373.049 14.164ZM381.068 18.14C380.134 18.14 379.388 17.818 378.828 17.174C378.268 16.5207 377.988 15.55 377.988 14.262C377.988 12.974 378.268 12.0033 378.828 11.35C379.397 10.6873 380.148 10.356 381.082 10.356C381.474 10.356 381.814 10.4073 382.104 10.51C382.393 10.6033 382.645 10.734 382.86 10.902C383.074 11.07 383.256 11.2567 383.406 11.462H383.49C383.48 11.3407 383.462 11.1633 383.434 10.93C383.415 10.6873 383.406 10.496 383.406 10.356V7.36H384.638V18H383.644L383.462 16.992H383.406C383.256 17.2067 383.074 17.4027 382.86 17.58C382.645 17.748 382.388 17.8833 382.09 17.986C381.8 18.0887 381.46 18.14 381.068 18.14ZM381.264 17.118C382.057 17.118 382.612 16.9033 382.93 16.474C383.256 16.0353 383.42 15.3773 383.42 14.5V14.276C383.42 13.3427 383.266 12.6287 382.958 12.134C382.65 11.63 382.08 11.378 381.25 11.378C380.587 11.378 380.088 11.644 379.752 12.176C379.425 12.6987 379.262 13.4033 379.262 14.29C379.262 15.186 379.425 15.8813 379.752 16.376C380.088 16.8707 380.592 17.118 381.264 17.118ZM390.591 10.356C391.515 10.356 392.257 10.678 392.817 11.322C393.386 11.966 393.671 12.9367 393.671 14.234C393.671 15.0833 393.54 15.802 393.279 16.39C393.027 16.9687 392.668 17.4073 392.201 17.706C391.744 17.9953 391.202 18.14 390.577 18.14C390.194 18.14 389.854 18.0887 389.555 17.986C389.256 17.8833 389 17.7527 388.785 17.594C388.58 17.426 388.402 17.244 388.253 17.048H388.169C388.188 17.2067 388.206 17.4073 388.225 17.65C388.244 17.8927 388.253 18.1027 388.253 18.28V21.36H387.021V10.496H388.029L388.197 11.518H388.253C388.402 11.3033 388.58 11.1073 388.785 10.93C389 10.7527 389.252 10.6127 389.541 10.51C389.84 10.4073 390.19 10.356 390.591 10.356ZM390.367 11.392C389.863 11.392 389.457 11.49 389.149 11.686C388.841 11.8727 388.617 12.1573 388.477 12.54C388.337 12.9227 388.262 13.408 388.253 13.996V14.234C388.253 14.85 388.318 15.3727 388.449 15.802C388.58 16.2313 388.799 16.558 389.107 16.782C389.424 17.006 389.854 17.118 390.395 17.118C390.852 17.118 391.226 16.992 391.515 16.74C391.814 16.488 392.033 16.1473 392.173 15.718C392.322 15.2793 392.397 14.78 392.397 14.22C392.397 13.3613 392.229 12.6753 391.893 12.162C391.566 11.6487 391.058 11.392 390.367 11.392ZM397.139 14.164L394.549 10.496H395.949L397.881 13.324L399.799 10.496H401.185L398.595 14.164L401.325 18H399.925L397.881 15.004L395.809 18H394.423L397.139 14.164ZM401.595 10.496H402.911L404.535 14.766C404.628 15.018 404.712 15.2607 404.787 15.494C404.871 15.7273 404.946 15.956 405.011 16.18C405.076 16.3947 405.128 16.6047 405.165 16.81H405.221C405.277 16.5767 405.366 16.2733 405.487 15.9C405.608 15.5173 405.734 15.1347 405.865 14.752L407.391 10.496H408.721L405.487 19.036C405.31 19.5027 405.1 19.9087 404.857 20.254C404.624 20.6087 404.334 20.8793 403.989 21.066C403.653 21.262 403.242 21.36 402.757 21.36C402.533 21.36 402.337 21.346 402.169 21.318C402.001 21.2993 401.856 21.276 401.735 21.248V20.268C401.838 20.2867 401.959 20.3053 402.099 20.324C402.248 20.3427 402.402 20.352 402.561 20.352C402.85 20.352 403.098 20.296 403.303 20.184C403.518 20.0813 403.7 19.9273 403.849 19.722C403.998 19.526 404.124 19.2927 404.227 19.022L404.619 18.028L401.595 10.496ZM411.14 10.482C411.14 10.6593 411.13 10.8413 411.112 11.028C411.102 11.2147 411.088 11.3827 411.07 11.532H411.154C411.312 11.2707 411.513 11.056 411.756 10.888C411.998 10.72 412.269 10.594 412.568 10.51C412.866 10.4167 413.174 10.37 413.492 10.37C414.098 10.37 414.602 10.468 415.004 10.664C415.414 10.8507 415.722 11.1447 415.928 11.546C416.133 11.9473 416.236 12.47 416.236 13.114V18H415.018V13.198C415.018 12.5913 414.882 12.1387 414.612 11.84C414.341 11.5413 413.916 11.392 413.338 11.392C412.778 11.392 412.339 11.4993 412.022 11.714C411.704 11.9193 411.476 12.2273 411.336 12.638C411.205 13.0393 411.14 13.534 411.14 14.122V18H409.908V7.36H411.14V10.482ZM424.274 10.342C424.274 10.79 424.19 11.1773 424.022 11.504C423.854 11.8307 423.611 12.0967 423.294 12.302C422.986 12.5073 422.622 12.652 422.202 12.736V12.792C423.005 12.8853 423.602 13.1373 423.994 13.548C424.386 13.9587 424.582 14.4953 424.582 15.158C424.582 15.7367 424.447 16.2547 424.176 16.712C423.905 17.16 423.485 17.51 422.916 17.762C422.356 18.014 421.633 18.14 420.746 18.14C420.223 18.14 419.738 18.098 419.29 18.014C418.842 17.9393 418.413 17.7993 418.002 17.594V16.446C418.422 16.6513 418.875 16.8147 419.36 16.936C419.845 17.048 420.312 17.104 420.76 17.104C421.656 17.104 422.3 16.9313 422.692 16.586C423.093 16.2313 423.294 15.746 423.294 15.13C423.294 14.71 423.182 14.374 422.958 14.122C422.743 13.8607 422.426 13.6693 422.006 13.548C421.586 13.4267 421.082 13.366 420.494 13.366H419.528V12.316H420.508C421.059 12.316 421.516 12.2367 421.88 12.078C422.253 11.9193 422.533 11.7 422.72 11.42C422.916 11.1307 423.014 10.7993 423.014 10.426C423.014 9.94067 422.851 9.56733 422.524 9.306C422.197 9.03533 421.754 8.9 421.194 8.9C420.839 8.9 420.517 8.93733 420.228 9.012C419.939 9.07733 419.668 9.17533 419.416 9.306C419.173 9.42733 418.926 9.572 418.674 9.74L418.058 8.9C418.301 8.71333 418.576 8.54067 418.884 8.382C419.201 8.22333 419.551 8.09733 419.934 8.004C420.317 7.91067 420.732 7.864 421.18 7.864C422.225 7.864 423 8.09733 423.504 8.564C424.017 9.03067 424.274 9.62333 424.274 10.342ZM429.08 17.132C429.266 17.132 429.458 17.118 429.654 17.09C429.85 17.0527 430.008 17.0153 430.13 16.978V17.916C429.999 17.9813 429.812 18.0327 429.57 18.07C429.327 18.1167 429.094 18.14 428.87 18.14C428.478 18.14 428.114 18.0747 427.778 17.944C427.451 17.804 427.185 17.566 426.98 17.23C426.774 16.894 426.672 16.4227 426.672 15.816V11.448H425.608V10.86L426.686 10.37L427.176 8.774H427.904V10.496H430.074V11.448H427.904V15.788C427.904 16.2453 428.011 16.586 428.226 16.81C428.45 17.0247 428.734 17.132 429.08 17.132ZM430.75 21.36C430.517 21.36 430.312 21.3413 430.134 21.304C429.957 21.276 429.803 21.2387 429.672 21.192V20.198C429.812 20.2353 429.957 20.268 430.106 20.296C430.256 20.324 430.419 20.338 430.596 20.338C430.895 20.338 431.142 20.254 431.338 20.086C431.534 19.9273 431.632 19.6193 431.632 19.162V10.496H432.864V19.12C432.864 19.5867 432.79 19.988 432.64 20.324C432.491 20.66 432.262 20.9167 431.954 21.094C431.646 21.2713 431.245 21.36 430.75 21.36ZM431.534 8.466C431.534 8.19533 431.604 7.99933 431.744 7.878C431.884 7.74733 432.057 7.682 432.262 7.682C432.449 7.682 432.612 7.74733 432.752 7.878C432.902 7.99933 432.976 8.19533 432.976 8.466C432.976 8.72733 432.902 8.92333 432.752 9.054C432.612 9.18467 432.449 9.25 432.262 9.25C432.057 9.25 431.884 9.18467 431.744 9.054C431.604 8.92333 431.534 8.72733 431.534 8.466ZM443.474 10.356C444.323 10.356 444.958 10.5753 445.378 11.014C445.798 11.4433 446.008 12.1433 446.008 13.114V18H444.79V13.17C444.79 12.582 444.664 12.1387 444.412 11.84C444.169 11.5413 443.786 11.392 443.264 11.392C442.536 11.392 442.013 11.602 441.696 12.022C441.388 12.442 441.234 13.0533 441.234 13.856V18H440.016V13.17C440.016 12.778 439.96 12.4513 439.848 12.19C439.736 11.9193 439.568 11.7187 439.344 11.588C439.12 11.4573 438.83 11.392 438.476 11.392C437.972 11.392 437.575 11.4993 437.286 11.714C436.996 11.9193 436.786 12.2227 436.656 12.624C436.534 13.0253 436.474 13.52 436.474 14.108V18H435.242V10.496H436.236L436.418 11.518H436.488C436.646 11.2567 436.838 11.042 437.062 10.874C437.295 10.6967 437.552 10.566 437.832 10.482C438.112 10.398 438.401 10.356 438.7 10.356C439.278 10.356 439.759 10.4587 440.142 10.664C440.534 10.8693 440.818 11.1867 440.996 11.616H441.066C441.318 11.1867 441.658 10.8693 442.088 10.664C442.526 10.4587 442.988 10.356 443.474 10.356ZM450.986 18.14C450.052 18.14 449.306 17.818 448.746 17.174C448.186 16.5207 447.906 15.55 447.906 14.262C447.906 12.974 448.186 12.0033 448.746 11.35C449.315 10.6873 450.066 10.356 451 10.356C451.392 10.356 451.732 10.4073 452.022 10.51C452.311 10.6033 452.563 10.734 452.778 10.902C452.992 11.07 453.174 11.2567 453.324 11.462H453.408C453.398 11.3407 453.38 11.1633 453.352 10.93C453.333 10.6873 453.324 10.496 453.324 10.356V7.36H454.556V18H453.562L453.38 16.992H453.324C453.174 17.2067 452.992 17.4027 452.778 17.58C452.563 17.748 452.306 17.8833 452.008 17.986C451.718 18.0887 451.378 18.14 450.986 18.14ZM451.182 17.118C451.975 17.118 452.53 16.9033 452.848 16.474C453.174 16.0353 453.338 15.3773 453.338 14.5V14.276C453.338 13.3427 453.184 12.6287 452.876 12.134C452.568 11.63 451.998 11.378 451.168 11.378C450.505 11.378 450.006 11.644 449.67 12.176C449.343 12.6987 449.18 13.4033 449.18 14.29C449.18 15.186 449.343 15.8813 449.67 16.376C450.006 16.8707 450.51 17.118 451.182 17.118ZM457.653 18L461.755 9.124H456.365V8.004H463.071V8.956L459.011 18H457.653ZM473.183 10.356C474.032 10.356 474.667 10.5753 475.087 11.014C475.507 11.4433 475.717 12.1433 475.717 13.114V18H474.499V13.17C474.499 12.582 474.373 12.1387 474.121 11.84C473.878 11.5413 473.495 11.392 472.973 11.392C472.245 11.392 471.722 11.602 471.405 12.022C471.097 12.442 470.943 13.0533 470.943 13.856V18H469.725V13.17C469.725 12.778 469.669 12.4513 469.557 12.19C469.445 11.9193 469.277 11.7187 469.053 11.588C468.829 11.4573 468.539 11.392 468.185 11.392C467.681 11.392 467.284 11.4993 466.995 11.714C466.705 11.9193 466.495 12.2227 466.365 12.624C466.243 13.0253 466.183 13.52 466.183 14.108V18H464.951V10.496H465.945L466.127 11.518H466.197C466.355 11.2567 466.547 11.042 466.771 10.874C467.004 10.6967 467.261 10.566 467.541 10.482C467.821 10.398 468.11 10.356 468.409 10.356C468.987 10.356 469.468 10.4587 469.851 10.664C470.243 10.8693 470.527 11.1867 470.705 11.616H470.775C471.027 11.1867 471.367 10.8693 471.797 10.664C472.235 10.4587 472.697 10.356 473.183 10.356ZM484.573 15.732H483.117V18H481.927V15.732H477.139V14.682L481.843 7.948H483.117V14.626H484.573V15.732ZM481.927 11.476C481.927 11.2333 481.927 11.014 481.927 10.818C481.936 10.6127 481.945 10.4213 481.955 10.244C481.964 10.0667 481.969 9.89867 481.969 9.74C481.978 9.572 481.987 9.41333 481.997 9.264H481.941C481.866 9.44133 481.773 9.63267 481.661 9.838C481.549 10.0433 481.441 10.216 481.339 10.356L478.343 14.626H481.927V11.476ZM488.706 11.868C489.388 11.868 489.98 11.9847 490.484 12.218C490.988 12.4513 491.376 12.7873 491.646 13.226C491.926 13.6553 492.066 14.1827 492.066 14.808C492.066 15.4987 491.917 16.096 491.618 16.6C491.32 17.0947 490.89 17.4773 490.33 17.748C489.78 18.0093 489.112 18.14 488.328 18.14C487.815 18.14 487.33 18.0933 486.872 18C486.424 17.9067 486.046 17.7713 485.738 17.594V16.432C486.074 16.6373 486.48 16.8007 486.956 16.922C487.442 17.034 487.904 17.09 488.342 17.09C488.837 17.09 489.266 17.0153 489.63 16.866C490.004 16.7073 490.293 16.4693 490.498 16.152C490.704 15.8253 490.806 15.4193 490.806 14.934C490.806 14.2807 490.606 13.7813 490.204 13.436C489.803 13.0813 489.168 12.904 488.3 12.904C488.039 12.904 487.74 12.9273 487.404 12.974C487.068 13.0207 486.798 13.0673 486.592 13.114L485.976 12.722L486.354 8.004H491.366V9.124H487.404L487.166 12.022C487.325 11.994 487.54 11.9613 487.81 11.924C488.081 11.8867 488.38 11.868 488.706 11.868ZM498.902 18H493.414V17.188L497.446 11.448H493.652V10.496H498.804V11.42L494.828 17.048H498.902V18ZM503.294 11.868C503.976 11.868 504.568 11.9847 505.072 12.218C505.576 12.4513 505.964 12.7873 506.234 13.226C506.514 13.6553 506.654 14.1827 506.654 14.808C506.654 15.4987 506.505 16.096 506.206 16.6C505.908 17.0947 505.478 17.4773 504.918 17.748C504.368 18.0093 503.7 18.14 502.916 18.14C502.403 18.14 501.918 18.0933 501.46 18C501.012 17.9067 500.634 17.7713 500.326 17.594V16.432C500.662 16.6373 501.068 16.8007 501.544 16.922C502.03 17.034 502.492 17.09 502.93 17.09C503.425 17.09 503.854 17.0153 504.218 16.866C504.592 16.7073 504.881 16.4693 505.086 16.152C505.292 15.8253 505.394 15.4193 505.394 14.934C505.394 14.2807 505.194 13.7813 504.792 13.436C504.391 13.0813 503.756 12.904 502.888 12.904C502.627 12.904 502.328 12.9273 501.992 12.974C501.656 13.0207 501.386 13.0673 501.18 13.114L500.564 12.722L500.942 8.004H505.954V9.124H501.992L501.754 12.022C501.913 11.994 502.128 11.9613 502.398 11.924C502.669 11.8867 502.968 11.868 503.294 11.868ZM509.36 18L513.462 9.124H508.072V8.004H514.778V8.956L510.718 18H509.36Z" fill="#555555"/>
</svg>
