<svg width="600" height="25" viewBox="0 0 600 25" fill="none" xmlns="http://www.w3.org/2000/svg">
<rect width="600" height="25" fill="#555555"/>
<rect x="240" width="360" height="25" fill="#F1B90A"/>
<path d="M22.5294 8.004C23.3601 8.004 24.0554 8.08333 24.6154 8.242C25.1848 8.40067 25.6094 8.662 25.8894 9.026C26.1788 9.39 26.3234 9.87533 26.3234 10.482C26.3234 10.874 26.2488 11.224 26.0994 11.532C25.9594 11.8307 25.7448 12.0827 25.4554 12.288C25.1754 12.484 24.8301 12.6193 24.4194 12.694V12.764C24.8394 12.8293 25.2174 12.9507 25.5534 13.128C25.8988 13.3053 26.1694 13.5573 26.3654 13.884C26.5614 14.2107 26.6594 14.6353 26.6594 15.158C26.6594 15.7647 26.5194 16.2827 26.2394 16.712C25.9594 17.132 25.5581 17.454 25.0354 17.678C24.5221 17.8927 23.9061 18 23.1874 18H19.6734V8.004H22.5294ZM22.7814 12.26C23.6401 12.26 24.2281 12.1247 24.5454 11.854C24.8628 11.574 25.0214 11.1633 25.0214 10.622C25.0214 10.0713 24.8254 9.67933 24.4334 9.446C24.0508 9.20333 23.4348 9.082 22.5854 9.082H20.9334V12.26H22.7814ZM20.9334 13.31V16.936H22.9494C23.8361 16.936 24.4521 16.7633 24.7974 16.418C25.1428 16.0727 25.3154 15.62 25.3154 15.06C25.3154 14.7053 25.2361 14.3973 25.0774 14.136C24.9281 13.8747 24.6714 13.674 24.3074 13.534C23.9528 13.3847 23.4674 13.31 22.8514 13.31H20.9334ZM29.8429 10.496V18H28.6109V10.496H29.8429ZM29.2409 7.682C29.4276 7.682 29.5909 7.74733 29.7309 7.878C29.8802 7.99933 29.9549 8.19533 29.9549 8.466C29.9549 8.72733 29.8802 8.92333 29.7309 9.054C29.5909 9.18467 29.4276 9.25 29.2409 9.25C29.0356 9.25 28.8629 9.18467 28.7229 9.054C28.5829 8.92333 28.5129 8.72733 28.5129 8.466C28.5129 8.19533 28.5829 7.99933 28.7229 7.878C28.8629 7.74733 29.0356 7.682 29.2409 7.682ZM35.8323 10.356C36.7283 10.356 37.4049 10.5753 37.8623 11.014C38.3196 11.4433 38.5483 12.1433 38.5483 13.114V18H37.3303V13.198C37.3303 12.5913 37.1949 12.1387 36.9243 11.84C36.6536 11.5413 36.2289 11.392 35.6503 11.392C34.8196 11.392 34.2456 11.6253 33.9283 12.092C33.6109 12.5587 33.4523 13.2307 33.4523 14.108V18H32.2203V10.496H33.2143L33.3963 11.518H33.4663C33.6343 11.2567 33.8396 11.042 34.0823 10.874C34.3343 10.6967 34.6096 10.566 34.9083 10.482C35.2069 10.398 35.5149 10.356 35.8323 10.356ZM43.7166 10.37C44.6312 10.37 45.3079 10.5707 45.7466 10.972C46.1852 11.3733 46.4046 12.0127 46.4046 12.89V18H45.5086L45.2706 16.936H45.2146C44.9999 17.2067 44.7759 17.4353 44.5426 17.622C44.3186 17.7993 44.0572 17.93 43.7586 18.014C43.4692 18.098 43.1146 18.14 42.6946 18.14C42.2466 18.14 41.8406 18.0607 41.4766 17.902C41.1219 17.7433 40.8419 17.5007 40.6366 17.174C40.4312 16.838 40.3286 16.418 40.3286 15.914C40.3286 15.1673 40.6226 14.5933 41.2106 14.192C41.7986 13.7813 42.7039 13.5573 43.9266 13.52L45.2006 13.478V13.03C45.2006 12.4047 45.0652 11.9707 44.7946 11.728C44.5239 11.4853 44.1412 11.364 43.6466 11.364C43.2546 11.364 42.8812 11.4247 42.5266 11.546C42.1719 11.658 41.8406 11.7887 41.5326 11.938L41.1546 11.014C41.4812 10.8367 41.8686 10.6873 42.3166 10.566C42.7646 10.4353 43.2312 10.37 43.7166 10.37ZM44.0806 14.374C43.1472 14.4113 42.4986 14.5607 42.1346 14.822C41.7799 15.0833 41.6026 15.452 41.6026 15.928C41.6026 16.348 41.7286 16.656 41.9806 16.852C42.2419 17.048 42.5732 17.146 42.9746 17.146C43.6092 17.146 44.1366 16.9733 44.5566 16.628C44.9766 16.2733 45.1866 15.732 45.1866 15.004V14.332L44.0806 14.374ZM52.3342 10.356C53.2302 10.356 53.9069 10.5753 54.3642 11.014C54.8216 11.4433 55.0502 12.1433 55.0502 13.114V18H53.8322V13.198C53.8322 12.5913 53.6969 12.1387 53.4262 11.84C53.1556 11.5413 52.7309 11.392 52.1522 11.392C51.3216 11.392 50.7476 11.6253 50.4302 12.092C50.1129 12.5587 49.9542 13.2307 49.9542 14.108V18H48.7222V10.496H49.7162L49.8982 11.518H49.9682C50.1362 11.2567 50.3416 11.042 50.5842 10.874C50.8362 10.6967 51.1116 10.566 51.4102 10.482C51.7089 10.398 52.0169 10.356 52.3342 10.356ZM60.3865 18.14C59.7239 18.14 59.1312 18.0047 58.6085 17.734C58.0952 17.4633 57.6892 17.0433 57.3905 16.474C57.1012 15.9047 56.9565 15.1767 56.9565 14.29C56.9565 13.366 57.1105 12.6147 57.4185 12.036C57.7265 11.4573 58.1419 11.0327 58.6645 10.762C59.1965 10.4913 59.7985 10.356 60.4705 10.356C60.8532 10.356 61.2219 10.398 61.5765 10.482C61.9312 10.5567 62.2205 10.65 62.4445 10.762L62.0665 11.784C61.8425 11.7 61.5812 11.6207 61.2825 11.546C60.9839 11.4713 60.7039 11.434 60.4425 11.434C59.9385 11.434 59.5232 11.5413 59.1965 11.756C58.8699 11.9707 58.6272 12.288 58.4685 12.708C58.3099 13.128 58.2305 13.6507 58.2305 14.276C58.2305 14.8733 58.3099 15.382 58.4685 15.802C58.6272 16.222 58.8652 16.5393 59.1825 16.754C59.4999 16.9687 59.8965 17.076 60.3725 17.076C60.7832 17.076 61.1425 17.034 61.4505 16.95C61.7679 16.866 62.0572 16.7633 62.3185 16.642V17.734C62.0665 17.8647 61.7865 17.9627 61.4785 18.028C61.1799 18.1027 60.8159 18.14 60.3865 18.14ZM67.0011 10.356C67.6451 10.356 68.1958 10.496 68.6531 10.776C69.1198 11.056 69.4744 11.4527 69.7171 11.966C69.9691 12.47 70.0951 13.0627 70.0951 13.744V14.486H64.9571C64.9758 15.3353 65.1904 15.984 65.6011 16.432C66.0211 16.8707 66.6044 17.09 67.3511 17.09C67.8271 17.09 68.2471 17.048 68.6111 16.964C68.9844 16.8707 69.3671 16.74 69.7591 16.572V17.65C69.3764 17.818 68.9984 17.9393 68.6251 18.014C68.2518 18.098 67.8084 18.14 67.2951 18.14C66.5858 18.14 65.9558 17.9953 65.4051 17.706C64.8638 17.4167 64.4391 16.9873 64.1311 16.418C63.8324 15.8393 63.6831 15.1347 63.6831 14.304C63.6831 13.4827 63.8184 12.778 64.0891 12.19C64.3691 11.602 64.7564 11.1493 65.2511 10.832C65.7551 10.5147 66.3384 10.356 67.0011 10.356ZM66.9871 11.364C66.3991 11.364 65.9324 11.5553 65.5871 11.938C65.2511 12.3113 65.0504 12.834 64.9851 13.506H68.8071C68.8071 13.0767 68.7418 12.7033 68.6111 12.386C68.4804 12.0687 68.2798 11.8213 68.0091 11.644C67.7478 11.4573 67.4071 11.364 66.9871 11.364ZM80.0941 8.97C79.5621 8.97 79.0815 9.06333 78.6521 9.25C78.2228 9.42733 77.8588 9.69333 77.5601 10.048C77.2615 10.3933 77.0328 10.818 76.8741 11.322C76.7155 11.8167 76.6361 12.3767 76.6361 13.002C76.6361 13.8233 76.7621 14.5373 77.0141 15.144C77.2755 15.7507 77.6581 16.2173 78.1621 16.544C78.6755 16.8707 79.3148 17.034 80.0801 17.034C80.5188 17.034 80.9341 16.9967 81.3261 16.922C81.7181 16.8473 82.1008 16.754 82.4741 16.642V17.734C82.1008 17.874 81.7135 17.9767 81.3121 18.042C80.9201 18.1073 80.4488 18.14 79.8981 18.14C78.8808 18.14 78.0315 17.93 77.3501 17.51C76.6688 17.09 76.1555 16.4927 75.8101 15.718C75.4741 14.9433 75.3061 14.0333 75.3061 12.988C75.3061 12.232 75.4088 11.5413 75.6141 10.916C75.8288 10.2907 76.1368 9.74933 76.5381 9.292C76.9488 8.83467 77.4528 8.48467 78.0501 8.242C78.6475 7.99 79.3335 7.864 80.1081 7.864C80.6215 7.864 81.1161 7.91533 81.5921 8.018C82.0681 8.12067 82.4928 8.26533 82.8661 8.452L82.3621 9.516C82.0541 9.376 81.7088 9.25 81.3261 9.138C80.9528 9.026 80.5421 8.97 80.0941 8.97ZM91.0119 14.234C91.0119 14.8593 90.9279 15.4147 90.7599 15.9C90.6012 16.376 90.3679 16.782 90.0599 17.118C89.7612 17.454 89.3925 17.7107 88.9539 17.888C88.5245 18.056 88.0439 18.14 87.5119 18.14C87.0172 18.14 86.5599 18.056 86.1399 17.888C85.7199 17.7107 85.3559 17.454 85.0479 17.118C84.7399 16.782 84.4972 16.376 84.3199 15.9C84.1519 15.4147 84.0679 14.8593 84.0679 14.234C84.0679 13.4033 84.2079 12.7033 84.4879 12.134C84.7679 11.5553 85.1692 11.1167 85.6919 10.818C86.2145 10.51 86.8352 10.356 87.5539 10.356C88.2352 10.356 88.8325 10.51 89.3459 10.818C89.8685 11.1167 90.2745 11.5553 90.5639 12.134C90.8625 12.7033 91.0119 13.4033 91.0119 14.234ZM85.3419 14.234C85.3419 14.822 85.4165 15.3353 85.5659 15.774C85.7245 16.2033 85.9672 16.5347 86.2939 16.768C86.6205 17.0013 87.0359 17.118 87.5399 17.118C88.0439 17.118 88.4592 17.0013 88.7859 16.768C89.1125 16.5347 89.3505 16.2033 89.4999 15.774C89.6585 15.3353 89.7379 14.822 89.7379 14.234C89.7379 13.6367 89.6585 13.128 89.4999 12.708C89.3412 12.288 89.0985 11.966 88.7719 11.742C88.4545 11.5087 88.0392 11.392 87.5259 11.392C86.7605 11.392 86.2052 11.644 85.8599 12.148C85.5145 12.652 85.3419 13.3473 85.3419 14.234ZM94.1964 10.496V18H92.9644V10.496H94.1964ZM93.5944 7.682C93.7811 7.682 93.9444 7.74733 94.0844 7.878C94.2337 7.99933 94.3084 8.19533 94.3084 8.466C94.3084 8.72733 94.2337 8.92333 94.0844 9.054C93.9444 9.18467 93.7811 9.25 93.5944 9.25C93.3891 9.25 93.2164 9.18467 93.0764 9.054C92.9364 8.92333 92.8664 8.72733 92.8664 8.466C92.8664 8.19533 92.9364 7.99933 93.0764 7.878C93.2164 7.74733 93.3891 7.682 93.5944 7.682ZM100.186 10.356C101.082 10.356 101.758 10.5753 102.216 11.014C102.673 11.4433 102.902 12.1433 102.902 13.114V18H101.684V13.198C101.684 12.5913 101.548 12.1387 101.278 11.84C101.007 11.5413 100.582 11.392 100.004 11.392C99.1731 11.392 98.5991 11.6253 98.2818 12.092C97.9645 12.5587 97.8058 13.2307 97.8058 14.108V18H96.5738V10.496H97.5678L97.7498 11.518H97.8198C97.9878 11.2567 98.1931 11.042 98.4358 10.874C98.6878 10.6967 98.9631 10.566 99.2618 10.482C99.5605 10.398 99.8685 10.356 100.186 10.356ZM111.889 8.004C112.719 8.004 113.415 8.08333 113.975 8.242C114.544 8.40067 114.969 8.662 115.249 9.026C115.538 9.39 115.683 9.87533 115.683 10.482C115.683 10.874 115.608 11.224 115.459 11.532C115.319 11.8307 115.104 12.0827 114.815 12.288C114.535 12.484 114.189 12.6193 113.779 12.694V12.764C114.199 12.8293 114.577 12.9507 114.913 13.128C115.258 13.3053 115.529 13.5573 115.725 13.884C115.921 14.2107 116.019 14.6353 116.019 15.158C116.019 15.7647 115.879 16.2827 115.599 16.712C115.319 17.132 114.917 17.454 114.395 17.678C113.881 17.8927 113.265 18 112.547 18H109.033V8.004H111.889ZM112.141 12.26C112.999 12.26 113.587 12.1247 113.905 11.854C114.222 11.574 114.381 11.1633 114.381 10.622C114.381 10.0713 114.185 9.67933 113.793 9.446C113.41 9.20333 112.794 9.082 111.945 9.082H110.293V12.26H112.141ZM110.293 13.31V16.936H112.309C113.195 16.936 113.811 16.7633 114.157 16.418C114.502 16.0727 114.675 15.62 114.675 15.06C114.675 14.7053 114.595 14.3973 114.437 14.136C114.287 13.8747 114.031 13.674 113.667 13.534C113.312 13.3847 112.827 13.31 112.211 13.31H110.293ZM126.062 18H124.592L119.244 9.698H119.188C119.198 9.866 119.207 10.0527 119.216 10.258C119.235 10.4633 119.249 10.6873 119.258 10.93C119.268 11.1633 119.277 11.406 119.286 11.658C119.296 11.91 119.3 12.162 119.3 12.414V18H118.138V8.004H119.594L124.928 16.278H124.984C124.975 16.166 124.966 16.012 124.956 15.816C124.947 15.6107 124.938 15.3867 124.928 15.144C124.919 14.892 124.91 14.6353 124.9 14.374C124.891 14.1127 124.886 13.87 124.886 13.646V8.004H126.062V18ZM131.631 8.004C132.462 8.004 133.157 8.08333 133.717 8.242C134.286 8.40067 134.711 8.662 134.991 9.026C135.28 9.39 135.425 9.87533 135.425 10.482C135.425 10.874 135.35 11.224 135.201 11.532C135.061 11.8307 134.846 12.0827 134.557 12.288C134.277 12.484 133.932 12.6193 133.521 12.694V12.764C133.941 12.8293 134.319 12.9507 134.655 13.128C135 13.3053 135.271 13.5573 135.467 13.884C135.663 14.2107 135.761 14.6353 135.761 15.158C135.761 15.7647 135.621 16.2827 135.341 16.712C135.061 17.132 134.66 17.454 134.137 17.678C133.624 17.8927 133.008 18 132.289 18H128.775V8.004H131.631ZM131.883 12.26C132.742 12.26 133.33 12.1247 133.647 11.854C133.964 11.574 134.123 11.1633 134.123 10.622C134.123 10.0713 133.927 9.67933 133.535 9.446C133.152 9.20333 132.536 9.082 131.687 9.082H130.035V12.26H131.883ZM130.035 13.31V16.936H132.051C132.938 16.936 133.554 16.7633 133.899 16.418C134.244 16.0727 134.417 15.62 134.417 15.06C134.417 14.7053 134.338 14.3973 134.179 14.136C134.03 13.8747 133.773 13.674 133.409 13.534C133.054 13.3847 132.569 13.31 131.953 13.31H130.035ZM140.719 14.164C140.719 13.3987 140.789 12.652 140.929 11.924C141.079 11.196 141.307 10.5007 141.615 9.838C141.923 9.17533 142.311 8.564 142.777 8.004H143.939C143.51 8.58267 143.146 9.208 142.847 9.88C142.558 10.552 142.339 11.2473 142.189 11.966C142.04 12.6847 141.965 13.4127 141.965 14.15C141.965 14.8687 142.04 15.5827 142.189 16.292C142.339 17.0013 142.558 17.6827 142.847 18.336C143.137 18.9987 143.496 19.624 143.925 20.212H142.777C142.311 19.6613 141.923 19.0593 141.615 18.406C141.307 17.762 141.079 17.0807 140.929 16.362C140.789 15.6433 140.719 14.9107 140.719 14.164ZM152.207 8.004C153.038 8.004 153.733 8.08333 154.293 8.242C154.862 8.40067 155.287 8.662 155.567 9.026C155.856 9.39 156.001 9.87533 156.001 10.482C156.001 10.874 155.926 11.224 155.777 11.532C155.637 11.8307 155.422 12.0827 155.133 12.288C154.853 12.484 154.508 12.6193 154.097 12.694V12.764C154.517 12.8293 154.895 12.9507 155.231 13.128C155.576 13.3053 155.847 13.5573 156.043 13.884C156.239 14.2107 156.337 14.6353 156.337 15.158C156.337 15.7647 156.197 16.2827 155.917 16.712C155.637 17.132 155.236 17.454 154.713 17.678C154.2 17.8927 153.584 18 152.865 18H149.351V8.004H152.207ZM152.459 12.26C153.318 12.26 153.906 12.1247 154.223 11.854C154.54 11.574 154.699 11.1633 154.699 10.622C154.699 10.0713 154.503 9.67933 154.111 9.446C153.728 9.20333 153.112 9.082 152.263 9.082H150.611V12.26H152.459ZM150.611 13.31V16.936H152.627C153.514 16.936 154.13 16.7633 154.475 16.418C154.82 16.0727 154.993 15.62 154.993 15.06C154.993 14.7053 154.914 14.3973 154.755 14.136C154.606 13.8747 154.349 13.674 153.985 13.534C153.63 13.3847 153.145 13.31 152.529 13.31H150.611ZM166.381 18H164.911L159.563 9.698H159.507C159.516 9.866 159.525 10.0527 159.535 10.258C159.553 10.4633 159.567 10.6873 159.577 10.93C159.586 11.1633 159.595 11.406 159.605 11.658C159.614 11.91 159.619 12.162 159.619 12.414V18H158.457V8.004H159.913L165.247 16.278H165.303C165.293 16.166 165.284 16.012 165.275 15.816C165.265 15.6107 165.256 15.3867 165.247 15.144C165.237 14.892 165.228 14.6353 165.219 14.374C165.209 14.1127 165.205 13.87 165.205 13.646V8.004H166.381V18ZM171.949 8.004C172.78 8.004 173.475 8.08333 174.035 8.242C174.605 8.40067 175.029 8.662 175.309 9.026C175.599 9.39 175.743 9.87533 175.743 10.482C175.743 10.874 175.669 11.224 175.519 11.532C175.379 11.8307 175.165 12.0827 174.875 12.288C174.595 12.484 174.25 12.6193 173.839 12.694V12.764C174.259 12.8293 174.637 12.9507 174.973 13.128C175.319 13.3053 175.589 13.5573 175.785 13.884C175.981 14.2107 176.079 14.6353 176.079 15.158C176.079 15.7647 175.939 16.2827 175.659 16.712C175.379 17.132 174.978 17.454 174.455 17.678C173.942 17.8927 173.326 18 172.607 18H169.093V8.004H171.949ZM172.201 12.26C173.06 12.26 173.648 12.1247 173.965 11.854C174.283 11.574 174.441 11.1633 174.441 10.622C174.441 10.0713 174.245 9.67933 173.853 9.446C173.471 9.20333 172.855 9.082 172.005 9.082H170.353V12.26H172.201ZM170.353 13.31V16.936H172.369C173.256 16.936 173.872 16.7633 174.217 16.418C174.563 16.0727 174.735 15.62 174.735 15.06C174.735 14.7053 174.656 14.3973 174.497 14.136C174.348 13.8747 174.091 13.674 173.727 13.534C173.373 13.3847 172.887 13.31 172.271 13.31H170.353ZM184.692 8.004C185.522 8.004 186.218 8.08333 186.778 8.242C187.347 8.40067 187.772 8.662 188.052 9.026C188.341 9.39 188.486 9.87533 188.486 10.482C188.486 10.874 188.411 11.224 188.262 11.532C188.122 11.8307 187.907 12.0827 187.618 12.288C187.338 12.484 186.992 12.6193 186.582 12.694V12.764C187.002 12.8293 187.38 12.9507 187.716 13.128C188.061 13.3053 188.332 13.5573 188.528 13.884C188.724 14.2107 188.822 14.6353 188.822 15.158C188.822 15.7647 188.682 16.2827 188.402 16.712C188.122 17.132 187.72 17.454 187.198 17.678C186.684 17.8927 186.068 18 185.35 18H181.836V8.004H184.692ZM184.944 12.26C185.802 12.26 186.39 12.1247 186.708 11.854C187.025 11.574 187.184 11.1633 187.184 10.622C187.184 10.0713 186.988 9.67933 186.596 9.446C186.213 9.20333 185.597 9.082 184.748 9.082H183.096V12.26H184.944ZM183.096 13.31V16.936H185.112C185.998 16.936 186.614 16.7633 186.96 16.418C187.305 16.0727 187.478 15.62 187.478 15.06C187.478 14.7053 187.398 14.3973 187.24 14.136C187.09 13.8747 186.834 13.674 186.47 13.534C186.115 13.3847 185.63 13.31 185.014 13.31H183.096ZM196.527 18H190.941V8.004H196.527V9.11H192.201V12.232H196.275V13.324H192.201V16.894H196.527V18ZM201.366 8.004C202.673 8.004 203.625 8.26067 204.222 8.774C204.82 9.28733 205.118 10.0107 205.118 10.944C205.118 11.3547 205.048 11.7513 204.908 12.134C204.778 12.5073 204.558 12.8433 204.25 13.142C203.942 13.4407 203.532 13.6787 203.018 13.856C202.505 14.024 201.875 14.108 201.128 14.108H199.98V18H198.72V8.004H201.366ZM201.254 9.082H199.98V13.03H200.988C201.623 13.03 202.15 12.9647 202.57 12.834C202.99 12.694 203.303 12.4747 203.508 12.176C203.714 11.8773 203.816 11.4853 203.816 11C203.816 10.356 203.611 9.87533 203.2 9.558C202.79 9.24067 202.141 9.082 201.254 9.082ZM213.119 18H206.511V16.978L209.129 14.332C209.633 13.828 210.058 13.38 210.403 12.988C210.748 12.596 211.01 12.2133 211.187 11.84C211.364 11.4573 211.453 11.042 211.453 10.594C211.453 10.0433 211.29 9.628 210.963 9.348C210.636 9.05867 210.212 8.914 209.689 8.914C209.204 8.914 208.774 8.998 208.401 9.166C208.037 9.334 207.664 9.56733 207.281 9.866L206.623 9.04C206.884 8.816 207.169 8.61533 207.477 8.438C207.794 8.26067 208.135 8.12067 208.499 8.018C208.872 7.91533 209.269 7.864 209.689 7.864C210.314 7.864 210.851 7.97133 211.299 8.186C211.747 8.40067 212.092 8.70867 212.335 9.11C212.587 9.502 212.713 9.97333 212.713 10.524C212.713 10.916 212.652 11.2893 212.531 11.644C212.41 11.9893 212.237 12.33 212.013 12.666C211.789 13.002 211.518 13.3427 211.201 13.688C210.884 14.0333 210.534 14.3927 210.151 14.766L208.065 16.824V16.88H213.119V18ZM221.127 14.164C221.127 14.9107 221.053 15.6433 220.903 16.362C220.763 17.0807 220.539 17.762 220.231 18.406C219.933 19.0593 219.545 19.6613 219.069 20.212H217.921C218.351 19.624 218.71 18.9987 218.999 18.336C219.289 17.6827 219.508 17.0013 219.657 16.292C219.807 15.5827 219.881 14.8687 219.881 14.15C219.881 13.4127 219.807 12.6847 219.657 11.966C219.508 11.2473 219.289 10.552 218.999 9.88C218.71 9.208 218.346 8.58267 217.907 8.004H219.069C219.545 8.564 219.933 9.17533 220.231 9.838C220.539 10.5007 220.763 11.196 220.903 11.924C221.053 12.652 221.127 13.3987 221.127 14.164Z" fill="white"/>
<path d="M251.954 9.95C251.954 10.2673 251.945 10.566 251.926 10.846C251.917 11.1167 251.903 11.3313 251.884 11.49H251.954C252.169 11.1727 252.463 10.9067 252.836 10.692C253.21 10.4773 253.69 10.37 254.278 10.37C255.212 10.37 255.958 10.6967 256.518 11.35C257.088 11.994 257.372 12.96 257.372 14.248C257.372 15.1067 257.242 15.8253 256.98 16.404C256.728 16.9827 256.369 17.4167 255.902 17.706C255.436 17.9953 254.894 18.14 254.278 18.14C253.69 18.14 253.21 18.0327 252.836 17.818C252.463 17.6033 252.169 17.3467 251.954 17.048H251.856L251.604 18H250.722V7.36H251.954V9.95ZM254.068 11.392C253.536 11.392 253.116 11.4947 252.808 11.7C252.5 11.896 252.281 12.204 252.15 12.624C252.02 13.0347 251.954 13.562 251.954 14.206V14.262C251.954 15.186 252.104 15.8953 252.402 16.39C252.71 16.8753 253.275 17.118 254.096 17.118C254.768 17.118 255.268 16.8707 255.594 16.376C255.93 15.8813 256.098 15.1673 256.098 14.234C256.098 13.2913 255.93 12.582 255.594 12.106C255.268 11.63 254.759 11.392 254.068 11.392ZM262.948 10.356C263.844 10.356 264.52 10.5753 264.978 11.014C265.435 11.4433 265.664 12.1433 265.664 13.114V18H264.446V13.198C264.446 12.5913 264.31 12.1387 264.04 11.84C263.769 11.5413 263.344 11.392 262.766 11.392C261.935 11.392 261.361 11.6253 261.044 12.092C260.726 12.5587 260.568 13.2307 260.568 14.108V18H259.336V10.496H260.33L260.512 11.518H260.582C260.75 11.2567 260.955 11.042 261.198 10.874C261.45 10.6967 261.725 10.566 262.024 10.482C262.322 10.398 262.63 10.356 262.948 10.356ZM269.222 9.95C269.222 10.2673 269.212 10.566 269.194 10.846C269.184 11.1167 269.17 11.3313 269.152 11.49H269.222C269.436 11.1727 269.73 10.9067 270.104 10.692C270.477 10.4773 270.958 10.37 271.546 10.37C272.479 10.37 273.226 10.6967 273.786 11.35C274.355 11.994 274.64 12.96 274.64 14.248C274.64 15.1067 274.509 15.8253 274.248 16.404C273.996 16.9827 273.636 17.4167 273.17 17.706C272.703 17.9953 272.162 18.14 271.546 18.14C270.958 18.14 270.477 18.0327 270.104 17.818C269.73 17.6033 269.436 17.3467 269.222 17.048H269.124L268.872 18H267.99V7.36H269.222V9.95ZM271.336 11.392C270.804 11.392 270.384 11.4947 270.076 11.7C269.768 11.896 269.548 12.204 269.418 12.624C269.287 13.0347 269.222 13.562 269.222 14.206V14.262C269.222 15.186 269.371 15.8953 269.67 16.39C269.978 16.8753 270.542 17.118 271.364 17.118C272.036 17.118 272.535 16.8707 272.862 16.376C273.198 15.8813 273.366 15.1673 273.366 14.234C273.366 13.2913 273.198 12.582 272.862 12.106C272.535 11.63 272.026 11.392 271.336 11.392ZM280.383 18H279.179V11.014C279.179 10.7433 279.179 10.5147 279.179 10.328C279.188 10.1413 279.198 9.96867 279.207 9.81C279.216 9.642 279.226 9.46933 279.235 9.292C279.086 9.44133 278.95 9.56733 278.829 9.67C278.708 9.77267 278.554 9.90333 278.367 10.062L277.303 10.93L276.659 10.104L279.361 8.004H280.383V18ZM287.513 10.356C288.157 10.356 288.707 10.496 289.165 10.776C289.631 11.056 289.986 11.4527 290.229 11.966C290.481 12.47 290.607 13.0627 290.607 13.744V14.486H285.469C285.487 15.3353 285.702 15.984 286.113 16.432C286.533 16.8707 287.116 17.09 287.863 17.09C288.339 17.09 288.759 17.048 289.123 16.964C289.496 16.8707 289.879 16.74 290.271 16.572V17.65C289.888 17.818 289.51 17.9393 289.137 18.014C288.763 18.098 288.32 18.14 287.807 18.14C287.097 18.14 286.467 17.9953 285.917 17.706C285.375 17.4167 284.951 16.9873 284.643 16.418C284.344 15.8393 284.195 15.1347 284.195 14.304C284.195 13.4827 284.33 12.778 284.601 12.19C284.881 11.602 285.268 11.1493 285.763 10.832C286.267 10.5147 286.85 10.356 287.513 10.356ZM287.499 11.364C286.911 11.364 286.444 11.5553 286.099 11.938C285.763 12.3113 285.562 12.834 285.497 13.506H289.319C289.319 13.0767 289.253 12.7033 289.123 12.386C288.992 12.0687 288.791 11.8213 288.521 11.644C288.259 11.4573 287.919 11.364 287.499 11.364ZM298.789 10.496V18H297.781L297.599 17.006H297.543C297.384 17.2673 297.179 17.482 296.927 17.65C296.675 17.818 296.4 17.9393 296.101 18.014C295.802 18.098 295.49 18.14 295.163 18.14C294.566 18.14 294.062 18.0467 293.651 17.86C293.25 17.664 292.946 17.3653 292.741 16.964C292.536 16.5627 292.433 16.0447 292.433 15.41V10.496H293.679V15.326C293.679 15.9233 293.814 16.3713 294.085 16.67C294.356 16.9687 294.776 17.118 295.345 17.118C295.905 17.118 296.344 17.0153 296.661 16.81C296.988 16.5953 297.216 16.2873 297.347 15.886C297.487 15.4753 297.557 14.9807 297.557 14.402V10.496H298.789ZM307.303 12.988C307.303 13.8 307.243 14.5233 307.121 15.158C307 15.7927 306.804 16.334 306.533 16.782C306.272 17.2207 305.927 17.5567 305.497 17.79C305.077 18.0233 304.569 18.14 303.971 18.14C303.225 18.14 302.604 17.9347 302.109 17.524C301.624 17.1133 301.26 16.5253 301.017 15.76C300.784 14.9853 300.667 14.0613 300.667 12.988C300.667 11.9053 300.775 10.9813 300.989 10.216C301.213 9.45067 301.568 8.86733 302.053 8.466C302.539 8.05533 303.178 7.85 303.971 7.85C304.718 7.85 305.339 8.05533 305.833 8.466C306.328 8.86733 306.697 9.45067 306.939 10.216C307.182 10.9813 307.303 11.9053 307.303 12.988ZM301.899 12.988C301.899 13.9027 301.965 14.6633 302.095 15.27C302.235 15.8767 302.455 16.334 302.753 16.642C303.061 16.9407 303.467 17.09 303.971 17.09C304.475 17.09 304.877 16.9407 305.175 16.642C305.483 16.3433 305.707 15.8907 305.847 15.284C305.987 14.668 306.057 13.9027 306.057 12.988C306.057 12.0733 305.987 11.3173 305.847 10.72C305.707 10.1133 305.483 9.66067 305.175 9.362C304.877 9.054 304.475 8.9 303.971 8.9C303.467 8.9 303.061 9.054 302.753 9.362C302.455 9.66067 302.235 10.1133 302.095 10.72C301.965 11.3173 301.899 12.0733 301.899 12.988ZM315.273 18H308.665V16.978L311.283 14.332C311.787 13.828 312.212 13.38 312.557 12.988C312.902 12.596 313.164 12.2133 313.341 11.84C313.518 11.4573 313.607 11.042 313.607 10.594C313.607 10.0433 313.444 9.628 313.117 9.348C312.79 9.05867 312.366 8.914 311.843 8.914C311.358 8.914 310.928 8.998 310.555 9.166C310.191 9.334 309.818 9.56733 309.435 9.866L308.777 9.04C309.038 8.816 309.323 8.61533 309.631 8.438C309.948 8.26067 310.289 8.12067 310.653 8.018C311.026 7.91533 311.423 7.864 311.843 7.864C312.468 7.864 313.005 7.97133 313.453 8.186C313.901 8.40067 314.246 8.70867 314.489 9.11C314.741 9.502 314.867 9.97333 314.867 10.524C314.867 10.916 314.806 11.2893 314.685 11.644C314.564 11.9893 314.391 12.33 314.167 12.666C313.943 13.002 313.672 13.3427 313.355 13.688C313.038 14.0333 312.688 14.3927 312.305 14.766L310.219 16.824V16.88H315.273V18ZM320.653 11.448H318.763V18H317.531V11.448H316.215V10.874L317.531 10.454V10.02C317.531 9.376 317.624 8.85333 317.811 8.452C318.007 8.05067 318.287 7.75667 318.651 7.57C319.015 7.38333 319.454 7.29 319.967 7.29C320.266 7.29 320.536 7.318 320.779 7.374C321.031 7.42067 321.246 7.47667 321.423 7.542L321.101 8.508C320.952 8.46133 320.779 8.41467 320.583 8.368C320.387 8.32133 320.186 8.298 319.981 8.298C319.57 8.298 319.262 8.438 319.057 8.718C318.861 8.98867 318.763 9.418 318.763 10.006V10.496H320.653V11.448ZM323.785 14.164L321.195 10.496H322.595L324.527 13.324L326.445 10.496H327.831L325.241 14.164L327.971 18H326.571L324.527 15.004L322.455 18H321.069L323.785 14.164ZM332.078 10.356C332.572 10.356 333.016 10.4493 333.408 10.636C333.809 10.8227 334.15 11.1073 334.43 11.49H334.5L334.668 10.496H335.648V18.126C335.648 18.8353 335.526 19.428 335.284 19.904C335.041 20.3893 334.672 20.7533 334.178 20.996C333.683 21.2387 333.053 21.36 332.288 21.36C331.746 21.36 331.247 21.318 330.79 21.234C330.342 21.1593 329.94 21.0427 329.586 20.884V19.75C329.828 19.8713 330.094 19.974 330.384 20.058C330.673 20.1513 330.986 20.2213 331.322 20.268C331.658 20.3147 332.003 20.338 332.358 20.338C333.002 20.338 333.506 20.1467 333.87 19.764C334.243 19.3907 334.43 18.8773 334.43 18.224V17.93C334.43 17.818 334.434 17.6593 334.444 17.454C334.453 17.2393 334.462 17.09 334.472 17.006H334.416C334.154 17.3887 333.828 17.6733 333.436 17.86C333.053 18.0467 332.605 18.14 332.092 18.14C331.121 18.14 330.36 17.7993 329.81 17.118C329.268 16.4367 328.998 15.4847 328.998 14.262C328.998 13.4593 329.119 12.7687 329.362 12.19C329.614 11.602 329.968 11.1493 330.426 10.832C330.883 10.5147 331.434 10.356 332.078 10.356ZM332.246 11.392C331.826 11.392 331.466 11.504 331.168 11.728C330.878 11.952 330.654 12.2787 330.496 12.708C330.346 13.1373 330.272 13.66 330.272 14.276C330.272 15.2 330.44 15.9093 330.776 16.404C331.121 16.8893 331.62 17.132 332.274 17.132C332.656 17.132 332.983 17.0853 333.254 16.992C333.524 16.8893 333.748 16.7353 333.926 16.53C334.103 16.3153 334.234 16.0447 334.318 15.718C334.402 15.3913 334.444 15.004 334.444 14.556V14.262C334.444 13.5807 334.364 13.03 334.206 12.61C334.056 12.19 333.818 11.882 333.492 11.686C333.165 11.49 332.75 11.392 332.246 11.392ZM342.917 15.928C342.917 16.4133 342.795 16.8193 342.553 17.146C342.31 17.4727 341.965 17.72 341.517 17.888C341.069 18.056 340.537 18.14 339.921 18.14C339.398 18.14 338.945 18.098 338.563 18.014C338.189 17.93 337.858 17.8133 337.569 17.664V16.544C337.867 16.6933 338.227 16.8333 338.647 16.964C339.076 17.0853 339.51 17.146 339.949 17.146C340.574 17.146 341.027 17.048 341.307 16.852C341.587 16.6467 341.727 16.376 341.727 16.04C341.727 15.8533 341.675 15.6853 341.573 15.536C341.47 15.3867 341.283 15.2373 341.013 15.088C340.751 14.9387 340.373 14.7707 339.879 14.584C339.393 14.3973 338.978 14.2107 338.633 14.024C338.287 13.8373 338.021 13.6133 337.835 13.352C337.648 13.0907 337.555 12.7547 337.555 12.344C337.555 11.7093 337.811 11.2193 338.325 10.874C338.847 10.5287 339.529 10.356 340.369 10.356C340.826 10.356 341.251 10.4027 341.643 10.496C342.044 10.58 342.417 10.7013 342.763 10.86L342.343 11.84C342.137 11.7467 341.918 11.6673 341.685 11.602C341.461 11.5273 341.232 11.4713 340.999 11.434C340.765 11.3873 340.527 11.364 340.285 11.364C339.781 11.364 339.393 11.448 339.123 11.616C338.861 11.7747 338.731 11.994 338.731 12.274C338.731 12.4793 338.791 12.6567 338.913 12.806C339.034 12.946 339.235 13.086 339.515 13.226C339.804 13.3567 340.187 13.5153 340.663 13.702C341.139 13.8793 341.545 14.0613 341.881 14.248C342.217 14.4347 342.473 14.6633 342.651 14.934C342.828 15.1953 342.917 15.5267 342.917 15.928ZM345.444 18L349.546 9.124H344.156V8.004H350.862V8.956L346.802 18H345.444ZM359.014 10.496V18H358.006L357.824 17.006H357.768C357.609 17.2673 357.404 17.482 357.152 17.65C356.9 17.818 356.624 17.9393 356.326 18.014C356.027 18.098 355.714 18.14 355.388 18.14C354.79 18.14 354.286 18.0467 353.876 17.86C353.474 17.664 353.171 17.3653 352.966 16.964C352.76 16.5627 352.658 16.0447 352.658 15.41V10.496H353.904V15.326C353.904 15.9233 354.039 16.3713 354.31 16.67C354.58 16.9687 355 17.118 355.57 17.118C356.13 17.118 356.568 17.0153 356.886 16.81C357.212 16.5953 357.441 16.2873 357.572 15.886C357.712 15.4753 357.782 14.9807 357.782 14.402V10.496H359.014ZM366.394 18.154C366.394 17.986 366.399 17.79 366.408 17.566C366.417 17.342 366.436 17.1507 366.464 16.992H366.38C366.165 17.3093 365.867 17.58 365.484 17.804C365.111 18.028 364.625 18.14 364.028 18.14C363.123 18.14 362.385 17.818 361.816 17.174C361.256 16.5207 360.976 15.55 360.976 14.262C360.976 13.4033 361.107 12.6847 361.368 12.106C361.629 11.5273 361.993 11.0933 362.46 10.804C362.927 10.5053 363.463 10.356 364.07 10.356C364.658 10.356 365.139 10.468 365.512 10.692C365.885 10.916 366.184 11.1913 366.408 11.518H366.464L366.646 10.496H367.626V21.36H366.394V18.154ZM364.266 17.118C364.779 17.118 365.19 17.0247 365.498 16.838C365.815 16.6513 366.044 16.3667 366.184 15.984C366.324 15.592 366.399 15.1067 366.408 14.528V14.276C366.408 13.324 366.249 12.6053 365.932 12.12C365.615 11.6253 365.05 11.378 364.238 11.378C363.566 11.378 363.067 11.644 362.74 12.176C362.413 12.6987 362.25 13.4033 362.25 14.29C362.25 15.1767 362.413 15.872 362.74 16.376C363.076 16.8707 363.585 17.118 364.266 17.118ZM372.669 10.356C373.164 10.356 373.607 10.4493 373.999 10.636C374.401 10.8227 374.741 11.1073 375.021 11.49H375.091L375.259 10.496H376.239V18.126C376.239 18.8353 376.118 19.428 375.875 19.904C375.633 20.3893 375.264 20.7533 374.769 20.996C374.275 21.2387 373.645 21.36 372.879 21.36C372.338 21.36 371.839 21.318 371.381 21.234C370.933 21.1593 370.532 21.0427 370.177 20.884V19.75C370.42 19.8713 370.686 19.974 370.975 20.058C371.265 20.1513 371.577 20.2213 371.913 20.268C372.249 20.3147 372.595 20.338 372.949 20.338C373.593 20.338 374.097 20.1467 374.461 19.764C374.835 19.3907 375.021 18.8773 375.021 18.224V17.93C375.021 17.818 375.026 17.6593 375.035 17.454C375.045 17.2393 375.054 17.09 375.063 17.006H375.007C374.746 17.3887 374.419 17.6733 374.027 17.86C373.645 18.0467 373.197 18.14 372.683 18.14C371.713 18.14 370.952 17.7993 370.401 17.118C369.86 16.4367 369.589 15.4847 369.589 14.262C369.589 13.4593 369.711 12.7687 369.953 12.19C370.205 11.602 370.56 11.1493 371.017 10.832C371.475 10.5147 372.025 10.356 372.669 10.356ZM372.837 11.392C372.417 11.392 372.058 11.504 371.759 11.728C371.47 11.952 371.246 12.2787 371.087 12.708C370.938 13.1373 370.863 13.66 370.863 14.276C370.863 15.2 371.031 15.9093 371.367 16.404C371.713 16.8893 372.212 17.132 372.865 17.132C373.248 17.132 373.575 17.0853 373.845 16.992C374.116 16.8893 374.34 16.7353 374.517 16.53C374.695 16.3153 374.825 16.0447 374.909 15.718C374.993 15.3913 375.035 15.004 375.035 14.556V14.262C375.035 13.5807 374.956 13.03 374.797 12.61C374.648 12.19 374.41 11.882 374.083 11.686C373.757 11.49 373.341 11.392 372.837 11.392ZM383.467 18H377.979V17.188L382.011 11.448H378.217V10.496H383.369V11.42L379.393 17.048H383.467V18ZM388.209 18.14C387.546 18.14 386.953 18.0047 386.431 17.734C385.917 17.4633 385.511 17.0433 385.213 16.474C384.923 15.9047 384.779 15.1767 384.779 14.29C384.779 13.366 384.933 12.6147 385.241 12.036C385.549 11.4573 385.964 11.0327 386.487 10.762C387.019 10.4913 387.621 10.356 388.293 10.356C388.675 10.356 389.044 10.398 389.399 10.482C389.753 10.5567 390.043 10.65 390.267 10.762L389.889 11.784C389.665 11.7 389.403 11.6207 389.105 11.546C388.806 11.4713 388.526 11.434 388.265 11.434C387.761 11.434 387.345 11.5413 387.019 11.756C386.692 11.9707 386.449 12.288 386.291 12.708C386.132 13.128 386.053 13.6507 386.053 14.276C386.053 14.8733 386.132 15.382 386.291 15.802C386.449 16.222 386.687 16.5393 387.005 16.754C387.322 16.9687 387.719 17.076 388.195 17.076C388.605 17.076 388.965 17.034 389.273 16.95C389.59 16.866 389.879 16.7633 390.141 16.642V17.734C389.889 17.8647 389.609 17.9627 389.301 18.028C389.002 18.1027 388.638 18.14 388.209 18.14ZM397.637 10.342C397.637 10.79 397.553 11.1773 397.385 11.504C397.217 11.8307 396.975 12.0967 396.657 12.302C396.349 12.5073 395.985 12.652 395.565 12.736V12.792C396.368 12.8853 396.965 13.1373 397.357 13.548C397.749 13.9587 397.945 14.4953 397.945 15.158C397.945 15.7367 397.81 16.2547 397.539 16.712C397.269 17.16 396.849 17.51 396.279 17.762C395.719 18.014 394.996 18.14 394.109 18.14C393.587 18.14 393.101 18.098 392.653 18.014C392.205 17.9393 391.776 17.7993 391.365 17.594V16.446C391.785 16.6513 392.238 16.8147 392.723 16.936C393.209 17.048 393.675 17.104 394.123 17.104C395.019 17.104 395.663 16.9313 396.055 16.586C396.457 16.2313 396.657 15.746 396.657 15.13C396.657 14.71 396.545 14.374 396.321 14.122C396.107 13.8607 395.789 13.6693 395.369 13.548C394.949 13.4267 394.445 13.366 393.857 13.366H392.891V12.316H393.871C394.422 12.316 394.879 12.2367 395.243 12.078C395.617 11.9193 395.897 11.7 396.083 11.42C396.279 11.1307 396.377 10.7993 396.377 10.426C396.377 9.94067 396.214 9.56733 395.887 9.306C395.561 9.03533 395.117 8.9 394.557 8.9C394.203 8.9 393.881 8.93733 393.591 9.012C393.302 9.07733 393.031 9.17533 392.779 9.306C392.537 9.42733 392.289 9.572 392.037 9.74L391.421 8.9C391.664 8.71333 391.939 8.54067 392.247 8.382C392.565 8.22333 392.915 8.09733 393.297 8.004C393.68 7.91067 394.095 7.864 394.543 7.864C395.589 7.864 396.363 8.09733 396.867 8.564C397.381 9.03067 397.637 9.62333 397.637 10.342ZM406.027 18H399.419V16.978L402.037 14.332C402.541 13.828 402.966 13.38 403.311 12.988C403.656 12.596 403.918 12.2133 404.095 11.84C404.272 11.4573 404.361 11.042 404.361 10.594C404.361 10.0433 404.198 9.628 403.871 9.348C403.544 9.05867 403.12 8.914 402.597 8.914C402.112 8.914 401.682 8.998 401.309 9.166C400.945 9.334 400.572 9.56733 400.189 9.866L399.531 9.04C399.792 8.816 400.077 8.61533 400.385 8.438C400.702 8.26067 401.043 8.12067 401.407 8.018C401.78 7.91533 402.177 7.864 402.597 7.864C403.222 7.864 403.759 7.97133 404.207 8.186C404.655 8.40067 405 8.70867 405.243 9.11C405.495 9.502 405.621 9.97333 405.621 10.524C405.621 10.916 405.56 11.2893 405.439 11.644C405.318 11.9893 405.145 12.33 404.921 12.666C404.697 13.002 404.426 13.3427 404.109 13.688C403.792 14.0333 403.442 14.3927 403.059 14.766L400.973 16.824V16.88H406.027V18ZM416.181 10.356C417.03 10.356 417.665 10.5753 418.085 11.014C418.505 11.4433 418.715 12.1433 418.715 13.114V18H417.497V13.17C417.497 12.582 417.371 12.1387 417.119 11.84C416.876 11.5413 416.493 11.392 415.971 11.392C415.243 11.392 414.72 11.602 414.403 12.022C414.095 12.442 413.941 13.0533 413.941 13.856V18H412.723V13.17C412.723 12.778 412.667 12.4513 412.555 12.19C412.443 11.9193 412.275 11.7187 412.051 11.588C411.827 11.4573 411.537 11.392 411.183 11.392C410.679 11.392 410.282 11.4993 409.993 11.714C409.703 11.9193 409.493 12.2227 409.363 12.624C409.241 13.0253 409.181 13.52 409.181 14.108V18H407.949V10.496H408.943L409.125 11.518H409.195C409.353 11.2567 409.545 11.042 409.769 10.874C410.002 10.6967 410.259 10.566 410.539 10.482C410.819 10.398 411.108 10.356 411.407 10.356C411.985 10.356 412.466 10.4587 412.849 10.664C413.241 10.8693 413.525 11.1867 413.703 11.616H413.773C414.025 11.1867 414.365 10.8693 414.795 10.664C415.233 10.4587 415.695 10.356 416.181 10.356ZM427.123 12.274C427.123 12.8433 427.081 13.4127 426.997 13.982C426.922 14.542 426.787 15.074 426.591 15.578C426.395 16.0727 426.124 16.516 425.779 16.908C425.433 17.2907 424.995 17.594 424.463 17.818C423.931 18.0327 423.287 18.14 422.531 18.14C422.344 18.14 422.125 18.126 421.873 18.098C421.63 18.0793 421.429 18.0467 421.271 18V16.95C421.439 17.006 421.635 17.0527 421.859 17.09C422.083 17.118 422.297 17.132 422.503 17.132C423.156 17.132 423.693 17.0247 424.113 16.81C424.542 16.5953 424.883 16.306 425.135 15.942C425.387 15.5687 425.569 15.1393 425.681 14.654C425.793 14.1593 425.858 13.6413 425.877 13.1H425.793C425.653 13.3147 425.475 13.5107 425.261 13.688C425.046 13.8653 424.785 14.0053 424.477 14.108C424.178 14.2107 423.823 14.262 423.413 14.262C422.843 14.262 422.339 14.1453 421.901 13.912C421.471 13.6693 421.135 13.324 420.893 12.876C420.659 12.428 420.543 11.882 420.543 11.238C420.543 10.538 420.673 9.936 420.935 9.432C421.205 8.928 421.579 8.54067 422.055 8.27C422.531 7.99933 423.091 7.864 423.735 7.864C424.211 7.864 424.654 7.95733 425.065 8.144C425.475 8.32133 425.835 8.592 426.143 8.956C426.451 9.32 426.689 9.77733 426.857 10.328C427.034 10.8787 427.123 11.5273 427.123 12.274ZM423.735 8.9C423.156 8.9 422.68 9.09133 422.307 9.474C421.943 9.85667 421.761 10.44 421.761 11.224C421.761 11.868 421.915 12.3767 422.223 12.75C422.54 13.114 423.025 13.296 423.679 13.296C424.127 13.296 424.514 13.2073 424.841 13.03C425.167 12.8433 425.419 12.61 425.597 12.33C425.783 12.05 425.877 11.7607 425.877 11.462C425.877 11.1633 425.83 10.8647 425.737 10.566C425.653 10.258 425.522 9.978 425.345 9.726C425.167 9.474 424.943 9.27333 424.673 9.124C424.402 8.97467 424.089 8.9 423.735 8.9ZM431.704 18.14C430.771 18.14 430.024 17.818 429.464 17.174C428.904 16.5207 428.624 15.55 428.624 14.262C428.624 12.974 428.904 12.0033 429.464 11.35C430.034 10.6873 430.785 10.356 431.718 10.356C432.11 10.356 432.451 10.4073 432.74 10.51C433.03 10.6033 433.282 10.734 433.496 10.902C433.711 11.07 433.893 11.2567 434.042 11.462H434.126C434.117 11.3407 434.098 11.1633 434.07 10.93C434.052 10.6873 434.042 10.496 434.042 10.356V7.36H435.274V18H434.28L434.098 16.992H434.042C433.893 17.2067 433.711 17.4027 433.496 17.58C433.282 17.748 433.025 17.8833 432.726 17.986C432.437 18.0887 432.096 18.14 431.704 18.14ZM431.9 17.118C432.694 17.118 433.249 16.9033 433.566 16.474C433.893 16.0353 434.056 15.3773 434.056 14.5V14.276C434.056 13.3427 433.902 12.6287 433.594 12.134C433.286 11.63 432.717 11.378 431.886 11.378C431.224 11.378 430.724 11.644 430.388 12.176C430.062 12.6987 429.898 13.4033 429.898 14.29C429.898 15.186 430.062 15.8813 430.388 16.376C430.724 16.8707 431.228 17.118 431.9 17.118ZM440.318 10.356C440.812 10.356 441.256 10.4493 441.648 10.636C442.049 10.8227 442.39 11.1073 442.67 11.49H442.74L442.908 10.496H443.888V18.126C443.888 18.8353 443.766 19.428 443.524 19.904C443.281 20.3893 442.912 20.7533 442.418 20.996C441.923 21.2387 441.293 21.36 440.528 21.36C439.986 21.36 439.487 21.318 439.03 21.234C438.582 21.1593 438.18 21.0427 437.826 20.884V19.75C438.068 19.8713 438.334 19.974 438.624 20.058C438.913 20.1513 439.226 20.2213 439.562 20.268C439.898 20.3147 440.243 20.338 440.598 20.338C441.242 20.338 441.746 20.1467 442.11 19.764C442.483 19.3907 442.67 18.8773 442.67 18.224V17.93C442.67 17.818 442.674 17.6593 442.684 17.454C442.693 17.2393 442.702 17.09 442.712 17.006H442.656C442.394 17.3887 442.068 17.6733 441.676 17.86C441.293 18.0467 440.845 18.14 440.332 18.14C439.361 18.14 438.6 17.7993 438.05 17.118C437.508 16.4367 437.238 15.4847 437.238 14.262C437.238 13.4593 437.359 12.7687 437.602 12.19C437.854 11.602 438.208 11.1493 438.666 10.832C439.123 10.5147 439.674 10.356 440.318 10.356ZM440.486 11.392C440.066 11.392 439.706 11.504 439.408 11.728C439.118 11.952 438.894 12.2787 438.736 12.708C438.586 13.1373 438.512 13.66 438.512 14.276C438.512 15.2 438.68 15.9093 439.016 16.404C439.361 16.8893 439.86 17.132 440.514 17.132C440.896 17.132 441.223 17.0853 441.494 16.992C441.764 16.8893 441.988 16.7353 442.166 16.53C442.343 16.3153 442.474 16.0447 442.558 15.718C442.642 15.3913 442.684 15.004 442.684 14.556V14.262C442.684 13.5807 442.604 13.03 442.446 12.61C442.296 12.19 442.058 11.882 441.732 11.686C441.405 11.49 440.99 11.392 440.486 11.392ZM448.049 14.164L445.459 10.496H446.859L448.791 13.324L450.709 10.496H452.095L449.505 14.164L452.235 18H450.835L448.791 15.004L446.719 18H445.333L448.049 14.164ZM456.068 18.14C455.134 18.14 454.388 17.818 453.828 17.174C453.268 16.5207 452.988 15.55 452.988 14.262C452.988 12.974 453.268 12.0033 453.828 11.35C454.397 10.6873 455.148 10.356 456.082 10.356C456.474 10.356 456.814 10.4073 457.104 10.51C457.393 10.6033 457.645 10.734 457.86 10.902C458.074 11.07 458.256 11.2567 458.406 11.462H458.49C458.48 11.3407 458.462 11.1633 458.434 10.93C458.415 10.6873 458.406 10.496 458.406 10.356V7.36H459.638V18H458.644L458.462 16.992H458.406C458.256 17.2067 458.074 17.4027 457.86 17.58C457.645 17.748 457.388 17.8833 457.09 17.986C456.8 18.0887 456.46 18.14 456.068 18.14ZM456.264 17.118C457.057 17.118 457.612 16.9033 457.93 16.474C458.256 16.0353 458.42 15.3773 458.42 14.5V14.276C458.42 13.3427 458.266 12.6287 457.958 12.134C457.65 11.63 457.08 11.378 456.25 11.378C455.587 11.378 455.088 11.644 454.752 12.176C454.425 12.6987 454.262 13.4033 454.262 14.29C454.262 15.186 454.425 15.8813 454.752 16.376C455.088 16.8707 455.592 17.118 456.264 17.118ZM465.591 10.356C466.515 10.356 467.257 10.678 467.817 11.322C468.386 11.966 468.671 12.9367 468.671 14.234C468.671 15.0833 468.54 15.802 468.279 16.39C468.027 16.9687 467.668 17.4073 467.201 17.706C466.744 17.9953 466.202 18.14 465.577 18.14C465.194 18.14 464.854 18.0887 464.555 17.986C464.256 17.8833 464 17.7527 463.785 17.594C463.58 17.426 463.402 17.244 463.253 17.048H463.169C463.188 17.2067 463.206 17.4073 463.225 17.65C463.244 17.8927 463.253 18.1027 463.253 18.28V21.36H462.021V10.496H463.029L463.197 11.518H463.253C463.402 11.3033 463.58 11.1073 463.785 10.93C464 10.7527 464.252 10.6127 464.541 10.51C464.84 10.4073 465.19 10.356 465.591 10.356ZM465.367 11.392C464.863 11.392 464.457 11.49 464.149 11.686C463.841 11.8727 463.617 12.1573 463.477 12.54C463.337 12.9227 463.262 13.408 463.253 13.996V14.234C463.253 14.85 463.318 15.3727 463.449 15.802C463.58 16.2313 463.799 16.558 464.107 16.782C464.424 17.006 464.854 17.118 465.395 17.118C465.852 17.118 466.226 16.992 466.515 16.74C466.814 16.488 467.033 16.1473 467.173 15.718C467.322 15.2793 467.397 14.78 467.397 14.22C467.397 13.3613 467.229 12.6753 466.893 12.162C466.566 11.6487 466.058 11.392 465.367 11.392ZM472.139 14.164L469.549 10.496H470.949L472.881 13.324L474.799 10.496H476.185L473.595 14.164L476.325 18H474.925L472.881 15.004L470.809 18H469.423L472.139 14.164ZM476.595 10.496H477.911L479.535 14.766C479.628 15.018 479.712 15.2607 479.787 15.494C479.871 15.7273 479.946 15.956 480.011 16.18C480.076 16.3947 480.128 16.6047 480.165 16.81H480.221C480.277 16.5767 480.366 16.2733 480.487 15.9C480.608 15.5173 480.734 15.1347 480.865 14.752L482.391 10.496H483.721L480.487 19.036C480.31 19.5027 480.1 19.9087 479.857 20.254C479.624 20.6087 479.334 20.8793 478.989 21.066C478.653 21.262 478.242 21.36 477.757 21.36C477.533 21.36 477.337 21.346 477.169 21.318C477.001 21.2993 476.856 21.276 476.735 21.248V20.268C476.838 20.2867 476.959 20.3053 477.099 20.324C477.248 20.3427 477.402 20.352 477.561 20.352C477.85 20.352 478.098 20.296 478.303 20.184C478.518 20.0813 478.7 19.9273 478.849 19.722C478.998 19.526 479.124 19.2927 479.227 19.022L479.619 18.028L476.595 10.496ZM486.14 10.482C486.14 10.6593 486.13 10.8413 486.112 11.028C486.102 11.2147 486.088 11.3827 486.07 11.532H486.154C486.312 11.2707 486.513 11.056 486.756 10.888C486.998 10.72 487.269 10.594 487.568 10.51C487.866 10.4167 488.174 10.37 488.492 10.37C489.098 10.37 489.602 10.468 490.004 10.664C490.414 10.8507 490.722 11.1447 490.928 11.546C491.133 11.9473 491.236 12.47 491.236 13.114V18H490.018V13.198C490.018 12.5913 489.882 12.1387 489.612 11.84C489.341 11.5413 488.916 11.392 488.338 11.392C487.778 11.392 487.339 11.4993 487.022 11.714C486.704 11.9193 486.476 12.2273 486.336 12.638C486.205 13.0393 486.14 13.534 486.14 14.122V18H484.908V7.36H486.14V10.482ZM499.274 10.342C499.274 10.79 499.19 11.1773 499.022 11.504C498.854 11.8307 498.611 12.0967 498.294 12.302C497.986 12.5073 497.622 12.652 497.202 12.736V12.792C498.005 12.8853 498.602 13.1373 498.994 13.548C499.386 13.9587 499.582 14.4953 499.582 15.158C499.582 15.7367 499.447 16.2547 499.176 16.712C498.905 17.16 498.485 17.51 497.916 17.762C497.356 18.014 496.633 18.14 495.746 18.14C495.223 18.14 494.738 18.098 494.29 18.014C493.842 17.9393 493.413 17.7993 493.002 17.594V16.446C493.422 16.6513 493.875 16.8147 494.36 16.936C494.845 17.048 495.312 17.104 495.76 17.104C496.656 17.104 497.3 16.9313 497.692 16.586C498.093 16.2313 498.294 15.746 498.294 15.13C498.294 14.71 498.182 14.374 497.958 14.122C497.743 13.8607 497.426 13.6693 497.006 13.548C496.586 13.4267 496.082 13.366 495.494 13.366H494.528V12.316H495.508C496.059 12.316 496.516 12.2367 496.88 12.078C497.253 11.9193 497.533 11.7 497.72 11.42C497.916 11.1307 498.014 10.7993 498.014 10.426C498.014 9.94067 497.851 9.56733 497.524 9.306C497.197 9.03533 496.754 8.9 496.194 8.9C495.839 8.9 495.517 8.93733 495.228 9.012C494.939 9.07733 494.668 9.17533 494.416 9.306C494.173 9.42733 493.926 9.572 493.674 9.74L493.058 8.9C493.301 8.71333 493.576 8.54067 493.884 8.382C494.201 8.22333 494.551 8.09733 494.934 8.004C495.317 7.91067 495.732 7.864 496.18 7.864C497.225 7.864 498 8.09733 498.504 8.564C499.017 9.03067 499.274 9.62333 499.274 10.342ZM504.08 17.132C504.266 17.132 504.458 17.118 504.654 17.09C504.85 17.0527 505.008 17.0153 505.13 16.978V17.916C504.999 17.9813 504.812 18.0327 504.57 18.07C504.327 18.1167 504.094 18.14 503.87 18.14C503.478 18.14 503.114 18.0747 502.778 17.944C502.451 17.804 502.185 17.566 501.98 17.23C501.774 16.894 501.672 16.4227 501.672 15.816V11.448H500.608V10.86L501.686 10.37L502.176 8.774H502.904V10.496H505.074V11.448H502.904V15.788C502.904 16.2453 503.011 16.586 503.226 16.81C503.45 17.0247 503.734 17.132 504.08 17.132ZM505.75 21.36C505.517 21.36 505.312 21.3413 505.134 21.304C504.957 21.276 504.803 21.2387 504.672 21.192V20.198C504.812 20.2353 504.957 20.268 505.106 20.296C505.256 20.324 505.419 20.338 505.596 20.338C505.895 20.338 506.142 20.254 506.338 20.086C506.534 19.9273 506.632 19.6193 506.632 19.162V10.496H507.864V19.12C507.864 19.5867 507.79 19.988 507.64 20.324C507.491 20.66 507.262 20.9167 506.954 21.094C506.646 21.2713 506.245 21.36 505.75 21.36ZM506.534 8.466C506.534 8.19533 506.604 7.99933 506.744 7.878C506.884 7.74733 507.057 7.682 507.262 7.682C507.449 7.682 507.612 7.74733 507.752 7.878C507.902 7.99933 507.976 8.19533 507.976 8.466C507.976 8.72733 507.902 8.92333 507.752 9.054C507.612 9.18467 507.449 9.25 507.262 9.25C507.057 9.25 506.884 9.18467 506.744 9.054C506.604 8.92333 506.534 8.72733 506.534 8.466ZM518.474 10.356C519.323 10.356 519.958 10.5753 520.378 11.014C520.798 11.4433 521.008 12.1433 521.008 13.114V18H519.79V13.17C519.79 12.582 519.664 12.1387 519.412 11.84C519.169 11.5413 518.786 11.392 518.264 11.392C517.536 11.392 517.013 11.602 516.696 12.022C516.388 12.442 516.234 13.0533 516.234 13.856V18H515.016V13.17C515.016 12.778 514.96 12.4513 514.848 12.19C514.736 11.9193 514.568 11.7187 514.344 11.588C514.12 11.4573 513.83 11.392 513.476 11.392C512.972 11.392 512.575 11.4993 512.286 11.714C511.996 11.9193 511.786 12.2227 511.656 12.624C511.534 13.0253 511.474 13.52 511.474 14.108V18H510.242V10.496H511.236L511.418 11.518H511.488C511.646 11.2567 511.838 11.042 512.062 10.874C512.295 10.6967 512.552 10.566 512.832 10.482C513.112 10.398 513.401 10.356 513.7 10.356C514.278 10.356 514.759 10.4587 515.142 10.664C515.534 10.8693 515.818 11.1867 515.996 11.616H516.066C516.318 11.1867 516.658 10.8693 517.088 10.664C517.526 10.4587 517.988 10.356 518.474 10.356ZM525.986 18.14C525.052 18.14 524.306 17.818 523.746 17.174C523.186 16.5207 522.906 15.55 522.906 14.262C522.906 12.974 523.186 12.0033 523.746 11.35C524.315 10.6873 525.066 10.356 526 10.356C526.392 10.356 526.732 10.4073 527.022 10.51C527.311 10.6033 527.563 10.734 527.778 10.902C527.992 11.07 528.174 11.2567 528.324 11.462H528.408C528.398 11.3407 528.38 11.1633 528.352 10.93C528.333 10.6873 528.324 10.496 528.324 10.356V7.36H529.556V18H528.562L528.38 16.992H528.324C528.174 17.2067 527.992 17.4027 527.778 17.58C527.563 17.748 527.306 17.8833 527.008 17.986C526.718 18.0887 526.378 18.14 525.986 18.14ZM526.182 17.118C526.975 17.118 527.53 16.9033 527.848 16.474C528.174 16.0353 528.338 15.3773 528.338 14.5V14.276C528.338 13.3427 528.184 12.6287 527.876 12.134C527.568 11.63 526.998 11.378 526.168 11.378C525.505 11.378 525.006 11.644 524.67 12.176C524.343 12.6987 524.18 13.4033 524.18 14.29C524.18 15.186 524.343 15.8813 524.67 16.376C525.006 16.8707 525.51 17.118 526.182 17.118ZM532.653 18L536.755 9.124H531.365V8.004H538.071V8.956L534.011 18H532.653ZM548.183 10.356C549.032 10.356 549.667 10.5753 550.087 11.014C550.507 11.4433 550.717 12.1433 550.717 13.114V18H549.499V13.17C549.499 12.582 549.373 12.1387 549.121 11.84C548.878 11.5413 548.495 11.392 547.973 11.392C547.245 11.392 546.722 11.602 546.405 12.022C546.097 12.442 545.943 13.0533 545.943 13.856V18H544.725V13.17C544.725 12.778 544.669 12.4513 544.557 12.19C544.445 11.9193 544.277 11.7187 544.053 11.588C543.829 11.4573 543.539 11.392 543.185 11.392C542.681 11.392 542.284 11.4993 541.995 11.714C541.705 11.9193 541.495 12.2227 541.365 12.624C541.243 13.0253 541.183 13.52 541.183 14.108V18H539.951V10.496H540.945L541.127 11.518H541.197C541.355 11.2567 541.547 11.042 541.771 10.874C542.004 10.6967 542.261 10.566 542.541 10.482C542.821 10.398 543.11 10.356 543.409 10.356C543.987 10.356 544.468 10.4587 544.851 10.664C545.243 10.8693 545.527 11.1867 545.705 11.616H545.775C546.027 11.1867 546.367 10.8693 546.797 10.664C547.235 10.4587 547.697 10.356 548.183 10.356ZM559.573 15.732H558.117V18H556.927V15.732H552.139V14.682L556.843 7.948H558.117V14.626H559.573V15.732ZM556.927 11.476C556.927 11.2333 556.927 11.014 556.927 10.818C556.936 10.6127 556.945 10.4213 556.955 10.244C556.964 10.0667 556.969 9.89867 556.969 9.74C556.978 9.572 556.987 9.41333 556.997 9.264H556.941C556.866 9.44133 556.773 9.63267 556.661 9.838C556.549 10.0433 556.441 10.216 556.339 10.356L553.343 14.626H556.927V11.476ZM563.706 11.868C564.388 11.868 564.98 11.9847 565.484 12.218C565.988 12.4513 566.376 12.7873 566.646 13.226C566.926 13.6553 567.066 14.1827 567.066 14.808C567.066 15.4987 566.917 16.096 566.618 16.6C566.32 17.0947 565.89 17.4773 565.33 17.748C564.78 18.0093 564.112 18.14 563.328 18.14C562.815 18.14 562.33 18.0933 561.872 18C561.424 17.9067 561.046 17.7713 560.738 17.594V16.432C561.074 16.6373 561.48 16.8007 561.956 16.922C562.442 17.034 562.904 17.09 563.342 17.09C563.837 17.09 564.266 17.0153 564.63 16.866C565.004 16.7073 565.293 16.4693 565.498 16.152C565.704 15.8253 565.806 15.4193 565.806 14.934C565.806 14.2807 565.606 13.7813 565.204 13.436C564.803 13.0813 564.168 12.904 563.3 12.904C563.039 12.904 562.74 12.9273 562.404 12.974C562.068 13.0207 561.798 13.0673 561.592 13.114L560.976 12.722L561.354 8.004H566.366V9.124H562.404L562.166 12.022C562.325 11.994 562.54 11.9613 562.81 11.924C563.081 11.8867 563.38 11.868 563.706 11.868ZM573.902 18H568.414V17.188L572.446 11.448H568.652V10.496H573.804V11.42L569.828 17.048H573.902V18ZM578.294 11.868C578.976 11.868 579.568 11.9847 580.072 12.218C580.576 12.4513 580.964 12.7873 581.234 13.226C581.514 13.6553 581.654 14.1827 581.654 14.808C581.654 15.4987 581.505 16.096 581.206 16.6C580.908 17.0947 580.478 17.4773 579.918 17.748C579.368 18.0093 578.7 18.14 577.916 18.14C577.403 18.14 576.918 18.0933 576.46 18C576.012 17.9067 575.634 17.7713 575.326 17.594V16.432C575.662 16.6373 576.068 16.8007 576.544 16.922C577.03 17.034 577.492 17.09 577.93 17.09C578.425 17.09 578.854 17.0153 579.218 16.866C579.592 16.7073 579.881 16.4693 580.086 16.152C580.292 15.8253 580.394 15.4193 580.394 14.934C580.394 14.2807 580.194 13.7813 579.792 13.436C579.391 13.0813 578.756 12.904 577.888 12.904C577.627 12.904 577.328 12.9273 576.992 12.974C576.656 13.0207 576.386 13.0673 576.18 13.114L575.564 12.722L575.942 8.004H580.954V9.124H576.992L576.754 12.022C576.913 11.994 577.128 11.9613 577.398 11.924C577.669 11.8867 577.968 11.868 578.294 11.868ZM584.36 18L588.462 9.124H583.072V8.004H589.778V8.956L585.718 18H584.36Z" fill="#555555"/>
</svg>
