<svg width="448" height="25" viewBox="0 0 448 25" fill="none" xmlns="http://www.w3.org/2000/svg">
<rect width="448" height="25" fill="#555555"/>
<rect x="150" width="298" height="25" fill="#9867F0"/>
<path d="M18.3472 18H17.0872V9.11H13.9652V8.004H21.4552V9.11H18.3472V18ZM25.5972 10.356C25.7372 10.356 25.8866 10.3653 26.0452 10.384C26.2132 10.3933 26.3579 10.412 26.4792 10.44L26.3252 11.574C26.2039 11.546 26.0686 11.5227 25.9192 11.504C25.7792 11.4853 25.6439 11.476 25.5132 11.476C25.2239 11.476 24.9486 11.5367 24.6872 11.658C24.4259 11.7793 24.1926 11.952 23.9872 12.176C23.7819 12.3907 23.6186 12.652 23.4972 12.96C23.3852 13.268 23.3292 13.6133 23.3292 13.996V18H22.0972V10.496H23.1052L23.2452 11.868H23.3012C23.4599 11.588 23.6512 11.336 23.8752 11.112C24.0992 10.8787 24.3559 10.6967 24.6452 10.566C24.9346 10.426 25.2519 10.356 25.5972 10.356ZM34.131 14.234C34.131 14.8593 34.047 15.4147 33.879 15.9C33.7203 16.376 33.487 16.782 33.179 17.118C32.8803 17.454 32.5117 17.7107 32.073 17.888C31.6437 18.056 31.163 18.14 30.631 18.14C30.1363 18.14 29.679 18.056 29.259 17.888C28.839 17.7107 28.475 17.454 28.167 17.118C27.859 16.782 27.6163 16.376 27.439 15.9C27.271 15.4147 27.187 14.8593 27.187 14.234C27.187 13.4033 27.327 12.7033 27.607 12.134C27.887 11.5553 28.2883 11.1167 28.811 10.818C29.3337 10.51 29.9543 10.356 30.673 10.356C31.3543 10.356 31.9517 10.51 32.465 10.818C32.9877 11.1167 33.3937 11.5553 33.683 12.134C33.9817 12.7033 34.131 13.4033 34.131 14.234ZM28.461 14.234C28.461 14.822 28.5357 15.3353 28.685 15.774C28.8437 16.2033 29.0863 16.5347 29.413 16.768C29.7397 17.0013 30.155 17.118 30.659 17.118C31.163 17.118 31.5783 17.0013 31.905 16.768C32.2317 16.5347 32.4697 16.2033 32.619 15.774C32.7777 15.3353 32.857 14.822 32.857 14.234C32.857 13.6367 32.7777 13.128 32.619 12.708C32.4603 12.288 32.2177 11.966 31.891 11.742C31.5737 11.5087 31.1583 11.392 30.645 11.392C29.8797 11.392 29.3243 11.644 28.979 12.148C28.6337 12.652 28.461 13.3473 28.461 14.234ZM39.6956 10.356C40.5916 10.356 41.2682 10.5753 41.7256 11.014C42.1829 11.4433 42.4116 12.1433 42.4116 13.114V18H41.1936V13.198C41.1936 12.5913 41.0582 12.1387 40.7876 11.84C40.5169 11.5413 40.0922 11.392 39.5136 11.392C38.6829 11.392 38.1089 11.6253 37.7916 12.092C37.4742 12.5587 37.3156 13.2307 37.3156 14.108V18H36.0836V10.496H37.0776L37.2596 11.518H37.3296C37.4976 11.2567 37.7029 11.042 37.9456 10.874C38.1976 10.6967 38.4729 10.566 38.7716 10.482C39.0702 10.398 39.3782 10.356 39.6956 10.356ZM51.7066 18H50.4466V9.11H47.3246V8.004H54.8146V9.11H51.7066V18ZM59.0799 8.004C59.9105 8.004 60.5919 8.11133 61.1239 8.326C61.6652 8.53133 62.0665 8.844 62.3279 9.264C62.5892 9.684 62.7199 10.2113 62.7199 10.846C62.7199 11.378 62.6219 11.8213 62.4259 12.176C62.2299 12.5307 61.9779 12.8153 61.6699 13.03C61.3712 13.2353 61.0539 13.3987 60.7179 13.52L63.4619 18H61.9919L59.5699 13.87H57.5819V18H56.3219V8.004H59.0799ZM59.0099 9.096H57.5819V12.806H59.0799C59.6212 12.806 60.0645 12.736 60.4099 12.596C60.7552 12.4467 61.0072 12.232 61.1659 11.952C61.3339 11.672 61.4179 11.322 61.4179 10.902C61.4179 10.4633 61.3292 10.1133 61.1519 9.852C60.9839 9.59067 60.7225 9.39933 60.3679 9.278C60.0132 9.15667 59.5605 9.096 59.0099 9.096ZM71.8209 18H70.3929L67.7469 13.66L65.0589 18H63.7289L67.0469 12.792L63.9389 8.004H65.3389L67.7889 11.924L70.2529 8.004H71.5829L68.4889 12.764L71.8209 18ZM76.0727 14.164C76.0727 13.3987 76.1427 12.652 76.2827 11.924C76.432 11.196 76.6607 10.5007 76.9687 9.838C77.2767 9.17533 77.664 8.564 78.1307 8.004H79.2927C78.8634 8.58267 78.4994 9.208 78.2007 9.88C77.9114 10.552 77.692 11.2473 77.5427 11.966C77.3934 12.6847 77.3187 13.4127 77.3187 14.15C77.3187 14.8687 77.3934 15.5827 77.5427 16.292C77.692 17.0013 77.9114 17.6827 78.2007 18.336C78.49 18.9987 78.8494 19.624 79.2787 20.212H78.1307C77.664 19.6613 77.2767 19.0593 76.9687 18.406C76.6607 17.762 76.432 17.0807 76.2827 16.362C76.1427 15.6433 76.0727 14.9107 76.0727 14.164ZM87.8687 18H86.6087V9.11H83.4867V8.004H90.9767V9.11H87.8687V18ZM95.242 8.004C96.0726 8.004 96.754 8.11133 97.286 8.326C97.8273 8.53133 98.2286 8.844 98.49 9.264C98.7513 9.684 98.882 10.2113 98.882 10.846C98.882 11.378 98.784 11.8213 98.588 12.176C98.392 12.5307 98.14 12.8153 97.832 13.03C97.5333 13.2353 97.216 13.3987 96.88 13.52L99.624 18H98.154L95.732 13.87H93.744V18H92.484V8.004H95.242ZM95.172 9.096H93.744V12.806H95.242C95.7833 12.806 96.2266 12.736 96.572 12.596C96.9173 12.4467 97.1693 12.232 97.328 11.952C97.496 11.672 97.58 11.322 97.58 10.902C97.58 10.4633 97.4913 10.1133 97.314 9.852C97.146 9.59067 96.8846 9.39933 96.53 9.278C96.1753 9.15667 95.7226 9.096 95.172 9.096ZM105.477 8.97C104.945 8.97 104.464 9.06333 104.035 9.25C103.606 9.42733 103.242 9.69333 102.943 10.048C102.644 10.3933 102.416 10.818 102.257 11.322C102.098 11.8167 102.019 12.3767 102.019 13.002C102.019 13.8233 102.145 14.5373 102.397 15.144C102.658 15.7507 103.041 16.2173 103.545 16.544C104.058 16.8707 104.698 17.034 105.463 17.034C105.902 17.034 106.317 16.9967 106.709 16.922C107.101 16.8473 107.484 16.754 107.857 16.642V17.734C107.484 17.874 107.096 17.9767 106.695 18.042C106.303 18.1073 105.832 18.14 105.281 18.14C104.264 18.14 103.414 17.93 102.733 17.51C102.052 17.09 101.538 16.4927 101.193 15.718C100.857 14.9433 100.689 14.0333 100.689 12.988C100.689 12.232 100.792 11.5413 100.997 10.916C101.212 10.2907 101.52 9.74933 101.921 9.292C102.332 8.83467 102.836 8.48467 103.433 8.242C104.03 7.99 104.716 7.864 105.491 7.864C106.004 7.864 106.499 7.91533 106.975 8.018C107.451 8.12067 107.876 8.26533 108.249 8.452L107.745 9.516C107.437 9.376 107.092 9.25 106.709 9.138C106.336 9.026 105.925 8.97 105.477 8.97ZM119.597 18H112.989V16.978L115.607 14.332C116.111 13.828 116.536 13.38 116.881 12.988C117.227 12.596 117.488 12.2133 117.665 11.84C117.843 11.4573 117.931 11.042 117.931 10.594C117.931 10.0433 117.768 9.628 117.441 9.348C117.115 9.05867 116.69 8.914 116.167 8.914C115.682 8.914 115.253 8.998 114.879 9.166C114.515 9.334 114.142 9.56733 113.759 9.866L113.101 9.04C113.363 8.816 113.647 8.61533 113.955 8.438C114.273 8.26067 114.613 8.12067 114.977 8.018C115.351 7.91533 115.747 7.864 116.167 7.864C116.793 7.864 117.329 7.97133 117.777 8.186C118.225 8.40067 118.571 8.70867 118.813 9.11C119.065 9.502 119.191 9.97333 119.191 10.524C119.191 10.916 119.131 11.2893 119.009 11.644C118.888 11.9893 118.715 12.33 118.491 12.666C118.267 13.002 117.997 13.3427 117.679 13.688C117.362 14.0333 117.012 14.3927 116.629 14.766L114.543 16.824V16.88H119.597V18ZM127.651 12.988C127.651 13.8 127.59 14.5233 127.469 15.158C127.348 15.7927 127.152 16.334 126.881 16.782C126.62 17.2207 126.274 17.5567 125.845 17.79C125.425 18.0233 124.916 18.14 124.319 18.14C123.572 18.14 122.952 17.9347 122.457 17.524C121.972 17.1133 121.608 16.5253 121.365 15.76C121.132 14.9853 121.015 14.0613 121.015 12.988C121.015 11.9053 121.122 10.9813 121.337 10.216C121.561 9.45067 121.916 8.86733 122.401 8.466C122.886 8.05533 123.526 7.85 124.319 7.85C125.066 7.85 125.686 8.05533 126.181 8.466C126.676 8.86733 127.044 9.45067 127.287 10.216C127.53 10.9813 127.651 11.9053 127.651 12.988ZM122.247 12.988C122.247 13.9027 122.312 14.6633 122.443 15.27C122.583 15.8767 122.802 16.334 123.101 16.642C123.409 16.9407 123.815 17.09 124.319 17.09C124.823 17.09 125.224 16.9407 125.523 16.642C125.831 16.3433 126.055 15.8907 126.195 15.284C126.335 14.668 126.405 13.9027 126.405 12.988C126.405 12.0733 126.335 11.3173 126.195 10.72C126.055 10.1133 125.831 9.66067 125.523 9.362C125.224 9.054 124.823 8.9 124.319 8.9C123.815 8.9 123.409 9.054 123.101 9.362C122.802 9.66067 122.583 10.1133 122.443 10.72C122.312 11.3173 122.247 12.0733 122.247 12.988ZM135.618 14.164C135.618 14.9107 135.543 15.6433 135.394 16.362C135.254 17.0807 135.03 17.762 134.722 18.406C134.423 19.0593 134.036 19.6613 133.56 20.212H132.412C132.841 19.624 133.2 18.9987 133.49 18.336C133.779 17.6827 133.998 17.0013 134.148 16.292C134.297 15.5827 134.372 14.8687 134.372 14.15C134.372 13.4127 134.297 12.6847 134.148 11.966C133.998 11.2473 133.779 10.552 133.49 9.88C133.2 9.208 132.836 8.58267 132.398 8.004H133.56C134.036 8.564 134.423 9.17533 134.722 9.838C135.03 10.5007 135.254 11.196 135.394 11.924C135.543 12.652 135.618 13.3987 135.618 14.164Z" fill="white"/>
<path d="M164.24 18H162.98V9.11H159.858V8.004H167.348V9.11H164.24V18ZM176.863 12.904C176.863 14.024 176.653 14.962 176.233 15.718C175.822 16.474 175.23 17.0433 174.455 17.426C173.68 17.8087 172.742 18 171.641 18H168.855V8.004H171.935C172.943 8.004 173.816 8.19067 174.553 8.564C175.29 8.93733 175.86 9.488 176.261 10.216C176.662 10.9347 176.863 11.8307 176.863 12.904ZM175.533 12.946C175.533 12.0593 175.384 11.3313 175.085 10.762C174.796 10.1927 174.366 9.77267 173.797 9.502C173.237 9.222 172.556 9.082 171.753 9.082H170.115V16.922H171.473C172.826 16.922 173.839 16.5907 174.511 15.928C175.192 15.256 175.533 14.262 175.533 12.946ZM181.756 10.37C182.67 10.37 183.347 10.5707 183.786 10.972C184.224 11.3733 184.444 12.0127 184.444 12.89V18H183.548L183.31 16.936H183.254C183.039 17.2067 182.815 17.4353 182.582 17.622C182.358 17.7993 182.096 17.93 181.798 18.014C181.508 18.098 181.154 18.14 180.734 18.14C180.286 18.14 179.88 18.0607 179.516 17.902C179.161 17.7433 178.881 17.5007 178.676 17.174C178.47 16.838 178.368 16.418 178.368 15.914C178.368 15.1673 178.662 14.5933 179.25 14.192C179.838 13.7813 180.743 13.5573 181.966 13.52L183.24 13.478V13.03C183.24 12.4047 183.104 11.9707 182.834 11.728C182.563 11.4853 182.18 11.364 181.686 11.364C181.294 11.364 180.92 11.4247 180.566 11.546C180.211 11.658 179.88 11.7887 179.572 11.938L179.194 11.014C179.52 10.8367 179.908 10.6873 180.356 10.566C180.804 10.4353 181.27 10.37 181.756 10.37ZM182.12 14.374C181.186 14.4113 180.538 14.5607 180.174 14.822C179.819 15.0833 179.642 15.452 179.642 15.928C179.642 16.348 179.768 16.656 180.02 16.852C180.281 17.048 180.612 17.146 181.014 17.146C181.648 17.146 182.176 16.9733 182.596 16.628C183.016 16.2733 183.226 15.732 183.226 15.004V14.332L182.12 14.374ZM185.585 10.496H186.901L188.525 14.766C188.619 15.018 188.703 15.2607 188.777 15.494C188.861 15.7273 188.936 15.956 189.001 16.18C189.067 16.3947 189.118 16.6047 189.155 16.81H189.211C189.267 16.5767 189.356 16.2733 189.477 15.9C189.599 15.5173 189.725 15.1347 189.855 14.752L191.381 10.496H192.711L189.477 19.036C189.3 19.5027 189.09 19.9087 188.847 20.254C188.614 20.6087 188.325 20.8793 187.979 21.066C187.643 21.262 187.233 21.36 186.747 21.36C186.523 21.36 186.327 21.346 186.159 21.318C185.991 21.2993 185.847 21.276 185.725 21.248V20.268C185.828 20.2867 185.949 20.3053 186.089 20.324C186.239 20.3427 186.393 20.352 186.551 20.352C186.841 20.352 187.088 20.296 187.293 20.184C187.508 20.0813 187.69 19.9273 187.839 19.722C187.989 19.526 188.115 19.2927 188.217 19.022L188.609 18.028L185.585 10.496ZM197.468 10.356C198.392 10.356 199.134 10.678 199.694 11.322C200.263 11.966 200.548 12.9367 200.548 14.234C200.548 15.0833 200.417 15.802 200.156 16.39C199.904 16.9687 199.545 17.4073 199.078 17.706C198.621 17.9953 198.079 18.14 197.454 18.14C197.071 18.14 196.731 18.0887 196.432 17.986C196.133 17.8833 195.877 17.7527 195.662 17.594C195.457 17.426 195.279 17.244 195.13 17.048H195.046C195.065 17.2067 195.083 17.4073 195.102 17.65C195.121 17.8927 195.13 18.1027 195.13 18.28V21.36H193.898V10.496H194.906L195.074 11.518H195.13C195.279 11.3033 195.457 11.1073 195.662 10.93C195.877 10.7527 196.129 10.6127 196.418 10.51C196.717 10.4073 197.067 10.356 197.468 10.356ZM197.244 11.392C196.74 11.392 196.334 11.49 196.026 11.686C195.718 11.8727 195.494 12.1573 195.354 12.54C195.214 12.9227 195.139 13.408 195.13 13.996V14.234C195.13 14.85 195.195 15.3727 195.326 15.802C195.457 16.2313 195.676 16.558 195.984 16.782C196.301 17.006 196.731 17.118 197.272 17.118C197.729 17.118 198.103 16.992 198.392 16.74C198.691 16.488 198.91 16.1473 199.05 15.718C199.199 15.2793 199.274 14.78 199.274 14.22C199.274 13.3613 199.106 12.6753 198.77 12.162C198.443 11.6487 197.935 11.392 197.244 11.392ZM205.325 8.004C206.632 8.004 207.584 8.26067 208.181 8.774C208.779 9.28733 209.077 10.0107 209.077 10.944C209.077 11.3547 209.007 11.7513 208.867 12.134C208.737 12.5073 208.517 12.8433 208.209 13.142C207.901 13.4407 207.491 13.6787 206.977 13.856C206.464 14.024 205.834 14.108 205.087 14.108H203.939V18H202.679V8.004H205.325ZM205.213 9.082H203.939V13.03H204.947C205.582 13.03 206.109 12.9647 206.529 12.834C206.949 12.694 207.262 12.4747 207.467 12.176C207.673 11.8773 207.775 11.4853 207.775 11C207.775 10.356 207.57 9.87533 207.159 9.558C206.749 9.24067 206.1 9.082 205.213 9.082ZM217.078 18H210.47V16.978L213.088 14.332C213.592 13.828 214.017 13.38 214.362 12.988C214.707 12.596 214.969 12.2133 215.146 11.84C215.323 11.4573 215.412 11.042 215.412 10.594C215.412 10.0433 215.249 9.628 214.922 9.348C214.595 9.05867 214.171 8.914 213.648 8.914C213.163 8.914 212.733 8.998 212.36 9.166C211.996 9.334 211.623 9.56733 211.24 9.866L210.582 9.04C210.843 8.816 211.128 8.61533 211.436 8.438C211.753 8.26067 212.094 8.12067 212.458 8.018C212.831 7.91533 213.228 7.864 213.648 7.864C214.273 7.864 214.81 7.97133 215.258 8.186C215.706 8.40067 216.051 8.70867 216.294 9.11C216.546 9.502 216.672 9.97333 216.672 10.524C216.672 10.916 216.611 11.2893 216.49 11.644C216.369 11.9893 216.196 12.33 215.972 12.666C215.748 13.002 215.477 13.3427 215.16 13.688C214.843 14.0333 214.493 14.3927 214.11 14.766L212.024 16.824V16.88H217.078V18ZM220.428 18H219.168V8.004H224.754V9.11H220.428V12.652H224.488V13.758H220.428V18ZM234.491 10.356C235.341 10.356 235.975 10.5753 236.395 11.014C236.815 11.4433 237.025 12.1433 237.025 13.114V18H235.807V13.17C235.807 12.582 235.681 12.1387 235.429 11.84C235.187 11.5413 234.804 11.392 234.281 11.392C233.553 11.392 233.031 11.602 232.713 12.022C232.405 12.442 232.251 13.0533 232.251 13.856V18H231.033V13.17C231.033 12.778 230.977 12.4513 230.865 12.19C230.753 11.9193 230.585 11.7187 230.361 11.588C230.137 11.4573 229.848 11.392 229.493 11.392C228.989 11.392 228.593 11.4993 228.303 11.714C228.014 11.9193 227.804 12.2227 227.673 12.624C227.552 13.0253 227.491 13.52 227.491 14.108V18H226.259V10.496H227.253L227.435 11.518H227.505C227.664 11.2567 227.855 11.042 228.079 10.874C228.313 10.6967 228.569 10.566 228.849 10.482C229.129 10.398 229.419 10.356 229.717 10.356C230.296 10.356 230.777 10.4587 231.159 10.664C231.551 10.8693 231.836 11.1867 232.013 11.616H232.083C232.335 11.1867 232.676 10.8693 233.105 10.664C233.544 10.4587 234.006 10.356 234.491 10.356ZM246.301 18H244.873L242.227 13.66L239.539 18H238.209L241.527 12.792L238.419 8.004H239.819L242.269 11.924L244.733 8.004H246.063L242.969 12.764L246.301 18ZM248.778 9.95C248.778 10.2673 248.769 10.566 248.75 10.846C248.741 11.1167 248.727 11.3313 248.708 11.49H248.778C248.993 11.1727 249.287 10.9067 249.66 10.692C250.034 10.4773 250.514 10.37 251.102 10.37C252.036 10.37 252.782 10.6967 253.342 11.35C253.912 11.994 254.196 12.96 254.196 14.248C254.196 15.1067 254.066 15.8253 253.804 16.404C253.552 16.9827 253.193 17.4167 252.726 17.706C252.26 17.9953 251.718 18.14 251.102 18.14C250.514 18.14 250.034 18.0327 249.66 17.818C249.287 17.6033 248.993 17.3467 248.778 17.048H248.68L248.428 18H247.546V7.36H248.778V9.95ZM250.892 11.392C250.36 11.392 249.94 11.4947 249.632 11.7C249.324 11.896 249.105 12.204 248.974 12.624C248.844 13.0347 248.778 13.562 248.778 14.206V14.262C248.778 15.186 248.928 15.8953 249.226 16.39C249.534 16.8753 250.099 17.118 250.92 17.118C251.592 17.118 252.092 16.8707 252.418 16.376C252.754 15.8813 252.922 15.1673 252.922 14.234C252.922 13.2913 252.754 12.582 252.418 12.106C252.092 11.63 251.583 11.392 250.892 11.392ZM259.184 8.004C260.014 8.004 260.71 8.08333 261.27 8.242C261.839 8.40067 262.264 8.662 262.544 9.026C262.833 9.39 262.978 9.87533 262.978 10.482C262.978 10.874 262.903 11.224 262.754 11.532C262.614 11.8307 262.399 12.0827 262.11 12.288C261.83 12.484 261.484 12.6193 261.074 12.694V12.764C261.494 12.8293 261.872 12.9507 262.208 13.128C262.553 13.3053 262.824 13.5573 263.02 13.884C263.216 14.2107 263.314 14.6353 263.314 15.158C263.314 15.7647 263.174 16.2827 262.894 16.712C262.614 17.132 262.212 17.454 261.69 17.678C261.176 17.8927 260.56 18 259.842 18H256.328V8.004H259.184ZM259.436 12.26C260.294 12.26 260.882 12.1247 261.2 11.854C261.517 11.574 261.676 11.1633 261.676 10.622C261.676 10.0713 261.48 9.67933 261.088 9.446C260.705 9.20333 260.089 9.082 259.24 9.082H257.588V12.26H259.436ZM257.588 13.31V16.936H259.604C260.49 16.936 261.106 16.7633 261.452 16.418C261.797 16.0727 261.97 15.62 261.97 15.06C261.97 14.7053 261.89 14.3973 261.732 14.136C261.582 13.8747 261.326 13.674 260.962 13.534C260.607 13.3847 260.122 13.31 259.506 13.31H257.588ZM268.079 8.004C269.386 8.004 270.338 8.26067 270.935 8.774C271.533 9.28733 271.831 10.0107 271.831 10.944C271.831 11.3547 271.761 11.7513 271.621 12.134C271.491 12.5073 271.271 12.8433 270.963 13.142C270.655 13.4407 270.245 13.6787 269.731 13.856C269.218 14.024 268.588 14.108 267.841 14.108H266.693V18H265.433V8.004H268.079ZM267.967 9.082H266.693V13.03H267.701C268.336 13.03 268.863 12.9647 269.283 12.834C269.703 12.694 270.016 12.4747 270.221 12.176C270.427 11.8773 270.529 11.4853 270.529 11C270.529 10.356 270.324 9.87533 269.913 9.558C269.503 9.24067 268.854 9.082 267.967 9.082ZM274.456 18L278.558 9.124H273.168V8.004H279.874V8.956L275.814 18H274.456ZM280.577 10.496H281.893L283.517 14.766C283.611 15.018 283.695 15.2607 283.769 15.494C283.853 15.7273 283.928 15.956 283.993 16.18C284.059 16.3947 284.11 16.6047 284.147 16.81H284.203C284.259 16.5767 284.348 16.2733 284.469 15.9C284.591 15.5173 284.717 15.1347 284.847 14.752L286.373 10.496H287.703L284.469 19.036C284.292 19.5027 284.082 19.9087 283.839 20.254C283.606 20.6087 283.317 20.8793 282.971 21.066C282.635 21.262 282.225 21.36 281.739 21.36C281.515 21.36 281.319 21.346 281.151 21.318C280.983 21.2993 280.839 21.276 280.717 21.248V20.268C280.82 20.2867 280.941 20.3053 281.081 20.324C281.231 20.3427 281.385 20.352 281.543 20.352C281.833 20.352 282.08 20.296 282.285 20.184C282.5 20.0813 282.682 19.9273 282.831 19.722C282.981 19.526 283.107 19.2927 283.209 19.022L283.601 18.028L280.577 10.496ZM294.602 10.342C294.602 10.79 294.518 11.1773 294.35 11.504C294.182 11.8307 293.94 12.0967 293.622 12.302C293.314 12.5073 292.95 12.652 292.53 12.736V12.792C293.333 12.8853 293.93 13.1373 294.322 13.548C294.714 13.9587 294.91 14.4953 294.91 15.158C294.91 15.7367 294.775 16.2547 294.504 16.712C294.234 17.16 293.814 17.51 293.244 17.762C292.684 18.014 291.961 18.14 291.074 18.14C290.552 18.14 290.066 18.098 289.618 18.014C289.17 17.9393 288.741 17.7993 288.33 17.594V16.446C288.75 16.6513 289.203 16.8147 289.688 16.936C290.174 17.048 290.64 17.104 291.088 17.104C291.984 17.104 292.628 16.9313 293.02 16.586C293.422 16.2313 293.622 15.746 293.622 15.13C293.622 14.71 293.51 14.374 293.286 14.122C293.072 13.8607 292.754 13.6693 292.334 13.548C291.914 13.4267 291.41 13.366 290.822 13.366H289.856V12.316H290.836C291.387 12.316 291.844 12.2367 292.208 12.078C292.582 11.9193 292.862 11.7 293.048 11.42C293.244 11.1307 293.342 10.7993 293.342 10.426C293.342 9.94067 293.179 9.56733 292.852 9.306C292.526 9.03533 292.082 8.9 291.522 8.9C291.168 8.9 290.846 8.93733 290.556 9.012C290.267 9.07733 289.996 9.17533 289.744 9.306C289.502 9.42733 289.254 9.572 289.002 9.74L288.386 8.9C288.629 8.71333 288.904 8.54067 289.212 8.382C289.53 8.22333 289.88 8.09733 290.262 8.004C290.645 7.91067 291.06 7.864 291.508 7.864C292.554 7.864 293.328 8.09733 293.832 8.564C294.346 9.03067 294.602 9.62333 294.602 10.342ZM297.616 18L301.718 9.124H296.328V8.004H303.034V8.956L298.974 18H297.616ZM306.132 12.918C306.132 13.0673 306.122 13.2633 306.104 13.506C306.094 13.7487 306.085 13.9587 306.076 14.136H306.132C306.188 14.0613 306.272 13.954 306.384 13.814C306.496 13.674 306.608 13.534 306.72 13.394C306.841 13.2447 306.944 13.1233 307.028 13.03L309.422 10.496H310.864L307.826 13.702L311.074 18H309.59L306.986 14.5L306.132 15.242V18H304.914V7.36H306.132V12.918ZM315.416 8.004C316.247 8.004 316.942 8.08333 317.502 8.242C318.071 8.40067 318.496 8.662 318.776 9.026C319.065 9.39 319.21 9.87533 319.21 10.482C319.21 10.874 319.135 11.224 318.986 11.532C318.846 11.8307 318.631 12.0827 318.342 12.288C318.062 12.484 317.717 12.6193 317.306 12.694V12.764C317.726 12.8293 318.104 12.9507 318.44 13.128C318.785 13.3053 319.056 13.5573 319.252 13.884C319.448 14.2107 319.546 14.6353 319.546 15.158C319.546 15.7647 319.406 16.2827 319.126 16.712C318.846 17.132 318.445 17.454 317.922 17.678C317.409 17.8927 316.793 18 316.074 18H312.56V8.004H315.416ZM315.668 12.26C316.527 12.26 317.115 12.1247 317.432 11.854C317.749 11.574 317.908 11.1633 317.908 10.622C317.908 10.0713 317.712 9.67933 317.32 9.446C316.937 9.20333 316.321 9.082 315.472 9.082H313.82V12.26H315.668ZM313.82 13.31V16.936H315.836C316.723 16.936 317.339 16.7633 317.684 16.418C318.029 16.0727 318.202 15.62 318.202 15.06C318.202 14.7053 318.123 14.3973 317.964 14.136C317.815 13.8747 317.558 13.674 317.194 13.534C316.839 13.3847 316.354 13.31 315.738 13.31H313.82ZM324.158 18.14C323.224 18.14 322.478 17.818 321.918 17.174C321.358 16.5207 321.078 15.55 321.078 14.262C321.078 12.974 321.358 12.0033 321.918 11.35C322.487 10.6873 323.238 10.356 324.172 10.356C324.564 10.356 324.904 10.4073 325.194 10.51C325.483 10.6033 325.735 10.734 325.95 10.902C326.164 11.07 326.346 11.2567 326.496 11.462H326.58C326.57 11.3407 326.552 11.1633 326.524 10.93C326.505 10.6873 326.496 10.496 326.496 10.356V7.36H327.728V18H326.734L326.552 16.992H326.496C326.346 17.2067 326.164 17.4027 325.95 17.58C325.735 17.748 325.478 17.8833 325.18 17.986C324.89 18.0887 324.55 18.14 324.158 18.14ZM324.354 17.118C325.147 17.118 325.702 16.9033 326.02 16.474C326.346 16.0353 326.51 15.3773 326.51 14.5V14.276C326.51 13.3427 326.356 12.6287 326.048 12.134C325.74 11.63 325.17 11.378 324.34 11.378C323.677 11.378 323.178 11.644 322.842 12.176C322.515 12.6987 322.352 13.4033 322.352 14.29C322.352 15.186 322.515 15.8813 322.842 16.376C323.178 16.8707 323.682 17.118 324.354 17.118ZM333.611 10.356C333.751 10.356 333.9 10.3653 334.059 10.384C334.227 10.3933 334.372 10.412 334.493 10.44L334.339 11.574C334.218 11.546 334.082 11.5227 333.933 11.504C333.793 11.4853 333.658 11.476 333.527 11.476C333.238 11.476 332.962 11.5367 332.701 11.658C332.44 11.7793 332.206 11.952 332.001 12.176C331.796 12.3907 331.632 12.652 331.511 12.96C331.399 13.268 331.343 13.6133 331.343 13.996V18H330.111V10.496H331.119L331.259 11.868H331.315C331.474 11.588 331.665 11.336 331.889 11.112C332.113 10.8787 332.37 10.6967 332.659 10.566C332.948 10.426 333.266 10.356 333.611 10.356ZM339.352 11.448H337.462V18H336.23V11.448H334.914V10.874L336.23 10.454V10.02C336.23 9.376 336.323 8.85333 336.51 8.452C336.706 8.05067 336.986 7.75667 337.35 7.57C337.714 7.38333 338.153 7.29 338.666 7.29C338.965 7.29 339.235 7.318 339.478 7.374C339.73 7.42067 339.945 7.47667 340.122 7.542L339.8 8.508C339.651 8.46133 339.478 8.41467 339.282 8.368C339.086 8.32133 338.885 8.298 338.68 8.298C338.269 8.298 337.961 8.438 337.756 8.718C337.56 8.98867 337.462 9.418 337.462 10.006V10.496H339.352V11.448ZM346.979 18H340.049V17.048L345.313 9.124H340.217V8.004H346.839V8.956L341.575 16.88H346.979V18ZM355.928 8.004L352.358 18H351.098L347.528 8.004H348.844L351.098 14.416C351.201 14.6867 351.29 14.948 351.364 15.2C351.439 15.452 351.504 15.6947 351.56 15.928C351.626 16.152 351.682 16.376 351.728 16.6C351.775 16.376 351.826 16.1473 351.882 15.914C351.948 15.6807 352.018 15.438 352.092 15.186C352.176 14.934 352.265 14.668 352.358 14.388L354.598 8.004H355.928ZM363.385 18H356.455V17.048L361.719 9.124H356.623V8.004H363.245V8.956L357.981 16.88H363.385V18ZM366.357 10.482C366.357 10.6593 366.347 10.8413 366.329 11.028C366.319 11.2147 366.305 11.3827 366.287 11.532H366.371C366.529 11.2707 366.73 11.056 366.973 10.888C367.215 10.72 367.486 10.594 367.785 10.51C368.083 10.4167 368.391 10.37 368.709 10.37C369.315 10.37 369.819 10.468 370.221 10.664C370.631 10.8507 370.939 11.1447 371.145 11.546C371.35 11.9473 371.453 12.47 371.453 13.114V18H370.235V13.198C370.235 12.5913 370.099 12.1387 369.829 11.84C369.558 11.5413 369.133 11.392 368.555 11.392C367.995 11.392 367.556 11.4993 367.239 11.714C366.921 11.9193 366.693 12.2273 366.553 12.638C366.422 13.0393 366.357 13.534 366.357 14.122V18H365.125V7.36H366.357V10.482ZM380.317 15.732H378.861V18H377.671V15.732H372.883V14.682L377.587 7.948H378.861V14.626H380.317V15.732ZM377.671 11.476C377.671 11.2333 377.671 11.014 377.671 10.818C377.68 10.6127 377.69 10.4213 377.699 10.244C377.708 10.0667 377.713 9.89867 377.713 9.74C377.722 9.572 377.732 9.41333 377.741 9.264H377.685C377.61 9.44133 377.517 9.63267 377.405 9.838C377.293 10.0433 377.186 10.216 377.083 10.356L374.087 14.626H377.671V11.476ZM384.689 10.356C385.333 10.356 385.883 10.496 386.341 10.776C386.807 11.056 387.162 11.4527 387.405 11.966C387.657 12.47 387.783 13.0627 387.783 13.744V14.486H382.645C382.663 15.3353 382.878 15.984 383.289 16.432C383.709 16.8707 384.292 17.09 385.039 17.09C385.515 17.09 385.935 17.048 386.299 16.964C386.672 16.8707 387.055 16.74 387.447 16.572V17.65C387.064 17.818 386.686 17.9393 386.313 18.014C385.939 18.098 385.496 18.14 384.983 18.14C384.273 18.14 383.643 17.9953 383.093 17.706C382.551 17.4167 382.127 16.9873 381.819 16.418C381.52 15.8393 381.371 15.1347 381.371 14.304C381.371 13.4827 381.506 12.778 381.777 12.19C382.057 11.602 382.444 11.1493 382.939 10.832C383.443 10.5147 384.026 10.356 384.689 10.356ZM384.675 11.364C384.087 11.364 383.62 11.5553 383.275 11.938C382.939 12.3113 382.738 12.834 382.673 13.506H386.495C386.495 13.0767 386.429 12.7033 386.299 12.386C386.168 12.0687 385.967 11.8213 385.697 11.644C385.435 11.4573 385.095 11.364 384.675 11.364ZM390.911 12.918C390.911 13.0673 390.902 13.2633 390.883 13.506C390.874 13.7487 390.864 13.9587 390.855 14.136H390.911C390.967 14.0613 391.051 13.954 391.163 13.814C391.275 13.674 391.387 13.534 391.499 13.394C391.62 13.2447 391.723 13.1233 391.807 13.03L394.201 10.496H395.643L392.605 13.702L395.853 18H394.369L391.765 14.5L390.911 15.242V18H389.693V7.36H390.911V12.918ZM403.261 18H396.653V16.978L399.271 14.332C399.775 13.828 400.2 13.38 400.545 12.988C400.891 12.596 401.152 12.2133 401.329 11.84C401.507 11.4573 401.595 11.042 401.595 10.594C401.595 10.0433 401.432 9.628 401.105 9.348C400.779 9.05867 400.354 8.914 399.831 8.914C399.346 8.914 398.917 8.998 398.543 9.166C398.179 9.334 397.806 9.56733 397.423 9.866L396.765 9.04C397.027 8.816 397.311 8.61533 397.619 8.438C397.937 8.26067 398.277 8.12067 398.641 8.018C399.015 7.91533 399.411 7.864 399.831 7.864C400.457 7.864 400.993 7.97133 401.441 8.186C401.889 8.40067 402.235 8.70867 402.477 9.11C402.729 9.502 402.855 9.97333 402.855 10.524C402.855 10.916 402.795 11.2893 402.673 11.644C402.552 11.9893 402.379 12.33 402.155 12.666C401.931 13.002 401.661 13.3427 401.343 13.688C401.026 14.0333 400.676 14.3927 400.293 14.766L398.207 16.824V16.88H403.261V18ZM411.623 18L410.419 14.906H406.457L405.267 18H403.993L407.899 7.962H409.033L412.925 18H411.623ZM408.921 10.762C408.893 10.6873 408.846 10.552 408.781 10.356C408.716 10.16 408.65 9.95933 408.585 9.754C408.529 9.53933 408.482 9.376 408.445 9.264C408.398 9.45067 408.347 9.642 408.291 9.838C408.244 10.0247 408.193 10.1973 408.137 10.356C408.09 10.5147 408.048 10.65 408.011 10.762L406.877 13.786H410.041L408.921 10.762ZM419.963 15.326C419.963 15.9233 419.818 16.432 419.529 16.852C419.239 17.2627 418.824 17.58 418.283 17.804C417.751 18.028 417.121 18.14 416.393 18.14C416.019 18.14 415.66 18.1213 415.315 18.084C414.979 18.0467 414.671 17.9953 414.391 17.93C414.111 17.8553 413.863 17.7667 413.649 17.664V16.46C413.985 16.6093 414.4 16.7447 414.895 16.866C415.399 16.9873 415.917 17.048 416.449 17.048C416.943 17.048 417.359 16.9827 417.695 16.852C418.031 16.7213 418.283 16.5347 418.451 16.292C418.619 16.0493 418.703 15.7647 418.703 15.438C418.703 15.1113 418.633 14.836 418.493 14.612C418.353 14.388 418.11 14.1827 417.765 13.996C417.429 13.8 416.957 13.5947 416.351 13.38C415.921 13.2213 415.543 13.0533 415.217 12.876C414.899 12.6893 414.633 12.4793 414.419 12.246C414.204 12.0127 414.041 11.7467 413.929 11.448C413.826 11.1493 413.775 10.804 413.775 10.412C413.775 9.88 413.91 9.42733 414.181 9.054C414.451 8.67133 414.825 8.37733 415.301 8.172C415.786 7.96667 416.341 7.864 416.967 7.864C417.517 7.864 418.021 7.91533 418.479 8.018C418.936 8.12067 419.351 8.256 419.725 8.424L419.333 9.502C418.987 9.35267 418.609 9.22667 418.199 9.124C417.797 9.02133 417.377 8.97 416.939 8.97C416.519 8.97 416.169 9.03067 415.889 9.152C415.609 9.27333 415.399 9.446 415.259 9.67C415.119 9.88467 415.049 10.1367 415.049 10.426C415.049 10.762 415.119 11.042 415.259 11.266C415.399 11.49 415.627 11.6907 415.945 11.868C416.262 12.0453 416.691 12.2367 417.233 12.442C417.821 12.6567 418.315 12.89 418.717 13.142C419.127 13.3847 419.435 13.6787 419.641 14.024C419.855 14.3693 419.963 14.8033 419.963 15.326ZM426.316 12.722H429.774V17.622C429.233 17.7993 428.687 17.93 428.136 18.014C427.585 18.098 426.96 18.14 426.26 18.14C425.224 18.14 424.351 17.9347 423.642 17.524C422.933 17.104 422.391 16.5113 422.018 15.746C421.654 14.9713 421.472 14.0567 421.472 13.002C421.472 11.9567 421.677 11.0513 422.088 10.286C422.499 9.52067 423.087 8.928 423.852 8.508C424.627 8.07867 425.56 7.864 426.652 7.864C427.212 7.864 427.739 7.91533 428.234 8.018C428.738 8.12067 429.205 8.26533 429.634 8.452L429.158 9.544C428.803 9.38533 428.402 9.25 427.954 9.138C427.515 9.026 427.058 8.97 426.582 8.97C425.789 8.97 425.107 9.13333 424.538 9.46C423.969 9.78667 423.535 10.2533 423.236 10.86C422.937 11.4573 422.788 12.1713 422.788 13.002C422.788 13.7953 422.914 14.5 423.166 15.116C423.427 15.7227 423.833 16.1987 424.384 16.544C424.935 16.88 425.658 17.048 426.554 17.048C426.853 17.048 427.114 17.0387 427.338 17.02C427.571 16.992 427.781 16.9593 427.968 16.922C428.164 16.8847 428.346 16.8473 428.514 16.81V13.842H426.316V12.722ZM433.212 12.918C433.212 13.0673 433.202 13.2633 433.184 13.506C433.174 13.7487 433.165 13.9587 433.156 14.136H433.212C433.268 14.0613 433.352 13.954 433.464 13.814C433.576 13.674 433.688 13.534 433.8 13.394C433.921 13.2447 434.024 13.1233 434.108 13.03L436.502 10.496H437.944L434.906 13.702L438.154 18H436.67L434.066 14.5L433.212 15.242V18H431.994V7.36H433.212V12.918Z" fill="white"/>
</svg>
