<svg width="503" height="25" viewBox="0 0 503 25" fill="none" xmlns="http://www.w3.org/2000/svg">
<rect width="503" height="25" fill="#555555"/>
<rect x="205" width="298" height="25" fill="#9867F0"/>
<path d="M20.0894 18H18.8294V9.11H15.7074V8.004H23.1974V9.11H20.0894V18ZM26.4503 10.356C27.0943 10.356 27.645 10.496 28.1023 10.776C28.569 11.056 28.9236 11.4527 29.1663 11.966C29.4183 12.47 29.5443 13.0627 29.5443 13.744V14.486H24.4063C24.425 15.3353 24.6396 15.984 25.0503 16.432C25.4703 16.8707 26.0536 17.09 26.8003 17.09C27.2763 17.09 27.6963 17.048 28.0603 16.964C28.4336 16.8707 28.8163 16.74 29.2083 16.572V17.65C28.8256 17.818 28.4476 17.9393 28.0743 18.014C27.701 18.098 27.2576 18.14 26.7443 18.14C26.035 18.14 25.405 17.9953 24.8543 17.706C24.313 17.4167 23.8883 16.9873 23.5803 16.418C23.2816 15.8393 23.1323 15.1347 23.1323 14.304C23.1323 13.4827 23.2676 12.778 23.5383 12.19C23.8183 11.602 24.2056 11.1493 24.7003 10.832C25.2043 10.5147 25.7876 10.356 26.4503 10.356ZM26.4363 11.364C25.8483 11.364 25.3816 11.5553 25.0363 11.938C24.7003 12.3113 24.4996 12.834 24.4343 13.506H28.2563C28.2563 13.0767 28.191 12.7033 28.0603 12.386C27.9296 12.0687 27.729 11.8213 27.4583 11.644C27.197 11.4573 26.8563 11.364 26.4363 11.364ZM33.9606 17.132C34.1473 17.132 34.3386 17.118 34.5346 17.09C34.7306 17.0527 34.8893 17.0153 35.0106 16.978V17.916C34.88 17.9813 34.6933 18.0327 34.4506 18.07C34.208 18.1167 33.9746 18.14 33.7506 18.14C33.3586 18.14 32.9946 18.0747 32.6586 17.944C32.332 17.804 32.066 17.566 31.8606 17.23C31.6553 16.894 31.5526 16.4227 31.5526 15.816V11.448H30.4886V10.86L31.5666 10.37L32.0566 8.774H32.7846V10.496H34.9546V11.448H32.7846V15.788C32.7846 16.2453 32.892 16.586 33.1066 16.81C33.3306 17.0247 33.6153 17.132 33.9606 17.132ZM37.7452 10.482C37.7452 10.6593 37.7359 10.8413 37.7172 11.028C37.7079 11.2147 37.6939 11.3827 37.6752 11.532H37.7592C37.9179 11.2707 38.1186 11.056 38.3612 10.888C38.6039 10.72 38.8746 10.594 39.1732 10.51C39.4719 10.4167 39.7799 10.37 40.0972 10.37C40.7039 10.37 41.2079 10.468 41.6092 10.664C42.0199 10.8507 42.3279 11.1447 42.5332 11.546C42.7386 11.9473 42.8412 12.47 42.8412 13.114V18H41.6232V13.198C41.6232 12.5913 41.4879 12.1387 41.2172 11.84C40.9466 11.5413 40.5219 11.392 39.9432 11.392C39.3832 11.392 38.9446 11.4993 38.6272 11.714C38.3099 11.9193 38.0812 12.2273 37.9412 12.638C37.8106 13.0393 37.7452 13.534 37.7452 14.122V18H36.5132V7.36H37.7452V10.482ZM48.0655 10.356C48.7095 10.356 49.2602 10.496 49.7175 10.776C50.1842 11.056 50.5389 11.4527 50.7815 11.966C51.0335 12.47 51.1595 13.0627 51.1595 13.744V14.486H46.0215C46.0402 15.3353 46.2549 15.984 46.6655 16.432C47.0855 16.8707 47.6689 17.09 48.4155 17.09C48.8915 17.09 49.3115 17.048 49.6755 16.964C50.0489 16.8707 50.4315 16.74 50.8235 16.572V17.65C50.4409 17.818 50.0629 17.9393 49.6895 18.014C49.3162 18.098 48.8729 18.14 48.3595 18.14C47.6502 18.14 47.0202 17.9953 46.4695 17.706C45.9282 17.4167 45.5035 16.9873 45.1955 16.418C44.8969 15.8393 44.7475 15.1347 44.7475 14.304C44.7475 13.4827 44.8829 12.778 45.1535 12.19C45.4335 11.602 45.8209 11.1493 46.3155 10.832C46.8195 10.5147 47.4029 10.356 48.0655 10.356ZM48.0515 11.364C47.4635 11.364 46.9969 11.5553 46.6515 11.938C46.3155 12.3113 46.1149 12.834 46.0495 13.506H49.8715C49.8715 13.0767 49.8062 12.7033 49.6755 12.386C49.5449 12.0687 49.3442 11.8213 49.0735 11.644C48.8122 11.4573 48.4715 11.364 48.0515 11.364ZM56.5699 10.356C56.7099 10.356 56.8592 10.3653 57.0179 10.384C57.1859 10.3933 57.3305 10.412 57.4519 10.44L57.2979 11.574C57.1765 11.546 57.0412 11.5227 56.8919 11.504C56.7519 11.4853 56.6165 11.476 56.4859 11.476C56.1965 11.476 55.9212 11.5367 55.6599 11.658C55.3985 11.7793 55.1652 11.952 54.9599 12.176C54.7545 12.3907 54.5912 12.652 54.4699 12.96C54.3579 13.268 54.3019 13.6133 54.3019 13.996V18H53.0699V10.496H54.0779L54.2179 11.868H54.2739C54.4325 11.588 54.6239 11.336 54.8479 11.112C55.0719 10.8787 55.3285 10.6967 55.6179 10.566C55.9072 10.426 56.2245 10.356 56.5699 10.356ZM70.2598 14.472C70.2598 15.1627 70.1198 15.788 69.8398 16.348C69.5598 16.8987 69.1305 17.3373 68.5518 17.664C67.9825 17.9813 67.2545 18.14 66.3678 18.14C65.1265 18.14 64.1791 17.804 63.5258 17.132C62.8818 16.4507 62.5598 15.5547 62.5598 14.444V8.004H63.8198V14.486C63.8198 15.298 64.0345 15.928 64.4638 16.376C64.9025 16.824 65.5605 17.048 66.4378 17.048C67.0445 17.048 67.5345 16.9407 67.9078 16.726C68.2905 16.502 68.5705 16.1987 68.7478 15.816C68.9251 15.424 69.0138 14.976 69.0138 14.472V8.004H70.2598V14.472ZM78.568 15.326C78.568 15.9233 78.4234 16.432 78.134 16.852C77.8447 17.2627 77.4294 17.58 76.888 17.804C76.356 18.028 75.726 18.14 74.998 18.14C74.6247 18.14 74.2654 18.1213 73.92 18.084C73.584 18.0467 73.276 17.9953 72.996 17.93C72.716 17.8553 72.4687 17.7667 72.254 17.664V16.46C72.59 16.6093 73.0054 16.7447 73.5 16.866C74.004 16.9873 74.522 17.048 75.054 17.048C75.5487 17.048 75.964 16.9827 76.3 16.852C76.636 16.7213 76.888 16.5347 77.056 16.292C77.224 16.0493 77.308 15.7647 77.308 15.438C77.308 15.1113 77.238 14.836 77.098 14.612C76.958 14.388 76.7154 14.1827 76.37 13.996C76.034 13.8 75.5627 13.5947 74.956 13.38C74.5267 13.2213 74.1487 13.0533 73.822 12.876C73.5047 12.6893 73.2387 12.4793 73.024 12.246C72.8094 12.0127 72.646 11.7467 72.534 11.448C72.4314 11.1493 72.38 10.804 72.38 10.412C72.38 9.88 72.5154 9.42733 72.786 9.054C73.0567 8.67133 73.43 8.37733 73.906 8.172C74.3914 7.96667 74.9467 7.864 75.572 7.864C76.1227 7.864 76.6267 7.91533 77.084 8.018C77.5414 8.12067 77.9567 8.256 78.33 8.424L77.938 9.502C77.5927 9.35267 77.2147 9.22667 76.804 9.124C76.4027 9.02133 75.9827 8.97 75.544 8.97C75.124 8.97 74.774 9.03067 74.494 9.152C74.214 9.27333 74.004 9.446 73.864 9.67C73.724 9.88467 73.654 10.1367 73.654 10.426C73.654 10.762 73.724 11.042 73.864 11.266C74.004 11.49 74.2327 11.6907 74.55 11.868C74.8674 12.0453 75.2967 12.2367 75.838 12.442C76.426 12.6567 76.9207 12.89 77.322 13.142C77.7327 13.3847 78.0407 13.6787 78.246 14.024C78.4607 14.3693 78.568 14.8033 78.568 15.326ZM88.5896 12.904C88.5896 14.024 88.3796 14.962 87.9596 15.718C87.549 16.474 86.9563 17.0433 86.1816 17.426C85.407 17.8087 84.469 18 83.3676 18H80.5816V8.004H83.6616C84.6696 8.004 85.5423 8.19067 86.2796 8.564C87.017 8.93733 87.5863 9.488 87.9876 10.216C88.389 10.9347 88.5896 11.8307 88.5896 12.904ZM87.2596 12.946C87.2596 12.0593 87.1103 11.3313 86.8116 10.762C86.5223 10.1927 86.093 9.77267 85.5236 9.502C84.9636 9.222 84.2823 9.082 83.4796 9.082H81.8416V16.922H83.1996C84.553 16.922 85.5656 16.5907 86.2376 15.928C86.919 15.256 87.2596 14.262 87.2596 12.946ZM93.5484 18H92.2884V9.11H89.1664V8.004H96.6564V9.11H93.5484V18ZM101.002 14.164C101.002 13.3987 101.072 12.652 101.212 11.924C101.362 11.196 101.59 10.5007 101.898 9.838C102.206 9.17533 102.594 8.564 103.06 8.004H104.222C103.793 8.58267 103.429 9.208 103.13 9.88C102.841 10.552 102.622 11.2473 102.472 11.966C102.323 12.6847 102.248 13.4127 102.248 14.15C102.248 14.8687 102.323 15.5827 102.472 16.292C102.622 17.0013 102.841 17.6827 103.13 18.336C103.42 18.9987 103.779 19.624 104.208 20.212H103.06C102.594 19.6613 102.206 19.0593 101.898 18.406C101.59 17.762 101.362 17.0807 101.212 16.362C101.072 15.6433 101.002 14.9107 101.002 14.164ZM112.798 18H111.538V9.11H108.416V8.004H115.906V9.11H112.798V18ZM120.172 8.004C121.002 8.004 121.684 8.11133 122.216 8.326C122.757 8.53133 123.158 8.844 123.42 9.264C123.681 9.684 123.812 10.2113 123.812 10.846C123.812 11.378 123.714 11.8213 123.518 12.176C123.322 12.5307 123.07 12.8153 122.762 13.03C122.463 13.2353 122.146 13.3987 121.81 13.52L124.554 18H123.084L120.662 13.87H118.674V18H117.414V8.004H120.172ZM120.102 9.096H118.674V12.806H120.172C120.713 12.806 121.156 12.736 121.502 12.596C121.847 12.4467 122.099 12.232 122.258 11.952C122.426 11.672 122.51 11.322 122.51 10.902C122.51 10.4633 122.421 10.1133 122.244 9.852C122.076 9.59067 121.814 9.39933 121.46 9.278C121.105 9.15667 120.652 9.096 120.102 9.096ZM132.913 18H131.485L128.839 13.66L126.151 18H124.821L128.139 12.792L125.031 8.004H126.431L128.881 11.924L131.345 8.004H132.675L129.581 12.764L132.913 18ZM141.126 18H139.866V9.11H136.744V8.004H144.234V9.11H141.126V18ZM148.5 8.004C149.33 8.004 150.012 8.11133 150.544 8.326C151.085 8.53133 151.486 8.844 151.748 9.264C152.009 9.684 152.14 10.2113 152.14 10.846C152.14 11.378 152.042 11.8213 151.846 12.176C151.65 12.5307 151.398 12.8153 151.09 13.03C150.791 13.2353 150.474 13.3987 150.138 13.52L152.882 18H151.412L148.99 13.87H147.002V18H145.742V8.004H148.5ZM148.43 9.096H147.002V12.806H148.5C149.041 12.806 149.484 12.736 149.83 12.596C150.175 12.4467 150.427 12.232 150.586 11.952C150.754 11.672 150.838 11.322 150.838 10.902C150.838 10.4633 150.749 10.1133 150.572 9.852C150.404 9.59067 150.142 9.39933 149.788 9.278C149.433 9.15667 148.98 9.096 148.43 9.096ZM158.735 8.97C158.203 8.97 157.722 9.06333 157.293 9.25C156.863 9.42733 156.499 9.69333 156.201 10.048C155.902 10.3933 155.673 10.818 155.515 11.322C155.356 11.8167 155.277 12.3767 155.277 13.002C155.277 13.8233 155.403 14.5373 155.655 15.144C155.916 15.7507 156.299 16.2173 156.803 16.544C157.316 16.8707 157.955 17.034 158.721 17.034C159.159 17.034 159.575 16.9967 159.967 16.922C160.359 16.8473 160.741 16.754 161.115 16.642V17.734C160.741 17.874 160.354 17.9767 159.953 18.042C159.561 18.1073 159.089 18.14 158.539 18.14C157.521 18.14 156.672 17.93 155.991 17.51C155.309 17.09 154.796 16.4927 154.451 15.718C154.115 14.9433 153.947 14.0333 153.947 12.988C153.947 12.232 154.049 11.5413 154.255 10.916C154.469 10.2907 154.777 9.74933 155.179 9.292C155.589 8.83467 156.093 8.48467 156.691 8.242C157.288 7.99 157.974 7.864 158.749 7.864C159.262 7.864 159.757 7.91533 160.233 8.018C160.709 8.12067 161.133 8.26533 161.507 8.452L161.003 9.516C160.695 9.376 160.349 9.25 159.967 9.138C159.593 9.026 159.183 8.97 158.735 8.97ZM172.855 18H166.247V16.978L168.865 14.332C169.369 13.828 169.794 13.38 170.139 12.988C170.485 12.596 170.746 12.2133 170.923 11.84C171.101 11.4573 171.189 11.042 171.189 10.594C171.189 10.0433 171.026 9.628 170.699 9.348C170.373 9.05867 169.948 8.914 169.425 8.914C168.94 8.914 168.511 8.998 168.137 9.166C167.773 9.334 167.4 9.56733 167.017 9.866L166.359 9.04C166.621 8.816 166.905 8.61533 167.213 8.438C167.531 8.26067 167.871 8.12067 168.235 8.018C168.609 7.91533 169.005 7.864 169.425 7.864C170.051 7.864 170.587 7.97133 171.035 8.186C171.483 8.40067 171.829 8.70867 172.071 9.11C172.323 9.502 172.449 9.97333 172.449 10.524C172.449 10.916 172.389 11.2893 172.267 11.644C172.146 11.9893 171.973 12.33 171.749 12.666C171.525 13.002 171.255 13.3427 170.937 13.688C170.62 14.0333 170.27 14.3927 169.887 14.766L167.801 16.824V16.88H172.855V18ZM180.909 12.988C180.909 13.8 180.848 14.5233 180.727 15.158C180.606 15.7927 180.41 16.334 180.139 16.782C179.878 17.2207 179.532 17.5567 179.103 17.79C178.683 18.0233 178.174 18.14 177.577 18.14C176.83 18.14 176.21 17.9347 175.715 17.524C175.23 17.1133 174.866 16.5253 174.623 15.76C174.39 14.9853 174.273 14.0613 174.273 12.988C174.273 11.9053 174.38 10.9813 174.595 10.216C174.819 9.45067 175.174 8.86733 175.659 8.466C176.144 8.05533 176.784 7.85 177.577 7.85C178.324 7.85 178.944 8.05533 179.439 8.466C179.934 8.86733 180.302 9.45067 180.545 10.216C180.788 10.9813 180.909 11.9053 180.909 12.988ZM175.505 12.988C175.505 13.9027 175.57 14.6633 175.701 15.27C175.841 15.8767 176.06 16.334 176.359 16.642C176.667 16.9407 177.073 17.09 177.577 17.09C178.081 17.09 178.482 16.9407 178.781 16.642C179.089 16.3433 179.313 15.8907 179.453 15.284C179.593 14.668 179.663 13.9027 179.663 12.988C179.663 12.0733 179.593 11.3173 179.453 10.72C179.313 10.1133 179.089 9.66067 178.781 9.362C178.482 9.054 178.081 8.9 177.577 8.9C177.073 8.9 176.667 9.054 176.359 9.362C176.06 9.66067 175.841 10.1133 175.701 10.72C175.57 11.3173 175.505 12.0733 175.505 12.988ZM188.875 14.164C188.875 14.9107 188.801 15.6433 188.651 16.362C188.511 17.0807 188.287 17.762 187.979 18.406C187.681 19.0593 187.293 19.6613 186.817 20.212H185.669C186.099 19.624 186.458 18.9987 186.747 18.336C187.037 17.6827 187.256 17.0013 187.405 16.292C187.555 15.5827 187.629 14.8687 187.629 14.15C187.629 13.4127 187.555 12.6847 187.405 11.966C187.256 11.2473 187.037 10.552 186.747 9.88C186.458 9.208 186.094 8.58267 185.655 8.004H186.817C187.293 8.564 187.681 9.17533 187.979 9.838C188.287 10.5007 188.511 11.196 188.651 11.924C188.801 12.652 188.875 13.3987 188.875 14.164Z" fill="white"/>
<path d="M219.24 18H217.98V9.11H214.858V8.004H222.348V9.11H219.24V18ZM231.863 12.904C231.863 14.024 231.653 14.962 231.233 15.718C230.822 16.474 230.23 17.0433 229.455 17.426C228.68 17.8087 227.742 18 226.641 18H223.855V8.004H226.935C227.943 8.004 228.816 8.19067 229.553 8.564C230.29 8.93733 230.86 9.488 231.261 10.216C231.662 10.9347 231.863 11.8307 231.863 12.904ZM230.533 12.946C230.533 12.0593 230.384 11.3313 230.085 10.762C229.796 10.1927 229.366 9.77267 228.797 9.502C228.237 9.222 227.556 9.082 226.753 9.082H225.115V16.922H226.473C227.826 16.922 228.839 16.5907 229.511 15.928C230.192 15.256 230.533 14.262 230.533 12.946ZM236.756 10.37C237.67 10.37 238.347 10.5707 238.786 10.972C239.224 11.3733 239.444 12.0127 239.444 12.89V18H238.548L238.31 16.936H238.254C238.039 17.2067 237.815 17.4353 237.582 17.622C237.358 17.7993 237.096 17.93 236.798 18.014C236.508 18.098 236.154 18.14 235.734 18.14C235.286 18.14 234.88 18.0607 234.516 17.902C234.161 17.7433 233.881 17.5007 233.676 17.174C233.47 16.838 233.368 16.418 233.368 15.914C233.368 15.1673 233.662 14.5933 234.25 14.192C234.838 13.7813 235.743 13.5573 236.966 13.52L238.24 13.478V13.03C238.24 12.4047 238.104 11.9707 237.834 11.728C237.563 11.4853 237.18 11.364 236.686 11.364C236.294 11.364 235.92 11.4247 235.566 11.546C235.211 11.658 234.88 11.7887 234.572 11.938L234.194 11.014C234.52 10.8367 234.908 10.6873 235.356 10.566C235.804 10.4353 236.27 10.37 236.756 10.37ZM237.12 14.374C236.186 14.4113 235.538 14.5607 235.174 14.822C234.819 15.0833 234.642 15.452 234.642 15.928C234.642 16.348 234.768 16.656 235.02 16.852C235.281 17.048 235.612 17.146 236.014 17.146C236.648 17.146 237.176 16.9733 237.596 16.628C238.016 16.2733 238.226 15.732 238.226 15.004V14.332L237.12 14.374ZM240.585 10.496H241.901L243.525 14.766C243.619 15.018 243.703 15.2607 243.777 15.494C243.861 15.7273 243.936 15.956 244.001 16.18C244.067 16.3947 244.118 16.6047 244.155 16.81H244.211C244.267 16.5767 244.356 16.2733 244.477 15.9C244.599 15.5173 244.725 15.1347 244.855 14.752L246.381 10.496H247.711L244.477 19.036C244.3 19.5027 244.09 19.9087 243.847 20.254C243.614 20.6087 243.325 20.8793 242.979 21.066C242.643 21.262 242.233 21.36 241.747 21.36C241.523 21.36 241.327 21.346 241.159 21.318C240.991 21.2993 240.847 21.276 240.725 21.248V20.268C240.828 20.2867 240.949 20.3053 241.089 20.324C241.239 20.3427 241.393 20.352 241.551 20.352C241.841 20.352 242.088 20.296 242.293 20.184C242.508 20.0813 242.69 19.9273 242.839 19.722C242.989 19.526 243.115 19.2927 243.217 19.022L243.609 18.028L240.585 10.496ZM252.468 10.356C253.392 10.356 254.134 10.678 254.694 11.322C255.263 11.966 255.548 12.9367 255.548 14.234C255.548 15.0833 255.417 15.802 255.156 16.39C254.904 16.9687 254.545 17.4073 254.078 17.706C253.621 17.9953 253.079 18.14 252.454 18.14C252.071 18.14 251.731 18.0887 251.432 17.986C251.133 17.8833 250.877 17.7527 250.662 17.594C250.457 17.426 250.279 17.244 250.13 17.048H250.046C250.065 17.2067 250.083 17.4073 250.102 17.65C250.121 17.8927 250.13 18.1027 250.13 18.28V21.36H248.898V10.496H249.906L250.074 11.518H250.13C250.279 11.3033 250.457 11.1073 250.662 10.93C250.877 10.7527 251.129 10.6127 251.418 10.51C251.717 10.4073 252.067 10.356 252.468 10.356ZM252.244 11.392C251.74 11.392 251.334 11.49 251.026 11.686C250.718 11.8727 250.494 12.1573 250.354 12.54C250.214 12.9227 250.139 13.408 250.13 13.996V14.234C250.13 14.85 250.195 15.3727 250.326 15.802C250.457 16.2313 250.676 16.558 250.984 16.782C251.301 17.006 251.731 17.118 252.272 17.118C252.729 17.118 253.103 16.992 253.392 16.74C253.691 16.488 253.91 16.1473 254.05 15.718C254.199 15.2793 254.274 14.78 254.274 14.22C254.274 13.3613 254.106 12.6753 253.77 12.162C253.443 11.6487 252.935 11.392 252.244 11.392ZM260.325 8.004C261.632 8.004 262.584 8.26067 263.181 8.774C263.779 9.28733 264.077 10.0107 264.077 10.944C264.077 11.3547 264.007 11.7513 263.867 12.134C263.737 12.5073 263.517 12.8433 263.209 13.142C262.901 13.4407 262.491 13.6787 261.977 13.856C261.464 14.024 260.834 14.108 260.087 14.108H258.939V18H257.679V8.004H260.325ZM260.213 9.082H258.939V13.03H259.947C260.582 13.03 261.109 12.9647 261.529 12.834C261.949 12.694 262.262 12.4747 262.467 12.176C262.673 11.8773 262.775 11.4853 262.775 11C262.775 10.356 262.57 9.87533 262.159 9.558C261.749 9.24067 261.1 9.082 260.213 9.082ZM272.078 18H265.47V16.978L268.088 14.332C268.592 13.828 269.017 13.38 269.362 12.988C269.707 12.596 269.969 12.2133 270.146 11.84C270.323 11.4573 270.412 11.042 270.412 10.594C270.412 10.0433 270.249 9.628 269.922 9.348C269.595 9.05867 269.171 8.914 268.648 8.914C268.163 8.914 267.733 8.998 267.36 9.166C266.996 9.334 266.623 9.56733 266.24 9.866L265.582 9.04C265.843 8.816 266.128 8.61533 266.436 8.438C266.753 8.26067 267.094 8.12067 267.458 8.018C267.831 7.91533 268.228 7.864 268.648 7.864C269.273 7.864 269.81 7.97133 270.258 8.186C270.706 8.40067 271.051 8.70867 271.294 9.11C271.546 9.502 271.672 9.97333 271.672 10.524C271.672 10.916 271.611 11.2893 271.49 11.644C271.369 11.9893 271.196 12.33 270.972 12.666C270.748 13.002 270.477 13.3427 270.16 13.688C269.843 14.0333 269.493 14.3927 269.11 14.766L267.024 16.824V16.88H272.078V18ZM275.428 18H274.168V8.004H279.754V9.11H275.428V12.652H279.488V13.758H275.428V18ZM289.491 10.356C290.341 10.356 290.975 10.5753 291.395 11.014C291.815 11.4433 292.025 12.1433 292.025 13.114V18H290.807V13.17C290.807 12.582 290.681 12.1387 290.429 11.84C290.187 11.5413 289.804 11.392 289.281 11.392C288.553 11.392 288.031 11.602 287.713 12.022C287.405 12.442 287.251 13.0533 287.251 13.856V18H286.033V13.17C286.033 12.778 285.977 12.4513 285.865 12.19C285.753 11.9193 285.585 11.7187 285.361 11.588C285.137 11.4573 284.848 11.392 284.493 11.392C283.989 11.392 283.593 11.4993 283.303 11.714C283.014 11.9193 282.804 12.2227 282.673 12.624C282.552 13.0253 282.491 13.52 282.491 14.108V18H281.259V10.496H282.253L282.435 11.518H282.505C282.664 11.2567 282.855 11.042 283.079 10.874C283.313 10.6967 283.569 10.566 283.849 10.482C284.129 10.398 284.419 10.356 284.717 10.356C285.296 10.356 285.777 10.4587 286.159 10.664C286.551 10.8693 286.836 11.1867 287.013 11.616H287.083C287.335 11.1867 287.676 10.8693 288.105 10.664C288.544 10.4587 289.006 10.356 289.491 10.356ZM301.301 18H299.873L297.227 13.66L294.539 18H293.209L296.527 12.792L293.419 8.004H294.819L297.269 11.924L299.733 8.004H301.063L297.969 12.764L301.301 18ZM303.778 9.95C303.778 10.2673 303.769 10.566 303.75 10.846C303.741 11.1167 303.727 11.3313 303.708 11.49H303.778C303.993 11.1727 304.287 10.9067 304.66 10.692C305.034 10.4773 305.514 10.37 306.102 10.37C307.036 10.37 307.782 10.6967 308.342 11.35C308.912 11.994 309.196 12.96 309.196 14.248C309.196 15.1067 309.066 15.8253 308.804 16.404C308.552 16.9827 308.193 17.4167 307.726 17.706C307.26 17.9953 306.718 18.14 306.102 18.14C305.514 18.14 305.034 18.0327 304.66 17.818C304.287 17.6033 303.993 17.3467 303.778 17.048H303.68L303.428 18H302.546V7.36H303.778V9.95ZM305.892 11.392C305.36 11.392 304.94 11.4947 304.632 11.7C304.324 11.896 304.105 12.204 303.974 12.624C303.844 13.0347 303.778 13.562 303.778 14.206V14.262C303.778 15.186 303.928 15.8953 304.226 16.39C304.534 16.8753 305.099 17.118 305.92 17.118C306.592 17.118 307.092 16.8707 307.418 16.376C307.754 15.8813 307.922 15.1673 307.922 14.234C307.922 13.2913 307.754 12.582 307.418 12.106C307.092 11.63 306.583 11.392 305.892 11.392ZM314.184 8.004C315.014 8.004 315.71 8.08333 316.27 8.242C316.839 8.40067 317.264 8.662 317.544 9.026C317.833 9.39 317.978 9.87533 317.978 10.482C317.978 10.874 317.903 11.224 317.754 11.532C317.614 11.8307 317.399 12.0827 317.11 12.288C316.83 12.484 316.484 12.6193 316.074 12.694V12.764C316.494 12.8293 316.872 12.9507 317.208 13.128C317.553 13.3053 317.824 13.5573 318.02 13.884C318.216 14.2107 318.314 14.6353 318.314 15.158C318.314 15.7647 318.174 16.2827 317.894 16.712C317.614 17.132 317.212 17.454 316.69 17.678C316.176 17.8927 315.56 18 314.842 18H311.328V8.004H314.184ZM314.436 12.26C315.294 12.26 315.882 12.1247 316.2 11.854C316.517 11.574 316.676 11.1633 316.676 10.622C316.676 10.0713 316.48 9.67933 316.088 9.446C315.705 9.20333 315.089 9.082 314.24 9.082H312.588V12.26H314.436ZM312.588 13.31V16.936H314.604C315.49 16.936 316.106 16.7633 316.452 16.418C316.797 16.0727 316.97 15.62 316.97 15.06C316.97 14.7053 316.89 14.3973 316.732 14.136C316.582 13.8747 316.326 13.674 315.962 13.534C315.607 13.3847 315.122 13.31 314.506 13.31H312.588ZM323.079 8.004C324.386 8.004 325.338 8.26067 325.935 8.774C326.533 9.28733 326.831 10.0107 326.831 10.944C326.831 11.3547 326.761 11.7513 326.621 12.134C326.491 12.5073 326.271 12.8433 325.963 13.142C325.655 13.4407 325.245 13.6787 324.731 13.856C324.218 14.024 323.588 14.108 322.841 14.108H321.693V18H320.433V8.004H323.079ZM322.967 9.082H321.693V13.03H322.701C323.336 13.03 323.863 12.9647 324.283 12.834C324.703 12.694 325.016 12.4747 325.221 12.176C325.427 11.8773 325.529 11.4853 325.529 11C325.529 10.356 325.324 9.87533 324.913 9.558C324.503 9.24067 323.854 9.082 322.967 9.082ZM329.456 18L333.558 9.124H328.168V8.004H334.874V8.956L330.814 18H329.456ZM335.577 10.496H336.893L338.517 14.766C338.611 15.018 338.695 15.2607 338.769 15.494C338.853 15.7273 338.928 15.956 338.993 16.18C339.059 16.3947 339.11 16.6047 339.147 16.81H339.203C339.259 16.5767 339.348 16.2733 339.469 15.9C339.591 15.5173 339.717 15.1347 339.847 14.752L341.373 10.496H342.703L339.469 19.036C339.292 19.5027 339.082 19.9087 338.839 20.254C338.606 20.6087 338.317 20.8793 337.971 21.066C337.635 21.262 337.225 21.36 336.739 21.36C336.515 21.36 336.319 21.346 336.151 21.318C335.983 21.2993 335.839 21.276 335.717 21.248V20.268C335.82 20.2867 335.941 20.3053 336.081 20.324C336.231 20.3427 336.385 20.352 336.543 20.352C336.833 20.352 337.08 20.296 337.285 20.184C337.5 20.0813 337.682 19.9273 337.831 19.722C337.981 19.526 338.107 19.2927 338.209 19.022L338.601 18.028L335.577 10.496ZM349.602 10.342C349.602 10.79 349.518 11.1773 349.35 11.504C349.182 11.8307 348.94 12.0967 348.622 12.302C348.314 12.5073 347.95 12.652 347.53 12.736V12.792C348.333 12.8853 348.93 13.1373 349.322 13.548C349.714 13.9587 349.91 14.4953 349.91 15.158C349.91 15.7367 349.775 16.2547 349.504 16.712C349.234 17.16 348.814 17.51 348.244 17.762C347.684 18.014 346.961 18.14 346.074 18.14C345.552 18.14 345.066 18.098 344.618 18.014C344.17 17.9393 343.741 17.7993 343.33 17.594V16.446C343.75 16.6513 344.203 16.8147 344.688 16.936C345.174 17.048 345.64 17.104 346.088 17.104C346.984 17.104 347.628 16.9313 348.02 16.586C348.422 16.2313 348.622 15.746 348.622 15.13C348.622 14.71 348.51 14.374 348.286 14.122C348.072 13.8607 347.754 13.6693 347.334 13.548C346.914 13.4267 346.41 13.366 345.822 13.366H344.856V12.316H345.836C346.387 12.316 346.844 12.2367 347.208 12.078C347.582 11.9193 347.862 11.7 348.048 11.42C348.244 11.1307 348.342 10.7993 348.342 10.426C348.342 9.94067 348.179 9.56733 347.852 9.306C347.526 9.03533 347.082 8.9 346.522 8.9C346.168 8.9 345.846 8.93733 345.556 9.012C345.267 9.07733 344.996 9.17533 344.744 9.306C344.502 9.42733 344.254 9.572 344.002 9.74L343.386 8.9C343.629 8.71333 343.904 8.54067 344.212 8.382C344.53 8.22333 344.88 8.09733 345.262 8.004C345.645 7.91067 346.06 7.864 346.508 7.864C347.554 7.864 348.328 8.09733 348.832 8.564C349.346 9.03067 349.602 9.62333 349.602 10.342ZM352.616 18L356.718 9.124H351.328V8.004H358.034V8.956L353.974 18H352.616ZM361.132 12.918C361.132 13.0673 361.122 13.2633 361.104 13.506C361.094 13.7487 361.085 13.9587 361.076 14.136H361.132C361.188 14.0613 361.272 13.954 361.384 13.814C361.496 13.674 361.608 13.534 361.72 13.394C361.841 13.2447 361.944 13.1233 362.028 13.03L364.422 10.496H365.864L362.826 13.702L366.074 18H364.59L361.986 14.5L361.132 15.242V18H359.914V7.36H361.132V12.918ZM370.416 8.004C371.247 8.004 371.942 8.08333 372.502 8.242C373.071 8.40067 373.496 8.662 373.776 9.026C374.065 9.39 374.21 9.87533 374.21 10.482C374.21 10.874 374.135 11.224 373.986 11.532C373.846 11.8307 373.631 12.0827 373.342 12.288C373.062 12.484 372.717 12.6193 372.306 12.694V12.764C372.726 12.8293 373.104 12.9507 373.44 13.128C373.785 13.3053 374.056 13.5573 374.252 13.884C374.448 14.2107 374.546 14.6353 374.546 15.158C374.546 15.7647 374.406 16.2827 374.126 16.712C373.846 17.132 373.445 17.454 372.922 17.678C372.409 17.8927 371.793 18 371.074 18H367.56V8.004H370.416ZM370.668 12.26C371.527 12.26 372.115 12.1247 372.432 11.854C372.749 11.574 372.908 11.1633 372.908 10.622C372.908 10.0713 372.712 9.67933 372.32 9.446C371.937 9.20333 371.321 9.082 370.472 9.082H368.82V12.26H370.668ZM368.82 13.31V16.936H370.836C371.723 16.936 372.339 16.7633 372.684 16.418C373.029 16.0727 373.202 15.62 373.202 15.06C373.202 14.7053 373.123 14.3973 372.964 14.136C372.815 13.8747 372.558 13.674 372.194 13.534C371.839 13.3847 371.354 13.31 370.738 13.31H368.82ZM379.158 18.14C378.224 18.14 377.478 17.818 376.918 17.174C376.358 16.5207 376.078 15.55 376.078 14.262C376.078 12.974 376.358 12.0033 376.918 11.35C377.487 10.6873 378.238 10.356 379.172 10.356C379.564 10.356 379.904 10.4073 380.194 10.51C380.483 10.6033 380.735 10.734 380.95 10.902C381.164 11.07 381.346 11.2567 381.496 11.462H381.58C381.57 11.3407 381.552 11.1633 381.524 10.93C381.505 10.6873 381.496 10.496 381.496 10.356V7.36H382.728V18H381.734L381.552 16.992H381.496C381.346 17.2067 381.164 17.4027 380.95 17.58C380.735 17.748 380.478 17.8833 380.18 17.986C379.89 18.0887 379.55 18.14 379.158 18.14ZM379.354 17.118C380.147 17.118 380.702 16.9033 381.02 16.474C381.346 16.0353 381.51 15.3773 381.51 14.5V14.276C381.51 13.3427 381.356 12.6287 381.048 12.134C380.74 11.63 380.17 11.378 379.34 11.378C378.677 11.378 378.178 11.644 377.842 12.176C377.515 12.6987 377.352 13.4033 377.352 14.29C377.352 15.186 377.515 15.8813 377.842 16.376C378.178 16.8707 378.682 17.118 379.354 17.118ZM388.611 10.356C388.751 10.356 388.9 10.3653 389.059 10.384C389.227 10.3933 389.372 10.412 389.493 10.44L389.339 11.574C389.218 11.546 389.082 11.5227 388.933 11.504C388.793 11.4853 388.658 11.476 388.527 11.476C388.238 11.476 387.962 11.5367 387.701 11.658C387.44 11.7793 387.206 11.952 387.001 12.176C386.796 12.3907 386.632 12.652 386.511 12.96C386.399 13.268 386.343 13.6133 386.343 13.996V18H385.111V10.496H386.119L386.259 11.868H386.315C386.474 11.588 386.665 11.336 386.889 11.112C387.113 10.8787 387.37 10.6967 387.659 10.566C387.948 10.426 388.266 10.356 388.611 10.356ZM394.352 11.448H392.462V18H391.23V11.448H389.914V10.874L391.23 10.454V10.02C391.23 9.376 391.323 8.85333 391.51 8.452C391.706 8.05067 391.986 7.75667 392.35 7.57C392.714 7.38333 393.153 7.29 393.666 7.29C393.965 7.29 394.235 7.318 394.478 7.374C394.73 7.42067 394.945 7.47667 395.122 7.542L394.8 8.508C394.651 8.46133 394.478 8.41467 394.282 8.368C394.086 8.32133 393.885 8.298 393.68 8.298C393.269 8.298 392.961 8.438 392.756 8.718C392.56 8.98867 392.462 9.418 392.462 10.006V10.496H394.352V11.448ZM401.979 18H395.049V17.048L400.313 9.124H395.217V8.004H401.839V8.956L396.575 16.88H401.979V18ZM410.928 8.004L407.358 18H406.098L402.528 8.004H403.844L406.098 14.416C406.201 14.6867 406.29 14.948 406.364 15.2C406.439 15.452 406.504 15.6947 406.56 15.928C406.626 16.152 406.682 16.376 406.728 16.6C406.775 16.376 406.826 16.1473 406.882 15.914C406.948 15.6807 407.018 15.438 407.092 15.186C407.176 14.934 407.265 14.668 407.358 14.388L409.598 8.004H410.928ZM418.385 18H411.455V17.048L416.719 9.124H411.623V8.004H418.245V8.956L412.981 16.88H418.385V18ZM421.357 10.482C421.357 10.6593 421.347 10.8413 421.329 11.028C421.319 11.2147 421.305 11.3827 421.287 11.532H421.371C421.529 11.2707 421.73 11.056 421.973 10.888C422.215 10.72 422.486 10.594 422.785 10.51C423.083 10.4167 423.391 10.37 423.709 10.37C424.315 10.37 424.819 10.468 425.221 10.664C425.631 10.8507 425.939 11.1447 426.145 11.546C426.35 11.9473 426.453 12.47 426.453 13.114V18H425.235V13.198C425.235 12.5913 425.099 12.1387 424.829 11.84C424.558 11.5413 424.133 11.392 423.555 11.392C422.995 11.392 422.556 11.4993 422.239 11.714C421.921 11.9193 421.693 12.2273 421.553 12.638C421.422 13.0393 421.357 13.534 421.357 14.122V18H420.125V7.36H421.357V10.482ZM435.317 15.732H433.861V18H432.671V15.732H427.883V14.682L432.587 7.948H433.861V14.626H435.317V15.732ZM432.671 11.476C432.671 11.2333 432.671 11.014 432.671 10.818C432.68 10.6127 432.69 10.4213 432.699 10.244C432.708 10.0667 432.713 9.89867 432.713 9.74C432.722 9.572 432.732 9.41333 432.741 9.264H432.685C432.61 9.44133 432.517 9.63267 432.405 9.838C432.293 10.0433 432.186 10.216 432.083 10.356L429.087 14.626H432.671V11.476ZM439.689 10.356C440.333 10.356 440.883 10.496 441.341 10.776C441.807 11.056 442.162 11.4527 442.405 11.966C442.657 12.47 442.783 13.0627 442.783 13.744V14.486H437.645C437.663 15.3353 437.878 15.984 438.289 16.432C438.709 16.8707 439.292 17.09 440.039 17.09C440.515 17.09 440.935 17.048 441.299 16.964C441.672 16.8707 442.055 16.74 442.447 16.572V17.65C442.064 17.818 441.686 17.9393 441.313 18.014C440.939 18.098 440.496 18.14 439.983 18.14C439.273 18.14 438.643 17.9953 438.093 17.706C437.551 17.4167 437.127 16.9873 436.819 16.418C436.52 15.8393 436.371 15.1347 436.371 14.304C436.371 13.4827 436.506 12.778 436.777 12.19C437.057 11.602 437.444 11.1493 437.939 10.832C438.443 10.5147 439.026 10.356 439.689 10.356ZM439.675 11.364C439.087 11.364 438.62 11.5553 438.275 11.938C437.939 12.3113 437.738 12.834 437.673 13.506H441.495C441.495 13.0767 441.429 12.7033 441.299 12.386C441.168 12.0687 440.967 11.8213 440.697 11.644C440.435 11.4573 440.095 11.364 439.675 11.364ZM445.911 12.918C445.911 13.0673 445.902 13.2633 445.883 13.506C445.874 13.7487 445.864 13.9587 445.855 14.136H445.911C445.967 14.0613 446.051 13.954 446.163 13.814C446.275 13.674 446.387 13.534 446.499 13.394C446.62 13.2447 446.723 13.1233 446.807 13.03L449.201 10.496H450.643L447.605 13.702L450.853 18H449.369L446.765 14.5L445.911 15.242V18H444.693V7.36H445.911V12.918ZM458.261 18H451.653V16.978L454.271 14.332C454.775 13.828 455.2 13.38 455.545 12.988C455.891 12.596 456.152 12.2133 456.329 11.84C456.507 11.4573 456.595 11.042 456.595 10.594C456.595 10.0433 456.432 9.628 456.105 9.348C455.779 9.05867 455.354 8.914 454.831 8.914C454.346 8.914 453.917 8.998 453.543 9.166C453.179 9.334 452.806 9.56733 452.423 9.866L451.765 9.04C452.027 8.816 452.311 8.61533 452.619 8.438C452.937 8.26067 453.277 8.12067 453.641 8.018C454.015 7.91533 454.411 7.864 454.831 7.864C455.457 7.864 455.993 7.97133 456.441 8.186C456.889 8.40067 457.235 8.70867 457.477 9.11C457.729 9.502 457.855 9.97333 457.855 10.524C457.855 10.916 457.795 11.2893 457.673 11.644C457.552 11.9893 457.379 12.33 457.155 12.666C456.931 13.002 456.661 13.3427 456.343 13.688C456.026 14.0333 455.676 14.3927 455.293 14.766L453.207 16.824V16.88H458.261V18ZM466.623 18L465.419 14.906H461.457L460.267 18H458.993L462.899 7.962H464.033L467.925 18H466.623ZM463.921 10.762C463.893 10.6873 463.846 10.552 463.781 10.356C463.716 10.16 463.65 9.95933 463.585 9.754C463.529 9.53933 463.482 9.376 463.445 9.264C463.398 9.45067 463.347 9.642 463.291 9.838C463.244 10.0247 463.193 10.1973 463.137 10.356C463.09 10.5147 463.048 10.65 463.011 10.762L461.877 13.786H465.041L463.921 10.762ZM474.963 15.326C474.963 15.9233 474.818 16.432 474.529 16.852C474.239 17.2627 473.824 17.58 473.283 17.804C472.751 18.028 472.121 18.14 471.393 18.14C471.019 18.14 470.66 18.1213 470.315 18.084C469.979 18.0467 469.671 17.9953 469.391 17.93C469.111 17.8553 468.863 17.7667 468.649 17.664V16.46C468.985 16.6093 469.4 16.7447 469.895 16.866C470.399 16.9873 470.917 17.048 471.449 17.048C471.943 17.048 472.359 16.9827 472.695 16.852C473.031 16.7213 473.283 16.5347 473.451 16.292C473.619 16.0493 473.703 15.7647 473.703 15.438C473.703 15.1113 473.633 14.836 473.493 14.612C473.353 14.388 473.11 14.1827 472.765 13.996C472.429 13.8 471.957 13.5947 471.351 13.38C470.921 13.2213 470.543 13.0533 470.217 12.876C469.899 12.6893 469.633 12.4793 469.419 12.246C469.204 12.0127 469.041 11.7467 468.929 11.448C468.826 11.1493 468.775 10.804 468.775 10.412C468.775 9.88 468.91 9.42733 469.181 9.054C469.451 8.67133 469.825 8.37733 470.301 8.172C470.786 7.96667 471.341 7.864 471.967 7.864C472.517 7.864 473.021 7.91533 473.479 8.018C473.936 8.12067 474.351 8.256 474.725 8.424L474.333 9.502C473.987 9.35267 473.609 9.22667 473.199 9.124C472.797 9.02133 472.377 8.97 471.939 8.97C471.519 8.97 471.169 9.03067 470.889 9.152C470.609 9.27333 470.399 9.446 470.259 9.67C470.119 9.88467 470.049 10.1367 470.049 10.426C470.049 10.762 470.119 11.042 470.259 11.266C470.399 11.49 470.627 11.6907 470.945 11.868C471.262 12.0453 471.691 12.2367 472.233 12.442C472.821 12.6567 473.315 12.89 473.717 13.142C474.127 13.3847 474.435 13.6787 474.641 14.024C474.855 14.3693 474.963 14.8033 474.963 15.326ZM481.316 12.722H484.774V17.622C484.233 17.7993 483.687 17.93 483.136 18.014C482.585 18.098 481.96 18.14 481.26 18.14C480.224 18.14 479.351 17.9347 478.642 17.524C477.933 17.104 477.391 16.5113 477.018 15.746C476.654 14.9713 476.472 14.0567 476.472 13.002C476.472 11.9567 476.677 11.0513 477.088 10.286C477.499 9.52067 478.087 8.928 478.852 8.508C479.627 8.07867 480.56 7.864 481.652 7.864C482.212 7.864 482.739 7.91533 483.234 8.018C483.738 8.12067 484.205 8.26533 484.634 8.452L484.158 9.544C483.803 9.38533 483.402 9.25 482.954 9.138C482.515 9.026 482.058 8.97 481.582 8.97C480.789 8.97 480.107 9.13333 479.538 9.46C478.969 9.78667 478.535 10.2533 478.236 10.86C477.937 11.4573 477.788 12.1713 477.788 13.002C477.788 13.7953 477.914 14.5 478.166 15.116C478.427 15.7227 478.833 16.1987 479.384 16.544C479.935 16.88 480.658 17.048 481.554 17.048C481.853 17.048 482.114 17.0387 482.338 17.02C482.571 16.992 482.781 16.9593 482.968 16.922C483.164 16.8847 483.346 16.8473 483.514 16.81V13.842H481.316V12.722ZM488.212 12.918C488.212 13.0673 488.202 13.2633 488.184 13.506C488.174 13.7487 488.165 13.9587 488.156 14.136H488.212C488.268 14.0613 488.352 13.954 488.464 13.814C488.576 13.674 488.688 13.534 488.8 13.394C488.921 13.2447 489.024 13.1233 489.108 13.03L491.502 10.496H492.944L489.906 13.702L493.154 18H491.67L489.066 14.5L488.212 15.242V18H486.994V7.36H488.212V12.918Z" fill="white"/>
</svg>
