<svg width="518" height="25" viewBox="0 0 518 25" fill="none" xmlns="http://www.w3.org/2000/svg">
<rect width="518" height="25" fill="#555555"/>
<rect x="220" width="298" height="25" fill="#9867F0"/>
<path d="M20.6369 8.004C21.4675 8.004 22.1629 8.08333 22.7229 8.242C23.2922 8.40067 23.7169 8.662 23.9969 9.026C24.2862 9.39 24.4309 9.87533 24.4309 10.482C24.4309 10.874 24.3562 11.224 24.2069 11.532C24.0669 11.8307 23.8522 12.0827 23.5629 12.288C23.2829 12.484 22.9375 12.6193 22.5269 12.694V12.764C22.9469 12.8293 23.3249 12.9507 23.6609 13.128C24.0062 13.3053 24.2769 13.5573 24.4729 13.884C24.6689 14.2107 24.7669 14.6353 24.7669 15.158C24.7669 15.7647 24.6269 16.2827 24.3469 16.712C24.0669 17.132 23.6655 17.454 23.1429 17.678C22.6295 17.8927 22.0135 18 21.2949 18H17.7809V8.004H20.6369ZM20.8889 12.26C21.7475 12.26 22.3355 12.1247 22.6529 11.854C22.9702 11.574 23.1289 11.1633 23.1289 10.622C23.1289 10.0713 22.9329 9.67933 22.5409 9.446C22.1582 9.20333 21.5422 9.082 20.6929 9.082H19.0409V12.26H20.8889ZM19.0409 13.31V16.936H21.0569C21.9435 16.936 22.5595 16.7633 22.9049 16.418C23.2502 16.0727 23.4229 15.62 23.4229 15.06C23.4229 14.7053 23.3435 14.3973 23.1849 14.136C23.0355 13.8747 22.7789 13.674 22.4149 13.534C22.0602 13.3847 21.5749 13.31 20.9589 13.31H19.0409ZM27.9503 10.496V18H26.7183V10.496H27.9503ZM27.3483 7.682C27.535 7.682 27.6983 7.74733 27.8383 7.878C27.9877 7.99933 28.0623 8.19533 28.0623 8.466C28.0623 8.72733 27.9877 8.92333 27.8383 9.054C27.6983 9.18467 27.535 9.25 27.3483 9.25C27.143 9.25 26.9703 9.18467 26.8303 9.054C26.6903 8.92333 26.6203 8.72733 26.6203 8.466C26.6203 8.19533 26.6903 7.99933 26.8303 7.878C26.9703 7.74733 27.143 7.682 27.3483 7.682ZM32.8337 17.132C33.0204 17.132 33.2117 17.118 33.4077 17.09C33.6037 17.0527 33.7624 17.0153 33.8837 16.978V17.916C33.753 17.9813 33.5664 18.0327 33.3237 18.07C33.081 18.1167 32.8477 18.14 32.6237 18.14C32.2317 18.14 31.8677 18.0747 31.5317 17.944C31.205 17.804 30.939 17.566 30.7337 17.23C30.5284 16.894 30.4257 16.4227 30.4257 15.816V11.448H29.3617V10.86L30.4397 10.37L30.9297 8.774H31.6577V10.496H33.8277V11.448H31.6577V15.788C31.6577 16.2453 31.765 16.586 31.9797 16.81C32.2037 17.0247 32.4884 17.132 32.8337 17.132ZM38.7183 18H37.4583V9.11H34.3363V8.004H41.8263V9.11H38.7183V18ZM48.7052 14.234C48.7052 14.8593 48.6212 15.4147 48.4532 15.9C48.2945 16.376 48.0612 16.782 47.7532 17.118C47.4545 17.454 47.0859 17.7107 46.6472 17.888C46.2179 18.056 45.7372 18.14 45.2052 18.14C44.7105 18.14 44.2532 18.056 43.8332 17.888C43.4132 17.7107 43.0492 17.454 42.7412 17.118C42.4332 16.782 42.1905 16.376 42.0132 15.9C41.8452 15.4147 41.7612 14.8593 41.7612 14.234C41.7612 13.4033 41.9012 12.7033 42.1812 12.134C42.4612 11.5553 42.8625 11.1167 43.3852 10.818C43.9079 10.51 44.5285 10.356 45.2472 10.356C45.9285 10.356 46.5259 10.51 47.0392 10.818C47.5619 11.1167 47.9679 11.5553 48.2572 12.134C48.5559 12.7033 48.7052 13.4033 48.7052 14.234ZM43.0352 14.234C43.0352 14.822 43.1099 15.3353 43.2592 15.774C43.4179 16.2033 43.6605 16.5347 43.9872 16.768C44.3139 17.0013 44.7292 17.118 45.2332 17.118C45.7372 17.118 46.1525 17.0013 46.4792 16.768C46.8059 16.5347 47.0439 16.2033 47.1932 15.774C47.3519 15.3353 47.4312 14.822 47.4312 14.234C47.4312 13.6367 47.3519 13.128 47.1932 12.708C47.0345 12.288 46.7919 11.966 46.4652 11.742C46.1479 11.5087 45.7325 11.392 45.2192 11.392C44.4539 11.392 43.8985 11.644 43.5532 12.148C43.2079 12.652 43.0352 13.3473 43.0352 14.234ZM54.1578 10.356C54.2978 10.356 54.4471 10.3653 54.6058 10.384C54.7738 10.3933 54.9184 10.412 55.0398 10.44L54.8858 11.574C54.7644 11.546 54.6291 11.5227 54.4798 11.504C54.3398 11.4853 54.2044 11.476 54.0738 11.476C53.7844 11.476 53.5091 11.5367 53.2478 11.658C52.9864 11.7793 52.7531 11.952 52.5478 12.176C52.3424 12.3907 52.1791 12.652 52.0578 12.96C51.9458 13.268 51.8898 13.6133 51.8898 13.996V18H50.6578V10.496H51.6658L51.8058 11.868H51.8618C52.0204 11.588 52.2118 11.336 52.4358 11.112C52.6598 10.8787 52.9164 10.6967 53.2058 10.566C53.4951 10.426 53.8124 10.356 54.1578 10.356ZM59.941 10.356C60.081 10.356 60.2303 10.3653 60.389 10.384C60.557 10.3933 60.7016 10.412 60.823 10.44L60.669 11.574C60.5476 11.546 60.4123 11.5227 60.263 11.504C60.123 11.4853 59.9876 11.476 59.857 11.476C59.5676 11.476 59.2923 11.5367 59.031 11.658C58.7696 11.7793 58.5363 11.952 58.331 12.176C58.1256 12.3907 57.9623 12.652 57.841 12.96C57.729 13.268 57.673 13.6133 57.673 13.996V18H56.441V10.496H57.449L57.589 11.868H57.645C57.8036 11.588 57.995 11.336 58.219 11.112C58.443 10.8787 58.6996 10.6967 58.989 10.566C59.2783 10.426 59.5956 10.356 59.941 10.356ZM64.8487 10.356C65.4927 10.356 66.0434 10.496 66.5007 10.776C66.9674 11.056 67.3221 11.4527 67.5647 11.966C67.8167 12.47 67.9427 13.0627 67.9427 13.744V14.486H62.8047C62.8234 15.3353 63.0381 15.984 63.4487 16.432C63.8687 16.8707 64.4521 17.09 65.1987 17.09C65.6747 17.09 66.0947 17.048 66.4587 16.964C66.8321 16.8707 67.2147 16.74 67.6067 16.572V17.65C67.2241 17.818 66.8461 17.9393 66.4727 18.014C66.0994 18.098 65.6561 18.14 65.1427 18.14C64.4334 18.14 63.8034 17.9953 63.2527 17.706C62.7114 17.4167 62.2867 16.9873 61.9787 16.418C61.6801 15.8393 61.5307 15.1347 61.5307 14.304C61.5307 13.4827 61.6661 12.778 61.9367 12.19C62.2167 11.602 62.6041 11.1493 63.0987 10.832C63.6027 10.5147 64.1861 10.356 64.8487 10.356ZM64.8347 11.364C64.2467 11.364 63.7801 11.5553 63.4347 11.938C63.0987 12.3113 62.8981 12.834 62.8327 13.506H66.6547C66.6547 13.0767 66.5894 12.7033 66.4587 12.386C66.3281 12.0687 66.1274 11.8213 65.8567 11.644C65.5954 11.4573 65.2547 11.364 64.8347 11.364ZM73.4651 10.356C74.3611 10.356 75.0378 10.5753 75.4951 11.014C75.9524 11.4433 76.1811 12.1433 76.1811 13.114V18H74.9631V13.198C74.9631 12.5913 74.8278 12.1387 74.5571 11.84C74.2864 11.5413 73.8618 11.392 73.2831 11.392C72.4524 11.392 71.8784 11.6253 71.5611 12.092C71.2438 12.5587 71.0851 13.2307 71.0851 14.108V18H69.8531V10.496H70.8471L71.0291 11.518H71.0991C71.2671 11.2567 71.4724 11.042 71.7151 10.874C71.9671 10.6967 72.2424 10.566 72.5411 10.482C72.8398 10.398 73.1478 10.356 73.4651 10.356ZM81.0134 17.132C81.2 17.132 81.3914 17.118 81.5874 17.09C81.7834 17.0527 81.942 17.0153 82.0634 16.978V17.916C81.9327 17.9813 81.746 18.0327 81.5034 18.07C81.2607 18.1167 81.0274 18.14 80.8034 18.14C80.4114 18.14 80.0474 18.0747 79.7114 17.944C79.3847 17.804 79.1187 17.566 78.9134 17.23C78.708 16.894 78.6054 16.4227 78.6054 15.816V11.448H77.5414V10.86L78.6194 10.37L79.1094 8.774H79.8374V10.496H82.0074V11.448H79.8374V15.788C79.8374 16.2453 79.9447 16.586 80.1594 16.81C80.3834 17.0247 80.668 17.132 81.0134 17.132ZM90.2267 8.004C91.0574 8.004 91.7527 8.08333 92.3127 8.242C92.882 8.40067 93.3067 8.662 93.5867 9.026C93.876 9.39 94.0207 9.87533 94.0207 10.482C94.0207 10.874 93.946 11.224 93.7967 11.532C93.6567 11.8307 93.442 12.0827 93.1527 12.288C92.8727 12.484 92.5274 12.6193 92.1167 12.694V12.764C92.5367 12.8293 92.9147 12.9507 93.2507 13.128C93.596 13.3053 93.8667 13.5573 94.0627 13.884C94.2587 14.2107 94.3567 14.6353 94.3567 15.158C94.3567 15.7647 94.2167 16.2827 93.9367 16.712C93.6567 17.132 93.2554 17.454 92.7327 17.678C92.2194 17.8927 91.6034 18 90.8847 18H87.3707V8.004H90.2267ZM90.4787 12.26C91.3374 12.26 91.9254 12.1247 92.2427 11.854C92.56 11.574 92.7187 11.1633 92.7187 10.622C92.7187 10.0713 92.5227 9.67933 92.1307 9.446C91.748 9.20333 91.132 9.082 90.2827 9.082H88.6307V12.26H90.4787ZM88.6307 13.31V16.936H90.6467C91.5334 16.936 92.1494 16.7633 92.4947 16.418C92.84 16.0727 93.0127 15.62 93.0127 15.06C93.0127 14.7053 92.9334 14.3973 92.7747 14.136C92.6254 13.8747 92.3687 13.674 92.0047 13.534C91.65 13.3847 91.1647 13.31 90.5487 13.31H88.6307ZM99.6402 18H98.3802V9.11H95.2582V8.004H102.748V9.11H99.6402V18ZM107.693 18H106.433V9.11H103.311V8.004H110.801V9.11H107.693V18ZM115.147 14.164C115.147 13.3987 115.217 12.652 115.357 11.924C115.506 11.196 115.735 10.5007 116.043 9.838C116.351 9.17533 116.738 8.564 117.205 8.004H118.367C117.938 8.58267 117.574 9.208 117.275 9.88C116.986 10.552 116.766 11.2473 116.617 11.966C116.468 12.6847 116.393 13.4127 116.393 14.15C116.393 14.8687 116.468 15.5827 116.617 16.292C116.766 17.0013 116.986 17.6827 117.275 18.336C117.564 18.9987 117.924 19.624 118.353 20.212H117.205C116.738 19.6613 116.351 19.0593 116.043 18.406C115.735 17.762 115.506 17.0807 115.357 16.362C115.217 15.6433 115.147 14.9107 115.147 14.164ZM126.943 18H125.683V9.11H122.561V8.004H130.051V9.11H126.943V18ZM134.316 8.004C135.147 8.004 135.828 8.11133 136.36 8.326C136.902 8.53133 137.303 8.844 137.564 9.264C137.826 9.684 137.956 10.2113 137.956 10.846C137.956 11.378 137.858 11.8213 137.662 12.176C137.466 12.5307 137.214 12.8153 136.906 13.03C136.608 13.2353 136.29 13.3987 135.954 13.52L138.698 18H137.228L134.806 13.87H132.818V18H131.558V8.004H134.316ZM134.246 9.096H132.818V12.806H134.316C134.858 12.806 135.301 12.736 135.646 12.596C135.992 12.4467 136.244 12.232 136.402 11.952C136.57 11.672 136.654 11.322 136.654 10.902C136.654 10.4633 136.566 10.1133 136.388 9.852C136.22 9.59067 135.959 9.39933 135.604 9.278C135.25 9.15667 134.797 9.096 134.246 9.096ZM147.057 18H145.629L142.983 13.66L140.295 18H138.965L142.283 12.792L139.175 8.004H140.575L143.025 11.924L145.489 8.004H146.819L143.725 12.764L147.057 18ZM155.271 18H154.011V9.11H150.889V8.004H158.379V9.11H155.271V18ZM162.644 8.004C163.475 8.004 164.156 8.11133 164.688 8.326C165.23 8.53133 165.631 8.844 165.892 9.264C166.154 9.684 166.284 10.2113 166.284 10.846C166.284 11.378 166.186 11.8213 165.99 12.176C165.794 12.5307 165.542 12.8153 165.234 13.03C164.936 13.2353 164.618 13.3987 164.282 13.52L167.026 18H165.556L163.134 13.87H161.146V18H159.886V8.004H162.644ZM162.574 9.096H161.146V12.806H162.644C163.186 12.806 163.629 12.736 163.974 12.596C164.32 12.4467 164.572 12.232 164.73 11.952C164.898 11.672 164.982 11.322 164.982 10.902C164.982 10.4633 164.894 10.1133 164.716 9.852C164.548 9.59067 164.287 9.39933 163.932 9.278C163.578 9.15667 163.125 9.096 162.574 9.096ZM172.879 8.97C172.347 8.97 171.867 9.06333 171.437 9.25C171.008 9.42733 170.644 9.69333 170.345 10.048C170.047 10.3933 169.818 10.818 169.659 11.322C169.501 11.8167 169.421 12.3767 169.421 13.002C169.421 13.8233 169.547 14.5373 169.799 15.144C170.061 15.7507 170.443 16.2173 170.947 16.544C171.461 16.8707 172.1 17.034 172.865 17.034C173.304 17.034 173.719 16.9967 174.111 16.922C174.503 16.8473 174.886 16.754 175.259 16.642V17.734C174.886 17.874 174.499 17.9767 174.097 18.042C173.705 18.1073 173.234 18.14 172.683 18.14C171.666 18.14 170.817 17.93 170.135 17.51C169.454 17.09 168.941 16.4927 168.595 15.718C168.259 14.9433 168.091 14.0333 168.091 12.988C168.091 12.232 168.194 11.5413 168.399 10.916C168.614 10.2907 168.922 9.74933 169.323 9.292C169.734 8.83467 170.238 8.48467 170.835 8.242C171.433 7.99 172.119 7.864 172.893 7.864C173.407 7.864 173.901 7.91533 174.377 8.018C174.853 8.12067 175.278 8.26533 175.651 8.452L175.147 9.516C174.839 9.376 174.494 9.25 174.111 9.138C173.738 9.026 173.327 8.97 172.879 8.97ZM187 18H180.392V16.978L183.01 14.332C183.514 13.828 183.938 13.38 184.284 12.988C184.629 12.596 184.89 12.2133 185.068 11.84C185.245 11.4573 185.334 11.042 185.334 10.594C185.334 10.0433 185.17 9.628 184.844 9.348C184.517 9.05867 184.092 8.914 183.57 8.914C183.084 8.914 182.655 8.998 182.282 9.166C181.918 9.334 181.544 9.56733 181.162 9.866L180.504 9.04C180.765 8.816 181.05 8.61533 181.358 8.438C181.675 8.26067 182.016 8.12067 182.38 8.018C182.753 7.91533 183.15 7.864 183.57 7.864C184.195 7.864 184.732 7.97133 185.18 8.186C185.628 8.40067 185.973 8.70867 186.216 9.11C186.468 9.502 186.594 9.97333 186.594 10.524C186.594 10.916 186.533 11.2893 186.412 11.644C186.29 11.9893 186.118 12.33 185.894 12.666C185.67 13.002 185.399 13.3427 185.082 13.688C184.764 14.0333 184.414 14.3927 184.032 14.766L181.946 16.824V16.88H187V18ZM195.053 12.988C195.053 13.8 194.993 14.5233 194.871 15.158C194.75 15.7927 194.554 16.334 194.283 16.782C194.022 17.2207 193.677 17.5567 193.247 17.79C192.827 18.0233 192.319 18.14 191.721 18.14C190.975 18.14 190.354 17.9347 189.859 17.524C189.374 17.1133 189.01 16.5253 188.767 15.76C188.534 14.9853 188.417 14.0613 188.417 12.988C188.417 11.9053 188.525 10.9813 188.739 10.216C188.963 9.45067 189.318 8.86733 189.803 8.466C190.289 8.05533 190.928 7.85 191.721 7.85C192.468 7.85 193.089 8.05533 193.583 8.466C194.078 8.86733 194.447 9.45067 194.689 10.216C194.932 10.9813 195.053 11.9053 195.053 12.988ZM189.649 12.988C189.649 13.9027 189.715 14.6633 189.845 15.27C189.985 15.8767 190.205 16.334 190.503 16.642C190.811 16.9407 191.217 17.09 191.721 17.09C192.225 17.09 192.627 16.9407 192.925 16.642C193.233 16.3433 193.457 15.8907 193.597 15.284C193.737 14.668 193.807 13.9027 193.807 12.988C193.807 12.0733 193.737 11.3173 193.597 10.72C193.457 10.1133 193.233 9.66067 192.925 9.362C192.627 9.054 192.225 8.9 191.721 8.9C191.217 8.9 190.811 9.054 190.503 9.362C190.205 9.66067 189.985 10.1133 189.845 10.72C189.715 11.3173 189.649 12.0733 189.649 12.988ZM203.02 14.164C203.02 14.9107 202.945 15.6433 202.796 16.362C202.656 17.0807 202.432 17.762 202.124 18.406C201.825 19.0593 201.438 19.6613 200.962 20.212H199.814C200.243 19.624 200.603 18.9987 200.892 18.336C201.181 17.6827 201.401 17.0013 201.55 16.292C201.699 15.5827 201.774 14.8687 201.774 14.15C201.774 13.4127 201.699 12.6847 201.55 11.966C201.401 11.2473 201.181 10.552 200.892 9.88C200.603 9.208 200.239 8.58267 199.8 8.004H200.962C201.438 8.564 201.825 9.17533 202.124 9.838C202.432 10.5007 202.656 11.196 202.796 11.924C202.945 12.652 203.02 13.3987 203.02 14.164Z" fill="white"/>
<path d="M232.24 18H230.98V9.11H227.858V8.004H235.348V9.11H232.24V18ZM244.863 12.904C244.863 14.024 244.653 14.962 244.233 15.718C243.822 16.474 243.23 17.0433 242.455 17.426C241.68 17.8087 240.742 18 239.641 18H236.855V8.004H239.935C240.943 8.004 241.816 8.19067 242.553 8.564C243.29 8.93733 243.86 9.488 244.261 10.216C244.662 10.9347 244.863 11.8307 244.863 12.904ZM243.533 12.946C243.533 12.0593 243.384 11.3313 243.085 10.762C242.796 10.1927 242.366 9.77267 241.797 9.502C241.237 9.222 240.556 9.082 239.753 9.082H238.115V16.922H239.473C240.826 16.922 241.839 16.5907 242.511 15.928C243.192 15.256 243.533 14.262 243.533 12.946ZM249.756 10.37C250.67 10.37 251.347 10.5707 251.786 10.972C252.224 11.3733 252.444 12.0127 252.444 12.89V18H251.548L251.31 16.936H251.254C251.039 17.2067 250.815 17.4353 250.582 17.622C250.358 17.7993 250.096 17.93 249.798 18.014C249.508 18.098 249.154 18.14 248.734 18.14C248.286 18.14 247.88 18.0607 247.516 17.902C247.161 17.7433 246.881 17.5007 246.676 17.174C246.47 16.838 246.368 16.418 246.368 15.914C246.368 15.1673 246.662 14.5933 247.25 14.192C247.838 13.7813 248.743 13.5573 249.966 13.52L251.24 13.478V13.03C251.24 12.4047 251.104 11.9707 250.834 11.728C250.563 11.4853 250.18 11.364 249.686 11.364C249.294 11.364 248.92 11.4247 248.566 11.546C248.211 11.658 247.88 11.7887 247.572 11.938L247.194 11.014C247.52 10.8367 247.908 10.6873 248.356 10.566C248.804 10.4353 249.27 10.37 249.756 10.37ZM250.12 14.374C249.186 14.4113 248.538 14.5607 248.174 14.822C247.819 15.0833 247.642 15.452 247.642 15.928C247.642 16.348 247.768 16.656 248.02 16.852C248.281 17.048 248.612 17.146 249.014 17.146C249.648 17.146 250.176 16.9733 250.596 16.628C251.016 16.2733 251.226 15.732 251.226 15.004V14.332L250.12 14.374ZM253.585 10.496H254.901L256.525 14.766C256.619 15.018 256.703 15.2607 256.777 15.494C256.861 15.7273 256.936 15.956 257.001 16.18C257.067 16.3947 257.118 16.6047 257.155 16.81H257.211C257.267 16.5767 257.356 16.2733 257.477 15.9C257.599 15.5173 257.725 15.1347 257.855 14.752L259.381 10.496H260.711L257.477 19.036C257.3 19.5027 257.09 19.9087 256.847 20.254C256.614 20.6087 256.325 20.8793 255.979 21.066C255.643 21.262 255.233 21.36 254.747 21.36C254.523 21.36 254.327 21.346 254.159 21.318C253.991 21.2993 253.847 21.276 253.725 21.248V20.268C253.828 20.2867 253.949 20.3053 254.089 20.324C254.239 20.3427 254.393 20.352 254.551 20.352C254.841 20.352 255.088 20.296 255.293 20.184C255.508 20.0813 255.69 19.9273 255.839 19.722C255.989 19.526 256.115 19.2927 256.217 19.022L256.609 18.028L253.585 10.496ZM265.468 10.356C266.392 10.356 267.134 10.678 267.694 11.322C268.263 11.966 268.548 12.9367 268.548 14.234C268.548 15.0833 268.417 15.802 268.156 16.39C267.904 16.9687 267.545 17.4073 267.078 17.706C266.621 17.9953 266.079 18.14 265.454 18.14C265.071 18.14 264.731 18.0887 264.432 17.986C264.133 17.8833 263.877 17.7527 263.662 17.594C263.457 17.426 263.279 17.244 263.13 17.048H263.046C263.065 17.2067 263.083 17.4073 263.102 17.65C263.121 17.8927 263.13 18.1027 263.13 18.28V21.36H261.898V10.496H262.906L263.074 11.518H263.13C263.279 11.3033 263.457 11.1073 263.662 10.93C263.877 10.7527 264.129 10.6127 264.418 10.51C264.717 10.4073 265.067 10.356 265.468 10.356ZM265.244 11.392C264.74 11.392 264.334 11.49 264.026 11.686C263.718 11.8727 263.494 12.1573 263.354 12.54C263.214 12.9227 263.139 13.408 263.13 13.996V14.234C263.13 14.85 263.195 15.3727 263.326 15.802C263.457 16.2313 263.676 16.558 263.984 16.782C264.301 17.006 264.731 17.118 265.272 17.118C265.729 17.118 266.103 16.992 266.392 16.74C266.691 16.488 266.91 16.1473 267.05 15.718C267.199 15.2793 267.274 14.78 267.274 14.22C267.274 13.3613 267.106 12.6753 266.77 12.162C266.443 11.6487 265.935 11.392 265.244 11.392ZM273.325 8.004C274.632 8.004 275.584 8.26067 276.181 8.774C276.779 9.28733 277.077 10.0107 277.077 10.944C277.077 11.3547 277.007 11.7513 276.867 12.134C276.737 12.5073 276.517 12.8433 276.209 13.142C275.901 13.4407 275.491 13.6787 274.977 13.856C274.464 14.024 273.834 14.108 273.087 14.108H271.939V18H270.679V8.004H273.325ZM273.213 9.082H271.939V13.03H272.947C273.582 13.03 274.109 12.9647 274.529 12.834C274.949 12.694 275.262 12.4747 275.467 12.176C275.673 11.8773 275.775 11.4853 275.775 11C275.775 10.356 275.57 9.87533 275.159 9.558C274.749 9.24067 274.1 9.082 273.213 9.082ZM285.078 18H278.47V16.978L281.088 14.332C281.592 13.828 282.017 13.38 282.362 12.988C282.707 12.596 282.969 12.2133 283.146 11.84C283.323 11.4573 283.412 11.042 283.412 10.594C283.412 10.0433 283.249 9.628 282.922 9.348C282.595 9.05867 282.171 8.914 281.648 8.914C281.163 8.914 280.733 8.998 280.36 9.166C279.996 9.334 279.623 9.56733 279.24 9.866L278.582 9.04C278.843 8.816 279.128 8.61533 279.436 8.438C279.753 8.26067 280.094 8.12067 280.458 8.018C280.831 7.91533 281.228 7.864 281.648 7.864C282.273 7.864 282.81 7.97133 283.258 8.186C283.706 8.40067 284.051 8.70867 284.294 9.11C284.546 9.502 284.672 9.97333 284.672 10.524C284.672 10.916 284.611 11.2893 284.49 11.644C284.369 11.9893 284.196 12.33 283.972 12.666C283.748 13.002 283.477 13.3427 283.16 13.688C282.843 14.0333 282.493 14.3927 282.11 14.766L280.024 16.824V16.88H285.078V18ZM288.428 18H287.168V8.004H292.754V9.11H288.428V12.652H292.488V13.758H288.428V18ZM302.491 10.356C303.341 10.356 303.975 10.5753 304.395 11.014C304.815 11.4433 305.025 12.1433 305.025 13.114V18H303.807V13.17C303.807 12.582 303.681 12.1387 303.429 11.84C303.187 11.5413 302.804 11.392 302.281 11.392C301.553 11.392 301.031 11.602 300.713 12.022C300.405 12.442 300.251 13.0533 300.251 13.856V18H299.033V13.17C299.033 12.778 298.977 12.4513 298.865 12.19C298.753 11.9193 298.585 11.7187 298.361 11.588C298.137 11.4573 297.848 11.392 297.493 11.392C296.989 11.392 296.593 11.4993 296.303 11.714C296.014 11.9193 295.804 12.2227 295.673 12.624C295.552 13.0253 295.491 13.52 295.491 14.108V18H294.259V10.496H295.253L295.435 11.518H295.505C295.664 11.2567 295.855 11.042 296.079 10.874C296.313 10.6967 296.569 10.566 296.849 10.482C297.129 10.398 297.419 10.356 297.717 10.356C298.296 10.356 298.777 10.4587 299.159 10.664C299.551 10.8693 299.836 11.1867 300.013 11.616H300.083C300.335 11.1867 300.676 10.8693 301.105 10.664C301.544 10.4587 302.006 10.356 302.491 10.356ZM314.301 18H312.873L310.227 13.66L307.539 18H306.209L309.527 12.792L306.419 8.004H307.819L310.269 11.924L312.733 8.004H314.063L310.969 12.764L314.301 18ZM316.778 9.95C316.778 10.2673 316.769 10.566 316.75 10.846C316.741 11.1167 316.727 11.3313 316.708 11.49H316.778C316.993 11.1727 317.287 10.9067 317.66 10.692C318.034 10.4773 318.514 10.37 319.102 10.37C320.036 10.37 320.782 10.6967 321.342 11.35C321.912 11.994 322.196 12.96 322.196 14.248C322.196 15.1067 322.066 15.8253 321.804 16.404C321.552 16.9827 321.193 17.4167 320.726 17.706C320.26 17.9953 319.718 18.14 319.102 18.14C318.514 18.14 318.034 18.0327 317.66 17.818C317.287 17.6033 316.993 17.3467 316.778 17.048H316.68L316.428 18H315.546V7.36H316.778V9.95ZM318.892 11.392C318.36 11.392 317.94 11.4947 317.632 11.7C317.324 11.896 317.105 12.204 316.974 12.624C316.844 13.0347 316.778 13.562 316.778 14.206V14.262C316.778 15.186 316.928 15.8953 317.226 16.39C317.534 16.8753 318.099 17.118 318.92 17.118C319.592 17.118 320.092 16.8707 320.418 16.376C320.754 15.8813 320.922 15.1673 320.922 14.234C320.922 13.2913 320.754 12.582 320.418 12.106C320.092 11.63 319.583 11.392 318.892 11.392ZM327.184 8.004C328.014 8.004 328.71 8.08333 329.27 8.242C329.839 8.40067 330.264 8.662 330.544 9.026C330.833 9.39 330.978 9.87533 330.978 10.482C330.978 10.874 330.903 11.224 330.754 11.532C330.614 11.8307 330.399 12.0827 330.11 12.288C329.83 12.484 329.484 12.6193 329.074 12.694V12.764C329.494 12.8293 329.872 12.9507 330.208 13.128C330.553 13.3053 330.824 13.5573 331.02 13.884C331.216 14.2107 331.314 14.6353 331.314 15.158C331.314 15.7647 331.174 16.2827 330.894 16.712C330.614 17.132 330.212 17.454 329.69 17.678C329.176 17.8927 328.56 18 327.842 18H324.328V8.004H327.184ZM327.436 12.26C328.294 12.26 328.882 12.1247 329.2 11.854C329.517 11.574 329.676 11.1633 329.676 10.622C329.676 10.0713 329.48 9.67933 329.088 9.446C328.705 9.20333 328.089 9.082 327.24 9.082H325.588V12.26H327.436ZM325.588 13.31V16.936H327.604C328.49 16.936 329.106 16.7633 329.452 16.418C329.797 16.0727 329.97 15.62 329.97 15.06C329.97 14.7053 329.89 14.3973 329.732 14.136C329.582 13.8747 329.326 13.674 328.962 13.534C328.607 13.3847 328.122 13.31 327.506 13.31H325.588ZM336.079 8.004C337.386 8.004 338.338 8.26067 338.935 8.774C339.533 9.28733 339.831 10.0107 339.831 10.944C339.831 11.3547 339.761 11.7513 339.621 12.134C339.491 12.5073 339.271 12.8433 338.963 13.142C338.655 13.4407 338.245 13.6787 337.731 13.856C337.218 14.024 336.588 14.108 335.841 14.108H334.693V18H333.433V8.004H336.079ZM335.967 9.082H334.693V13.03H335.701C336.336 13.03 336.863 12.9647 337.283 12.834C337.703 12.694 338.016 12.4747 338.221 12.176C338.427 11.8773 338.529 11.4853 338.529 11C338.529 10.356 338.324 9.87533 337.913 9.558C337.503 9.24067 336.854 9.082 335.967 9.082ZM342.456 18L346.558 9.124H341.168V8.004H347.874V8.956L343.814 18H342.456ZM348.577 10.496H349.893L351.517 14.766C351.611 15.018 351.695 15.2607 351.769 15.494C351.853 15.7273 351.928 15.956 351.993 16.18C352.059 16.3947 352.11 16.6047 352.147 16.81H352.203C352.259 16.5767 352.348 16.2733 352.469 15.9C352.591 15.5173 352.717 15.1347 352.847 14.752L354.373 10.496H355.703L352.469 19.036C352.292 19.5027 352.082 19.9087 351.839 20.254C351.606 20.6087 351.317 20.8793 350.971 21.066C350.635 21.262 350.225 21.36 349.739 21.36C349.515 21.36 349.319 21.346 349.151 21.318C348.983 21.2993 348.839 21.276 348.717 21.248V20.268C348.82 20.2867 348.941 20.3053 349.081 20.324C349.231 20.3427 349.385 20.352 349.543 20.352C349.833 20.352 350.08 20.296 350.285 20.184C350.5 20.0813 350.682 19.9273 350.831 19.722C350.981 19.526 351.107 19.2927 351.209 19.022L351.601 18.028L348.577 10.496ZM362.602 10.342C362.602 10.79 362.518 11.1773 362.35 11.504C362.182 11.8307 361.94 12.0967 361.622 12.302C361.314 12.5073 360.95 12.652 360.53 12.736V12.792C361.333 12.8853 361.93 13.1373 362.322 13.548C362.714 13.9587 362.91 14.4953 362.91 15.158C362.91 15.7367 362.775 16.2547 362.504 16.712C362.234 17.16 361.814 17.51 361.244 17.762C360.684 18.014 359.961 18.14 359.074 18.14C358.552 18.14 358.066 18.098 357.618 18.014C357.17 17.9393 356.741 17.7993 356.33 17.594V16.446C356.75 16.6513 357.203 16.8147 357.688 16.936C358.174 17.048 358.64 17.104 359.088 17.104C359.984 17.104 360.628 16.9313 361.02 16.586C361.422 16.2313 361.622 15.746 361.622 15.13C361.622 14.71 361.51 14.374 361.286 14.122C361.072 13.8607 360.754 13.6693 360.334 13.548C359.914 13.4267 359.41 13.366 358.822 13.366H357.856V12.316H358.836C359.387 12.316 359.844 12.2367 360.208 12.078C360.582 11.9193 360.862 11.7 361.048 11.42C361.244 11.1307 361.342 10.7993 361.342 10.426C361.342 9.94067 361.179 9.56733 360.852 9.306C360.526 9.03533 360.082 8.9 359.522 8.9C359.168 8.9 358.846 8.93733 358.556 9.012C358.267 9.07733 357.996 9.17533 357.744 9.306C357.502 9.42733 357.254 9.572 357.002 9.74L356.386 8.9C356.629 8.71333 356.904 8.54067 357.212 8.382C357.53 8.22333 357.88 8.09733 358.262 8.004C358.645 7.91067 359.06 7.864 359.508 7.864C360.554 7.864 361.328 8.09733 361.832 8.564C362.346 9.03067 362.602 9.62333 362.602 10.342ZM365.616 18L369.718 9.124H364.328V8.004H371.034V8.956L366.974 18H365.616ZM374.132 12.918C374.132 13.0673 374.122 13.2633 374.104 13.506C374.094 13.7487 374.085 13.9587 374.076 14.136H374.132C374.188 14.0613 374.272 13.954 374.384 13.814C374.496 13.674 374.608 13.534 374.72 13.394C374.841 13.2447 374.944 13.1233 375.028 13.03L377.422 10.496H378.864L375.826 13.702L379.074 18H377.59L374.986 14.5L374.132 15.242V18H372.914V7.36H374.132V12.918ZM383.416 8.004C384.247 8.004 384.942 8.08333 385.502 8.242C386.071 8.40067 386.496 8.662 386.776 9.026C387.065 9.39 387.21 9.87533 387.21 10.482C387.21 10.874 387.135 11.224 386.986 11.532C386.846 11.8307 386.631 12.0827 386.342 12.288C386.062 12.484 385.717 12.6193 385.306 12.694V12.764C385.726 12.8293 386.104 12.9507 386.44 13.128C386.785 13.3053 387.056 13.5573 387.252 13.884C387.448 14.2107 387.546 14.6353 387.546 15.158C387.546 15.7647 387.406 16.2827 387.126 16.712C386.846 17.132 386.445 17.454 385.922 17.678C385.409 17.8927 384.793 18 384.074 18H380.56V8.004H383.416ZM383.668 12.26C384.527 12.26 385.115 12.1247 385.432 11.854C385.749 11.574 385.908 11.1633 385.908 10.622C385.908 10.0713 385.712 9.67933 385.32 9.446C384.937 9.20333 384.321 9.082 383.472 9.082H381.82V12.26H383.668ZM381.82 13.31V16.936H383.836C384.723 16.936 385.339 16.7633 385.684 16.418C386.029 16.0727 386.202 15.62 386.202 15.06C386.202 14.7053 386.123 14.3973 385.964 14.136C385.815 13.8747 385.558 13.674 385.194 13.534C384.839 13.3847 384.354 13.31 383.738 13.31H381.82ZM392.158 18.14C391.224 18.14 390.478 17.818 389.918 17.174C389.358 16.5207 389.078 15.55 389.078 14.262C389.078 12.974 389.358 12.0033 389.918 11.35C390.487 10.6873 391.238 10.356 392.172 10.356C392.564 10.356 392.904 10.4073 393.194 10.51C393.483 10.6033 393.735 10.734 393.95 10.902C394.164 11.07 394.346 11.2567 394.496 11.462H394.58C394.57 11.3407 394.552 11.1633 394.524 10.93C394.505 10.6873 394.496 10.496 394.496 10.356V7.36H395.728V18H394.734L394.552 16.992H394.496C394.346 17.2067 394.164 17.4027 393.95 17.58C393.735 17.748 393.478 17.8833 393.18 17.986C392.89 18.0887 392.55 18.14 392.158 18.14ZM392.354 17.118C393.147 17.118 393.702 16.9033 394.02 16.474C394.346 16.0353 394.51 15.3773 394.51 14.5V14.276C394.51 13.3427 394.356 12.6287 394.048 12.134C393.74 11.63 393.17 11.378 392.34 11.378C391.677 11.378 391.178 11.644 390.842 12.176C390.515 12.6987 390.352 13.4033 390.352 14.29C390.352 15.186 390.515 15.8813 390.842 16.376C391.178 16.8707 391.682 17.118 392.354 17.118ZM401.611 10.356C401.751 10.356 401.9 10.3653 402.059 10.384C402.227 10.3933 402.372 10.412 402.493 10.44L402.339 11.574C402.218 11.546 402.082 11.5227 401.933 11.504C401.793 11.4853 401.658 11.476 401.527 11.476C401.238 11.476 400.962 11.5367 400.701 11.658C400.44 11.7793 400.206 11.952 400.001 12.176C399.796 12.3907 399.632 12.652 399.511 12.96C399.399 13.268 399.343 13.6133 399.343 13.996V18H398.111V10.496H399.119L399.259 11.868H399.315C399.474 11.588 399.665 11.336 399.889 11.112C400.113 10.8787 400.37 10.6967 400.659 10.566C400.948 10.426 401.266 10.356 401.611 10.356ZM407.352 11.448H405.462V18H404.23V11.448H402.914V10.874L404.23 10.454V10.02C404.23 9.376 404.323 8.85333 404.51 8.452C404.706 8.05067 404.986 7.75667 405.35 7.57C405.714 7.38333 406.153 7.29 406.666 7.29C406.965 7.29 407.235 7.318 407.478 7.374C407.73 7.42067 407.945 7.47667 408.122 7.542L407.8 8.508C407.651 8.46133 407.478 8.41467 407.282 8.368C407.086 8.32133 406.885 8.298 406.68 8.298C406.269 8.298 405.961 8.438 405.756 8.718C405.56 8.98867 405.462 9.418 405.462 10.006V10.496H407.352V11.448ZM414.979 18H408.049V17.048L413.313 9.124H408.217V8.004H414.839V8.956L409.575 16.88H414.979V18ZM423.928 8.004L420.358 18H419.098L415.528 8.004H416.844L419.098 14.416C419.201 14.6867 419.29 14.948 419.364 15.2C419.439 15.452 419.504 15.6947 419.56 15.928C419.626 16.152 419.682 16.376 419.728 16.6C419.775 16.376 419.826 16.1473 419.882 15.914C419.948 15.6807 420.018 15.438 420.092 15.186C420.176 14.934 420.265 14.668 420.358 14.388L422.598 8.004H423.928ZM431.385 18H424.455V17.048L429.719 9.124H424.623V8.004H431.245V8.956L425.981 16.88H431.385V18ZM434.357 10.482C434.357 10.6593 434.347 10.8413 434.329 11.028C434.319 11.2147 434.305 11.3827 434.287 11.532H434.371C434.529 11.2707 434.73 11.056 434.973 10.888C435.215 10.72 435.486 10.594 435.785 10.51C436.083 10.4167 436.391 10.37 436.709 10.37C437.315 10.37 437.819 10.468 438.221 10.664C438.631 10.8507 438.939 11.1447 439.145 11.546C439.35 11.9473 439.453 12.47 439.453 13.114V18H438.235V13.198C438.235 12.5913 438.099 12.1387 437.829 11.84C437.558 11.5413 437.133 11.392 436.555 11.392C435.995 11.392 435.556 11.4993 435.239 11.714C434.921 11.9193 434.693 12.2273 434.553 12.638C434.422 13.0393 434.357 13.534 434.357 14.122V18H433.125V7.36H434.357V10.482ZM448.317 15.732H446.861V18H445.671V15.732H440.883V14.682L445.587 7.948H446.861V14.626H448.317V15.732ZM445.671 11.476C445.671 11.2333 445.671 11.014 445.671 10.818C445.68 10.6127 445.69 10.4213 445.699 10.244C445.708 10.0667 445.713 9.89867 445.713 9.74C445.722 9.572 445.732 9.41333 445.741 9.264H445.685C445.61 9.44133 445.517 9.63267 445.405 9.838C445.293 10.0433 445.186 10.216 445.083 10.356L442.087 14.626H445.671V11.476ZM452.689 10.356C453.333 10.356 453.883 10.496 454.341 10.776C454.807 11.056 455.162 11.4527 455.405 11.966C455.657 12.47 455.783 13.0627 455.783 13.744V14.486H450.645C450.663 15.3353 450.878 15.984 451.289 16.432C451.709 16.8707 452.292 17.09 453.039 17.09C453.515 17.09 453.935 17.048 454.299 16.964C454.672 16.8707 455.055 16.74 455.447 16.572V17.65C455.064 17.818 454.686 17.9393 454.313 18.014C453.939 18.098 453.496 18.14 452.983 18.14C452.273 18.14 451.643 17.9953 451.093 17.706C450.551 17.4167 450.127 16.9873 449.819 16.418C449.52 15.8393 449.371 15.1347 449.371 14.304C449.371 13.4827 449.506 12.778 449.777 12.19C450.057 11.602 450.444 11.1493 450.939 10.832C451.443 10.5147 452.026 10.356 452.689 10.356ZM452.675 11.364C452.087 11.364 451.62 11.5553 451.275 11.938C450.939 12.3113 450.738 12.834 450.673 13.506H454.495C454.495 13.0767 454.429 12.7033 454.299 12.386C454.168 12.0687 453.967 11.8213 453.697 11.644C453.435 11.4573 453.095 11.364 452.675 11.364ZM458.911 12.918C458.911 13.0673 458.902 13.2633 458.883 13.506C458.874 13.7487 458.864 13.9587 458.855 14.136H458.911C458.967 14.0613 459.051 13.954 459.163 13.814C459.275 13.674 459.387 13.534 459.499 13.394C459.62 13.2447 459.723 13.1233 459.807 13.03L462.201 10.496H463.643L460.605 13.702L463.853 18H462.369L459.765 14.5L458.911 15.242V18H457.693V7.36H458.911V12.918ZM471.261 18H464.653V16.978L467.271 14.332C467.775 13.828 468.2 13.38 468.545 12.988C468.891 12.596 469.152 12.2133 469.329 11.84C469.507 11.4573 469.595 11.042 469.595 10.594C469.595 10.0433 469.432 9.628 469.105 9.348C468.779 9.05867 468.354 8.914 467.831 8.914C467.346 8.914 466.917 8.998 466.543 9.166C466.179 9.334 465.806 9.56733 465.423 9.866L464.765 9.04C465.027 8.816 465.311 8.61533 465.619 8.438C465.937 8.26067 466.277 8.12067 466.641 8.018C467.015 7.91533 467.411 7.864 467.831 7.864C468.457 7.864 468.993 7.97133 469.441 8.186C469.889 8.40067 470.235 8.70867 470.477 9.11C470.729 9.502 470.855 9.97333 470.855 10.524C470.855 10.916 470.795 11.2893 470.673 11.644C470.552 11.9893 470.379 12.33 470.155 12.666C469.931 13.002 469.661 13.3427 469.343 13.688C469.026 14.0333 468.676 14.3927 468.293 14.766L466.207 16.824V16.88H471.261V18ZM479.623 18L478.419 14.906H474.457L473.267 18H471.993L475.899 7.962H477.033L480.925 18H479.623ZM476.921 10.762C476.893 10.6873 476.846 10.552 476.781 10.356C476.716 10.16 476.65 9.95933 476.585 9.754C476.529 9.53933 476.482 9.376 476.445 9.264C476.398 9.45067 476.347 9.642 476.291 9.838C476.244 10.0247 476.193 10.1973 476.137 10.356C476.09 10.5147 476.048 10.65 476.011 10.762L474.877 13.786H478.041L476.921 10.762ZM487.963 15.326C487.963 15.9233 487.818 16.432 487.529 16.852C487.239 17.2627 486.824 17.58 486.283 17.804C485.751 18.028 485.121 18.14 484.393 18.14C484.019 18.14 483.66 18.1213 483.315 18.084C482.979 18.0467 482.671 17.9953 482.391 17.93C482.111 17.8553 481.863 17.7667 481.649 17.664V16.46C481.985 16.6093 482.4 16.7447 482.895 16.866C483.399 16.9873 483.917 17.048 484.449 17.048C484.943 17.048 485.359 16.9827 485.695 16.852C486.031 16.7213 486.283 16.5347 486.451 16.292C486.619 16.0493 486.703 15.7647 486.703 15.438C486.703 15.1113 486.633 14.836 486.493 14.612C486.353 14.388 486.11 14.1827 485.765 13.996C485.429 13.8 484.957 13.5947 484.351 13.38C483.921 13.2213 483.543 13.0533 483.217 12.876C482.899 12.6893 482.633 12.4793 482.419 12.246C482.204 12.0127 482.041 11.7467 481.929 11.448C481.826 11.1493 481.775 10.804 481.775 10.412C481.775 9.88 481.91 9.42733 482.181 9.054C482.451 8.67133 482.825 8.37733 483.301 8.172C483.786 7.96667 484.341 7.864 484.967 7.864C485.517 7.864 486.021 7.91533 486.479 8.018C486.936 8.12067 487.351 8.256 487.725 8.424L487.333 9.502C486.987 9.35267 486.609 9.22667 486.199 9.124C485.797 9.02133 485.377 8.97 484.939 8.97C484.519 8.97 484.169 9.03067 483.889 9.152C483.609 9.27333 483.399 9.446 483.259 9.67C483.119 9.88467 483.049 10.1367 483.049 10.426C483.049 10.762 483.119 11.042 483.259 11.266C483.399 11.49 483.627 11.6907 483.945 11.868C484.262 12.0453 484.691 12.2367 485.233 12.442C485.821 12.6567 486.315 12.89 486.717 13.142C487.127 13.3847 487.435 13.6787 487.641 14.024C487.855 14.3693 487.963 14.8033 487.963 15.326ZM494.316 12.722H497.774V17.622C497.233 17.7993 496.687 17.93 496.136 18.014C495.585 18.098 494.96 18.14 494.26 18.14C493.224 18.14 492.351 17.9347 491.642 17.524C490.933 17.104 490.391 16.5113 490.018 15.746C489.654 14.9713 489.472 14.0567 489.472 13.002C489.472 11.9567 489.677 11.0513 490.088 10.286C490.499 9.52067 491.087 8.928 491.852 8.508C492.627 8.07867 493.56 7.864 494.652 7.864C495.212 7.864 495.739 7.91533 496.234 8.018C496.738 8.12067 497.205 8.26533 497.634 8.452L497.158 9.544C496.803 9.38533 496.402 9.25 495.954 9.138C495.515 9.026 495.058 8.97 494.582 8.97C493.789 8.97 493.107 9.13333 492.538 9.46C491.969 9.78667 491.535 10.2533 491.236 10.86C490.937 11.4573 490.788 12.1713 490.788 13.002C490.788 13.7953 490.914 14.5 491.166 15.116C491.427 15.7227 491.833 16.1987 492.384 16.544C492.935 16.88 493.658 17.048 494.554 17.048C494.853 17.048 495.114 17.0387 495.338 17.02C495.571 16.992 495.781 16.9593 495.968 16.922C496.164 16.8847 496.346 16.8473 496.514 16.81V13.842H494.316V12.722ZM501.212 12.918C501.212 13.0673 501.202 13.2633 501.184 13.506C501.174 13.7487 501.165 13.9587 501.156 14.136H501.212C501.268 14.0613 501.352 13.954 501.464 13.814C501.576 13.674 501.688 13.534 501.8 13.394C501.921 13.2447 502.024 13.1233 502.108 13.03L504.502 10.496H505.944L502.906 13.702L506.154 18H504.67L502.066 14.5L501.212 15.242V18H499.994V7.36H501.212V12.918Z" fill="white"/>
</svg>
