<svg width="405" height="25" viewBox="0 0 405 25" fill="none" xmlns="http://www.w3.org/2000/svg">
<rect width="405" height="25" fill="#555555"/>
<rect x="105" width="300" height="25" fill="#FC6A6A"/>
<path d="M21.575 8.004C22.4057 8.004 23.087 8.11133 23.619 8.326C24.1603 8.53133 24.5617 8.844 24.823 9.264C25.0843 9.684 25.215 10.2113 25.215 10.846C25.215 11.378 25.117 11.8213 24.921 12.176C24.725 12.5307 24.473 12.8153 24.165 13.03C23.8663 13.2353 23.549 13.3987 23.213 13.52L25.957 18H24.487L22.065 13.87H20.077V18H18.817V8.004H21.575ZM21.505 9.096H20.077V12.806H21.575C22.1163 12.806 22.5597 12.736 22.905 12.596C23.2503 12.4467 23.5023 12.232 23.661 11.952C23.829 11.672 23.913 11.322 23.913 10.902C23.913 10.4633 23.8243 10.1133 23.647 9.852C23.479 9.59067 23.2177 9.39933 22.863 9.278C22.5083 9.15667 22.0557 9.096 21.505 9.096ZM28.59 10.496V18H27.358V10.496H28.59ZM27.988 7.682C28.1746 7.682 28.338 7.74733 28.478 7.878C28.6273 7.99933 28.702 8.19533 28.702 8.466C28.702 8.72733 28.6273 8.92333 28.478 9.054C28.338 9.18467 28.1746 9.25 27.988 9.25C27.7826 9.25 27.61 9.18467 27.47 9.054C27.33 8.92333 27.26 8.72733 27.26 8.466C27.26 8.19533 27.33 7.99933 27.47 7.878C27.61 7.74733 27.7826 7.682 27.988 7.682ZM34.5373 10.356C35.4613 10.356 36.2033 10.678 36.7633 11.322C37.3327 11.966 37.6173 12.9367 37.6173 14.234C37.6173 15.0833 37.4867 15.802 37.2253 16.39C36.9733 16.9687 36.614 17.4073 36.1473 17.706C35.69 17.9953 35.1487 18.14 34.5233 18.14C34.1407 18.14 33.8 18.0887 33.5013 17.986C33.2027 17.8833 32.946 17.7527 32.7313 17.594C32.526 17.426 32.3487 17.244 32.1993 17.048H32.1153C32.134 17.2067 32.1527 17.4073 32.1713 17.65C32.19 17.8927 32.1993 18.1027 32.1993 18.28V21.36H30.9673V10.496H31.9753L32.1433 11.518H32.1993C32.3487 11.3033 32.526 11.1073 32.7313 10.93C32.946 10.7527 33.198 10.6127 33.4873 10.51C33.786 10.4073 34.136 10.356 34.5373 10.356ZM34.3133 11.392C33.8093 11.392 33.4033 11.49 33.0953 11.686C32.7873 11.8727 32.5633 12.1573 32.4233 12.54C32.2833 12.9227 32.2087 13.408 32.1993 13.996V14.234C32.1993 14.85 32.2647 15.3727 32.3953 15.802C32.526 16.2313 32.7453 16.558 33.0533 16.782C33.3707 17.006 33.8 17.118 34.3413 17.118C34.7987 17.118 35.172 16.992 35.4613 16.74C35.76 16.488 35.9793 16.1473 36.1193 15.718C36.2687 15.2793 36.3433 14.78 36.3433 14.22C36.3433 13.3613 36.1753 12.6753 35.8393 12.162C35.5127 11.6487 35.004 11.392 34.3133 11.392ZM43.1506 10.356C44.0746 10.356 44.8166 10.678 45.3766 11.322C45.946 11.966 46.2306 12.9367 46.2306 14.234C46.2306 15.0833 46.1 15.802 45.8386 16.39C45.5866 16.9687 45.2273 17.4073 44.7606 17.706C44.3033 17.9953 43.762 18.14 43.1366 18.14C42.754 18.14 42.4133 18.0887 42.1146 17.986C41.816 17.8833 41.5593 17.7527 41.3446 17.594C41.1393 17.426 40.962 17.244 40.8126 17.048H40.7286C40.7473 17.2067 40.766 17.4073 40.7846 17.65C40.8033 17.8927 40.8126 18.1027 40.8126 18.28V21.36H39.5806V10.496H40.5886L40.7566 11.518H40.8126C40.962 11.3033 41.1393 11.1073 41.3446 10.93C41.5593 10.7527 41.8113 10.6127 42.1006 10.51C42.3993 10.4073 42.7493 10.356 43.1506 10.356ZM42.9266 11.392C42.4226 11.392 42.0166 11.49 41.7086 11.686C41.4006 11.8727 41.1766 12.1573 41.0366 12.54C40.8966 12.9227 40.822 13.408 40.8126 13.996V14.234C40.8126 14.85 40.878 15.3727 41.0086 15.802C41.1393 16.2313 41.3586 16.558 41.6666 16.782C41.984 17.006 42.4133 17.118 42.9546 17.118C43.412 17.118 43.7853 16.992 44.0746 16.74C44.3733 16.488 44.5926 16.1473 44.7326 15.718C44.882 15.2793 44.9566 14.78 44.9566 14.22C44.9566 13.3613 44.7886 12.6753 44.4526 12.162C44.126 11.6487 43.6173 11.392 42.9266 11.392ZM49.4259 18H48.1939V7.36H49.4259V18ZM54.7013 10.356C55.3453 10.356 55.8959 10.496 56.3533 10.776C56.8199 11.056 57.1746 11.4527 57.4173 11.966C57.6693 12.47 57.7953 13.0627 57.7953 13.744V14.486H52.6573C52.6759 15.3353 52.8906 15.984 53.3013 16.432C53.7213 16.8707 54.3046 17.09 55.0513 17.09C55.5273 17.09 55.9473 17.048 56.3113 16.964C56.6846 16.8707 57.0673 16.74 57.4593 16.572V17.65C57.0766 17.818 56.6986 17.9393 56.3253 18.014C55.9519 18.098 55.5086 18.14 54.9953 18.14C54.2859 18.14 53.6559 17.9953 53.1053 17.706C52.5639 17.4167 52.1393 16.9873 51.8313 16.418C51.5326 15.8393 51.3833 15.1347 51.3833 14.304C51.3833 13.4827 51.5186 12.778 51.7893 12.19C52.0693 11.602 52.4566 11.1493 52.9513 10.832C53.4553 10.5147 54.0386 10.356 54.7013 10.356ZM54.6873 11.364C54.0993 11.364 53.6326 11.5553 53.2873 11.938C52.9513 12.3113 52.7506 12.834 52.6853 13.506H56.5073C56.5073 13.0767 56.4419 12.7033 56.3113 12.386C56.1806 12.0687 55.9799 11.8213 55.7093 11.644C55.4479 11.4573 55.1073 11.364 54.6873 11.364ZM70.3003 18H68.8723L66.2263 13.66L63.5383 18H62.2083L65.5263 12.792L62.4183 8.004H63.8183L66.2683 11.924L68.7323 8.004H70.0623L66.9683 12.764L70.3003 18ZM74.4715 8.004C75.3021 8.004 75.9835 8.11133 76.5155 8.326C77.0568 8.53133 77.4581 8.844 77.7195 9.264C77.9808 9.684 78.1115 10.2113 78.1115 10.846C78.1115 11.378 78.0135 11.8213 77.8175 12.176C77.6215 12.5307 77.3695 12.8153 77.0615 13.03C76.7628 13.2353 76.4455 13.3987 76.1095 13.52L78.8535 18H77.3835L74.9615 13.87H72.9735V18H71.7135V8.004H74.4715ZM74.4015 9.096H72.9735V12.806H74.4715C75.0128 12.806 75.4561 12.736 75.8015 12.596C76.1468 12.4467 76.3988 12.232 76.5575 11.952C76.7255 11.672 76.8095 11.322 76.8095 10.902C76.8095 10.4633 76.7208 10.1133 76.5435 9.852C76.3755 9.59067 76.1141 9.39933 75.7595 9.278C75.4048 9.15667 74.9521 9.096 74.4015 9.096ZM83.0685 8.004C84.3751 8.004 85.3271 8.26067 85.9245 8.774C86.5218 9.28733 86.8205 10.0107 86.8205 10.944C86.8205 11.3547 86.7505 11.7513 86.6105 12.134C86.4798 12.5073 86.2605 12.8433 85.9525 13.142C85.6445 13.4407 85.2338 13.6787 84.7205 13.856C84.2071 14.024 83.5771 14.108 82.8305 14.108H81.6825V18H80.4225V8.004H83.0685ZM82.9565 9.082H81.6825V13.03H82.6905C83.3251 13.03 83.8525 12.9647 84.2725 12.834C84.6925 12.694 85.0051 12.4747 85.2105 12.176C85.4158 11.8773 85.5185 11.4853 85.5185 11C85.5185 10.356 85.3131 9.87533 84.9025 9.558C84.4918 9.24067 83.8431 9.082 82.9565 9.082Z" fill="white"/>
<path d="M118.959 10.356C119.099 10.356 119.248 10.3653 119.407 10.384C119.575 10.3933 119.719 10.412 119.841 10.44L119.687 11.574C119.565 11.546 119.43 11.5227 119.281 11.504C119.141 11.4853 119.005 11.476 118.875 11.476C118.585 11.476 118.31 11.5367 118.049 11.658C117.787 11.7793 117.554 11.952 117.349 12.176C117.143 12.3907 116.98 12.652 116.859 12.96C116.747 13.268 116.691 13.6133 116.691 13.996V18H115.459V10.496H116.467L116.607 11.868H116.663C116.821 11.588 117.013 11.336 117.237 11.112C117.461 10.8787 117.717 10.6967 118.007 10.566C118.296 10.426 118.613 10.356 118.959 10.356ZM125.82 18L122.53 9.236H122.474C122.492 9.42267 122.506 9.66067 122.516 9.95C122.534 10.2393 122.548 10.5567 122.558 10.902C122.567 11.238 122.572 11.5833 122.572 11.938V18H121.41V8.004H123.272L126.352 16.194H126.408L129.544 8.004H131.392V18H130.146V11.854C130.146 11.5273 130.15 11.2053 130.16 10.888C130.169 10.5613 130.183 10.258 130.202 9.978C130.22 9.68867 130.234 9.446 130.244 9.25H130.188L126.856 18H125.82ZM135.595 18L132.753 10.496H134.069L135.665 14.92C135.74 15.1253 135.819 15.354 135.903 15.606C135.987 15.858 136.062 16.1007 136.127 16.334C136.192 16.558 136.239 16.7493 136.267 16.908H136.323C136.36 16.7493 136.412 16.5533 136.477 16.32C136.552 16.0867 136.631 15.844 136.715 15.592C136.808 15.34 136.888 15.116 136.953 14.92L138.549 10.496H139.865L137.009 18H135.595ZM140.17 21.36C139.937 21.36 139.732 21.3413 139.554 21.304C139.377 21.276 139.223 21.2387 139.092 21.192V20.198C139.232 20.2353 139.377 20.268 139.526 20.296C139.676 20.324 139.839 20.338 140.016 20.338C140.315 20.338 140.562 20.254 140.758 20.086C140.954 19.9273 141.052 19.6193 141.052 19.162V10.496H142.284V19.12C142.284 19.5867 142.21 19.988 142.06 20.324C141.911 20.66 141.682 20.9167 141.374 21.094C141.066 21.2713 140.665 21.36 140.17 21.36ZM140.954 8.466C140.954 8.19533 141.024 7.99933 141.164 7.878C141.304 7.74733 141.477 7.682 141.682 7.682C141.869 7.682 142.032 7.74733 142.172 7.878C142.322 7.99933 142.396 8.19533 142.396 8.466C142.396 8.72733 142.322 8.92333 142.172 9.054C142.032 9.18467 141.869 9.25 141.682 9.25C141.477 9.25 141.304 9.18467 141.164 9.054C141.024 8.92333 140.954 8.72733 140.954 8.466ZM156.31 8.004L153.65 18H152.376L150.43 11.448C150.374 11.252 150.318 11.0513 150.262 10.846C150.206 10.6407 150.154 10.4447 150.108 10.258C150.061 10.0713 150.019 9.91267 149.982 9.782C149.954 9.642 149.935 9.53933 149.926 9.474C149.916 9.53933 149.898 9.642 149.87 9.782C149.851 9.91267 149.818 10.0713 149.772 10.258C149.725 10.4447 149.674 10.6453 149.618 10.86C149.571 11.0653 149.515 11.2753 149.45 11.49L147.56 18H146.286L143.64 8.004H144.956L146.51 14.108C146.566 14.3227 146.617 14.5373 146.664 14.752C146.71 14.9573 146.752 15.1627 146.79 15.368C146.836 15.564 146.874 15.7553 146.902 15.942C146.93 16.1287 146.958 16.3107 146.986 16.488C147.014 16.3013 147.042 16.11 147.07 15.914C147.107 15.718 147.149 15.5173 147.196 15.312C147.242 15.0973 147.294 14.8827 147.35 14.668C147.406 14.4533 147.462 14.2433 147.518 14.038L149.282 8.004H150.584L152.418 14.08C152.483 14.2947 152.544 14.514 152.6 14.738C152.656 14.9527 152.707 15.1627 152.754 15.368C152.8 15.5733 152.838 15.774 152.866 15.97C152.903 16.1567 152.936 16.3293 152.964 16.488C152.992 16.2547 153.029 16.012 153.076 15.76C153.122 15.4987 153.178 15.228 153.244 14.948C153.309 14.668 153.379 14.3833 153.454 14.094L154.994 8.004H156.31ZM163.515 15.326C163.515 15.9233 163.371 16.432 163.081 16.852C162.792 17.2627 162.377 17.58 161.835 17.804C161.303 18.028 160.673 18.14 159.945 18.14C159.572 18.14 159.213 18.1213 158.867 18.084C158.531 18.0467 158.223 17.9953 157.943 17.93C157.663 17.8553 157.416 17.7667 157.201 17.664V16.46C157.537 16.6093 157.953 16.7447 158.447 16.866C158.951 16.9873 159.469 17.048 160.001 17.048C160.496 17.048 160.911 16.9827 161.247 16.852C161.583 16.7213 161.835 16.5347 162.003 16.292C162.171 16.0493 162.255 15.7647 162.255 15.438C162.255 15.1113 162.185 14.836 162.045 14.612C161.905 14.388 161.663 14.1827 161.317 13.996C160.981 13.8 160.51 13.5947 159.903 13.38C159.474 13.2213 159.096 13.0533 158.769 12.876C158.452 12.6893 158.186 12.4793 157.971 12.246C157.757 12.0127 157.593 11.7467 157.481 11.448C157.379 11.1493 157.327 10.804 157.327 10.412C157.327 9.88 157.463 9.42733 157.733 9.054C158.004 8.67133 158.377 8.37733 158.853 8.172C159.339 7.96667 159.894 7.864 160.519 7.864C161.07 7.864 161.574 7.91533 162.031 8.018C162.489 8.12067 162.904 8.256 163.277 8.424L162.885 9.502C162.54 9.35267 162.162 9.22667 161.751 9.124C161.35 9.02133 160.93 8.97 160.491 8.97C160.071 8.97 159.721 9.03067 159.441 9.152C159.161 9.27333 158.951 9.446 158.811 9.67C158.671 9.88467 158.601 10.1367 158.601 10.426C158.601 10.762 158.671 11.042 158.811 11.266C158.951 11.49 159.18 11.6907 159.497 11.868C159.815 12.0453 160.244 12.2367 160.785 12.442C161.373 12.6567 161.868 12.89 162.269 13.142C162.68 13.3847 162.988 13.6787 163.193 14.024C163.408 14.3693 163.515 14.8033 163.515 15.326ZM168.693 18H167.433V9.11H164.311V8.004H171.801V9.11H168.693V18ZM180.098 18H178.67L176.024 13.66L173.336 18H172.006L175.324 12.792L172.216 8.004H173.616L176.066 11.924L178.53 8.004H179.86L176.766 12.764L180.098 18ZM186.187 13.758C186.131 13.562 186.075 13.3707 186.019 13.184C185.963 12.988 185.912 12.806 185.865 12.638C185.828 12.4607 185.791 12.2973 185.753 12.148C185.716 11.9987 185.688 11.8727 185.669 11.77H185.613C185.595 11.8727 185.567 11.9987 185.529 12.148C185.501 12.2973 185.464 12.4607 185.417 12.638C185.38 12.8153 185.333 13.002 185.277 13.198C185.231 13.3847 185.175 13.576 185.109 13.772L183.765 17.986H182.365L180.307 10.482H181.581L182.617 14.486C182.692 14.7567 182.762 15.032 182.827 15.312C182.893 15.5827 182.949 15.844 182.995 16.096C183.051 16.3387 183.089 16.5487 183.107 16.726H183.163C183.191 16.614 183.224 16.474 183.261 16.306C183.299 16.138 183.336 15.9607 183.373 15.774C183.42 15.5873 183.467 15.4007 183.513 15.214C183.569 15.0273 183.621 14.8593 183.667 14.71L184.997 10.482H186.341L187.629 14.71C187.695 14.9247 187.76 15.1533 187.825 15.396C187.9 15.6387 187.965 15.8767 188.021 16.11C188.077 16.334 188.115 16.5347 188.133 16.712H188.189C188.208 16.5533 188.241 16.3573 188.287 16.124C188.343 15.8813 188.404 15.62 188.469 15.34C188.544 15.0507 188.619 14.766 188.693 14.486L189.743 10.482H191.003L188.917 17.986H187.475L186.187 13.758ZM198.187 15.326C198.187 15.9233 198.043 16.432 197.753 16.852C197.464 17.2627 197.049 17.58 196.507 17.804C195.975 18.028 195.345 18.14 194.617 18.14C194.244 18.14 193.885 18.1213 193.539 18.084C193.203 18.0467 192.895 17.9953 192.615 17.93C192.335 17.8553 192.088 17.7667 191.873 17.664V16.46C192.209 16.6093 192.625 16.7447 193.119 16.866C193.623 16.9873 194.141 17.048 194.673 17.048C195.168 17.048 195.583 16.9827 195.919 16.852C196.255 16.7213 196.507 16.5347 196.675 16.292C196.843 16.0493 196.927 15.7647 196.927 15.438C196.927 15.1113 196.857 14.836 196.717 14.612C196.577 14.388 196.335 14.1827 195.989 13.996C195.653 13.8 195.182 13.5947 194.575 13.38C194.146 13.2213 193.768 13.0533 193.441 12.876C193.124 12.6893 192.858 12.4793 192.643 12.246C192.429 12.0127 192.265 11.7467 192.153 11.448C192.051 11.1493 191.999 10.804 191.999 10.412C191.999 9.88 192.135 9.42733 192.405 9.054C192.676 8.67133 193.049 8.37733 193.525 8.172C194.011 7.96667 194.566 7.864 195.191 7.864C195.742 7.864 196.246 7.91533 196.703 8.018C197.161 8.12067 197.576 8.256 197.949 8.424L197.557 9.502C197.212 9.35267 196.834 9.22667 196.423 9.124C196.022 9.02133 195.602 8.97 195.163 8.97C194.743 8.97 194.393 9.03067 194.113 9.152C193.833 9.27333 193.623 9.446 193.483 9.67C193.343 9.88467 193.273 10.1367 193.273 10.426C193.273 10.762 193.343 11.042 193.483 11.266C193.623 11.49 193.852 11.6907 194.169 11.868C194.487 12.0453 194.916 12.2367 195.457 12.442C196.045 12.6567 196.54 12.89 196.941 13.142C197.352 13.3847 197.66 13.6787 197.865 14.024C198.08 14.3693 198.187 14.8033 198.187 15.326ZM203.491 11.448H201.601V18H200.369V11.448H199.053V10.874L200.369 10.454V10.02C200.369 9.376 200.462 8.85333 200.649 8.452C200.845 8.05067 201.125 7.75667 201.489 7.57C201.853 7.38333 202.291 7.29 202.805 7.29C203.103 7.29 203.374 7.318 203.617 7.374C203.869 7.42067 204.083 7.47667 204.261 7.542L203.939 8.508C203.789 8.46133 203.617 8.41467 203.421 8.368C203.225 8.32133 203.024 8.298 202.819 8.298C202.408 8.298 202.1 8.438 201.895 8.718C201.699 8.98867 201.601 9.418 201.601 10.006V10.496H203.491V11.448ZM209.689 13.758C209.633 13.562 209.577 13.3707 209.521 13.184C209.465 12.988 209.414 12.806 209.367 12.638C209.33 12.4607 209.293 12.2973 209.255 12.148C209.218 11.9987 209.19 11.8727 209.171 11.77H209.115C209.097 11.8727 209.069 11.9987 209.031 12.148C209.003 12.2973 208.966 12.4607 208.919 12.638C208.882 12.8153 208.835 13.002 208.779 13.198C208.733 13.3847 208.677 13.576 208.611 13.772L207.267 17.986H205.867L203.809 10.482H205.083L206.119 14.486C206.194 14.7567 206.264 15.032 206.329 15.312C206.395 15.5827 206.451 15.844 206.497 16.096C206.553 16.3387 206.591 16.5487 206.609 16.726H206.665C206.693 16.614 206.726 16.474 206.763 16.306C206.801 16.138 206.838 15.9607 206.875 15.774C206.922 15.5873 206.969 15.4007 207.015 15.214C207.071 15.0273 207.123 14.8593 207.169 14.71L208.499 10.482H209.843L211.131 14.71C211.197 14.9247 211.262 15.1533 211.327 15.396C211.402 15.6387 211.467 15.8767 211.523 16.11C211.579 16.334 211.617 16.5347 211.635 16.712H211.691C211.71 16.5533 211.743 16.3573 211.789 16.124C211.845 15.8813 211.906 15.62 211.971 15.34C212.046 15.0507 212.121 14.766 212.195 14.486L213.245 10.482H214.505L212.419 17.986H210.977L209.689 13.758ZM218.861 18.14C218.198 18.14 217.606 18.0047 217.083 17.734C216.57 17.4633 216.164 17.0433 215.865 16.474C215.576 15.9047 215.431 15.1767 215.431 14.29C215.431 13.366 215.585 12.6147 215.893 12.036C216.201 11.4573 216.616 11.0327 217.139 10.762C217.671 10.4913 218.273 10.356 218.945 10.356C219.328 10.356 219.696 10.398 220.051 10.482C220.406 10.5567 220.695 10.65 220.919 10.762L220.541 11.784C220.317 11.7 220.056 11.6207 219.757 11.546C219.458 11.4713 219.178 11.434 218.917 11.434C218.413 11.434 217.998 11.5413 217.671 11.756C217.344 11.9707 217.102 12.288 216.943 12.708C216.784 13.128 216.705 13.6507 216.705 14.276C216.705 14.8733 216.784 15.382 216.943 15.802C217.102 16.222 217.34 16.5393 217.657 16.754C217.974 16.9687 218.371 17.076 218.847 17.076C219.258 17.076 219.617 17.034 219.925 16.95C220.242 16.866 220.532 16.7633 220.793 16.642V17.734C220.541 17.8647 220.261 17.9627 219.953 18.028C219.654 18.1027 219.29 18.14 218.861 18.14ZM226.358 18H225.154V11.014C225.154 10.7433 225.154 10.5147 225.154 10.328C225.163 10.1413 225.172 9.96867 225.182 9.81C225.191 9.642 225.2 9.46933 225.21 9.292C225.06 9.44133 224.925 9.56733 224.804 9.67C224.682 9.77267 224.528 9.90333 224.342 10.062L223.278 10.93L222.634 10.104L225.336 8.004H226.358V18ZM233.361 12.918L235.965 8.004H237.323L233.991 14.122V18H232.731V14.178L229.399 8.004H230.771L233.361 12.918ZM243.363 13.758C243.307 13.562 243.251 13.3707 243.195 13.184C243.139 12.988 243.088 12.806 243.041 12.638C243.004 12.4607 242.966 12.2973 242.929 12.148C242.892 11.9987 242.864 11.8727 242.845 11.77H242.789C242.77 11.8727 242.742 11.9987 242.705 12.148C242.677 12.2973 242.64 12.4607 242.593 12.638C242.556 12.8153 242.509 13.002 242.453 13.198C242.406 13.3847 242.35 13.576 242.285 13.772L240.941 17.986H239.541L237.483 10.482H238.757L239.793 14.486C239.868 14.7567 239.938 15.032 240.003 15.312C240.068 15.5827 240.124 15.844 240.171 16.096C240.227 16.3387 240.264 16.5487 240.283 16.726H240.339C240.367 16.614 240.4 16.474 240.437 16.306C240.474 16.138 240.512 15.9607 240.549 15.774C240.596 15.5873 240.642 15.4007 240.689 15.214C240.745 15.0273 240.796 14.8593 240.843 14.71L242.173 10.482H243.517L244.805 14.71C244.87 14.9247 244.936 15.1533 245.001 15.396C245.076 15.6387 245.141 15.8767 245.197 16.11C245.253 16.334 245.29 16.5347 245.309 16.712H245.365C245.384 16.5533 245.416 16.3573 245.463 16.124C245.519 15.8813 245.58 15.62 245.645 15.34C245.72 15.0507 245.794 14.766 245.869 14.486L246.919 10.482H248.179L246.093 17.986H244.651L243.363 13.758ZM254.369 13.758C254.313 13.562 254.257 13.3707 254.201 13.184C254.145 12.988 254.094 12.806 254.047 12.638C254.01 12.4607 253.972 12.2973 253.935 12.148C253.898 11.9987 253.87 11.8727 253.851 11.77H253.795C253.776 11.8727 253.748 11.9987 253.711 12.148C253.683 12.2973 253.646 12.4607 253.599 12.638C253.562 12.8153 253.515 13.002 253.459 13.198C253.412 13.3847 253.356 13.576 253.291 13.772L251.947 17.986H250.547L248.489 10.482H249.763L250.799 14.486C250.874 14.7567 250.944 15.032 251.009 15.312C251.074 15.5827 251.13 15.844 251.177 16.096C251.233 16.3387 251.27 16.5487 251.289 16.726H251.345C251.373 16.614 251.406 16.474 251.443 16.306C251.48 16.138 251.518 15.9607 251.555 15.774C251.602 15.5873 251.648 15.4007 251.695 15.214C251.751 15.0273 251.802 14.8593 251.849 14.71L253.179 10.482H254.523L255.811 14.71C255.876 14.9247 255.942 15.1533 256.007 15.396C256.082 15.6387 256.147 15.8767 256.203 16.11C256.259 16.334 256.296 16.5347 256.315 16.712H256.371C256.39 16.5533 256.422 16.3573 256.469 16.124C256.525 15.8813 256.586 15.62 256.651 15.34C256.726 15.0507 256.8 14.766 256.875 14.486L257.925 10.482H259.185L257.099 17.986H255.657L254.369 13.758ZM263.191 10.356C263.685 10.356 264.129 10.4493 264.521 10.636C264.922 10.8227 265.263 11.1073 265.543 11.49H265.613L265.781 10.496H266.761V18.126C266.761 18.8353 266.639 19.428 266.397 19.904C266.154 20.3893 265.785 20.7533 265.291 20.996C264.796 21.2387 264.166 21.36 263.401 21.36C262.859 21.36 262.36 21.318 261.903 21.234C261.455 21.1593 261.053 21.0427 260.699 20.884V19.75C260.941 19.8713 261.207 19.974 261.497 20.058C261.786 20.1513 262.099 20.2213 262.435 20.268C262.771 20.3147 263.116 20.338 263.471 20.338C264.115 20.338 264.619 20.1467 264.983 19.764C265.356 19.3907 265.543 18.8773 265.543 18.224V17.93C265.543 17.818 265.547 17.6593 265.557 17.454C265.566 17.2393 265.575 17.09 265.585 17.006H265.529C265.267 17.3887 264.941 17.6733 264.549 17.86C264.166 18.0467 263.718 18.14 263.205 18.14C262.234 18.14 261.473 17.7993 260.923 17.118C260.381 16.4367 260.111 15.4847 260.111 14.262C260.111 13.4593 260.232 12.7687 260.475 12.19C260.727 11.602 261.081 11.1493 261.539 10.832C261.996 10.5147 262.547 10.356 263.191 10.356ZM263.359 11.392C262.939 11.392 262.579 11.504 262.281 11.728C261.991 11.952 261.767 12.2787 261.609 12.708C261.459 13.1373 261.385 13.66 261.385 14.276C261.385 15.2 261.553 15.9093 261.889 16.404C262.234 16.8893 262.733 17.132 263.387 17.132C263.769 17.132 264.096 17.0853 264.367 16.992C264.637 16.8893 264.861 16.7353 265.039 16.53C265.216 16.3153 265.347 16.0447 265.431 15.718C265.515 15.3913 265.557 15.004 265.557 14.556V14.262C265.557 13.5807 265.477 13.03 265.319 12.61C265.169 12.19 264.931 11.882 264.605 11.686C264.278 11.49 263.863 11.392 263.359 11.392ZM276.354 8.004L272.784 18H271.524L267.954 8.004H269.27L271.524 14.416C271.627 14.6867 271.715 14.948 271.79 15.2C271.865 15.452 271.93 15.6947 271.986 15.928C272.051 16.152 272.107 16.376 272.154 16.6C272.201 16.376 272.252 16.1473 272.308 15.914C272.373 15.6807 272.443 15.438 272.518 15.186C272.602 14.934 272.691 14.668 272.784 14.388L275.024 8.004H276.354ZM285.634 10.356C286.483 10.356 287.118 10.5753 287.538 11.014C287.958 11.4433 288.168 12.1433 288.168 13.114V18H286.95V13.17C286.95 12.582 286.824 12.1387 286.572 11.84C286.329 11.5413 285.947 11.392 285.424 11.392C284.696 11.392 284.173 11.602 283.856 12.022C283.548 12.442 283.394 13.0533 283.394 13.856V18H282.176V13.17C282.176 12.778 282.12 12.4513 282.008 12.19C281.896 11.9193 281.728 11.7187 281.504 11.588C281.28 11.4573 280.991 11.392 280.636 11.392C280.132 11.392 279.735 11.4993 279.446 11.714C279.157 11.9193 278.947 12.2227 278.816 12.624C278.695 13.0253 278.634 13.52 278.634 14.108V18H277.402V10.496H278.396L278.578 11.518H278.648C278.807 11.2567 278.998 11.042 279.222 10.874C279.455 10.6967 279.712 10.566 279.992 10.482C280.272 10.398 280.561 10.356 280.86 10.356C281.439 10.356 281.919 10.4587 282.302 10.664C282.694 10.8693 282.979 11.1867 283.156 11.616H283.226C283.478 11.1867 283.819 10.8693 284.248 10.664C284.687 10.4587 285.149 10.356 285.634 10.356ZM296.758 10.496V18H295.75L295.568 17.006H295.512C295.353 17.2673 295.148 17.482 294.896 17.65C294.644 17.818 294.369 17.9393 294.07 18.014C293.771 18.098 293.459 18.14 293.132 18.14C292.535 18.14 292.031 18.0467 291.62 17.86C291.219 17.664 290.915 17.3653 290.71 16.964C290.505 16.5627 290.402 16.0447 290.402 15.41V10.496H291.648V15.326C291.648 15.9233 291.783 16.3713 292.054 16.67C292.325 16.9687 292.745 17.118 293.314 17.118C293.874 17.118 294.313 17.0153 294.63 16.81C294.957 16.5953 295.185 16.2873 295.316 15.886C295.456 15.4753 295.526 14.9807 295.526 14.402V10.496H296.758ZM300.918 14.164L298.328 10.496H299.728L301.66 13.324L303.578 10.496H304.964L302.374 14.164L305.104 18H303.704L301.66 15.004L299.588 18H298.202L300.918 14.164ZM309.476 8.004C310.307 8.004 310.988 8.11133 311.52 8.326C312.062 8.53133 312.463 8.844 312.724 9.264C312.986 9.684 313.116 10.2113 313.116 10.846C313.116 11.378 313.018 11.8213 312.822 12.176C312.626 12.5307 312.374 12.8153 312.066 13.03C311.768 13.2353 311.45 13.3987 311.114 13.52L313.858 18H312.388L309.966 13.87H307.978V18H306.718V8.004H309.476ZM309.406 9.096H307.978V12.806H309.476C310.018 12.806 310.461 12.736 310.806 12.596C311.152 12.4467 311.404 12.232 311.562 11.952C311.73 11.672 311.814 11.322 311.814 10.902C311.814 10.4633 311.726 10.1133 311.548 9.852C311.38 9.59067 311.119 9.39933 310.764 9.278C310.41 9.15667 309.957 9.096 309.406 9.096ZM324.149 12.988C324.149 13.8 324.037 14.5373 323.813 15.2C323.599 15.8627 323.277 16.4227 322.847 16.88C322.418 17.3373 321.881 17.6733 321.237 17.888L323.631 20.38H321.825L319.893 18.126C319.837 18.126 319.777 18.126 319.711 18.126C319.655 18.1353 319.599 18.14 319.543 18.14C318.759 18.14 318.078 18.0187 317.499 17.776C316.921 17.524 316.44 17.174 316.057 16.726C315.675 16.2687 315.39 15.7227 315.203 15.088C315.017 14.4533 314.923 13.7487 314.923 12.974C314.923 11.9473 315.091 11.0513 315.427 10.286C315.763 9.52067 316.272 8.92333 316.953 8.494C317.644 8.06467 318.512 7.85 319.557 7.85C320.556 7.85 321.396 8.06467 322.077 8.494C322.759 8.914 323.272 9.51133 323.617 10.286C323.972 11.0513 324.149 11.952 324.149 12.988ZM316.253 12.988C316.253 13.828 316.37 14.5513 316.603 15.158C316.837 15.7647 317.196 16.2313 317.681 16.558C318.176 16.8847 318.797 17.048 319.543 17.048C320.299 17.048 320.915 16.8847 321.391 16.558C321.877 16.2313 322.236 15.7647 322.469 15.158C322.703 14.5513 322.819 13.828 322.819 12.988C322.819 11.728 322.558 10.7433 322.035 10.034C321.513 9.31533 320.687 8.956 319.557 8.956C318.801 8.956 318.176 9.11933 317.681 9.446C317.196 9.76333 316.837 10.2253 316.603 10.832C316.37 11.4293 316.253 12.148 316.253 12.988ZM328.703 17.132C328.89 17.132 329.081 17.118 329.277 17.09C329.473 17.0527 329.632 17.0153 329.753 16.978V17.916C329.622 17.9813 329.436 18.0327 329.193 18.07C328.95 18.1167 328.717 18.14 328.493 18.14C328.101 18.14 327.737 18.0747 327.401 17.944C327.074 17.804 326.808 17.566 326.603 17.23C326.398 16.894 326.295 16.4227 326.295 15.816V11.448H325.231V10.86L326.309 10.37L326.799 8.774H327.527V10.496H329.697V11.448H327.527V15.788C327.527 16.2453 327.634 16.586 327.849 16.81C328.073 17.0247 328.358 17.132 328.703 17.132ZM337.009 18H331.423V8.004H337.009V9.11H332.683V12.232H336.757V13.324H332.683V16.894H337.009V18ZM342.647 10.356C343.543 10.356 344.219 10.5753 344.677 11.014C345.134 11.4433 345.363 12.1433 345.363 13.114V18H344.145V13.198C344.145 12.5913 344.009 12.1387 343.739 11.84C343.468 11.5413 343.043 11.392 342.465 11.392C341.634 11.392 341.06 11.6253 340.743 12.092C340.425 12.5587 340.267 13.2307 340.267 14.108V18H339.035V10.496H340.029L340.211 11.518H340.281C340.449 11.2567 340.654 11.042 340.897 10.874C341.149 10.6967 341.424 10.566 341.723 10.482C342.021 10.398 342.329 10.356 342.647 10.356ZM351.189 10.356C351.329 10.356 351.478 10.3653 351.637 10.384C351.805 10.3933 351.95 10.412 352.071 10.44L351.917 11.574C351.796 11.546 351.66 11.5227 351.511 11.504C351.371 11.4853 351.236 11.476 351.105 11.476C350.816 11.476 350.54 11.5367 350.279 11.658C350.018 11.7793 349.784 11.952 349.579 12.176C349.374 12.3907 349.21 12.652 349.089 12.96C348.977 13.268 348.921 13.6133 348.921 13.996V18H347.689V10.496H348.697L348.837 11.868H348.893C349.052 11.588 349.243 11.336 349.467 11.112C349.691 10.8787 349.948 10.6967 350.237 10.566C350.526 10.426 350.844 10.356 351.189 10.356ZM354.69 12.918C354.69 13.0673 354.681 13.2633 354.662 13.506C354.653 13.7487 354.644 13.9587 354.634 14.136H354.69C354.746 14.0613 354.83 13.954 354.942 13.814C355.054 13.674 355.166 13.534 355.278 13.394C355.4 13.2447 355.502 13.1233 355.586 13.03L357.98 10.496H359.422L356.384 13.702L359.632 18H358.148L355.544 14.5L354.69 15.242V18H353.472V7.36H354.69V12.918ZM367.223 18H360.293V17.048L365.557 9.124H360.461V8.004H367.083V8.956L361.819 16.88H367.223V18ZM371.776 8.004C373.083 8.004 374.035 8.26067 374.632 8.774C375.23 9.28733 375.528 10.0107 375.528 10.944C375.528 11.3547 375.458 11.7513 375.318 12.134C375.188 12.5073 374.968 12.8433 374.66 13.142C374.352 13.4407 373.942 13.6787 373.428 13.856C372.915 14.024 372.285 14.108 371.538 14.108H370.39V18H369.13V8.004H371.776ZM371.664 9.082H370.39V13.03H371.398C372.033 13.03 372.56 12.9647 372.98 12.834C373.4 12.694 373.713 12.4747 373.918 12.176C374.124 11.8773 374.226 11.4853 374.226 11C374.226 10.356 374.021 9.87533 373.61 9.558C373.2 9.24067 372.551 9.082 371.664 9.082ZM376.557 21.36C376.324 21.36 376.118 21.3413 375.941 21.304C375.764 21.276 375.61 21.2387 375.479 21.192V20.198C375.619 20.2353 375.764 20.268 375.913 20.296C376.062 20.324 376.226 20.338 376.403 20.338C376.702 20.338 376.949 20.254 377.145 20.086C377.341 19.9273 377.439 19.6193 377.439 19.162V10.496H378.671V19.12C378.671 19.5867 378.596 19.988 378.447 20.324C378.298 20.66 378.069 20.9167 377.761 21.094C377.453 21.2713 377.052 21.36 376.557 21.36ZM377.341 8.466C377.341 8.19533 377.411 7.99933 377.551 7.878C377.691 7.74733 377.864 7.682 378.069 7.682C378.256 7.682 378.419 7.74733 378.559 7.878C378.708 7.99933 378.783 8.19533 378.783 8.466C378.783 8.72733 378.708 8.92333 378.559 9.054C378.419 9.18467 378.256 9.25 378.069 9.25C377.864 9.25 377.691 9.18467 377.551 9.054C377.411 8.92333 377.341 8.72733 377.341 8.466ZM382.476 18H381.216V8.004H386.802V9.11H382.476V12.652H386.536V13.758H382.476V18ZM390.968 18.14C390.035 18.14 389.288 17.818 388.728 17.174C388.168 16.5207 387.888 15.55 387.888 14.262C387.888 12.974 388.168 12.0033 388.728 11.35C389.297 10.6873 390.049 10.356 390.982 10.356C391.374 10.356 391.715 10.4073 392.004 10.51C392.293 10.6033 392.545 10.734 392.76 10.902C392.975 11.07 393.157 11.2567 393.306 11.462H393.39C393.381 11.3407 393.362 11.1633 393.334 10.93C393.315 10.6873 393.306 10.496 393.306 10.356V7.36H394.538V18H393.544L393.362 16.992H393.306C393.157 17.2067 392.975 17.4027 392.76 17.58C392.545 17.748 392.289 17.8833 391.99 17.986C391.701 18.0887 391.36 18.14 390.968 18.14ZM391.164 17.118C391.957 17.118 392.513 16.9033 392.83 16.474C393.157 16.0353 393.32 15.3773 393.32 14.5V14.276C393.32 13.3427 393.166 12.6287 392.858 12.134C392.55 11.63 391.981 11.378 391.15 11.378C390.487 11.378 389.988 11.644 389.652 12.176C389.325 12.6987 389.162 13.4033 389.162 14.29C389.162 15.186 389.325 15.8813 389.652 16.376C389.988 16.8707 390.492 17.118 391.164 17.118Z" fill="white"/>
</svg>
