<svg width="578" height="25" viewBox="0 0 578 25" fill="none" xmlns="http://www.w3.org/2000/svg">
<rect width="578" height="25" fill="#555555"/>
<rect x="218" width="360" height="25" fill="#6E33D1"/>
<path d="M20.9239 7.004C22.2306 7.004 23.1826 7.26067 23.7799 7.774C24.3773 8.28733 24.6759 9.01067 24.6759 9.944C24.6759 10.3547 24.6059 10.7513 24.4659 11.134C24.3353 11.5073 24.1159 11.8433 23.8079 12.142C23.4999 12.4407 23.0893 12.6787 22.5759 12.856C22.0626 13.024 21.4326 13.108 20.6859 13.108H19.5379V17H18.2779V7.004H20.9239ZM20.8119 8.082H19.5379V12.03H20.5459C21.1806 12.03 21.7079 11.9647 22.1279 11.834C22.5479 11.694 22.8606 11.4747 23.0659 11.176C23.2713 10.8773 23.3739 10.4853 23.3739 10C23.3739 9.356 23.1686 8.87533 22.7579 8.558C22.3473 8.24067 21.6986 8.082 20.8119 8.082ZM33.1105 13.234C33.1105 13.8593 33.0265 14.4147 32.8585 14.9C32.6998 15.376 32.4665 15.782 32.1585 16.118C31.8598 16.454 31.4912 16.7107 31.0525 16.888C30.6232 17.056 30.1425 17.14 29.6105 17.14C29.1158 17.14 28.6585 17.056 28.2385 16.888C27.8185 16.7107 27.4545 16.454 27.1465 16.118C26.8385 15.782 26.5958 15.376 26.4185 14.9C26.2505 14.4147 26.1665 13.8593 26.1665 13.234C26.1665 12.4033 26.3065 11.7033 26.5865 11.134C26.8665 10.5553 27.2678 10.1167 27.7905 9.818C28.3132 9.51 28.9338 9.356 29.6525 9.356C30.3338 9.356 30.9312 9.51 31.4445 9.818C31.9672 10.1167 32.3732 10.5553 32.6625 11.134C32.9612 11.7033 33.1105 12.4033 33.1105 13.234ZM27.4405 13.234C27.4405 13.822 27.5152 14.3353 27.6645 14.774C27.8232 15.2033 28.0658 15.5347 28.3925 15.768C28.7192 16.0013 29.1345 16.118 29.6385 16.118C30.1425 16.118 30.5578 16.0013 30.8845 15.768C31.2112 15.5347 31.4492 15.2033 31.5985 14.774C31.7572 14.3353 31.8365 13.822 31.8365 13.234C31.8365 12.6367 31.7572 12.128 31.5985 11.708C31.4398 11.288 31.1972 10.966 30.8705 10.742C30.5532 10.5087 30.1378 10.392 29.6245 10.392C28.8592 10.392 28.3038 10.644 27.9585 11.148C27.6132 11.652 27.4405 12.3473 27.4405 13.234ZM36.295 17H35.063V6.36H36.295V17ZM37.4964 9.496H38.8124L40.4364 13.766C40.5298 14.018 40.6138 14.2607 40.6884 14.494C40.7724 14.7273 40.8471 14.956 40.9124 15.18C40.9778 15.3947 41.0291 15.6047 41.0664 15.81H41.1224C41.1784 15.5767 41.2671 15.2733 41.3884 14.9C41.5098 14.5173 41.6358 14.1347 41.7664 13.752L43.2924 9.496H44.6224L41.3884 18.036C41.2111 18.5027 41.0011 18.9087 40.7584 19.254C40.5251 19.6087 40.2358 19.8793 39.8904 20.066C39.5544 20.262 39.1438 20.36 38.6584 20.36C38.4344 20.36 38.2384 20.346 38.0704 20.318C37.9024 20.2993 37.7578 20.276 37.6364 20.248V19.268C37.7391 19.2867 37.8604 19.3053 38.0004 19.324C38.1498 19.3427 38.3038 19.352 38.4624 19.352C38.7518 19.352 38.9991 19.296 39.2044 19.184C39.4191 19.0813 39.6011 18.9273 39.7504 18.722C39.8998 18.526 40.0258 18.2927 40.1284 18.022L40.5204 17.028L37.4964 9.496ZM48.4691 9.356C48.9638 9.356 49.4071 9.44933 49.7991 9.636C50.2005 9.82267 50.5411 10.1073 50.8211 10.49H50.8911L51.0591 9.496H52.0391V17.126C52.0391 17.8353 51.9178 18.428 51.6751 18.904C51.4325 19.3893 51.0638 19.7533 50.5691 19.996C50.0745 20.2387 49.4445 20.36 48.6791 20.36C48.1378 20.36 47.6385 20.318 47.1811 20.234C46.7331 20.1593 46.3318 20.0427 45.9771 19.884V18.75C46.2198 18.8713 46.4858 18.974 46.7751 19.058C47.0645 19.1513 47.3771 19.2213 47.7131 19.268C48.0491 19.3147 48.3945 19.338 48.7491 19.338C49.3931 19.338 49.8971 19.1467 50.2611 18.764C50.6345 18.3907 50.8211 17.8773 50.8211 17.224V16.93C50.8211 16.818 50.8258 16.6593 50.8351 16.454C50.8445 16.2393 50.8538 16.09 50.8631 16.006H50.8071C50.5458 16.3887 50.2191 16.6733 49.8271 16.86C49.4445 17.0467 48.9965 17.14 48.4831 17.14C47.5125 17.14 46.7518 16.7993 46.2011 16.118C45.6598 15.4367 45.3891 14.4847 45.3891 13.262C45.3891 12.4593 45.5105 11.7687 45.7531 11.19C46.0051 10.602 46.3598 10.1493 46.8171 9.832C47.2745 9.51467 47.8251 9.356 48.4691 9.356ZM48.6371 10.392C48.2171 10.392 47.8578 10.504 47.5591 10.728C47.2698 10.952 47.0458 11.2787 46.8871 11.708C46.7378 12.1373 46.6631 12.66 46.6631 13.276C46.6631 14.2 46.8311 14.9093 47.1671 15.404C47.5125 15.8893 48.0118 16.132 48.6651 16.132C49.0478 16.132 49.3745 16.0853 49.6451 15.992C49.9158 15.8893 50.1398 15.7353 50.3171 15.53C50.4945 15.3153 50.6251 15.0447 50.7091 14.718C50.7931 14.3913 50.8351 14.004 50.8351 13.556V13.262C50.8351 12.5807 50.7558 12.03 50.5971 11.61C50.4478 11.19 50.2098 10.882 49.8831 10.686C49.5565 10.49 49.1411 10.392 48.6371 10.392ZM60.9464 13.234C60.9464 13.8593 60.8624 14.4147 60.6944 14.9C60.5358 15.376 60.3024 15.782 59.9944 16.118C59.6958 16.454 59.3271 16.7107 58.8884 16.888C58.4591 17.056 57.9784 17.14 57.4464 17.14C56.9518 17.14 56.4944 17.056 56.0744 16.888C55.6544 16.7107 55.2904 16.454 54.9824 16.118C54.6744 15.782 54.4318 15.376 54.2544 14.9C54.0864 14.4147 54.0024 13.8593 54.0024 13.234C54.0024 12.4033 54.1424 11.7033 54.4224 11.134C54.7024 10.5553 55.1038 10.1167 55.6264 9.818C56.1491 9.51 56.7698 9.356 57.4884 9.356C58.1698 9.356 58.7671 9.51 59.2804 9.818C59.8031 10.1167 60.2091 10.5553 60.4984 11.134C60.7971 11.7033 60.9464 12.4033 60.9464 13.234ZM55.2764 13.234C55.2764 13.822 55.3511 14.3353 55.5004 14.774C55.6591 15.2033 55.9018 15.5347 56.2284 15.768C56.5551 16.0013 56.9704 16.118 57.4744 16.118C57.9784 16.118 58.3938 16.0013 58.7204 15.768C59.0471 15.5347 59.2851 15.2033 59.4344 14.774C59.5931 14.3353 59.6724 13.822 59.6724 13.234C59.6724 12.6367 59.5931 12.128 59.4344 11.708C59.2758 11.288 59.0331 10.966 58.7064 10.742C58.3891 10.5087 57.9738 10.392 57.4604 10.392C56.6951 10.392 56.1398 10.644 55.7944 11.148C55.4491 11.652 55.2764 12.3473 55.2764 13.234ZM66.511 9.356C67.407 9.356 68.0837 9.57533 68.541 10.014C68.9983 10.4433 69.227 11.1433 69.227 12.114V17H68.009V12.198C68.009 11.5913 67.8737 11.1387 67.603 10.84C67.3323 10.5413 66.9077 10.392 66.329 10.392C65.4983 10.392 64.9243 10.6253 64.607 11.092C64.2897 11.5587 64.131 12.2307 64.131 13.108V17H62.899V9.496H63.893L64.075 10.518H64.145C64.313 10.2567 64.5183 10.042 64.761 9.874C65.013 9.69667 65.2883 9.566 65.587 9.482C65.8857 9.398 66.1937 9.356 66.511 9.356ZM79.768 17L76.478 8.236H76.422C76.4407 8.42267 76.4547 8.66067 76.464 8.95C76.4827 9.23933 76.4967 9.55667 76.506 9.902C76.5153 10.238 76.52 10.5833 76.52 10.938V17H75.358V7.004H77.22L80.3 15.194H80.356L83.492 7.004H85.34V17H84.094V10.854C84.094 10.5273 84.0987 10.2053 84.108 9.888C84.1173 9.56133 84.1313 9.258 84.15 8.978C84.1687 8.68867 84.1827 8.446 84.192 8.25H84.136L80.804 17H79.768ZM94.3312 17L93.1272 13.906H89.1652L87.9752 17H86.7012L90.6072 6.962H91.7412L95.6332 17H94.3312ZM91.6292 9.762C91.6012 9.68733 91.5545 9.552 91.4892 9.356C91.4238 9.16 91.3585 8.95933 91.2932 8.754C91.2372 8.53933 91.1905 8.376 91.1532 8.264C91.1065 8.45067 91.0552 8.642 90.9992 8.838C90.9525 9.02467 90.9012 9.19733 90.8452 9.356C90.7985 9.51467 90.7565 9.65 90.7192 9.762L89.5852 12.786H92.7492L91.6292 9.762ZM99.1802 17H97.9202V8.11H94.7982V7.004H102.288V8.11H99.1802V17ZM106.61 17H102.998V16.272L104.174 16.006V8.012L102.998 7.732V7.004H106.61V7.732L105.434 8.012V16.006L106.61 16.272V17ZM112.824 7.97C112.292 7.97 111.811 8.06333 111.382 8.25C110.952 8.42733 110.588 8.69333 110.29 9.048C109.991 9.39333 109.762 9.818 109.604 10.322C109.445 10.8167 109.366 11.3767 109.366 12.002C109.366 12.8233 109.492 13.5373 109.744 14.144C110.005 14.7507 110.388 15.2173 110.892 15.544C111.405 15.8707 112.044 16.034 112.81 16.034C113.248 16.034 113.664 15.9967 114.056 15.922C114.448 15.8473 114.83 15.754 115.204 15.642V16.734C114.83 16.874 114.443 16.9767 114.042 17.042C113.65 17.1073 113.178 17.14 112.628 17.14C111.61 17.14 110.761 16.93 110.08 16.51C109.398 16.09 108.885 15.4927 108.54 14.718C108.204 13.9433 108.036 13.0333 108.036 11.988C108.036 11.232 108.138 10.5413 108.344 9.916C108.558 9.29067 108.866 8.74933 109.268 8.292C109.678 7.83467 110.182 7.48467 110.78 7.242C111.377 6.99 112.063 6.864 112.838 6.864C113.351 6.864 113.846 6.91533 114.322 7.018C114.798 7.12067 115.222 7.26533 115.596 7.452L115.092 8.516C114.784 8.376 114.438 8.25 114.056 8.138C113.682 8.026 113.272 7.97 112.824 7.97ZM120.224 13.164C120.224 12.3987 120.294 11.652 120.434 10.924C120.583 10.196 120.812 9.50067 121.12 8.838C121.428 8.17533 121.815 7.564 122.282 7.004H123.444C123.015 7.58267 122.651 8.208 122.352 8.88C122.063 9.552 121.843 10.2473 121.694 10.966C121.545 11.6847 121.47 12.4127 121.47 13.15C121.47 13.8687 121.545 14.5827 121.694 15.292C121.843 16.0013 122.063 16.6827 122.352 17.336C122.641 17.9987 123.001 18.624 123.43 19.212H122.282C121.815 18.6613 121.428 18.0593 121.12 17.406C120.812 16.762 120.583 16.0807 120.434 15.362C120.294 14.6433 120.224 13.9107 120.224 13.164ZM131.502 7.004C132.809 7.004 133.761 7.26067 134.358 7.774C134.955 8.28733 135.254 9.01067 135.254 9.944C135.254 10.3547 135.184 10.7513 135.044 11.134C134.913 11.5073 134.694 11.8433 134.386 12.142C134.078 12.4407 133.667 12.6787 133.154 12.856C132.641 13.024 132.011 13.108 131.264 13.108H130.116V17H128.856V7.004H131.502ZM131.39 8.082H130.116V12.03H131.124C131.759 12.03 132.286 11.9647 132.706 11.834C133.126 11.694 133.439 11.4747 133.644 11.176C133.849 10.8773 133.952 10.4853 133.952 10C133.952 9.356 133.747 8.87533 133.336 8.558C132.925 8.24067 132.277 8.082 131.39 8.082ZM146.055 11.988C146.055 12.7627 145.957 13.4673 145.761 14.102C145.565 14.7273 145.271 15.2687 144.879 15.726C144.496 16.1833 144.015 16.5333 143.437 16.776C142.867 17.0187 142.205 17.14 141.449 17.14C140.665 17.14 139.983 17.0187 139.405 16.776C138.826 16.524 138.345 16.174 137.963 15.726C137.58 15.2687 137.295 14.7227 137.109 14.088C136.922 13.4533 136.829 12.7487 136.829 11.974C136.829 10.9473 136.997 10.0513 137.333 9.286C137.669 8.52067 138.177 7.92333 138.859 7.494C139.549 7.06467 140.417 6.85 141.463 6.85C142.461 6.85 143.301 7.06467 143.983 7.494C144.664 7.914 145.177 8.51133 145.523 9.286C145.877 10.0513 146.055 10.952 146.055 11.988ZM138.159 11.988C138.159 12.828 138.275 13.5513 138.509 14.158C138.742 14.7647 139.101 15.2313 139.587 15.558C140.081 15.8847 140.702 16.048 141.449 16.048C142.205 16.048 142.821 15.8847 143.297 15.558C143.782 15.2313 144.141 14.7647 144.375 14.158C144.608 13.5513 144.725 12.828 144.725 11.988C144.725 10.728 144.463 9.74333 143.941 9.034C143.418 8.31533 142.592 7.956 141.463 7.956C140.707 7.956 140.081 8.11933 139.587 8.446C139.101 8.76333 138.742 9.22533 138.509 9.832C138.275 10.4293 138.159 11.148 138.159 11.988ZM148.27 17V7.004H149.53V15.88H153.898V17H148.27ZM157.792 11.918L160.396 7.004H161.754L158.422 13.122V17H157.162V13.178L153.83 7.004H155.202L157.792 11.918ZM167.184 11.722H170.642V16.622C170.101 16.7993 169.555 16.93 169.004 17.014C168.454 17.098 167.828 17.14 167.128 17.14C166.092 17.14 165.22 16.9347 164.51 16.524C163.801 16.104 163.26 15.5113 162.886 14.746C162.522 13.9713 162.34 13.0567 162.34 12.002C162.34 10.9567 162.546 10.0513 162.956 9.286C163.367 8.52067 163.955 7.928 164.72 7.508C165.495 7.07867 166.428 6.864 167.52 6.864C168.08 6.864 168.608 6.91533 169.102 7.018C169.606 7.12067 170.073 7.26533 170.502 7.452L170.026 8.544C169.672 8.38533 169.27 8.25 168.822 8.138C168.384 8.026 167.926 7.97 167.45 7.97C166.657 7.97 165.976 8.13333 165.406 8.46C164.837 8.78667 164.403 9.25333 164.104 9.86C163.806 10.4573 163.656 11.1713 163.656 12.002C163.656 12.7953 163.782 13.5 164.034 14.116C164.296 14.7227 164.702 15.1987 165.252 15.544C165.803 15.88 166.526 16.048 167.422 16.048C167.721 16.048 167.982 16.0387 168.206 16.02C168.44 15.992 168.65 15.9593 168.836 15.922C169.032 15.8847 169.214 15.8473 169.382 15.81V12.842H167.184V11.722ZM181.752 11.988C181.752 12.7627 181.654 13.4673 181.458 14.102C181.262 14.7273 180.968 15.2687 180.576 15.726C180.193 16.1833 179.713 16.5333 179.134 16.776C178.565 17.0187 177.902 17.14 177.146 17.14C176.362 17.14 175.681 17.0187 175.102 16.776C174.523 16.524 174.043 16.174 173.66 15.726C173.277 15.2687 172.993 14.7227 172.806 14.088C172.619 13.4533 172.526 12.7487 172.526 11.974C172.526 10.9473 172.694 10.0513 173.03 9.286C173.366 8.52067 173.875 7.92333 174.556 7.494C175.247 7.06467 176.115 6.85 177.16 6.85C178.159 6.85 178.999 7.06467 179.68 7.494C180.361 7.914 180.875 8.51133 181.22 9.286C181.575 10.0513 181.752 10.952 181.752 11.988ZM173.856 11.988C173.856 12.828 173.973 13.5513 174.206 14.158C174.439 14.7647 174.799 15.2313 175.284 15.558C175.779 15.8847 176.399 16.048 177.146 16.048C177.902 16.048 178.518 15.8847 178.994 15.558C179.479 15.2313 179.839 14.7647 180.072 14.158C180.305 13.5513 180.422 12.828 180.422 11.988C180.422 10.728 180.161 9.74333 179.638 9.034C179.115 8.31533 178.289 7.956 177.16 7.956C176.404 7.956 175.779 8.11933 175.284 8.446C174.799 8.76333 174.439 9.22533 174.206 9.832C173.973 10.4293 173.856 11.148 173.856 11.988ZM191.891 17H190.421L185.073 8.698H185.017C185.027 8.866 185.036 9.05267 185.045 9.258C185.064 9.46333 185.078 9.68733 185.087 9.93C185.097 10.1633 185.106 10.406 185.115 10.658C185.125 10.91 185.129 11.162 185.129 11.414V17H183.967V7.004H185.423L190.757 15.278H190.813C190.804 15.166 190.795 15.012 190.785 14.816C190.776 14.6107 190.767 14.3867 190.757 14.144C190.748 13.892 190.739 13.6353 190.729 13.374C190.72 13.1127 190.715 12.87 190.715 12.646V7.004H191.891V17ZM200.523 13.164C200.523 13.9107 200.448 14.6433 200.299 15.362C200.159 16.0807 199.935 16.762 199.627 17.406C199.328 18.0593 198.941 18.6613 198.465 19.212H197.317C197.746 18.624 198.105 17.9987 198.395 17.336C198.684 16.6827 198.903 16.0013 199.053 15.292C199.202 14.5827 199.277 13.8687 199.277 13.15C199.277 12.4127 199.202 11.6847 199.053 10.966C198.903 10.2473 198.684 9.552 198.395 8.88C198.105 8.208 197.741 7.58267 197.303 7.004H198.465C198.941 7.564 199.328 8.17533 199.627 8.838C199.935 9.50067 200.159 10.196 200.299 10.924C200.448 11.652 200.523 12.3987 200.523 13.164Z" fill="white"/>
<path d="M237.425 12.988C237.425 13.8 237.364 14.5233 237.243 15.158C237.121 15.7927 236.925 16.334 236.655 16.782C236.393 17.2207 236.048 17.5567 235.619 17.79C235.199 18.0233 234.69 18.14 234.093 18.14C233.346 18.14 232.725 17.9347 232.231 17.524C231.745 17.1133 231.381 16.5253 231.139 15.76C230.905 14.9853 230.789 14.0613 230.789 12.988C230.789 11.9053 230.896 10.9813 231.111 10.216C231.335 9.45067 231.689 8.86733 232.175 8.466C232.66 8.05533 233.299 7.85 234.093 7.85C234.839 7.85 235.46 8.05533 235.955 8.466C236.449 8.86733 236.818 9.45067 237.061 10.216C237.303 10.9813 237.425 11.9053 237.425 12.988ZM232.021 12.988C232.021 13.9027 232.086 14.6633 232.217 15.27C232.357 15.8767 232.576 16.334 232.875 16.642C233.183 16.9407 233.589 17.09 234.093 17.09C234.597 17.09 234.998 16.9407 235.297 16.642C235.605 16.3433 235.829 15.8907 235.969 15.284C236.109 14.668 236.179 13.9027 236.179 12.988C236.179 12.0733 236.109 11.3173 235.969 10.72C235.829 10.1133 235.605 9.66067 235.297 9.362C234.998 9.054 234.597 8.9 234.093 8.9C233.589 8.9 233.183 9.054 232.875 9.362C232.576 9.66067 232.357 10.1133 232.217 10.72C232.086 11.3173 232.021 12.0733 232.021 12.988ZM241.082 14.164L238.492 10.496H239.892L241.824 13.324L243.742 10.496H245.128L242.538 14.164L245.268 18H243.868L241.824 15.004L239.752 18H238.366L241.082 14.164ZM253.154 18L251.95 14.906H247.988L246.798 18H245.524L249.43 7.962H250.564L254.456 18H253.154ZM250.452 10.762C250.424 10.6873 250.378 10.552 250.312 10.356C250.247 10.16 250.182 9.95933 250.116 9.754C250.06 9.53933 250.014 9.376 249.976 9.264C249.93 9.45067 249.878 9.642 249.822 9.838C249.776 10.0247 249.724 10.1973 249.668 10.356C249.622 10.5147 249.58 10.65 249.542 10.762L248.408 13.786H251.572L250.452 10.762ZM255.236 13.73C255.236 13.1513 255.273 12.582 255.348 12.022C255.432 11.462 255.572 10.9347 255.768 10.44C255.964 9.936 256.234 9.49267 256.58 9.11C256.925 8.718 257.359 8.41467 257.882 8.2C258.414 7.976 259.058 7.864 259.814 7.864C260.01 7.864 260.224 7.87333 260.458 7.892C260.7 7.91067 260.896 7.94333 261.046 7.99V9.04C260.878 8.984 260.686 8.942 260.472 8.914C260.266 8.886 260.056 8.872 259.842 8.872C259.198 8.872 258.661 8.97933 258.232 9.194C257.802 9.40867 257.462 9.70267 257.21 10.076C256.967 10.4493 256.79 10.8787 256.678 11.364C256.566 11.8493 256.496 12.3673 256.468 12.918H256.552C256.692 12.694 256.869 12.4933 257.084 12.316C257.298 12.1387 257.555 11.9987 257.854 11.896C258.162 11.7933 258.516 11.742 258.918 11.742C259.496 11.742 260 11.8633 260.43 12.106C260.868 12.3393 261.209 12.6847 261.452 13.142C261.694 13.59 261.816 14.136 261.816 14.78C261.816 15.4707 261.685 16.068 261.424 16.572C261.162 17.076 260.794 17.4633 260.318 17.734C259.851 18.0047 259.291 18.14 258.638 18.14C258.162 18.14 257.718 18.0513 257.308 17.874C256.897 17.6967 256.533 17.426 256.216 17.062C255.908 16.698 255.665 16.2407 255.488 15.69C255.32 15.13 255.236 14.4767 255.236 13.73ZM258.624 17.104C259.212 17.104 259.688 16.9173 260.052 16.544C260.416 16.1613 260.598 15.5733 260.598 14.78C260.598 14.1453 260.434 13.6413 260.108 13.268C259.79 12.8947 259.31 12.708 258.666 12.708C258.227 12.708 257.844 12.8013 257.518 12.988C257.191 13.1653 256.934 13.394 256.748 13.674C256.57 13.954 256.482 14.2433 256.482 14.542C256.482 14.85 256.524 15.1533 256.608 15.452C256.701 15.7507 256.836 16.026 257.014 16.278C257.2 16.53 257.424 16.7307 257.686 16.88C257.956 17.0293 258.269 17.104 258.624 17.104ZM266.328 11.868C267.009 11.868 267.602 11.9847 268.106 12.218C268.61 12.4513 268.997 12.7873 269.268 13.226C269.548 13.6553 269.688 14.1827 269.688 14.808C269.688 15.4987 269.538 16.096 269.24 16.6C268.941 17.0947 268.512 17.4773 267.952 17.748C267.401 18.0093 266.734 18.14 265.95 18.14C265.436 18.14 264.951 18.0933 264.494 18C264.046 17.9067 263.668 17.7713 263.36 17.594V16.432C263.696 16.6373 264.102 16.8007 264.578 16.922C265.063 17.034 265.525 17.09 265.964 17.09C266.458 17.09 266.888 17.0153 267.252 16.866C267.625 16.7073 267.914 16.4693 268.12 16.152C268.325 15.8253 268.428 15.4193 268.428 14.934C268.428 14.2807 268.227 13.7813 267.826 13.436C267.424 13.0813 266.79 12.904 265.922 12.904C265.66 12.904 265.362 12.9273 265.026 12.974C264.69 13.0207 264.419 13.0673 264.214 13.114L263.598 12.722L263.976 8.004H268.988V9.124H265.026L264.788 12.022C264.946 11.994 265.161 11.9613 265.432 11.924C265.702 11.8867 266.001 11.868 266.328 11.868ZM275.459 18H274.255V11.014C274.255 10.7433 274.255 10.5147 274.255 10.328C274.265 10.1413 274.274 9.96867 274.283 9.81C274.293 9.642 274.302 9.46933 274.311 9.292C274.162 9.44133 274.027 9.56733 273.905 9.67C273.784 9.77267 273.63 9.90333 273.443 10.062L272.379 10.93L271.735 10.104L274.437 8.004H275.459V18ZM282.351 11.868C283.032 11.868 283.625 11.9847 284.129 12.218C284.633 12.4513 285.02 12.7873 285.291 13.226C285.571 13.6553 285.711 14.1827 285.711 14.808C285.711 15.4987 285.562 16.096 285.263 16.6C284.964 17.0947 284.535 17.4773 283.975 17.748C283.424 18.0093 282.757 18.14 281.973 18.14C281.46 18.14 280.974 18.0933 280.517 18C280.069 17.9067 279.691 17.7713 279.383 17.594V16.432C279.719 16.6373 280.125 16.8007 280.601 16.922C281.086 17.034 281.548 17.09 281.987 17.09C282.482 17.09 282.911 17.0153 283.275 16.866C283.648 16.7073 283.938 16.4693 284.143 16.152C284.348 15.8253 284.451 15.4193 284.451 14.934C284.451 14.2807 284.25 13.7813 283.849 13.436C283.448 13.0813 282.813 12.904 281.945 12.904C281.684 12.904 281.385 12.9273 281.049 12.974C280.713 13.0207 280.442 13.0673 280.237 13.114L279.621 12.722L279.999 8.004H285.011V9.124H281.049L280.811 12.022C280.97 11.994 281.184 11.9613 281.455 11.924C281.726 11.8867 282.024 11.868 282.351 11.868ZM293.835 12.988C293.835 13.8 293.774 14.5233 293.653 15.158C293.531 15.7927 293.335 16.334 293.065 16.782C292.803 17.2207 292.458 17.5567 292.029 17.79C291.609 18.0233 291.1 18.14 290.503 18.14C289.756 18.14 289.135 17.9347 288.641 17.524C288.155 17.1133 287.791 16.5253 287.549 15.76C287.315 14.9853 287.199 14.0613 287.199 12.988C287.199 11.9053 287.306 10.9813 287.521 10.216C287.745 9.45067 288.099 8.86733 288.585 8.466C289.07 8.05533 289.709 7.85 290.503 7.85C291.249 7.85 291.87 8.05533 292.365 8.466C292.859 8.86733 293.228 9.45067 293.471 10.216C293.713 10.9813 293.835 11.9053 293.835 12.988ZM288.431 12.988C288.431 13.9027 288.496 14.6633 288.627 15.27C288.767 15.8767 288.986 16.334 289.285 16.642C289.593 16.9407 289.999 17.09 290.503 17.09C291.007 17.09 291.408 16.9407 291.707 16.642C292.015 16.3433 292.239 15.8907 292.379 15.284C292.519 14.668 292.589 13.9027 292.589 12.988C292.589 12.0733 292.519 11.3173 292.379 10.72C292.239 10.1133 292.015 9.66067 291.707 9.362C291.408 9.054 291.007 8.9 290.503 8.9C289.999 8.9 289.593 9.054 289.285 9.362C288.986 9.66067 288.767 10.1133 288.627 10.72C288.496 11.3173 288.431 12.0733 288.431 12.988ZM295.294 13.73C295.294 13.1513 295.332 12.582 295.406 12.022C295.49 11.462 295.63 10.9347 295.826 10.44C296.022 9.936 296.293 9.49267 296.638 9.11C296.984 8.718 297.418 8.41467 297.94 8.2C298.472 7.976 299.116 7.864 299.872 7.864C300.068 7.864 300.283 7.87333 300.516 7.892C300.759 7.91067 300.955 7.94333 301.104 7.99V9.04C300.936 8.984 300.745 8.942 300.53 8.914C300.325 8.886 300.115 8.872 299.9 8.872C299.256 8.872 298.72 8.97933 298.29 9.194C297.861 9.40867 297.52 9.70267 297.268 10.076C297.026 10.4493 296.848 10.8787 296.736 11.364C296.624 11.8493 296.554 12.3673 296.526 12.918H296.61C296.75 12.694 296.928 12.4933 297.142 12.316C297.357 12.1387 297.614 11.9987 297.912 11.896C298.22 11.7933 298.575 11.742 298.976 11.742C299.555 11.742 300.059 11.8633 300.488 12.106C300.927 12.3393 301.268 12.6847 301.51 13.142C301.753 13.59 301.874 14.136 301.874 14.78C301.874 15.4707 301.744 16.068 301.482 16.572C301.221 17.076 300.852 17.4633 300.376 17.734C299.91 18.0047 299.35 18.14 298.696 18.14C298.22 18.14 297.777 18.0513 297.366 17.874C296.956 17.6967 296.592 17.426 296.274 17.062C295.966 16.698 295.724 16.2407 295.546 15.69C295.378 15.13 295.294 14.4767 295.294 13.73ZM298.682 17.104C299.27 17.104 299.746 16.9173 300.11 16.544C300.474 16.1613 300.656 15.5733 300.656 14.78C300.656 14.1453 300.493 13.6413 300.166 13.268C299.849 12.8947 299.368 12.708 298.724 12.708C298.286 12.708 297.903 12.8013 297.576 12.988C297.25 13.1653 296.993 13.394 296.806 13.674C296.629 13.954 296.54 14.2433 296.54 14.542C296.54 14.85 296.582 15.1533 296.666 15.452C296.76 15.7507 296.895 16.026 297.072 16.278C297.259 16.53 297.483 16.7307 297.744 16.88C298.015 17.0293 298.328 17.104 298.682 17.104ZM306.386 11.868C307.067 11.868 307.66 11.9847 308.164 12.218C308.668 12.4513 309.055 12.7873 309.326 13.226C309.606 13.6553 309.746 14.1827 309.746 14.808C309.746 15.4987 309.597 16.096 309.298 16.6C308.999 17.0947 308.57 17.4773 308.01 17.748C307.459 18.0093 306.792 18.14 306.008 18.14C305.495 18.14 305.009 18.0933 304.552 18C304.104 17.9067 303.726 17.7713 303.418 17.594V16.432C303.754 16.6373 304.16 16.8007 304.636 16.922C305.121 17.034 305.583 17.09 306.022 17.09C306.517 17.09 306.946 17.0153 307.31 16.866C307.683 16.7073 307.973 16.4693 308.178 16.152C308.383 15.8253 308.486 15.4193 308.486 14.934C308.486 14.2807 308.285 13.7813 307.884 13.436C307.483 13.0813 306.848 12.904 305.98 12.904C305.719 12.904 305.42 12.9273 305.084 12.974C304.748 13.0207 304.477 13.0673 304.272 13.114L303.656 12.722L304.034 8.004H309.046V9.124H305.084L304.846 12.022C305.005 11.994 305.219 11.9613 305.49 11.924C305.761 11.8867 306.059 11.868 306.386 11.868ZM314.538 7.864C315.126 7.864 315.644 7.95733 316.092 8.144C316.54 8.32133 316.89 8.58733 317.142 8.942C317.403 9.29667 317.534 9.73533 317.534 10.258C317.534 10.6593 317.445 11.0093 317.268 11.308C317.1 11.6067 316.871 11.8727 316.582 12.106C316.293 12.33 315.975 12.5307 315.63 12.708C316.041 12.904 316.414 13.128 316.75 13.38C317.086 13.6227 317.352 13.9073 317.548 14.234C317.753 14.5607 317.856 14.9527 317.856 15.41C317.856 15.97 317.721 16.4553 317.45 16.866C317.179 17.2673 316.797 17.58 316.302 17.804C315.817 18.028 315.243 18.14 314.58 18.14C313.861 18.14 313.25 18.0327 312.746 17.818C312.251 17.6033 311.873 17.3 311.612 16.908C311.36 16.5067 311.234 16.0213 311.234 15.452C311.234 14.9947 311.327 14.598 311.514 14.262C311.71 13.926 311.967 13.6367 312.284 13.394C312.601 13.1513 312.942 12.946 313.306 12.778C312.979 12.5913 312.681 12.3813 312.41 12.148C312.149 11.9053 311.939 11.63 311.78 11.322C311.631 11.014 311.556 10.6547 311.556 10.244C311.556 9.73067 311.687 9.30133 311.948 8.956C312.209 8.60133 312.564 8.33067 313.012 8.144C313.46 7.95733 313.969 7.864 314.538 7.864ZM312.438 15.466C312.438 15.9513 312.611 16.3573 312.956 16.684C313.301 17.0013 313.833 17.16 314.552 17.16C315.009 17.16 315.392 17.0853 315.7 16.936C316.008 16.7867 316.241 16.5813 316.4 16.32C316.568 16.0587 316.652 15.76 316.652 15.424C316.652 15.0973 316.563 14.8127 316.386 14.57C316.218 14.318 315.975 14.094 315.658 13.898C315.35 13.702 314.981 13.5247 314.552 13.366L314.328 13.282C313.917 13.4593 313.572 13.6507 313.292 13.856C313.012 14.0613 312.797 14.2947 312.648 14.556C312.508 14.8173 312.438 15.1207 312.438 15.466ZM314.524 8.858C314.011 8.858 313.586 8.984 313.25 9.236C312.923 9.47867 312.76 9.83333 312.76 10.3C312.76 10.6453 312.839 10.9347 312.998 11.168C313.166 11.4013 313.39 11.602 313.67 11.77C313.95 11.9287 314.258 12.0827 314.594 12.232C314.921 12.092 315.21 11.938 315.462 11.77C315.723 11.602 315.929 11.4013 316.078 11.168C316.237 10.9253 316.316 10.636 316.316 10.3C316.316 9.83333 316.153 9.47867 315.826 9.236C315.499 8.984 315.065 8.858 314.524 8.858ZM322.76 18.14C322.097 18.14 321.504 18.0047 320.982 17.734C320.468 17.4633 320.062 17.0433 319.764 16.474C319.474 15.9047 319.33 15.1767 319.33 14.29C319.33 13.366 319.484 12.6147 319.792 12.036C320.1 11.4573 320.515 11.0327 321.038 10.762C321.57 10.4913 322.172 10.356 322.844 10.356C323.226 10.356 323.595 10.398 323.95 10.482C324.304 10.5567 324.594 10.65 324.818 10.762L324.44 11.784C324.216 11.7 323.954 11.6207 323.656 11.546C323.357 11.4713 323.077 11.434 322.816 11.434C322.312 11.434 321.896 11.5413 321.57 11.756C321.243 11.9707 321 12.288 320.842 12.708C320.683 13.128 320.604 13.6507 320.604 14.276C320.604 14.8733 320.683 15.382 320.842 15.802C321 16.222 321.238 16.5393 321.556 16.754C321.873 16.9687 322.27 17.076 322.746 17.076C323.156 17.076 323.516 17.034 323.824 16.95C324.141 16.866 324.43 16.7633 324.692 16.642V17.734C324.44 17.8647 324.16 17.9627 323.852 18.028C323.553 18.1027 323.189 18.14 322.76 18.14ZM329.374 10.356C330.018 10.356 330.569 10.496 331.026 10.776C331.493 11.056 331.847 11.4527 332.09 11.966C332.342 12.47 332.468 13.0627 332.468 13.744V14.486H327.33C327.349 15.3353 327.563 15.984 327.974 16.432C328.394 16.8707 328.977 17.09 329.724 17.09C330.2 17.09 330.62 17.048 330.984 16.964C331.357 16.8707 331.74 16.74 332.132 16.572V17.65C331.749 17.818 331.371 17.9393 330.998 18.014C330.625 18.098 330.181 18.14 329.668 18.14C328.959 18.14 328.329 17.9953 327.778 17.706C327.237 17.4167 326.812 16.9873 326.504 16.418C326.205 15.8393 326.056 15.1347 326.056 14.304C326.056 13.4827 326.191 12.778 326.462 12.19C326.742 11.602 327.129 11.1493 327.624 10.832C328.128 10.5147 328.711 10.356 329.374 10.356ZM329.36 11.364C328.772 11.364 328.305 11.5553 327.96 11.938C327.624 12.3113 327.423 12.834 327.358 13.506H331.18C331.18 13.0767 331.115 12.7033 330.984 12.386C330.853 12.0687 330.653 11.8213 330.382 11.644C330.121 11.4573 329.78 11.364 329.36 11.364ZM340.132 18H334.546V8.004H340.132V9.11H335.806V12.232H339.88V13.324H335.806V16.894H340.132V18ZM341.738 13.73C341.738 13.1513 341.775 12.582 341.85 12.022C341.934 11.462 342.074 10.9347 342.27 10.44C342.466 9.936 342.736 9.49267 343.082 9.11C343.427 8.718 343.861 8.41467 344.384 8.2C344.916 7.976 345.56 7.864 346.316 7.864C346.512 7.864 346.726 7.87333 346.96 7.892C347.202 7.91067 347.398 7.94333 347.548 7.99V9.04C347.38 8.984 347.188 8.942 346.974 8.914C346.768 8.886 346.558 8.872 346.344 8.872C345.7 8.872 345.163 8.97933 344.734 9.194C344.304 9.40867 343.964 9.70267 343.712 10.076C343.469 10.4493 343.292 10.8787 343.18 11.364C343.068 11.8493 342.998 12.3673 342.97 12.918H343.054C343.194 12.694 343.371 12.4933 343.586 12.316C343.8 12.1387 344.057 11.9987 344.356 11.896C344.664 11.7933 345.018 11.742 345.42 11.742C345.998 11.742 346.502 11.8633 346.932 12.106C347.37 12.3393 347.711 12.6847 347.954 13.142C348.196 13.59 348.318 14.136 348.318 14.78C348.318 15.4707 348.187 16.068 347.926 16.572C347.664 17.076 347.296 17.4633 346.82 17.734C346.353 18.0047 345.793 18.14 345.14 18.14C344.664 18.14 344.22 18.0513 343.81 17.874C343.399 17.6967 343.035 17.426 342.718 17.062C342.41 16.698 342.167 16.2407 341.99 15.69C341.822 15.13 341.738 14.4767 341.738 13.73ZM345.126 17.104C345.714 17.104 346.19 16.9173 346.554 16.544C346.918 16.1613 347.1 15.5733 347.1 14.78C347.1 14.1453 346.936 13.6413 346.61 13.268C346.292 12.8947 345.812 12.708 345.168 12.708C344.729 12.708 344.346 12.8013 344.02 12.988C343.693 13.1653 343.436 13.394 343.25 13.674C343.072 13.954 342.984 14.2433 342.984 14.542C342.984 14.85 343.026 15.1533 343.11 15.452C343.203 15.7507 343.338 16.026 343.516 16.278C343.702 16.53 343.926 16.7307 344.188 16.88C344.458 17.0293 344.771 17.104 345.126 17.104ZM356.259 12.274C356.259 12.8433 356.217 13.4127 356.133 13.982C356.059 14.542 355.923 15.074 355.727 15.578C355.531 16.0727 355.261 16.516 354.915 16.908C354.57 17.2907 354.131 17.594 353.599 17.818C353.067 18.0327 352.423 18.14 351.667 18.14C351.481 18.14 351.261 18.126 351.009 18.098C350.767 18.0793 350.566 18.0467 350.407 18V16.95C350.575 17.006 350.771 17.0527 350.995 17.09C351.219 17.118 351.434 17.132 351.639 17.132C352.293 17.132 352.829 17.0247 353.249 16.81C353.679 16.5953 354.019 16.306 354.271 15.942C354.523 15.5687 354.705 15.1393 354.817 14.654C354.929 14.1593 354.995 13.6413 355.013 13.1H354.929C354.789 13.3147 354.612 13.5107 354.397 13.688C354.183 13.8653 353.921 14.0053 353.613 14.108C353.315 14.2107 352.96 14.262 352.549 14.262C351.98 14.262 351.476 14.1453 351.037 13.912C350.608 13.6693 350.272 13.324 350.029 12.876C349.796 12.428 349.679 11.882 349.679 11.238C349.679 10.538 349.81 9.936 350.071 9.432C350.342 8.928 350.715 8.54067 351.191 8.27C351.667 7.99933 352.227 7.864 352.871 7.864C353.347 7.864 353.791 7.95733 354.201 8.144C354.612 8.32133 354.971 8.592 355.279 8.956C355.587 9.32 355.825 9.77733 355.993 10.328C356.171 10.8787 356.259 11.5273 356.259 12.274ZM352.871 8.9C352.293 8.9 351.817 9.09133 351.443 9.474C351.079 9.85667 350.897 10.44 350.897 11.224C350.897 11.868 351.051 12.3767 351.359 12.75C351.677 13.114 352.162 13.296 352.815 13.296C353.263 13.296 353.651 13.2073 353.977 13.03C354.304 12.8433 354.556 12.61 354.733 12.33C354.92 12.05 355.013 11.7607 355.013 11.462C355.013 11.1633 354.967 10.8647 354.873 10.566C354.789 10.258 354.659 9.978 354.481 9.726C354.304 9.474 354.08 9.27333 353.809 9.124C353.539 8.97467 353.226 8.9 352.871 8.9ZM366.357 12.904C366.357 14.024 366.147 14.962 365.727 15.718C365.317 16.474 364.724 17.0433 363.949 17.426C363.175 17.8087 362.237 18 361.135 18H358.349V8.004H361.429C362.437 8.004 363.31 8.19067 364.047 8.564C364.785 8.93733 365.354 9.488 365.755 10.216C366.157 10.9347 366.357 11.8307 366.357 12.904ZM365.027 12.946C365.027 12.0593 364.878 11.3313 364.579 10.762C364.29 10.1927 363.861 9.77267 363.291 9.502C362.731 9.222 362.05 9.082 361.247 9.082H359.609V16.922H360.967C362.321 16.922 363.333 16.5907 364.005 15.928C364.687 15.256 365.027 14.262 365.027 12.946ZM371.306 10.356C371.95 10.356 372.5 10.496 372.958 10.776C373.424 11.056 373.779 11.4527 374.022 11.966C374.274 12.47 374.4 13.0627 374.4 13.744V14.486H369.262C369.28 15.3353 369.495 15.984 369.906 16.432C370.326 16.8707 370.909 17.09 371.656 17.09C372.132 17.09 372.552 17.048 372.916 16.964C373.289 16.8707 373.672 16.74 374.064 16.572V17.65C373.681 17.818 373.303 17.9393 372.93 18.014C372.556 18.098 372.113 18.14 371.6 18.14C370.89 18.14 370.26 17.9953 369.71 17.706C369.168 17.4167 368.744 16.9873 368.436 16.418C368.137 15.8393 367.988 15.1347 367.988 14.304C367.988 13.4827 368.123 12.778 368.394 12.19C368.674 11.602 369.061 11.1493 369.556 10.832C370.06 10.5147 370.643 10.356 371.306 10.356ZM371.292 11.364C370.704 11.364 370.237 11.5553 369.892 11.938C369.556 12.3113 369.355 12.834 369.29 13.506H373.112C373.112 13.0767 373.046 12.7033 372.916 12.386C372.785 12.0687 372.584 11.8213 372.314 11.644C372.052 11.4573 371.712 11.364 371.292 11.364ZM382.4 18H375.792V16.978L378.41 14.332C378.914 13.828 379.339 13.38 379.684 12.988C380.029 12.596 380.291 12.2133 380.468 11.84C380.645 11.4573 380.734 11.042 380.734 10.594C380.734 10.0433 380.571 9.628 380.244 9.348C379.917 9.05867 379.493 8.914 378.97 8.914C378.485 8.914 378.055 8.998 377.682 9.166C377.318 9.334 376.945 9.56733 376.562 9.866L375.904 9.04C376.165 8.816 376.45 8.61533 376.758 8.438C377.075 8.26067 377.416 8.12067 377.78 8.018C378.153 7.91533 378.55 7.864 378.97 7.864C379.595 7.864 380.132 7.97133 380.58 8.186C381.028 8.40067 381.373 8.70867 381.616 9.11C381.868 9.502 381.994 9.97333 381.994 10.524C381.994 10.916 381.933 11.2893 381.812 11.644C381.691 11.9893 381.518 12.33 381.294 12.666C381.07 13.002 380.799 13.3427 380.482 13.688C380.165 14.0333 379.815 14.3927 379.432 14.766L377.346 16.824V16.88H382.4V18ZM390.86 15.732H389.404V18H388.214V15.732H383.426V14.682L388.13 7.948H389.404V14.626H390.86V15.732ZM388.214 11.476C388.214 11.2333 388.214 11.014 388.214 10.818C388.223 10.6127 388.233 10.4213 388.242 10.244C388.251 10.0667 388.256 9.89867 388.256 9.74C388.265 9.572 388.275 9.41333 388.284 9.264H388.228C388.153 9.44133 388.06 9.63267 387.948 9.838C387.836 10.0433 387.729 10.216 387.626 10.356L384.63 14.626H388.214V11.476ZM395.344 18.14C394.681 18.14 394.088 18.0047 393.566 17.734C393.052 17.4633 392.646 17.0433 392.348 16.474C392.058 15.9047 391.914 15.1767 391.914 14.29C391.914 13.366 392.068 12.6147 392.376 12.036C392.684 11.4573 393.099 11.0327 393.622 10.762C394.154 10.4913 394.756 10.356 395.428 10.356C395.81 10.356 396.179 10.398 396.534 10.482C396.888 10.5567 397.178 10.65 397.402 10.762L397.024 11.784C396.8 11.7 396.538 11.6207 396.24 11.546C395.941 11.4713 395.661 11.434 395.4 11.434C394.896 11.434 394.48 11.5413 394.154 11.756C393.827 11.9707 393.584 12.288 393.426 12.708C393.267 13.128 393.188 13.6507 393.188 14.276C393.188 14.8733 393.267 15.382 393.426 15.802C393.584 16.222 393.822 16.5393 394.14 16.754C394.457 16.9687 394.854 17.076 395.33 17.076C395.74 17.076 396.1 17.034 396.408 16.95C396.725 16.866 397.014 16.7633 397.276 16.642V17.734C397.024 17.8647 396.744 17.9627 396.436 18.028C396.137 18.1027 395.773 18.14 395.344 18.14ZM404.772 10.342C404.772 10.79 404.688 11.1773 404.52 11.504C404.352 11.8307 404.109 12.0967 403.792 12.302C403.484 12.5073 403.12 12.652 402.7 12.736V12.792C403.503 12.8853 404.1 13.1373 404.492 13.548C404.884 13.9587 405.08 14.4953 405.08 15.158C405.08 15.7367 404.945 16.2547 404.674 16.712C404.403 17.16 403.983 17.51 403.414 17.762C402.854 18.014 402.131 18.14 401.244 18.14C400.721 18.14 400.236 18.098 399.788 18.014C399.34 17.9393 398.911 17.7993 398.5 17.594V16.446C398.92 16.6513 399.373 16.8147 399.858 16.936C400.343 17.048 400.81 17.104 401.258 17.104C402.154 17.104 402.798 16.9313 403.19 16.586C403.591 16.2313 403.792 15.746 403.792 15.13C403.792 14.71 403.68 14.374 403.456 14.122C403.241 13.8607 402.924 13.6693 402.504 13.548C402.084 13.4267 401.58 13.366 400.992 13.366H400.026V12.316H401.006C401.557 12.316 402.014 12.2367 402.378 12.078C402.751 11.9193 403.031 11.7 403.218 11.42C403.414 11.1307 403.512 10.7993 403.512 10.426C403.512 9.94067 403.349 9.56733 403.022 9.306C402.695 9.03533 402.252 8.9 401.692 8.9C401.337 8.9 401.015 8.93733 400.726 9.012C400.437 9.07733 400.166 9.17533 399.914 9.306C399.671 9.42733 399.424 9.572 399.172 9.74L398.556 8.9C398.799 8.71333 399.074 8.54067 399.382 8.382C399.699 8.22333 400.049 8.09733 400.432 8.004C400.815 7.91067 401.23 7.864 401.678 7.864C402.723 7.864 403.498 8.09733 404.002 8.564C404.515 9.03067 404.772 9.62333 404.772 10.342ZM409.732 11.868C410.413 11.868 411.006 11.9847 411.51 12.218C412.014 12.4513 412.401 12.7873 412.672 13.226C412.952 13.6553 413.092 14.1827 413.092 14.808C413.092 15.4987 412.943 16.096 412.644 16.6C412.345 17.0947 411.916 17.4773 411.356 17.748C410.805 18.0093 410.138 18.14 409.354 18.14C408.841 18.14 408.355 18.0933 407.898 18C407.45 17.9067 407.072 17.7713 406.764 17.594V16.432C407.1 16.6373 407.506 16.8007 407.982 16.922C408.467 17.034 408.929 17.09 409.368 17.09C409.863 17.09 410.292 17.0153 410.656 16.866C411.029 16.7073 411.319 16.4693 411.524 16.152C411.729 15.8253 411.832 15.4193 411.832 14.934C411.832 14.2807 411.631 13.7813 411.23 13.436C410.829 13.0813 410.194 12.904 409.326 12.904C409.065 12.904 408.766 12.9273 408.43 12.974C408.094 13.0207 407.823 13.0673 407.618 13.114L407.002 12.722L407.38 8.004H412.392V9.124H408.43L408.192 12.022C408.351 11.994 408.565 11.9613 408.836 11.924C409.107 11.8867 409.405 11.868 409.732 11.868ZM417.744 11.868C418.425 11.868 419.018 11.9847 419.522 12.218C420.026 12.4513 420.413 12.7873 420.684 13.226C420.964 13.6553 421.104 14.1827 421.104 14.808C421.104 15.4987 420.954 16.096 420.656 16.6C420.357 17.0947 419.928 17.4773 419.368 17.748C418.817 18.0093 418.15 18.14 417.366 18.14C416.852 18.14 416.367 18.0933 415.91 18C415.462 17.9067 415.084 17.7713 414.776 17.594V16.432C415.112 16.6373 415.518 16.8007 415.994 16.922C416.479 17.034 416.941 17.09 417.38 17.09C417.874 17.09 418.304 17.0153 418.668 16.866C419.041 16.7073 419.33 16.4693 419.536 16.152C419.741 15.8253 419.844 15.4193 419.844 14.934C419.844 14.2807 419.643 13.7813 419.242 13.436C418.84 13.0813 418.206 12.904 417.338 12.904C417.076 12.904 416.778 12.9273 416.442 12.974C416.106 13.0207 415.835 13.0673 415.63 13.114L415.014 12.722L415.392 8.004H420.404V9.124H416.442L416.204 12.022C416.362 11.994 416.577 11.9613 416.848 11.924C417.118 11.8867 417.417 11.868 417.744 11.868ZM429.633 15.732H428.177V18H426.987V15.732H422.199V14.682L426.903 7.948H428.177V14.626H429.633V15.732ZM426.987 11.476C426.987 11.2333 426.987 11.014 426.987 10.818C426.997 10.6127 427.006 10.4213 427.015 10.244C427.025 10.0667 427.029 9.89867 427.029 9.74C427.039 9.572 427.048 9.41333 427.057 9.264H427.001C426.927 9.44133 426.833 9.63267 426.721 9.838C426.609 10.0433 426.502 10.216 426.399 10.356L423.403 14.626H426.987V11.476ZM430.687 13.73C430.687 13.1513 430.724 12.582 430.799 12.022C430.883 11.462 431.023 10.9347 431.219 10.44C431.415 9.936 431.686 9.49267 432.031 9.11C432.376 8.718 432.81 8.41467 433.333 8.2C433.865 7.976 434.509 7.864 435.265 7.864C435.461 7.864 435.676 7.87333 435.909 7.892C436.152 7.91067 436.348 7.94333 436.497 7.99V9.04C436.329 8.984 436.138 8.942 435.923 8.914C435.718 8.886 435.508 8.872 435.293 8.872C434.649 8.872 434.112 8.97933 433.683 9.194C433.254 9.40867 432.913 9.70267 432.661 10.076C432.418 10.4493 432.241 10.8787 432.129 11.364C432.017 11.8493 431.947 12.3673 431.919 12.918H432.003C432.143 12.694 432.32 12.4933 432.535 12.316C432.75 12.1387 433.006 11.9987 433.305 11.896C433.613 11.7933 433.968 11.742 434.369 11.742C434.948 11.742 435.452 11.8633 435.881 12.106C436.32 12.3393 436.66 12.6847 436.903 13.142C437.146 13.59 437.267 14.136 437.267 14.78C437.267 15.4707 437.136 16.068 436.875 16.572C436.614 17.076 436.245 17.4633 435.769 17.734C435.302 18.0047 434.742 18.14 434.089 18.14C433.613 18.14 433.17 18.0513 432.759 17.874C432.348 17.6967 431.984 17.426 431.667 17.062C431.359 16.698 431.116 16.2407 430.939 15.69C430.771 15.13 430.687 14.4767 430.687 13.73ZM434.075 17.104C434.663 17.104 435.139 16.9173 435.503 16.544C435.867 16.1613 436.049 15.5733 436.049 14.78C436.049 14.1453 435.886 13.6413 435.559 13.268C435.242 12.8947 434.761 12.708 434.117 12.708C433.678 12.708 433.296 12.8013 432.969 12.988C432.642 13.1653 432.386 13.394 432.199 13.674C432.022 13.954 431.933 14.2433 431.933 14.542C431.933 14.85 431.975 15.1533 432.059 15.452C432.152 15.7507 432.288 16.026 432.465 16.278C432.652 16.53 432.876 16.7307 433.137 16.88C433.408 17.0293 433.72 17.104 434.075 17.104ZM445.209 18H438.601V16.978L441.219 14.332C441.723 13.828 442.147 13.38 442.493 12.988C442.838 12.596 443.099 12.2133 443.277 11.84C443.454 11.4573 443.543 11.042 443.543 10.594C443.543 10.0433 443.379 9.628 443.053 9.348C442.726 9.05867 442.301 8.914 441.779 8.914C441.293 8.914 440.864 8.998 440.491 9.166C440.127 9.334 439.753 9.56733 439.371 9.866L438.713 9.04C438.974 8.816 439.259 8.61533 439.567 8.438C439.884 8.26067 440.225 8.12067 440.589 8.018C440.962 7.91533 441.359 7.864 441.779 7.864C442.404 7.864 442.941 7.97133 443.389 8.186C443.837 8.40067 444.182 8.70867 444.425 9.11C444.677 9.502 444.803 9.97333 444.803 10.524C444.803 10.916 444.742 11.2893 444.621 11.644C444.499 11.9893 444.327 12.33 444.103 12.666C443.879 13.002 443.608 13.3427 443.291 13.688C442.973 14.0333 442.623 14.3927 442.241 14.766L440.155 16.824V16.88H445.209V18ZM446.71 13.73C446.71 13.1513 446.748 12.582 446.822 12.022C446.906 11.462 447.046 10.9347 447.242 10.44C447.438 9.936 447.709 9.49267 448.054 9.11C448.4 8.718 448.834 8.41467 449.356 8.2C449.888 7.976 450.532 7.864 451.288 7.864C451.484 7.864 451.699 7.87333 451.932 7.892C452.175 7.91067 452.371 7.94333 452.52 7.99V9.04C452.352 8.984 452.161 8.942 451.946 8.914C451.741 8.886 451.531 8.872 451.316 8.872C450.672 8.872 450.136 8.97933 449.706 9.194C449.277 9.40867 448.936 9.70267 448.684 10.076C448.442 10.4493 448.264 10.8787 448.152 11.364C448.04 11.8493 447.97 12.3673 447.942 12.918H448.026C448.166 12.694 448.344 12.4933 448.558 12.316C448.773 12.1387 449.03 11.9987 449.328 11.896C449.636 11.7933 449.991 11.742 450.392 11.742C450.971 11.742 451.475 11.8633 451.904 12.106C452.343 12.3393 452.684 12.6847 452.926 13.142C453.169 13.59 453.29 14.136 453.29 14.78C453.29 15.4707 453.16 16.068 452.898 16.572C452.637 17.076 452.268 17.4633 451.792 17.734C451.326 18.0047 450.766 18.14 450.112 18.14C449.636 18.14 449.193 18.0513 448.782 17.874C448.372 17.6967 448.008 17.426 447.69 17.062C447.382 16.698 447.14 16.2407 446.962 15.69C446.794 15.13 446.71 14.4767 446.71 13.73ZM450.098 17.104C450.686 17.104 451.162 16.9173 451.526 16.544C451.89 16.1613 452.072 15.5733 452.072 14.78C452.072 14.1453 451.909 13.6413 451.582 13.268C451.265 12.8947 450.784 12.708 450.14 12.708C449.702 12.708 449.319 12.8013 448.992 12.988C448.666 13.1653 448.409 13.394 448.222 13.674C448.045 13.954 447.956 14.2433 447.956 14.542C447.956 14.85 447.998 15.1533 448.082 15.452C448.176 15.7507 448.311 16.026 448.488 16.278C448.675 16.53 448.899 16.7307 449.16 16.88C449.431 17.0293 449.744 17.104 450.098 17.104ZM460.854 10.342C460.854 10.79 460.77 11.1773 460.602 11.504C460.434 11.8307 460.191 12.0967 459.874 12.302C459.566 12.5073 459.202 12.652 458.782 12.736V12.792C459.585 12.8853 460.182 13.1373 460.574 13.548C460.966 13.9587 461.162 14.4953 461.162 15.158C461.162 15.7367 461.027 16.2547 460.756 16.712C460.485 17.16 460.065 17.51 459.496 17.762C458.936 18.014 458.213 18.14 457.326 18.14C456.803 18.14 456.318 18.098 455.87 18.014C455.422 17.9393 454.993 17.7993 454.582 17.594V16.446C455.002 16.6513 455.455 16.8147 455.94 16.936C456.425 17.048 456.892 17.104 457.34 17.104C458.236 17.104 458.88 16.9313 459.272 16.586C459.673 16.2313 459.874 15.746 459.874 15.13C459.874 14.71 459.762 14.374 459.538 14.122C459.323 13.8607 459.006 13.6693 458.586 13.548C458.166 13.4267 457.662 13.366 457.074 13.366H456.108V12.316H457.088C457.639 12.316 458.096 12.2367 458.46 12.078C458.833 11.9193 459.113 11.7 459.3 11.42C459.496 11.1307 459.594 10.7993 459.594 10.426C459.594 9.94067 459.431 9.56733 459.104 9.306C458.777 9.03533 458.334 8.9 457.774 8.9C457.419 8.9 457.097 8.93733 456.808 9.012C456.519 9.07733 456.248 9.17533 455.996 9.306C455.753 9.42733 455.506 9.572 455.254 9.74L454.638 8.9C454.881 8.71333 455.156 8.54067 455.464 8.382C455.781 8.22333 456.131 8.09733 456.514 8.004C456.897 7.91067 457.312 7.864 457.76 7.864C458.805 7.864 459.58 8.09733 460.084 8.564C460.597 9.03067 460.854 9.62333 460.854 10.342ZM466.612 11.448H464.722V18H463.49V11.448H462.174V10.874L463.49 10.454V10.02C463.49 9.376 463.583 8.85333 463.77 8.452C463.966 8.05067 464.246 7.75667 464.61 7.57C464.974 7.38333 465.413 7.29 465.926 7.29C466.225 7.29 466.495 7.318 466.738 7.374C466.99 7.42067 467.205 7.47667 467.382 7.542L467.06 8.508C466.911 8.46133 466.738 8.41467 466.542 8.368C466.346 8.32133 466.145 8.298 465.94 8.298C465.529 8.298 465.221 8.438 465.016 8.718C464.82 8.98867 464.722 9.418 464.722 10.006V10.496H466.612V11.448ZM474.098 12.988C474.098 13.8 474.038 14.5233 473.916 15.158C473.795 15.7927 473.599 16.334 473.328 16.782C473.067 17.2207 472.722 17.5567 472.292 17.79C471.872 18.0233 471.364 18.14 470.766 18.14C470.02 18.14 469.399 17.9347 468.904 17.524C468.419 17.1133 468.055 16.5253 467.812 15.76C467.579 14.9853 467.462 14.0613 467.462 12.988C467.462 11.9053 467.57 10.9813 467.784 10.216C468.008 9.45067 468.363 8.86733 468.848 8.466C469.334 8.05533 469.973 7.85 470.766 7.85C471.513 7.85 472.134 8.05533 472.628 8.466C473.123 8.86733 473.492 9.45067 473.734 10.216C473.977 10.9813 474.098 11.9053 474.098 12.988ZM468.694 12.988C468.694 13.9027 468.76 14.6633 468.89 15.27C469.03 15.8767 469.25 16.334 469.548 16.642C469.856 16.9407 470.262 17.09 470.766 17.09C471.27 17.09 471.672 16.9407 471.97 16.642C472.278 16.3433 472.502 15.8907 472.642 15.284C472.782 14.668 472.852 13.9027 472.852 12.988C472.852 12.0733 472.782 11.3173 472.642 10.72C472.502 10.1133 472.278 9.66067 471.97 9.362C471.672 9.054 471.27 8.9 470.766 8.9C470.262 8.9 469.856 9.054 469.548 9.362C469.25 9.66067 469.03 10.1133 468.89 10.72C468.76 11.3173 468.694 12.0733 468.694 12.988ZM475.558 13.73C475.558 13.1513 475.595 12.582 475.67 12.022C475.754 11.462 475.894 10.9347 476.09 10.44C476.286 9.936 476.557 9.49267 476.902 9.11C477.247 8.718 477.681 8.41467 478.204 8.2C478.736 7.976 479.38 7.864 480.136 7.864C480.332 7.864 480.547 7.87333 480.78 7.892C481.023 7.91067 481.219 7.94333 481.368 7.99V9.04C481.2 8.984 481.009 8.942 480.794 8.914C480.589 8.886 480.379 8.872 480.164 8.872C479.52 8.872 478.983 8.97933 478.554 9.194C478.125 9.40867 477.784 9.70267 477.532 10.076C477.289 10.4493 477.112 10.8787 477 11.364C476.888 11.8493 476.818 12.3673 476.79 12.918H476.874C477.014 12.694 477.191 12.4933 477.406 12.316C477.621 12.1387 477.877 11.9987 478.176 11.896C478.484 11.7933 478.839 11.742 479.24 11.742C479.819 11.742 480.323 11.8633 480.752 12.106C481.191 12.3393 481.531 12.6847 481.774 13.142C482.017 13.59 482.138 14.136 482.138 14.78C482.138 15.4707 482.007 16.068 481.746 16.572C481.485 17.076 481.116 17.4633 480.64 17.734C480.173 18.0047 479.613 18.14 478.96 18.14C478.484 18.14 478.041 18.0513 477.63 17.874C477.219 17.6967 476.855 17.426 476.538 17.062C476.23 16.698 475.987 16.2407 475.81 15.69C475.642 15.13 475.558 14.4767 475.558 13.73ZM478.946 17.104C479.534 17.104 480.01 16.9173 480.374 16.544C480.738 16.1613 480.92 15.5733 480.92 14.78C480.92 14.1453 480.757 13.6413 480.43 13.268C480.113 12.8947 479.632 12.708 478.988 12.708C478.549 12.708 478.167 12.8013 477.84 12.988C477.513 13.1653 477.257 13.394 477.07 13.674C476.893 13.954 476.804 14.2433 476.804 14.542C476.804 14.85 476.846 15.1533 476.93 15.452C477.023 15.7507 477.159 16.026 477.336 16.278C477.523 16.53 477.747 16.7307 478.008 16.88C478.279 17.0293 478.591 17.104 478.946 17.104ZM490.43 18L489.226 14.906H485.264L484.074 18H482.8L486.706 7.962H487.84L491.732 18H490.43ZM487.728 10.762C487.7 10.6873 487.653 10.552 487.588 10.356C487.522 10.16 487.457 9.95933 487.392 9.754C487.336 9.53933 487.289 9.376 487.252 9.264C487.205 9.45067 487.154 9.642 487.098 9.838C487.051 10.0247 487 10.1973 486.944 10.356C486.897 10.5147 486.855 10.65 486.818 10.762L485.684 13.786H488.848L487.728 10.762ZM499.021 18H492.413V16.978L495.031 14.332C495.535 13.828 495.96 13.38 496.305 12.988C496.651 12.596 496.912 12.2133 497.089 11.84C497.267 11.4573 497.355 11.042 497.355 10.594C497.355 10.0433 497.192 9.628 496.865 9.348C496.539 9.05867 496.114 8.914 495.591 8.914C495.106 8.914 494.677 8.998 494.303 9.166C493.939 9.334 493.566 9.56733 493.183 9.866L492.525 9.04C492.787 8.816 493.071 8.61533 493.379 8.438C493.697 8.26067 494.037 8.12067 494.401 8.018C494.775 7.91533 495.171 7.864 495.591 7.864C496.217 7.864 496.753 7.97133 497.201 8.186C497.649 8.40067 497.995 8.70867 498.237 9.11C498.489 9.502 498.615 9.97333 498.615 10.524C498.615 10.916 498.555 11.2893 498.433 11.644C498.312 11.9893 498.139 12.33 497.915 12.666C497.691 13.002 497.421 13.3427 497.103 13.688C496.786 14.0333 496.436 14.3927 496.053 14.766L493.967 16.824V16.88H499.021V18ZM504.723 18H503.519V11.014C503.519 10.7433 503.519 10.5147 503.519 10.328C503.528 10.1413 503.538 9.96867 503.547 9.81C503.556 9.642 503.566 9.46933 503.575 9.292C503.426 9.44133 503.29 9.56733 503.169 9.67C503.048 9.77267 502.894 9.90333 502.707 10.062L501.643 10.93L500.999 10.104L503.701 8.004H504.723V18ZM515.087 12.988C515.087 13.8 515.026 14.5233 514.905 15.158C514.783 15.7927 514.587 16.334 514.317 16.782C514.055 17.2207 513.71 17.5567 513.281 17.79C512.861 18.0233 512.352 18.14 511.755 18.14C511.008 18.14 510.387 17.9347 509.893 17.524C509.407 17.1133 509.043 16.5253 508.801 15.76C508.567 14.9853 508.451 14.0613 508.451 12.988C508.451 11.9053 508.558 10.9813 508.773 10.216C508.997 9.45067 509.351 8.86733 509.837 8.466C510.322 8.05533 510.961 7.85 511.755 7.85C512.501 7.85 513.122 8.05533 513.617 8.466C514.111 8.86733 514.48 9.45067 514.723 10.216C514.965 10.9813 515.087 11.9053 515.087 12.988ZM509.683 12.988C509.683 13.9027 509.748 14.6633 509.879 15.27C510.019 15.8767 510.238 16.334 510.537 16.642C510.845 16.9407 511.251 17.09 511.755 17.09C512.259 17.09 512.66 16.9407 512.959 16.642C513.267 16.3433 513.491 15.8907 513.631 15.284C513.771 14.668 513.841 13.9027 513.841 12.988C513.841 12.0733 513.771 11.3173 513.631 10.72C513.491 10.1133 513.267 9.66067 512.959 9.362C512.66 9.054 512.259 8.9 511.755 8.9C511.251 8.9 510.845 9.054 510.537 9.362C510.238 9.66067 510.019 10.1133 509.879 10.72C509.748 11.3173 509.683 12.0733 509.683 12.988ZM519.808 10.37C520.723 10.37 521.4 10.5707 521.838 10.972C522.277 11.3733 522.496 12.0127 522.496 12.89V18H521.6L521.362 16.936H521.306C521.092 17.2067 520.868 17.4353 520.634 17.622C520.41 17.7993 520.149 17.93 519.85 18.014C519.561 18.098 519.206 18.14 518.786 18.14C518.338 18.14 517.932 18.0607 517.568 17.902C517.214 17.7433 516.934 17.5007 516.728 17.174C516.523 16.838 516.42 16.418 516.42 15.914C516.42 15.1673 516.714 14.5933 517.302 14.192C517.89 13.7813 518.796 13.5573 520.018 13.52L521.292 13.478V13.03C521.292 12.4047 521.157 11.9707 520.886 11.728C520.616 11.4853 520.233 11.364 519.738 11.364C519.346 11.364 518.973 11.4247 518.618 11.546C518.264 11.658 517.932 11.7887 517.624 11.938L517.246 11.014C517.573 10.8367 517.96 10.6873 518.408 10.566C518.856 10.4353 519.323 10.37 519.808 10.37ZM520.172 14.374C519.239 14.4113 518.59 14.5607 518.226 14.822C517.872 15.0833 517.694 15.452 517.694 15.928C517.694 16.348 517.82 16.656 518.072 16.852C518.334 17.048 518.665 17.146 519.066 17.146C519.701 17.146 520.228 16.9733 520.648 16.628C521.068 16.2733 521.278 15.732 521.278 15.004V14.332L520.172 14.374ZM532.99 12.904C532.99 14.024 532.78 14.962 532.36 15.718C531.949 16.474 531.357 17.0433 530.582 17.426C529.807 17.8087 528.869 18 527.768 18H524.982V8.004H528.062C529.07 8.004 529.943 8.19067 530.68 8.564C531.417 8.93733 531.987 9.488 532.388 10.216C532.789 10.9347 532.99 11.8307 532.99 12.904ZM531.66 12.946C531.66 12.0593 531.511 11.3313 531.212 10.762C530.923 10.1927 530.493 9.77267 529.924 9.502C529.364 9.222 528.683 9.082 527.88 9.082H526.242V16.922H527.6C528.953 16.922 529.966 16.5907 530.638 15.928C531.319 15.256 531.66 14.262 531.66 12.946ZM541.579 15.732H540.123V18H538.933V15.732H534.145V14.682L538.849 7.948H540.123V14.626H541.579V15.732ZM538.933 11.476C538.933 11.2333 538.933 11.014 538.933 10.818C538.942 10.6127 538.951 10.4213 538.961 10.244C538.97 10.0667 538.975 9.89867 538.975 9.74C538.984 9.572 538.993 9.41333 539.003 9.264H538.947C538.872 9.44133 538.779 9.63267 538.667 9.838C538.555 10.0433 538.447 10.216 538.345 10.356L535.349 14.626H538.933V11.476ZM549.142 18H542.534V16.978L545.152 14.332C545.656 13.828 546.081 13.38 546.426 12.988C546.772 12.596 547.033 12.2133 547.21 11.84C547.388 11.4573 547.476 11.042 547.476 10.594C547.476 10.0433 547.313 9.628 546.986 9.348C546.66 9.05867 546.235 8.914 545.712 8.914C545.227 8.914 544.798 8.998 544.424 9.166C544.06 9.334 543.687 9.56733 543.304 9.866L542.646 9.04C542.908 8.816 543.192 8.61533 543.5 8.438C543.818 8.26067 544.158 8.12067 544.522 8.018C544.896 7.91533 545.292 7.864 545.712 7.864C546.338 7.864 546.874 7.97133 547.322 8.186C547.77 8.40067 548.116 8.70867 548.358 9.11C548.61 9.502 548.736 9.97333 548.736 10.524C548.736 10.916 548.676 11.2893 548.554 11.644C548.433 11.9893 548.26 12.33 548.036 12.666C547.812 13.002 547.542 13.3427 547.224 13.688C546.907 14.0333 546.557 14.3927 546.174 14.766L544.088 16.824V16.88H549.142V18ZM556.776 10.342C556.776 10.79 556.692 11.1773 556.524 11.504C556.356 11.8307 556.113 12.0967 555.796 12.302C555.488 12.5073 555.124 12.652 554.704 12.736V12.792C555.507 12.8853 556.104 13.1373 556.496 13.548C556.888 13.9587 557.084 14.4953 557.084 15.158C557.084 15.7367 556.949 16.2547 556.678 16.712C556.407 17.16 555.987 17.51 555.418 17.762C554.858 18.014 554.135 18.14 553.248 18.14C552.725 18.14 552.24 18.098 551.792 18.014C551.344 17.9393 550.915 17.7993 550.504 17.594V16.446C550.924 16.6513 551.377 16.8147 551.862 16.936C552.347 17.048 552.814 17.104 553.262 17.104C554.158 17.104 554.802 16.9313 555.194 16.586C555.595 16.2313 555.796 15.746 555.796 15.13C555.796 14.71 555.684 14.374 555.46 14.122C555.245 13.8607 554.928 13.6693 554.508 13.548C554.088 13.4267 553.584 13.366 552.996 13.366H552.03V12.316H553.01C553.561 12.316 554.018 12.2367 554.382 12.078C554.755 11.9193 555.035 11.7 555.222 11.42C555.418 11.1307 555.516 10.7993 555.516 10.426C555.516 9.94067 555.353 9.56733 555.026 9.306C554.699 9.03533 554.256 8.9 553.696 8.9C553.341 8.9 553.019 8.93733 552.73 9.012C552.441 9.07733 552.17 9.17533 551.918 9.306C551.675 9.42733 551.428 9.572 551.176 9.74L550.56 8.9C550.803 8.71333 551.078 8.54067 551.386 8.382C551.703 8.22333 552.053 8.09733 552.436 8.004C552.819 7.91067 553.234 7.864 553.682 7.864C554.727 7.864 555.502 8.09733 556.006 8.564C556.519 9.03067 556.776 9.62333 556.776 10.342ZM558.656 13.73C558.656 13.1513 558.693 12.582 558.768 12.022C558.852 11.462 558.992 10.9347 559.188 10.44C559.384 9.936 559.654 9.49267 560 9.11C560.345 8.718 560.779 8.41467 561.302 8.2C561.834 7.976 562.478 7.864 563.234 7.864C563.43 7.864 563.644 7.87333 563.878 7.892C564.12 7.91067 564.316 7.94333 564.466 7.99V9.04C564.298 8.984 564.106 8.942 563.892 8.914C563.686 8.886 563.476 8.872 563.262 8.872C562.618 8.872 562.081 8.97933 561.652 9.194C561.222 9.40867 560.882 9.70267 560.63 10.076C560.387 10.4493 560.21 10.8787 560.098 11.364C559.986 11.8493 559.916 12.3673 559.888 12.918H559.972C560.112 12.694 560.289 12.4933 560.504 12.316C560.718 12.1387 560.975 11.9987 561.274 11.896C561.582 11.7933 561.936 11.742 562.338 11.742C562.916 11.742 563.42 11.8633 563.85 12.106C564.288 12.3393 564.629 12.6847 564.872 13.142C565.114 13.59 565.236 14.136 565.236 14.78C565.236 15.4707 565.105 16.068 564.844 16.572C564.582 17.076 564.214 17.4633 563.738 17.734C563.271 18.0047 562.711 18.14 562.058 18.14C561.582 18.14 561.138 18.0513 560.728 17.874C560.317 17.6967 559.953 17.426 559.636 17.062C559.328 16.698 559.085 16.2407 558.908 15.69C558.74 15.13 558.656 14.4767 558.656 13.73ZM562.044 17.104C562.632 17.104 563.108 16.9173 563.472 16.544C563.836 16.1613 564.018 15.5733 564.018 14.78C564.018 14.1453 563.854 13.6413 563.528 13.268C563.21 12.8947 562.73 12.708 562.086 12.708C561.647 12.708 561.264 12.8013 560.938 12.988C560.611 13.1653 560.354 13.394 560.168 13.674C559.99 13.954 559.902 14.2433 559.902 14.542C559.902 14.85 559.944 15.1533 560.028 15.452C560.121 15.7507 560.256 16.026 560.434 16.278C560.62 16.53 560.844 16.7307 561.106 16.88C561.376 17.0293 561.689 17.104 562.044 17.104Z" fill="white"/>
</svg>
