<svg width="580" height="25" viewBox="0 0 580 25" fill="none" xmlns="http://www.w3.org/2000/svg">
<rect width="580" height="25" fill="#555555"/>
<rect x="220" width="360" height="25" fill="#6E33D1"/>
<path d="M25.4307 13.472C25.4307 14.1627 25.2907 14.788 25.0107 15.348C24.7307 15.8987 24.3014 16.3373 23.7227 16.664C23.1534 16.9813 22.4254 17.14 21.5387 17.14C20.2974 17.14 19.35 16.804 18.6967 16.132C18.0527 15.4507 17.7307 14.5547 17.7307 13.444V7.004H18.9907V13.486C18.9907 14.298 19.2054 14.928 19.6347 15.376C20.0734 15.824 20.7314 16.048 21.6087 16.048C22.2154 16.048 22.7054 15.9407 23.0787 15.726C23.4614 15.502 23.7414 15.1987 23.9187 14.816C24.096 14.424 24.1847 13.976 24.1847 13.472V7.004H25.4307V13.472ZM33.7389 14.326C33.7389 14.9233 33.5943 15.432 33.3049 15.852C33.0156 16.2627 32.6003 16.58 32.0589 16.804C31.5269 17.028 30.8969 17.14 30.1689 17.14C29.7956 17.14 29.4363 17.1213 29.0909 17.084C28.7549 17.0467 28.4469 16.9953 28.1669 16.93C27.8869 16.8553 27.6396 16.7667 27.4249 16.664V15.46C27.7609 15.6093 28.1763 15.7447 28.6709 15.866C29.1749 15.9873 29.6929 16.048 30.2249 16.048C30.7196 16.048 31.1349 15.9827 31.4709 15.852C31.8069 15.7213 32.0589 15.5347 32.2269 15.292C32.3949 15.0493 32.4789 14.7647 32.4789 14.438C32.4789 14.1113 32.4089 13.836 32.2689 13.612C32.1289 13.388 31.8863 13.1827 31.5409 12.996C31.2049 12.8 30.7336 12.5947 30.1269 12.38C29.6976 12.2213 29.3196 12.0533 28.9929 11.876C28.6756 11.6893 28.4096 11.4793 28.1949 11.246C27.9803 11.0127 27.8169 10.7467 27.7049 10.448C27.6023 10.1493 27.5509 9.804 27.5509 9.412C27.5509 8.88 27.6863 8.42733 27.9569 8.054C28.2276 7.67133 28.6009 7.37733 29.0769 7.172C29.5623 6.96667 30.1176 6.864 30.7429 6.864C31.2936 6.864 31.7976 6.91533 32.2549 7.018C32.7123 7.12067 33.1276 7.256 33.5009 7.424L33.1089 8.502C32.7636 8.35267 32.3856 8.22667 31.9749 8.124C31.5736 8.02133 31.1536 7.97 30.7149 7.97C30.2949 7.97 29.9449 8.03067 29.6649 8.152C29.3849 8.27333 29.1749 8.446 29.0349 8.67C28.8949 8.88467 28.8249 9.13667 28.8249 9.426C28.8249 9.762 28.8949 10.042 29.0349 10.266C29.1749 10.49 29.4036 10.6907 29.7209 10.868C30.0383 11.0453 30.4676 11.2367 31.0089 11.442C31.5969 11.6567 32.0916 11.89 32.4929 12.142C32.9036 12.3847 33.2116 12.6787 33.4169 13.024C33.6316 13.3693 33.7389 13.8033 33.7389 14.326ZM43.7605 11.904C43.7605 13.024 43.5505 13.962 43.1305 14.718C42.7199 15.474 42.1272 16.0433 41.3525 16.426C40.5779 16.8087 39.6399 17 38.5385 17H35.7525V7.004H38.8325C39.8405 7.004 40.7132 7.19067 41.4505 7.564C42.1879 7.93733 42.7572 8.488 43.1585 9.216C43.5599 9.93467 43.7605 10.8307 43.7605 11.904ZM42.4305 11.946C42.4305 11.0593 42.2812 10.3313 41.9825 9.762C41.6932 9.19267 41.2639 8.77267 40.6945 8.502C40.1345 8.222 39.4532 8.082 38.6505 8.082H37.0125V15.922H38.3705C39.7239 15.922 40.7365 15.5907 41.4085 14.928C42.0899 14.256 42.4305 13.262 42.4305 11.946ZM53.8998 7.97C53.3678 7.97 52.8871 8.06333 52.4578 8.25C52.0285 8.42733 51.6645 8.69333 51.3658 9.048C51.0671 9.39333 50.8385 9.818 50.6798 10.322C50.5211 10.8167 50.4418 11.3767 50.4418 12.002C50.4418 12.8233 50.5678 13.5373 50.8198 14.144C51.0811 14.7507 51.4638 15.2173 51.9678 15.544C52.4811 15.8707 53.1205 16.034 53.8858 16.034C54.3245 16.034 54.7398 15.9967 55.1318 15.922C55.5238 15.8473 55.9065 15.754 56.2798 15.642V16.734C55.9065 16.874 55.5191 16.9767 55.1178 17.042C54.7258 17.1073 54.2545 17.14 53.7038 17.14C52.6865 17.14 51.8371 16.93 51.1558 16.51C50.4745 16.09 49.9611 15.4927 49.6158 14.718C49.2798 13.9433 49.1118 13.0333 49.1118 11.988C49.1118 11.232 49.2145 10.5413 49.4198 9.916C49.6345 9.29067 49.9425 8.74933 50.3438 8.292C50.7545 7.83467 51.2585 7.48467 51.8558 7.242C52.4531 6.99 53.1391 6.864 53.9138 6.864C54.4271 6.864 54.9218 6.91533 55.3978 7.018C55.8738 7.12067 56.2985 7.26533 56.6718 7.452L56.1678 8.516C55.8598 8.376 55.5145 8.25 55.1318 8.138C54.7585 8.026 54.3478 7.97 53.8998 7.97ZM64.8175 13.234C64.8175 13.8593 64.7335 14.4147 64.5655 14.9C64.4068 15.376 64.1735 15.782 63.8655 16.118C63.5668 16.454 63.1982 16.7107 62.7595 16.888C62.3302 17.056 61.8495 17.14 61.3175 17.14C60.8228 17.14 60.3655 17.056 59.9455 16.888C59.5255 16.7107 59.1615 16.454 58.8535 16.118C58.5455 15.782 58.3028 15.376 58.1255 14.9C57.9575 14.4147 57.8735 13.8593 57.8735 13.234C57.8735 12.4033 58.0135 11.7033 58.2935 11.134C58.5735 10.5553 58.9748 10.1167 59.4975 9.818C60.0202 9.51 60.6408 9.356 61.3595 9.356C62.0408 9.356 62.6382 9.51 63.1515 9.818C63.6742 10.1167 64.0802 10.5553 64.3695 11.134C64.6682 11.7033 64.8175 12.4033 64.8175 13.234ZM59.1475 13.234C59.1475 13.822 59.2222 14.3353 59.3715 14.774C59.5302 15.2033 59.7728 15.5347 60.0995 15.768C60.4262 16.0013 60.8415 16.118 61.3455 16.118C61.8495 16.118 62.2648 16.0013 62.5915 15.768C62.9182 15.5347 63.1562 15.2033 63.3055 14.774C63.4642 14.3353 63.5435 13.822 63.5435 13.234C63.5435 12.6367 63.4642 12.128 63.3055 11.708C63.1468 11.288 62.9042 10.966 62.5775 10.742C62.2602 10.5087 61.8448 10.392 61.3315 10.392C60.5662 10.392 60.0108 10.644 59.6655 11.148C59.3202 11.652 59.1475 12.3473 59.1475 13.234ZM68.0021 9.496V17H66.7701V9.496H68.0021ZM67.4001 6.682C67.5867 6.682 67.7501 6.74733 67.8901 6.878C68.0394 6.99933 68.1141 7.19533 68.1141 7.466C68.1141 7.72733 68.0394 7.92333 67.8901 8.054C67.7501 8.18467 67.5867 8.25 67.4001 8.25C67.1947 8.25 67.0221 8.18467 66.8821 8.054C66.7421 7.92333 66.6721 7.72733 66.6721 7.466C66.6721 7.19533 66.7421 6.99933 66.8821 6.878C67.0221 6.74733 67.1947 6.682 67.4001 6.682ZM73.9915 9.356C74.8875 9.356 75.5641 9.57533 76.0215 10.014C76.4788 10.4433 76.7075 11.1433 76.7075 12.114V17H75.4895V12.198C75.4895 11.5913 75.3541 11.1387 75.0835 10.84C74.8128 10.5413 74.3881 10.392 73.8095 10.392C72.9788 10.392 72.4048 10.6253 72.0875 11.092C71.7701 11.5587 71.6115 12.2307 71.6115 13.108V17H70.3795V9.496H71.3735L71.5555 10.518H71.6255C71.7935 10.2567 71.9988 10.042 72.2415 9.874C72.4935 9.69667 72.7688 9.566 73.0675 9.482C73.3661 9.398 73.6741 9.356 73.9915 9.356ZM90.4405 13.472C90.4405 14.1627 90.3005 14.788 90.0205 15.348C89.7405 15.8987 89.3111 16.3373 88.7325 16.664C88.1631 16.9813 87.4351 17.14 86.5485 17.14C85.3071 17.14 84.3598 16.804 83.7065 16.132C83.0625 15.4507 82.7405 14.5547 82.7405 13.444V7.004H84.0005V13.486C84.0005 14.298 84.2151 14.928 84.6445 15.376C85.0831 15.824 85.7411 16.048 86.6185 16.048C87.2251 16.048 87.7151 15.9407 88.0885 15.726C88.4711 15.502 88.7511 15.1987 88.9285 14.816C89.1058 14.424 89.1945 13.976 89.1945 13.472V7.004H90.4405V13.472ZM98.7487 14.326C98.7487 14.9233 98.604 15.432 98.3147 15.852C98.0254 16.2627 97.61 16.58 97.0687 16.804C96.5367 17.028 95.9067 17.14 95.1787 17.14C94.8054 17.14 94.446 17.1213 94.1007 17.084C93.7647 17.0467 93.4567 16.9953 93.1767 16.93C92.8967 16.8553 92.6494 16.7667 92.4347 16.664V15.46C92.7707 15.6093 93.186 15.7447 93.6807 15.866C94.1847 15.9873 94.7027 16.048 95.2347 16.048C95.7294 16.048 96.1447 15.9827 96.4807 15.852C96.8167 15.7213 97.0687 15.5347 97.2367 15.292C97.4047 15.0493 97.4887 14.7647 97.4887 14.438C97.4887 14.1113 97.4187 13.836 97.2787 13.612C97.1387 13.388 96.896 13.1827 96.5507 12.996C96.2147 12.8 95.7434 12.5947 95.1367 12.38C94.7074 12.2213 94.3294 12.0533 94.0027 11.876C93.6854 11.6893 93.4194 11.4793 93.2047 11.246C92.99 11.0127 92.8267 10.7467 92.7147 10.448C92.612 10.1493 92.5607 9.804 92.5607 9.412C92.5607 8.88 92.696 8.42733 92.9667 8.054C93.2374 7.67133 93.6107 7.37733 94.0867 7.172C94.572 6.96667 95.1274 6.864 95.7527 6.864C96.3034 6.864 96.8074 6.91533 97.2647 7.018C97.722 7.12067 98.1374 7.256 98.5107 7.424L98.1187 8.502C97.7734 8.35267 97.3954 8.22667 96.9847 8.124C96.5834 8.02133 96.1634 7.97 95.7247 7.97C95.3047 7.97 94.9547 8.03067 94.6747 8.152C94.3947 8.27333 94.1847 8.446 94.0447 8.67C93.9047 8.88467 93.8347 9.13667 93.8347 9.426C93.8347 9.762 93.9047 10.042 94.0447 10.266C94.1847 10.49 94.4134 10.6907 94.7307 10.868C95.048 11.0453 95.4774 11.2367 96.0187 11.442C96.6067 11.6567 97.1014 11.89 97.5027 12.142C97.9134 12.3847 98.2214 12.6787 98.4267 13.024C98.6414 13.3693 98.7487 13.8033 98.7487 14.326ZM108.77 11.904C108.77 13.024 108.56 13.962 108.14 14.718C107.73 15.474 107.137 16.0433 106.362 16.426C105.588 16.8087 104.65 17 103.548 17H100.762V7.004H103.842C104.85 7.004 105.723 7.19067 106.46 7.564C107.198 7.93733 107.767 8.488 108.168 9.216C108.57 9.93467 108.77 10.8307 108.77 11.904ZM107.44 11.946C107.44 11.0593 107.291 10.3313 106.992 9.762C106.703 9.19267 106.274 8.77267 105.704 8.502C105.144 8.222 104.463 8.082 103.66 8.082H102.022V15.922H103.38C104.734 15.922 105.746 15.5907 106.418 14.928C107.1 14.256 107.44 13.262 107.44 11.946ZM115.273 7.97C114.741 7.97 114.26 8.06333 113.831 8.25C113.402 8.42733 113.038 8.69333 112.739 9.048C112.44 9.39333 112.212 9.818 112.053 10.322C111.894 10.8167 111.815 11.3767 111.815 12.002C111.815 12.8233 111.941 13.5373 112.193 14.144C112.454 14.7507 112.837 15.2173 113.341 15.544C113.854 15.8707 114.494 16.034 115.259 16.034C115.698 16.034 116.113 15.9967 116.505 15.922C116.897 15.8473 117.28 15.754 117.653 15.642V16.734C117.28 16.874 116.892 16.9767 116.491 17.042C116.099 17.1073 115.628 17.14 115.077 17.14C114.06 17.14 113.21 16.93 112.529 16.51C111.848 16.09 111.334 15.4927 110.989 14.718C110.653 13.9433 110.485 13.0333 110.485 11.988C110.485 11.232 110.588 10.5413 110.793 9.916C111.008 9.29067 111.316 8.74933 111.717 8.292C112.128 7.83467 112.632 7.48467 113.229 7.242C113.826 6.99 114.512 6.864 115.287 6.864C115.8 6.864 116.295 6.91533 116.771 7.018C117.247 7.12067 117.672 7.26533 118.045 7.452L117.541 8.516C117.233 8.376 116.888 8.25 116.505 8.138C116.132 8.026 115.721 7.97 115.273 7.97ZM122.673 13.164C122.673 12.3987 122.743 11.652 122.883 10.924C123.033 10.196 123.261 9.50067 123.569 8.838C123.877 8.17533 124.265 7.564 124.731 7.004H125.893C125.464 7.58267 125.1 8.208 124.801 8.88C124.512 9.552 124.293 10.2473 124.143 10.966C123.994 11.6847 123.919 12.4127 123.919 13.15C123.919 13.8687 123.994 14.5827 124.143 15.292C124.293 16.0013 124.512 16.6827 124.801 17.336C125.091 17.9987 125.45 18.624 125.879 19.212H124.731C124.265 18.6613 123.877 18.0593 123.569 17.406C123.261 16.762 123.033 16.0807 122.883 15.362C122.743 14.6433 122.673 13.9107 122.673 13.164ZM133.951 7.004C135.258 7.004 136.21 7.26067 136.807 7.774C137.405 8.28733 137.703 9.01067 137.703 9.944C137.703 10.3547 137.633 10.7513 137.493 11.134C137.363 11.5073 137.143 11.8433 136.835 12.142C136.527 12.4407 136.117 12.6787 135.603 12.856C135.09 13.024 134.46 13.108 133.713 13.108H132.565V17H131.305V7.004H133.951ZM133.839 8.082H132.565V12.03H133.573C134.208 12.03 134.735 11.9647 135.155 11.834C135.575 11.694 135.888 11.4747 136.093 11.176C136.299 10.8773 136.401 10.4853 136.401 10C136.401 9.356 136.196 8.87533 135.785 8.558C135.375 8.24067 134.726 8.082 133.839 8.082ZM148.504 11.988C148.504 12.7627 148.406 13.4673 148.21 14.102C148.014 14.7273 147.72 15.2687 147.328 15.726C146.945 16.1833 146.464 16.5333 145.886 16.776C145.316 17.0187 144.654 17.14 143.898 17.14C143.114 17.14 142.432 17.0187 141.854 16.776C141.275 16.524 140.794 16.174 140.412 15.726C140.029 15.2687 139.744 14.7227 139.558 14.088C139.371 13.4533 139.278 12.7487 139.278 11.974C139.278 10.9473 139.446 10.0513 139.782 9.286C140.118 8.52067 140.626 7.92333 141.308 7.494C141.998 7.06467 142.866 6.85 143.912 6.85C144.91 6.85 145.75 7.06467 146.432 7.494C147.113 7.914 147.626 8.51133 147.972 9.286C148.326 10.0513 148.504 10.952 148.504 11.988ZM140.608 11.988C140.608 12.828 140.724 13.5513 140.958 14.158C141.191 14.7647 141.55 15.2313 142.036 15.558C142.53 15.8847 143.151 16.048 143.898 16.048C144.654 16.048 145.27 15.8847 145.746 15.558C146.231 15.2313 146.59 14.7647 146.824 14.158C147.057 13.5513 147.174 12.828 147.174 11.988C147.174 10.728 146.912 9.74333 146.39 9.034C145.867 8.31533 145.041 7.956 143.912 7.956C143.156 7.956 142.53 8.11933 142.036 8.446C141.55 8.76333 141.191 9.22533 140.958 9.832C140.724 10.4293 140.608 11.148 140.608 11.988ZM150.719 17V7.004H151.979V15.88H156.347V17H150.719ZM160.241 11.918L162.845 7.004H164.203L160.871 13.122V17H159.611V13.178L156.279 7.004H157.651L160.241 11.918ZM169.634 11.722H173.092V16.622C172.55 16.7993 172.004 16.93 171.454 17.014C170.903 17.098 170.278 17.14 169.578 17.14C168.542 17.14 167.669 16.9347 166.96 16.524C166.25 16.104 165.709 15.5113 165.336 14.746C164.972 13.9713 164.79 13.0567 164.79 12.002C164.79 10.9567 164.995 10.0513 165.406 9.286C165.816 8.52067 166.404 7.928 167.17 7.508C167.944 7.07867 168.878 6.864 169.97 6.864C170.53 6.864 171.057 6.91533 171.552 7.018C172.056 7.12067 172.522 7.26533 172.952 7.452L172.476 8.544C172.121 8.38533 171.72 8.25 171.272 8.138C170.833 8.026 170.376 7.97 169.9 7.97C169.106 7.97 168.425 8.13333 167.856 8.46C167.286 8.78667 166.852 9.25333 166.554 9.86C166.255 10.4573 166.106 11.1713 166.106 12.002C166.106 12.7953 166.232 13.5 166.484 14.116C166.745 14.7227 167.151 15.1987 167.702 15.544C168.252 15.88 168.976 16.048 169.872 16.048C170.17 16.048 170.432 16.0387 170.656 16.02C170.889 15.992 171.099 15.9593 171.286 15.922C171.482 15.8847 171.664 15.8473 171.832 15.81V12.842H169.634V11.722ZM184.201 11.988C184.201 12.7627 184.103 13.4673 183.907 14.102C183.711 14.7273 183.417 15.2687 183.025 15.726C182.642 16.1833 182.162 16.5333 181.583 16.776C181.014 17.0187 180.351 17.14 179.595 17.14C178.811 17.14 178.13 17.0187 177.551 16.776C176.972 16.524 176.492 16.174 176.109 15.726C175.726 15.2687 175.442 14.7227 175.255 14.088C175.068 13.4533 174.975 12.7487 174.975 11.974C174.975 10.9473 175.143 10.0513 175.479 9.286C175.815 8.52067 176.324 7.92333 177.005 7.494C177.696 7.06467 178.564 6.85 179.609 6.85C180.608 6.85 181.448 7.06467 182.129 7.494C182.81 7.914 183.324 8.51133 183.669 9.286C184.024 10.0513 184.201 10.952 184.201 11.988ZM176.305 11.988C176.305 12.828 176.422 13.5513 176.655 14.158C176.888 14.7647 177.248 15.2313 177.733 15.558C178.228 15.8847 178.848 16.048 179.595 16.048C180.351 16.048 180.967 15.8847 181.443 15.558C181.928 15.2313 182.288 14.7647 182.521 14.158C182.754 13.5513 182.871 12.828 182.871 11.988C182.871 10.728 182.61 9.74333 182.087 9.034C181.564 8.31533 180.738 7.956 179.609 7.956C178.853 7.956 178.228 8.11933 177.733 8.446C177.248 8.76333 176.888 9.22533 176.655 9.832C176.422 10.4293 176.305 11.148 176.305 11.988ZM194.341 17H192.871L187.523 8.698H187.467C187.476 8.866 187.485 9.05267 187.495 9.258C187.513 9.46333 187.527 9.68733 187.537 9.93C187.546 10.1633 187.555 10.406 187.565 10.658C187.574 10.91 187.579 11.162 187.579 11.414V17H186.417V7.004H187.873L193.207 15.278H193.263C193.253 15.166 193.244 15.012 193.235 14.816C193.225 14.6107 193.216 14.3867 193.207 14.144C193.197 13.892 193.188 13.6353 193.179 13.374C193.169 13.1127 193.165 12.87 193.165 12.646V7.004H194.341V17ZM202.972 13.164C202.972 13.9107 202.897 14.6433 202.748 15.362C202.608 16.0807 202.384 16.762 202.076 17.406C201.777 18.0593 201.39 18.6613 200.914 19.212H199.766C200.195 18.624 200.555 17.9987 200.844 17.336C201.133 16.6827 201.353 16.0013 201.502 15.292C201.651 14.5827 201.726 13.8687 201.726 13.15C201.726 12.4127 201.651 11.6847 201.502 10.966C201.353 10.2473 201.133 9.552 200.844 8.88C200.555 8.208 200.191 7.58267 199.752 7.004H200.914C201.39 7.564 201.777 8.17533 202.076 8.838C202.384 9.50067 202.608 10.196 202.748 10.924C202.897 11.652 202.972 12.3987 202.972 13.164Z" fill="white"/>
<path d="M239.425 12.988C239.425 13.8 239.364 14.5233 239.243 15.158C239.121 15.7927 238.925 16.334 238.655 16.782C238.393 17.2207 238.048 17.5567 237.619 17.79C237.199 18.0233 236.69 18.14 236.093 18.14C235.346 18.14 234.725 17.9347 234.231 17.524C233.745 17.1133 233.381 16.5253 233.139 15.76C232.905 14.9853 232.789 14.0613 232.789 12.988C232.789 11.9053 232.896 10.9813 233.111 10.216C233.335 9.45067 233.689 8.86733 234.175 8.466C234.66 8.05533 235.299 7.85 236.093 7.85C236.839 7.85 237.46 8.05533 237.955 8.466C238.449 8.86733 238.818 9.45067 239.061 10.216C239.303 10.9813 239.425 11.9053 239.425 12.988ZM234.021 12.988C234.021 13.9027 234.086 14.6633 234.217 15.27C234.357 15.8767 234.576 16.334 234.875 16.642C235.183 16.9407 235.589 17.09 236.093 17.09C236.597 17.09 236.998 16.9407 237.297 16.642C237.605 16.3433 237.829 15.8907 237.969 15.284C238.109 14.668 238.179 13.9027 238.179 12.988C238.179 12.0733 238.109 11.3173 237.969 10.72C237.829 10.1133 237.605 9.66067 237.297 9.362C236.998 9.054 236.597 8.9 236.093 8.9C235.589 8.9 235.183 9.054 234.875 9.362C234.576 9.66067 234.357 10.1133 234.217 10.72C234.086 11.3173 234.021 12.0733 234.021 12.988ZM243.082 14.164L240.492 10.496H241.892L243.824 13.324L245.742 10.496H247.128L244.538 14.164L247.268 18H245.868L243.824 15.004L241.752 18H240.366L243.082 14.164ZM255.154 18L253.95 14.906H249.988L248.798 18H247.524L251.43 7.962H252.564L256.456 18H255.154ZM252.452 10.762C252.424 10.6873 252.378 10.552 252.312 10.356C252.247 10.16 252.182 9.95933 252.116 9.754C252.06 9.53933 252.014 9.376 251.976 9.264C251.93 9.45067 251.878 9.642 251.822 9.838C251.776 10.0247 251.724 10.1973 251.668 10.356C251.622 10.5147 251.58 10.65 251.542 10.762L250.408 13.786H253.572L252.452 10.762ZM257.236 13.73C257.236 13.1513 257.273 12.582 257.348 12.022C257.432 11.462 257.572 10.9347 257.768 10.44C257.964 9.936 258.234 9.49267 258.58 9.11C258.925 8.718 259.359 8.41467 259.882 8.2C260.414 7.976 261.058 7.864 261.814 7.864C262.01 7.864 262.224 7.87333 262.458 7.892C262.7 7.91067 262.896 7.94333 263.046 7.99V9.04C262.878 8.984 262.686 8.942 262.472 8.914C262.266 8.886 262.056 8.872 261.842 8.872C261.198 8.872 260.661 8.97933 260.232 9.194C259.802 9.40867 259.462 9.70267 259.21 10.076C258.967 10.4493 258.79 10.8787 258.678 11.364C258.566 11.8493 258.496 12.3673 258.468 12.918H258.552C258.692 12.694 258.869 12.4933 259.084 12.316C259.298 12.1387 259.555 11.9987 259.854 11.896C260.162 11.7933 260.516 11.742 260.918 11.742C261.496 11.742 262 11.8633 262.43 12.106C262.868 12.3393 263.209 12.6847 263.452 13.142C263.694 13.59 263.816 14.136 263.816 14.78C263.816 15.4707 263.685 16.068 263.424 16.572C263.162 17.076 262.794 17.4633 262.318 17.734C261.851 18.0047 261.291 18.14 260.638 18.14C260.162 18.14 259.718 18.0513 259.308 17.874C258.897 17.6967 258.533 17.426 258.216 17.062C257.908 16.698 257.665 16.2407 257.488 15.69C257.32 15.13 257.236 14.4767 257.236 13.73ZM260.624 17.104C261.212 17.104 261.688 16.9173 262.052 16.544C262.416 16.1613 262.598 15.5733 262.598 14.78C262.598 14.1453 262.434 13.6413 262.108 13.268C261.79 12.8947 261.31 12.708 260.666 12.708C260.227 12.708 259.844 12.8013 259.518 12.988C259.191 13.1653 258.934 13.394 258.748 13.674C258.57 13.954 258.482 14.2433 258.482 14.542C258.482 14.85 258.524 15.1533 258.608 15.452C258.701 15.7507 258.836 16.026 259.014 16.278C259.2 16.53 259.424 16.7307 259.686 16.88C259.956 17.0293 260.269 17.104 260.624 17.104ZM268.328 11.868C269.009 11.868 269.602 11.9847 270.106 12.218C270.61 12.4513 270.997 12.7873 271.268 13.226C271.548 13.6553 271.688 14.1827 271.688 14.808C271.688 15.4987 271.538 16.096 271.24 16.6C270.941 17.0947 270.512 17.4773 269.952 17.748C269.401 18.0093 268.734 18.14 267.95 18.14C267.436 18.14 266.951 18.0933 266.494 18C266.046 17.9067 265.668 17.7713 265.36 17.594V16.432C265.696 16.6373 266.102 16.8007 266.578 16.922C267.063 17.034 267.525 17.09 267.964 17.09C268.458 17.09 268.888 17.0153 269.252 16.866C269.625 16.7073 269.914 16.4693 270.12 16.152C270.325 15.8253 270.428 15.4193 270.428 14.934C270.428 14.2807 270.227 13.7813 269.826 13.436C269.424 13.0813 268.79 12.904 267.922 12.904C267.66 12.904 267.362 12.9273 267.026 12.974C266.69 13.0207 266.419 13.0673 266.214 13.114L265.598 12.722L265.976 8.004H270.988V9.124H267.026L266.788 12.022C266.946 11.994 267.161 11.9613 267.432 11.924C267.702 11.8867 268.001 11.868 268.328 11.868ZM277.459 18H276.255V11.014C276.255 10.7433 276.255 10.5147 276.255 10.328C276.265 10.1413 276.274 9.96867 276.283 9.81C276.293 9.642 276.302 9.46933 276.311 9.292C276.162 9.44133 276.027 9.56733 275.905 9.67C275.784 9.77267 275.63 9.90333 275.443 10.062L274.379 10.93L273.735 10.104L276.437 8.004H277.459V18ZM284.351 11.868C285.032 11.868 285.625 11.9847 286.129 12.218C286.633 12.4513 287.02 12.7873 287.291 13.226C287.571 13.6553 287.711 14.1827 287.711 14.808C287.711 15.4987 287.562 16.096 287.263 16.6C286.964 17.0947 286.535 17.4773 285.975 17.748C285.424 18.0093 284.757 18.14 283.973 18.14C283.46 18.14 282.974 18.0933 282.517 18C282.069 17.9067 281.691 17.7713 281.383 17.594V16.432C281.719 16.6373 282.125 16.8007 282.601 16.922C283.086 17.034 283.548 17.09 283.987 17.09C284.482 17.09 284.911 17.0153 285.275 16.866C285.648 16.7073 285.938 16.4693 286.143 16.152C286.348 15.8253 286.451 15.4193 286.451 14.934C286.451 14.2807 286.25 13.7813 285.849 13.436C285.448 13.0813 284.813 12.904 283.945 12.904C283.684 12.904 283.385 12.9273 283.049 12.974C282.713 13.0207 282.442 13.0673 282.237 13.114L281.621 12.722L281.999 8.004H287.011V9.124H283.049L282.811 12.022C282.97 11.994 283.184 11.9613 283.455 11.924C283.726 11.8867 284.024 11.868 284.351 11.868ZM295.835 12.988C295.835 13.8 295.774 14.5233 295.653 15.158C295.531 15.7927 295.335 16.334 295.065 16.782C294.803 17.2207 294.458 17.5567 294.029 17.79C293.609 18.0233 293.1 18.14 292.503 18.14C291.756 18.14 291.135 17.9347 290.641 17.524C290.155 17.1133 289.791 16.5253 289.549 15.76C289.315 14.9853 289.199 14.0613 289.199 12.988C289.199 11.9053 289.306 10.9813 289.521 10.216C289.745 9.45067 290.099 8.86733 290.585 8.466C291.07 8.05533 291.709 7.85 292.503 7.85C293.249 7.85 293.87 8.05533 294.365 8.466C294.859 8.86733 295.228 9.45067 295.471 10.216C295.713 10.9813 295.835 11.9053 295.835 12.988ZM290.431 12.988C290.431 13.9027 290.496 14.6633 290.627 15.27C290.767 15.8767 290.986 16.334 291.285 16.642C291.593 16.9407 291.999 17.09 292.503 17.09C293.007 17.09 293.408 16.9407 293.707 16.642C294.015 16.3433 294.239 15.8907 294.379 15.284C294.519 14.668 294.589 13.9027 294.589 12.988C294.589 12.0733 294.519 11.3173 294.379 10.72C294.239 10.1133 294.015 9.66067 293.707 9.362C293.408 9.054 293.007 8.9 292.503 8.9C291.999 8.9 291.593 9.054 291.285 9.362C290.986 9.66067 290.767 10.1133 290.627 10.72C290.496 11.3173 290.431 12.0733 290.431 12.988ZM297.294 13.73C297.294 13.1513 297.332 12.582 297.406 12.022C297.49 11.462 297.63 10.9347 297.826 10.44C298.022 9.936 298.293 9.49267 298.638 9.11C298.984 8.718 299.418 8.41467 299.94 8.2C300.472 7.976 301.116 7.864 301.872 7.864C302.068 7.864 302.283 7.87333 302.516 7.892C302.759 7.91067 302.955 7.94333 303.104 7.99V9.04C302.936 8.984 302.745 8.942 302.53 8.914C302.325 8.886 302.115 8.872 301.9 8.872C301.256 8.872 300.72 8.97933 300.29 9.194C299.861 9.40867 299.52 9.70267 299.268 10.076C299.026 10.4493 298.848 10.8787 298.736 11.364C298.624 11.8493 298.554 12.3673 298.526 12.918H298.61C298.75 12.694 298.928 12.4933 299.142 12.316C299.357 12.1387 299.614 11.9987 299.912 11.896C300.22 11.7933 300.575 11.742 300.976 11.742C301.555 11.742 302.059 11.8633 302.488 12.106C302.927 12.3393 303.268 12.6847 303.51 13.142C303.753 13.59 303.874 14.136 303.874 14.78C303.874 15.4707 303.744 16.068 303.482 16.572C303.221 17.076 302.852 17.4633 302.376 17.734C301.91 18.0047 301.35 18.14 300.696 18.14C300.22 18.14 299.777 18.0513 299.366 17.874C298.956 17.6967 298.592 17.426 298.274 17.062C297.966 16.698 297.724 16.2407 297.546 15.69C297.378 15.13 297.294 14.4767 297.294 13.73ZM300.682 17.104C301.27 17.104 301.746 16.9173 302.11 16.544C302.474 16.1613 302.656 15.5733 302.656 14.78C302.656 14.1453 302.493 13.6413 302.166 13.268C301.849 12.8947 301.368 12.708 300.724 12.708C300.286 12.708 299.903 12.8013 299.576 12.988C299.25 13.1653 298.993 13.394 298.806 13.674C298.629 13.954 298.54 14.2433 298.54 14.542C298.54 14.85 298.582 15.1533 298.666 15.452C298.76 15.7507 298.895 16.026 299.072 16.278C299.259 16.53 299.483 16.7307 299.744 16.88C300.015 17.0293 300.328 17.104 300.682 17.104ZM308.386 11.868C309.067 11.868 309.66 11.9847 310.164 12.218C310.668 12.4513 311.055 12.7873 311.326 13.226C311.606 13.6553 311.746 14.1827 311.746 14.808C311.746 15.4987 311.597 16.096 311.298 16.6C310.999 17.0947 310.57 17.4773 310.01 17.748C309.459 18.0093 308.792 18.14 308.008 18.14C307.495 18.14 307.009 18.0933 306.552 18C306.104 17.9067 305.726 17.7713 305.418 17.594V16.432C305.754 16.6373 306.16 16.8007 306.636 16.922C307.121 17.034 307.583 17.09 308.022 17.09C308.517 17.09 308.946 17.0153 309.31 16.866C309.683 16.7073 309.973 16.4693 310.178 16.152C310.383 15.8253 310.486 15.4193 310.486 14.934C310.486 14.2807 310.285 13.7813 309.884 13.436C309.483 13.0813 308.848 12.904 307.98 12.904C307.719 12.904 307.42 12.9273 307.084 12.974C306.748 13.0207 306.477 13.0673 306.272 13.114L305.656 12.722L306.034 8.004H311.046V9.124H307.084L306.846 12.022C307.005 11.994 307.219 11.9613 307.49 11.924C307.761 11.8867 308.059 11.868 308.386 11.868ZM316.538 7.864C317.126 7.864 317.644 7.95733 318.092 8.144C318.54 8.32133 318.89 8.58733 319.142 8.942C319.403 9.29667 319.534 9.73533 319.534 10.258C319.534 10.6593 319.445 11.0093 319.268 11.308C319.1 11.6067 318.871 11.8727 318.582 12.106C318.293 12.33 317.975 12.5307 317.63 12.708C318.041 12.904 318.414 13.128 318.75 13.38C319.086 13.6227 319.352 13.9073 319.548 14.234C319.753 14.5607 319.856 14.9527 319.856 15.41C319.856 15.97 319.721 16.4553 319.45 16.866C319.179 17.2673 318.797 17.58 318.302 17.804C317.817 18.028 317.243 18.14 316.58 18.14C315.861 18.14 315.25 18.0327 314.746 17.818C314.251 17.6033 313.873 17.3 313.612 16.908C313.36 16.5067 313.234 16.0213 313.234 15.452C313.234 14.9947 313.327 14.598 313.514 14.262C313.71 13.926 313.967 13.6367 314.284 13.394C314.601 13.1513 314.942 12.946 315.306 12.778C314.979 12.5913 314.681 12.3813 314.41 12.148C314.149 11.9053 313.939 11.63 313.78 11.322C313.631 11.014 313.556 10.6547 313.556 10.244C313.556 9.73067 313.687 9.30133 313.948 8.956C314.209 8.60133 314.564 8.33067 315.012 8.144C315.46 7.95733 315.969 7.864 316.538 7.864ZM314.438 15.466C314.438 15.9513 314.611 16.3573 314.956 16.684C315.301 17.0013 315.833 17.16 316.552 17.16C317.009 17.16 317.392 17.0853 317.7 16.936C318.008 16.7867 318.241 16.5813 318.4 16.32C318.568 16.0587 318.652 15.76 318.652 15.424C318.652 15.0973 318.563 14.8127 318.386 14.57C318.218 14.318 317.975 14.094 317.658 13.898C317.35 13.702 316.981 13.5247 316.552 13.366L316.328 13.282C315.917 13.4593 315.572 13.6507 315.292 13.856C315.012 14.0613 314.797 14.2947 314.648 14.556C314.508 14.8173 314.438 15.1207 314.438 15.466ZM316.524 8.858C316.011 8.858 315.586 8.984 315.25 9.236C314.923 9.47867 314.76 9.83333 314.76 10.3C314.76 10.6453 314.839 10.9347 314.998 11.168C315.166 11.4013 315.39 11.602 315.67 11.77C315.95 11.9287 316.258 12.0827 316.594 12.232C316.921 12.092 317.21 11.938 317.462 11.77C317.723 11.602 317.929 11.4013 318.078 11.168C318.237 10.9253 318.316 10.636 318.316 10.3C318.316 9.83333 318.153 9.47867 317.826 9.236C317.499 8.984 317.065 8.858 316.524 8.858ZM324.76 18.14C324.097 18.14 323.504 18.0047 322.982 17.734C322.468 17.4633 322.062 17.0433 321.764 16.474C321.474 15.9047 321.33 15.1767 321.33 14.29C321.33 13.366 321.484 12.6147 321.792 12.036C322.1 11.4573 322.515 11.0327 323.038 10.762C323.57 10.4913 324.172 10.356 324.844 10.356C325.226 10.356 325.595 10.398 325.95 10.482C326.304 10.5567 326.594 10.65 326.818 10.762L326.44 11.784C326.216 11.7 325.954 11.6207 325.656 11.546C325.357 11.4713 325.077 11.434 324.816 11.434C324.312 11.434 323.896 11.5413 323.57 11.756C323.243 11.9707 323 12.288 322.842 12.708C322.683 13.128 322.604 13.6507 322.604 14.276C322.604 14.8733 322.683 15.382 322.842 15.802C323 16.222 323.238 16.5393 323.556 16.754C323.873 16.9687 324.27 17.076 324.746 17.076C325.156 17.076 325.516 17.034 325.824 16.95C326.141 16.866 326.43 16.7633 326.692 16.642V17.734C326.44 17.8647 326.16 17.9627 325.852 18.028C325.553 18.1027 325.189 18.14 324.76 18.14ZM331.374 10.356C332.018 10.356 332.569 10.496 333.026 10.776C333.493 11.056 333.847 11.4527 334.09 11.966C334.342 12.47 334.468 13.0627 334.468 13.744V14.486H329.33C329.349 15.3353 329.563 15.984 329.974 16.432C330.394 16.8707 330.977 17.09 331.724 17.09C332.2 17.09 332.62 17.048 332.984 16.964C333.357 16.8707 333.74 16.74 334.132 16.572V17.65C333.749 17.818 333.371 17.9393 332.998 18.014C332.625 18.098 332.181 18.14 331.668 18.14C330.959 18.14 330.329 17.9953 329.778 17.706C329.237 17.4167 328.812 16.9873 328.504 16.418C328.205 15.8393 328.056 15.1347 328.056 14.304C328.056 13.4827 328.191 12.778 328.462 12.19C328.742 11.602 329.129 11.1493 329.624 10.832C330.128 10.5147 330.711 10.356 331.374 10.356ZM331.36 11.364C330.772 11.364 330.305 11.5553 329.96 11.938C329.624 12.3113 329.423 12.834 329.358 13.506H333.18C333.18 13.0767 333.115 12.7033 332.984 12.386C332.853 12.0687 332.653 11.8213 332.382 11.644C332.121 11.4573 331.78 11.364 331.36 11.364ZM342.132 18H336.546V8.004H342.132V9.11H337.806V12.232H341.88V13.324H337.806V16.894H342.132V18ZM343.738 13.73C343.738 13.1513 343.775 12.582 343.85 12.022C343.934 11.462 344.074 10.9347 344.27 10.44C344.466 9.936 344.736 9.49267 345.082 9.11C345.427 8.718 345.861 8.41467 346.384 8.2C346.916 7.976 347.56 7.864 348.316 7.864C348.512 7.864 348.726 7.87333 348.96 7.892C349.202 7.91067 349.398 7.94333 349.548 7.99V9.04C349.38 8.984 349.188 8.942 348.974 8.914C348.768 8.886 348.558 8.872 348.344 8.872C347.7 8.872 347.163 8.97933 346.734 9.194C346.304 9.40867 345.964 9.70267 345.712 10.076C345.469 10.4493 345.292 10.8787 345.18 11.364C345.068 11.8493 344.998 12.3673 344.97 12.918H345.054C345.194 12.694 345.371 12.4933 345.586 12.316C345.8 12.1387 346.057 11.9987 346.356 11.896C346.664 11.7933 347.018 11.742 347.42 11.742C347.998 11.742 348.502 11.8633 348.932 12.106C349.37 12.3393 349.711 12.6847 349.954 13.142C350.196 13.59 350.318 14.136 350.318 14.78C350.318 15.4707 350.187 16.068 349.926 16.572C349.664 17.076 349.296 17.4633 348.82 17.734C348.353 18.0047 347.793 18.14 347.14 18.14C346.664 18.14 346.22 18.0513 345.81 17.874C345.399 17.6967 345.035 17.426 344.718 17.062C344.41 16.698 344.167 16.2407 343.99 15.69C343.822 15.13 343.738 14.4767 343.738 13.73ZM347.126 17.104C347.714 17.104 348.19 16.9173 348.554 16.544C348.918 16.1613 349.1 15.5733 349.1 14.78C349.1 14.1453 348.936 13.6413 348.61 13.268C348.292 12.8947 347.812 12.708 347.168 12.708C346.729 12.708 346.346 12.8013 346.02 12.988C345.693 13.1653 345.436 13.394 345.25 13.674C345.072 13.954 344.984 14.2433 344.984 14.542C344.984 14.85 345.026 15.1533 345.11 15.452C345.203 15.7507 345.338 16.026 345.516 16.278C345.702 16.53 345.926 16.7307 346.188 16.88C346.458 17.0293 346.771 17.104 347.126 17.104ZM358.259 12.274C358.259 12.8433 358.217 13.4127 358.133 13.982C358.059 14.542 357.923 15.074 357.727 15.578C357.531 16.0727 357.261 16.516 356.915 16.908C356.57 17.2907 356.131 17.594 355.599 17.818C355.067 18.0327 354.423 18.14 353.667 18.14C353.481 18.14 353.261 18.126 353.009 18.098C352.767 18.0793 352.566 18.0467 352.407 18V16.95C352.575 17.006 352.771 17.0527 352.995 17.09C353.219 17.118 353.434 17.132 353.639 17.132C354.293 17.132 354.829 17.0247 355.249 16.81C355.679 16.5953 356.019 16.306 356.271 15.942C356.523 15.5687 356.705 15.1393 356.817 14.654C356.929 14.1593 356.995 13.6413 357.013 13.1H356.929C356.789 13.3147 356.612 13.5107 356.397 13.688C356.183 13.8653 355.921 14.0053 355.613 14.108C355.315 14.2107 354.96 14.262 354.549 14.262C353.98 14.262 353.476 14.1453 353.037 13.912C352.608 13.6693 352.272 13.324 352.029 12.876C351.796 12.428 351.679 11.882 351.679 11.238C351.679 10.538 351.81 9.936 352.071 9.432C352.342 8.928 352.715 8.54067 353.191 8.27C353.667 7.99933 354.227 7.864 354.871 7.864C355.347 7.864 355.791 7.95733 356.201 8.144C356.612 8.32133 356.971 8.592 357.279 8.956C357.587 9.32 357.825 9.77733 357.993 10.328C358.171 10.8787 358.259 11.5273 358.259 12.274ZM354.871 8.9C354.293 8.9 353.817 9.09133 353.443 9.474C353.079 9.85667 352.897 10.44 352.897 11.224C352.897 11.868 353.051 12.3767 353.359 12.75C353.677 13.114 354.162 13.296 354.815 13.296C355.263 13.296 355.651 13.2073 355.977 13.03C356.304 12.8433 356.556 12.61 356.733 12.33C356.92 12.05 357.013 11.7607 357.013 11.462C357.013 11.1633 356.967 10.8647 356.873 10.566C356.789 10.258 356.659 9.978 356.481 9.726C356.304 9.474 356.08 9.27333 355.809 9.124C355.539 8.97467 355.226 8.9 354.871 8.9ZM368.357 12.904C368.357 14.024 368.147 14.962 367.727 15.718C367.317 16.474 366.724 17.0433 365.949 17.426C365.175 17.8087 364.237 18 363.135 18H360.349V8.004H363.429C364.437 8.004 365.31 8.19067 366.047 8.564C366.785 8.93733 367.354 9.488 367.755 10.216C368.157 10.9347 368.357 11.8307 368.357 12.904ZM367.027 12.946C367.027 12.0593 366.878 11.3313 366.579 10.762C366.29 10.1927 365.861 9.77267 365.291 9.502C364.731 9.222 364.05 9.082 363.247 9.082H361.609V16.922H362.967C364.321 16.922 365.333 16.5907 366.005 15.928C366.687 15.256 367.027 14.262 367.027 12.946ZM373.306 10.356C373.95 10.356 374.5 10.496 374.958 10.776C375.424 11.056 375.779 11.4527 376.022 11.966C376.274 12.47 376.4 13.0627 376.4 13.744V14.486H371.262C371.28 15.3353 371.495 15.984 371.906 16.432C372.326 16.8707 372.909 17.09 373.656 17.09C374.132 17.09 374.552 17.048 374.916 16.964C375.289 16.8707 375.672 16.74 376.064 16.572V17.65C375.681 17.818 375.303 17.9393 374.93 18.014C374.556 18.098 374.113 18.14 373.6 18.14C372.89 18.14 372.26 17.9953 371.71 17.706C371.168 17.4167 370.744 16.9873 370.436 16.418C370.137 15.8393 369.988 15.1347 369.988 14.304C369.988 13.4827 370.123 12.778 370.394 12.19C370.674 11.602 371.061 11.1493 371.556 10.832C372.06 10.5147 372.643 10.356 373.306 10.356ZM373.292 11.364C372.704 11.364 372.237 11.5553 371.892 11.938C371.556 12.3113 371.355 12.834 371.29 13.506H375.112C375.112 13.0767 375.046 12.7033 374.916 12.386C374.785 12.0687 374.584 11.8213 374.314 11.644C374.052 11.4573 373.712 11.364 373.292 11.364ZM384.4 18H377.792V16.978L380.41 14.332C380.914 13.828 381.339 13.38 381.684 12.988C382.029 12.596 382.291 12.2133 382.468 11.84C382.645 11.4573 382.734 11.042 382.734 10.594C382.734 10.0433 382.571 9.628 382.244 9.348C381.917 9.05867 381.493 8.914 380.97 8.914C380.485 8.914 380.055 8.998 379.682 9.166C379.318 9.334 378.945 9.56733 378.562 9.866L377.904 9.04C378.165 8.816 378.45 8.61533 378.758 8.438C379.075 8.26067 379.416 8.12067 379.78 8.018C380.153 7.91533 380.55 7.864 380.97 7.864C381.595 7.864 382.132 7.97133 382.58 8.186C383.028 8.40067 383.373 8.70867 383.616 9.11C383.868 9.502 383.994 9.97333 383.994 10.524C383.994 10.916 383.933 11.2893 383.812 11.644C383.691 11.9893 383.518 12.33 383.294 12.666C383.07 13.002 382.799 13.3427 382.482 13.688C382.165 14.0333 381.815 14.3927 381.432 14.766L379.346 16.824V16.88H384.4V18ZM392.86 15.732H391.404V18H390.214V15.732H385.426V14.682L390.13 7.948H391.404V14.626H392.86V15.732ZM390.214 11.476C390.214 11.2333 390.214 11.014 390.214 10.818C390.223 10.6127 390.233 10.4213 390.242 10.244C390.251 10.0667 390.256 9.89867 390.256 9.74C390.265 9.572 390.275 9.41333 390.284 9.264H390.228C390.153 9.44133 390.06 9.63267 389.948 9.838C389.836 10.0433 389.729 10.216 389.626 10.356L386.63 14.626H390.214V11.476ZM397.344 18.14C396.681 18.14 396.088 18.0047 395.566 17.734C395.052 17.4633 394.646 17.0433 394.348 16.474C394.058 15.9047 393.914 15.1767 393.914 14.29C393.914 13.366 394.068 12.6147 394.376 12.036C394.684 11.4573 395.099 11.0327 395.622 10.762C396.154 10.4913 396.756 10.356 397.428 10.356C397.81 10.356 398.179 10.398 398.534 10.482C398.888 10.5567 399.178 10.65 399.402 10.762L399.024 11.784C398.8 11.7 398.538 11.6207 398.24 11.546C397.941 11.4713 397.661 11.434 397.4 11.434C396.896 11.434 396.48 11.5413 396.154 11.756C395.827 11.9707 395.584 12.288 395.426 12.708C395.267 13.128 395.188 13.6507 395.188 14.276C395.188 14.8733 395.267 15.382 395.426 15.802C395.584 16.222 395.822 16.5393 396.14 16.754C396.457 16.9687 396.854 17.076 397.33 17.076C397.74 17.076 398.1 17.034 398.408 16.95C398.725 16.866 399.014 16.7633 399.276 16.642V17.734C399.024 17.8647 398.744 17.9627 398.436 18.028C398.137 18.1027 397.773 18.14 397.344 18.14ZM406.772 10.342C406.772 10.79 406.688 11.1773 406.52 11.504C406.352 11.8307 406.109 12.0967 405.792 12.302C405.484 12.5073 405.12 12.652 404.7 12.736V12.792C405.503 12.8853 406.1 13.1373 406.492 13.548C406.884 13.9587 407.08 14.4953 407.08 15.158C407.08 15.7367 406.945 16.2547 406.674 16.712C406.403 17.16 405.983 17.51 405.414 17.762C404.854 18.014 404.131 18.14 403.244 18.14C402.721 18.14 402.236 18.098 401.788 18.014C401.34 17.9393 400.911 17.7993 400.5 17.594V16.446C400.92 16.6513 401.373 16.8147 401.858 16.936C402.343 17.048 402.81 17.104 403.258 17.104C404.154 17.104 404.798 16.9313 405.19 16.586C405.591 16.2313 405.792 15.746 405.792 15.13C405.792 14.71 405.68 14.374 405.456 14.122C405.241 13.8607 404.924 13.6693 404.504 13.548C404.084 13.4267 403.58 13.366 402.992 13.366H402.026V12.316H403.006C403.557 12.316 404.014 12.2367 404.378 12.078C404.751 11.9193 405.031 11.7 405.218 11.42C405.414 11.1307 405.512 10.7993 405.512 10.426C405.512 9.94067 405.349 9.56733 405.022 9.306C404.695 9.03533 404.252 8.9 403.692 8.9C403.337 8.9 403.015 8.93733 402.726 9.012C402.437 9.07733 402.166 9.17533 401.914 9.306C401.671 9.42733 401.424 9.572 401.172 9.74L400.556 8.9C400.799 8.71333 401.074 8.54067 401.382 8.382C401.699 8.22333 402.049 8.09733 402.432 8.004C402.815 7.91067 403.23 7.864 403.678 7.864C404.723 7.864 405.498 8.09733 406.002 8.564C406.515 9.03067 406.772 9.62333 406.772 10.342ZM411.732 11.868C412.413 11.868 413.006 11.9847 413.51 12.218C414.014 12.4513 414.401 12.7873 414.672 13.226C414.952 13.6553 415.092 14.1827 415.092 14.808C415.092 15.4987 414.943 16.096 414.644 16.6C414.345 17.0947 413.916 17.4773 413.356 17.748C412.805 18.0093 412.138 18.14 411.354 18.14C410.841 18.14 410.355 18.0933 409.898 18C409.45 17.9067 409.072 17.7713 408.764 17.594V16.432C409.1 16.6373 409.506 16.8007 409.982 16.922C410.467 17.034 410.929 17.09 411.368 17.09C411.863 17.09 412.292 17.0153 412.656 16.866C413.029 16.7073 413.319 16.4693 413.524 16.152C413.729 15.8253 413.832 15.4193 413.832 14.934C413.832 14.2807 413.631 13.7813 413.23 13.436C412.829 13.0813 412.194 12.904 411.326 12.904C411.065 12.904 410.766 12.9273 410.43 12.974C410.094 13.0207 409.823 13.0673 409.618 13.114L409.002 12.722L409.38 8.004H414.392V9.124H410.43L410.192 12.022C410.351 11.994 410.565 11.9613 410.836 11.924C411.107 11.8867 411.405 11.868 411.732 11.868ZM419.744 11.868C420.425 11.868 421.018 11.9847 421.522 12.218C422.026 12.4513 422.413 12.7873 422.684 13.226C422.964 13.6553 423.104 14.1827 423.104 14.808C423.104 15.4987 422.954 16.096 422.656 16.6C422.357 17.0947 421.928 17.4773 421.368 17.748C420.817 18.0093 420.15 18.14 419.366 18.14C418.852 18.14 418.367 18.0933 417.91 18C417.462 17.9067 417.084 17.7713 416.776 17.594V16.432C417.112 16.6373 417.518 16.8007 417.994 16.922C418.479 17.034 418.941 17.09 419.38 17.09C419.874 17.09 420.304 17.0153 420.668 16.866C421.041 16.7073 421.33 16.4693 421.536 16.152C421.741 15.8253 421.844 15.4193 421.844 14.934C421.844 14.2807 421.643 13.7813 421.242 13.436C420.84 13.0813 420.206 12.904 419.338 12.904C419.076 12.904 418.778 12.9273 418.442 12.974C418.106 13.0207 417.835 13.0673 417.63 13.114L417.014 12.722L417.392 8.004H422.404V9.124H418.442L418.204 12.022C418.362 11.994 418.577 11.9613 418.848 11.924C419.118 11.8867 419.417 11.868 419.744 11.868ZM431.633 15.732H430.177V18H428.987V15.732H424.199V14.682L428.903 7.948H430.177V14.626H431.633V15.732ZM428.987 11.476C428.987 11.2333 428.987 11.014 428.987 10.818C428.997 10.6127 429.006 10.4213 429.015 10.244C429.025 10.0667 429.029 9.89867 429.029 9.74C429.039 9.572 429.048 9.41333 429.057 9.264H429.001C428.927 9.44133 428.833 9.63267 428.721 9.838C428.609 10.0433 428.502 10.216 428.399 10.356L425.403 14.626H428.987V11.476ZM432.687 13.73C432.687 13.1513 432.724 12.582 432.799 12.022C432.883 11.462 433.023 10.9347 433.219 10.44C433.415 9.936 433.686 9.49267 434.031 9.11C434.376 8.718 434.81 8.41467 435.333 8.2C435.865 7.976 436.509 7.864 437.265 7.864C437.461 7.864 437.676 7.87333 437.909 7.892C438.152 7.91067 438.348 7.94333 438.497 7.99V9.04C438.329 8.984 438.138 8.942 437.923 8.914C437.718 8.886 437.508 8.872 437.293 8.872C436.649 8.872 436.112 8.97933 435.683 9.194C435.254 9.40867 434.913 9.70267 434.661 10.076C434.418 10.4493 434.241 10.8787 434.129 11.364C434.017 11.8493 433.947 12.3673 433.919 12.918H434.003C434.143 12.694 434.32 12.4933 434.535 12.316C434.75 12.1387 435.006 11.9987 435.305 11.896C435.613 11.7933 435.968 11.742 436.369 11.742C436.948 11.742 437.452 11.8633 437.881 12.106C438.32 12.3393 438.66 12.6847 438.903 13.142C439.146 13.59 439.267 14.136 439.267 14.78C439.267 15.4707 439.136 16.068 438.875 16.572C438.614 17.076 438.245 17.4633 437.769 17.734C437.302 18.0047 436.742 18.14 436.089 18.14C435.613 18.14 435.17 18.0513 434.759 17.874C434.348 17.6967 433.984 17.426 433.667 17.062C433.359 16.698 433.116 16.2407 432.939 15.69C432.771 15.13 432.687 14.4767 432.687 13.73ZM436.075 17.104C436.663 17.104 437.139 16.9173 437.503 16.544C437.867 16.1613 438.049 15.5733 438.049 14.78C438.049 14.1453 437.886 13.6413 437.559 13.268C437.242 12.8947 436.761 12.708 436.117 12.708C435.678 12.708 435.296 12.8013 434.969 12.988C434.642 13.1653 434.386 13.394 434.199 13.674C434.022 13.954 433.933 14.2433 433.933 14.542C433.933 14.85 433.975 15.1533 434.059 15.452C434.152 15.7507 434.288 16.026 434.465 16.278C434.652 16.53 434.876 16.7307 435.137 16.88C435.408 17.0293 435.72 17.104 436.075 17.104ZM447.209 18H440.601V16.978L443.219 14.332C443.723 13.828 444.147 13.38 444.493 12.988C444.838 12.596 445.099 12.2133 445.277 11.84C445.454 11.4573 445.543 11.042 445.543 10.594C445.543 10.0433 445.379 9.628 445.053 9.348C444.726 9.05867 444.301 8.914 443.779 8.914C443.293 8.914 442.864 8.998 442.491 9.166C442.127 9.334 441.753 9.56733 441.371 9.866L440.713 9.04C440.974 8.816 441.259 8.61533 441.567 8.438C441.884 8.26067 442.225 8.12067 442.589 8.018C442.962 7.91533 443.359 7.864 443.779 7.864C444.404 7.864 444.941 7.97133 445.389 8.186C445.837 8.40067 446.182 8.70867 446.425 9.11C446.677 9.502 446.803 9.97333 446.803 10.524C446.803 10.916 446.742 11.2893 446.621 11.644C446.499 11.9893 446.327 12.33 446.103 12.666C445.879 13.002 445.608 13.3427 445.291 13.688C444.973 14.0333 444.623 14.3927 444.241 14.766L442.155 16.824V16.88H447.209V18ZM448.71 13.73C448.71 13.1513 448.748 12.582 448.822 12.022C448.906 11.462 449.046 10.9347 449.242 10.44C449.438 9.936 449.709 9.49267 450.054 9.11C450.4 8.718 450.834 8.41467 451.356 8.2C451.888 7.976 452.532 7.864 453.288 7.864C453.484 7.864 453.699 7.87333 453.932 7.892C454.175 7.91067 454.371 7.94333 454.52 7.99V9.04C454.352 8.984 454.161 8.942 453.946 8.914C453.741 8.886 453.531 8.872 453.316 8.872C452.672 8.872 452.136 8.97933 451.706 9.194C451.277 9.40867 450.936 9.70267 450.684 10.076C450.442 10.4493 450.264 10.8787 450.152 11.364C450.04 11.8493 449.97 12.3673 449.942 12.918H450.026C450.166 12.694 450.344 12.4933 450.558 12.316C450.773 12.1387 451.03 11.9987 451.328 11.896C451.636 11.7933 451.991 11.742 452.392 11.742C452.971 11.742 453.475 11.8633 453.904 12.106C454.343 12.3393 454.684 12.6847 454.926 13.142C455.169 13.59 455.29 14.136 455.29 14.78C455.29 15.4707 455.16 16.068 454.898 16.572C454.637 17.076 454.268 17.4633 453.792 17.734C453.326 18.0047 452.766 18.14 452.112 18.14C451.636 18.14 451.193 18.0513 450.782 17.874C450.372 17.6967 450.008 17.426 449.69 17.062C449.382 16.698 449.14 16.2407 448.962 15.69C448.794 15.13 448.71 14.4767 448.71 13.73ZM452.098 17.104C452.686 17.104 453.162 16.9173 453.526 16.544C453.89 16.1613 454.072 15.5733 454.072 14.78C454.072 14.1453 453.909 13.6413 453.582 13.268C453.265 12.8947 452.784 12.708 452.14 12.708C451.702 12.708 451.319 12.8013 450.992 12.988C450.666 13.1653 450.409 13.394 450.222 13.674C450.045 13.954 449.956 14.2433 449.956 14.542C449.956 14.85 449.998 15.1533 450.082 15.452C450.176 15.7507 450.311 16.026 450.488 16.278C450.675 16.53 450.899 16.7307 451.16 16.88C451.431 17.0293 451.744 17.104 452.098 17.104ZM462.854 10.342C462.854 10.79 462.77 11.1773 462.602 11.504C462.434 11.8307 462.191 12.0967 461.874 12.302C461.566 12.5073 461.202 12.652 460.782 12.736V12.792C461.585 12.8853 462.182 13.1373 462.574 13.548C462.966 13.9587 463.162 14.4953 463.162 15.158C463.162 15.7367 463.027 16.2547 462.756 16.712C462.485 17.16 462.065 17.51 461.496 17.762C460.936 18.014 460.213 18.14 459.326 18.14C458.803 18.14 458.318 18.098 457.87 18.014C457.422 17.9393 456.993 17.7993 456.582 17.594V16.446C457.002 16.6513 457.455 16.8147 457.94 16.936C458.425 17.048 458.892 17.104 459.34 17.104C460.236 17.104 460.88 16.9313 461.272 16.586C461.673 16.2313 461.874 15.746 461.874 15.13C461.874 14.71 461.762 14.374 461.538 14.122C461.323 13.8607 461.006 13.6693 460.586 13.548C460.166 13.4267 459.662 13.366 459.074 13.366H458.108V12.316H459.088C459.639 12.316 460.096 12.2367 460.46 12.078C460.833 11.9193 461.113 11.7 461.3 11.42C461.496 11.1307 461.594 10.7993 461.594 10.426C461.594 9.94067 461.431 9.56733 461.104 9.306C460.777 9.03533 460.334 8.9 459.774 8.9C459.419 8.9 459.097 8.93733 458.808 9.012C458.519 9.07733 458.248 9.17533 457.996 9.306C457.753 9.42733 457.506 9.572 457.254 9.74L456.638 8.9C456.881 8.71333 457.156 8.54067 457.464 8.382C457.781 8.22333 458.131 8.09733 458.514 8.004C458.897 7.91067 459.312 7.864 459.76 7.864C460.805 7.864 461.58 8.09733 462.084 8.564C462.597 9.03067 462.854 9.62333 462.854 10.342ZM468.612 11.448H466.722V18H465.49V11.448H464.174V10.874L465.49 10.454V10.02C465.49 9.376 465.583 8.85333 465.77 8.452C465.966 8.05067 466.246 7.75667 466.61 7.57C466.974 7.38333 467.413 7.29 467.926 7.29C468.225 7.29 468.495 7.318 468.738 7.374C468.99 7.42067 469.205 7.47667 469.382 7.542L469.06 8.508C468.911 8.46133 468.738 8.41467 468.542 8.368C468.346 8.32133 468.145 8.298 467.94 8.298C467.529 8.298 467.221 8.438 467.016 8.718C466.82 8.98867 466.722 9.418 466.722 10.006V10.496H468.612V11.448ZM476.098 12.988C476.098 13.8 476.038 14.5233 475.916 15.158C475.795 15.7927 475.599 16.334 475.328 16.782C475.067 17.2207 474.722 17.5567 474.292 17.79C473.872 18.0233 473.364 18.14 472.766 18.14C472.02 18.14 471.399 17.9347 470.904 17.524C470.419 17.1133 470.055 16.5253 469.812 15.76C469.579 14.9853 469.462 14.0613 469.462 12.988C469.462 11.9053 469.57 10.9813 469.784 10.216C470.008 9.45067 470.363 8.86733 470.848 8.466C471.334 8.05533 471.973 7.85 472.766 7.85C473.513 7.85 474.134 8.05533 474.628 8.466C475.123 8.86733 475.492 9.45067 475.734 10.216C475.977 10.9813 476.098 11.9053 476.098 12.988ZM470.694 12.988C470.694 13.9027 470.76 14.6633 470.89 15.27C471.03 15.8767 471.25 16.334 471.548 16.642C471.856 16.9407 472.262 17.09 472.766 17.09C473.27 17.09 473.672 16.9407 473.97 16.642C474.278 16.3433 474.502 15.8907 474.642 15.284C474.782 14.668 474.852 13.9027 474.852 12.988C474.852 12.0733 474.782 11.3173 474.642 10.72C474.502 10.1133 474.278 9.66067 473.97 9.362C473.672 9.054 473.27 8.9 472.766 8.9C472.262 8.9 471.856 9.054 471.548 9.362C471.25 9.66067 471.03 10.1133 470.89 10.72C470.76 11.3173 470.694 12.0733 470.694 12.988ZM477.558 13.73C477.558 13.1513 477.595 12.582 477.67 12.022C477.754 11.462 477.894 10.9347 478.09 10.44C478.286 9.936 478.557 9.49267 478.902 9.11C479.247 8.718 479.681 8.41467 480.204 8.2C480.736 7.976 481.38 7.864 482.136 7.864C482.332 7.864 482.547 7.87333 482.78 7.892C483.023 7.91067 483.219 7.94333 483.368 7.99V9.04C483.2 8.984 483.009 8.942 482.794 8.914C482.589 8.886 482.379 8.872 482.164 8.872C481.52 8.872 480.983 8.97933 480.554 9.194C480.125 9.40867 479.784 9.70267 479.532 10.076C479.289 10.4493 479.112 10.8787 479 11.364C478.888 11.8493 478.818 12.3673 478.79 12.918H478.874C479.014 12.694 479.191 12.4933 479.406 12.316C479.621 12.1387 479.877 11.9987 480.176 11.896C480.484 11.7933 480.839 11.742 481.24 11.742C481.819 11.742 482.323 11.8633 482.752 12.106C483.191 12.3393 483.531 12.6847 483.774 13.142C484.017 13.59 484.138 14.136 484.138 14.78C484.138 15.4707 484.007 16.068 483.746 16.572C483.485 17.076 483.116 17.4633 482.64 17.734C482.173 18.0047 481.613 18.14 480.96 18.14C480.484 18.14 480.041 18.0513 479.63 17.874C479.219 17.6967 478.855 17.426 478.538 17.062C478.23 16.698 477.987 16.2407 477.81 15.69C477.642 15.13 477.558 14.4767 477.558 13.73ZM480.946 17.104C481.534 17.104 482.01 16.9173 482.374 16.544C482.738 16.1613 482.92 15.5733 482.92 14.78C482.92 14.1453 482.757 13.6413 482.43 13.268C482.113 12.8947 481.632 12.708 480.988 12.708C480.549 12.708 480.167 12.8013 479.84 12.988C479.513 13.1653 479.257 13.394 479.07 13.674C478.893 13.954 478.804 14.2433 478.804 14.542C478.804 14.85 478.846 15.1533 478.93 15.452C479.023 15.7507 479.159 16.026 479.336 16.278C479.523 16.53 479.747 16.7307 480.008 16.88C480.279 17.0293 480.591 17.104 480.946 17.104ZM492.43 18L491.226 14.906H487.264L486.074 18H484.8L488.706 7.962H489.84L493.732 18H492.43ZM489.728 10.762C489.7 10.6873 489.653 10.552 489.588 10.356C489.522 10.16 489.457 9.95933 489.392 9.754C489.336 9.53933 489.289 9.376 489.252 9.264C489.205 9.45067 489.154 9.642 489.098 9.838C489.051 10.0247 489 10.1973 488.944 10.356C488.897 10.5147 488.855 10.65 488.818 10.762L487.684 13.786H490.848L489.728 10.762ZM501.021 18H494.413V16.978L497.031 14.332C497.535 13.828 497.96 13.38 498.305 12.988C498.651 12.596 498.912 12.2133 499.089 11.84C499.267 11.4573 499.355 11.042 499.355 10.594C499.355 10.0433 499.192 9.628 498.865 9.348C498.539 9.05867 498.114 8.914 497.591 8.914C497.106 8.914 496.677 8.998 496.303 9.166C495.939 9.334 495.566 9.56733 495.183 9.866L494.525 9.04C494.787 8.816 495.071 8.61533 495.379 8.438C495.697 8.26067 496.037 8.12067 496.401 8.018C496.775 7.91533 497.171 7.864 497.591 7.864C498.217 7.864 498.753 7.97133 499.201 8.186C499.649 8.40067 499.995 8.70867 500.237 9.11C500.489 9.502 500.615 9.97333 500.615 10.524C500.615 10.916 500.555 11.2893 500.433 11.644C500.312 11.9893 500.139 12.33 499.915 12.666C499.691 13.002 499.421 13.3427 499.103 13.688C498.786 14.0333 498.436 14.3927 498.053 14.766L495.967 16.824V16.88H501.021V18ZM506.723 18H505.519V11.014C505.519 10.7433 505.519 10.5147 505.519 10.328C505.528 10.1413 505.538 9.96867 505.547 9.81C505.556 9.642 505.566 9.46933 505.575 9.292C505.426 9.44133 505.29 9.56733 505.169 9.67C505.048 9.77267 504.894 9.90333 504.707 10.062L503.643 10.93L502.999 10.104L505.701 8.004H506.723V18ZM517.087 12.988C517.087 13.8 517.026 14.5233 516.905 15.158C516.783 15.7927 516.587 16.334 516.317 16.782C516.055 17.2207 515.71 17.5567 515.281 17.79C514.861 18.0233 514.352 18.14 513.755 18.14C513.008 18.14 512.387 17.9347 511.893 17.524C511.407 17.1133 511.043 16.5253 510.801 15.76C510.567 14.9853 510.451 14.0613 510.451 12.988C510.451 11.9053 510.558 10.9813 510.773 10.216C510.997 9.45067 511.351 8.86733 511.837 8.466C512.322 8.05533 512.961 7.85 513.755 7.85C514.501 7.85 515.122 8.05533 515.617 8.466C516.111 8.86733 516.48 9.45067 516.723 10.216C516.965 10.9813 517.087 11.9053 517.087 12.988ZM511.683 12.988C511.683 13.9027 511.748 14.6633 511.879 15.27C512.019 15.8767 512.238 16.334 512.537 16.642C512.845 16.9407 513.251 17.09 513.755 17.09C514.259 17.09 514.66 16.9407 514.959 16.642C515.267 16.3433 515.491 15.8907 515.631 15.284C515.771 14.668 515.841 13.9027 515.841 12.988C515.841 12.0733 515.771 11.3173 515.631 10.72C515.491 10.1133 515.267 9.66067 514.959 9.362C514.66 9.054 514.259 8.9 513.755 8.9C513.251 8.9 512.845 9.054 512.537 9.362C512.238 9.66067 512.019 10.1133 511.879 10.72C511.748 11.3173 511.683 12.0733 511.683 12.988ZM521.808 10.37C522.723 10.37 523.4 10.5707 523.838 10.972C524.277 11.3733 524.496 12.0127 524.496 12.89V18H523.6L523.362 16.936H523.306C523.092 17.2067 522.868 17.4353 522.634 17.622C522.41 17.7993 522.149 17.93 521.85 18.014C521.561 18.098 521.206 18.14 520.786 18.14C520.338 18.14 519.932 18.0607 519.568 17.902C519.214 17.7433 518.934 17.5007 518.728 17.174C518.523 16.838 518.42 16.418 518.42 15.914C518.42 15.1673 518.714 14.5933 519.302 14.192C519.89 13.7813 520.796 13.5573 522.018 13.52L523.292 13.478V13.03C523.292 12.4047 523.157 11.9707 522.886 11.728C522.616 11.4853 522.233 11.364 521.738 11.364C521.346 11.364 520.973 11.4247 520.618 11.546C520.264 11.658 519.932 11.7887 519.624 11.938L519.246 11.014C519.573 10.8367 519.96 10.6873 520.408 10.566C520.856 10.4353 521.323 10.37 521.808 10.37ZM522.172 14.374C521.239 14.4113 520.59 14.5607 520.226 14.822C519.872 15.0833 519.694 15.452 519.694 15.928C519.694 16.348 519.82 16.656 520.072 16.852C520.334 17.048 520.665 17.146 521.066 17.146C521.701 17.146 522.228 16.9733 522.648 16.628C523.068 16.2733 523.278 15.732 523.278 15.004V14.332L522.172 14.374ZM534.99 12.904C534.99 14.024 534.78 14.962 534.36 15.718C533.949 16.474 533.357 17.0433 532.582 17.426C531.807 17.8087 530.869 18 529.768 18H526.982V8.004H530.062C531.07 8.004 531.943 8.19067 532.68 8.564C533.417 8.93733 533.987 9.488 534.388 10.216C534.789 10.9347 534.99 11.8307 534.99 12.904ZM533.66 12.946C533.66 12.0593 533.511 11.3313 533.212 10.762C532.923 10.1927 532.493 9.77267 531.924 9.502C531.364 9.222 530.683 9.082 529.88 9.082H528.242V16.922H529.6C530.953 16.922 531.966 16.5907 532.638 15.928C533.319 15.256 533.66 14.262 533.66 12.946ZM543.579 15.732H542.123V18H540.933V15.732H536.145V14.682L540.849 7.948H542.123V14.626H543.579V15.732ZM540.933 11.476C540.933 11.2333 540.933 11.014 540.933 10.818C540.942 10.6127 540.951 10.4213 540.961 10.244C540.97 10.0667 540.975 9.89867 540.975 9.74C540.984 9.572 540.993 9.41333 541.003 9.264H540.947C540.872 9.44133 540.779 9.63267 540.667 9.838C540.555 10.0433 540.447 10.216 540.345 10.356L537.349 14.626H540.933V11.476ZM551.142 18H544.534V16.978L547.152 14.332C547.656 13.828 548.081 13.38 548.426 12.988C548.772 12.596 549.033 12.2133 549.21 11.84C549.388 11.4573 549.476 11.042 549.476 10.594C549.476 10.0433 549.313 9.628 548.986 9.348C548.66 9.05867 548.235 8.914 547.712 8.914C547.227 8.914 546.798 8.998 546.424 9.166C546.06 9.334 545.687 9.56733 545.304 9.866L544.646 9.04C544.908 8.816 545.192 8.61533 545.5 8.438C545.818 8.26067 546.158 8.12067 546.522 8.018C546.896 7.91533 547.292 7.864 547.712 7.864C548.338 7.864 548.874 7.97133 549.322 8.186C549.77 8.40067 550.116 8.70867 550.358 9.11C550.61 9.502 550.736 9.97333 550.736 10.524C550.736 10.916 550.676 11.2893 550.554 11.644C550.433 11.9893 550.26 12.33 550.036 12.666C549.812 13.002 549.542 13.3427 549.224 13.688C548.907 14.0333 548.557 14.3927 548.174 14.766L546.088 16.824V16.88H551.142V18ZM558.776 10.342C558.776 10.79 558.692 11.1773 558.524 11.504C558.356 11.8307 558.113 12.0967 557.796 12.302C557.488 12.5073 557.124 12.652 556.704 12.736V12.792C557.507 12.8853 558.104 13.1373 558.496 13.548C558.888 13.9587 559.084 14.4953 559.084 15.158C559.084 15.7367 558.949 16.2547 558.678 16.712C558.407 17.16 557.987 17.51 557.418 17.762C556.858 18.014 556.135 18.14 555.248 18.14C554.725 18.14 554.24 18.098 553.792 18.014C553.344 17.9393 552.915 17.7993 552.504 17.594V16.446C552.924 16.6513 553.377 16.8147 553.862 16.936C554.347 17.048 554.814 17.104 555.262 17.104C556.158 17.104 556.802 16.9313 557.194 16.586C557.595 16.2313 557.796 15.746 557.796 15.13C557.796 14.71 557.684 14.374 557.46 14.122C557.245 13.8607 556.928 13.6693 556.508 13.548C556.088 13.4267 555.584 13.366 554.996 13.366H554.03V12.316H555.01C555.561 12.316 556.018 12.2367 556.382 12.078C556.755 11.9193 557.035 11.7 557.222 11.42C557.418 11.1307 557.516 10.7993 557.516 10.426C557.516 9.94067 557.353 9.56733 557.026 9.306C556.699 9.03533 556.256 8.9 555.696 8.9C555.341 8.9 555.019 8.93733 554.73 9.012C554.441 9.07733 554.17 9.17533 553.918 9.306C553.675 9.42733 553.428 9.572 553.176 9.74L552.56 8.9C552.803 8.71333 553.078 8.54067 553.386 8.382C553.703 8.22333 554.053 8.09733 554.436 8.004C554.819 7.91067 555.234 7.864 555.682 7.864C556.727 7.864 557.502 8.09733 558.006 8.564C558.519 9.03067 558.776 9.62333 558.776 10.342ZM560.656 13.73C560.656 13.1513 560.693 12.582 560.768 12.022C560.852 11.462 560.992 10.9347 561.188 10.44C561.384 9.936 561.654 9.49267 562 9.11C562.345 8.718 562.779 8.41467 563.302 8.2C563.834 7.976 564.478 7.864 565.234 7.864C565.43 7.864 565.644 7.87333 565.878 7.892C566.12 7.91067 566.316 7.94333 566.466 7.99V9.04C566.298 8.984 566.106 8.942 565.892 8.914C565.686 8.886 565.476 8.872 565.262 8.872C564.618 8.872 564.081 8.97933 563.652 9.194C563.222 9.40867 562.882 9.70267 562.63 10.076C562.387 10.4493 562.21 10.8787 562.098 11.364C561.986 11.8493 561.916 12.3673 561.888 12.918H561.972C562.112 12.694 562.289 12.4933 562.504 12.316C562.718 12.1387 562.975 11.9987 563.274 11.896C563.582 11.7933 563.936 11.742 564.338 11.742C564.916 11.742 565.42 11.8633 565.85 12.106C566.288 12.3393 566.629 12.6847 566.872 13.142C567.114 13.59 567.236 14.136 567.236 14.78C567.236 15.4707 567.105 16.068 566.844 16.572C566.582 17.076 566.214 17.4633 565.738 17.734C565.271 18.0047 564.711 18.14 564.058 18.14C563.582 18.14 563.138 18.0513 562.728 17.874C562.317 17.6967 561.953 17.426 561.636 17.062C561.328 16.698 561.085 16.2407 560.908 15.69C560.74 15.13 560.656 14.4767 560.656 13.73ZM564.044 17.104C564.632 17.104 565.108 16.9173 565.472 16.544C565.836 16.1613 566.018 15.5733 566.018 14.78C566.018 14.1453 565.854 13.6413 565.528 13.268C565.21 12.8947 564.73 12.708 564.086 12.708C563.647 12.708 563.264 12.8013 562.938 12.988C562.611 13.1653 562.354 13.394 562.168 13.674C561.99 13.954 561.902 14.2433 561.902 14.542C561.902 14.85 561.944 15.1533 562.028 15.452C562.121 15.7507 562.256 16.026 562.434 16.278C562.62 16.53 562.844 16.7307 563.106 16.88C563.376 17.0293 563.689 17.104 564.044 17.104Z" fill="white"/>
</svg>
