<svg width="368" height="25" viewBox="0 0 368 25" fill="none" xmlns="http://www.w3.org/2000/svg">
<rect width="368" height="25" fill="#555555"/>
<rect x="68" width="300" height="25" fill="#84D3FF"/>
<path d="M26.6521 12.904C26.6521 14.024 26.4421 14.962 26.0221 15.718C25.6115 16.474 25.0188 17.0433 24.2441 17.426C23.4695 17.8087 22.5315 18 21.4301 18H18.6441V8.004H21.7241C22.7321 8.004 23.6048 8.19067 24.3421 8.564C25.0795 8.93733 25.6488 9.488 26.0501 10.216C26.4515 10.9347 26.6521 11.8307 26.6521 12.904ZM25.3221 12.946C25.3221 12.0593 25.1728 11.3313 24.8741 10.762C24.5848 10.1927 24.1555 9.77267 23.5861 9.502C23.0261 9.222 22.3448 9.082 21.5421 9.082H19.9041V16.922H21.2621C22.6155 16.922 23.6281 16.5907 24.3001 15.928C24.9815 15.256 25.3221 14.262 25.3221 12.946ZM31.5447 10.37C32.4594 10.37 33.136 10.5707 33.5747 10.972C34.0134 11.3733 34.2327 12.0127 34.2327 12.89V18H33.3367L33.0987 16.936H33.0427C32.828 17.2067 32.604 17.4353 32.3707 17.622C32.1467 17.7993 31.8854 17.93 31.5867 18.014C31.2974 18.098 30.9427 18.14 30.5227 18.14C30.0747 18.14 29.6687 18.0607 29.3047 17.902C28.95 17.7433 28.67 17.5007 28.4647 17.174C28.2594 16.838 28.1567 16.418 28.1567 15.914C28.1567 15.1673 28.4507 14.5933 29.0387 14.192C29.6267 13.7813 30.532 13.5573 31.7547 13.52L33.0287 13.478V13.03C33.0287 12.4047 32.8934 11.9707 32.6227 11.728C32.352 11.4853 31.9694 11.364 31.4747 11.364C31.0827 11.364 30.7094 11.4247 30.3547 11.546C30 11.658 29.6687 11.7887 29.3607 11.938L28.9827 11.014C29.3094 10.8367 29.6967 10.6873 30.1447 10.566C30.5927 10.4353 31.0594 10.37 31.5447 10.37ZM31.9087 14.374C30.9754 14.4113 30.3267 14.5607 29.9627 14.822C29.608 15.0833 29.4307 15.452 29.4307 15.928C29.4307 16.348 29.5567 16.656 29.8087 16.852C30.07 17.048 30.4014 17.146 30.8027 17.146C31.4374 17.146 31.9647 16.9733 32.3847 16.628C32.8047 16.2733 33.0147 15.732 33.0147 15.004V14.332L31.9087 14.374ZM41.4364 15.928C41.4364 16.4133 41.315 16.8193 41.0724 17.146C40.8297 17.4727 40.4844 17.72 40.0364 17.888C39.5884 18.056 39.0564 18.14 38.4404 18.14C37.9177 18.14 37.465 18.098 37.0824 18.014C36.709 17.93 36.3777 17.8133 36.0884 17.664V16.544C36.387 16.6933 36.7464 16.8333 37.1664 16.964C37.5957 17.0853 38.0297 17.146 38.4684 17.146C39.0937 17.146 39.5464 17.048 39.8264 16.852C40.1064 16.6467 40.2464 16.376 40.2464 16.04C40.2464 15.8533 40.195 15.6853 40.0924 15.536C39.9897 15.3867 39.803 15.2373 39.5324 15.088C39.271 14.9387 38.893 14.7707 38.3984 14.584C37.913 14.3973 37.4977 14.2107 37.1524 14.024C36.807 13.8373 36.541 13.6133 36.3544 13.352C36.1677 13.0907 36.0744 12.7547 36.0744 12.344C36.0744 11.7093 36.331 11.2193 36.8444 10.874C37.367 10.5287 38.0484 10.356 38.8884 10.356C39.3457 10.356 39.7704 10.4027 40.1624 10.496C40.5637 10.58 40.937 10.7013 41.2824 10.86L40.8624 11.84C40.657 11.7467 40.4377 11.6673 40.2044 11.602C39.9804 11.5273 39.7517 11.4713 39.5184 11.434C39.285 11.3873 39.047 11.364 38.8044 11.364C38.3004 11.364 37.913 11.448 37.6424 11.616C37.381 11.7747 37.2504 11.994 37.2504 12.274C37.2504 12.4793 37.311 12.6567 37.4324 12.806C37.5537 12.946 37.7544 13.086 38.0344 13.226C38.3237 13.3567 38.7064 13.5153 39.1824 13.702C39.6584 13.8793 40.0644 14.0613 40.4004 14.248C40.7364 14.4347 40.993 14.6633 41.1704 14.934C41.3477 15.1953 41.4364 15.5267 41.4364 15.928ZM44.4816 10.482C44.4816 10.6593 44.4722 10.8413 44.4536 11.028C44.4442 11.2147 44.4302 11.3827 44.4116 11.532H44.4956C44.6542 11.2707 44.8549 11.056 45.0976 10.888C45.3402 10.72 45.6109 10.594 45.9096 10.51C46.2082 10.4167 46.5162 10.37 46.8336 10.37C47.4402 10.37 47.9442 10.468 48.3456 10.664C48.7562 10.8507 49.0642 11.1447 49.2696 11.546C49.4749 11.9473 49.5776 12.47 49.5776 13.114V18H48.3596V13.198C48.3596 12.5913 48.2242 12.1387 47.9536 11.84C47.6829 11.5413 47.2582 11.392 46.6796 11.392C46.1196 11.392 45.6809 11.4993 45.3636 11.714C45.0462 11.9193 44.8176 12.2273 44.6776 12.638C44.5469 13.0393 44.4816 13.534 44.4816 14.122V18H43.2496V7.36H44.4816V10.482Z" fill="white"/>
<path d="M84.5074 18H83.0794L80.4334 13.66L77.7454 18H76.4154L79.7334 12.792L76.6254 8.004H78.0254L80.4754 11.924L82.9394 8.004H84.2694L81.1754 12.764L84.5074 18ZM90.7505 18.154C90.7505 17.986 90.7552 17.79 90.7645 17.566C90.7738 17.342 90.7925 17.1507 90.8205 16.992H90.7365C90.5218 17.3093 90.2232 17.58 89.8405 17.804C89.4672 18.028 88.9818 18.14 88.3845 18.14C87.4792 18.14 86.7418 17.818 86.1725 17.174C85.6125 16.5207 85.3325 15.55 85.3325 14.262C85.3325 13.4033 85.4632 12.6847 85.7245 12.106C85.9858 11.5273 86.3498 11.0933 86.8165 10.804C87.2832 10.5053 87.8198 10.356 88.4265 10.356C89.0145 10.356 89.4952 10.468 89.8685 10.692C90.2418 10.916 90.5405 11.1913 90.7645 11.518H90.8205L91.0025 10.496H91.9825V21.36H90.7505V18.154ZM88.6225 17.118C89.1358 17.118 89.5465 17.0247 89.8545 16.838C90.1718 16.6513 90.4005 16.3667 90.5405 15.984C90.6805 15.592 90.7552 15.1067 90.7645 14.528V14.276C90.7645 13.324 90.6058 12.6053 90.2885 12.12C89.9712 11.6253 89.4065 11.378 88.5945 11.378C87.9225 11.378 87.4232 11.644 87.0965 12.176C86.7698 12.6987 86.6065 13.4033 86.6065 14.29C86.6065 15.1767 86.7698 15.872 87.0965 16.376C87.4325 16.8707 87.9412 17.118 88.6225 17.118ZM97.9778 10.356C98.8738 10.356 99.5504 10.5753 100.008 11.014C100.465 11.4433 100.694 12.1433 100.694 13.114V18H99.4758V13.198C99.4758 12.5913 99.3404 12.1387 99.0698 11.84C98.7991 11.5413 98.3744 11.392 97.7958 11.392C96.9651 11.392 96.3911 11.6253 96.0738 12.092C95.7564 12.5587 95.5978 13.2307 95.5978 14.108V18H94.3658V10.496H95.3598L95.5418 11.518H95.6118C95.7798 11.2567 95.9851 11.042 96.2278 10.874C96.4798 10.6967 96.7551 10.566 97.0538 10.482C97.3524 10.398 97.6604 10.356 97.9778 10.356ZM104.798 14.164L102.208 10.496H103.608L105.54 13.324L107.458 10.496H108.844L106.254 14.164L108.984 18H107.584L105.54 15.004L103.468 18H102.082L104.798 14.164ZM112.208 14.164L109.618 10.496H111.018L112.95 13.324L114.868 10.496H116.254L113.664 14.164L116.394 18H114.994L112.95 15.004L110.878 18H109.492L112.208 14.164ZM120.227 18.14C119.294 18.14 118.547 17.818 117.987 17.174C117.427 16.5207 117.147 15.55 117.147 14.262C117.147 12.974 117.427 12.0033 117.987 11.35C118.556 10.6873 119.308 10.356 120.241 10.356C120.633 10.356 120.974 10.4073 121.263 10.51C121.552 10.6033 121.804 10.734 122.019 10.902C122.234 11.07 122.416 11.2567 122.565 11.462H122.649C122.64 11.3407 122.621 11.1633 122.593 10.93C122.574 10.6873 122.565 10.496 122.565 10.356V7.36H123.797V18H122.803L122.621 16.992H122.565C122.416 17.2067 122.234 17.4027 122.019 17.58C121.804 17.748 121.548 17.8833 121.249 17.986C120.96 18.0887 120.619 18.14 120.227 18.14ZM120.423 17.118C121.216 17.118 121.772 16.9033 122.089 16.474C122.416 16.0353 122.579 15.3773 122.579 14.5V14.276C122.579 13.3427 122.425 12.6287 122.117 12.134C121.809 11.63 121.24 11.378 120.409 11.378C119.746 11.378 119.247 11.644 118.911 12.176C118.584 12.6987 118.421 13.4033 118.421 14.29C118.421 15.186 118.584 15.8813 118.911 16.376C119.247 16.8707 119.751 17.118 120.423 17.118ZM132.452 18H125.522V17.048L130.786 9.124H125.69V8.004H132.312V8.956L127.048 16.88H132.452V18ZM141.962 14.472C141.962 15.1627 141.822 15.788 141.542 16.348C141.262 16.8987 140.833 17.3373 140.254 17.664C139.685 17.9813 138.957 18.14 138.07 18.14C136.829 18.14 135.881 17.804 135.228 17.132C134.584 16.4507 134.262 15.5547 134.262 14.444V8.004H135.522V14.486C135.522 15.298 135.737 15.928 136.166 16.376C136.605 16.824 137.263 17.048 138.14 17.048C138.747 17.048 139.237 16.9407 139.61 16.726C139.993 16.502 140.273 16.1987 140.45 15.816C140.627 15.424 140.716 14.976 140.716 14.472V8.004H141.962V14.472ZM148.884 8.97C148.352 8.97 147.872 9.06333 147.442 9.25C147.013 9.42733 146.649 9.69333 146.35 10.048C146.052 10.3933 145.823 10.818 145.664 11.322C145.506 11.8167 145.426 12.3767 145.426 13.002C145.426 13.8233 145.552 14.5373 145.804 15.144C146.066 15.7507 146.448 16.2173 146.952 16.544C147.466 16.8707 148.105 17.034 148.87 17.034C149.309 17.034 149.724 16.9967 150.116 16.922C150.508 16.8473 150.891 16.754 151.264 16.642V17.734C150.891 17.874 150.504 17.9767 150.102 18.042C149.71 18.1073 149.239 18.14 148.688 18.14C147.671 18.14 146.822 17.93 146.14 17.51C145.459 17.09 144.946 16.4927 144.6 15.718C144.264 14.9433 144.096 14.0333 144.096 12.988C144.096 12.232 144.199 11.5413 144.404 10.916C144.619 10.2907 144.927 9.74933 145.328 9.292C145.739 8.83467 146.243 8.48467 146.84 8.242C147.438 7.99 148.124 7.864 148.898 7.864C149.412 7.864 149.906 7.91533 150.382 8.018C150.858 8.12067 151.283 8.26533 151.656 8.452L151.152 9.516C150.844 9.376 150.499 9.25 150.116 9.138C149.743 9.026 149.332 8.97 148.884 8.97ZM152.102 10.496H153.418L155.042 14.766C155.135 15.018 155.219 15.2607 155.294 15.494C155.378 15.7273 155.453 15.956 155.518 16.18C155.583 16.3947 155.635 16.6047 155.672 16.81H155.728C155.784 16.5767 155.873 16.2733 155.994 15.9C156.115 15.5173 156.241 15.1347 156.372 14.752L157.898 10.496H159.228L155.994 19.036C155.817 19.5027 155.607 19.9087 155.364 20.254C155.131 20.6087 154.841 20.8793 154.496 21.066C154.16 21.262 153.749 21.36 153.264 21.36C153.04 21.36 152.844 21.346 152.676 21.318C152.508 21.2993 152.363 21.276 152.242 21.248V20.268C152.345 20.2867 152.466 20.3053 152.606 20.324C152.755 20.3427 152.909 20.352 153.068 20.352C153.357 20.352 153.605 20.296 153.81 20.184C154.025 20.0813 154.207 19.9273 154.356 19.722C154.505 19.526 154.631 19.2927 154.734 19.022L155.126 18.028L152.102 10.496ZM163.257 10.37C164.171 10.37 164.848 10.5707 165.287 10.972C165.725 11.3733 165.945 12.0127 165.945 12.89V18H165.049L164.811 16.936H164.755C164.54 17.2067 164.316 17.4353 164.083 17.622C163.859 17.7993 163.597 17.93 163.299 18.014C163.009 18.098 162.655 18.14 162.235 18.14C161.787 18.14 161.381 18.0607 161.017 17.902C160.662 17.7433 160.382 17.5007 160.177 17.174C159.971 16.838 159.869 16.418 159.869 15.914C159.869 15.1673 160.163 14.5933 160.751 14.192C161.339 13.7813 162.244 13.5573 163.467 13.52L164.741 13.478V13.03C164.741 12.4047 164.605 11.9707 164.335 11.728C164.064 11.4853 163.681 11.364 163.187 11.364C162.795 11.364 162.421 11.4247 162.067 11.546C161.712 11.658 161.381 11.7887 161.073 11.938L160.695 11.014C161.021 10.8367 161.409 10.6873 161.857 10.566C162.305 10.4353 162.771 10.37 163.257 10.37ZM163.621 14.374C162.687 14.4113 162.039 14.5607 161.675 14.822C161.32 15.0833 161.143 15.452 161.143 15.928C161.143 16.348 161.269 16.656 161.521 16.852C161.782 17.048 162.113 17.146 162.515 17.146C163.149 17.146 163.677 16.9733 164.097 16.628C164.517 16.2733 164.727 15.732 164.727 15.004V14.332L163.621 14.374ZM174.534 18H167.604V17.048L172.868 9.124H167.772V8.004H174.394V8.956L169.13 16.88H174.534V18ZM175.392 21.36C175.159 21.36 174.953 21.3413 174.776 21.304C174.599 21.276 174.445 21.2387 174.314 21.192V20.198C174.454 20.2353 174.599 20.268 174.748 20.296C174.897 20.324 175.061 20.338 175.238 20.338C175.537 20.338 175.784 20.254 175.98 20.086C176.176 19.9273 176.274 19.6193 176.274 19.162V10.496H177.506V19.12C177.506 19.5867 177.431 19.988 177.282 20.324C177.133 20.66 176.904 20.9167 176.596 21.094C176.288 21.2713 175.887 21.36 175.392 21.36ZM176.176 8.466C176.176 8.19533 176.246 7.99933 176.386 7.878C176.526 7.74733 176.699 7.682 176.904 7.682C177.091 7.682 177.254 7.74733 177.394 7.878C177.543 7.99933 177.618 8.19533 177.618 8.466C177.618 8.72733 177.543 8.92333 177.394 9.054C177.254 9.18467 177.091 9.25 176.904 9.25C176.699 9.25 176.526 9.18467 176.386 9.054C176.246 8.92333 176.176 8.72733 176.176 8.466ZM186.841 18H185.413L182.767 13.66L180.079 18H178.749L182.067 12.792L178.959 8.004H180.359L182.809 11.924L185.273 8.004H186.603L183.509 12.764L186.841 18ZM192.321 12.722H195.779V17.622C195.238 17.7993 194.692 17.93 194.141 18.014C193.59 18.098 192.965 18.14 192.265 18.14C191.229 18.14 190.356 17.9347 189.647 17.524C188.938 17.104 188.396 16.5113 188.023 15.746C187.659 14.9713 187.477 14.0567 187.477 13.002C187.477 11.9567 187.682 11.0513 188.093 10.286C188.504 9.52067 189.092 8.928 189.857 8.508C190.632 8.07867 191.565 7.864 192.657 7.864C193.217 7.864 193.744 7.91533 194.239 8.018C194.743 8.12067 195.21 8.26533 195.639 8.452L195.163 9.544C194.808 9.38533 194.407 9.25 193.959 9.138C193.52 9.026 193.063 8.97 192.587 8.97C191.794 8.97 191.112 9.13333 190.543 9.46C189.974 9.78667 189.54 10.2533 189.241 10.86C188.942 11.4573 188.793 12.1713 188.793 13.002C188.793 13.7953 188.919 14.5 189.171 15.116C189.432 15.7227 189.838 16.1987 190.389 16.544C190.94 16.88 191.663 17.048 192.559 17.048C192.858 17.048 193.119 17.0387 193.343 17.02C193.576 16.992 193.786 16.9593 193.973 16.922C194.169 16.8847 194.351 16.8473 194.519 16.81V13.842H192.321V12.722ZM200.659 10.356C201.153 10.356 201.597 10.4493 201.989 10.636C202.39 10.8227 202.731 11.1073 203.011 11.49H203.081L203.249 10.496H204.229V18.126C204.229 18.8353 204.107 19.428 203.865 19.904C203.622 20.3893 203.253 20.7533 202.759 20.996C202.264 21.2387 201.634 21.36 200.869 21.36C200.327 21.36 199.828 21.318 199.371 21.234C198.923 21.1593 198.521 21.0427 198.167 20.884V19.75C198.409 19.8713 198.675 19.974 198.965 20.058C199.254 20.1513 199.567 20.2213 199.903 20.268C200.239 20.3147 200.584 20.338 200.939 20.338C201.583 20.338 202.087 20.1467 202.451 19.764C202.824 19.3907 203.011 18.8773 203.011 18.224V17.93C203.011 17.818 203.015 17.6593 203.025 17.454C203.034 17.2393 203.043 17.09 203.053 17.006H202.997C202.735 17.3887 202.409 17.6733 202.017 17.86C201.634 18.0467 201.186 18.14 200.673 18.14C199.702 18.14 198.941 17.7993 198.391 17.118C197.849 16.4367 197.579 15.4847 197.579 14.262C197.579 13.4593 197.7 12.7687 197.943 12.19C198.195 11.602 198.549 11.1493 199.007 10.832C199.464 10.5147 200.015 10.356 200.659 10.356ZM200.827 11.392C200.407 11.392 200.047 11.504 199.749 11.728C199.459 11.952 199.235 12.2787 199.077 12.708C198.927 13.1373 198.853 13.66 198.853 14.276C198.853 15.2 199.021 15.9093 199.357 16.404C199.702 16.8893 200.201 17.132 200.855 17.132C201.237 17.132 201.564 17.0853 201.835 16.992C202.105 16.8893 202.329 16.7353 202.507 16.53C202.684 16.3153 202.815 16.0447 202.899 15.718C202.983 15.3913 203.025 15.004 203.025 14.556V14.262C203.025 13.5807 202.945 13.03 202.787 12.61C202.637 12.19 202.399 11.882 202.073 11.686C201.746 11.49 201.331 11.392 200.827 11.392ZM213.136 14.234C213.136 14.8593 213.052 15.4147 212.884 15.9C212.725 16.376 212.492 16.782 212.184 17.118C211.885 17.454 211.517 17.7107 211.078 17.888C210.649 18.056 210.168 18.14 209.636 18.14C209.141 18.14 208.684 18.056 208.264 17.888C207.844 17.7107 207.48 17.454 207.172 17.118C206.864 16.782 206.621 16.376 206.444 15.9C206.276 15.4147 206.192 14.8593 206.192 14.234C206.192 13.4033 206.332 12.7033 206.612 12.134C206.892 11.5553 207.293 11.1167 207.816 10.818C208.339 10.51 208.959 10.356 209.678 10.356C210.359 10.356 210.957 10.51 211.47 10.818C211.993 11.1167 212.399 11.5553 212.688 12.134C212.987 12.7033 213.136 13.4033 213.136 14.234ZM207.466 14.234C207.466 14.822 207.541 15.3353 207.69 15.774C207.849 16.2033 208.091 16.5347 208.418 16.768C208.745 17.0013 209.16 17.118 209.664 17.118C210.168 17.118 210.583 17.0013 210.91 16.768C211.237 16.5347 211.475 16.2033 211.624 15.774C211.783 15.3353 211.862 14.822 211.862 14.234C211.862 13.6367 211.783 13.128 211.624 12.708C211.465 12.288 211.223 11.966 210.896 11.742C210.579 11.5087 210.163 11.392 209.65 11.392C208.885 11.392 208.329 11.644 207.984 12.148C207.639 12.652 207.466 13.3473 207.466 14.234ZM219.974 15.928C219.974 16.4133 219.853 16.8193 219.61 17.146C219.368 17.4727 219.022 17.72 218.574 17.888C218.126 18.056 217.594 18.14 216.978 18.14C216.456 18.14 216.003 18.098 215.62 18.014C215.247 17.93 214.916 17.8133 214.626 17.664V16.544C214.925 16.6933 215.284 16.8333 215.704 16.964C216.134 17.0853 216.568 17.146 217.006 17.146C217.632 17.146 218.084 17.048 218.364 16.852C218.644 16.6467 218.784 16.376 218.784 16.04C218.784 15.8533 218.733 15.6853 218.63 15.536C218.528 15.3867 218.341 15.2373 218.07 15.088C217.809 14.9387 217.431 14.7707 216.936 14.584C216.451 14.3973 216.036 14.2107 215.69 14.024C215.345 13.8373 215.079 13.6133 214.892 13.352C214.706 13.0907 214.612 12.7547 214.612 12.344C214.612 11.7093 214.869 11.2193 215.382 10.874C215.905 10.5287 216.586 10.356 217.426 10.356C217.884 10.356 218.308 10.4027 218.7 10.496C219.102 10.58 219.475 10.7013 219.82 10.86L219.4 11.84C219.195 11.7467 218.976 11.6673 218.742 11.602C218.518 11.5273 218.29 11.4713 218.056 11.434C217.823 11.3873 217.585 11.364 217.342 11.364C216.838 11.364 216.451 11.448 216.18 11.616C215.919 11.7747 215.788 11.994 215.788 12.274C215.788 12.4793 215.849 12.6567 215.97 12.806C216.092 12.946 216.292 13.086 216.572 13.226C216.862 13.3567 217.244 13.5153 217.72 13.702C218.196 13.8793 218.602 14.0613 218.938 14.248C219.274 14.4347 219.531 14.6633 219.708 14.934C219.886 15.1953 219.974 15.5267 219.974 15.928ZM227.626 15.326C227.626 15.9233 227.481 16.432 227.192 16.852C226.902 17.2627 226.487 17.58 225.946 17.804C225.414 18.028 224.784 18.14 224.056 18.14C223.682 18.14 223.323 18.1213 222.978 18.084C222.642 18.0467 222.334 17.9953 222.054 17.93C221.774 17.8553 221.526 17.7667 221.312 17.664V16.46C221.648 16.6093 222.063 16.7447 222.558 16.866C223.062 16.9873 223.58 17.048 224.112 17.048C224.606 17.048 225.022 16.9827 225.358 16.852C225.694 16.7213 225.946 16.5347 226.114 16.292C226.282 16.0493 226.366 15.7647 226.366 15.438C226.366 15.1113 226.296 14.836 226.156 14.612C226.016 14.388 225.773 14.1827 225.428 13.996C225.092 13.8 224.62 13.5947 224.014 13.38C223.584 13.2213 223.206 13.0533 222.88 12.876C222.562 12.6893 222.296 12.4793 222.082 12.246C221.867 12.0127 221.704 11.7467 221.592 11.448C221.489 11.1493 221.438 10.804 221.438 10.412C221.438 9.88 221.573 9.42733 221.844 9.054C222.114 8.67133 222.488 8.37733 222.964 8.172C223.449 7.96667 224.004 7.864 224.63 7.864C225.18 7.864 225.684 7.91533 226.142 8.018C226.599 8.12067 227.014 8.256 227.388 8.424L226.996 9.502C226.65 9.35267 226.272 9.22667 225.862 9.124C225.46 9.02133 225.04 8.97 224.602 8.97C224.182 8.97 223.832 9.03067 223.552 9.152C223.272 9.27333 223.062 9.446 222.922 9.67C222.782 9.88467 222.712 10.1367 222.712 10.426C222.712 10.762 222.782 11.042 222.922 11.266C223.062 11.49 223.29 11.6907 223.608 11.868C223.925 12.0453 224.354 12.2367 224.896 12.442C225.484 12.6567 225.978 12.89 226.38 13.142C226.79 13.3847 227.098 13.6787 227.304 14.024C227.518 14.3693 227.626 14.8033 227.626 15.326ZM233.041 10.356C233.965 10.356 234.707 10.678 235.267 11.322C235.837 11.966 236.121 12.9367 236.121 14.234C236.121 15.0833 235.991 15.802 235.729 16.39C235.477 16.9687 235.118 17.4073 234.651 17.706C234.194 17.9953 233.653 18.14 233.027 18.14C232.645 18.14 232.304 18.0887 232.005 17.986C231.707 17.8833 231.45 17.7527 231.235 17.594C231.03 17.426 230.853 17.244 230.703 17.048H230.619C230.638 17.2067 230.657 17.4073 230.675 17.65C230.694 17.8927 230.703 18.1027 230.703 18.28V21.36H229.471V10.496H230.479L230.647 11.518H230.703C230.853 11.3033 231.03 11.1073 231.235 10.93C231.45 10.7527 231.702 10.6127 231.991 10.51C232.29 10.4073 232.64 10.356 233.041 10.356ZM232.817 11.392C232.313 11.392 231.907 11.49 231.599 11.686C231.291 11.8727 231.067 12.1573 230.927 12.54C230.787 12.9227 230.713 13.408 230.703 13.996V14.234C230.703 14.85 230.769 15.3727 230.899 15.802C231.03 16.2313 231.249 16.558 231.557 16.782C231.875 17.006 232.304 17.118 232.845 17.118C233.303 17.118 233.676 16.992 233.965 16.74C234.264 16.488 234.483 16.1473 234.623 15.718C234.773 15.2793 234.847 14.78 234.847 14.22C234.847 13.3613 234.679 12.6753 234.343 12.162C234.017 11.6487 233.508 11.392 232.817 11.392ZM243.923 15.326C243.923 15.9233 243.778 16.432 243.489 16.852C243.199 17.2627 242.784 17.58 242.243 17.804C241.711 18.028 241.081 18.14 240.353 18.14C239.979 18.14 239.62 18.1213 239.275 18.084C238.939 18.0467 238.631 17.9953 238.351 17.93C238.071 17.8553 237.823 17.7667 237.609 17.664V16.46C237.945 16.6093 238.36 16.7447 238.855 16.866C239.359 16.9873 239.877 17.048 240.409 17.048C240.903 17.048 241.319 16.9827 241.655 16.852C241.991 16.7213 242.243 16.5347 242.411 16.292C242.579 16.0493 242.663 15.7647 242.663 15.438C242.663 15.1113 242.593 14.836 242.453 14.612C242.313 14.388 242.07 14.1827 241.725 13.996C241.389 13.8 240.917 13.5947 240.311 13.38C239.881 13.2213 239.503 13.0533 239.177 12.876C238.859 12.6893 238.593 12.4793 238.379 12.246C238.164 12.0127 238.001 11.7467 237.889 11.448C237.786 11.1493 237.735 10.804 237.735 10.412C237.735 9.88 237.87 9.42733 238.141 9.054C238.411 8.67133 238.785 8.37733 239.261 8.172C239.746 7.96667 240.301 7.864 240.927 7.864C241.477 7.864 241.981 7.91533 242.439 8.018C242.896 8.12067 243.311 8.256 243.685 8.424L243.293 9.502C242.947 9.35267 242.569 9.22667 242.159 9.124C241.757 9.02133 241.337 8.97 240.899 8.97C240.479 8.97 240.129 9.03067 239.849 9.152C239.569 9.27333 239.359 9.446 239.219 9.67C239.079 9.88467 239.009 10.1367 239.009 10.426C239.009 10.762 239.079 11.042 239.219 11.266C239.359 11.49 239.587 11.6907 239.905 11.868C240.222 12.0453 240.651 12.2367 241.193 12.442C241.781 12.6567 242.275 12.89 242.677 13.142C243.087 13.3847 243.395 13.6787 243.601 14.024C243.815 14.3693 243.923 14.8033 243.923 15.326ZM248.582 8.004C249.889 8.004 250.841 8.26067 251.438 8.774C252.035 9.28733 252.334 10.0107 252.334 10.944C252.334 11.3547 252.264 11.7513 252.124 12.134C251.993 12.5073 251.774 12.8433 251.466 13.142C251.158 13.4407 250.747 13.6787 250.234 13.856C249.721 14.024 249.091 14.108 248.344 14.108H247.196V18H245.936V8.004H248.582ZM248.47 9.082H247.196V13.03H248.204C248.839 13.03 249.366 12.9647 249.786 12.834C250.206 12.694 250.519 12.4747 250.724 12.176C250.929 11.8773 251.032 11.4853 251.032 11C251.032 10.356 250.827 9.87533 250.416 9.558C250.005 9.24067 249.357 9.082 248.47 9.082ZM260.083 15.326C260.083 15.9233 259.938 16.432 259.649 16.852C259.359 17.2627 258.944 17.58 258.403 17.804C257.871 18.028 257.241 18.14 256.513 18.14C256.139 18.14 255.78 18.1213 255.435 18.084C255.099 18.0467 254.791 17.9953 254.511 17.93C254.231 17.8553 253.983 17.7667 253.769 17.664V16.46C254.105 16.6093 254.52 16.7447 255.015 16.866C255.519 16.9873 256.037 17.048 256.569 17.048C257.063 17.048 257.479 16.9827 257.815 16.852C258.151 16.7213 258.403 16.5347 258.571 16.292C258.739 16.0493 258.823 15.7647 258.823 15.438C258.823 15.1113 258.753 14.836 258.613 14.612C258.473 14.388 258.23 14.1827 257.885 13.996C257.549 13.8 257.077 13.5947 256.471 13.38C256.041 13.2213 255.663 13.0533 255.337 12.876C255.019 12.6893 254.753 12.4793 254.539 12.246C254.324 12.0127 254.161 11.7467 254.049 11.448C253.946 11.1493 253.895 10.804 253.895 10.412C253.895 9.88 254.03 9.42733 254.301 9.054C254.571 8.67133 254.945 8.37733 255.421 8.172C255.906 7.96667 256.461 7.864 257.087 7.864C257.637 7.864 258.141 7.91533 258.599 8.018C259.056 8.12067 259.471 8.256 259.845 8.424L259.453 9.502C259.107 9.35267 258.729 9.22667 258.319 9.124C257.917 9.02133 257.497 8.97 257.059 8.97C256.639 8.97 256.289 9.03067 256.009 9.152C255.729 9.27333 255.519 9.446 255.379 9.67C255.239 9.88467 255.169 10.1367 255.169 10.426C255.169 10.762 255.239 11.042 255.379 11.266C255.519 11.49 255.747 11.6907 256.065 11.868C256.382 12.0453 256.811 12.2367 257.353 12.442C257.941 12.6567 258.435 12.89 258.837 13.142C259.247 13.3847 259.555 13.6787 259.761 14.024C259.975 14.3693 260.083 14.8033 260.083 15.326ZM269.138 8.004L265.568 18H264.308L260.738 8.004H262.054L264.308 14.416C264.411 14.6867 264.5 14.948 264.574 15.2C264.649 15.452 264.714 15.6947 264.77 15.928C264.836 16.152 264.892 16.376 264.938 16.6C264.985 16.376 265.036 16.1473 265.092 15.914C265.158 15.6807 265.228 15.438 265.302 15.186C265.386 14.934 265.475 14.668 265.568 14.388L267.808 8.004H269.138ZM278.093 14.472C278.093 15.1627 277.953 15.788 277.673 16.348C277.393 16.8987 276.963 17.3373 276.385 17.664C275.815 17.9813 275.087 18.14 274.201 18.14C272.959 18.14 272.012 17.804 271.359 17.132C270.715 16.4507 270.393 15.5547 270.393 14.444V8.004H271.653V14.486C271.653 15.298 271.867 15.928 272.297 16.376C272.735 16.824 273.393 17.048 274.271 17.048C274.877 17.048 275.367 16.9407 275.741 16.726C276.123 16.502 276.403 16.1987 276.581 15.816C276.758 15.424 276.847 14.976 276.847 14.472V8.004H278.093V14.472ZM284.343 18H283.139V11.014C283.139 10.7433 283.139 10.5147 283.139 10.328C283.148 10.1413 283.158 9.96867 283.167 9.81C283.176 9.642 283.186 9.46933 283.195 9.292C283.046 9.44133 282.91 9.56733 282.789 9.67C282.668 9.77267 282.514 9.90333 282.327 10.062L281.263 10.93L280.619 10.104L283.321 8.004H284.343V18ZM295.113 15.732H293.657V18H292.467V15.732H287.679V14.682L292.383 7.948H293.657V14.626H295.113V15.732ZM292.467 11.476C292.467 11.2333 292.467 11.014 292.467 10.818C292.476 10.6127 292.485 10.4213 292.495 10.244C292.504 10.0667 292.509 9.89867 292.509 9.74C292.518 9.572 292.527 9.41333 292.537 9.264H292.481C292.406 9.44133 292.313 9.63267 292.201 9.838C292.089 10.0433 291.981 10.216 291.879 10.356L288.883 14.626H292.467V11.476ZM304.678 18H303.208L297.86 9.698H297.804C297.814 9.866 297.823 10.0527 297.832 10.258C297.851 10.4633 297.865 10.6873 297.874 10.93C297.884 11.1633 297.893 11.406 297.902 11.658C297.912 11.91 297.916 12.162 297.916 12.414V18H296.754V8.004H298.21L303.544 16.278H303.6C303.591 16.166 303.582 16.012 303.572 15.816C303.563 15.6107 303.554 15.3867 303.544 15.144C303.535 14.892 303.526 14.6353 303.516 14.374C303.507 14.1127 303.502 13.87 303.502 13.646V8.004H304.678V18ZM311.801 18L308.511 9.236H308.455C308.474 9.42267 308.488 9.66067 308.497 9.95C308.516 10.2393 308.53 10.5567 308.539 10.902C308.549 11.238 308.553 11.5833 308.553 11.938V18H307.391V8.004H309.253L312.333 16.194H312.389L315.525 8.004H317.373V18H316.127V11.854C316.127 11.5273 316.132 11.2053 316.141 10.888C316.151 10.5613 316.165 10.258 316.183 9.978C316.202 9.68867 316.216 9.446 316.225 9.25H316.169L312.837 18H311.801ZM325.678 18H320.092V8.004H325.678V9.11H321.352V12.232H325.426V13.324H321.352V16.894H325.678V18ZM334.242 15.732H332.786V18H331.596V15.732H326.808V14.682L331.512 7.948H332.786V14.626H334.242V15.732ZM331.596 11.476C331.596 11.2333 331.596 11.014 331.596 10.818C331.605 10.6127 331.614 10.4213 331.624 10.244C331.633 10.0667 331.638 9.89867 331.638 9.74C331.647 9.572 331.656 9.41333 331.666 9.264H331.61C331.535 9.44133 331.442 9.63267 331.33 9.838C331.218 10.0433 331.11 10.216 331.008 10.356L328.012 14.626H331.596V11.476ZM338.641 8.004C339.472 8.004 340.153 8.11133 340.685 8.326C341.227 8.53133 341.628 8.844 341.889 9.264C342.151 9.684 342.281 10.2113 342.281 10.846C342.281 11.378 342.183 11.8213 341.987 12.176C341.791 12.5307 341.539 12.8153 341.231 13.03C340.933 13.2353 340.615 13.3987 340.279 13.52L343.023 18H341.553L339.131 13.87H337.143V18H335.883V8.004H338.641ZM338.571 9.096H337.143V12.806H338.641C339.183 12.806 339.626 12.736 339.971 12.596C340.317 12.4467 340.569 12.232 340.727 11.952C340.895 11.672 340.979 11.322 340.979 10.902C340.979 10.4633 340.891 10.1133 340.713 9.852C340.545 9.59067 340.284 9.39933 339.929 9.278C339.575 9.15667 339.122 9.096 338.571 9.096ZM347.238 8.004C348.545 8.004 349.497 8.26067 350.094 8.774C350.692 9.28733 350.99 10.0107 350.99 10.944C350.99 11.3547 350.92 11.7513 350.78 12.134C350.65 12.5073 350.43 12.8433 350.122 13.142C349.814 13.4407 349.404 13.6787 348.89 13.856C348.377 14.024 347.747 14.108 347 14.108H345.852V18H344.592V8.004H347.238ZM347.126 9.082H345.852V13.03H346.86C347.495 13.03 348.022 12.9647 348.442 12.834C348.862 12.694 349.175 12.4747 349.38 12.176C349.586 11.8773 349.688 11.4853 349.688 11C349.688 10.356 349.483 9.87533 349.072 9.558C348.662 9.24067 348.013 9.082 347.126 9.082ZM359.586 18H358.158L355.512 13.66L352.824 18H351.494L354.812 12.792L351.704 8.004H353.104L355.553 11.924L358.018 8.004H359.347L356.254 12.764L359.586 18Z" fill="#555555"/>
</svg>
