<svg width="935" height="25" viewBox="0 0 935 25" fill="none" xmlns="http://www.w3.org/2000/svg">
<rect width="643.855" height="25" fill="#555555"/>
<rect x="117" width="818" height="25" fill="#7766EE"/>
<path d="M23.8072 18L20.5172 9.236H20.4612C20.4798 9.42267 20.4938 9.66067 20.5032 9.95C20.5218 10.2393 20.5358 10.5567 20.5452 10.902C20.5545 11.238 20.5592 11.5833 20.5592 11.938V18H19.3972V8.004H21.2592L24.3392 16.194H24.3952L27.5312 8.004H29.3792V18H28.1332V11.854C28.1332 11.5273 28.1378 11.2053 28.1472 10.888C28.1565 10.5613 28.1705 10.258 28.1892 9.978C28.2078 9.68867 28.2218 9.446 28.2312 9.25H28.1752L24.8432 18H23.8072ZM38.4544 14.234C38.4544 14.8593 38.3704 15.4147 38.2024 15.9C38.0437 16.376 37.8104 16.782 37.5024 17.118C37.2037 17.454 36.835 17.7107 36.3964 17.888C35.967 18.056 35.4864 18.14 34.9544 18.14C34.4597 18.14 34.0024 18.056 33.5824 17.888C33.1624 17.7107 32.7984 17.454 32.4904 17.118C32.1824 16.782 31.9397 16.376 31.7624 15.9C31.5944 15.4147 31.5104 14.8593 31.5104 14.234C31.5104 13.4033 31.6504 12.7033 31.9304 12.134C32.2104 11.5553 32.6117 11.1167 33.1344 10.818C33.657 10.51 34.2777 10.356 34.9964 10.356C35.6777 10.356 36.275 10.51 36.7884 10.818C37.311 11.1167 37.717 11.5553 38.0064 12.134C38.305 12.7033 38.4544 13.4033 38.4544 14.234ZM32.7844 14.234C32.7844 14.822 32.859 15.3353 33.0084 15.774C33.167 16.2033 33.4097 16.5347 33.7364 16.768C34.063 17.0013 34.4784 17.118 34.9824 17.118C35.4864 17.118 35.9017 17.0013 36.2284 16.768C36.555 16.5347 36.793 16.2033 36.9424 15.774C37.101 15.3353 37.1804 14.822 37.1804 14.234C37.1804 13.6367 37.101 13.128 36.9424 12.708C36.7837 12.288 36.541 11.966 36.2144 11.742C35.897 11.5087 35.4817 11.392 34.9684 11.392C34.203 11.392 33.6477 11.644 33.3024 12.148C32.957 12.652 32.7844 13.3473 32.7844 14.234ZM44.0189 10.356C44.9149 10.356 45.5916 10.5753 46.0489 11.014C46.5062 11.4433 46.7349 12.1433 46.7349 13.114V18H45.5169V13.198C45.5169 12.5913 45.3816 12.1387 45.1109 11.84C44.8402 11.5413 44.4156 11.392 43.8369 11.392C43.0062 11.392 42.4322 11.6253 42.1149 12.092C41.7976 12.5587 41.6389 13.2307 41.6389 14.108V18H40.4069V10.496H41.4009L41.5829 11.518H41.6529C41.8209 11.2567 42.0262 11.042 42.2689 10.874C42.5209 10.6967 42.7962 10.566 43.0949 10.482C43.3936 10.398 43.7016 10.356 44.0189 10.356ZM51.9592 10.356C52.6032 10.356 53.1539 10.496 53.6112 10.776C54.0779 11.056 54.4325 11.4527 54.6752 11.966C54.9272 12.47 55.0532 13.0627 55.0532 13.744V14.486H49.9152C49.9339 15.3353 50.1485 15.984 50.5592 16.432C50.9792 16.8707 51.5625 17.09 52.3092 17.09C52.7852 17.09 53.2052 17.048 53.5692 16.964C53.9425 16.8707 54.3252 16.74 54.7172 16.572V17.65C54.3345 17.818 53.9565 17.9393 53.5832 18.014C53.2099 18.098 52.7665 18.14 52.2532 18.14C51.5439 18.14 50.9139 17.9953 50.3632 17.706C49.8219 17.4167 49.3972 16.9873 49.0892 16.418C48.7905 15.8393 48.6412 15.1347 48.6412 14.304C48.6412 13.4827 48.7765 12.778 49.0472 12.19C49.3272 11.602 49.7145 11.1493 50.2092 10.832C50.7132 10.5147 51.2965 10.356 51.9592 10.356ZM51.9452 11.364C51.3572 11.364 50.8905 11.5553 50.5452 11.938C50.2092 12.3113 50.0085 12.834 49.9432 13.506H53.7652C53.7652 13.0767 53.6999 12.7033 53.5692 12.386C53.4385 12.0687 53.2379 11.8213 52.9672 11.644C52.7059 11.4573 52.3652 11.364 51.9452 11.364ZM60.4636 10.356C60.6036 10.356 60.7529 10.3653 60.9116 10.384C61.0796 10.3933 61.2242 10.412 61.3456 10.44L61.1916 11.574C61.0702 11.546 60.9349 11.5227 60.7856 11.504C60.6456 11.4853 60.5102 11.476 60.3796 11.476C60.0902 11.476 59.8149 11.5367 59.5536 11.658C59.2922 11.7793 59.0589 11.952 58.8536 12.176C58.6482 12.3907 58.4849 12.652 58.3636 12.96C58.2516 13.268 58.1956 13.6133 58.1956 13.996V18H56.9636V10.496H57.9716L58.1116 11.868H58.1676C58.3262 11.588 58.5176 11.336 58.7416 11.112C58.9656 10.8787 59.2222 10.6967 59.5116 10.566C59.8009 10.426 60.1182 10.356 60.4636 10.356ZM68.9973 14.234C68.9973 14.8593 68.9133 15.4147 68.7453 15.9C68.5867 16.376 68.3533 16.782 68.0453 17.118C67.7467 17.454 67.378 17.7107 66.9393 17.888C66.51 18.056 66.0293 18.14 65.4973 18.14C65.0027 18.14 64.5453 18.056 64.1253 17.888C63.7053 17.7107 63.3413 17.454 63.0333 17.118C62.7253 16.782 62.4827 16.376 62.3053 15.9C62.1373 15.4147 62.0533 14.8593 62.0533 14.234C62.0533 13.4033 62.1933 12.7033 62.4733 12.134C62.7533 11.5553 63.1547 11.1167 63.6773 10.818C64.2 10.51 64.8207 10.356 65.5393 10.356C66.2207 10.356 66.818 10.51 67.3313 10.818C67.854 11.1167 68.26 11.5553 68.5493 12.134C68.848 12.7033 68.9973 13.4033 68.9973 14.234ZM63.3273 14.234C63.3273 14.822 63.402 15.3353 63.5513 15.774C63.71 16.2033 63.9527 16.5347 64.2793 16.768C64.606 17.0013 65.0213 17.118 65.5253 17.118C66.0293 17.118 66.4447 17.0013 66.7713 16.768C67.098 16.5347 67.336 16.2033 67.4853 15.774C67.644 15.3353 67.7233 14.822 67.7233 14.234C67.7233 13.6367 67.644 13.128 67.4853 12.708C67.3267 12.288 67.084 11.966 66.7573 11.742C66.44 11.5087 66.0247 11.392 65.5113 11.392C64.746 11.392 64.1907 11.644 63.8453 12.148C63.5 12.652 63.3273 13.3473 63.3273 14.234ZM81.5446 18H80.1166L77.4706 13.66L74.7826 18H73.4526L76.7706 12.792L73.6626 8.004H75.0626L77.5126 11.924L79.9766 8.004H81.3066L78.2126 12.764L81.5446 18ZM87.3677 18L84.0777 9.236H84.0217C84.0404 9.42267 84.0544 9.66067 84.0637 9.95C84.0824 10.2393 84.0964 10.5567 84.1057 10.902C84.1151 11.238 84.1197 11.5833 84.1197 11.938V18H82.9577V8.004H84.8197L87.8997 16.194H87.9557L91.0917 8.004H92.9397V18H91.6937V11.854C91.6937 11.5273 91.6984 11.2053 91.7077 10.888C91.7171 10.5613 91.7311 10.258 91.7497 9.978C91.7684 9.68867 91.7824 9.446 91.7917 9.25H91.7357L88.4037 18H87.3677ZM98.4169 8.004C99.2476 8.004 99.9289 8.11133 100.461 8.326C101.002 8.53133 101.404 8.844 101.665 9.264C101.926 9.684 102.057 10.2113 102.057 10.846C102.057 11.378 101.959 11.8213 101.763 12.176C101.567 12.5307 101.315 12.8153 101.007 13.03C100.708 13.2353 100.391 13.3987 100.055 13.52L102.799 18H101.329L98.9069 13.87H96.9189V18H95.6589V8.004H98.4169ZM98.3469 9.096H96.9189V12.806H98.4169C98.9582 12.806 99.4016 12.736 99.7469 12.596C100.092 12.4467 100.344 12.232 100.503 11.952C100.671 11.672 100.755 11.322 100.755 10.902C100.755 10.4633 100.666 10.1133 100.489 9.852C100.321 9.59067 100.06 9.39933 99.7049 9.278C99.3502 9.15667 98.8976 9.096 98.3469 9.096Z" fill="white"/>
<path d="M138.218 15.732H136.762V18H135.572V15.732H130.784V14.682L135.488 7.948H136.762V14.626H138.218V15.732ZM135.572 11.476C135.572 11.2333 135.572 11.014 135.572 10.818C135.581 10.6127 135.59 10.4213 135.6 10.244C135.609 10.0667 135.614 9.89867 135.614 9.74C135.623 9.572 135.632 9.41333 135.642 9.264H135.586C135.511 9.44133 135.418 9.63267 135.306 9.838C135.194 10.0433 135.086 10.216 134.984 10.356L131.988 14.626H135.572V11.476ZM146.229 15.732H144.773V18H143.583V15.732H138.795V14.682L143.499 7.948H144.773V14.626H146.229V15.732ZM143.583 11.476C143.583 11.2333 143.583 11.014 143.583 10.818C143.593 10.6127 143.602 10.4213 143.611 10.244C143.621 10.0667 143.625 9.89867 143.625 9.74C143.635 9.572 143.644 9.41333 143.653 9.264H143.597C143.523 9.44133 143.429 9.63267 143.317 9.838C143.205 10.0433 143.098 10.216 142.995 10.356L139.999 14.626H143.583V11.476ZM151.203 10.356C151.343 10.356 151.492 10.3653 151.651 10.384C151.819 10.3933 151.964 10.412 152.085 10.44L151.931 11.574C151.81 11.546 151.674 11.5227 151.525 11.504C151.385 11.4853 151.25 11.476 151.119 11.476C150.83 11.476 150.554 11.5367 150.293 11.658C150.032 11.7793 149.798 11.952 149.593 12.176C149.388 12.3907 149.224 12.652 149.103 12.96C148.991 13.268 148.935 13.6133 148.935 13.996V18H147.703V10.496H148.711L148.851 11.868H148.907C149.066 11.588 149.257 11.336 149.481 11.112C149.705 10.8787 149.962 10.6967 150.251 10.566C150.54 10.426 150.858 10.356 151.203 10.356ZM156.009 10.356C156.504 10.356 156.947 10.4493 157.339 10.636C157.741 10.8227 158.081 11.1073 158.361 11.49H158.431L158.599 10.496H159.579V18.126C159.579 18.8353 159.458 19.428 159.215 19.904C158.973 20.3893 158.604 20.7533 158.109 20.996C157.615 21.2387 156.985 21.36 156.219 21.36C155.678 21.36 155.179 21.318 154.721 21.234C154.273 21.1593 153.872 21.0427 153.517 20.884V19.75C153.76 19.8713 154.026 19.974 154.315 20.058C154.605 20.1513 154.917 20.2213 155.253 20.268C155.589 20.3147 155.935 20.338 156.289 20.338C156.933 20.338 157.437 20.1467 157.801 19.764C158.175 19.3907 158.361 18.8773 158.361 18.224V17.93C158.361 17.818 158.366 17.6593 158.375 17.454C158.385 17.2393 158.394 17.09 158.403 17.006H158.347C158.086 17.3887 157.759 17.6733 157.367 17.86C156.985 18.0467 156.537 18.14 156.023 18.14C155.053 18.14 154.292 17.7993 153.741 17.118C153.2 16.4367 152.929 15.4847 152.929 14.262C152.929 13.4593 153.051 12.7687 153.293 12.19C153.545 11.602 153.9 11.1493 154.357 10.832C154.815 10.5147 155.365 10.356 156.009 10.356ZM156.177 11.392C155.757 11.392 155.398 11.504 155.099 11.728C154.81 11.952 154.586 12.2787 154.427 12.708C154.278 13.1373 154.203 13.66 154.203 14.276C154.203 15.2 154.371 15.9093 154.707 16.404C155.053 16.8893 155.552 17.132 156.205 17.132C156.588 17.132 156.915 17.0853 157.185 16.992C157.456 16.8893 157.68 16.7353 157.857 16.53C158.035 16.3153 158.165 16.0447 158.249 15.718C158.333 15.3913 158.375 15.004 158.375 14.556V14.262C158.375 13.5807 158.296 13.03 158.137 12.61C157.988 12.19 157.75 11.882 157.423 11.686C157.097 11.49 156.681 11.392 156.177 11.392ZM160.787 10.496H162.103L163.727 14.766C163.82 15.018 163.904 15.2607 163.979 15.494C164.063 15.7273 164.137 15.956 164.203 16.18C164.268 16.3947 164.319 16.6047 164.357 16.81H164.413C164.469 16.5767 164.557 16.2733 164.679 15.9C164.8 15.5173 164.926 15.1347 165.057 14.752L166.583 10.496H167.913L164.679 19.036C164.501 19.5027 164.291 19.9087 164.049 20.254C163.815 20.6087 163.526 20.8793 163.181 21.066C162.845 21.262 162.434 21.36 161.949 21.36C161.725 21.36 161.529 21.346 161.361 21.318C161.193 21.2993 161.048 21.276 160.927 21.248V20.268C161.029 20.2867 161.151 20.3053 161.291 20.324C161.44 20.3427 161.594 20.352 161.753 20.352C162.042 20.352 162.289 20.296 162.495 20.184C162.709 20.0813 162.891 19.9273 163.041 19.722C163.19 19.526 163.316 19.2927 163.419 19.022L163.811 18.028L160.787 10.496ZM176.911 18H175.651V13.338H170.527V18H169.267V8.004H170.527V12.232H175.651V8.004H176.911V18ZM182.136 11.868C182.818 11.868 183.41 11.9847 183.914 12.218C184.418 12.4513 184.806 12.7873 185.076 13.226C185.356 13.6553 185.496 14.1827 185.496 14.808C185.496 15.4987 185.347 16.096 185.048 16.6C184.75 17.0947 184.32 17.4773 183.76 17.748C183.21 18.0093 182.542 18.14 181.758 18.14C181.245 18.14 180.76 18.0933 180.302 18C179.854 17.9067 179.476 17.7713 179.168 17.594V16.432C179.504 16.6373 179.91 16.8007 180.386 16.922C180.872 17.034 181.334 17.09 181.772 17.09C182.267 17.09 182.696 17.0153 183.06 16.866C183.434 16.7073 183.723 16.4693 183.928 16.152C184.134 15.8253 184.236 15.4193 184.236 14.934C184.236 14.2807 184.036 13.7813 183.634 13.436C183.233 13.0813 182.598 12.904 181.73 12.904C181.469 12.904 181.17 12.9273 180.834 12.974C180.498 13.0207 180.228 13.0673 180.022 13.114L179.406 12.722L179.784 8.004H184.796V9.124H180.834L180.596 12.022C180.755 11.994 180.97 11.9613 181.24 11.924C181.511 11.8867 181.81 11.868 182.136 11.868ZM190.33 10.37C191.245 10.37 191.921 10.5707 192.36 10.972C192.799 11.3733 193.018 12.0127 193.018 12.89V18H192.122L191.884 16.936H191.828C191.613 17.2067 191.389 17.4353 191.156 17.622C190.932 17.7993 190.671 17.93 190.372 18.014C190.083 18.098 189.728 18.14 189.308 18.14C188.86 18.14 188.454 18.0607 188.09 17.902C187.735 17.7433 187.455 17.5007 187.25 17.174C187.045 16.838 186.942 16.418 186.942 15.914C186.942 15.1673 187.236 14.5933 187.824 14.192C188.412 13.7813 189.317 13.5573 190.54 13.52L191.814 13.478V13.03C191.814 12.4047 191.679 11.9707 191.408 11.728C191.137 11.4853 190.755 11.364 190.26 11.364C189.868 11.364 189.495 11.4247 189.14 11.546C188.785 11.658 188.454 11.7887 188.146 11.938L187.768 11.014C188.095 10.8367 188.482 10.6873 188.93 10.566C189.378 10.4353 189.845 10.37 190.33 10.37ZM190.694 14.374C189.761 14.4113 189.112 14.5607 188.748 14.822C188.393 15.0833 188.216 15.452 188.216 15.928C188.216 16.348 188.342 16.656 188.594 16.852C188.855 17.048 189.187 17.146 189.588 17.146C190.223 17.146 190.75 16.9733 191.17 16.628C191.59 16.2733 191.8 15.732 191.8 15.004V14.332L190.694 14.374ZM202.294 18H200.866L198.22 13.66L195.532 18H194.202L197.52 12.792L194.412 8.004H195.812L198.262 11.924L200.726 8.004H202.056L198.962 12.764L202.294 18ZM208.425 15.928C208.425 16.4133 208.304 16.8193 208.061 17.146C207.818 17.4727 207.473 17.72 207.025 17.888C206.577 18.056 206.045 18.14 205.429 18.14C204.906 18.14 204.454 18.098 204.071 18.014C203.698 17.93 203.366 17.8133 203.077 17.664V16.544C203.376 16.6933 203.735 16.8333 204.155 16.964C204.584 17.0853 205.018 17.146 205.457 17.146C206.082 17.146 206.535 17.048 206.815 16.852C207.095 16.6467 207.235 16.376 207.235 16.04C207.235 15.8533 207.184 15.6853 207.081 15.536C206.978 15.3867 206.792 15.2373 206.521 15.088C206.26 14.9387 205.882 14.7707 205.387 14.584C204.902 14.3973 204.486 14.2107 204.141 14.024C203.796 13.8373 203.53 13.6133 203.343 13.352C203.156 13.0907 203.063 12.7547 203.063 12.344C203.063 11.7093 203.32 11.2193 203.833 10.874C204.356 10.5287 205.037 10.356 205.877 10.356C206.334 10.356 206.759 10.4027 207.151 10.496C207.552 10.58 207.926 10.7013 208.271 10.86L207.851 11.84C207.646 11.7467 207.426 11.6673 207.193 11.602C206.969 11.5273 206.74 11.4713 206.507 11.434C206.274 11.3873 206.036 11.364 205.793 11.364C205.289 11.364 204.902 11.448 204.631 11.616C204.37 11.7747 204.239 11.994 204.239 12.274C204.239 12.4793 204.3 12.6567 204.421 12.806C204.542 12.946 204.743 13.086 205.023 13.226C205.312 13.3567 205.695 13.5153 206.171 13.702C206.647 13.8793 207.053 14.0613 207.389 14.248C207.725 14.4347 207.982 14.6633 208.159 14.934C208.336 15.1953 208.425 15.5267 208.425 15.928ZM209.818 13.73C209.818 13.1513 209.855 12.582 209.93 12.022C210.014 11.462 210.154 10.9347 210.35 10.44C210.546 9.936 210.817 9.49267 211.162 9.11C211.507 8.718 211.941 8.41467 212.464 8.2C212.996 7.976 213.64 7.864 214.396 7.864C214.592 7.864 214.807 7.87333 215.04 7.892C215.283 7.91067 215.479 7.94333 215.628 7.99V9.04C215.46 8.984 215.269 8.942 215.054 8.914C214.849 8.886 214.639 8.872 214.424 8.872C213.78 8.872 213.243 8.97933 212.814 9.194C212.385 9.40867 212.044 9.70267 211.792 10.076C211.549 10.4493 211.372 10.8787 211.26 11.364C211.148 11.8493 211.078 12.3673 211.05 12.918H211.134C211.274 12.694 211.451 12.4933 211.666 12.316C211.881 12.1387 212.137 11.9987 212.436 11.896C212.744 11.7933 213.099 11.742 213.5 11.742C214.079 11.742 214.583 11.8633 215.012 12.106C215.451 12.3393 215.791 12.6847 216.034 13.142C216.277 13.59 216.398 14.136 216.398 14.78C216.398 15.4707 216.267 16.068 216.006 16.572C215.745 17.076 215.376 17.4633 214.9 17.734C214.433 18.0047 213.873 18.14 213.22 18.14C212.744 18.14 212.301 18.0513 211.89 17.874C211.479 17.6967 211.115 17.426 210.798 17.062C210.49 16.698 210.247 16.2407 210.07 15.69C209.902 15.13 209.818 14.4767 209.818 13.73ZM213.206 17.104C213.794 17.104 214.27 16.9173 214.634 16.544C214.998 16.1613 215.18 15.5733 215.18 14.78C215.18 14.1453 215.017 13.6413 214.69 13.268C214.373 12.8947 213.892 12.708 213.248 12.708C212.809 12.708 212.427 12.8013 212.1 12.988C211.773 13.1653 211.517 13.394 211.33 13.674C211.153 13.954 211.064 14.2433 211.064 14.542C211.064 14.85 211.106 15.1533 211.19 15.452C211.283 15.7507 211.419 16.026 211.596 16.278C211.783 16.53 212.007 16.7307 212.268 16.88C212.539 17.0293 212.851 17.104 213.206 17.104ZM225.726 18H224.242L220.7 13.226L219.678 14.122V18H218.418V8.004H219.678V12.932C219.958 12.6147 220.243 12.2973 220.532 11.98C220.821 11.6627 221.111 11.3453 221.4 11.028L224.102 8.004H225.572L221.61 12.358L225.726 18ZM230.25 18H228.99V9.11H225.868V8.004H233.358V9.11H230.25V18ZM240.787 18H234.179V16.978L236.797 14.332C237.301 13.828 237.726 13.38 238.071 12.988C238.416 12.596 238.678 12.2133 238.855 11.84C239.032 11.4573 239.121 11.042 239.121 10.594C239.121 10.0433 238.958 9.628 238.631 9.348C238.304 9.05867 237.88 8.914 237.357 8.914C236.872 8.914 236.442 8.998 236.069 9.166C235.705 9.334 235.332 9.56733 234.949 9.866L234.291 9.04C234.552 8.816 234.837 8.61533 235.145 8.438C235.462 8.26067 235.803 8.12067 236.167 8.018C236.54 7.91533 236.937 7.864 237.357 7.864C237.982 7.864 238.519 7.97133 238.967 8.186C239.415 8.40067 239.76 8.70867 240.003 9.11C240.255 9.502 240.381 9.97333 240.381 10.524C240.381 10.916 240.32 11.2893 240.199 11.644C240.078 11.9893 239.905 12.33 239.681 12.666C239.457 13.002 239.186 13.3427 238.869 13.688C238.552 14.0333 238.202 14.3927 237.819 14.766L235.733 16.824V16.88H240.787V18ZM248.981 10.496V18H247.973L247.791 17.006H247.735C247.576 17.2673 247.371 17.482 247.119 17.65C246.867 17.818 246.591 17.9393 246.293 18.014C245.994 18.098 245.681 18.14 245.355 18.14C244.757 18.14 244.253 18.0467 243.843 17.86C243.441 17.664 243.138 17.3653 242.933 16.964C242.727 16.5627 242.625 16.0447 242.625 15.41V10.496H243.871V15.326C243.871 15.9233 244.006 16.3713 244.277 16.67C244.547 16.9687 244.967 17.118 245.537 17.118C246.097 17.118 246.535 17.0153 246.853 16.81C247.179 16.5953 247.408 16.2873 247.539 15.886C247.679 15.4753 247.749 14.9807 247.749 14.402V10.496H248.981ZM256.249 15.928C256.249 16.4133 256.128 16.8193 255.885 17.146C255.642 17.4727 255.297 17.72 254.849 17.888C254.401 18.056 253.869 18.14 253.253 18.14C252.73 18.14 252.278 18.098 251.895 18.014C251.522 17.93 251.19 17.8133 250.901 17.664V16.544C251.2 16.6933 251.559 16.8333 251.979 16.964C252.408 17.0853 252.842 17.146 253.281 17.146C253.906 17.146 254.359 17.048 254.639 16.852C254.919 16.6467 255.059 16.376 255.059 16.04C255.059 15.8533 255.008 15.6853 254.905 15.536C254.802 15.3867 254.616 15.2373 254.345 15.088C254.084 14.9387 253.706 14.7707 253.211 14.584C252.726 14.3973 252.31 14.2107 251.965 14.024C251.62 13.8373 251.354 13.6133 251.167 13.352C250.98 13.0907 250.887 12.7547 250.887 12.344C250.887 11.7093 251.144 11.2193 251.657 10.874C252.18 10.5287 252.861 10.356 253.701 10.356C254.158 10.356 254.583 10.4027 254.975 10.496C255.376 10.58 255.75 10.7013 256.095 10.86L255.675 11.84C255.47 11.7467 255.25 11.6673 255.017 11.602C254.793 11.5273 254.564 11.4713 254.331 11.434C254.098 11.3873 253.86 11.364 253.617 11.364C253.113 11.364 252.726 11.448 252.455 11.616C252.194 11.7747 252.063 11.994 252.063 12.274C252.063 12.4793 252.124 12.6567 252.245 12.806C252.366 12.946 252.567 13.086 252.847 13.226C253.136 13.3567 253.519 13.5153 253.995 13.702C254.471 13.8793 254.877 14.0613 255.213 14.248C255.549 14.4347 255.806 14.6633 255.983 14.934C256.16 15.1953 256.249 15.5267 256.249 15.928ZM266.238 12.904C266.238 14.024 266.028 14.962 265.608 15.718C265.198 16.474 264.605 17.0433 263.83 17.426C263.056 17.8087 262.118 18 261.016 18H258.23V8.004H261.31C262.318 8.004 263.191 8.19067 263.928 8.564C264.666 8.93733 265.235 9.488 265.636 10.216C266.038 10.9347 266.238 11.8307 266.238 12.904ZM264.908 12.946C264.908 12.0593 264.759 11.3313 264.46 10.762C264.171 10.1927 263.742 9.77267 263.172 9.502C262.612 9.222 261.931 9.082 261.128 9.082H259.49V16.922H260.848C262.202 16.922 263.214 16.5907 263.886 15.928C264.568 15.256 264.908 14.262 264.908 12.946ZM271.299 18.14C270.636 18.14 270.044 18.0047 269.521 17.734C269.008 17.4633 268.602 17.0433 268.303 16.474C268.014 15.9047 267.869 15.1767 267.869 14.29C267.869 13.366 268.023 12.6147 268.331 12.036C268.639 11.4573 269.054 11.0327 269.577 10.762C270.109 10.4913 270.711 10.356 271.383 10.356C271.766 10.356 272.134 10.398 272.489 10.482C272.844 10.5567 273.133 10.65 273.357 10.762L272.979 11.784C272.755 11.7 272.494 11.6207 272.195 11.546C271.896 11.4713 271.616 11.434 271.355 11.434C270.851 11.434 270.436 11.5413 270.109 11.756C269.782 11.9707 269.54 12.288 269.381 12.708C269.222 13.128 269.143 13.6507 269.143 14.276C269.143 14.8733 269.222 15.382 269.381 15.802C269.54 16.222 269.778 16.5393 270.095 16.754C270.412 16.9687 270.809 17.076 271.285 17.076C271.696 17.076 272.055 17.034 272.363 16.95C272.68 16.866 272.97 16.7633 273.231 16.642V17.734C272.979 17.8647 272.699 17.9627 272.391 18.028C272.092 18.1027 271.728 18.14 271.299 18.14ZM281.553 15.732H280.097V18H278.907V15.732H274.119V14.682L278.823 7.948H280.097V14.626H281.553V15.732ZM278.907 11.476C278.907 11.2333 278.907 11.014 278.907 10.818C278.917 10.6127 278.926 10.4213 278.935 10.244C278.945 10.0667 278.949 9.89867 278.949 9.74C278.959 9.572 278.968 9.41333 278.977 9.264H278.921C278.847 9.44133 278.753 9.63267 278.641 9.838C278.529 10.0433 278.422 10.216 278.319 10.356L275.323 14.626H278.907V11.476ZM287.535 12.722H290.993V17.622C290.452 17.7993 289.906 17.93 289.355 18.014C288.805 18.098 288.179 18.14 287.479 18.14C286.443 18.14 285.571 17.9347 284.861 17.524C284.152 17.104 283.611 16.5113 283.237 15.746C282.873 14.9713 282.691 14.0567 282.691 13.002C282.691 11.9567 282.897 11.0513 283.307 10.286C283.718 9.52067 284.306 8.928 285.071 8.508C285.846 8.07867 286.779 7.864 287.871 7.864C288.431 7.864 288.959 7.91533 289.453 8.018C289.957 8.12067 290.424 8.26533 290.853 8.452L290.377 9.544C290.023 9.38533 289.621 9.25 289.173 9.138C288.735 9.026 288.277 8.97 287.801 8.97C287.008 8.97 286.327 9.13333 285.757 9.46C285.188 9.78667 284.754 10.2533 284.455 10.86C284.157 11.4573 284.007 12.1713 284.007 13.002C284.007 13.7953 284.133 14.5 284.385 15.116C284.647 15.7227 285.053 16.1987 285.603 16.544C286.154 16.88 286.877 17.048 287.773 17.048C288.072 17.048 288.333 17.0387 288.557 17.02C288.791 16.992 289.001 16.9593 289.187 16.922C289.383 16.8847 289.565 16.8473 289.733 16.81V13.842H287.535V12.722ZM294.445 10.482C294.445 10.6593 294.435 10.8413 294.417 11.028C294.407 11.2147 294.393 11.3827 294.375 11.532H294.459C294.617 11.2707 294.818 11.056 295.061 10.888C295.303 10.72 295.574 10.594 295.873 10.51C296.171 10.4167 296.479 10.37 296.797 10.37C297.403 10.37 297.907 10.468 298.309 10.664C298.719 10.8507 299.027 11.1447 299.233 11.546C299.438 11.9473 299.541 12.47 299.541 13.114V18H298.323V13.198C298.323 12.5913 298.187 12.1387 297.917 11.84C297.646 11.5413 297.221 11.392 296.643 11.392C296.083 11.392 295.644 11.4993 295.327 11.714C295.009 11.9193 294.781 12.2273 294.641 12.638C294.51 13.0393 294.445 13.534 294.445 14.122V18H293.213V7.36H294.445V10.482ZM308.139 18H301.209V17.048L306.473 9.124H301.377V8.004H307.999V8.956L302.735 16.88H308.139V18ZM316.837 18H315.409L312.763 13.66L310.075 18H308.745L312.063 12.792L308.955 8.004H310.355L312.805 11.924L315.269 8.004H316.599L313.505 12.764L316.837 18ZM322.66 18L319.37 9.236H319.314C319.333 9.42267 319.347 9.66067 319.356 9.95C319.375 10.2393 319.389 10.5567 319.398 10.902C319.407 11.238 319.412 11.5833 319.412 11.938V18H318.25V8.004H320.112L323.192 16.194H323.248L326.384 8.004H328.232V18H326.986V11.854C326.986 11.5273 326.991 11.2053 327 10.888C327.009 10.5613 327.023 10.258 327.042 9.978C327.061 9.68867 327.075 9.446 327.084 9.25H327.028L323.696 18H322.66ZM338.875 18H337.405L332.057 9.698H332.001C332.01 9.866 332.02 10.0527 332.029 10.258C332.048 10.4633 332.062 10.6873 332.071 10.93C332.08 11.1633 332.09 11.406 332.099 11.658C332.108 11.91 332.113 12.162 332.113 12.414V18H330.951V8.004H332.407L337.741 16.278H337.797C337.788 16.166 337.778 16.012 337.769 15.816C337.76 15.6107 337.75 15.3867 337.741 15.144C337.732 14.892 337.722 14.6353 337.713 14.374C337.704 14.1127 337.699 13.87 337.699 13.646V8.004H338.875V18ZM346.264 18H340.776V17.188L344.808 11.448H341.014V10.496H346.166V11.42L342.19 17.048H346.264V18ZM352.504 12.722H355.962V17.622C355.421 17.7993 354.875 17.93 354.324 18.014C353.773 18.098 353.148 18.14 352.448 18.14C351.412 18.14 350.539 17.9347 349.83 17.524C349.121 17.104 348.579 16.5113 348.206 15.746C347.842 14.9713 347.66 14.0567 347.66 13.002C347.66 11.9567 347.865 11.0513 348.276 10.286C348.687 9.52067 349.275 8.928 350.04 8.508C350.815 8.07867 351.748 7.864 352.84 7.864C353.4 7.864 353.927 7.91533 354.422 8.018C354.926 8.12067 355.393 8.26533 355.822 8.452L355.346 9.544C354.991 9.38533 354.59 9.25 354.142 9.138C353.703 9.026 353.246 8.97 352.77 8.97C351.977 8.97 351.295 9.13333 350.726 9.46C350.157 9.78667 349.723 10.2533 349.424 10.86C349.125 11.4573 348.976 12.1713 348.976 13.002C348.976 13.7953 349.102 14.5 349.354 15.116C349.615 15.7227 350.021 16.1987 350.572 16.544C351.123 16.88 351.846 17.048 352.742 17.048C353.041 17.048 353.302 17.0387 353.526 17.02C353.759 16.992 353.969 16.9593 354.156 16.922C354.352 16.8847 354.534 16.8473 354.702 16.81V13.842H352.504V12.722ZM365.951 14.472C365.951 15.1627 365.811 15.788 365.531 16.348C365.251 16.8987 364.822 17.3373 364.243 17.664C363.674 17.9813 362.946 18.14 362.059 18.14C360.818 18.14 359.871 17.804 359.217 17.132C358.573 16.4507 358.251 15.5547 358.251 14.444V8.004H359.511V14.486C359.511 15.298 359.726 15.928 360.155 16.376C360.594 16.824 361.252 17.048 362.129 17.048C362.736 17.048 363.226 16.9407 363.599 16.726C363.982 16.502 364.262 16.1987 364.439 15.816C364.617 15.424 364.705 14.976 364.705 14.472V8.004H365.951V14.472ZM376.654 10.356C377.503 10.356 378.138 10.5753 378.558 11.014C378.978 11.4433 379.188 12.1433 379.188 13.114V18H377.97V13.17C377.97 12.582 377.844 12.1387 377.592 11.84C377.349 11.5413 376.966 11.392 376.444 11.392C375.716 11.392 375.193 11.602 374.876 12.022C374.568 12.442 374.414 13.0533 374.414 13.856V18H373.196V13.17C373.196 12.778 373.14 12.4513 373.028 12.19C372.916 11.9193 372.748 11.7187 372.524 11.588C372.3 11.4573 372.01 11.392 371.656 11.392C371.152 11.392 370.755 11.4993 370.466 11.714C370.176 11.9193 369.966 12.2227 369.836 12.624C369.714 13.0253 369.654 13.52 369.654 14.108V18H368.422V10.496H369.416L369.598 11.518H369.668C369.826 11.2567 370.018 11.042 370.242 10.874C370.475 10.6967 370.732 10.566 371.012 10.482C371.292 10.398 371.581 10.356 371.88 10.356C372.458 10.356 372.939 10.4587 373.322 10.664C373.714 10.8693 373.998 11.1867 374.176 11.616H374.246C374.498 11.1867 374.838 10.8693 375.268 10.664C375.706 10.4587 376.168 10.356 376.654 10.356ZM384.166 10.356C384.66 10.356 385.104 10.4493 385.496 10.636C385.897 10.8227 386.238 11.1073 386.518 11.49H386.588L386.756 10.496H387.736V18.126C387.736 18.8353 387.614 19.428 387.372 19.904C387.129 20.3893 386.76 20.7533 386.266 20.996C385.771 21.2387 385.141 21.36 384.376 21.36C383.834 21.36 383.335 21.318 382.878 21.234C382.43 21.1593 382.028 21.0427 381.674 20.884V19.75C381.916 19.8713 382.182 19.974 382.472 20.058C382.761 20.1513 383.074 20.2213 383.41 20.268C383.746 20.3147 384.091 20.338 384.446 20.338C385.09 20.338 385.594 20.1467 385.958 19.764C386.331 19.3907 386.518 18.8773 386.518 18.224V17.93C386.518 17.818 386.522 17.6593 386.532 17.454C386.541 17.2393 386.55 17.09 386.56 17.006H386.504C386.242 17.3887 385.916 17.6733 385.524 17.86C385.141 18.0467 384.693 18.14 384.18 18.14C383.209 18.14 382.448 17.7993 381.898 17.118C381.356 16.4367 381.086 15.4847 381.086 14.262C381.086 13.4593 381.207 12.7687 381.45 12.19C381.702 11.602 382.056 11.1493 382.514 10.832C382.971 10.5147 383.522 10.356 384.166 10.356ZM384.334 11.392C383.914 11.392 383.554 11.504 383.256 11.728C382.966 11.952 382.742 12.2787 382.584 12.708C382.434 13.1373 382.36 13.66 382.36 14.276C382.36 15.2 382.528 15.9093 382.864 16.404C383.209 16.8893 383.708 17.132 384.362 17.132C384.744 17.132 385.071 17.0853 385.342 16.992C385.612 16.8893 385.836 16.7353 386.014 16.53C386.191 16.3153 386.322 16.0447 386.406 15.718C386.49 15.3913 386.532 15.004 386.532 14.556V14.262C386.532 13.5807 386.452 13.03 386.294 12.61C386.144 12.19 385.906 11.882 385.58 11.686C385.253 11.49 384.838 11.392 384.334 11.392ZM394.697 18L391.407 9.236H391.351C391.37 9.42267 391.384 9.66067 391.393 9.95C391.412 10.2393 391.426 10.5567 391.435 10.902C391.444 11.238 391.449 11.5833 391.449 11.938V18H390.287V8.004H392.149L395.229 16.194H395.285L398.421 8.004H400.269V18H399.023V11.854C399.023 11.5273 399.028 11.2053 399.037 10.888C399.046 10.5613 399.06 10.258 399.079 9.978C399.098 9.68867 399.112 9.446 399.121 9.25H399.065L395.733 18H394.697ZM404.052 10.496V18H402.82V10.496H404.052ZM403.45 7.682C403.637 7.682 403.8 7.74733 403.94 7.878C404.089 7.99933 404.164 8.19533 404.164 8.466C404.164 8.72733 404.089 8.92333 403.94 9.054C403.8 9.18467 403.637 9.25 403.45 9.25C403.245 9.25 403.072 9.18467 402.932 9.054C402.792 8.92333 402.722 8.72733 402.722 8.466C402.722 8.19533 402.792 7.99933 402.932 7.878C403.072 7.74733 403.245 7.682 403.45 7.682ZM410.21 18H409.006V11.014C409.006 10.7433 409.006 10.5147 409.006 10.328C409.015 10.1413 409.024 9.96867 409.034 9.81C409.043 9.642 409.052 9.46933 409.062 9.292C408.912 9.44133 408.777 9.56733 408.656 9.67C408.534 9.77267 408.38 9.90333 408.194 10.062L407.13 10.93L406.486 10.104L409.188 8.004H410.21V18ZM413.559 21.36C413.326 21.36 413.121 21.3413 412.943 21.304C412.766 21.276 412.612 21.2387 412.481 21.192V20.198C412.621 20.2353 412.766 20.268 412.915 20.296C413.065 20.324 413.228 20.338 413.405 20.338C413.704 20.338 413.951 20.254 414.147 20.086C414.343 19.9273 414.441 19.6193 414.441 19.162V10.496H415.673V19.12C415.673 19.5867 415.599 19.988 415.449 20.324C415.3 20.66 415.071 20.9167 414.763 21.094C414.455 21.2713 414.054 21.36 413.559 21.36ZM414.343 8.466C414.343 8.19533 414.413 7.99933 414.553 7.878C414.693 7.74733 414.866 7.682 415.071 7.682C415.258 7.682 415.421 7.74733 415.561 7.878C415.711 7.99933 415.785 8.19533 415.785 8.466C415.785 8.72733 415.711 8.92333 415.561 9.054C415.421 9.18467 415.258 9.25 415.071 9.25C414.866 9.25 414.693 9.18467 414.553 9.054C414.413 8.92333 414.343 8.72733 414.343 8.466ZM419.283 10.496V18H418.051V10.496H419.283ZM418.681 7.682C418.867 7.682 419.031 7.74733 419.171 7.878C419.32 7.99933 419.395 8.19533 419.395 8.466C419.395 8.72733 419.32 8.92333 419.171 9.054C419.031 9.18467 418.867 9.25 418.681 9.25C418.475 9.25 418.303 9.18467 418.163 9.054C418.023 8.92333 417.953 8.72733 417.953 8.466C417.953 8.19533 418.023 7.99933 418.163 7.878C418.303 7.74733 418.475 7.682 418.681 7.682ZM428.1 18L426.896 14.906H422.934L421.744 18H420.47L424.376 7.962H425.51L429.402 18H428.1ZM425.398 10.762C425.37 10.6873 425.323 10.552 425.258 10.356C425.193 10.16 425.127 9.95933 425.062 9.754C425.006 9.53933 424.959 9.376 424.922 9.264C424.875 9.45067 424.824 9.642 424.768 9.838C424.721 10.0247 424.67 10.1973 424.614 10.356C424.567 10.5147 424.525 10.65 424.488 10.762L423.354 13.786H426.518L425.398 10.762ZM434.836 12.722H438.294V17.622C437.753 17.7993 437.207 17.93 436.656 18.014C436.105 18.098 435.48 18.14 434.78 18.14C433.744 18.14 432.871 17.9347 432.162 17.524C431.453 17.104 430.911 16.5113 430.538 15.746C430.174 14.9713 429.992 14.0567 429.992 13.002C429.992 11.9567 430.197 11.0513 430.608 10.286C431.019 9.52067 431.607 8.928 432.372 8.508C433.147 8.07867 434.08 7.864 435.172 7.864C435.732 7.864 436.259 7.91533 436.754 8.018C437.258 8.12067 437.725 8.26533 438.154 8.452L437.678 9.544C437.323 9.38533 436.922 9.25 436.474 9.138C436.035 9.026 435.578 8.97 435.102 8.97C434.309 8.97 433.627 9.13333 433.058 9.46C432.489 9.78667 432.055 10.2533 431.756 10.86C431.457 11.4573 431.308 12.1713 431.308 13.002C431.308 13.7953 431.434 14.5 431.686 15.116C431.947 15.7227 432.353 16.1987 432.904 16.544C433.455 16.88 434.178 17.048 435.074 17.048C435.373 17.048 435.634 17.0387 435.858 17.02C436.091 16.992 436.301 16.9593 436.488 16.922C436.684 16.8847 436.866 16.8473 437.034 16.81V13.842H434.836V12.722ZM441.732 12.918C441.732 13.0673 441.722 13.2633 441.704 13.506C441.694 13.7487 441.685 13.9587 441.676 14.136H441.732C441.788 14.0613 441.872 13.954 441.984 13.814C442.096 13.674 442.208 13.534 442.32 13.394C442.441 13.2447 442.544 13.1233 442.628 13.03L445.022 10.496H446.464L443.426 13.702L446.674 18H445.19L442.586 14.5L441.732 15.242V18H440.514V7.36H441.732V12.918ZM454.95 18H453.522L450.876 13.66L448.188 18H446.858L450.176 12.792L447.068 8.004H448.468L450.918 11.924L453.382 8.004H454.712L451.618 12.764L454.95 18ZM457.973 14.164L455.383 10.496H456.783L458.715 13.324L460.633 10.496H462.019L459.429 14.164L462.159 18H460.759L458.715 15.004L456.643 18H455.257L457.973 14.164ZM468.491 15.928C468.491 16.4133 468.37 16.8193 468.127 17.146C467.885 17.4727 467.539 17.72 467.091 17.888C466.643 18.056 466.111 18.14 465.495 18.14C464.973 18.14 464.52 18.098 464.137 18.014C463.764 17.93 463.433 17.8133 463.143 17.664V16.544C463.442 16.6933 463.801 16.8333 464.221 16.964C464.651 17.0853 465.085 17.146 465.523 17.146C466.149 17.146 466.601 17.048 466.881 16.852C467.161 16.6467 467.301 16.376 467.301 16.04C467.301 15.8533 467.25 15.6853 467.147 15.536C467.045 15.3867 466.858 15.2373 466.587 15.088C466.326 14.9387 465.948 14.7707 465.453 14.584C464.968 14.3973 464.553 14.2107 464.207 14.024C463.862 13.8373 463.596 13.6133 463.409 13.352C463.223 13.0907 463.129 12.7547 463.129 12.344C463.129 11.7093 463.386 11.2193 463.899 10.874C464.422 10.5287 465.103 10.356 465.943 10.356C466.401 10.356 466.825 10.4027 467.217 10.496C467.619 10.58 467.992 10.7013 468.337 10.86L467.917 11.84C467.712 11.7467 467.493 11.6673 467.259 11.602C467.035 11.5273 466.807 11.4713 466.573 11.434C466.34 11.3873 466.102 11.364 465.859 11.364C465.355 11.364 464.968 11.448 464.697 11.616C464.436 11.7747 464.305 11.994 464.305 12.274C464.305 12.4793 464.366 12.6567 464.487 12.806C464.609 12.946 464.809 13.086 465.089 13.226C465.379 13.3567 465.761 13.5153 466.237 13.702C466.713 13.8793 467.119 14.0613 467.455 14.248C467.791 14.4347 468.048 14.6633 468.225 14.934C468.403 15.1953 468.491 15.5267 468.491 15.928ZM472.965 10.356C473.459 10.356 473.903 10.4493 474.295 10.636C474.696 10.8227 475.037 11.1073 475.317 11.49H475.387L475.555 10.496H476.535V18.126C476.535 18.8353 476.413 19.428 476.171 19.904C475.928 20.3893 475.559 20.7533 475.065 20.996C474.57 21.2387 473.94 21.36 473.175 21.36C472.633 21.36 472.134 21.318 471.677 21.234C471.229 21.1593 470.827 21.0427 470.473 20.884V19.75C470.715 19.8713 470.981 19.974 471.271 20.058C471.56 20.1513 471.873 20.2213 472.209 20.268C472.545 20.3147 472.89 20.338 473.245 20.338C473.889 20.338 474.393 20.1467 474.757 19.764C475.13 19.3907 475.317 18.8773 475.317 18.224V17.93C475.317 17.818 475.321 17.6593 475.331 17.454C475.34 17.2393 475.349 17.09 475.359 17.006H475.303C475.041 17.3887 474.715 17.6733 474.323 17.86C473.94 18.0467 473.492 18.14 472.979 18.14C472.008 18.14 471.247 17.7993 470.697 17.118C470.155 16.4367 469.885 15.4847 469.885 14.262C469.885 13.4593 470.006 12.7687 470.249 12.19C470.501 11.602 470.855 11.1493 471.313 10.832C471.77 10.5147 472.321 10.356 472.965 10.356ZM473.133 11.392C472.713 11.392 472.353 11.504 472.055 11.728C471.765 11.952 471.541 12.2787 471.383 12.708C471.233 13.1373 471.159 13.66 471.159 14.276C471.159 15.2 471.327 15.9093 471.663 16.404C472.008 16.8893 472.507 17.132 473.161 17.132C473.543 17.132 473.87 17.0853 474.141 16.992C474.411 16.8893 474.635 16.7353 474.813 16.53C474.99 16.3153 475.121 16.0447 475.205 15.718C475.289 15.3913 475.331 15.004 475.331 14.556V14.262C475.331 13.5807 475.251 13.03 475.093 12.61C474.943 12.19 474.705 11.882 474.379 11.686C474.052 11.49 473.637 11.392 473.133 11.392ZM485.442 14.234C485.442 14.8593 485.358 15.4147 485.19 15.9C485.031 16.376 484.798 16.782 484.49 17.118C484.191 17.454 483.822 17.7107 483.384 17.888C482.954 18.056 482.474 18.14 481.942 18.14C481.447 18.14 480.99 18.056 480.57 17.888C480.15 17.7107 479.786 17.454 479.478 17.118C479.17 16.782 478.927 16.376 478.75 15.9C478.582 15.4147 478.498 14.8593 478.498 14.234C478.498 13.4033 478.638 12.7033 478.918 12.134C479.198 11.5553 479.599 11.1167 480.122 10.818C480.644 10.51 481.265 10.356 481.984 10.356C482.665 10.356 483.262 10.51 483.776 10.818C484.298 11.1167 484.704 11.5553 484.994 12.134C485.292 12.7033 485.442 13.4033 485.442 14.234ZM479.772 14.234C479.772 14.822 479.846 15.3353 479.996 15.774C480.154 16.2033 480.397 16.5347 480.724 16.768C481.05 17.0013 481.466 17.118 481.97 17.118C482.474 17.118 482.889 17.0013 483.216 16.768C483.542 16.5347 483.78 16.2033 483.93 15.774C484.088 15.3353 484.168 14.822 484.168 14.234C484.168 13.6367 484.088 13.128 483.93 12.708C483.771 12.288 483.528 11.966 483.202 11.742C482.884 11.5087 482.469 11.392 481.956 11.392C481.19 11.392 480.635 11.644 480.29 12.148C479.944 12.652 479.772 13.3473 479.772 14.234ZM495.626 10.356C496.476 10.356 497.11 10.5753 497.53 11.014C497.95 11.4433 498.16 12.1433 498.16 13.114V18H496.942V13.17C496.942 12.582 496.816 12.1387 496.564 11.84C496.322 11.5413 495.939 11.392 495.416 11.392C494.688 11.392 494.166 11.602 493.848 12.022C493.54 12.442 493.386 13.0533 493.386 13.856V18H492.168V13.17C492.168 12.778 492.112 12.4513 492 12.19C491.888 11.9193 491.72 11.7187 491.496 11.588C491.272 11.4573 490.983 11.392 490.628 11.392C490.124 11.392 489.728 11.4993 489.438 11.714C489.149 11.9193 488.939 12.2227 488.808 12.624C488.687 13.0253 488.626 13.52 488.626 14.108V18H487.394V10.496H488.388L488.57 11.518H488.64C488.799 11.2567 488.99 11.042 489.214 10.874C489.448 10.6967 489.704 10.566 489.984 10.482C490.264 10.398 490.554 10.356 490.852 10.356C491.431 10.356 491.912 10.4587 492.294 10.664C492.686 10.8693 492.971 11.1867 493.148 11.616H493.218C493.47 11.1867 493.811 10.8693 494.24 10.664C494.679 10.4587 495.141 10.356 495.626 10.356ZM503.502 8.004C504.333 8.004 505.028 8.08333 505.588 8.242C506.158 8.40067 506.582 8.662 506.862 9.026C507.152 9.39 507.296 9.87533 507.296 10.482C507.296 10.874 507.222 11.224 507.072 11.532C506.932 11.8307 506.718 12.0827 506.428 12.288C506.148 12.484 505.803 12.6193 505.392 12.694V12.764C505.812 12.8293 506.19 12.9507 506.526 13.128C506.872 13.3053 507.142 13.5573 507.338 13.884C507.534 14.2107 507.632 14.6353 507.632 15.158C507.632 15.7647 507.492 16.2827 507.212 16.712C506.932 17.132 506.531 17.454 506.008 17.678C505.495 17.8927 504.879 18 504.16 18H500.646V8.004H503.502ZM503.754 12.26C504.613 12.26 505.201 12.1247 505.518 11.854C505.836 11.574 505.994 11.1633 505.994 10.622C505.994 10.0713 505.798 9.67933 505.406 9.446C505.024 9.20333 504.408 9.082 503.558 9.082H501.906V12.26H503.754ZM501.906 13.31V16.936H503.922C504.809 16.936 505.425 16.7633 505.77 16.418C506.116 16.0727 506.288 15.62 506.288 15.06C506.288 14.7053 506.209 14.3973 506.05 14.136C505.901 13.8747 505.644 13.674 505.28 13.534C504.926 13.3847 504.44 13.31 503.824 13.31H501.906ZM509.752 18V8.004H511.012V16.88H515.38V18H509.752ZM519.74 8.004C521.046 8.004 521.998 8.26067 522.596 8.774C523.193 9.28733 523.492 10.0107 523.492 10.944C523.492 11.3547 523.422 11.7513 523.282 12.134C523.151 12.5073 522.932 12.8433 522.624 13.142C522.316 13.4407 521.905 13.6787 521.392 13.856C520.878 14.024 520.248 14.108 519.502 14.108H518.354V18H517.094V8.004H519.74ZM519.628 9.082H518.354V13.03H519.362C519.996 13.03 520.524 12.9647 520.944 12.834C521.364 12.694 521.676 12.4747 521.882 12.176C522.087 11.8773 522.19 11.4853 522.19 11C522.19 10.356 521.984 9.87533 521.574 9.558C521.163 9.24067 520.514 9.082 519.628 9.082ZM526.83 18H525.57V8.004H531.156V9.11H526.83V12.652H530.89V13.758H526.83V18ZM540.138 18H538.654L535.112 13.226L534.09 14.122V18H532.83V8.004H534.09V12.932C534.37 12.6147 534.655 12.2973 534.944 11.98C535.233 11.6627 535.523 11.3453 535.812 11.028L538.514 8.004H539.984L536.022 12.358L540.138 18ZM542.044 18L546.146 9.124H540.756V8.004H547.462V8.956L543.402 18H542.044ZM552.366 8.004C553.196 8.004 553.892 8.08333 554.452 8.242C555.021 8.40067 555.446 8.662 555.726 9.026C556.015 9.39 556.16 9.87533 556.16 10.482C556.16 10.874 556.085 11.224 555.936 11.532C555.796 11.8307 555.581 12.0827 555.292 12.288C555.012 12.484 554.666 12.6193 554.256 12.694V12.764C554.676 12.8293 555.054 12.9507 555.39 13.128C555.735 13.3053 556.006 13.5573 556.202 13.884C556.398 14.2107 556.496 14.6353 556.496 15.158C556.496 15.7647 556.356 16.2827 556.076 16.712C555.796 17.132 555.394 17.454 554.872 17.678C554.358 17.8927 553.742 18 553.024 18H549.51V8.004H552.366ZM552.618 12.26C553.476 12.26 554.064 12.1247 554.382 11.854C554.699 11.574 554.858 11.1633 554.858 10.622C554.858 10.0713 554.662 9.67933 554.27 9.446C553.887 9.20333 553.271 9.082 552.422 9.082H550.77V12.26H552.618ZM550.77 13.31V16.936H552.786C553.672 16.936 554.288 16.7633 554.634 16.418C554.979 16.0727 555.152 15.62 555.152 15.06C555.152 14.7053 555.072 14.3973 554.914 14.136C554.764 13.8747 554.508 13.674 554.144 13.534C553.789 13.3847 553.304 13.31 552.688 13.31H550.77ZM559.679 9.95C559.679 10.2673 559.67 10.566 559.651 10.846C559.642 11.1167 559.628 11.3313 559.609 11.49H559.679C559.894 11.1727 560.188 10.9067 560.561 10.692C560.934 10.4773 561.415 10.37 562.003 10.37C562.936 10.37 563.683 10.6967 564.243 11.35C564.812 11.994 565.097 12.96 565.097 14.248C565.097 15.1067 564.966 15.8253 564.705 16.404C564.453 16.9827 564.094 17.4167 563.627 17.706C563.16 17.9953 562.619 18.14 562.003 18.14C561.415 18.14 560.934 18.0327 560.561 17.818C560.188 17.6033 559.894 17.3467 559.679 17.048H559.581L559.329 18H558.447V7.36H559.679V9.95ZM561.793 11.392C561.261 11.392 560.841 11.4947 560.533 11.7C560.225 11.896 560.006 12.204 559.875 12.624C559.744 13.0347 559.679 13.562 559.679 14.206V14.262C559.679 15.186 559.828 15.8953 560.127 16.39C560.435 16.8753 561 17.118 561.821 17.118C562.493 17.118 562.992 16.8707 563.319 16.376C563.655 15.8813 563.823 15.1673 563.823 14.234C563.823 13.2913 563.655 12.582 563.319 12.106C562.992 11.63 562.484 11.392 561.793 11.392ZM566.64 13.73C566.64 13.1513 566.678 12.582 566.752 12.022C566.836 11.462 566.976 10.9347 567.172 10.44C567.368 9.936 567.639 9.49267 567.984 9.11C568.33 8.718 568.764 8.41467 569.286 8.2C569.818 7.976 570.462 7.864 571.218 7.864C571.414 7.864 571.629 7.87333 571.862 7.892C572.105 7.91067 572.301 7.94333 572.45 7.99V9.04C572.282 8.984 572.091 8.942 571.876 8.914C571.671 8.886 571.461 8.872 571.246 8.872C570.602 8.872 570.066 8.97933 569.636 9.194C569.207 9.40867 568.866 9.70267 568.614 10.076C568.372 10.4493 568.194 10.8787 568.082 11.364C567.97 11.8493 567.9 12.3673 567.872 12.918H567.956C568.096 12.694 568.274 12.4933 568.488 12.316C568.703 12.1387 568.96 11.9987 569.258 11.896C569.566 11.7933 569.921 11.742 570.322 11.742C570.901 11.742 571.405 11.8633 571.834 12.106C572.273 12.3393 572.614 12.6847 572.856 13.142C573.099 13.59 573.22 14.136 573.22 14.78C573.22 15.4707 573.09 16.068 572.828 16.572C572.567 17.076 572.198 17.4633 571.722 17.734C571.256 18.0047 570.696 18.14 570.042 18.14C569.566 18.14 569.123 18.0513 568.712 17.874C568.302 17.6967 567.938 17.426 567.62 17.062C567.312 16.698 567.07 16.2407 566.892 15.69C566.724 15.13 566.64 14.4767 566.64 13.73ZM570.028 17.104C570.616 17.104 571.092 16.9173 571.456 16.544C571.82 16.1613 572.002 15.5733 572.002 14.78C572.002 14.1453 571.839 13.6413 571.512 13.268C571.195 12.8947 570.714 12.708 570.07 12.708C569.632 12.708 569.249 12.8013 568.922 12.988C568.596 13.1653 568.339 13.394 568.152 13.674C567.975 13.954 567.886 14.2433 567.886 14.542C567.886 14.85 567.928 15.1533 568.012 15.452C568.106 15.7507 568.241 16.026 568.418 16.278C568.605 16.53 568.829 16.7307 569.09 16.88C569.361 17.0293 569.674 17.104 570.028 17.104ZM577.872 7.864C578.46 7.864 578.978 7.95733 579.426 8.144C579.874 8.32133 580.224 8.58733 580.476 8.942C580.737 9.29667 580.868 9.73533 580.868 10.258C580.868 10.6593 580.779 11.0093 580.602 11.308C580.434 11.6067 580.205 11.8727 579.916 12.106C579.627 12.33 579.309 12.5307 578.964 12.708C579.375 12.904 579.748 13.128 580.084 13.38C580.42 13.6227 580.686 13.9073 580.882 14.234C581.087 14.5607 581.19 14.9527 581.19 15.41C581.19 15.97 581.055 16.4553 580.784 16.866C580.513 17.2673 580.131 17.58 579.636 17.804C579.151 18.028 578.577 18.14 577.914 18.14C577.195 18.14 576.584 18.0327 576.08 17.818C575.585 17.6033 575.207 17.3 574.946 16.908C574.694 16.5067 574.568 16.0213 574.568 15.452C574.568 14.9947 574.661 14.598 574.848 14.262C575.044 13.926 575.301 13.6367 575.618 13.394C575.935 13.1513 576.276 12.946 576.64 12.778C576.313 12.5913 576.015 12.3813 575.744 12.148C575.483 11.9053 575.273 11.63 575.114 11.322C574.965 11.014 574.89 10.6547 574.89 10.244C574.89 9.73067 575.021 9.30133 575.282 8.956C575.543 8.60133 575.898 8.33067 576.346 8.144C576.794 7.95733 577.303 7.864 577.872 7.864ZM575.772 15.466C575.772 15.9513 575.945 16.3573 576.29 16.684C576.635 17.0013 577.167 17.16 577.886 17.16C578.343 17.16 578.726 17.0853 579.034 16.936C579.342 16.7867 579.575 16.5813 579.734 16.32C579.902 16.0587 579.986 15.76 579.986 15.424C579.986 15.0973 579.897 14.8127 579.72 14.57C579.552 14.318 579.309 14.094 578.992 13.898C578.684 13.702 578.315 13.5247 577.886 13.366L577.662 13.282C577.251 13.4593 576.906 13.6507 576.626 13.856C576.346 14.0613 576.131 14.2947 575.982 14.556C575.842 14.8173 575.772 15.1207 575.772 15.466ZM577.858 8.858C577.345 8.858 576.92 8.984 576.584 9.236C576.257 9.47867 576.094 9.83333 576.094 10.3C576.094 10.6453 576.173 10.9347 576.332 11.168C576.5 11.4013 576.724 11.602 577.004 11.77C577.284 11.9287 577.592 12.0827 577.928 12.232C578.255 12.092 578.544 11.938 578.796 11.77C579.057 11.602 579.263 11.4013 579.412 11.168C579.571 10.9253 579.65 10.636 579.65 10.3C579.65 9.83333 579.487 9.47867 579.16 9.236C578.833 8.984 578.399 8.858 577.858 8.858ZM588.922 15.326C588.922 15.9233 588.777 16.432 588.488 16.852C588.198 17.2627 587.783 17.58 587.242 17.804C586.71 18.028 586.08 18.14 585.352 18.14C584.978 18.14 584.619 18.1213 584.274 18.084C583.938 18.0467 583.63 17.9953 583.35 17.93C583.07 17.8553 582.822 17.7667 582.608 17.664V16.46C582.944 16.6093 583.359 16.7447 583.854 16.866C584.358 16.9873 584.876 17.048 585.408 17.048C585.902 17.048 586.318 16.9827 586.654 16.852C586.99 16.7213 587.242 16.5347 587.41 16.292C587.578 16.0493 587.662 15.7647 587.662 15.438C587.662 15.1113 587.592 14.836 587.452 14.612C587.312 14.388 587.069 14.1827 586.724 13.996C586.388 13.8 585.916 13.5947 585.31 13.38C584.88 13.2213 584.502 13.0533 584.176 12.876C583.858 12.6893 583.592 12.4793 583.378 12.246C583.163 12.0127 583 11.7467 582.888 11.448C582.785 11.1493 582.734 10.804 582.734 10.412C582.734 9.88 582.869 9.42733 583.14 9.054C583.41 8.67133 583.784 8.37733 584.26 8.172C584.745 7.96667 585.3 7.864 585.926 7.864C586.476 7.864 586.98 7.91533 587.438 8.018C587.895 8.12067 588.31 8.256 588.684 8.424L588.292 9.502C587.946 9.35267 587.568 9.22667 587.158 9.124C586.756 9.02133 586.336 8.97 585.898 8.97C585.478 8.97 585.128 9.03067 584.848 9.152C584.568 9.27333 584.358 9.446 584.218 9.67C584.078 9.88467 584.008 10.1367 584.008 10.426C584.008 10.762 584.078 11.042 584.218 11.266C584.358 11.49 584.586 11.6907 584.904 11.868C585.221 12.0453 585.65 12.2367 586.192 12.442C586.78 12.6567 587.274 12.89 587.676 13.142C588.086 13.3847 588.394 13.6787 588.6 14.024C588.814 14.3693 588.922 14.8033 588.922 15.326ZM597.305 15.732H595.849V18H594.659V15.732H589.871V14.682L594.575 7.948H595.849V14.626H597.305V15.732ZM594.659 11.476C594.659 11.2333 594.659 11.014 594.659 10.818C594.669 10.6127 594.678 10.4213 594.687 10.244C594.697 10.0667 594.701 9.89867 594.701 9.74C594.711 9.572 594.72 9.41333 594.729 9.264H594.673C594.599 9.44133 594.505 9.63267 594.393 9.838C594.281 10.0433 594.174 10.216 594.071 10.356L591.075 14.626H594.659V11.476ZM602.279 10.356C602.419 10.356 602.568 10.3653 602.727 10.384C602.895 10.3933 603.04 10.412 603.161 10.44L603.007 11.574C602.886 11.546 602.75 11.5227 602.601 11.504C602.461 11.4853 602.326 11.476 602.195 11.476C601.906 11.476 601.63 11.5367 601.369 11.658C601.108 11.7793 600.874 11.952 600.669 12.176C600.464 12.3907 600.3 12.652 600.179 12.96C600.067 13.268 600.011 13.6133 600.011 13.996V18H598.779V10.496H599.787L599.927 11.868H599.983C600.142 11.588 600.333 11.336 600.557 11.112C600.781 10.8787 601.038 10.6967 601.327 10.566C601.616 10.426 601.934 10.356 602.279 10.356ZM611.1 15.732H609.644V18H608.454V15.732H603.666V14.682L608.37 7.948H609.644V14.626H611.1V15.732ZM608.454 11.476C608.454 11.2333 608.454 11.014 608.454 10.818C608.464 10.6127 608.473 10.4213 608.482 10.244C608.492 10.0667 608.496 9.89867 608.496 9.74C608.506 9.572 608.515 9.41333 608.524 9.264H608.468C608.394 9.44133 608.3 9.63267 608.188 9.838C608.076 10.0433 607.969 10.216 607.866 10.356L604.87 14.626H608.454V11.476ZM620.386 18H619.126V13.338H614.002V18H612.742V8.004H614.002V12.232H619.126V8.004H620.386V18ZM624.183 10.496V18H622.951V10.496H624.183ZM623.581 7.682C623.768 7.682 623.931 7.74733 624.071 7.878C624.22 7.99933 624.295 8.19533 624.295 8.466C624.295 8.72733 624.22 8.92333 624.071 9.054C623.931 9.18467 623.768 9.25 623.581 9.25C623.376 9.25 623.203 9.18467 623.063 9.054C622.923 8.92333 622.853 8.72733 622.853 8.466C622.853 8.19533 622.923 7.99933 623.063 7.878C623.203 7.74733 623.376 7.682 623.581 7.682ZM633.084 14.234C633.084 14.8593 633 15.4147 632.832 15.9C632.674 16.376 632.44 16.782 632.132 17.118C631.834 17.454 631.465 17.7107 631.026 17.888C630.597 18.056 630.116 18.14 629.584 18.14C629.09 18.14 628.632 18.056 628.212 17.888C627.792 17.7107 627.428 17.454 627.12 17.118C626.812 16.782 626.57 16.376 626.392 15.9C626.224 15.4147 626.14 14.8593 626.14 14.234C626.14 13.4033 626.28 12.7033 626.56 12.134C626.84 11.5553 627.242 11.1167 627.764 10.818C628.287 10.51 628.908 10.356 629.626 10.356C630.308 10.356 630.905 10.51 631.418 10.818C631.941 11.1167 632.347 11.5553 632.636 12.134C632.935 12.7033 633.084 13.4033 633.084 14.234ZM627.414 14.234C627.414 14.822 627.489 15.3353 627.638 15.774C627.797 16.2033 628.04 16.5347 628.366 16.768C628.693 17.0013 629.108 17.118 629.612 17.118C630.116 17.118 630.532 17.0013 630.858 16.768C631.185 16.5347 631.423 16.2033 631.572 15.774C631.731 15.3353 631.81 14.822 631.81 14.234C631.81 13.6367 631.731 13.128 631.572 12.708C631.414 12.288 631.171 11.966 630.844 11.742C630.527 11.5087 630.112 11.392 629.598 11.392C628.833 11.392 628.278 11.644 627.932 12.148C627.587 12.652 627.414 13.3473 627.414 14.234ZM642.849 18H641.589V13.338H636.465V18H635.205V8.004H636.465V12.232H641.589V8.004H642.849V18ZM648.186 12.918L650.79 8.004H652.148L648.816 14.122V18H647.556V14.178L644.224 8.004H645.596L648.186 12.918ZM655.488 10.37C656.403 10.37 657.08 10.5707 657.518 10.972C657.957 11.3733 658.176 12.0127 658.176 12.89V18H657.28L657.042 16.936H656.986C656.772 17.2067 656.548 17.4353 656.314 17.622C656.09 17.7993 655.829 17.93 655.53 18.014C655.241 18.098 654.886 18.14 654.466 18.14C654.018 18.14 653.612 18.0607 653.248 17.902C652.894 17.7433 652.614 17.5007 652.408 17.174C652.203 16.838 652.1 16.418 652.1 15.914C652.1 15.1673 652.394 14.5933 652.982 14.192C653.57 13.7813 654.476 13.5573 655.698 13.52L656.972 13.478V13.03C656.972 12.4047 656.837 11.9707 656.566 11.728C656.296 11.4853 655.913 11.364 655.418 11.364C655.026 11.364 654.653 11.4247 654.298 11.546C653.944 11.658 653.612 11.7887 653.304 11.938L652.926 11.014C653.253 10.8367 653.64 10.6873 654.088 10.566C654.536 10.4353 655.003 10.37 655.488 10.37ZM655.852 14.374C654.919 14.4113 654.27 14.5607 653.906 14.822C653.552 15.0833 653.374 15.452 653.374 15.928C653.374 16.348 653.5 16.656 653.752 16.852C654.014 17.048 654.345 17.146 654.746 17.146C655.381 17.146 655.908 16.9733 656.328 16.628C656.748 16.2733 656.958 15.732 656.958 15.004V14.332L655.852 14.374ZM661.712 12.918C661.712 13.0673 661.703 13.2633 661.684 13.506C661.675 13.7487 661.665 13.9587 661.656 14.136H661.712C661.768 14.0613 661.852 13.954 661.964 13.814C662.076 13.674 662.188 13.534 662.3 13.394C662.421 13.2447 662.524 13.1233 662.608 13.03L665.002 10.496H666.444L663.406 13.702L666.654 18H665.17L662.566 14.5L661.712 15.242V18H660.494V7.36H661.712V12.918ZM670.632 18.14C669.699 18.14 668.952 17.818 668.392 17.174C667.832 16.5207 667.552 15.55 667.552 14.262C667.552 12.974 667.832 12.0033 668.392 11.35C668.962 10.6873 669.713 10.356 670.646 10.356C671.038 10.356 671.379 10.4073 671.668 10.51C671.958 10.6033 672.21 10.734 672.424 10.902C672.639 11.07 672.821 11.2567 672.97 11.462H673.054C673.045 11.3407 673.026 11.1633 672.998 10.93C672.98 10.6873 672.97 10.496 672.97 10.356V7.36H674.202V18H673.208L673.026 16.992H672.97C672.821 17.2067 672.639 17.4027 672.424 17.58C672.21 17.748 671.953 17.8833 671.654 17.986C671.365 18.0887 671.024 18.14 670.632 18.14ZM670.828 17.118C671.622 17.118 672.177 16.9033 672.494 16.474C672.821 16.0353 672.984 15.3773 672.984 14.5V14.276C672.984 13.3427 672.83 12.6287 672.522 12.134C672.214 11.63 671.645 11.378 670.814 11.378C670.152 11.378 669.652 11.644 669.316 12.176C668.99 12.6987 668.826 13.4033 668.826 14.29C668.826 15.186 668.99 15.8813 669.316 16.376C669.652 16.8707 670.156 17.118 670.828 17.118ZM681.094 12.722H684.552V17.622C684.01 17.7993 683.464 17.93 682.914 18.014C682.363 18.098 681.738 18.14 681.038 18.14C680.002 18.14 679.129 17.9347 678.42 17.524C677.71 17.104 677.169 16.5113 676.796 15.746C676.432 14.9713 676.25 14.0567 676.25 13.002C676.25 11.9567 676.455 11.0513 676.866 10.286C677.276 9.52067 677.864 8.928 678.63 8.508C679.404 8.07867 680.338 7.864 681.43 7.864C681.99 7.864 682.517 7.91533 683.012 8.018C683.516 8.12067 683.982 8.26533 684.412 8.452L683.936 9.544C683.581 9.38533 683.18 9.25 682.732 9.138C682.293 9.026 681.836 8.97 681.36 8.97C680.566 8.97 679.885 9.13333 679.316 9.46C678.746 9.78667 678.312 10.2533 678.014 10.86C677.715 11.4573 677.566 12.1713 677.566 13.002C677.566 13.7953 677.692 14.5 677.944 15.116C678.205 15.7227 678.611 16.1987 679.162 16.544C679.712 16.88 680.436 17.048 681.332 17.048C681.63 17.048 681.892 17.0387 682.116 17.02C682.349 16.992 682.559 16.9593 682.746 16.922C682.942 16.8847 683.124 16.8473 683.292 16.81V13.842H681.094V12.722ZM690.271 10.356C690.411 10.356 690.561 10.3653 690.719 10.384C690.887 10.3933 691.032 10.412 691.153 10.44L690.999 11.574C690.878 11.546 690.743 11.5227 690.593 11.504C690.453 11.4853 690.318 11.476 690.187 11.476C689.898 11.476 689.623 11.5367 689.361 11.658C689.1 11.7793 688.867 11.952 688.661 12.176C688.456 12.3907 688.293 12.652 688.171 12.96C688.059 13.268 688.003 13.6133 688.003 13.996V18H686.771V10.496H687.779L687.919 11.868H687.975C688.134 11.588 688.325 11.336 688.549 11.112C688.773 10.8787 689.03 10.6967 689.319 10.566C689.609 10.426 689.926 10.356 690.271 10.356ZM695.355 7.864C695.943 7.864 696.461 7.95733 696.909 8.144C697.357 8.32133 697.707 8.58733 697.959 8.942C698.22 9.29667 698.351 9.73533 698.351 10.258C698.351 10.6593 698.262 11.0093 698.085 11.308C697.917 11.6067 697.688 11.8727 697.399 12.106C697.109 12.33 696.792 12.5307 696.447 12.708C696.857 12.904 697.231 13.128 697.567 13.38C697.903 13.6227 698.169 13.9073 698.365 14.234C698.57 14.5607 698.673 14.9527 698.673 15.41C698.673 15.97 698.537 16.4553 698.267 16.866C697.996 17.2673 697.613 17.58 697.119 17.804C696.633 18.028 696.059 18.14 695.397 18.14C694.678 18.14 694.067 18.0327 693.563 17.818C693.068 17.6033 692.69 17.3 692.429 16.908C692.177 16.5067 692.051 16.0213 692.051 15.452C692.051 14.9947 692.144 14.598 692.331 14.262C692.527 13.926 692.783 13.6367 693.101 13.394C693.418 13.1513 693.759 12.946 694.123 12.778C693.796 12.5913 693.497 12.3813 693.227 12.148C692.965 11.9053 692.755 11.63 692.597 11.322C692.447 11.014 692.373 10.6547 692.373 10.244C692.373 9.73067 692.503 9.30133 692.765 8.956C693.026 8.60133 693.381 8.33067 693.829 8.144C694.277 7.95733 694.785 7.864 695.355 7.864ZM693.255 15.466C693.255 15.9513 693.427 16.3573 693.773 16.684C694.118 17.0013 694.65 17.16 695.369 17.16C695.826 17.16 696.209 17.0853 696.517 16.936C696.825 16.7867 697.058 16.5813 697.217 16.32C697.385 16.0587 697.469 15.76 697.469 15.424C697.469 15.0973 697.38 14.8127 697.203 14.57C697.035 14.318 696.792 14.094 696.475 13.898C696.167 13.702 695.798 13.5247 695.369 13.366L695.145 13.282C694.734 13.4593 694.389 13.6507 694.109 13.856C693.829 14.0613 693.614 14.2947 693.465 14.556C693.325 14.8173 693.255 15.1207 693.255 15.466ZM695.341 8.858C694.827 8.858 694.403 8.984 694.067 9.236C693.74 9.47867 693.577 9.83333 693.577 10.3C693.577 10.6453 693.656 10.9347 693.815 11.168C693.983 11.4013 694.207 11.602 694.487 11.77C694.767 11.9287 695.075 12.0827 695.411 12.232C695.737 12.092 696.027 11.938 696.279 11.77C696.54 11.602 696.745 11.4013 696.895 11.168C697.053 10.9253 697.133 10.636 697.133 10.3C697.133 9.83333 696.969 9.47867 696.643 9.236C696.316 8.984 695.882 8.858 695.341 8.858ZM704.178 10.356C705.074 10.356 705.751 10.5753 706.208 11.014C706.666 11.4433 706.894 12.1433 706.894 13.114V18H705.676V13.198C705.676 12.5913 705.541 12.1387 705.27 11.84C705 11.5413 704.575 11.392 703.996 11.392C703.166 11.392 702.592 11.6253 702.274 12.092C701.957 12.5587 701.798 13.2307 701.798 14.108V18H700.566V10.496H701.56L701.742 11.518H701.812C701.98 11.2567 702.186 11.042 702.428 10.874C702.68 10.6967 702.956 10.566 703.254 10.482C703.553 10.398 703.861 10.356 704.178 10.356ZM716.991 14.472C716.991 15.1627 716.851 15.788 716.571 16.348C716.291 16.8987 715.861 17.3373 715.283 17.664C714.713 17.9813 713.985 18.14 713.099 18.14C711.857 18.14 710.91 17.804 710.257 17.132C709.613 16.4507 709.291 15.5547 709.291 14.444V8.004H710.551V14.486C710.551 15.298 710.765 15.928 711.195 16.376C711.633 16.824 712.291 17.048 713.169 17.048C713.775 17.048 714.265 16.9407 714.639 16.726C715.021 16.502 715.301 16.1987 715.479 15.816C715.656 15.424 715.745 14.976 715.745 14.472V8.004H716.991V14.472ZM726.937 18H725.453L721.911 13.226L720.889 14.122V18H719.629V8.004H720.889V12.932C721.169 12.6147 721.453 12.2973 721.743 11.98C722.032 11.6627 722.321 11.3453 722.611 11.028L725.313 8.004H726.783L722.821 12.358L726.937 18ZM729.557 18H728.297V8.004H733.883V9.11H729.557V12.652H733.617V13.758H729.557V18ZM741.66 18H734.73V17.048L739.994 9.124H734.898V8.004H741.52V8.956L736.256 16.88H741.66V18ZM745.052 18L742.21 10.496H743.526L745.122 14.92C745.197 15.1253 745.276 15.354 745.36 15.606C745.444 15.858 745.519 16.1007 745.584 16.334C745.65 16.558 745.696 16.7493 745.724 16.908H745.78C745.818 16.7493 745.869 16.5533 745.934 16.32C746.009 16.0867 746.088 15.844 746.172 15.592C746.266 15.34 746.345 15.116 746.41 14.92L748.006 10.496H749.322L746.466 18H745.052ZM754.962 8.97C754.43 8.97 753.949 9.06333 753.52 9.25C753.09 9.42733 752.726 9.69333 752.428 10.048C752.129 10.3933 751.9 10.818 751.742 11.322C751.583 11.8167 751.504 12.3767 751.504 13.002C751.504 13.8233 751.63 14.5373 751.882 15.144C752.143 15.7507 752.526 16.2173 753.03 16.544C753.543 16.8707 754.182 17.034 754.948 17.034C755.386 17.034 755.802 16.9967 756.194 16.922C756.586 16.8473 756.968 16.754 757.342 16.642V17.734C756.968 17.874 756.581 17.9767 756.18 18.042C755.788 18.1073 755.316 18.14 754.766 18.14C753.748 18.14 752.899 17.93 752.218 17.51C751.536 17.09 751.023 16.4927 750.678 15.718C750.342 14.9433 750.174 14.0333 750.174 12.988C750.174 12.232 750.276 11.5413 750.482 10.916C750.696 10.2907 751.004 9.74933 751.406 9.292C751.816 8.83467 752.32 8.48467 752.918 8.242C753.515 7.99 754.201 7.864 754.976 7.864C755.489 7.864 755.984 7.91533 756.46 8.018C756.936 8.12067 757.36 8.26533 757.734 8.452L757.23 9.516C756.922 9.376 756.576 9.25 756.194 9.138C755.82 9.026 755.41 8.97 754.962 8.97ZM762.015 11.868C762.697 11.868 763.289 11.9847 763.793 12.218C764.297 12.4513 764.685 12.7873 764.955 13.226C765.235 13.6553 765.375 14.1827 765.375 14.808C765.375 15.4987 765.226 16.096 764.927 16.6C764.629 17.0947 764.199 17.4773 763.639 17.748C763.089 18.0093 762.421 18.14 761.637 18.14C761.124 18.14 760.639 18.0933 760.181 18C759.733 17.9067 759.355 17.7713 759.047 17.594V16.432C759.383 16.6373 759.789 16.8007 760.265 16.922C760.751 17.034 761.213 17.09 761.651 17.09C762.146 17.09 762.575 17.0153 762.939 16.866C763.313 16.7073 763.602 16.4693 763.807 16.152C764.013 15.8253 764.115 15.4193 764.115 14.934C764.115 14.2807 763.915 13.7813 763.513 13.436C763.112 13.0813 762.477 12.904 761.609 12.904C761.348 12.904 761.049 12.9273 760.713 12.974C760.377 13.0207 760.107 13.0673 759.901 13.114L759.285 12.722L759.663 8.004H764.675V9.124H760.713L760.475 12.022C760.634 11.994 760.849 11.9613 761.119 11.924C761.39 11.8867 761.689 11.868 762.015 11.868ZM770.293 8.004C771.124 8.004 771.805 8.11133 772.337 8.326C772.878 8.53133 773.28 8.844 773.541 9.264C773.802 9.684 773.933 10.2113 773.933 10.846C773.933 11.378 773.835 11.8213 773.639 12.176C773.443 12.5307 773.191 12.8153 772.883 13.03C772.584 13.2353 772.267 13.3987 771.931 13.52L774.675 18H773.205L770.783 13.87H768.795V18H767.535V8.004H770.293ZM770.223 9.096H768.795V12.806H770.293C770.834 12.806 771.278 12.736 771.623 12.596C771.968 12.4467 772.22 12.232 772.379 11.952C772.547 11.672 772.631 11.322 772.631 10.902C772.631 10.4633 772.542 10.1133 772.365 9.852C772.197 9.59067 771.936 9.39933 771.581 9.278C771.226 9.15667 770.774 9.096 770.223 9.096ZM778.736 10.356C779.231 10.356 779.674 10.4493 780.066 10.636C780.467 10.8227 780.808 11.1073 781.088 11.49H781.158L781.326 10.496H782.306V18.126C782.306 18.8353 782.185 19.428 781.942 19.904C781.699 20.3893 781.331 20.7533 780.836 20.996C780.341 21.2387 779.711 21.36 778.946 21.36C778.405 21.36 777.905 21.318 777.448 21.234C777 21.1593 776.599 21.0427 776.244 20.884V19.75C776.487 19.8713 776.753 19.974 777.042 20.058C777.331 20.1513 777.644 20.2213 777.98 20.268C778.316 20.3147 778.661 20.338 779.016 20.338C779.66 20.338 780.164 20.1467 780.528 19.764C780.901 19.3907 781.088 18.8773 781.088 18.224V17.93C781.088 17.818 781.093 17.6593 781.102 17.454C781.111 17.2393 781.121 17.09 781.13 17.006H781.074C780.813 17.3887 780.486 17.6733 780.094 17.86C779.711 18.0467 779.263 18.14 778.75 18.14C777.779 18.14 777.019 17.7993 776.468 17.118C775.927 16.4367 775.656 15.4847 775.656 14.262C775.656 13.4593 775.777 12.7687 776.02 12.19C776.272 11.602 776.627 11.1493 777.084 10.832C777.541 10.5147 778.092 10.356 778.736 10.356ZM778.904 11.392C778.484 11.392 778.125 11.504 777.826 11.728C777.537 11.952 777.313 12.2787 777.154 12.708C777.005 13.1373 776.93 13.66 776.93 14.276C776.93 15.2 777.098 15.9093 777.434 16.404C777.779 16.8893 778.279 17.132 778.932 17.132C779.315 17.132 779.641 17.0853 779.912 16.992C780.183 16.8893 780.407 16.7353 780.584 16.53C780.761 16.3153 780.892 16.0447 780.976 15.718C781.06 15.3913 781.102 15.004 781.102 14.556V14.262C781.102 13.5807 781.023 13.03 780.864 12.61C780.715 12.19 780.477 11.882 780.15 11.686C779.823 11.49 779.408 11.392 778.904 11.392ZM791.647 18H790.219L787.573 13.66L784.885 18H783.555L786.873 12.792L783.765 8.004H785.165L787.615 11.924L790.079 8.004H791.409L788.315 12.764L791.647 18ZM797.736 13.758C797.68 13.562 797.624 13.3707 797.568 13.184C797.512 12.988 797.461 12.806 797.414 12.638C797.377 12.4607 797.34 12.2973 797.302 12.148C797.265 11.9987 797.237 11.8727 797.218 11.77H797.162C797.144 11.8727 797.116 11.9987 797.078 12.148C797.05 12.2973 797.013 12.4607 796.966 12.638C796.929 12.8153 796.882 13.002 796.826 13.198C796.78 13.3847 796.724 13.576 796.658 13.772L795.314 17.986H793.914L791.856 10.482H793.13L794.166 14.486C794.241 14.7567 794.311 15.032 794.376 15.312C794.442 15.5827 794.498 15.844 794.544 16.096C794.6 16.3387 794.638 16.5487 794.656 16.726H794.712C794.74 16.614 794.773 16.474 794.81 16.306C794.848 16.138 794.885 15.9607 794.922 15.774C794.969 15.5873 795.016 15.4007 795.062 15.214C795.118 15.0273 795.17 14.8593 795.216 14.71L796.546 10.482H797.89L799.178 14.71C799.244 14.9247 799.309 15.1533 799.374 15.396C799.449 15.6387 799.514 15.8767 799.57 16.11C799.626 16.334 799.664 16.5347 799.682 16.712H799.738C799.757 16.5533 799.79 16.3573 799.836 16.124C799.892 15.8813 799.953 15.62 800.018 15.34C800.093 15.0507 800.168 14.766 800.242 14.486L801.292 10.482H802.552L800.466 17.986H799.024L797.736 13.758ZM806.796 10.356C807.44 10.356 807.991 10.496 808.448 10.776C808.915 11.056 809.27 11.4527 809.512 11.966C809.764 12.47 809.89 13.0627 809.89 13.744V14.486H804.752C804.771 15.3353 804.986 15.984 805.396 16.432C805.816 16.8707 806.4 17.09 807.146 17.09C807.622 17.09 808.042 17.048 808.406 16.964C808.78 16.8707 809.162 16.74 809.554 16.572V17.65C809.172 17.818 808.794 17.9393 808.42 18.014C808.047 18.098 807.604 18.14 807.09 18.14C806.381 18.14 805.751 17.9953 805.2 17.706C804.659 17.4167 804.234 16.9873 803.926 16.418C803.628 15.8393 803.478 15.1347 803.478 14.304C803.478 13.4827 803.614 12.778 803.884 12.19C804.164 11.602 804.552 11.1493 805.046 10.832C805.55 10.5147 806.134 10.356 806.796 10.356ZM806.782 11.364C806.194 11.364 805.728 11.5553 805.382 11.938C805.046 12.3113 804.846 12.834 804.78 13.506H808.602C808.602 13.0767 808.537 12.7033 808.406 12.386C808.276 12.0687 808.075 11.8213 807.804 11.644C807.543 11.4573 807.202 11.364 806.782 11.364ZM816.687 15.928C816.687 16.4133 816.565 16.8193 816.323 17.146C816.08 17.4727 815.735 17.72 815.287 17.888C814.839 18.056 814.307 18.14 813.691 18.14C813.168 18.14 812.715 18.098 812.333 18.014C811.959 17.93 811.628 17.8133 811.339 17.664V16.544C811.637 16.6933 811.997 16.8333 812.417 16.964C812.846 17.0853 813.28 17.146 813.719 17.146C814.344 17.146 814.797 17.048 815.077 16.852C815.357 16.6467 815.497 16.376 815.497 16.04C815.497 15.8533 815.445 15.6853 815.343 15.536C815.24 15.3867 815.053 15.2373 814.783 15.088C814.521 14.9387 814.143 14.7707 813.649 14.584C813.163 14.3973 812.748 14.2107 812.403 14.024C812.057 13.8373 811.791 13.6133 811.605 13.352C811.418 13.0907 811.325 12.7547 811.325 12.344C811.325 11.7093 811.581 11.2193 812.095 10.874C812.617 10.5287 813.299 10.356 814.139 10.356C814.596 10.356 815.021 10.4027 815.413 10.496C815.814 10.58 816.187 10.7013 816.533 10.86L816.113 11.84C815.907 11.7467 815.688 11.6673 815.455 11.602C815.231 11.5273 815.002 11.4713 814.769 11.434C814.535 11.3873 814.297 11.364 814.055 11.364C813.551 11.364 813.163 11.448 812.893 11.616C812.631 11.7747 812.501 11.994 812.501 12.274C812.501 12.4793 812.561 12.6567 812.683 12.806C812.804 12.946 813.005 13.086 813.285 13.226C813.574 13.3567 813.957 13.5153 814.433 13.702C814.909 13.8793 815.315 14.0613 815.651 14.248C815.987 14.4347 816.243 14.6633 816.421 14.934C816.598 15.1953 816.687 15.5267 816.687 15.928ZM824.772 18H817.842V17.048L823.106 9.124H818.01V8.004H824.632V8.956L819.368 16.88H824.772V18ZM832.784 18H825.854V17.048L831.118 9.124H826.022V8.004H832.644V8.956L827.38 16.88H832.784V18ZM837.183 11.868C837.865 11.868 838.457 11.9847 838.961 12.218C839.465 12.4513 839.853 12.7873 840.123 13.226C840.403 13.6553 840.543 14.1827 840.543 14.808C840.543 15.4987 840.394 16.096 840.095 16.6C839.797 17.0947 839.367 17.4773 838.807 17.748C838.257 18.0093 837.589 18.14 836.805 18.14C836.292 18.14 835.807 18.0933 835.349 18C834.901 17.9067 834.523 17.7713 834.215 17.594V16.432C834.551 16.6373 834.957 16.8007 835.433 16.922C835.919 17.034 836.381 17.09 836.819 17.09C837.314 17.09 837.743 17.0153 838.107 16.866C838.481 16.7073 838.77 16.4693 838.975 16.152C839.181 15.8253 839.283 15.4193 839.283 14.934C839.283 14.2807 839.083 13.7813 838.681 13.436C838.28 13.0813 837.645 12.904 836.777 12.904C836.516 12.904 836.217 12.9273 835.881 12.974C835.545 13.0207 835.275 13.0673 835.069 13.114L834.453 12.722L834.831 8.004H839.843V9.124H835.881L835.643 12.022C835.802 11.994 836.017 11.9613 836.287 11.924C836.558 11.8867 836.857 11.868 837.183 11.868ZM850.627 18H849.157L843.809 9.698H843.753C843.762 9.866 843.772 10.0527 843.781 10.258C843.8 10.4633 843.814 10.6873 843.823 10.93C843.832 11.1633 843.842 11.406 843.851 11.658C843.86 11.91 843.865 12.162 843.865 12.414V18H842.703V8.004H844.159L849.493 16.278H849.549C849.54 16.166 849.53 16.012 849.521 15.816C849.512 15.6107 849.502 15.3867 849.493 15.144C849.484 14.892 849.474 14.6353 849.465 14.374C849.456 14.1127 849.451 13.87 849.451 13.646V8.004H850.627V18ZM862.062 12.988C862.062 13.8 861.95 14.5373 861.726 15.2C861.511 15.8627 861.189 16.4227 860.76 16.88C860.33 17.3373 859.794 17.6733 859.15 17.888L861.544 20.38H859.738L857.806 18.126C857.75 18.126 857.689 18.126 857.624 18.126C857.568 18.1353 857.512 18.14 857.456 18.14C856.672 18.14 855.99 18.0187 855.412 17.776C854.833 17.524 854.352 17.174 853.97 16.726C853.587 16.2687 853.302 15.7227 853.116 15.088C852.929 14.4533 852.836 13.7487 852.836 12.974C852.836 11.9473 853.004 11.0513 853.34 10.286C853.676 9.52067 854.184 8.92333 854.866 8.494C855.556 8.06467 856.424 7.85 857.47 7.85C858.468 7.85 859.308 8.06467 859.99 8.494C860.671 8.914 861.184 9.51133 861.53 10.286C861.884 11.0513 862.062 11.952 862.062 12.988ZM854.166 12.988C854.166 13.828 854.282 14.5513 854.516 15.158C854.749 15.7647 855.108 16.2313 855.594 16.558C856.088 16.8847 856.709 17.048 857.456 17.048C858.212 17.048 858.828 16.8847 859.304 16.558C859.789 16.2313 860.148 15.7647 860.382 15.158C860.615 14.5513 860.732 13.828 860.732 12.988C860.732 11.728 860.47 10.7433 859.948 10.034C859.425 9.31533 858.599 8.956 857.47 8.956C856.714 8.956 856.088 9.11933 855.594 9.446C855.108 9.76333 854.749 10.2253 854.516 10.832C854.282 11.4293 854.166 12.148 854.166 12.988ZM871.585 18H870.101L866.559 13.226L865.537 14.122V18H864.277V8.004H865.537V12.932C865.817 12.6147 866.102 12.2973 866.391 11.98C866.681 11.6627 866.97 11.3453 867.259 11.028L869.961 8.004H871.431L867.469 12.358L871.585 18ZM880.547 14.472C880.547 15.1627 880.407 15.788 880.127 16.348C879.847 16.8987 879.418 17.3373 878.839 17.664C878.27 17.9813 877.542 18.14 876.655 18.14C875.414 18.14 874.466 17.804 873.813 17.132C873.169 16.4507 872.847 15.5547 872.847 14.444V8.004H874.107V14.486C874.107 15.298 874.322 15.928 874.751 16.376C875.19 16.824 875.848 17.048 876.725 17.048C877.332 17.048 877.822 16.9407 878.195 16.726C878.578 16.502 878.858 16.1987 879.035 15.816C879.212 15.424 879.301 14.976 879.301 14.472V8.004H880.547V14.472ZM881.771 20.66C881.547 20.66 881.351 20.6413 881.183 20.604C881.015 20.576 880.866 20.534 880.735 20.478V19.414C880.885 19.4513 881.043 19.484 881.211 19.512C881.379 19.54 881.557 19.554 881.743 19.554C881.977 19.554 882.196 19.5073 882.401 19.414C882.616 19.3207 882.789 19.1573 882.919 18.924C883.05 18.6907 883.115 18.364 883.115 17.944V8.004H884.375V17.846C884.375 18.49 884.268 19.0173 884.053 19.428C883.839 19.848 883.535 20.156 883.143 20.352C882.751 20.5573 882.294 20.66 881.771 20.66ZM889.646 7.864C890.234 7.864 890.752 7.95733 891.2 8.144C891.648 8.32133 891.998 8.58733 892.25 8.942C892.511 9.29667 892.642 9.73533 892.642 10.258C892.642 10.6593 892.553 11.0093 892.376 11.308C892.208 11.6067 891.979 11.8727 891.69 12.106C891.4 12.33 891.083 12.5307 890.738 12.708C891.148 12.904 891.522 13.128 891.858 13.38C892.194 13.6227 892.46 13.9073 892.656 14.234C892.861 14.5607 892.964 14.9527 892.964 15.41C892.964 15.97 892.828 16.4553 892.558 16.866C892.287 17.2673 891.904 17.58 891.41 17.804C890.924 18.028 890.35 18.14 889.688 18.14C888.969 18.14 888.358 18.0327 887.854 17.818C887.359 17.6033 886.981 17.3 886.72 16.908C886.468 16.5067 886.342 16.0213 886.342 15.452C886.342 14.9947 886.435 14.598 886.622 14.262C886.818 13.926 887.074 13.6367 887.392 13.394C887.709 13.1513 888.05 12.946 888.414 12.778C888.087 12.5913 887.788 12.3813 887.518 12.148C887.256 11.9053 887.046 11.63 886.888 11.322C886.738 11.014 886.664 10.6547 886.664 10.244C886.664 9.73067 886.794 9.30133 887.056 8.956C887.317 8.60133 887.672 8.33067 888.12 8.144C888.568 7.95733 889.076 7.864 889.646 7.864ZM887.546 15.466C887.546 15.9513 887.718 16.3573 888.064 16.684C888.409 17.0013 888.941 17.16 889.66 17.16C890.117 17.16 890.5 17.0853 890.808 16.936C891.116 16.7867 891.349 16.5813 891.508 16.32C891.676 16.0587 891.76 15.76 891.76 15.424C891.76 15.0973 891.671 14.8127 891.494 14.57C891.326 14.318 891.083 14.094 890.766 13.898C890.458 13.702 890.089 13.5247 889.66 13.366L889.436 13.282C889.025 13.4593 888.68 13.6507 888.4 13.856C888.12 14.0613 887.905 14.2947 887.756 14.556C887.616 14.8173 887.546 15.1207 887.546 15.466ZM889.632 8.858C889.118 8.858 888.694 8.984 888.358 9.236C888.031 9.47867 887.868 9.83333 887.868 10.3C887.868 10.6453 887.947 10.9347 888.106 11.168C888.274 11.4013 888.498 11.602 888.778 11.77C889.058 11.9287 889.366 12.0827 889.702 12.232C890.028 12.092 890.318 11.938 890.57 11.77C890.831 11.602 891.036 11.4013 891.186 11.168C891.344 10.9253 891.424 10.636 891.424 10.3C891.424 9.83333 891.26 9.47867 890.934 9.236C890.607 8.984 890.173 8.858 889.632 8.858ZM894.437 13.73C894.437 13.1513 894.475 12.582 894.549 12.022C894.633 11.462 894.773 10.9347 894.969 10.44C895.165 9.936 895.436 9.49267 895.781 9.11C896.127 8.718 896.561 8.41467 897.083 8.2C897.615 7.976 898.259 7.864 899.015 7.864C899.211 7.864 899.426 7.87333 899.659 7.892C899.902 7.91067 900.098 7.94333 900.247 7.99V9.04C900.079 8.984 899.888 8.942 899.673 8.914C899.468 8.886 899.258 8.872 899.043 8.872C898.399 8.872 897.863 8.97933 897.433 9.194C897.004 9.40867 896.663 9.70267 896.411 10.076C896.169 10.4493 895.991 10.8787 895.879 11.364C895.767 11.8493 895.697 12.3673 895.669 12.918H895.753C895.893 12.694 896.071 12.4933 896.285 12.316C896.5 12.1387 896.757 11.9987 897.055 11.896C897.363 11.7933 897.718 11.742 898.119 11.742C898.698 11.742 899.202 11.8633 899.631 12.106C900.07 12.3393 900.411 12.6847 900.653 13.142C900.896 13.59 901.017 14.136 901.017 14.78C901.017 15.4707 900.887 16.068 900.625 16.572C900.364 17.076 899.995 17.4633 899.519 17.734C899.053 18.0047 898.493 18.14 897.839 18.14C897.363 18.14 896.92 18.0513 896.509 17.874C896.099 17.6967 895.735 17.426 895.417 17.062C895.109 16.698 894.867 16.2407 894.689 15.69C894.521 15.13 894.437 14.4767 894.437 13.73ZM897.825 17.104C898.413 17.104 898.889 16.9173 899.253 16.544C899.617 16.1613 899.799 15.5733 899.799 14.78C899.799 14.1453 899.636 13.6413 899.309 13.268C898.992 12.8947 898.511 12.708 897.867 12.708C897.429 12.708 897.046 12.8013 896.719 12.988C896.393 13.1653 896.136 13.394 895.949 13.674C895.772 13.954 895.683 14.2433 895.683 14.542C895.683 14.85 895.725 15.1533 895.809 15.452C895.903 15.7507 896.038 16.026 896.215 16.278C896.402 16.53 896.626 16.7307 896.887 16.88C897.158 17.0293 897.471 17.104 897.825 17.104ZM907.377 12.722H910.835V17.622C910.294 17.7993 909.748 17.93 909.197 18.014C908.646 18.098 908.021 18.14 907.321 18.14C906.285 18.14 905.412 17.9347 904.703 17.524C903.994 17.104 903.452 16.5113 903.079 15.746C902.715 14.9713 902.533 14.0567 902.533 13.002C902.533 11.9567 902.738 11.0513 903.149 10.286C903.56 9.52067 904.148 8.928 904.913 8.508C905.688 8.07867 906.621 7.864 907.713 7.864C908.273 7.864 908.8 7.91533 909.295 8.018C909.799 8.12067 910.266 8.26533 910.695 8.452L910.219 9.544C909.864 9.38533 909.463 9.25 909.015 9.138C908.576 9.026 908.119 8.97 907.643 8.97C906.85 8.97 906.168 9.13333 905.599 9.46C905.03 9.78667 904.596 10.2533 904.297 10.86C903.998 11.4573 903.849 12.1713 903.849 13.002C903.849 13.7953 903.975 14.5 904.227 15.116C904.488 15.7227 904.894 16.1987 905.445 16.544C905.996 16.88 906.719 17.048 907.615 17.048C907.914 17.048 908.175 17.0387 908.399 17.02C908.632 16.992 908.842 16.9593 909.029 16.922C909.225 16.8847 909.407 16.8473 909.575 16.81V13.842H907.377V12.722ZM915.869 8.004C917.175 8.004 918.127 8.26067 918.725 8.774C919.322 9.28733 919.621 10.0107 919.621 10.944C919.621 11.3547 919.551 11.7513 919.411 12.134C919.28 12.5073 919.061 12.8433 918.753 13.142C918.445 13.4407 918.034 13.6787 917.521 13.856C917.007 14.024 916.377 14.108 915.631 14.108H914.483V18H913.223V8.004H915.869ZM915.757 9.082H914.483V13.03H915.491C916.125 13.03 916.653 12.9647 917.073 12.834C917.493 12.694 917.805 12.4747 918.011 12.176C918.216 11.8773 918.319 11.4853 918.319 11C918.319 10.356 918.113 9.87533 917.703 9.558C917.292 9.24067 916.643 9.082 915.757 9.082Z" fill="white"/>
</svg>
