<svg width="435" height="25" viewBox="0 0 435 25" fill="none" xmlns="http://www.w3.org/2000/svg">
<rect width="435" height="25" fill="#555555"/>
<rect x="140" width="295" height="25" fill="#E6F782"/>
<path d="M26.6404 12.904C26.6404 14.024 26.4304 14.962 26.0104 15.718C25.5997 16.474 25.0071 17.0433 24.2324 17.426C23.4577 17.8087 22.5197 18 21.4184 18H18.6324V8.004H21.7124C22.7204 8.004 23.5931 8.19067 24.3304 8.564C25.0677 8.93733 25.6371 9.488 26.0384 10.216C26.4397 10.9347 26.6404 11.8307 26.6404 12.904ZM25.3104 12.946C25.3104 12.0593 25.1611 11.3313 24.8624 10.762C24.5731 10.1927 24.1437 9.77267 23.5744 9.502C23.0144 9.222 22.3331 9.082 21.5304 9.082H19.8924V16.922H21.2504C22.6037 16.922 23.6164 16.5907 24.2884 15.928C24.9697 15.256 25.3104 14.262 25.3104 12.946ZM35.215 14.234C35.215 14.8593 35.131 15.4147 34.963 15.9C34.8043 16.376 34.571 16.782 34.263 17.118C33.9643 17.454 33.5956 17.7107 33.157 17.888C32.7276 18.056 32.247 18.14 31.715 18.14C31.2203 18.14 30.763 18.056 30.343 17.888C29.923 17.7107 29.559 17.454 29.251 17.118C28.943 16.782 28.7003 16.376 28.523 15.9C28.355 15.4147 28.271 14.8593 28.271 14.234C28.271 13.4033 28.411 12.7033 28.691 12.134C28.971 11.5553 29.3723 11.1167 29.895 10.818C30.4176 10.51 31.0383 10.356 31.757 10.356C32.4383 10.356 33.0356 10.51 33.549 10.818C34.0716 11.1167 34.4776 11.5553 34.767 12.134C35.0656 12.7033 35.215 13.4033 35.215 14.234ZM29.545 14.234C29.545 14.822 29.6196 15.3353 29.769 15.774C29.9276 16.2033 30.1703 16.5347 30.497 16.768C30.8236 17.0013 31.239 17.118 31.743 17.118C32.247 17.118 32.6623 17.0013 32.989 16.768C33.3156 16.5347 33.5536 16.2033 33.703 15.774C33.8616 15.3353 33.941 14.822 33.941 14.234C33.941 13.6367 33.8616 13.128 33.703 12.708C33.5443 12.288 33.3016 11.966 32.975 11.742C32.6576 11.5087 32.2423 11.392 31.729 11.392C30.9636 11.392 30.4083 11.644 30.063 12.148C29.7176 12.652 29.545 13.3473 29.545 14.234ZM39.8275 10.356C40.3222 10.356 40.7655 10.4493 41.1575 10.636C41.5589 10.8227 41.8995 11.1073 42.1795 11.49H42.2495L42.4175 10.496H43.3975V18.126C43.3975 18.8353 43.2762 19.428 43.0335 19.904C42.7909 20.3893 42.4222 20.7533 41.9275 20.996C41.4329 21.2387 40.8029 21.36 40.0375 21.36C39.4962 21.36 38.9969 21.318 38.5395 21.234C38.0915 21.1593 37.6902 21.0427 37.3355 20.884V19.75C37.5782 19.8713 37.8442 19.974 38.1335 20.058C38.4229 20.1513 38.7355 20.2213 39.0715 20.268C39.4075 20.3147 39.7529 20.338 40.1075 20.338C40.7515 20.338 41.2555 20.1467 41.6195 19.764C41.9929 19.3907 42.1795 18.8773 42.1795 18.224V17.93C42.1795 17.818 42.1842 17.6593 42.1935 17.454C42.2029 17.2393 42.2122 17.09 42.2215 17.006H42.1655C41.9042 17.3887 41.5775 17.6733 41.1855 17.86C40.8029 18.0467 40.3549 18.14 39.8415 18.14C38.8709 18.14 38.1102 17.7993 37.5595 17.118C37.0182 16.4367 36.7475 15.4847 36.7475 14.262C36.7475 13.4593 36.8689 12.7687 37.1115 12.19C37.3635 11.602 37.7182 11.1493 38.1755 10.832C38.6329 10.5147 39.1835 10.356 39.8275 10.356ZM39.9955 11.392C39.5755 11.392 39.2162 11.504 38.9175 11.728C38.6282 11.952 38.4042 12.2787 38.2455 12.708C38.0962 13.1373 38.0215 13.66 38.0215 14.276C38.0215 15.2 38.1895 15.9093 38.5255 16.404C38.8709 16.8893 39.3702 17.132 40.0235 17.132C40.4062 17.132 40.7329 17.0853 41.0035 16.992C41.2742 16.8893 41.4982 16.7353 41.6755 16.53C41.8529 16.3153 41.9835 16.0447 42.0675 15.718C42.1515 15.3913 42.1935 15.004 42.1935 14.556V14.262C42.1935 13.5807 42.1142 13.03 41.9555 12.61C41.8062 12.19 41.5682 11.882 41.2415 11.686C40.9149 11.49 40.4995 11.392 39.9955 11.392ZM48.6788 10.356C49.3228 10.356 49.8735 10.496 50.3308 10.776C50.7975 11.056 51.1522 11.4527 51.3948 11.966C51.6468 12.47 51.7728 13.0627 51.7728 13.744V14.486H46.6348C46.6535 15.3353 46.8682 15.984 47.2788 16.432C47.6988 16.8707 48.2822 17.09 49.0288 17.09C49.5048 17.09 49.9248 17.048 50.2888 16.964C50.6622 16.8707 51.0448 16.74 51.4368 16.572V17.65C51.0542 17.818 50.6762 17.9393 50.3028 18.014C49.9295 18.098 49.4862 18.14 48.9728 18.14C48.2635 18.14 47.6335 17.9953 47.0828 17.706C46.5415 17.4167 46.1168 16.9873 45.8088 16.418C45.5102 15.8393 45.3608 15.1347 45.3608 14.304C45.3608 13.4827 45.4962 12.778 45.7668 12.19C46.0468 11.602 46.4342 11.1493 46.9288 10.832C47.4328 10.5147 48.0162 10.356 48.6788 10.356ZM48.6648 11.364C48.0768 11.364 47.6102 11.5553 47.2648 11.938C46.9288 12.3113 46.7282 12.834 46.6628 13.506H50.4848C50.4848 13.0767 50.4195 12.7033 50.2888 12.386C50.1582 12.0687 49.9575 11.8213 49.6868 11.644C49.4255 11.4573 49.0848 11.364 48.6648 11.364ZM56.6932 18.14C56.0305 18.14 55.4378 18.0047 54.9152 17.734C54.4018 17.4633 53.9958 17.0433 53.6972 16.474C53.4078 15.9047 53.2632 15.1767 53.2632 14.29C53.2632 13.366 53.4172 12.6147 53.7252 12.036C54.0332 11.4573 54.4485 11.0327 54.9712 10.762C55.5032 10.4913 56.1052 10.356 56.7772 10.356C57.1598 10.356 57.5285 10.398 57.8832 10.482C58.2378 10.5567 58.5272 10.65 58.7512 10.762L58.3732 11.784C58.1492 11.7 57.8878 11.6207 57.5892 11.546C57.2905 11.4713 57.0105 11.434 56.7492 11.434C56.2452 11.434 55.8298 11.5413 55.5032 11.756C55.1765 11.9707 54.9338 12.288 54.7752 12.708C54.6165 13.128 54.5372 13.6507 54.5372 14.276C54.5372 14.8733 54.6165 15.382 54.7752 15.802C54.9338 16.222 55.1718 16.5393 55.4892 16.754C55.8065 16.9687 56.2032 17.076 56.6792 17.076C57.0898 17.076 57.4492 17.034 57.7572 16.95C58.0745 16.866 58.3638 16.7633 58.6252 16.642V17.734C58.3732 17.8647 58.0932 17.9627 57.7852 18.028C57.4865 18.1027 57.1225 18.14 56.6932 18.14ZM66.9337 14.234C66.9337 14.8593 66.8497 15.4147 66.6817 15.9C66.5231 16.376 66.2897 16.782 65.9817 17.118C65.6831 17.454 65.3144 17.7107 64.8757 17.888C64.4464 18.056 63.9657 18.14 63.4337 18.14C62.9391 18.14 62.4817 18.056 62.0617 17.888C61.6417 17.7107 61.2777 17.454 60.9697 17.118C60.6617 16.782 60.4191 16.376 60.2417 15.9C60.0737 15.4147 59.9897 14.8593 59.9897 14.234C59.9897 13.4033 60.1297 12.7033 60.4097 12.134C60.6897 11.5553 61.0911 11.1167 61.6137 10.818C62.1364 10.51 62.7571 10.356 63.4757 10.356C64.1571 10.356 64.7544 10.51 65.2677 10.818C65.7904 11.1167 66.1964 11.5553 66.4857 12.134C66.7844 12.7033 66.9337 13.4033 66.9337 14.234ZM61.2637 14.234C61.2637 14.822 61.3384 15.3353 61.4877 15.774C61.6464 16.2033 61.8891 16.5347 62.2157 16.768C62.5424 17.0013 62.9577 17.118 63.4617 17.118C63.9657 17.118 64.3811 17.0013 64.7077 16.768C65.0344 16.5347 65.2724 16.2033 65.4217 15.774C65.5804 15.3353 65.6597 14.822 65.6597 14.234C65.6597 13.6367 65.5804 13.128 65.4217 12.708C65.2631 12.288 65.0204 11.966 64.6937 11.742C64.3764 11.5087 63.9611 11.392 63.4477 11.392C62.6824 11.392 62.1271 11.644 61.7817 12.148C61.4364 12.652 61.2637 13.3473 61.2637 14.234ZM70.1183 10.496V18H68.8863V10.496H70.1183ZM69.5163 7.682C69.703 7.682 69.8663 7.74733 70.0063 7.878C70.1556 7.99933 70.2303 8.19533 70.2303 8.466C70.2303 8.72733 70.1556 8.92333 70.0063 9.054C69.8663 9.18467 69.703 9.25 69.5163 9.25C69.311 9.25 69.1383 9.18467 68.9983 9.054C68.8583 8.92333 68.7883 8.72733 68.7883 8.466C68.7883 8.19533 68.8583 7.99933 68.9983 7.878C69.1383 7.74733 69.311 7.682 69.5163 7.682ZM76.1077 10.356C77.0037 10.356 77.6803 10.5753 78.1377 11.014C78.595 11.4433 78.8237 12.1433 78.8237 13.114V18H77.6057V13.198C77.6057 12.5913 77.4703 12.1387 77.1997 11.84C76.929 11.5413 76.5043 11.392 75.9257 11.392C75.095 11.392 74.521 11.6253 74.2037 12.092C73.8863 12.5587 73.7277 13.2307 73.7277 14.108V18H72.4957V10.496H73.4897L73.6717 11.518H73.7417C73.9097 11.2567 74.115 11.042 74.3577 10.874C74.6097 10.6967 74.885 10.566 75.1837 10.482C75.4823 10.398 75.7903 10.356 76.1077 10.356ZM92.9627 12.904C92.9627 14.024 92.7527 14.962 92.3327 15.718C91.922 16.474 91.3293 17.0433 90.5547 17.426C89.78 17.8087 88.842 18 87.7407 18H84.9547V8.004H88.0347C89.0427 8.004 89.9153 8.19067 90.6527 8.564C91.39 8.93733 91.9593 9.488 92.3607 10.216C92.762 10.9347 92.9627 11.8307 92.9627 12.904ZM91.6327 12.946C91.6327 12.0593 91.4833 11.3313 91.1847 10.762C90.8953 10.1927 90.466 9.77267 89.8967 9.502C89.3367 9.222 88.6553 9.082 87.8527 9.082H86.2147V16.922H87.5727C88.926 16.922 89.9387 16.5907 90.6107 15.928C91.292 15.256 91.6327 14.262 91.6327 12.946ZM103.903 12.988C103.903 13.7627 103.805 14.4673 103.609 15.102C103.413 15.7273 103.119 16.2687 102.727 16.726C102.345 17.1833 101.864 17.5333 101.285 17.776C100.716 18.0187 100.053 18.14 99.2972 18.14C98.5132 18.14 97.8319 18.0187 97.2532 17.776C96.6746 17.524 96.1939 17.174 95.8112 16.726C95.4286 16.2687 95.1439 15.7227 94.9572 15.088C94.7706 14.4533 94.6772 13.7487 94.6772 12.974C94.6772 11.9473 94.8452 11.0513 95.1812 10.286C95.5172 9.52067 96.0259 8.92333 96.7072 8.494C97.3979 8.06467 98.2659 7.85 99.3112 7.85C100.31 7.85 101.15 8.06467 101.831 8.494C102.513 8.914 103.026 9.51133 103.371 10.286C103.726 11.0513 103.903 11.952 103.903 12.988ZM96.0072 12.988C96.0072 13.828 96.1239 14.5513 96.3572 15.158C96.5906 15.7647 96.9499 16.2313 97.4352 16.558C97.9299 16.8847 98.5506 17.048 99.2972 17.048C100.053 17.048 100.669 16.8847 101.145 16.558C101.631 16.2313 101.99 15.7647 102.223 15.158C102.457 14.5513 102.573 13.828 102.573 12.988C102.573 11.728 102.312 10.7433 101.789 10.034C101.267 9.31533 100.441 8.956 99.3112 8.956C98.5552 8.956 97.9299 9.11933 97.4352 9.446C96.9499 9.76333 96.5906 10.2253 96.3572 10.832C96.1239 11.4293 96.0072 12.148 96.0072 12.988ZM110.459 12.722H113.917V17.622C113.375 17.7993 112.829 17.93 112.279 18.014C111.728 18.098 111.103 18.14 110.403 18.14C109.367 18.14 108.494 17.9347 107.785 17.524C107.075 17.104 106.534 16.5113 106.161 15.746C105.797 14.9713 105.615 14.0567 105.615 13.002C105.615 11.9567 105.82 11.0513 106.231 10.286C106.641 9.52067 107.229 8.928 107.995 8.508C108.769 8.07867 109.703 7.864 110.795 7.864C111.355 7.864 111.882 7.91533 112.377 8.018C112.881 8.12067 113.347 8.26533 113.777 8.452L113.301 9.544C112.946 9.38533 112.545 9.25 112.097 9.138C111.658 9.026 111.201 8.97 110.725 8.97C109.931 8.97 109.25 9.13333 108.681 9.46C108.111 9.78667 107.677 10.2533 107.379 10.86C107.08 11.4573 106.931 12.1713 106.931 13.002C106.931 13.7953 107.057 14.5 107.309 15.116C107.57 15.7227 107.976 16.1987 108.527 16.544C109.077 16.88 109.801 17.048 110.697 17.048C110.995 17.048 111.257 17.0387 111.481 17.02C111.714 16.992 111.924 16.9593 112.111 16.922C112.307 16.8847 112.489 16.8473 112.657 16.81V13.842H110.459V12.722ZM121.89 18H116.304V8.004H121.89V9.11H117.564V12.232H121.638V13.324H117.564V16.894H121.89V18Z" fill="white"/>
<path d="M157.003 12.904C157.003 14.024 156.793 14.962 156.373 15.718C155.962 16.474 155.369 17.0433 154.595 17.426C153.82 17.8087 152.882 18 151.781 18H148.995V8.004H152.075C153.083 8.004 153.955 8.19067 154.693 8.564C155.43 8.93733 155.999 9.488 156.401 10.216C156.802 10.9347 157.003 11.8307 157.003 12.904ZM155.673 12.946C155.673 12.0593 155.523 11.3313 155.225 10.762C154.935 10.1927 154.506 9.77267 153.937 9.502C153.377 9.222 152.695 9.082 151.893 9.082H150.255V16.922H151.613C152.966 16.922 153.979 16.5907 154.651 15.928C155.332 15.256 155.673 14.262 155.673 12.946ZM164.807 18H159.221V8.004H164.807V9.11H160.481V12.232H164.555V13.324H160.481V16.894H164.807V18ZM178.481 8.004L175.821 18H174.547L172.601 11.448C172.545 11.252 172.489 11.0513 172.433 10.846C172.377 10.6407 172.325 10.4447 172.279 10.258C172.232 10.0713 172.19 9.91267 172.153 9.782C172.125 9.642 172.106 9.53933 172.097 9.474C172.087 9.53933 172.069 9.642 172.041 9.782C172.022 9.91267 171.989 10.0713 171.943 10.258C171.896 10.4447 171.845 10.6453 171.789 10.86C171.742 11.0653 171.686 11.2753 171.621 11.49L169.731 18H168.457L165.811 8.004H167.127L168.681 14.108C168.737 14.3227 168.788 14.5373 168.835 14.752C168.881 14.9573 168.923 15.1627 168.961 15.368C169.007 15.564 169.045 15.7553 169.073 15.942C169.101 16.1287 169.129 16.3107 169.157 16.488C169.185 16.3013 169.213 16.11 169.241 15.914C169.278 15.718 169.32 15.5173 169.367 15.312C169.413 15.0973 169.465 14.8827 169.521 14.668C169.577 14.4533 169.633 14.2433 169.689 14.038L171.453 8.004H172.755L174.589 14.08C174.654 14.2947 174.715 14.514 174.771 14.738C174.827 14.9527 174.878 15.1627 174.925 15.368C174.971 15.5733 175.009 15.774 175.037 15.97C175.074 16.1567 175.107 16.3293 175.135 16.488C175.163 16.2547 175.2 16.012 175.247 15.76C175.293 15.4987 175.349 15.228 175.415 14.948C175.48 14.668 175.55 14.3833 175.625 14.094L177.165 8.004H178.481ZM180.016 18V8.004H181.276V16.88H185.644V18H180.016ZM191.425 12.722H194.883V17.622C194.341 17.7993 193.795 17.93 193.245 18.014C192.694 18.098 192.069 18.14 191.369 18.14C190.333 18.14 189.46 17.9347 188.751 17.524C188.041 17.104 187.5 16.5113 187.127 15.746C186.763 14.9713 186.581 14.0567 186.581 13.002C186.581 11.9567 186.786 11.0513 187.197 10.286C187.607 9.52067 188.195 8.928 188.961 8.508C189.735 8.07867 190.669 7.864 191.761 7.864C192.321 7.864 192.848 7.91533 193.343 8.018C193.847 8.12067 194.313 8.26533 194.743 8.452L194.267 9.544C193.912 9.38533 193.511 9.25 193.063 9.138C192.624 9.026 192.167 8.97 191.691 8.97C190.897 8.97 190.216 9.13333 189.647 9.46C189.077 9.78667 188.643 10.2533 188.345 10.86C188.046 11.4573 187.897 12.1713 187.897 13.002C187.897 13.7953 188.023 14.5 188.275 15.116C188.536 15.7227 188.942 16.1987 189.493 16.544C190.043 16.88 190.767 17.048 191.663 17.048C191.961 17.048 192.223 17.0387 192.447 17.02C192.68 16.992 192.89 16.9593 193.077 16.922C193.273 16.8847 193.455 16.8473 193.623 16.81V13.842H191.425V12.722ZM197.816 18L201.918 9.124H196.528V8.004H203.234V8.956L199.174 18H197.816ZM207.774 11.868C208.455 11.868 209.048 11.9847 209.552 12.218C210.056 12.4513 210.443 12.7873 210.714 13.226C210.994 13.6553 211.134 14.1827 211.134 14.808C211.134 15.4987 210.984 16.096 210.686 16.6C210.387 17.0947 209.958 17.4773 209.398 17.748C208.847 18.0093 208.18 18.14 207.396 18.14C206.882 18.14 206.397 18.0933 205.94 18C205.492 17.9067 205.114 17.7713 204.806 17.594V16.432C205.142 16.6373 205.548 16.8007 206.024 16.922C206.509 17.034 206.971 17.09 207.41 17.09C207.904 17.09 208.334 17.0153 208.698 16.866C209.071 16.7073 209.36 16.4693 209.566 16.152C209.771 15.8253 209.874 15.4193 209.874 14.934C209.874 14.2807 209.673 13.7813 209.272 13.436C208.87 13.0813 208.236 12.904 207.368 12.904C207.106 12.904 206.808 12.9273 206.472 12.974C206.136 13.0207 205.865 13.0673 205.66 13.114L205.044 12.722L205.422 8.004H210.434V9.124H206.472L206.234 12.022C206.392 11.994 206.607 11.9613 206.878 11.924C207.148 11.8867 207.447 11.868 207.774 11.868ZM215.786 10.356C216.28 10.356 216.724 10.4493 217.116 10.636C217.517 10.8227 217.858 11.1073 218.138 11.49H218.208L218.376 10.496H219.356V18.126C219.356 18.8353 219.234 19.428 218.992 19.904C218.749 20.3893 218.38 20.7533 217.886 20.996C217.391 21.2387 216.761 21.36 215.996 21.36C215.454 21.36 214.955 21.318 214.498 21.234C214.05 21.1593 213.648 21.0427 213.294 20.884V19.75C213.536 19.8713 213.802 19.974 214.092 20.058C214.381 20.1513 214.694 20.2213 215.03 20.268C215.366 20.3147 215.711 20.338 216.066 20.338C216.71 20.338 217.214 20.1467 217.578 19.764C217.951 19.3907 218.138 18.8773 218.138 18.224V17.93C218.138 17.818 218.142 17.6593 218.152 17.454C218.161 17.2393 218.17 17.09 218.18 17.006H218.124C217.862 17.3887 217.536 17.6733 217.144 17.86C216.761 18.0467 216.313 18.14 215.8 18.14C214.829 18.14 214.068 17.7993 213.518 17.118C212.976 16.4367 212.706 15.4847 212.706 14.262C212.706 13.4593 212.827 12.7687 213.07 12.19C213.322 11.602 213.676 11.1493 214.134 10.832C214.591 10.5147 215.142 10.356 215.786 10.356ZM215.954 11.392C215.534 11.392 215.174 11.504 214.876 11.728C214.586 11.952 214.362 12.2787 214.204 12.708C214.054 13.1373 213.98 13.66 213.98 14.276C213.98 15.2 214.148 15.9093 214.484 16.404C214.829 16.8893 215.328 17.132 215.982 17.132C216.364 17.132 216.691 17.0853 216.962 16.992C217.232 16.8893 217.456 16.7353 217.634 16.53C217.811 16.3153 217.942 16.0447 218.026 15.718C218.11 15.3913 218.152 15.004 218.152 14.556V14.262C218.152 13.5807 218.072 13.03 217.914 12.61C217.764 12.19 217.526 11.882 217.2 11.686C216.873 11.49 216.458 11.392 215.954 11.392ZM221.907 18V8.004H223.167V16.88H227.535V18H221.907ZM237.257 12.904C237.257 14.024 237.047 14.962 236.627 15.718C236.216 16.474 235.623 17.0433 234.849 17.426C234.074 17.8087 233.136 18 232.035 18H229.249V8.004H232.329C233.337 8.004 234.209 8.19067 234.947 8.564C235.684 8.93733 236.253 9.488 236.655 10.216C237.056 10.9347 237.257 11.8307 237.257 12.904ZM235.927 12.946C235.927 12.0593 235.777 11.3313 235.479 10.762C235.189 10.1927 234.76 9.77267 234.191 9.502C233.631 9.222 232.949 9.082 232.147 9.082H230.509V16.922H231.867C233.22 16.922 234.233 16.5907 234.905 15.928C235.586 15.256 235.927 14.262 235.927 12.946ZM244.305 18.154C244.305 17.986 244.31 17.79 244.319 17.566C244.329 17.342 244.347 17.1507 244.375 16.992H244.291C244.077 17.3093 243.778 17.58 243.395 17.804C243.022 18.028 242.537 18.14 241.939 18.14C241.034 18.14 240.297 17.818 239.727 17.174C239.167 16.5207 238.887 15.55 238.887 14.262C238.887 13.4033 239.018 12.6847 239.279 12.106C239.541 11.5273 239.905 11.0933 240.371 10.804C240.838 10.5053 241.375 10.356 241.981 10.356C242.569 10.356 243.05 10.468 243.423 10.692C243.797 10.916 244.095 11.1913 244.319 11.518H244.375L244.557 10.496H245.537V21.36H244.305V18.154ZM242.177 17.118C242.691 17.118 243.101 17.0247 243.409 16.838C243.727 16.6513 243.955 16.3667 244.095 15.984C244.235 15.592 244.31 15.1067 244.319 14.528V14.276C244.319 13.324 244.161 12.6053 243.843 12.12C243.526 11.6253 242.961 11.378 242.149 11.378C241.477 11.378 240.978 11.644 240.651 12.176C240.325 12.6987 240.161 13.4033 240.161 14.29C240.161 15.1767 240.325 15.872 240.651 16.376C240.987 16.8707 241.496 17.118 242.177 17.118ZM259.568 8.004L256.908 18H255.634L253.688 11.448C253.632 11.252 253.576 11.0513 253.52 10.846C253.464 10.6407 253.413 10.4447 253.366 10.258C253.32 10.0713 253.278 9.91267 253.24 9.782C253.212 9.642 253.194 9.53933 253.184 9.474C253.175 9.53933 253.156 9.642 253.128 9.782C253.11 9.91267 253.077 10.0713 253.03 10.258C252.984 10.4447 252.932 10.6453 252.876 10.86C252.83 11.0653 252.774 11.2753 252.708 11.49L250.818 18H249.544L246.898 8.004H248.214L249.768 14.108C249.824 14.3227 249.876 14.5373 249.922 14.752C249.969 14.9573 250.011 15.1627 250.048 15.368C250.095 15.564 250.132 15.7553 250.16 15.942C250.188 16.1287 250.216 16.3107 250.244 16.488C250.272 16.3013 250.3 16.11 250.328 15.914C250.366 15.718 250.408 15.5173 250.454 15.312C250.501 15.0973 250.552 14.8827 250.608 14.668C250.664 14.4533 250.72 14.2433 250.776 14.038L252.54 8.004H253.842L255.676 14.08C255.742 14.2947 255.802 14.514 255.858 14.738C255.914 14.9527 255.966 15.1627 256.012 15.368C256.059 15.5733 256.096 15.774 256.124 15.97C256.162 16.1567 256.194 16.3293 256.222 16.488C256.25 16.2547 256.288 16.012 256.334 15.76C256.381 15.4987 256.437 15.228 256.502 14.948C256.568 14.668 256.638 14.3833 256.712 14.094L258.252 8.004H259.568ZM262.168 9.95C262.168 10.2673 262.159 10.566 262.14 10.846C262.131 11.1167 262.117 11.3313 262.098 11.49H262.168C262.383 11.1727 262.677 10.9067 263.05 10.692C263.423 10.4773 263.904 10.37 264.492 10.37C265.425 10.37 266.172 10.6967 266.732 11.35C267.301 11.994 267.586 12.96 267.586 14.248C267.586 15.1067 267.455 15.8253 267.194 16.404C266.942 16.9827 266.583 17.4167 266.116 17.706C265.649 17.9953 265.108 18.14 264.492 18.14C263.904 18.14 263.423 18.0327 263.05 17.818C262.677 17.6033 262.383 17.3467 262.168 17.048H262.07L261.818 18H260.936V7.36H262.168V9.95ZM264.282 11.392C263.75 11.392 263.33 11.4947 263.022 11.7C262.714 11.896 262.495 12.204 262.364 12.624C262.233 13.0347 262.168 13.562 262.168 14.206V14.262C262.168 15.186 262.317 15.8953 262.616 16.39C262.924 16.8753 263.489 17.118 264.31 17.118C264.982 17.118 265.481 16.8707 265.808 16.376C266.144 15.8813 266.312 15.1673 266.312 14.234C266.312 13.2913 266.144 12.582 265.808 12.106C265.481 11.63 264.973 11.392 264.282 11.392ZM270.781 9.95C270.781 10.2673 270.772 10.566 270.753 10.846C270.744 11.1167 270.73 11.3313 270.711 11.49H270.781C270.996 11.1727 271.29 10.9067 271.663 10.692C272.037 10.4773 272.517 10.37 273.105 10.37C274.039 10.37 274.785 10.6967 275.345 11.35C275.915 11.994 276.199 12.96 276.199 14.248C276.199 15.1067 276.069 15.8253 275.807 16.404C275.555 16.9827 275.196 17.4167 274.729 17.706C274.263 17.9953 273.721 18.14 273.105 18.14C272.517 18.14 272.037 18.0327 271.663 17.818C271.29 17.6033 270.996 17.3467 270.781 17.048H270.683L270.431 18H269.549V7.36H270.781V9.95ZM272.895 11.392C272.363 11.392 271.943 11.4947 271.635 11.7C271.327 11.896 271.108 12.204 270.977 12.624C270.847 13.0347 270.781 13.562 270.781 14.206V14.262C270.781 15.186 270.931 15.8953 271.229 16.39C271.537 16.8753 272.102 17.118 272.923 17.118C273.595 17.118 274.095 16.8707 274.421 16.376C274.757 15.8813 274.925 15.1673 274.925 14.234C274.925 13.2913 274.757 12.582 274.421 12.106C274.095 11.63 273.586 11.392 272.895 11.392ZM284.253 18H277.645V16.978L280.263 14.332C280.767 13.828 281.191 13.38 281.537 12.988C281.882 12.596 282.143 12.2133 282.321 11.84C282.498 11.4573 282.587 11.042 282.587 10.594C282.587 10.0433 282.423 9.628 282.097 9.348C281.77 9.05867 281.345 8.914 280.823 8.914C280.337 8.914 279.908 8.998 279.535 9.166C279.171 9.334 278.797 9.56733 278.415 9.866L277.757 9.04C278.018 8.816 278.303 8.61533 278.611 8.438C278.928 8.26067 279.269 8.12067 279.633 8.018C280.006 7.91533 280.403 7.864 280.823 7.864C281.448 7.864 281.985 7.97133 282.433 8.186C282.881 8.40067 283.226 8.70867 283.469 9.11C283.721 9.502 283.847 9.97333 283.847 10.524C283.847 10.916 283.786 11.2893 283.665 11.644C283.543 11.9893 283.371 12.33 283.147 12.666C282.923 13.002 282.652 13.3427 282.335 13.688C282.017 14.0333 281.667 14.3927 281.285 14.766L279.199 16.824V16.88H284.253V18ZM294.266 18H292.796L287.448 9.698H287.392C287.402 9.866 287.411 10.0527 287.42 10.258C287.439 10.4633 287.453 10.6873 287.462 10.93C287.472 11.1633 287.481 11.406 287.49 11.658C287.5 11.91 287.504 12.162 287.504 12.414V18H286.342V8.004H287.798L293.132 16.278H293.188C293.179 16.166 293.17 16.012 293.16 15.816C293.151 15.6107 293.142 15.3867 293.132 15.144C293.123 14.892 293.114 14.6353 293.104 14.374C293.095 14.1127 293.09 13.87 293.09 13.646V8.004H294.266V18ZM299.737 8.004C300.568 8.004 301.249 8.11133 301.781 8.326C302.322 8.53133 302.724 8.844 302.985 9.264C303.246 9.684 303.377 10.2113 303.377 10.846C303.377 11.378 303.279 11.8213 303.083 12.176C302.887 12.5307 302.635 12.8153 302.327 13.03C302.028 13.2353 301.711 13.3987 301.375 13.52L304.119 18H302.649L300.227 13.87H298.239V18H296.979V8.004H299.737ZM299.667 9.096H298.239V12.806H299.737C300.278 12.806 300.722 12.736 301.067 12.596C301.412 12.4467 301.664 12.232 301.823 11.952C301.991 11.672 302.075 11.322 302.075 10.902C302.075 10.4633 301.986 10.1133 301.809 9.852C301.641 9.59067 301.38 9.39933 301.025 9.278C300.67 9.15667 300.218 9.096 299.667 9.096ZM310.518 18.154C310.518 17.986 310.523 17.79 310.532 17.566C310.541 17.342 310.56 17.1507 310.588 16.992H310.504C310.289 17.3093 309.991 17.58 309.608 17.804C309.235 18.028 308.749 18.14 308.152 18.14C307.247 18.14 306.509 17.818 305.94 17.174C305.38 16.5207 305.1 15.55 305.1 14.262C305.1 13.4033 305.231 12.6847 305.492 12.106C305.753 11.5273 306.117 11.0933 306.584 10.804C307.051 10.5053 307.587 10.356 308.194 10.356C308.782 10.356 309.263 10.468 309.636 10.692C310.009 10.916 310.308 11.1913 310.532 11.518H310.588L310.77 10.496H311.75V21.36H310.518V18.154ZM308.39 17.118C308.903 17.118 309.314 17.0247 309.622 16.838C309.939 16.6513 310.168 16.3667 310.308 15.984C310.448 15.592 310.523 15.1067 310.532 14.528V14.276C310.532 13.324 310.373 12.6053 310.056 12.12C309.739 11.6253 309.174 11.378 308.362 11.378C307.69 11.378 307.191 11.644 306.864 12.176C306.537 12.6987 306.374 13.4033 306.374 14.29C306.374 15.1767 306.537 15.872 306.864 16.376C307.2 16.8707 307.709 17.118 308.39 17.118ZM319.971 15.326C319.971 15.9233 319.827 16.432 319.537 16.852C319.248 17.2627 318.833 17.58 318.291 17.804C317.759 18.028 317.129 18.14 316.401 18.14C316.028 18.14 315.669 18.1213 315.323 18.084C314.987 18.0467 314.679 17.9953 314.399 17.93C314.119 17.8553 313.872 17.7667 313.657 17.664V16.46C313.993 16.6093 314.409 16.7447 314.903 16.866C315.407 16.9873 315.925 17.048 316.457 17.048C316.952 17.048 317.367 16.9827 317.703 16.852C318.039 16.7213 318.291 16.5347 318.459 16.292C318.627 16.0493 318.711 15.7647 318.711 15.438C318.711 15.1113 318.641 14.836 318.501 14.612C318.361 14.388 318.119 14.1827 317.773 13.996C317.437 13.8 316.966 13.5947 316.359 13.38C315.93 13.2213 315.552 13.0533 315.225 12.876C314.908 12.6893 314.642 12.4793 314.427 12.246C314.213 12.0127 314.049 11.7467 313.937 11.448C313.835 11.1493 313.783 10.804 313.783 10.412C313.783 9.88 313.919 9.42733 314.189 9.054C314.46 8.67133 314.833 8.37733 315.309 8.172C315.795 7.96667 316.35 7.864 316.975 7.864C317.526 7.864 318.03 7.91533 318.487 8.018C318.945 8.12067 319.36 8.256 319.733 8.424L319.341 9.502C318.996 9.35267 318.618 9.22667 318.207 9.124C317.806 9.02133 317.386 8.97 316.947 8.97C316.527 8.97 316.177 9.03067 315.897 9.152C315.617 9.27333 315.407 9.446 315.267 9.67C315.127 9.88467 315.057 10.1367 315.057 10.426C315.057 10.762 315.127 11.042 315.267 11.266C315.407 11.49 315.636 11.6907 315.953 11.868C316.271 12.0453 316.7 12.2367 317.241 12.442C317.829 12.6567 318.324 12.89 318.725 13.142C319.136 13.3847 319.444 13.6787 319.649 14.024C319.864 14.3693 319.971 14.8033 319.971 15.326ZM325.275 11.448H323.385V18H322.153V11.448H320.837V10.874L322.153 10.454V10.02C322.153 9.376 322.246 8.85333 322.433 8.452C322.629 8.05067 322.909 7.75667 323.273 7.57C323.637 7.38333 324.076 7.29 324.589 7.29C324.888 7.29 325.158 7.318 325.401 7.374C325.653 7.42067 325.868 7.47667 326.045 7.542L325.723 8.508C325.574 8.46133 325.401 8.41467 325.205 8.368C325.009 8.32133 324.808 8.298 324.603 8.298C324.192 8.298 323.884 8.438 323.679 8.718C323.483 8.98867 323.385 9.418 323.385 10.006V10.496H325.275V11.448ZM327.861 9.95C327.861 10.2673 327.852 10.566 327.833 10.846C327.824 11.1167 327.81 11.3313 327.791 11.49H327.861C328.076 11.1727 328.37 10.9067 328.743 10.692C329.117 10.4773 329.597 10.37 330.185 10.37C331.119 10.37 331.865 10.6967 332.425 11.35C332.995 11.994 333.279 12.96 333.279 14.248C333.279 15.1067 333.149 15.8253 332.887 16.404C332.635 16.9827 332.276 17.4167 331.809 17.706C331.343 17.9953 330.801 18.14 330.185 18.14C329.597 18.14 329.117 18.0327 328.743 17.818C328.37 17.6033 328.076 17.3467 327.861 17.048H327.763L327.511 18H326.629V7.36H327.861V9.95ZM329.975 11.392C329.443 11.392 329.023 11.4947 328.715 11.7C328.407 11.896 328.188 12.204 328.057 12.624C327.927 13.0347 327.861 13.562 327.861 14.206V14.262C327.861 15.186 328.011 15.8953 328.309 16.39C328.617 16.8753 329.182 17.118 330.003 17.118C330.675 17.118 331.175 16.8707 331.501 16.376C331.837 15.8813 332.005 15.1673 332.005 14.234C332.005 13.2913 331.837 12.582 331.501 12.106C331.175 11.63 330.666 11.392 329.975 11.392ZM333.793 10.496H335.109L336.733 14.766C336.827 15.018 336.911 15.2607 336.985 15.494C337.069 15.7273 337.144 15.956 337.209 16.18C337.275 16.3947 337.326 16.6047 337.363 16.81H337.419C337.475 16.5767 337.564 16.2733 337.685 15.9C337.807 15.5173 337.933 15.1347 338.063 14.752L339.589 10.496H340.919L337.685 19.036C337.508 19.5027 337.298 19.9087 337.055 20.254C336.822 20.6087 336.533 20.8793 336.187 21.066C335.851 21.262 335.441 21.36 334.955 21.36C334.731 21.36 334.535 21.346 334.367 21.318C334.199 21.2993 334.055 21.276 333.933 21.248V20.268C334.036 20.2867 334.157 20.3053 334.297 20.324C334.447 20.3427 334.601 20.352 334.759 20.352C335.049 20.352 335.296 20.296 335.501 20.184C335.716 20.0813 335.898 19.9273 336.047 19.722C336.197 19.526 336.323 19.2927 336.425 19.022L336.817 18.028L333.793 10.496ZM341.686 13.73C341.686 13.1513 341.723 12.582 341.798 12.022C341.882 11.462 342.022 10.9347 342.218 10.44C342.414 9.936 342.685 9.49267 343.03 9.11C343.375 8.718 343.809 8.41467 344.332 8.2C344.864 7.976 345.508 7.864 346.264 7.864C346.46 7.864 346.675 7.87333 346.908 7.892C347.151 7.91067 347.347 7.94333 347.496 7.99V9.04C347.328 8.984 347.137 8.942 346.922 8.914C346.717 8.886 346.507 8.872 346.292 8.872C345.648 8.872 345.111 8.97933 344.682 9.194C344.253 9.40867 343.912 9.70267 343.66 10.076C343.417 10.4493 343.24 10.8787 343.128 11.364C343.016 11.8493 342.946 12.3673 342.918 12.918H343.002C343.142 12.694 343.319 12.4933 343.534 12.316C343.749 12.1387 344.005 11.9987 344.304 11.896C344.612 11.7933 344.967 11.742 345.368 11.742C345.947 11.742 346.451 11.8633 346.88 12.106C347.319 12.3393 347.659 12.6847 347.902 13.142C348.145 13.59 348.266 14.136 348.266 14.78C348.266 15.4707 348.135 16.068 347.874 16.572C347.613 17.076 347.244 17.4633 346.768 17.734C346.301 18.0047 345.741 18.14 345.088 18.14C344.612 18.14 344.169 18.0513 343.758 17.874C343.347 17.6967 342.983 17.426 342.666 17.062C342.358 16.698 342.115 16.2407 341.938 15.69C341.77 15.13 341.686 14.4767 341.686 13.73ZM345.074 17.104C345.662 17.104 346.138 16.9173 346.502 16.544C346.866 16.1613 347.048 15.5733 347.048 14.78C347.048 14.1453 346.885 13.6413 346.558 13.268C346.241 12.8947 345.76 12.708 345.116 12.708C344.677 12.708 344.295 12.8013 343.968 12.988C343.641 13.1653 343.385 13.394 343.198 13.674C343.021 13.954 342.932 14.2433 342.932 14.542C342.932 14.85 342.974 15.1533 343.058 15.452C343.151 15.7507 343.287 16.026 343.464 16.278C343.651 16.53 343.875 16.7307 344.136 16.88C344.407 17.0293 344.719 17.104 345.074 17.104ZM357.328 8.004L353.758 18H352.498L348.928 8.004H350.244L352.498 14.416C352.6 14.6867 352.689 14.948 352.764 15.2C352.838 15.452 352.904 15.6947 352.96 15.928C353.025 16.152 353.081 16.376 353.128 16.6C353.174 16.376 353.226 16.1473 353.282 15.914C353.347 15.6807 353.417 15.438 353.492 15.186C353.576 14.934 353.664 14.668 353.758 14.388L355.998 8.004H357.328ZM361.876 10.356C362.016 10.356 362.165 10.3653 362.324 10.384C362.492 10.3933 362.636 10.412 362.758 10.44L362.604 11.574C362.482 11.546 362.347 11.5227 362.198 11.504C362.058 11.4853 361.922 11.476 361.792 11.476C361.502 11.476 361.227 11.5367 360.966 11.658C360.704 11.7793 360.471 11.952 360.266 12.176C360.06 12.3907 359.897 12.652 359.776 12.96C359.664 13.268 359.608 13.6133 359.608 13.996V18H358.376V10.496H359.384L359.524 11.868H359.58C359.738 11.588 359.93 11.336 360.154 11.112C360.378 10.8787 360.634 10.6967 360.924 10.566C361.213 10.426 361.53 10.356 361.876 10.356ZM370.599 18L369.395 14.906H365.433L364.243 18H362.969L366.875 7.962H368.009L371.901 18H370.599ZM367.897 10.762C367.869 10.6873 367.822 10.552 367.757 10.356C367.691 10.16 367.626 9.95933 367.561 9.754C367.505 9.53933 367.458 9.376 367.421 9.264C367.374 9.45067 367.323 9.642 367.267 9.838C367.22 10.0247 367.169 10.1973 367.113 10.356C367.066 10.5147 367.024 10.65 366.987 10.762L365.853 13.786H369.017L367.897 10.762ZM376.712 10.356C377.608 10.356 378.285 10.5753 378.742 11.014C379.199 11.4433 379.428 12.1433 379.428 13.114V18H378.21V13.198C378.21 12.5913 378.075 12.1387 377.804 11.84C377.533 11.5413 377.109 11.392 376.53 11.392C375.699 11.392 375.125 11.6253 374.808 12.092C374.491 12.5587 374.332 13.2307 374.332 14.108V18H373.1V10.496H374.094L374.276 11.518H374.346C374.514 11.2567 374.719 11.042 374.962 10.874C375.214 10.6967 375.489 10.566 375.788 10.482C376.087 10.398 376.395 10.356 376.712 10.356ZM382.986 10.496V18H381.754V10.496H382.986ZM382.384 7.682C382.571 7.682 382.734 7.74733 382.874 7.878C383.024 7.99933 383.098 8.19533 383.098 8.466C383.098 8.72733 383.024 8.92333 382.874 9.054C382.734 9.18467 382.571 9.25 382.384 9.25C382.179 9.25 382.006 9.18467 381.866 9.054C381.726 8.92333 381.656 8.72733 381.656 8.466C381.656 8.19533 381.726 7.99933 381.866 7.878C382.006 7.74733 382.179 7.682 382.384 7.682ZM390.362 18.154C390.362 17.986 390.366 17.79 390.376 17.566C390.385 17.342 390.404 17.1507 390.432 16.992H390.348C390.133 17.3093 389.834 17.58 389.452 17.804C389.078 18.028 388.593 18.14 387.996 18.14C387.09 18.14 386.353 17.818 385.784 17.174C385.224 16.5207 384.944 15.55 384.944 14.262C384.944 13.4033 385.074 12.6847 385.336 12.106C385.597 11.5273 385.961 11.0933 386.428 10.804C386.894 10.5053 387.431 10.356 388.038 10.356C388.626 10.356 389.106 10.468 389.48 10.692C389.853 10.916 390.152 11.1913 390.376 11.518H390.432L390.614 10.496H391.594V21.36H390.362V18.154ZM388.234 17.118C388.747 17.118 389.158 17.0247 389.466 16.838C389.783 16.6513 390.012 16.3667 390.152 15.984C390.292 15.592 390.366 15.1067 390.376 14.528V14.276C390.376 13.324 390.217 12.6053 389.9 12.12C389.582 11.6253 389.018 11.378 388.206 11.378C387.534 11.378 387.034 11.644 386.708 12.176C386.381 12.6987 386.218 13.4033 386.218 14.29C386.218 15.1767 386.381 15.872 386.708 16.376C387.044 16.8707 387.552 17.118 388.234 17.118ZM393.095 21.36C392.862 21.36 392.656 21.3413 392.479 21.304C392.302 21.276 392.148 21.2387 392.017 21.192V20.198C392.157 20.2353 392.302 20.268 392.451 20.296C392.6 20.324 392.764 20.338 392.941 20.338C393.24 20.338 393.487 20.254 393.683 20.086C393.879 19.9273 393.977 19.6193 393.977 19.162V10.496H395.209V19.12C395.209 19.5867 395.134 19.988 394.985 20.324C394.836 20.66 394.607 20.9167 394.299 21.094C393.991 21.2713 393.59 21.36 393.095 21.36ZM393.879 8.466C393.879 8.19533 393.949 7.99933 394.089 7.878C394.229 7.74733 394.402 7.682 394.607 7.682C394.794 7.682 394.957 7.74733 395.097 7.878C395.246 7.99933 395.321 8.19533 395.321 8.466C395.321 8.72733 395.246 8.92333 395.097 9.054C394.957 9.18467 394.794 9.25 394.607 9.25C394.402 9.25 394.229 9.18467 394.089 9.054C393.949 8.92333 393.879 8.72733 393.879 8.466ZM402.584 18.154C402.584 17.986 402.589 17.79 402.598 17.566C402.608 17.342 402.626 17.1507 402.654 16.992H402.57C402.356 17.3093 402.057 17.58 401.674 17.804C401.301 18.028 400.816 18.14 400.218 18.14C399.313 18.14 398.576 17.818 398.006 17.174C397.446 16.5207 397.166 15.55 397.166 14.262C397.166 13.4033 397.297 12.6847 397.558 12.106C397.82 11.5273 398.184 11.0933 398.65 10.804C399.117 10.5053 399.654 10.356 400.26 10.356C400.848 10.356 401.329 10.468 401.702 10.692C402.076 10.916 402.374 11.1913 402.598 11.518H402.654L402.836 10.496H403.816V21.36H402.584V18.154ZM400.456 17.118C400.97 17.118 401.38 17.0247 401.688 16.838C402.006 16.6513 402.234 16.3667 402.374 15.984C402.514 15.592 402.589 15.1067 402.598 14.528V14.276C402.598 13.324 402.44 12.6053 402.122 12.12C401.805 11.6253 401.24 11.378 400.428 11.378C399.756 11.378 399.257 11.644 398.93 12.176C398.604 12.6987 398.44 13.4033 398.44 14.29C398.44 15.1767 398.604 15.872 398.93 16.376C399.266 16.8707 399.775 17.118 400.456 17.118ZM407.852 18L405.01 10.496H406.326L407.922 14.92C407.996 15.1253 408.076 15.354 408.16 15.606C408.244 15.858 408.318 16.1007 408.384 16.334C408.449 16.558 408.496 16.7493 408.524 16.908H408.58C408.617 16.7493 408.668 16.5533 408.734 16.32C408.808 16.0867 408.888 15.844 408.972 15.592C409.065 15.34 409.144 15.116 409.21 14.92L410.806 10.496H412.122L409.266 18H407.852ZM415.815 17.132C416.002 17.132 416.193 17.118 416.389 17.09C416.585 17.0527 416.744 17.0153 416.865 16.978V17.916C416.734 17.9813 416.548 18.0327 416.305 18.07C416.062 18.1167 415.829 18.14 415.605 18.14C415.213 18.14 414.849 18.0747 414.513 17.944C414.186 17.804 413.92 17.566 413.715 17.23C413.51 16.894 413.407 16.4227 413.407 15.816V11.448H412.343V10.86L413.421 10.37L413.911 8.774H414.639V10.496H416.809V11.448H414.639V15.788C414.639 16.2453 414.746 16.586 414.961 16.81C415.185 17.0247 415.47 17.132 415.815 17.132ZM422.876 12.722H426.334V17.622C425.792 17.7993 425.246 17.93 424.696 18.014C424.145 18.098 423.52 18.14 422.82 18.14C421.784 18.14 420.911 17.9347 420.202 17.524C419.492 17.104 418.951 16.5113 418.578 15.746C418.214 14.9713 418.032 14.0567 418.032 13.002C418.032 11.9567 418.237 11.0513 418.648 10.286C419.058 9.52067 419.646 8.928 420.412 8.508C421.186 8.07867 422.12 7.864 423.212 7.864C423.772 7.864 424.299 7.91533 424.794 8.018C425.298 8.12067 425.764 8.26533 426.194 8.452L425.718 9.544C425.363 9.38533 424.962 9.25 424.514 9.138C424.075 9.026 423.618 8.97 423.142 8.97C422.348 8.97 421.667 9.13333 421.098 9.46C420.528 9.78667 420.094 10.2533 419.796 10.86C419.497 11.4573 419.348 12.1713 419.348 13.002C419.348 13.7953 419.474 14.5 419.726 15.116C419.987 15.7227 420.393 16.1987 420.944 16.544C421.494 16.88 422.218 17.048 423.114 17.048C423.412 17.048 423.674 17.0387 423.898 17.02C424.131 16.992 424.341 16.9593 424.528 16.922C424.724 16.8847 424.906 16.8473 425.074 16.81V13.842H422.876V12.722Z" fill="#555555"/>
</svg>
